<?xml version="1.0" encoding="utf-8"?>
<!-- Generator: Adobe Illustrator 24.0.2, SVG Export Plug-In . SVG Version: 6.00 Build 0)  -->
<svg version="1.1" id="Layer_1" xmlns="http://www.w3.org/2000/svg" xmlns:xlink="http://www.w3.org/1999/xlink" x="0px" y="0px"
	 viewBox="0 0 1500 1500" style="enable-background:new 0 0 1500 1500;" xml:space="preserve">
<style type="text/css">
	.st0{fill:#BFBFBF;}
	.st1{clip-path:url(#SVGID_2_);fill:#EFBF8F;}
	.st2{clip-path:url(#SVGID_2_);}
	.st3{fill:#745020;}
	.st4{opacity:0.1;clip-path:url(#SVGID_2_);}
	.st5{opacity:0.5;clip-path:url(#SVGID_2_);}
	.st6{clip-path:url(#SVGID_2_);fill:url(#SVGID_3_);}
	.st7{clip-path:url(#SVGID_2_);fill:url(#SVGID_4_);}
	.st8{clip-path:url(#SVGID_6_);}
	.st9{fill:url(#SVGID_7_);}
	.st10{opacity:0.2;}
	.st11{fill:#3D1328;}
	.st12{fill:#FFFFFF;}
	.st13{fill:url(#SVGID_8_);}
	.st14{opacity:0.5;clip-path:url(#SVGID_2_);fill:#FFFFFF;}
	.st15{fill:#FFED9F;}
	.st16{fill:#E0B08C;}
	.st17{fill:#F4E9B8;stroke:#442506;stroke-width:3;stroke-miterlimit:10;}
	.st18{fill:#442506;}
	.st19{opacity:0.5;fill:#FFFFFF;}
	.st20{fill:#C9C8C7;stroke:#442506;stroke-width:3;stroke-miterlimit:10;}
	.st21{fill:#999281;}
	.st22{fill:url(#SVGID_9_);}
	.st23{fill:url(#SVGID_10_);}
	.st24{fill:url(#SVGID_11_);}
	.st25{fill:url(#SVGID_12_);}
	.st26{fill:url(#SVGID_13_);}
	.st27{opacity:0.15;fill:#442506;}
	.st28{opacity:0.3;fill:#FFF9E6;}
	.st29{fill:url(#SVGID_14_);}
	.st30{opacity:0.4;fill:#FFF9E6;}
	.st31{clip-path:url(#SVGID_2_);fill:#442506;}
	.st32{fill:#BA9F74;}
	.st33{fill:#E8AA1F;}
	.st34{fill:#DBC097;}
</style>
<path class="st0" d="M1312.4,1308.4c-53.2,53.2-163.6,99.3-238.9,99.3c-155.2,0-374-63.6-544.8-30.4c-92.5,18-319.5,39.1-386.2-27.5
	c-92.3-92.3-19.5-331.2-19.5-461.7c0-174.5-18.5-216.3-22.5-339.1c-3.4-103.1-8.6-248.5,64.3-321.5
	c75.7-75.7,160.7-111.6,310.3-102.7C648,135.1,764.3,38.6,982,102.4c167.4,49.1,267.6,26.5,337.1,96
	c72.2,72.2,50.1,232.9,46.9,334.9c-4.5,140.7,40.2,265.6,40.2,363.9C1406.2,1021.5,1400.3,1220.5,1312.4,1308.4z"/>
<g>
	<defs>
		<path id="SVGID_1_" d="M1312.4,1308.4c-53.2,53.2-163.6,99.3-238.9,99.3c-155.2,0-374-63.6-544.8-30.4
			c-92.5,18-319.5,39.1-386.2-27.5c-92.3-92.3-19.5-331.2-19.5-461.7c0-174.5-18.5-216.3-22.5-339.1
			c-3.4-103.1-8.6-248.5,64.3-321.5c75.7-75.7,160.7-111.6,310.3-102.7C648,135.1,764.3,38.6,982,102.4
			c167.4,49.1,267.6,26.5,337.1,96c72.2,72.2,50.1,232.9,46.9,334.9c-4.5,140.7,40.2,265.6,40.2,363.9
			C1406.2,1021.5,1400.3,1220.5,1312.4,1308.4z"/>
	</defs>
	<clipPath id="SVGID_2_">
		<use xlink:href="#SVGID_1_"  style="overflow:visible;"/>
	</clipPath>
	<path class="st1" d="M988.3,1399.2c-25.4-125.5-84.1-310.7-102-538.9c-32.1-407.9,124.1-576.3,41.4-651.5
		c-108.3-98.6-353.8,101.3-396.5,452.4c-38.9,320,7,591.1,38.8,738.3L988.3,1399.2z"/>
	<g class="st2">
		<path class="st3" d="M886,860.3c-1.6-18.4-2.9-36.8-3.8-55.3c-0.8-18.5-1.4-36.9-1.5-55.4c-0.1-18.5,0.2-37,0.9-55.4
			c0.7-18.5,1.7-36.9,3.3-55.4c3.1-36.8,7.8-73.6,14-110c6.2-36.5,14-72.6,22.7-108.5c4.3-18,8.9-35.9,13.3-53.8
			c4.4-17.9,8.6-35.9,11.9-54c1.6-9.1,2.9-18.2,3.7-27.3c0.8-9.2,0.9-18.4,0-27.5c-0.5-4.6-1.2-9.1-2.4-13.5c-0.5-2.2-1.3-4.4-2-6.6
			c-0.4-1.1-0.8-2.1-1.3-3.2l-0.6-1.6l-0.7-1.5c-1.9-4.2-4.3-8-7-11.7l-2.1-2.7c-0.7-0.9-1.5-1.7-2.3-2.6L931,213
			c-0.4-0.4-0.8-0.8-1.2-1.2l-2.5-2.4c-6.7-6.2-14.4-11.5-22.6-15.5c-8.2-4-17.1-6.8-26.2-8.2c-9.1-1.5-18.3-1.7-27.4-0.9
			c-9.2,0.8-18.2,2.5-27.1,5c-8.8,2.5-17.5,5.7-25.9,9.5c-8.4,3.8-16.5,8.2-24.4,12.9c-7.9,4.8-15.5,9.9-22.9,15.4
			c-7.4,5.5-14.6,11.3-21.5,17.3c-13.9,12.1-26.8,25.2-39,39c-12.1,13.8-23.5,28.3-34.2,43.3c-10.7,15-20.5,30.6-29.8,46.5
			c-9.2,16-17.7,32.3-25.6,48.9C585,456,572,490.6,561.4,525.9c-10.6,35.3-18.6,71.3-24.3,107.7c-0.7,4.6-1.4,9.1-2,13.7l-1.8,13.7
			l-3.2,27.5l-2.8,27.5l-2.5,27.6c-3.1,36.8-5.2,73.6-6.3,110.5c-2.3,73.8-0.7,147.7,4.1,221.4l-0.4,0
			c-6.1-73.6-8.5-147.6-6.8-221.5c0.9-36.9,2.7-73.9,5.5-110.7c0.8-9.2,1.5-18.4,2.3-27.6L526,688l3.1-27.6l1.8-13.8
			c0.6-4.6,1.3-9.2,2-13.7c2.8-18.3,6.3-36.5,10.4-54.6c4-18.1,8.7-36,14.1-53.7c10.7-35.4,24-70.1,39.9-103.6
			c15.9-33.4,34.6-65.6,56.2-95.7c10.8-15,22.4-29.5,34.7-43.3c12.4-13.8,25.6-26.8,39.6-38.9c7-6,14.3-11.8,21.8-17.2
			c7.5-5.4,15.2-10.5,23.2-15.3c8-4.7,16.2-9,24.7-12.7c8.4-3.8,17.2-7,26.1-9.5c8.9-2.5,18.1-4.2,27.3-5c9.2-0.8,18.6-0.5,27.8,1
			c9.2,1.5,18.1,4.3,26.5,8.3c8.4,4,16.1,9.3,23,15.6l2.5,2.4c0.4,0.4,0.8,0.8,1.2,1.2l1.2,1.3c0.8,0.9,1.6,1.7,2.3,2.6l2.2,2.8
			c2.8,3.7,5.3,7.7,7.2,12l0.8,1.6l0.7,1.6c0.4,1.1,0.9,2.2,1.3,3.3c0.7,2.2,1.5,4.4,2.1,6.7c1.2,4.5,2,9.1,2.5,13.7
			c1,9.2,1,18.6,0.3,27.8c-0.7,9.2-1.9,18.4-3.5,27.6c-3.1,18.3-7.2,36.3-11.4,54.3l-12.8,53.9c-4.2,18-8.3,36-12.1,54
			c-3.8,18.1-7.3,36.2-10.4,54.3c-6.3,36.3-11.2,72.9-14.4,109.7c-6.5,73.5-6.7,147.5-1.6,221.2L886,860.3z"/>
	</g>
	<g class="st4">
		
			<image style="overflow:visible;" width="1440" height="4753" xlink:href="CA975A10F320D228.png"  transform="matrix(0.24 0 0 0.24 504.3781 203.7122)">
		</image>
	</g>
	<path class="st5" d="M682.8,686.4c0,0,23.8-40.9,43-53c27.7-17.4,51.7,0.2,56.4-3.9c4.7-4.1-24.3-33.8-62.7-6.3
		C701,636.5,682.8,686.4,682.8,686.4z"/>
	<path class="st5" d="M858.5,694.6c0,0,2.8-34.1-17.9-52.2c-11.2-9.7-31.7-4.9-33.9-9.4c-2.2-4.5,19.2-18.7,39.4,0
		C864.2,649.8,858.5,694.6,858.5,694.6z"/>
	
		<linearGradient id="SVGID_3_" gradientUnits="userSpaceOnUse" x1="9073.4092" y1="827.2496" x2="9073.4092" y2="688.8464" gradientTransform="matrix(-0.9936 -0.1129 -0.1129 0.9936 9929.6631 1034.9268)">
		<stop  offset="0" style="stop-color:#D09600"/>
		<stop  offset="0.3087" style="stop-color:#E1AC3A"/>
		<stop  offset="0.6293" style="stop-color:#F1C171"/>
		<stop  offset="0.8695" style="stop-color:#FBCE92"/>
		<stop  offset="1" style="stop-color:#FFD39F"/>
	</linearGradient>
	<path class="st6" d="M788.7,771c-1.9,30.1,7.5,58.8,35.4,62c25.1,2.9,41.9-21.9,41.8-54.7c-0.2-63-16.6-85.1-40.7-84
		C810.5,694.9,792.7,709.2,788.7,771z"/>
	
		<linearGradient id="SVGID_4_" gradientUnits="userSpaceOnUse" x1="729.2789" y1="840.6381" x2="729.2789" y2="674.7747" gradientTransform="matrix(0.9936 0.1129 -0.1129 0.9936 91.3435 -82.8242)">
		<stop  offset="0" style="stop-color:#D09600"/>
		<stop  offset="0.3087" style="stop-color:#E1AC3A"/>
		<stop  offset="0.6293" style="stop-color:#F1C171"/>
		<stop  offset="0.8695" style="stop-color:#FBCE92"/>
		<stop  offset="1" style="stop-color:#FFD39F"/>
	</linearGradient>
	<path class="st7" d="M776.5,772.9c-8.1,34.2-20.7,63.7-44.4,62.8c-20.5-0.8-32.7-6.7-43.7-21.9c-7.3-10-11.7-36.2-8-61.9
		c10.8-74.6,43-87.7,72.4-79.8C770.8,676.9,792.7,704.6,776.5,772.9z"/>
	<g class="st2">
		<defs>
			<path id="SVGID_5_" d="M687.5,730.2c5-18.1,28.3-19.3,60.9-13.6c11.3,2,27.1,10.3,26.9,23.2c-0.2,12.9,13.9,13.1,14.7,0.2
				c1.5-23.7,70.3-18.8,73.2,0.7c2.9,19.6,8.5,74.7,8.5,74.7s-35.5,17.4-92.8,14.5s-112.4-27.5-112.4-27.5L687.5,730.2z"/>
		</defs>
		<clipPath id="SVGID_6_">
			<use xlink:href="#SVGID_5_"  style="overflow:visible;"/>
		</clipPath>
		<g class="st8">
			
				<radialGradient id="SVGID_7_" cx="8779.9326" cy="1123.673" r="37.2572" fx="8791.8486" fy="1123.3282" gradientTransform="matrix(-1.0916 -0.124 -0.2225 1.9585 10663.9443 -358.1783)" gradientUnits="userSpaceOnUse">
				<stop  offset="0" style="stop-color:#D0D2D3"/>
				<stop  offset="0.242" style="stop-color:#CFD1D0"/>
				<stop  offset="0.4008" style="stop-color:#CDCEC8"/>
				<stop  offset="0.5358" style="stop-color:#CAC9B9"/>
				<stop  offset="0.6574" style="stop-color:#C4C2A3"/>
				<stop  offset="0.77" style="stop-color:#BEB988"/>
				<stop  offset="0.876" style="stop-color:#B5AD66"/>
				<stop  offset="0.9751" style="stop-color:#ACA03F"/>
				<stop  offset="1" style="stop-color:#A99C34"/>
			</radialGradient>
			<path class="st9" d="M794.1,753.5c-3.5,39,4.5,57.4,31.8,57.1c18.8-0.2,40.1-10.1,37.7-48.9c-2.8-43.7-12.8-63.7-34.2-66.1
				C807.9,693.2,796.8,723.7,794.1,753.5z"/>
			<path class="st10" d="M810.2,796.6c-2.2-1.1-3.2-2-3.2-2S808.1,795.4,810.2,796.6z"/>
			
				<ellipse transform="matrix(0.1129 -0.9936 0.9936 0.1129 -20.4352 1488.1437)" class="st11" cx="823.2" cy="755.5" rx="26.1" ry="18.9"/>
			<path class="st12" d="M839.5,733.5c0,0-1.5-12.8-2.9-18.6c-1.4-5.8-10.1-14.7-10.1-14.7s8-0.8,15.9,3.9
				c7.9,4.6,10.2,13.4,10.2,13.4l-5.5,19.2L839.5,733.5z"/>
			<path class="st12" d="M848.4,740l8.1-11.4c0,0,0.6,2.2,1.3,5c0.7,2.8-0.1,5.2-0.1,5.2l-8.8,3.6L848.4,740z"/>
			<polygon class="st12" points="838,740.3 834.3,746.9 841.3,751.9 844.1,748.9 			"/>
		</g>
		<g class="st8">
			
				<radialGradient id="SVGID_8_" cx="249.8754" cy="1162.8872" r="43.7571" fx="263.8701" fy="1162.4823" gradientTransform="matrix(1.1735 0.1333 -0.2277 2.0043 702.1003 -1622.9542)" gradientUnits="userSpaceOnUse">
				<stop  offset="0" style="stop-color:#D0D2D3"/>
				<stop  offset="0.242" style="stop-color:#CFD1D0"/>
				<stop  offset="0.4008" style="stop-color:#CDCEC8"/>
				<stop  offset="0.5358" style="stop-color:#CAC9B9"/>
				<stop  offset="0.6574" style="stop-color:#C4C2A3"/>
				<stop  offset="0.77" style="stop-color:#BEB988"/>
				<stop  offset="0.876" style="stop-color:#B5AD66"/>
				<stop  offset="0.9751" style="stop-color:#ACA03F"/>
				<stop  offset="1" style="stop-color:#A99C34"/>
			</radialGradient>
			<path class="st13" d="M774.7,751c-6.4,46.6-21.4,65.9-55,58.1c-23.2-5.4-46.6-22.9-32.8-67.7c15.5-50.4,33.3-71,60.4-67.9
				S779.7,715.3,774.7,751z"/>
			
				<ellipse transform="matrix(0.1129 -0.9936 0.9936 0.1129 -99.275 1380.7937)" class="st11" cx="723.6" cy="746" rx="27" ry="21.1"/>
			<path class="st10" d="M743,796.9c3-0.6,4.5-1.4,4.5-1.4S745.9,796.1,743,796.9z"/>
			<path class="st12" d="M746.7,724.7c0,0-2.6-16.5-5-23.9c-2.4-7.5-15.9-19.2-15.9-19.2s18.4-8.3,30.6-2.2
				c12.2,6.2,10.9,17,10.9,17l-8.9,32.5L746.7,724.7z"/>
			<path class="st12" d="M760.6,733.3l12.1-14.3c0,0,1,2.8,2.1,6.4s0,6.7,0,6.7l-13.4,4.3L760.6,733.3z"/>
			<polygon class="st12" points="741,731.5 735.5,739.9 746.4,746.5 750.7,742.8 			"/>
			<path class="st10" d="M721.4,803.1c-13.8-6.8-16-20.8-16.5-34c-0.2-5.5,0.1-10.7,0.8-15.7l-2.8-0.3c-0.8-0.1-1.3-0.8-1.3-1.7
				c0-1,0.9-1.7,1.8-1.6l2.8,0.5c0.2-1,0.3-2,0.5-3.1l-3.1-0.6c-1-0.2-1.7-1.2-1.6-2.4l0.3-2.4c0.1-1.2,1.2-2.1,2.4-1.8l3.3,0.8
				c0.5-2.4,1.1-4.8,1.6-7.3c2.8-13.6-8.8-12.5-5.6-23.6c5-17.2,14.5-23.7,14.5-23.7s-12.3,4-23.2,33.4
				c-13.4,36.3-15.8,56.8,1.6,74.4c14,14.1,32.5,13.8,40.3,13C733.8,807.3,728.5,806.6,721.4,803.1z"/>
		</g>
	</g>
	<path class="st14" d="M775.3,724.3c0,0,1.4-8.9-4.3-23.4c-5.8-14.5-11.6-19.6-20.3-21c-4.3-0.7-0.9,7.6,0.5,21.3
		C751.9,708.3,775.3,724.3,775.3,724.3z"/>
	<path class="st14" d="M856.5,725.2c0,0,0.2-0.5-6.9-12.1s-12.7-15-20.1-14.9c-3.6,0,6.7,7.7,7.7,14.4
		C838.6,722.4,856.5,725.2,856.5,725.2z"/>
	<g class="st2">
		<path class="st15" d="M904.5,1398.8c-0.1-31.2,62.3-323.4,286.2-323.4c53.4,0,134,31.2,208.8,26.7l-0.1,26.1
			c0,0-70.9,5.5-167.8-6.1c-165.5-19.8-192.4,276.8-192.4,276.8H904.5z"/>
		<path class="st16" d="M912.8,1417.4c0-51.3,64.3-330,268.3-327.3c53.4,0.7,143.2,37.3,218.1,33.4l0.1,10.8c0,0-49.5,3.6-151.4,1.5
			c-189.5-3.9-176.7,297.3-176.7,297.3L912.8,1417.4z"/>
		<g>
			<path class="st3" d="M904.3,1398.8c-0.1-3.6,0.3-7.1,0.7-10.7c0.4-3.5,1-7.1,1.5-10.6c1.2-7,2.6-14,4.2-20.9
				c1.6-6.9,3.4-13.8,5.3-20.7c1-3.4,1.9-6.9,2.9-10.3c1-3.4,2.1-6.8,3.2-10.2c8.8-27.1,19.7-53.6,33.3-78.6
				c13.6-25.1,29.6-48.8,48-70.5c9.2-10.9,19-21.2,29.6-30.8c10.5-9.6,21.8-18.4,33.8-26.2c12-7.8,24.7-14.4,38-19.8
				c13.3-5.4,27.1-9.4,41.2-12.1c14.1-2.7,28.4-4.1,42.7-4.2c7.2-0.1,14.4,0.3,21.5,1.2c7.1,0.9,14.2,2.1,21.2,3.6
				c14,2.9,27.7,6.4,41.6,9.5c13.8,3.1,27.7,5.9,41.7,7.9c14,2.2,28.1,3.7,42.2,4.7c7.1,0.5,14.2,0.9,21.2,1.2l10.6,0.3l10.6,0.2
				l0,0.4c-14.2,0.5-28.4,0.5-42.7-0.1c-14.2-0.6-28.4-1.8-42.6-3.6c-14.1-1.9-28.2-4.4-42.1-7.3c-7-1.5-13.9-3-20.8-4.6
				c-6.9-1.6-13.8-3.1-20.8-4.5c-13.9-2.8-27.8-4.8-41.8-4.6c-14.1,0.1-28.2,1.3-42,3.8c-13.9,2.5-27.5,6.4-40.6,11.4
				c-13.1,5.1-25.8,11.4-37.9,18.8c-12.1,7.4-23.4,15.9-34.1,25.2c-10.6,9.4-20.5,19.6-29.7,30.4c-9.1,10.8-17.5,22.4-25.1,34.3
				c-7.6,11.9-14.6,24.3-21.1,36.9c-12.9,25.2-24,51.3-33.2,78.1c-4.5,13.4-8.8,26.9-12.3,40.7c-1.8,6.9-3.4,13.8-4.9,20.7
				c-0.7,3.5-1.4,6.9-2,10.4c-0.5,3.5-1.1,7-1.3,10.5L904.3,1398.8z"/>
		</g>
		<g>
			<path class="st3" d="M1005.7,1349.7c5-19,10.6-37.8,17-56.3c3.2-9.3,6.6-18.5,10.3-27.6c3.8-9.1,7.7-18.1,12.1-26.9
				c4.4-8.8,9-17.4,14.1-25.8c5-8.4,10.4-16.6,16.3-24.5c11.7-15.8,25.2-30.3,41.1-42c7.9-5.8,16.4-11,25.3-15.2
				c4.4-2.1,9-4,13.7-5.6c4.6-1.7,9.4-3.1,14.1-4.3c19.1-4.9,39-6.2,58.7-4.7c9.8,0.8,19.5,2.2,29.2,3.7c9.7,1.5,19.4,3,29.1,4.3
				c9.7,1.3,19.4,2.3,29.2,3c9.8,0.8,19.5,1.2,29.3,1.4l0,0.2c-9.8,0.1-19.6-0.2-29.4-0.7c-9.8-0.5-19.6-1.4-29.3-2.5
				c-9.7-1.1-19.4-2.6-29.1-3.9c-9.7-1.4-19.4-2.7-29.1-3.4c-9.7-0.7-19.5-0.8-29.2,0c-9.7,0.8-19.4,2.3-28.8,4.7
				c-18.9,4.7-36.9,12.9-52.8,24.3c-8,5.6-15.4,12.1-22.3,18.9c-6.9,6.9-13.2,14.4-19.1,22.3c-2.9,3.9-5.7,8-8.4,12.1
				c-2.7,4.1-5.3,8.3-7.7,12.5c-4.9,8.5-9.3,17.2-13.5,26c-1,2.2-2.1,4.4-3.1,6.7c-1,2.2-2,4.5-3,6.7c-1.9,4.5-3.9,9-5.7,13.5
				c-3.7,9-7.2,18.2-10.5,27.4c-6.6,18.4-12.6,37.1-18.3,55.8L1005.7,1349.7z"/>
		</g>
	</g>
	<g class="st2">
		<g>
			<path class="st17" d="M850.8,413.6c0.5,26.4,18,37.6,38.4,41c7.5,1.3,62.2,1.8,110.5-15.7c97-35.2,114-90.8,108.5-95.1
				c-14.5-11.5-35.8,39.9-134.5,41.5c-37.3,0.6-67.6-9-79.8-10.1C866.6,372.8,850.4,397.8,850.8,413.6z"/>
			<g>
				<path class="st18" d="M927.4,452.3c2.7-0.8,5.2-2.1,7.4-3.7c2.3-1.6,4.3-3.6,6-5.9c3.4-4.5,5.7-9.9,7-15.6
					c1.3-5.6,1.7-11.5,1.4-17.3c-0.3-5.8-1.3-11.6-3.3-17.2c2.2,5.4,3.5,11.2,4,17.1c0.6,5.9,0.4,11.8-0.7,17.7
					c-1.1,5.8-3.2,11.6-6.6,16.6c-1.7,2.5-3.8,4.8-6.2,6.7c-2.4,1.9-5.2,3.4-8.1,4.4L927.4,452.3z"/>
			</g>
			<g>
				<path class="st18" d="M1032.7,375.4c3.8-0.1,7.7,1.2,10.7,3.6c3,2.4,5.1,5.5,6.5,8.8c1.5,3.3,2.3,6.8,2.7,10.4
					c0.3,3.5,0.2,7.2-0.9,10.6c0.8-3.5,0.7-7,0.1-10.5c-0.6-3.4-1.7-6.8-3.3-9.8c-1.6-3-3.8-5.8-6.5-7.6c-2.7-1.9-6-2.7-9.2-2.4
					L1032.7,375.4z"/>
			</g>
			<g>
				<path class="st18" d="M962.4,448.4c2.6-1.4,5-3.2,7-5.3c2.1-2.1,3.8-4.5,5.2-7c1.5-2.5,2.7-5.2,3.4-8.1c0.8-2.8,1.2-5.8,1.3-8.7
					c0.2-5.9-0.4-11.8-1.9-17.5c-0.7-2.8-1.7-5.6-3-8.2c-1.3-2.6-2.9-5.1-5.2-7l0.1-0.1c2.5,1.7,4.4,4.1,5.8,6.7
					c1.4,2.6,2.5,5.4,3.3,8.3c1.5,5.8,2,11.8,1.4,17.8c-0.3,3-0.8,5.9-1.6,8.8c-0.8,2.9-1.7,5.7-3,8.4
					C972.7,441.8,968,446.3,962.4,448.4L962.4,448.4z"/>
			</g>
			<g>
				<path class="st18" d="M1004.2,438c2.1-3.1,3.8-6.3,5.3-9.7c0.4-0.8,0.8-1.7,1-2.5c0.3-0.9,0.7-1.7,0.8-2.6
					c0.4-1.8,0.6-3.6,0.6-5.5c0-3.7-0.4-7.3-1.2-10.9c-0.8-3.6-1.9-7.1-3.4-10.5l0.1,0c2,3.1,3.5,6.6,4.3,10.3
					c0.8,3.7,1.1,7.5,0.7,11.2c-0.2,1.9-0.5,3.7-0.9,5.5c-0.1,0.9-0.4,1.8-0.6,2.7c-0.2,0.9-0.5,1.8-0.8,2.7
					C1009,432.1,1006.9,435.4,1004.2,438L1004.2,438z"/>
			</g>
			<g>
				<path class="st18" d="M1081.9,385.3c-1-2.1-2.1-4.1-3.2-6.1c-0.5-1-1.1-2.1-1.7-3c-0.6-1-1.4-1.8-2.2-2.7
					c-1.6-1.6-3.3-3.2-5.2-4.5c-1.8-1.3-3.8-2.5-6-3.3l0-0.1c2.3,0.4,4.5,1.4,6.4,2.7c1.9,1.4,3.6,3,5,4.9c0.7,0.9,1.4,1.9,2.1,2.8
					c0.7,0.9,1.4,1.9,2,2.8C1080.4,380.8,1081.4,383,1081.9,385.3L1081.9,385.3z"/>
			</g>
		</g>
		<path class="st19" d="M1094.8,351.2c0,0-36.4,35.2-97.9,40.3c-61.5,5.2-88-2.5-88-2.5l-7.9,32.1c0,0,51.4-1.8,100.2-14.3
			C1050,394.3,1094.8,351.2,1094.8,351.2z"/>
		<path class="st20" d="M584.1,449.5c8.3-23,42.1-94.2,83.5-149s154.2-162.4,255.1-108.3c72.6,38.9,20.9,154.5,1.1,234.7
			c-11.3,45.8-16.1,73.2-20.2,98.2c-4.1,25-79.3,25.4-172.3-3.1S578.3,465.5,584.1,449.5z"/>
		<g>
			<path class="st21" d="M584.1,449.5c4.1-11.4,10.4-20.4,22.9-48.4c1.2-2.8,41.8,46.4,170.5,75.7c106.2,24.1,135.5-4.3,135.2-1.5
				c-2.2,21.4-6.7,35.2-9.2,49.9c-4.1,25-74.3,33.4-168.4,8.6C664,515,578.3,465.5,584.1,449.5z"/>
			<path class="st18" d="M584,449.4c2.8-7.7,6.8-14.9,10.4-22.3c3.6-7.3,7.1-14.7,10.4-22.2l1.2-2.8l0.3-0.7l0.2-0.4l0.1-0.2
				c0-0.1,0.3-0.4,0.5-0.5c0.5-0.1,0.6,0,0.8,0.1c0.2,0.1,0.3,0.1,0.4,0.2c0.2,0.1,0.5,0.3,0.7,0.4c1.7,1.2,3.3,2.5,4.9,3.7
				c3.2,2.5,6.5,5,9.8,7.3c6.7,4.7,13.6,9.1,20.6,13.1c14.1,8.1,28.9,15.1,43.9,21.5c15.1,6.3,30.4,11.8,46,16.7
				c15.6,4.9,31.3,9.2,47.3,12.9c8,1.9,16,3.5,24,4.9c8.1,1.4,16.2,2.5,24.3,3.3c16.3,1.6,32.7,1.8,48.9-0.4
				c8.1-1.1,16.1-2.9,23.7-5.8c1.9-0.7,3.8-1.5,5.6-2.4l2.7-1.3l0.7-0.3c0.3-0.1,0.5-0.2,0.9-0.3c0.1,0,0.3-0.1,0.7,0.1
				c0.5,0.2,0.8,0.9,0.7,1.1c0,0.2,0,0.2,0,0.3l0,0.2l-0.1,0.8c-0.4,4.1-0.9,8.2-1.5,12.2c-1.2,8.1-3,16.2-4.6,24.2
				c-0.8,4-1.6,8-2.3,12c-0.1,0.5-0.2,1.1-0.3,1.6c-0.1,0.5-0.3,1.1-0.5,1.6c-0.4,1.1-0.9,2.1-1.4,3.1c-1.1,1.9-2.6,3.6-4.3,5
				c-3.3,2.9-7.1,4.9-10.9,6.6c-3.9,1.6-7.9,2.9-11.9,3.8c-8.1,2-16.4,2.9-24.6,3.5c-16.5,1-33,0.2-49.4-1.5
				c-16.4-1.8-32.6-4.7-48.6-8.3c-8-1.8-16-3.8-23.9-6.1c-7.9-2.3-15.8-4.8-23.5-7.6c-15.5-5.6-30.6-12.1-45.3-19.3
				c-14.7-7.3-29.2-15.1-43-24c-6.9-4.5-13.7-9.1-20-14.3c-3.2-2.6-6.2-5.4-8.9-8.5c-1.3-1.6-2.6-3.2-3.6-5
				c-0.5-0.9-0.9-1.9-1.1-2.9C583.6,451.5,583.6,450.4,584,449.4z M584.3,449.5c-0.3,0.9-0.3,1.9-0.1,2.9c0.2,1,0.6,1.9,1.1,2.8
				c1,1.8,2.2,3.4,3.6,4.9c2.7,3,5.8,5.8,9,8.3c6.4,5.1,13.2,9.6,20.2,13.9c14,8.4,28.6,15.8,43.5,22.6
				c29.8,13.3,60.6,24.4,92.6,31.2c15.9,3.6,32,6.4,48.2,8.3c16.2,1.9,32.5,2.8,48.7,1.9c8.1-0.5,16.2-1.4,24-3.2
				c3.9-0.9,7.8-2,11.5-3.5c3.7-1.5,7.2-3.4,10.1-5.9c2.9-2.5,5.1-5.7,5.6-9.4c0.7-4.1,1.6-8.1,2.5-12.1c1.9-8,3.8-15.9,5.1-24
				c0.7-4,1.3-8,1.8-12.1l0.1-0.8l0-0.2c0,0,0-0.2,0-0.1c-0.1,0.1,0.2,0.6,0.5,0.8c0.3,0.1,0.3,0,0.3,0.1c0,0-0.3,0.1-0.5,0.2
				l-0.7,0.3l-2.8,1.3c-1.9,0.8-3.8,1.6-5.8,2.3c-3.9,1.4-7.9,2.5-11.9,3.4c-4,0.9-8.1,1.6-12.2,2.2c-8.2,1.1-16.4,1.5-24.6,1.5
				c-8.2,0-16.4-0.4-24.6-1.2c-8.2-0.7-16.3-1.7-24.4-3c-8.1-1.2-16.2-2.7-24.2-4.4c-16.1-3.3-32-7.3-47.8-11.9
				c-15.7-4.7-31.3-10.2-46.4-16.7c-3.8-1.6-7.5-3.3-11.3-5c-3.7-1.7-7.4-3.6-11.1-5.4c-7.3-3.7-14.5-7.8-21.5-12.1
				c-7-4.3-13.8-8.9-20.4-13.9c-3.3-2.5-6.5-5-9.7-7.6c-1.6-1.3-3.1-2.6-4.7-3.8c-0.2-0.1-0.4-0.3-0.6-0.4c-0.1-0.1-0.2-0.1-0.3-0.1
				c-0.1,0-0.2,0,0-0.1c0.1,0,0.3-0.3,0.2-0.2l-0.1,0.2l-0.2,0.3l-0.3,0.7l-1.3,2.8c-3.5,7.4-7.1,14.8-10.9,22.1
				c-1.9,3.6-3.7,7.3-5.6,10.9C587.5,442,585.7,445.7,584.3,449.5z"/>
		</g>
		<g>
			
				<radialGradient id="SVGID_9_" cx="663.0754" cy="446.3296" r="23.5129" gradientTransform="matrix(0.8403 0.3314 -0.383 0.9273 252.6955 -174.2369)" gradientUnits="userSpaceOnUse">
				<stop  offset="0" style="stop-color:#FFFFFF"/>
				<stop  offset="0.1244" style="stop-color:#F9F9F9"/>
				<stop  offset="0.2856" style="stop-color:#E9E9E9"/>
				<stop  offset="0.4673" style="stop-color:#CECFCF"/>
				<stop  offset="0.6639" style="stop-color:#A9AAAB"/>
				<stop  offset="0.8702" style="stop-color:#7A7A7C"/>
				<stop  offset="1" style="stop-color:#58595B"/>
			</radialGradient>
			<path class="st22" d="M658.7,467.2c-5,12-17.9,18.3-28.8,14c-10.9-4.3-15.7-17.6-10.8-29.6c5-12,17.9-18.3,28.8-14
				S663.7,455.2,658.7,467.2z"/>
			<g>
				<path class="st18" d="M658.8,467.2c-2.2,5.4-6.2,10.2-11.5,13.1c-2.6,1.4-5.5,2.4-8.5,2.6c-3,0.3-6-0.2-8.8-1.3
					c-2.8-1.1-5.3-2.9-7.3-5.1c-2-2.2-3.4-4.9-4.4-7.7c-1.9-5.6-1.5-11.9,0.6-17.4c2.2-5.5,6.3-10.3,11.6-13.1
					c2.6-1.4,5.6-2.3,8.6-2.6c3-0.3,6.1,0.2,8.9,1.3c2.8,1.1,5.4,2.8,7.4,5.1c2,2.2,3.5,4.9,4.4,7.8
					C661.5,455.6,661,461.8,658.8,467.2z M658.7,467.2c1.1-2.7,1.7-5.6,1.8-8.5c0.1-2.9-0.4-5.8-1.4-8.6c-1-2.7-2.5-5.2-4.5-7.3
					c-2-2.1-4.4-3.7-7.1-4.7c-5.4-2.1-11.5-1.5-16.6,1.2c-5.1,2.6-9.2,7.2-11.5,12.5c-2.3,5.3-2.7,11.5-0.8,17.1
					c1.8,5.5,6.2,10.2,11.6,12.1c5.4,2.1,11.6,1.4,16.7-1.1c2.6-1.3,5-3.1,6.9-5.2C655.9,472.4,657.5,469.9,658.7,467.2z"/>
			</g>
		</g>
		<g>
			
				<radialGradient id="SVGID_10_" cx="715.7038" cy="492.8385" r="23.5129" gradientTransform="matrix(1.0231 1.851146e-02 -1.894319e-02 0.9998 -16.6388 -16.5486)" gradientUnits="userSpaceOnUse">
				<stop  offset="0" style="stop-color:#FFFFFF"/>
				<stop  offset="0.1244" style="stop-color:#F9F9F9"/>
				<stop  offset="0.2856" style="stop-color:#E9E9E9"/>
				<stop  offset="0.4673" style="stop-color:#CECFCF"/>
				<stop  offset="0.6639" style="stop-color:#A9AAAB"/>
				<stop  offset="0.8702" style="stop-color:#7A7A7C"/>
				<stop  offset="1" style="stop-color:#58595B"/>
			</radialGradient>
			<ellipse class="st23" cx="706.3" cy="489.5" rx="24.1" ry="23.5"/>
			<path class="st18" d="M730.4,489.9c-0.1,6.2-2.7,12.4-7.3,16.8c-2.3,2.2-5,3.9-7.9,5.1c-3,1.2-6.1,1.7-9.3,1.6
				c-3.2-0.1-6.3-0.8-9.2-2.1c-2.9-1.3-5.5-3.1-7.7-5.3c-2.2-2.2-4-4.9-5.2-7.8c-1.2-2.9-1.8-6-1.8-9.2c0-6.3,2.7-12.6,7.4-16.9
				c2.3-2.2,5.1-3.9,8-5c3-1.2,6.2-1.7,9.3-1.6c6.4,0.1,12.7,2.8,17,7.4C728.1,477.4,730.6,483.6,730.4,489.9z M730.3,489.9
				c0-3.1-0.6-6.2-1.8-9.1c-1.2-2.8-3-5.4-5.2-7.5c-4.4-4.3-10.5-6.7-16.6-6.8c-6.1-0.1-12.2,2.2-16.7,6.3
				c-4.5,4.1-7.3,10.1-7.5,16.2c-0.2,6.2,2.2,12.4,6.7,16.7c4.4,4.4,10.6,6.8,16.7,6.8c6.1,0.1,12.2-2.2,16.8-6.3
				c2.3-2,4.2-4.6,5.5-7.4C729.5,496.1,730.2,493,730.3,489.9z"/>
		</g>
		<g>
			
				<radialGradient id="SVGID_11_" cx="790.3994" cy="512.6093" r="23.5129" gradientTransform="matrix(1.0231 1.851146e-02 -1.894319e-02 0.9998 -16.6388 -16.5486)" gradientUnits="userSpaceOnUse">
				<stop  offset="0" style="stop-color:#FFFFFF"/>
				<stop  offset="0.1244" style="stop-color:#F9F9F9"/>
				<stop  offset="0.2856" style="stop-color:#E9E9E9"/>
				<stop  offset="0.4673" style="stop-color:#CECFCF"/>
				<stop  offset="0.6639" style="stop-color:#A9AAAB"/>
				<stop  offset="0.8702" style="stop-color:#7A7A7C"/>
				<stop  offset="1" style="stop-color:#58595B"/>
			</radialGradient>
			<ellipse class="st24" cx="782.3" cy="510.6" rx="24.1" ry="23.5"/>
			<g>
				<path class="st18" d="M806.5,511c-0.1,6.2-2.7,12.4-7.3,16.8c-2.3,2.2-5,3.9-7.9,5.1c-3,1.2-6.1,1.7-9.3,1.6
					c-3.2-0.1-6.3-0.8-9.2-2.1c-2.9-1.3-5.5-3.1-7.7-5.3c-2.2-2.2-4-4.9-5.2-7.8c-1.2-2.9-1.8-6-1.8-9.2c0-6.3,2.7-12.6,7.4-16.9
					c2.3-2.2,5.1-3.9,8-5c3-1.2,6.2-1.7,9.3-1.6c6.4,0.1,12.7,2.8,17,7.4C804.2,498.5,806.6,504.8,806.5,511z M806.4,511
					c0-3.1-0.6-6.2-1.8-9.1c-1.2-2.8-3-5.4-5.2-7.5c-4.4-4.3-10.5-6.7-16.6-6.8c-6.1-0.1-12.2,2.2-16.7,6.3
					c-4.5,4.1-7.3,10.1-7.5,16.2c-0.2,6.2,2.2,12.4,6.7,16.7c4.4,4.4,10.6,6.8,16.7,6.8c6.1,0.1,12.2-2.2,16.8-6.3
					c2.3-2,4.2-4.6,5.5-7.4C805.6,517.2,806.3,514.1,806.4,511z"/>
			</g>
		</g>
		<g>
			
				<linearGradient id="SVGID_12_" gradientUnits="userSpaceOnUse" x1="931.0447" y1="504.5771" x2="894.8193" y2="504.5771" gradientTransform="matrix(0.5199 8.815972e-02 -0.1672 0.9859 516.0187 -76.0785)">
				<stop  offset="0" style="stop-color:#D0D2D3"/>
				<stop  offset="0.1351" style="stop-color:#CACCCD"/>
				<stop  offset="0.3103" style="stop-color:#BABCBD"/>
				<stop  offset="0.5076" style="stop-color:#A0A1A2"/>
				<stop  offset="0.7211" style="stop-color:#7B7C7D"/>
				<stop  offset="0.9453" style="stop-color:#4D4D4E"/>
				<stop  offset="1" style="stop-color:#404041"/>
			</linearGradient>
			<path class="st25" d="M915.7,503.4c-1.9,10.9-7.7,19.1-12.9,18.2c-5.2-0.9-7.9-10.4-6-21.3c1.9-10.9,7.7-19.1,12.9-18.2
				C915,483,917.6,492.5,915.7,503.4z"/>
			<g>
				<path class="st18" d="M915.8,503.5c-0.7,3.9-1.8,7.8-3.6,11.5c-0.9,1.8-2.1,3.5-3.6,4.9c-0.7,0.7-1.6,1.3-2.6,1.8
					c-1,0.4-2.1,0.6-3.2,0.4c-1.1-0.2-2-0.8-2.8-1.5c-0.7-0.8-1.4-1.6-1.8-2.5c-0.9-1.8-1.4-3.8-1.7-5.8c-0.3-2-0.4-4-0.4-6
					c0.1-2,0.2-4,0.5-6c0.3-2,0.7-4,1.3-5.9c0.6-1.9,1.4-3.8,2.3-5.6c1-1.8,2.1-3.5,3.7-4.9c0.7-0.7,1.6-1.3,2.6-1.8
					c1-0.4,2.1-0.6,3.2-0.5c1.1,0.2,2.1,0.7,2.9,1.5c0.8,0.8,1.4,1.6,1.9,2.5c0.9,1.9,1.5,3.9,1.7,5.9
					C916.8,495.5,916.5,499.5,915.8,503.5z M915.7,503.4c0.3-2,0.5-4,0.5-6c0-2-0.2-4-0.6-5.9c-0.4-1.9-1-3.8-1.9-5.5
					c-0.5-0.9-1.1-1.6-1.7-2.2c-0.7-0.6-1.5-1-2.4-1.2c-0.9-0.1-1.8,0.1-2.6,0.4c-0.8,0.4-1.6,0.9-2.3,1.6c-1.4,1.3-2.6,2.9-3.5,4.6
					c-1,1.7-1.8,3.5-2.4,5.4c-0.6,1.9-1.2,3.8-1.6,5.7c-0.7,3.9-1,7.9-0.3,11.9c0.3,2,0.9,3.9,1.9,5.6c0.5,0.9,1.1,1.6,1.8,2.3
					c0.7,0.6,1.6,1,2.5,1.2c0.9,0.1,1.8-0.1,2.7-0.4c0.8-0.4,1.6-0.9,2.3-1.6c1.4-1.3,2.6-2.9,3.6-4.6c1-1.7,1.8-3.5,2.5-5.4
					C914.8,507.3,915.3,505.4,915.7,503.4z"/>
			</g>
		</g>
		<g>
			
				<linearGradient id="SVGID_13_" gradientUnits="userSpaceOnUse" x1="75.8316" y1="435.7891" x2="39.6827" y2="435.7891" gradientTransform="matrix(-0.4933 -0.1865 0.3537 -0.9354 468.445 843.5443)">
				<stop  offset="0" style="stop-color:#D0D2D3"/>
				<stop  offset="0.1351" style="stop-color:#CACCCD"/>
				<stop  offset="0.3103" style="stop-color:#BABCBD"/>
				<stop  offset="0.5076" style="stop-color:#A0A1A2"/>
				<stop  offset="0.7211" style="stop-color:#7B7C7D"/>
				<stop  offset="0.9453" style="stop-color:#4D4D4E"/>
				<stop  offset="1" style="stop-color:#404041"/>
			</linearGradient>
			<path class="st26" d="M585.1,421.8c4-10.4,11.3-17.3,16.2-15.5c4.9,1.8,5.7,11.7,1.7,22.1c-4,10.4-11.3,17.3-16.2,15.5
				C581.9,442.1,581.1,432.2,585.1,421.8z"/>
			<path class="st18" d="M585.1,421.8c1.5-3.7,3.3-7.4,5.8-10.6c1.2-1.6,2.7-3,4.5-4.2c0.8-0.6,1.8-1,2.9-1.3c1-0.2,2.2-0.2,3.2,0.1
				c1,0.4,1.9,1.1,2.5,2c0.6,0.9,1,1.8,1.3,2.8c0.5,2,0.6,4,0.6,6c-0.1,2-0.4,4-0.8,6c-0.5,2-1,3.9-1.7,5.8
				c-0.7,1.9-1.5,3.7-2.5,5.5c-1,1.8-2.1,3.5-3.4,5c-1.3,1.6-2.8,3-4.5,4.1c-0.9,0.6-1.9,1-2.9,1.3c-1.1,0.2-2.2,0.3-3.3-0.1
				c-1-0.4-1.9-1.1-2.6-2c-0.6-0.9-1.1-1.8-1.4-2.9c-0.6-2-0.7-4.1-0.5-6.1C582.5,429.5,583.6,425.6,585.1,421.8z M585.2,421.9
				c-0.7,1.9-1.3,3.8-1.7,5.8c-0.4,2-0.6,3.9-0.6,5.9c0,2,0.2,4,0.8,5.8c0.3,0.9,0.7,1.8,1.3,2.5c0.6,0.7,1.3,1.3,2.1,1.6
				c0.8,0.3,1.8,0.2,2.7,0.1c0.4-0.2,0.9-0.2,1.3-0.5l0.6-0.3l0.6-0.4c1.6-1,3.1-2.4,4.4-3.9c1.3-1.5,2.4-3.1,3.4-4.8
				c1-1.7,1.9-3.5,2.6-5.3c1.5-3.7,2.5-7.6,2.6-11.6c0.1-2-0.1-4-0.8-5.9c-0.3-0.9-0.8-1.8-1.3-2.6c-0.6-0.7-1.4-1.3-2.2-1.6
				c-0.9-0.3-1.8-0.2-2.7-0.1c-0.4,0.2-0.9,0.3-1.3,0.5l-0.7,0.3l-0.6,0.4c-1.7,1-3.1,2.4-4.4,3.8c-1.3,1.5-2.5,3.1-3.5,4.8
				C586.8,418.2,585.9,420,585.2,421.9z"/>
		</g>
		<g>
			<path class="st17" d="M718.6,383.6c-19.9,27.2-46.3,26.7-70.1,15.9c-8.8-4-66.2-41.5-103.8-93.6
				c-75.5-104.5-52.5-174.3-43.6-175.1c23.5-1.9,8.1,66.6,110,137.3c38.5,26.7,77.1,37.8,90.7,45.2
				C732,329.9,730.6,367.2,718.6,383.6z"/>
			<g>
				<path class="st18" d="M618.4,377.7c3.9,0.1,7.8-0.1,11.7-0.6c3.9-0.6,7.6-1.6,11.2-3c7.2-2.9,13.6-7.8,18.2-14.1
					c4.7-6.3,7.8-13.8,9.6-21.5c1.8-7.7,2.5-15.7,2.3-23.7c0.5,8,0,16-1.6,23.8c-1.6,7.8-4.5,15.5-9.1,22.2c-2.3,3.3-5.1,6.4-8.2,9
					c-3.1,2.6-6.7,4.7-10.4,6.4c-3.7,1.6-7.7,2.8-11.7,3.5c-4,0.7-8.1,1-12.2,1L618.4,377.7z"/>
			</g>
			<g>
				<path class="st18" d="M571.5,234.5c0.6,2.3,0.9,4.8,0.7,7.2c-0.2,2.4-0.9,4.7-1.9,6.9c-2.1,4.3-5.3,7.7-9,10.5
					c-3.7,2.7-7.8,4.8-12,6.3c-4.3,1.5-8.8,2.4-13.3,2.3c4.5-0.1,8.9-1.3,13-3c4.1-1.7,8-4,11.4-6.8c3.4-2.8,6.2-6.3,7.9-10.2
					c1.7-3.9,1.8-8.3,0.4-12.2L571.5,234.5z"/>
			</g>
			<g>
				<path class="st18" d="M578.5,345.7c4-0.2,7.9-0.5,11.9-1.1c3.9-0.7,7.7-1.8,11.4-3.3c3.7-1.5,7.2-3.4,10.3-5.8
					c3.1-2.4,5.8-5.4,8.1-8.7c4.5-6.6,7.3-14.1,9.1-21.8c1.7-7.7,2.4-15.7,2.4-23.6l0.1,0c0.7,7.9,0.2,16-1.5,23.9
					c-0.8,3.9-2.1,7.8-3.7,11.5c-1.6,3.7-3.6,7.2-6,10.4c-4.8,6.4-11.1,11.7-18.5,15c-3.7,1.6-7.6,2.6-11.6,3.3c-4,0.6-8,0.7-12,0.5
					L578.5,345.7z"/>
			</g>
			<g>
				<path class="st18" d="M556.1,323c4.8-0.1,9.4-0.7,14-1.7c1.1-0.3,2.3-0.5,3.4-0.9c1.1-0.4,2.3-0.6,3.4-1.1
					c2.2-0.9,4.3-2,6.2-3.3c3.9-2.6,7.5-5.7,10.7-9.2c3.2-3.4,6.1-7.2,8.5-11.3l0.1,0c-1.9,4.4-4.6,8.4-7.8,12
					c-3.3,3.5-7,6.6-11.2,8.9c-2.1,1.2-4.2,2.2-6.4,3.2c-0.5,0.3-1.1,0.5-1.6,0.7l-1.7,0.7c-1.1,0.5-2.3,0.8-3.4,1.1
					C565.7,323.3,560.8,323.6,556.1,323L556.1,323z"/>
			</g>
			<g>
				<path class="st18" d="M495.9,204.1c3-0.2,5.9-0.5,8.8-0.8c1.5-0.2,2.9-0.3,4.4-0.7c1.4-0.3,2.8-0.8,4.2-1.3
					c2.7-1.1,5.4-2.3,7.8-3.9c2.5-1.5,4.7-3.4,6.7-5.6l0.1,0c-1.6,2.5-3.8,4.6-6.3,6.2c-2.5,1.6-5.3,2.8-8.1,3.6
					c-1.4,0.4-2.9,0.8-4.3,1.2c-1.4,0.4-2.9,0.7-4.3,1C501.8,204.3,498.8,204.5,495.9,204.1L495.9,204.1z"/>
			</g>
		</g>
		<path class="st27" d="M672.1,503L709,393.5c0,0-101.8-68.3-140-108.2c-56.6-59.3-67.5-114.1-71.2-115.1
			c-3.6-1-4.7,54.6,53.4,135.3c35.3,49.1,85.5,85.8,85.5,85.8l-29.9,76.5c0,0,11.2,11,28.1,19.3C657.5,498.3,672.1,503,672.1,503z"
			/>
		<path class="st28" d="M891.5,368.8C871.7,446.2,855.4,545,855.4,545l21.3-5c0,0,15-85.9,28.4-141.2
			c20.7-85.8,37.6-134.7,17.1-166.4c-14.5-22.5-37.5-36.3-73.8-30.6C812.5,207.3,934,202.7,891.5,368.8z"/>
		<g>
			
				<radialGradient id="SVGID_14_" cx="856.9864" cy="517.9836" r="23.5129" gradientTransform="matrix(0.8913 1.612625e-02 -1.894319e-02 0.9998 101.4212 -14.4126)" gradientUnits="userSpaceOnUse">
				<stop  offset="0" style="stop-color:#FFFFFF"/>
				<stop  offset="0.1244" style="stop-color:#F9F9F9"/>
				<stop  offset="0.2856" style="stop-color:#E9E9E9"/>
				<stop  offset="0.4673" style="stop-color:#CECFCF"/>
				<stop  offset="0.6639" style="stop-color:#A9AAAB"/>
				<stop  offset="0.8702" style="stop-color:#7A7A7C"/>
				<stop  offset="1" style="stop-color:#58595B"/>
			</radialGradient>
			<path class="st29" d="M876.4,517.7c-0.2,13-9.8,23.3-21.4,23.1s-20.8-10.9-20.5-23.9c0.2-13,9.8-23.3,21.4-23.1
				S876.7,504.7,876.4,517.7z"/>
			<g>
				<path class="st18" d="M876.5,517.7c-0.1,5.8-2.1,11.7-5.9,16.2c-1.9,2.3-4.3,4.2-6.9,5.5c-2.7,1.3-5.7,1.9-8.7,1.9
					c-3-0.1-5.9-0.9-8.5-2.3c-2.6-1.4-4.9-3.4-6.7-5.6c-3.7-4.6-5.6-10.5-5.6-16.3c0-5.9,2.1-11.8,6-16.3c1.9-2.2,4.3-4.1,7-5.4
					c2.7-1.3,5.7-1.9,8.7-1.9c3,0.1,6,0.8,8.6,2.2c2.6,1.4,4.9,3.4,6.7,5.7C874.9,505.9,876.6,511.9,876.5,517.7z M876.4,517.7
					c0-2.9-0.4-5.8-1.4-8.6c-1-2.7-2.4-5.3-4.3-7.5c-3.7-4.4-9.1-7.3-14.8-7.3c-5.7-0.1-11.2,2.6-15,6.9c-3.8,4.3-5.9,10-6.1,15.7
					c-0.2,5.8,1.6,11.7,5.3,16.1c3.6,4.5,9.2,7.4,15,7.3c5.7,0.1,11.3-2.6,15.1-6.9c1.9-2.1,3.5-4.6,4.5-7.3
					C875.7,523.5,876.3,520.6,876.4,517.7z"/>
			</g>
		</g>
		<path class="st30" d="M824.3,212.9c8.8,1.2,20,6.6,29,15.8c9,9.1,12.5,19,12.5,19s-23.9,10.1-32.2,6.6c-5-2.1-8.1-7.3-15.3-14.6
			c-7.2-7.3-22.6-17.4-22.6-17.4S809.7,210.9,824.3,212.9z"/>
		<path class="st30" d="M783.6,233.7c8.9,0.3,13.7,3.8,22.7,13c9,9.1,16.2,15.5,16.2,15.5s-16.6,11.2-24.9,7.6
			c-5-2.1-8.1-5.5-17.2-12.9c-8.8-7.2-17.2-12.9-17.2-12.9S775.6,233.5,783.6,233.7z"/>
		<path class="st30" d="M845.3,268c0,0,17.6-8.6,24.8-4.9c7.3,3.7,10.7,17.2,9.2,44.1c-1.4,26.9-7.5,57.2-9.5,67
			c-2,9.8-11.3,13.2-10-2.9c1.2-16.1,7.4-50,3.2-70.7C858.8,279.8,845.3,268,845.3,268z"/>
	</g>
	<path class="st31" d="M834.6,890.9c-23.9-9.9-81.2-7.4-103.3,3.7c-15.7,7.8-35.1,27.7-38.7,51.7c-3.7,24-29.5,12.9-29.5,12.9
		s1.8,20.3,24,20.3s44.7-19.1,59-27.7c18.4-11.1,66.4-18.4,86.7-11.1c17.3,6.3,24,14.8,38.7,16.6c22,2.8,22.1-22.1,22.1-22.1
		s-1.8,12.9-20.3-1.8C854.9,918.5,865.9,903.8,834.6,890.9z"/>
	<path class="st31" d="M836.4,990.5c0,0-22.1-3.7-36.9-1.8c-14.8,1.8-35.1,11.1-35.1,11.1s29.5-3.7,33.2,14.8
		c3.7,18.4-5.5,36.9-18.4,38.7c-38.7,5.5-63.2-21.7-96.7,5.1c-27.5,22-6.7,107.2,91.5,100.5c81.1-5.5,123.3-17,136.2-37.3
		c12.9-20.3,5.4-65.1-11.1-73.8c-9-4.7-20.3,3.7-40.6,3.7c-20.3,0-35.1-18.4-35.1-35.1C823.5,999.7,836.4,990.5,836.4,990.5z"/>
	<g class="st2">
		<path class="st15" d="M557.8,1399.2c32.4-162-114.4-341.1-219.5-309.4c-114.5,34.6,63.4-61,144-72.7
			c83.2-12.1,313.1,57.3,342.6,382.3L557.8,1399.2z"/>
		<path class="st32" d="M518.5,1399.2c-19.2-207.8-53.9-283.5-197.5-309.4c0,0,64.7-32.1,140.3-62.4
			c71.7-28.7,314.6,42.1,340.3,371.8H518.5z"/>
		<g>
			<path class="st3" d="M518.3,1399.2c-1.2-16.9-2.6-33.7-4.5-50.5c-0.5-4.2-1-8.4-1.5-12.6c-0.5-4.2-1.1-8.4-1.7-12.5
				c-1.2-8.3-2.5-16.7-3.9-25c-1.4-8.3-2.9-16.6-4.6-24.9c-0.4-2.1-0.9-4.1-1.4-6.2c-0.5-2.1-0.9-4.1-1.5-6.2
				c-0.5-2.1-1-4.1-1.6-6.1c-0.5-2-1.1-4.1-1.7-6.1c-4.7-16.2-11-32-18.6-47c-7.7-15-16.6-29.3-27.1-42.4
				c-10.5-13.1-22.6-24.8-36.1-34.6c-13.5-9.9-28.4-17.7-44.2-23.5c-15.7-5.8-32.3-9.4-49.1-11.6l0-0.4c16.9,0.8,33.8,3.7,50.1,9
				c16.2,5.3,31.7,13.1,45.6,23c6.9,5,13.5,10.5,19.6,16.5c6.1,6,11.8,12.4,17,19.2c10.5,13.5,19.1,28.3,26.1,43.8
				c3.6,7.7,6.7,15.6,9.7,23.5c3,7.9,5.7,16,8.2,24.1c0.6,2,1.3,4,1.9,6.1c0.6,2,1.2,4.1,1.8,6.1c0.6,2,1.2,4.1,1.7,6.1
				c0.6,2,1.1,4.1,1.7,6.1c2.1,8.2,4.1,16.5,5.7,24.8c1.6,8.3,3,16.7,4.1,25.1c0.5,4.2,1,8.4,1.5,12.6c0.4,4.2,0.8,8.4,1.2,12.7
				c1.4,16.9,2,33.9,1.8,50.8L518.3,1399.2z"/>
		</g>
		<path class="st33" d="M583.9,1041c-89.9-35.8-174.9,14.8-217.3,123.1s-108.3,146-153,150.7c-44.7,4.7-95.7-15.6-95.7-15.6
			s59.1-18.2,93.6-101.6c40-96.5,51.8-121.8,98.7-139.6c47-17.8,117.7-35.7,182.1-41C539.5,1013.3,583.9,1041,583.9,1041z"/>
		<path class="st34" d="M576.7,1029.8c-61.9-31.7-161.2-1.6-219.1,134.3c-43,101-103.3,137.4-135.9,142.8c-51.8,8.7-98.6-27-98.6-27
			s54,1.1,88.6-82.4c40-96.5,51.8-121.8,98.7-139.6c47-17.8,102.6-34.7,162.7-41.5C541.2,1008.8,576.7,1029.8,576.7,1029.8z"/>
		<g>
			<path class="st3" d="M443.4,1058c13.9,2.6,27.2,7.8,39.6,14.6c0.8,0.4,1.6,0.8,2.3,1.3l2.3,1.4l4.5,2.8c0.8,0.4,1.5,0.9,2.2,1.4
				l2.2,1.5l4.4,3c2.8,2.1,5.6,4.3,8.4,6.5l4,3.4c1.3,1.2,2.7,2.3,4,3.5l3.8,3.6c1.3,1.2,2.6,2.4,3.8,3.7l3.7,3.8l1.8,1.9l1.8,2
				l3.5,4l1.8,2l1.7,2l3.4,4.1l1.7,2l1.6,2.1c8.7,11.1,16.7,22.8,23.9,34.9c7.3,12.1,13.7,24.7,19.3,37.7c5.5,13,10.3,26.3,14,40
				c3.8,13.6,6.7,27.5,8.6,41.5c1.9,14,2.7,28.1,2.5,42.2l-0.2,0c-0.7-28.2-5.2-56.1-12.8-83.1c-3.8-13.5-8.4-26.8-13.8-39.8
				c-5.4-13-11.6-25.6-18.5-37.9c-6.9-12.2-14.7-24-23.5-35c-4.4-5.5-9-10.8-13.9-15.9l-1.8-1.9l-1.9-1.8l-3.8-3.7
				c-1.2-1.3-2.5-2.4-3.8-3.6l-3.9-3.5c-10.5-9.3-21.8-17.8-34-24.7c-12.2-6.9-25.2-12.4-38.9-15.7L443.4,1058z"/>
		</g>
		<g>
			<path class="st3" d="M295.1,1130.6c-8.4,17.3-14.7,35.5-21.8,53.5c-3.6,9-7.3,17.8-11.2,26.7c-3.9,8.8-7.9,17.6-12.6,26
				c-4.6,8.5-10,16.6-16.4,23.9c-6.3,7.3-13.6,13.9-21.9,19.2c-8.2,5.3-17.3,9.1-26.6,11.7c-9.4,2.5-19,3.8-28.7,4l0-0.2
				c9.6-0.9,19.1-2.5,28.2-5.3c9.2-2.8,17.9-6.8,25.9-12c8-5.2,15.2-11.5,21.6-18.6c6.4-7.1,11.9-15,16.9-23.2
				c4.9-8.2,9.2-16.9,13-25.7c3.8-8.9,7-17.9,10.3-27c3.3-9,6.8-18,10.5-26.9c3.8-8.9,7.8-17.7,12.7-26L295.1,1130.6z"/>
		</g>
		<path class="st33" d="M100.5,1255.9c26,29.3,58.7,57.6,112.6,59.1c0,0-58.8-2.5-112.6-4.2V1255.9z"/>
		<g>
			<path class="st3" d="M191.3,1233.4c5.1-7.4,9.2-15.3,13.2-23.3c4-8,7.7-16.1,11.4-24.2c7.4-16.3,14.4-32.7,21.7-49
				c1.8-4.1,3.7-8.1,5.6-12.2c1.9-4,3.9-8.1,6.3-11.9c2.2-3.8,4.4-7.8,6.7-11.6c2.3-3.8,4.8-7.6,7.6-11.1
				c5.6-7.1,12.2-13.3,19.5-18.6c3.7-2.6,7.5-5,11.4-7.2c3.9-2.2,8-4.2,12.1-6c8.2-3.7,16.7-6.6,25.2-9.2l25.7-7.6
				c17.2-5,34.3-9.9,51.7-14.1c17.3-4.3,34.9-7.7,52.7-9.9c17.7-2.3,35.6-3.4,53.5-3.5c9,0.1,17.9,1.4,26.7,3.1
				c8.8,1.8,17.4,4.2,25.9,7c17,5.6,33.5,12.9,49.3,21.2c15.8,8.3,31,17.9,45.5,28.4c14.5,10.5,28.2,22.1,41.2,34.5
				c12.9,12.4,25,25.7,36,39.8c11,14.1,21,29,29.8,44.6c8.9,15.5,16.5,31.8,22.9,48.5c3.2,8.4,6,16.8,8.6,25.4
				c2.5,8.6,4.7,17.2,6.7,26l-0.2,0c-2.1-8.7-4.4-17.3-7-25.8c-2.7-8.5-5.7-16.9-8.9-25.2c-6.6-16.6-14.3-32.7-23.2-48.1
				c-17.8-30.9-40.3-59-66-83.6c-25.7-24.7-54.8-45.7-86.2-62.6c-15.7-8.3-32-15.6-48.9-21.3c-4.2-1.4-8.5-2.7-12.8-3.9
				c-4.3-1.2-8.6-2.2-13-3.2c-8.7-1.8-17.5-3.1-26.4-3.3c-17.8-0.1-35.7,0.8-53.4,2.9c-17.7,2.1-35.3,5.4-52.6,9.5
				c-17.3,4.2-34.5,9.2-51.6,14.4c-17,5.4-34.4,10-50.5,17.3c-4.1,1.8-8,3.8-11.9,6c-3.9,2.2-7.6,4.5-11.2,7.1
				c-7.2,5.1-13.8,11.2-19.3,18.1c-2.7,3.5-5.2,7.2-7.5,10.9c-2.3,3.8-4.5,7.7-6.7,11.6c-2.3,3.8-4.3,7.7-6.3,11.8
				c-1.9,4-3.8,8.1-5.7,12.1c-7.4,16.2-14.5,32.6-22.1,48.8c-3.8,8.1-7.7,16.1-11.7,24.1c-4.1,7.9-8.4,15.8-13.5,23.1L191.3,1233.4z
				"/>
		</g>
	</g>
</g>
</svg>
