<?xml version="1.0" encoding="utf-8"?>
<!-- Generator: Adobe Illustrator 24.0.2, SVG Export Plug-In . SVG Version: 6.00 Build 0)  -->
<svg version="1.1" id="Layer_1" xmlns="http://www.w3.org/2000/svg" xmlns:xlink="http://www.w3.org/1999/xlink" x="0px" y="0px"
	 viewBox="0 0 776.6 699" style="enable-background:new 0 0 776.6 699;" xml:space="preserve">
<style type="text/css">
	.st0{fill:#BFBFBF;}
	.st1{fill:#FBB22F;}
</style>
<ellipse transform="matrix(0.7071 -0.7071 0.7071 0.7071 -43.4261 442.4714)" class="st0" cx="512.4" cy="273.7" rx="80" ry="80"/>
<path class="st1" d="M512.4,158.1c-39.9,0-75,20.2-95.9,50.8c1.3,2.5,2.5,5.1,3.6,7.7c19.2-30.8,53.4-51.3,92.3-51.3
	c60,0,108.7,48.7,108.7,108.7c0,60-48.7,108.7-108.7,108.7c-39.1,0-73.3-20.6-92.5-51.6c-1.1,2.6-2.3,5.1-3.6,7.6
	c20.8,30.8,56.1,51.1,96.1,51.1c64,0,115.9-51.9,115.9-115.9S576.4,158.1,512.4,158.1z"/>
<title>server down</title>
<ellipse transform="matrix(0.9436 -0.331 0.331 0.9436 -74.3633 110.6604)" class="st0" cx="287.7" cy="273.7" rx="80" ry="80"/>
<path class="st0" d="M732.8,470.3c-10.6-70.8-36.6-124.7-4.7-244c23.5-87.9-64.7-179.8-166.5-167.9c-74.6,8.7-123,10.1-234.8-15.5
	c-109.2-25-103.9,43.3-186.8,64.6C64.4,127,32.7,189.4,43.5,258c9.5,59.9,31.8,130,33.3,188.6c1.5,58.6-13.3,133.7,60.5,171.4
	c73.8,37.6,134.3,3.8,248.9,25.3c60.1,11.2,162.1,34.5,256.7-14.1C756.7,570.6,740.3,520.3,732.8,470.3z M611.1,141.1
	c8.2-9.2,22.5-9.6,31.2-0.8L618.9,166l-17.8-13.9L611.1,141.1z M352.7,593.2h-22.4H210.2v0c-0.2,0-0.3,0-0.5,0
	c-36.5,0-66.1-29.6-66.1-66.1s29.6-66.1,66.1-66.1c3.4,0,6.8,0.3,10.1,0.8l-22.4,25c-17.1,5.3-29.6,21.3-29.6,40.1
	c0,23.2,18.8,42,42,42h0.5v0h108.3L297,525.3c-7-14.3-4.7-31.5,6-43.3l97.7-108.8l16,16l-93.6,103.3c-6.6,7.3-7.9,18-3.2,26.7
	l39.8,74.1H352.7z M379.5,460.9l-10.9-9.9l25-27.7l10.9,9.9L379.5,460.9z M408.4,436.7l10.9,9.9l-25,27.7l-10.9-9.9L408.4,436.7z
	 M365.7,535.8l-40.6-36.7l11.4-12.6l40.6,36.7L365.7,535.8z M396.4,501.8l-15.2,16.8l-40.6-36.7l15.2-16.8l0,0
	c2.4-2.7,5.8-4.5,9.7-4.8c8.1-0.7,15.3,5.3,16,13.4c0.1,1.4,0,2.7-0.2,4c0.9-0.3,1.9-0.5,3-0.6c8.1-0.7,15.3,5.3,16,13.4
	C400.5,494.9,399,498.9,396.4,501.8L396.4,501.8z M409.2,487.7l-10.9-9.9l25-27.7l10.9,9.9L409.2,487.7z M451.8,440.6l-13.4,14.8
	l-10.9-9.9l13.4-14.8c1-1.1,0.9-2.7-0.2-3.7c-1.1-1-2.7-0.9-3.7,0.2l-1.8,2c-6.4,7.1-17.4,7.7-24.5,1.2v0
	c-7.1-6.4-7.7-17.4-1.2-24.5l12-13.4l11.7,9.4l-12.8,13.9c-1,1.1-0.9,2.7,0.2,3.7c1.1,1,2.7,0.9,3.7-0.2l1.8-2
	c6.4-7.1,17.4-7.7,24.5-1.2h0C457.6,422.5,458.2,433.4,451.8,440.6z M512.4,417.8c-45.2,0-85.5-20.8-111.9-53.3L220.2,563.1
	c0,0-6.8,0.9-14.7,0.1c-11.4-1.1-17.6-7.6-17.6-7.6l127.5-140.6c-0.1,0-0.2,0.1-0.4,0.1l48-53.1c0.9-0.7,1.7-1.5,2.6-2.3l15.1-16.6
	c14.4-19.3,22.9-43.2,22.9-69.1c0-64-51.9-115.9-115.9-115.9c-64,0-115.9,51.9-115.9,115.9s51.9,115.9,115.9,115.9
	c19.1,0,37.2-4.6,53.1-12.9L311,410c0,0-107.4,122.3-126.2,141.9c0,0-5.6-4-9-13.4c-2.8-8-2.7-16.7-2.7-16.7
	c21.3-23.8,66.3-74.6,93.6-105.5c-69.7-10.2-123.1-70.1-123.1-142.6c0-79.6,64.5-144.1,144.1-144.1c45.4,0,85.9,21,112.3,53.9
	c26.4-32.8,66.9-53.9,112.3-53.9c79.6,0,144.1,64.5,144.1,144.1S592,417.8,512.4,417.8z M287.7,382.6C227.7,382.6,179,334,179,274
	c0-60,48.7-108.7,108.7-108.7c60,0,108.7,48.7,108.7,108.7C396.4,334,347.7,382.6,287.7,382.6z M674.3,195.3l-21.4,24.2l-6.7-14.9
	l17.1-19.2c1-1.1,0.9-2.7-0.2-3.7s-2.7-0.9-3.7,0.2l-1.8,2c-6.4,7.1-17.4,7.7-24.5,1.2h0c-7.1-6.4-7.7-17.4-1.2-24.5l15-16.2
	l11.1,10.5l-15.2,15.6c-1,1.1-0.9,2.7,0.2,3.7h0c1.1,1,2.7,0.9,3.7-0.2l1.8-2c6.4-7.1,17.4-7.7,24.5-1.2v0
	C680.2,177.2,680.7,188.2,674.3,195.3z"/>
</svg>
