<?xml version="1.0" encoding="utf-8"?>
<!-- Generator: Adobe Illustrator 24.0.2, SVG Export Plug-In . SVG Version: 6.00 Build 0)  -->
<svg version="1.1" id="Layer_1" xmlns="http://www.w3.org/2000/svg" xmlns:xlink="http://www.w3.org/1999/xlink" x="0px" y="0px"
	 viewBox="0 0 776.6 699" style="enable-background:new 0 0 776.6 699;" xml:space="preserve">
<style type="text/css">
	.st0{font-family:'ArialMT';}
	.st1{font-size:12px;}
	.st2{fill:#35A749;}
	.st3{fill:#FBB22F;}
	.st4{fill:#BFBFBF;}
</style>
<text transform="matrix(1 0 0 1 0 -6.728313e-06)" class="st0 st1"> </text>
<text transform="matrix(1 0 0 1 0 -6.728313e-06)" class="st0 st1"> </text>
<title>server down</title>
<circle class="st2" cx="336" cy="290.9" r="42"/>
<circle class="st3" cx="470" cy="290.9" r="42"/>
<g>
	<path class="st4" d="M260.5,509.5c0,1.4,0.6,3.6,3,3.6c5.1,0,10.6-6.9,13-9.6c1.9-5,4.8-9.6,7.3-12.4c4.8-5.1,12.4-10.3,19.7-10.3
		c5,0,8.2,2.1,9.6,5.6c2.8-3.8,5.7-6.2,7.9-6.2c6.3,0,8,5,8,6.3c0,1.8-11.7,15.5-11.7,22.5c0,1.4,0.6,3.6,3,3.6
		c4.4,0,9.1-5.1,11.8-8.2c2.3-2.7,5.4-6.4,7.3-9.4c-0.1-1.8,0.1-3.5,0.7-5.2c1.7-4.8,4.6-8.1,8.1-9.8l-33.3-1.5
		c-12.6-1.7-24-3.8-34.4-6.1C274.2,480.8,260.5,500.3,260.5,509.5z"/>
	<path class="st4" d="M253.2,465.5c0,12.8-9.9,22.8-20,22.8c-5.2,0-6.6-3.4-6.6-6.2c6.9-5.9,13.6-12.6,13.6-18.7
		c0-2.4-1.7-4.6-5.1-4.6c-14.3,0-42.8,32.6-42.8,52.9c0,9.2,2.5,16.6,12.4,16.6c15.3,0,31.7-12,40.1-19.1
		c2.6-13.6,14.5-30.7,23.4-39.9c-5.3-1.4-10.2-2.9-14.9-4.4C253.2,465,253.2,465.2,253.2,465.5z"/>
	<path class="st4" d="M304,488.9c-5.3,0-16,9.5-16,17.2c0,2.6,1.5,4,3.4,4c6,0,15.8-11.1,15.8-17.3
		C307.1,491.8,307.1,488.9,304,488.9z"/>
	<path class="st4" d="M334.4,510.2c-0.2,0.2-0.3,0.4-0.5,0.5c-0.5,0.8-1,1.5-1.6,2.3c0,0,0.1,0,0.1,0c1.3,0,1.8,1.2,1.8,2.1
		c0,6.9,3.4,7.4,5.6,7.4c3.4,0,6.1-3.8,6.1-6.3c0-4-3.3-9.3-5.1-15C338.4,504.7,335.5,508.5,334.4,510.2z"/>
	<path class="st4" d="M732.8,470.3c-10.6-70.8-36.6-124.7-4.7-244c23.5-87.9-64.7-179.8-166.5-167.9c-74.6,8.7-123,10.1-234.8-15.5
		c-109.2-25-103.9,43.3-186.8,64.6C64.4,127,32.7,189.4,43.5,258c9.5,59.9,31.8,130,33.3,188.6c1.5,58.6-13.3,133.7,60.5,171.4
		c73.8,37.6,134.3,3.8,248.9,25.3c60.1,11.2,162.1,34.5,256.7-14.1C756.7,570.6,740.3,520.3,732.8,470.3z M435.3,532.9
		c-0.1-3.4,1.3-9,3.7-15.7c-0.6-0.9-1.1-1.9-1.5-3.1c-2.5-6.9-5.1-30.1-4.4-46.7c-11.4,21.2-27.8,58-27.4,75.6
		c-8.3,2.6-16.2-2.3-16.3-10.1c-0.4-16.9,34.6-84.8,47.1-86.1c2.9-0.3,6.7-0.7,6.9,4.9c0,0,0,0,0,0c0,0,0,0,0,0.1
		c-1.9,0.8-1.9,31.5,1,52.4c3.5-7.9,11.7-24.3,11.7-24.3c9-16.7,20.8-32.5,26.5-33.1c2.9-0.3,6.7-0.7,6.9,4.9
		c-1.3,0.1-6.6,8.6-12.8,20.6c34.6-13.6,55.6-34.8,68.1-47.9c19.3-20.4,16.3-40.3,16.3-40.3l5.3-6.7c0,0,5.1,1.3,10.3-3.1
		c5.2-4.4-1-14.7-5.7-17.1c-7.1-3.6-8.4,7.7-8.4,7.7l-11.4,6.5c0,0-13-10.5-35.8,4.7c-17,11.4-37.7,38.7-107,40.2
		c-56.1,1.2-92.8-24.4-107-34.6c-23-16.5-45.5-11.4-45.5-11.4l-8-7l-13.4,6.4c0,0,7,5.8,9.8,13.8c4,11.3-0.6,22.7,22.2,45.9
		c20.1,20.5,52.6,39.8,89.6,49.4c0.9,0.1,1.6,0.3,2.2,0.6c2,0.5,1.7,1.2,1.7,1.2c0.9,1,1.3,2.4,1.3,4c0.1,3-1.1,6.8-2,6.6
		c-2.8-0.6-5,2.2-5.9,5.6c-1.3,4.7,0.9,11.2,2.2,17.3c1.7-0.8,3.5-1,4.7-1c1.3,0,1.8,1.2,1.8,2.1c0,6.9,3.4,7.4,5.6,7.4
		c3.4,0,6.1-3.8,6.1-6.3c0-4-3.3-9.3-5.1-15c-2.3,3.5-5.2,7.3-6.3,9c-1.8,2.6-5.4-2.2-5.4-2.2s7-7.7,10.5-13
		c-0.1-1.8,0.1-3.5,0.7-5.2c2.6-7.3,7.8-11.1,14.2-11.1c5.1,0,6.6,2.5,6.7,5.8c0.1,3-1.1,6.8-2,6.6c-2.8-0.6-5,2.2-5.9,5.6
		c-2,7.6,4.8,19.5,2.6,27.9c-1.9,6.9-8.9,13.1-19.4,13.1c-6.2,0-9.9-3-12-6.4c-3.4,3.8-8.8,6.4-15.7,6.4c-10.6,0-14.1-8.8-14.1-13.4
		c0-0.5,0-1,0.1-1.5c-3.1,2.2-6.4,3.6-9.2,3.6c-6.3,0-10-5-10.6-11.1c-5,5.9-15.7,15.3-23.7,9c-2.9-2.3-4.2-5.5-4.3-9.2
		c-4.7,6.3-10.1,11.7-16.7,11.7c-8.7,0-12.1-3.8-13.1-8.9c-9.8,11.3-27.7,25.9-45.4,25.9c-16,0-24.9-11.4-24.9-28.3
		c0-25.6,22.6-55.6,46.1-64.9c-44.7-24.8-44-54.5-44-54.9c0.7-10.6,1.6-21.1,2.7-31.7c1.2-11.1,2.7-22.2,4.5-33.2
		c5.6-34.4,13.9-68.2,26.1-100.9c7.2-19.2,15.4-37.8,25.8-55.5c1.8-3,3.9-5.4,6.8-7.4c20.7-14.5,43.2-25.4,67.5-32.3
		c9.8-2.9,19.9-4.8,30.1-5.9c1-0.1,10.1,25,10.1,24.8c21.8-3.7,43.7-4.7,65.7-4c14.8,0.5,28.3,2.2,43.6,4.6c0.9,0.1,6-25.4,7.5-25.3
		c8,0.8,15.9,2.1,23.7,4.1c27.6,6.9,52.7,19.4,75.9,35.8c1.1,0.8,1.9,1.7,2.6,2.8c8,12.7,14.4,26.1,20.2,39.8
		c8.8,20.8,16,42.2,21.7,64c5.4,20.5,9.6,41.3,12.8,62.3c2.4,15.8,4.1,31.6,5.4,47.5c0.3,3.5,0.4,7,0.7,10.5
		c0,0.9-3.9,69.2-157.5,85c-10.2,21-20.9,48-20.6,62.2C443.3,545.7,435.5,540.8,435.3,532.9z M546.7,528.6c-4,0-12.1-2.2-12.2-13.2
		c-4.4,6.7-10.4,13.2-15.8,13.2c-3.9,0-11.9-2.1-12.2-12.8c-3.8,2.7-7.9,4-11.8,2.9c-3.9,4.8-8.9,8.3-14.8,8.3
		c-12.5,0-14-10.7-13.6-15.9c1.5-16.6,12.5-29.7,25.3-29.7c8.7,0,12.8,5.2,12.8,13.3c0,3.8-1.7,10.1-4.7,16.1
		c3.2,0.5,5.7-1.2,7.7-3.2c2.6-12,9.9-25.4,12.8-25.4c5.4,0,9.8,2.4,11,5.3c0.3,0.7,0.1,1.6-0.6,2c-5.2,3.3-17.9,25.5-9.5,25.5
		c3.9,0,11.5-8.2,16.3-15.6c2.5-7.5,6.1-13.3,8.3-13.3c5.4,0,9.8,2.4,11,5.3c0.3,0.7,0.1,1.6-0.6,2c-5.2,3.3-15.3,21.7-7,21.7
		c4.4,0,19.4-12.8,21-32.5c0.2-2,2.3-3.3,4.2-2.5c3,1.3,6.4,4.4,6.4,11.3C580.7,504.1,563.3,528.6,546.7,528.6z M600,536.8
		c-1.6,5.8-5.8,9.6-10.6,9.6c-4.8,0-8.3-4.3-6.9-9.6c1.4-5.3,5.8-9.6,10.6-9.6C598.3,527.3,601.4,531.5,600,536.8z M638.2,462.2
		c-5.1,4.2-27.2,37.2-32.9,52.1c-1.4,3.5-6,4.3-8.4,1.4c-1.6-2-2.7-4.5-2.7-6.7c0-6.9,26.6-54.6,34.4-54.6c6.5,0,9.4,3.5,10.1,6.1
		C638.9,461.1,638.7,461.8,638.2,462.2z"/>
	<path class="st4" d="M493.1,487c-4,0-13.2,7-13.2,16.6c0,3,0.8,7,4.2,7c1.4,0,2.6-0.2,3.8-0.6c0,0,0,0,0,0c0-5.2,4.9-10.6,9.2-9.4
		c1.2-2.9,1.7-5.8,1.7-7.6C498.9,490,497.1,487,493.1,487z"/>
</g>
</svg>
