<?xml version="1.0" encoding="utf-8"?>
<!-- Generator: Adobe Illustrator 24.0.2, SVG Export Plug-In . SVG Version: 6.00 Build 0)  -->
<svg version="1.1" id="Layer_1" xmlns="http://www.w3.org/2000/svg" xmlns:xlink="http://www.w3.org/1999/xlink" x="0px" y="0px"
	 viewBox="0 0 776.6 699" style="enable-background:new 0 0 776.6 699;" xml:space="preserve">
<style type="text/css">
	.st0{font-family:'ArialMT';}
	.st1{font-size:12px;}
	.st2{fill:#BFBFBF;}
	.st3{fill:#FBB22F;}
	.st4{fill:#35A749;}
</style>
<text transform="matrix(1 0 0 1 0 -6.728313e-06)" class="st0 st1"> </text>
<text transform="matrix(1 0 0 1 0 -6.728313e-06)" class="st0 st1"> </text>
<title>server down</title>
<path class="st2" d="M249.5,170c0,0,0.1,0.1,0.1,0.1c0-0.1,0.1-0.1,0.1-0.2c0,0-0.1-0.1-0.1-0.1C249.6,169.8,249.5,169.9,249.5,170z
	"/>
<path class="st3" d="M312.2,239.6c-8.3,8.6-12.1,19-12.4,30.5c0.1,2.4,0.1,4.4,0.4,6.4c1.5,10.9,6,20.1,14.4,27.4
	c13.3,11.4,32.9,10.5,45-2.1c6.7-6.9,10.7-15.1,11.9-24.6c1.9-14.5-1.8-27.4-12.2-38C346.2,226.1,325.1,226.3,312.2,239.6z"/>
<path class="st2" d="M214.5,521.8c-1.9-1.8-4.1-2.7-6.6-2.7c-2.5,0-4.6,0.9-6.5,2.7c-1.9,1.8-3.3,4.3-4.3,7.5c-1,3.2-1.5,6.9-1.5,11
	c0,4.1,0.5,7.8,1.5,11c1,3.2,2.4,5.7,4.3,7.4c1.9,1.8,4.1,2.7,6.6,2.7c2.5,0,4.7-0.9,6.6-2.7c1.9-1.8,3.3-4.3,4.3-7.4
	c1-3.2,1.5-6.8,1.5-11c0-4.1-0.5-7.8-1.5-11C217.8,526,216.4,523.5,214.5,521.8z"/>
<path class="st2" d="M732.8,470.3c-10.6-70.8-36.6-124.7-4.7-244c23.5-87.9-64.7-179.8-166.5-167.9c-74.6,8.7-123,10.1-234.8-15.5
	c-109.2-25-103.9,43.3-186.8,64.6C64.4,127,32.7,189.4,43.5,258c9.5,59.9,31.8,130,33.3,188.6c1.5,58.6-13.3,133.7,60.5,171.4
	c73.8,37.6,134.3,3.8,248.9,25.3c60.1,11.2,162.1,34.5,256.7-14.1C756.7,570.6,740.3,520.3,732.8,470.3z M236.8,579.1
	c0,1.3-0.2,2.3-0.7,3c-0.4,0.7-1.1,1.1-2,1.1h-12c-0.8,0-1.4-0.2-1.7-0.7c-0.4-0.5-0.6-1.3-0.8-2.4l-0.2-1.3
	c-0.1-0.8-0.2-1.4-0.3-1.7c-0.1-0.3-0.4-0.4-0.8-0.4c-0.3,0-0.7,0.2-1.1,0.7c-0.4,0.5-0.7,0.9-1,1.1c-4.1,4.2-8.6,6.3-13.3,6.3
	c-4.9,0-9.3-1.9-13.1-5.8c-3.8-3.9-6.7-9.1-8.9-15.9c-2.1-6.7-3.2-14.4-3.2-22.9c0-8.5,1.1-16.2,3.2-22.9c2.1-6.8,5.1-12.1,8.9-15.9
	c3.8-3.9,8.2-5.8,13.1-5.8c4.7,0,8.8,1.8,12.4,5.4c0.5,0.5,0.9,1,1.3,1.5c0.3,0.3,0.6,0.7,0.9,0.9s0.5,0.4,0.7,0.4
	c0.7,0,1-0.7,1-2.1v-42.3c0-1.3,0.2-2.3,0.7-3c0.5-0.7,1.1-1.1,1.9-1.1h12c0.8,0,1.5,0.3,1.9,1.1c0.5,0.7,0.7,1.7,0.7,3V579.1z
	 M266.4,487.9c-2.2,7.4-5.3,14.3-9.4,20.6c-0.7,1.1-1.4,1.6-2.1,1.6c-0.4,0-1.1-0.4-2.1-1.1l-6-5c-1-0.8-1.5-1.9-1.5-3.2
	c0-0.7,0.2-1.8,0.7-3.2c3-8.8,4.5-17.5,4.5-26.2c0-3.3-0.2-6.5-0.7-9.8c-0.2-1.5-0.3-2.5-0.3-3c0-1,0.2-1.8,0.6-2.4
	c0.4-0.6,1-0.9,1.7-0.9h14.7c0.9,0,1.6,0.4,2,1.1c0.4,0.8,0.7,1.8,0.8,3.1c0.1,1.3,0.2,3.3,0.2,5.9
	C269.6,473.1,268.6,480.5,266.4,487.9z M565.3,567.4c-2.7,5.7-6.6,10.2-11.6,13.3c-5,3.1-10.8,4.6-17.4,4.6c-9.4,0-17-3-22.8-9.1
	c-5.8-6.1-9.5-14.6-11-25.6c-0.3-2.5-0.4-4.1-0.4-4.8c0-1.2,0.2-2.1,0.6-2.7c0.4-0.6,1-0.9,1.9-0.9h14.5c1.5,0,2.5,1.2,2.9,3.7
	c0.9,4.7,2.5,8.3,5,10.8c2.5,2.5,5.8,3.7,9.9,3.7c4.1,0,7.4-1.1,9.8-3.3c2.4-2.2,3.6-5.1,3.6-8.8c0-3-0.7-5.4-2.1-7.2
	c-1.4-1.8-3.8-3.1-7-4l-13.3-3.6c-5.1-1.3-9.4-3.8-12.9-7.4c-3.5-3.6-6.2-8-8-13.1c-1.8-5.1-2.7-10.7-2.7-16.8
	c0-7.6,1.3-14.2,4-19.9c2.7-5.7,6.4-10.1,11.2-13.1s10.2-4.6,16.2-4.6c5.9,0,11.2,1.4,15.8,4.3c4.6,2.9,8.3,7,11.2,12.3
	c2.8,5.3,4.6,11.5,5.2,18.5c0.1,1.2,0.2,2,0.2,2.4c0,1.1-0.2,2-0.7,2.5c-0.4,0.6-1.1,0.9-1.8,0.9h-14.5c-0.7,0-1.4-0.3-1.8-0.9
	c-0.5-0.6-0.9-1.5-1.1-2.6c-0.9-4.1-2.5-7.2-4.8-9.3c-2.3-2.1-5.3-3.1-8.8-3.1c-3.3,0-5.9,0.9-7.9,2.8c-2,1.9-3,4.5-3,7.9
	c0,3,0.7,5.6,2.1,7.7c1.4,2.2,3.6,3.7,6.7,4.5l16,4.4c7.1,1.9,12.4,6.1,15.9,12.4c3.5,6.4,5.3,14.3,5.3,23.8
	C569.4,554.9,568.1,561.7,565.3,567.4z M624.7,571.4c-2.1,4.3-5,7.6-8.7,9.9c-3.7,2.3-8.1,3.5-13,3.5c-6.9,0-12.5-1.7-16.8-5.2
	c-4.3-3.4-7.2-9.1-8.6-16.9c-0.3-1.8-0.5-3.3-0.5-4.6c0-1.5,0.6-2.2,1.8-2.2h13.1c0.5,0,0.9,0.2,1.3,0.6c0.3,0.4,0.6,0.9,0.8,1.7
	c1.3,4.5,4.1,6.7,8.3,6.7c2.4,0,4.2-0.6,5.6-1.9c1.3-1.3,2-2.9,2-4.9c0-1.6-0.5-3-1.5-4.2c-1-1.1-2.5-2-4.5-2.5l-8.4-2.2
	c-5.6-1.5-10-4.5-13-9.1c-3.1-4.6-4.6-10.5-4.6-17.7c0-5,1-9.6,2.9-13.7c1.9-4.1,4.7-7.3,8.3-9.7c3.6-2.4,7.9-3.6,12.9-3.6
	c6.2,0,11.5,1.9,15.8,5.6c4.3,3.7,7,9.6,8.1,17.8c0.2,1.2,0.3,2.1,0.3,2.9c0,0.6-0.1,1.2-0.4,1.5c-0.3,0.4-0.7,0.6-1.3,0.6h-12.2
	c-0.5,0-0.9-0.2-1.2-0.6c-0.3-0.4-0.6-1-0.8-2c-0.8-2.4-1.8-4-3.2-4.8c-1.3-0.8-3-1.2-5.1-1.2c-1.9,0-3.5,0.6-4.7,1.8
	c-1.2,1.2-1.8,2.7-1.8,4.5c0,1.6,0.4,3,1.3,4.1c0.9,1.1,2.3,1.9,4.2,2.5l10.4,2.9c5.5,1.5,9.6,4.3,12.4,8.4
	c2.8,4.1,4.1,9.7,4.1,16.7C627.9,562.1,626.8,567.1,624.7,571.4z M468.6,461.2c0.2,0.1,0.4,0.3,0.6,0.5c0.6,0.6,1.1,1.8,1.5,3.5
	l26.4,112.6c0.2,1.1,0.3,1.9,0.3,2.5c0,0.9-0.2,1.6-0.6,2.1c-0.4,0.5-1,0.8-1.7,0.8h-13.5c-0.7,0-1.4-0.3-1.8-0.8
	c-0.5-0.5-0.8-1.4-1.1-2.5l-4.1-18.2c-0.5-2.2-1.5-3.3-3-3.3h-26.7c-1.5,0-2.5,1.1-3,3.3l-4.1,18.2c-0.5,2.2-1.5,3.3-2.9,3.3h-13.5
	c-0.7,0-1.3-0.3-1.7-0.8c-0.4-0.5-0.6-1.2-0.6-2.1c0-0.5,0.1-1.3,0.4-2.5l26.4-112.6c0.2-0.9,0.5-1.7,0.7-2.3
	c0.7-1.1,0.6-1.9,8.7-3.9c47.5-12.1,74.3-39.1,89.1-54.6c19.4-20.4,16.3-40.3,16.3-40.3l5.3-6.7c0,0,5.1,1.3,10.3-3.1
	s-0.9-14.7-5.7-17.1c-7-3.6-8.4,7.7-8.4,7.7l-11.4,6.5c0,0-13-10.5-35.8,4.7c-17,11.3-37.7,38.6-107,40.2
	c-56.1,1.3-92.8-24.4-107-34.6c-23-16.5-45.5-11.4-45.5-11.4l-8-7l-13.4,6.4c0,0,7,5.8,9.8,13.8c4,11.3-0.6,22.6,22.2,45.9
	c21.6,22.1,57.5,42.7,98,51.4c0.1,0,0.2,0,0.3,0c0,0,15.8,2.1,15.9,2.8c0.8,0.1,0.8,0.3,0,0.2c0,0.3,0.1,0.7,0.1,1.1v88.4
	c0,1.3,0.2,2.3,0.7,3c0.5,0.7,1.1,1.1,1.9,1.1h29.7c0.9,0,1.5,0.4,2,1.1s0.7,1.7,0.7,3.1v17.7c0,1.3-0.2,2.3-0.7,3s-1.1,1.1-2,1.1
	h-48.3c-0.8,0-1.5-0.4-1.9-1.1c-0.5-0.7-0.7-1.7-0.7-3V464.8c0-0.7,0.1-1.3,0.2-1.8c-12.6-0.7-24.3-1.6-35.2-2.8
	c1.6,0.5,3.2,1.2,4.7,2c4.5,2.4,8.4,5.9,11.8,10.4c3.4,4.6,6.1,10,8,16.3c0.2,0.8,0.3,1.5,0.3,2.1c0,1.4-0.5,2.5-1.6,3.2l-11.3,7.9
	c-0.5,0.3-0.9,0.4-1.3,0.4c-0.9,0-1.6-0.8-2.1-2.5c-1.8-4.9-4.1-8.6-7.1-11.1c-3-2.5-6.6-3.8-11-3.8c-4.3,0-8,1.5-11.4,4.4
	c-3.3,2.9-5.9,7.2-7.7,12.7c-1.9,5.5-2.8,12.1-2.8,19.6s0.9,14.1,2.8,19.6c1.9,5.5,4.4,9.8,7.7,12.7c3.3,2.9,7.1,4.4,11.4,4.4
	c4.6,0,8.3-1.2,11.4-3.7c3-2.5,5.4-6.2,7.3-11.2c0.6-1.6,1.3-2.5,2.2-2.5c0.4,0,0.9,0.1,1.2,0.4l11.2,7.8c1.1,0.8,1.7,1.8,1.7,3.2
	c0,0.6-0.1,1.4-0.3,2.2c-2.9,9.6-7.4,17-13.5,22.3c-6.1,5.3-13.2,8-21.2,8c-7.5,0-14.3-2.5-20.4-7.6c-6.1-5.1-11-12.4-14.6-22
	c-3.6-9.6-5.4-20.8-5.4-33.8c0-12.9,1.8-24.1,5.4-33.7c3.6-9.6,8.5-16.9,14.6-22c5.5-4.6,11.5-7.1,18.1-7.6
	c-140.2-19-138.7-82-138.7-82.7c0.7-10.6,1.6-21.2,2.7-31.7c1.2-11.1,2.7-22.2,4.5-33.2c5.6-34.4,13.9-68.2,26.1-100.9
	c7.1-19.2,15.3-37.9,25.8-55.5c1.8-3,3.9-5.4,6.8-7.4c20.7-14.5,43.2-25.3,67.5-32.3c9.9-2.8,19.9-4.8,30.1-5.9
	c1.1-0.1,1.7,0.1,2.1,1.2c1.1,2.5,2.4,5,3.7,7.5c0.5,1,0.6,1.4-0.7,1.7c-12.3,2.8-24.3,6.6-36,11.5c-18.1,7.7-34.6,18.1-49.7,30.6
	c-2.9,2.4-5.6,4.8-8.5,7.3c-0.3,0.3-0.7,0.4-0.8,1c0.7,0.2,1.2-0.3,1.7-0.6c14.5-7.3,29-14.5,44.1-20.4c17.6-6.8,35.6-11.9,54.2-15
	c21.8-3.6,43.7-4.7,65.7-4c29.5,0.9,58.3,5.8,86.1,15.8c18.2,6.5,35.6,14.9,52.8,23.6c0.5,0.3,1,0.5,1.5,0.7c0.2,0.1,0.3,0.3,0.5,0
	c0,0-0.2-0.2-0.3-0.3c-4.8-4.6-10-8.8-15.2-12.9c-17.9-14.4-38-24.6-59.7-31.6c-6.7-2.2-13.5-4.1-20.3-5.8c-1-0.3-1.1-0.5-0.7-1.4
	c1.3-2.4,2.6-4.8,3.6-7.3c0.6-1.4,1.4-1.7,2.8-1.5c8,0.8,15.9,2.1,23.7,4.1c27.7,7,52.7,19.4,75.9,35.8c1.1,0.8,1.9,1.7,2.6,2.8
	c7.9,12.6,14.3,26.1,20.2,39.8c8.8,20.8,15.9,42.1,21.7,64c5.4,20.5,9.6,41.3,12.8,62.3c2.4,15.8,4.1,31.6,5.4,47.5
	c0.3,3.5,0.4,7,0.7,10.5C629.9,376.8,626,446.1,468.6,461.2z"/>
<path class="st4" d="M470.1,229.5c-10.6,0-19.3,4.6-26.1,12.6c-5.5,6.5-8.7,14-9.7,22.4c-1.8,15.5,2.4,29,14.4,39.5
	c13.1,11.4,32.6,10.4,44.8-2c8.5-8.7,12.4-19.2,12.5-29.7c0-12.3-3.2-21.9-10-30C489.4,234.2,480.8,229.5,470.1,229.5z"/>
<path class="st2" d="M459.8,495.4c-0.1-0.8-0.3-1.3-0.6-1.5c-0.2-0.3-0.6-0.4-0.9-0.4c-0.7,0-1.3,0.6-1.5,1.9l-7.9,34.9
	c-0.1,0.5-0.2,1.1-0.2,1.8c0,0.9,0.2,1.6,0.6,2.1c0.4,0.6,1,0.8,1.7,0.8h14.6c0.7,0,1.3-0.3,1.7-0.8c0.4-0.6,0.6-1.3,0.6-2.1
	c0-0.6-0.1-1.2-0.2-1.8L459.8,495.4z"/>
</svg>
