<?xml version="1.0" encoding="utf-8"?>
<!-- Generator: Adobe Illustrator 24.0.2, SVG Export Plug-In . SVG Version: 6.00 Build 0)  -->
<svg version="1.1" id="Layer_1" xmlns="http://www.w3.org/2000/svg" xmlns:xlink="http://www.w3.org/1999/xlink" x="0px" y="0px"
	 viewBox="0 0 776.6 699" style="enable-background:new 0 0 776.6 699;" xml:space="preserve">
<style type="text/css">
	.st0{font-family:'ArialMT';}
	.st1{font-size:12px;}
	.st2{fill:#35A749;}
	.st3{fill:#FBB22F;}
	.st4{fill:#BFBFBF;}
</style>
<text transform="matrix(1 0 0 1 0 -6.728313e-06)" class="st0 st1"> </text>
<text transform="matrix(1 0 0 1 0 -6.728313e-06)" class="st0 st1"> </text>
<title>server down</title>
<rect x="326.3" y="252" class="st2" width="35.3" height="17.8"/>
<rect x="239.3" y="269.3" class="st3" width="35.3" height="17.8"/>
<rect x="413.9" y="234.8" class="st3" width="35.3" height="17.8"/>
<path class="st4" d="M732.8,470.3c-10.6-70.8-36.6-124.7-4.7-244c23.5-87.9-64.7-179.8-166.5-167.9c-74.6,8.7-123,10.1-234.8-15.5
	c-109.2-25-103.9,43.3-186.8,64.6C64.4,127,32.7,189.4,43.5,258c9.5,59.9,31.8,130,33.3,188.6c1.5,58.6-13.3,133.7,60.5,171.4
	c73.8,37.6,134.3,3.8,248.9,25.3c60.1,11.2,162.1,34.5,256.7-14.1C756.7,570.6,740.3,520.3,732.8,470.3z M589,246.1v-10.9v-17.8
	h17.4v17.8h17.4v10.9h-17.4v59.5H589V246.1z M554.2,235.2h17.4v70.4h-17.4v-17.4h-17.4v-17.4h17.4V235.2z M484.5,235.2h17.4h17.4
	v17.4h17.4V270h-17.4v-17.4h-17.4v53h-17.4V235.2z M396.5,287.8v-70.4h17.4v-0.1h52.2v17.5v17.8h-16.9v17.8h-35.3v17.4h34.8v16.7
	h-52.2V287.8z M222.4,287v-17.8v-17.8h52.2v-17.4h-34.8v-16.8h34.8v16.8h17.4v70.4h-17.4v0.1h-52.2V287z M449.2,409.2h-17.4v17.4
	H397v-17.4h-17.4v-34.8H397v34.8h34.8v-34.8h17.4V409.2z M397,373.7v-17.4h34.8v17.4H397z M676.5,339.8v17.4v17.4V392v17.4v17.4
	h-17.4v17.4h-17.4v17.4h-17.4V479h-87v-17.4h-17.4h-17.4v-17.4H484v-17.4h-17.4v-17.4V392v-17.4v-17.4v-0.4h-17.4v-17h-69.6v17
	h-17.4v0.4v17.4V392v17.4h-17.4v17.4v17.4h-17.4v17.4H310V479h-87v-17.4h-17.4h-17.4v-17.4h-18.5v-17.4h-17.4v-17.4V392v-17.4v-17.4
	h-17.4v-17.4v-0.4h-17.4h-17.4V322v-17.4h17.4V322h17.4h192v-17h34.8v-17.4h-52.2v-17.8V252v-17.5h52.2v0.1h17.4V305v17h297.4V339.8
	z"/>
<g>
	<rect x="275.2" y="392.9" class="st4" width="17.4" height="17.4"/>
	<rect x="257.8" y="374.7" class="st4" width="17.4" height="17.4"/>
	<rect x="240.4" y="357.3" class="st4" width="17.4" height="17.4"/>
	<rect x="223" y="357.3" class="st4" width="17.4" height="70.4"/>
	<rect x="292.6" y="357.3" class="st4" width="17.4" height="70.4"/>
</g>
<g>
	<rect x="572.1" y="374.4" class="st4" width="17.4" height="17.4"/>
	<rect x="589.5" y="391.8" class="st4" width="17.4" height="17.4"/>
	<rect x="606.9" y="356.3" class="st4" width="17.4" height="70.4"/>
	<rect x="554.7" y="391.8" class="st4" width="17.4" height="17.4"/>
	<rect x="537.3" y="409.2" class="st4" width="17.4" height="17.4"/>
	<rect x="519.9" y="356.3" class="st4" width="17.4" height="70.4"/>
</g>
<rect x="397" y="374.4" class="st2" width="34.8" height="34.8"/>
</svg>
