<?xml version="1.0" encoding="utf-8"?>
<!-- Generator: Adobe Illustrator 24.0.2, SVG Export Plug-In . SVG Version: 6.00 Build 0)  -->
<svg version="1.1" id="Layer_1" xmlns="http://www.w3.org/2000/svg" xmlns:xlink="http://www.w3.org/1999/xlink" x="0px" y="0px"
	 viewBox="0 0 776.6 699" style="enable-background:new 0 0 776.6 699;" xml:space="preserve">
<style type="text/css">
	.st0{fill:#BFBFBF;}
	.st1{fill:#35A749;}
	.st2{fill:#FBB22F;}
</style>
<title>server down</title>
<path class="st0" d="M537.5,343.6c-11.6,0-21.8,4.2-30,12.4c-8.2,8.2-12.4,18.4-12.4,30s4.2,21.8,12.4,30c8.2,8.2,18.4,12.4,30,12.4
	s21.8-4.2,30-12.4c8.2-8.2,12.4-18.4,12.4-30s-4.2-21.8-12.4-30C559.2,347.8,549,343.6,537.5,343.6z"/>
<path class="st0" d="M382,499.2c-12,0-22.5,4.4-31,12.9c-8.5,8.5-12.8,19-12.8,31s4.4,22.5,12.8,31c8.5,8.5,19,12.9,31,12.9
	s22.5-4.4,31-12.9s12.8-19,12.8-31s-4.4-22.5-12.8-31C404.5,503.6,394,499.2,382,499.2z"/>
<path class="st0" d="M732.8,470.3c-10.6-70.8-36.6-124.7-4.7-244c23.5-87.9-64.7-179.8-166.5-167.9c-74.6,8.7-123,10.1-234.8-15.5
	c-109.2-25-103.9,43.3-186.8,64.6C64.4,127,32.7,189.4,43.5,258c9.5,59.9,31.8,130,33.3,188.6S63.5,580.3,137.3,618
	c73.8,37.6,134.3,3.8,248.9,25.3c60.1,11.2,162.1,34.5,256.7-14.1C756.7,570.6,740.3,520.3,732.8,470.3z M487.4,335.9
	c13.8-13.8,30.5-20.6,50-20.6s36.2,6.8,50,20.6s20.6,30.5,20.6,50s-6.8,36.2-20.6,50s-30.5,20.6-50,20.6s-36.2-6.8-50-20.6
	s-20.6-30.5-20.6-50C466.8,366.4,473.6,349.8,487.4,335.9z M245.9,140.1H262l16.1,16.1c14.5-10.6,30.6-16.1,48.4-16.1
	c22.2,0,41.3,7.7,57.1,23.5s23.5,34.8,23.5,57.1v80.6h-32.2v-80.6c0-13.2-4.8-24.8-14.2-34.2c-9.3-9.3-21-14.2-34.2-14.2
	s-24.2,4.5-33.5,13.5s-14.5,20-14.8,32.9v82.5H246L245.9,140.1L245.9,140.1z M204,151.9c0-6.5,5.3-11.8,11.8-11.8h20.4v161.2H204
	V151.9z M301.2,616H272V482.7c0-7,5.7-12.7,12.7-12.7h16.5V616z M433.7,594.7C419.4,609,402.2,616,382,616s-37.4-7-51.7-21.3
	C316,580.4,309,563.2,309,543s7-37.4,21.3-51.7C344.7,477,361.9,470,382,470s37.4,7,51.7,21.3S455,522.8,455,543
	S448,580.4,433.7,594.7z M458.3,456.6H430V386c0-11.6-4.2-21.8-12.4-30c-8.2-8.2-18.4-12.4-30-12.4s-21.8,4.2-30,12.4
	c-7.4,7.4-11.6,16.5-12.3,26.7c-0.1,1.1-2.4,9-12.7,11.5c-7.9,1.9-15.7,1.9-15.7,1.9V386c0-12.2-4.2-22-12.7-30.2
	c-8.2-8.2-18.1-12.2-29.7-12.2s-21.2,4-29.4,11.9s-12.7,17.5-13,28.8v72.3H232V470h30.4v29.2H232v54.6c0,9.1,3.2,16.9,9.6,23.4
	c6.4,6.4,14,9.6,23.1,9.6V616c-17.2,0-30.6-6.1-42.6-18.1S204,571,204,553.8v-97.2V397v-81.7h14.1l14.1,14.1
	c12.7-9.3,26.8-14.1,42.4-14.1c23.2,0,42.1,9.3,56.5,28.3c14.1-18.9,33.1-28.3,56.5-28.3c19.5,0,36.2,6.8,50,20.6
	c13.8,13.8,20.6,30.5,20.6,50L458.3,456.6L458.3,456.6z M609.2,616H580v-73c0-12-4.4-22.5-12.8-31c-8.5-8.5-19-12.9-31-12.9
	s-21.9,4.1-30.4,12.3c-8.5,8.2-13.1,18.1-13.4,29.8V616h-29.2V470h14.6l14.6,14.6c13.1-9.6,27.7-14.6,43.8-14.6
	c20.2,0,37.4,7,51.7,21.3s21.3,31.5,21.3,51.7V616z"/>
<path id="XMLID_5_" class="st1" d="M529.3,138.6h-31.7c-44.6,0-80.7,36.1-80.7,80.7s0,80.7,0,80.7h50.6v-14.5
	c0-9.8,8-17.8,17.8-17.8h41v31.1c49.8,0,83.6-28,83.6-141.5c0-20.6,0-47.4,0-47.4S610,138.6,529.3,138.6z M559.2,196.7
	c0,39.8-20.8,55-44,55h-28.3c-14.9,0-19.3,6.8-19.3,6.8c0-5.2,0-33.2,0-39.9c0-18.3,14.8-33.1,33.1-33.1h13
	c33.1,0,45.5-3.7,45.5-3.7S559.2,188.2,559.2,196.7z"/>
<path id="XMLID_8_" class="st2" d="M314.7,402.2h-12c-16.9,0-30.6,13.7-30.6,30.6c0,4.6,0,32.4,0,36.3c0,0,0-5.7,17.8-5.7h1.4
	l15.4-0.4c24.9,0,38.7-15.8,38.7-53.7c0-7.8,0-18,0-18S345.3,402.2,314.7,402.2z"/>
<path id="XMLID_10_" class="st2" d="M234.3,90.7h-8.5c-12,0-21.8,9.7-21.8,21.8c0,3.3,0,24.9,0,27.7c0,0,0-5.9,10.8-5.9h2.9
	l10.9-0.3c17.7,0,27.5-11.2,27.5-38.1c0-5.6,0-12.8,0-12.8S256.1,90.7,234.3,90.7z"/>
</svg>
