<?xml version="1.0" encoding="utf-8"?>
<!-- Generator: Adobe Illustrator 24.0.2, SVG Export Plug-In . SVG Version: 6.00 Build 0)  -->
<svg version="1.1" id="Layer_1" xmlns="http://www.w3.org/2000/svg" xmlns:xlink="http://www.w3.org/1999/xlink" x="0px" y="0px"
	 viewBox="0 0 776.6 699" style="enable-background:new 0 0 776.6 699;" xml:space="preserve">
<style type="text/css">
	.st0{fill:#BFBFBF;}
	.st1{fill:#35A749;}
	.st2{fill:#FBB22F;}
</style>
<title>server down</title>
<path class="st0" d="M511.2,336.4c-9.5,0-17.9,3.5-24.6,10.2c-6.7,6.7-10.2,15.1-10.2,24.6s3.5,17.9,10.2,24.6
	c6.7,6.7,15.1,10.2,24.6,10.2c9.5,0,17.9-3.5,24.6-10.2c6.7-6.7,10.2-15.1,10.2-24.6s-3.5-17.9-10.2-24.6
	C529,339.9,520.6,336.4,511.2,336.4z"/>
<path class="st0" d="M383.4,464.3c-9.9,0-18.5,3.6-25.5,10.6c-7,7-10.5,15.6-10.5,25.5s3.6,18.5,10.5,25.5c7,7,15.6,10.6,25.5,10.6
	s18.5-3.6,25.5-10.6c7-7,10.5-15.6,10.5-25.5s-3.6-18.5-10.5-25.5C401.9,467.9,393.3,464.3,383.4,464.3z"/>
<path class="st0" d="M732.8,470.3c-10.6-70.8-36.6-124.7-4.7-244c23.5-87.9-64.7-179.8-166.5-167.9c-74.6,8.7-123,10.1-234.8-15.5
	c-109.2-25-103.9,43.3-186.8,64.6C64.4,127,32.7,189.4,43.5,258c9.5,59.9,31.8,130,33.3,188.6c1.5,58.6-13.3,133.7,60.5,171.4
	c73.8,37.6,134.3,3.8,248.9,25.3c60.1,11.2,162.1,34.5,256.7-14.1C756.7,570.6,740.3,520.3,732.8,470.3z M535.6,474.8
	c-7-7-15.6-10.6-25.5-10.6c-9.9,0-18,3.4-25,10.1c-7,6.7-10.8,14.9-11,24.5v61.5h-24v-120h12l12,12c10.8-7.9,22.8-12,36-12
	c16.6,0,30.7,5.8,42.5,17.5c11.7,11.7,17.5,25.9,17.5,42.5v60h-24v-60C546.1,490.4,542.5,481.8,535.6,474.8z M295.1,336.4
	c-9.5,0-17.4,3.3-24.2,9.8c-6.7,6.5-10.4,14.4-10.7,23.7v59.4h-0.1v11h25v24h-25v44.9c0,7.5,2.6,13.9,7.9,19.2
	c5.3,5.3,11.5,7.9,19,7.9v24c-14.1,0-25.1-5-35-14.9c-9.9-9.9-14.9-22.1-14.9-36.2v-79.9v-49v-67.1h11.6l11.6,11.6
	c10.4-7.6,22-11.6,34.8-11.6c19.1,0,34.6,7.6,46.4,23.3c11.6-15.5,27.2-23.3,46.4-23.3c16,0,29.7,5.6,41.1,16.9s16.9,25.1,16.9,41.1
	l0.1,58.1h-23.3v-58c0-9.5-3.5-17.9-10.2-24.6s-15.1-10.2-24.6-10.2c-9.5,0-17.9,3.5-24.6,10.2c-6.1,6.1-9.5,13.6-10.1,21.9
	c-0.1,0.9-2,7.4-10.4,9.4c-6.5,1.6-12.9,1.6-12.9,1.6v-8.3c0-10-3.5-18.1-10.4-24.8C312.7,339.7,304.6,336.4,295.1,336.4z
	 M317,440.3v120h-24V450.7c0-5.8,4.7-10.4,10.4-10.4H317z M237.1,301.7V178.9c0-5.3,4.4-9.7,9.7-9.7h16.8v132.4H237.1z M404,235.4
	v66.2h-26.5v-66.2c0-10.8-3.9-20.4-11.7-28.1c-7.6-7.6-17.3-11.7-28.1-11.7c-10.8,0-19.9,3.7-27.5,11.1s-11.9,16.4-12.2,27v67.8
	h-26.5l-0.1-132.4h13.2l13.2,13.2c11.9-8.7,25.1-13.2,39.8-13.2c18.2,0,33.9,6.3,46.9,19.3S404,217.1,404,235.4z M340.9,457.8
	c11.8-11.7,26-17.5,42.5-17.5c16.5,0,30.7,5.8,42.5,17.5c11.7,11.7,17.5,25.9,17.5,42.5c0,16.6-5.8,30.7-17.5,42.5
	c-11.7,11.7-25.9,17.5-42.5,17.5c-16.6,0-30.7-5.8-42.5-17.5c-11.7-11.7-17.5-25.9-17.5-42.5C323.4,483.6,329.2,469.5,340.9,457.8z
	 M453.1,371.2c0-16,5.6-29.7,16.9-41.1c11.3-11.3,25.1-16.9,41.1-16.9s29.7,5.6,41.1,16.9c11.3,11.3,16.9,25.1,16.9,41.1
	s-5.6,29.7-16.9,41.1c-11.3,11.3-25.1,16.9-41.1,16.9s-29.7-5.6-41.1-16.9C458.7,400.9,453.1,387.2,453.1,371.2z"/>
<path id="XMLID_5_" class="st1" d="M504.4,168h-26c-36.6,0-66.3,29.7-66.3,66.3s0,66.3,0,66.3h41.6v-11.9c0-8.1,6.6-14.6,14.6-14.6
	H502v25.6c40.9,0,68.7-23,68.7-116.3c0-16.9,0-38.9,0-38.9S570.7,168,504.4,168z M529,215.7c0,32.7-17.1,45.2-36.2,45.2h-23.3
	c-12.2,0-15.9,5.6-15.9,5.6c0-4.3,0-27.3,0-32.8c0-15,12.2-27.2,27.2-27.2h10.7c27.2,0,37.4-3,37.4-3S529,208.7,529,215.7z"/>
<path id="XMLID_8_" class="st2" d="M328.1,384.6h-9.9c-13.9,0-25.1,11.3-25.1,25.1c0,3.8,0,26.6,0,29.8c0,0,0-4.7,14.6-4.7h1.2
	l12.7-0.3c20.5,0,31.8-13,31.8-44.1c0-6.4,0-14.8,0-14.8S353.2,384.6,328.1,384.6z"/>
<path id="XMLID_10_" class="st2" d="M262,128.6h-7c-9.9,0-17.9,8-17.9,17.9c0,2.7,0,20.5,0,22.8c0,0,0-4.8,8.9-4.8h2.4l9-0.2
	c14.5,0,22.6-9.2,22.6-31.3c0-4.6,0-10.5,0-10.5S280,128.6,262,128.6z"/>
</svg>
