<svg version="1.1" id="Layer_1" xmlns="http://www.w3.org/2000/svg" xmlns:xlink="http://www.w3.org/1999/xlink" x="0px" y="0px"
	 width="100%" viewBox="0 0 1084 976" enable-background="new 0 0 1084 976" xml:space="preserve">

<path fill="#BEBDBD" opacity="1.000000" stroke="none" 
	d="
M1003.074219,523.825623 
	C1008.955322,555.747375 1015.017517,587.184204 1020.628540,618.701416 
	C1024.726196,641.717773 1028.662598,664.780518 1031.835571,687.937073 
	C1033.723022,701.711731 1034.910156,715.715576 1034.795532,729.603088 
	C1034.570190,756.941345 1024.785889,781.128845 1007.958130,802.573364 
	C986.318298,830.150269 958.156006,849.693848 928.416809,867.289856 
	C906.059082,880.518372 883.091858,892.703491 858.305847,900.597534 
	C838.416138,906.932251 818.212769,912.843811 797.716003,916.552979 
	C777.224731,920.261169 756.197571,921.014648 735.403015,923.038879 
	C712.774170,925.241699 690.218933,923.419067 667.770874,920.968811 
	C641.899353,918.144897 616.059570,914.831909 590.341614,910.854370 
	C565.598755,907.027649 541.088806,901.705750 516.360657,897.768494 
	C501.644104,895.425232 486.736542,893.698730 471.857483,893.083496 
	C443.273315,891.901611 414.648499,891.244690 386.040253,891.235596 
	C358.431702,891.226746 330.806976,893.179077 303.218292,892.678101 
	C272.886536,892.127258 243.015106,887.406677 214.617355,875.954407 
	C191.302750,866.552002 169.577515,854.550964 151.783188,836.324036 
	C133.637955,817.737671 122.400452,795.445740 116.025803,770.471802 
	C111.277199,751.868164 108.976135,732.985718 108.866173,713.788574 
	C108.788055,700.150818 108.160965,686.515503 108.133430,672.878418 
	C108.111626,662.075562 108.848488,651.271851 108.863068,640.468018 
	C108.901268,612.168335 106.647232,584.016785 101.170166,556.256042 
	C93.203484,515.876587 84.462395,475.650482 76.362274,435.296600 
	C70.712837,407.151764 64.067528,379.088684 60.574821,350.656464 
	C55.211048,306.992767 62.010685,264.943542 85.794785,227.004776 
	C104.246849,197.571320 129.951263,175.875763 161.865036,162.423981 
	C179.392853,155.035919 198.037018,150.332031 216.047882,144.045578 
	C240.342224,135.565994 261.681061,121.965508 281.714600,105.965179 
	C299.606140,91.675636 316.656219,76.229759 337.348267,65.682678 
	C359.345795,54.470161 382.645935,51.037693 406.992279,51.863392 
	C427.202545,52.548817 446.764496,56.876690 466.456604,60.893845 
	C497.977448,67.324036 529.526794,73.750443 561.270935,78.904724 
	C584.644104,82.699814 608.293091,85.228149 631.919556,86.907898 
	C654.456909,88.510216 677.152100,89.241455 699.726501,88.586044 
	C721.411194,87.956474 743.024475,84.990746 764.679871,83.179749 
	C778.905151,81.990105 793.132812,80.618790 807.388306,80.037354 
	C858.952026,77.934235 904.824097,94.243988 945.792236,124.689102 
	C972.469238,144.513916 993.373718,169.583389 1008.146729,199.490540 
	C1022.470886,228.488968 1028.784302,259.266266 1025.603882,291.430664 
	C1024.241333,305.209412 1019.861511,318.678131 1017.048401,332.328033 
	C1013.265686,350.682159 1008.916077,368.964264 1006.196655,387.480957 
	C1003.067017,408.790039 1000.783325,430.278900 999.414734,451.771362 
	C998.519897,465.823700 999.653870,480.033508 1000.353394,494.149292 
	C1000.837219,503.912018 1002.130493,513.634644 1003.074219,523.825623 
M367.009888,739.989380 
	C367.009888,739.989380 367.046265,739.997314 367.127716,740.721924 
	C370.441284,744.703186 374.582214,741.718933 378.292084,741.894104 
	C385.061493,742.213623 385.955505,741.088928 385.964478,734.135498 
	C385.986694,716.969910 385.965881,699.804321 385.986176,682.638733 
	C385.988220,680.917847 386.153290,679.197083 386.242676,677.476257 
	C386.755920,677.360657 387.269135,677.245117 387.782379,677.129517 
	C388.534088,679.098145 389.421631,681.026611 390.016205,683.041565 
	C395.260925,700.815674 400.591064,718.566650 405.577118,736.413574 
	C407.055267,741.704407 410.434967,743.053528 415.187195,742.971802 
	C416.520050,742.948853 417.853638,742.967834 419.186890,742.968384 
	C428.712738,742.972290 429.962372,741.711182 429.965790,731.927124 
	C429.977814,697.595947 429.969086,663.264832 429.983521,628.933655 
	C429.988953,616.002747 430.007965,616.002747 416.976898,616.016907 
	C410.084869,616.024414 408.968597,616.971313 408.101929,623.762817 
	C407.934296,625.076416 407.995392,626.426636 408.032532,627.757751 
	C408.347595,639.050049 408.731293,650.340759 408.956635,661.634705 
	C408.990723,663.345093 408.314117,665.069580 407.966217,666.787476 
	C407.471497,666.797302 406.976746,666.807068 406.482025,666.816833 
	C405.681213,665.073364 404.608093,663.402161 404.123230,661.574829 
	C400.611053,648.339355 397.323914,635.043335 393.719818,621.833496 
	C392.680695,618.024719 390.135559,615.673523 385.616272,615.952759 
	C380.967621,616.240051 376.287354,615.996399 371.621124,616.023132 
	C366.176605,616.054321 364.148712,618.013733 364.046600,623.501770 
	C363.961365,628.083740 364.032104,632.668640 364.032013,637.252197 
	C364.031372,668.416931 363.947266,699.582153 364.159302,730.745483 
	C364.180237,733.820740 366.013916,736.883606 367.009888,739.989380 
M647.136169,329.330383 
	C640.414978,302.654205 626.853271,280.171356 605.286499,262.982239 
	C575.647156,239.359192 541.839050,230.751190 504.597260,237.573441 
	C476.142151,242.786102 452.275299,256.705597 433.600220,278.953583 
	C409.808990,307.296539 400.527832,340.144684 405.410889,376.611572 
	C408.539001,399.972534 417.981384,420.903625 433.393890,439.060974 
	C455.380005,464.962585 483.329895,479.552734 516.938354,482.741150 
	C543.571777,485.267883 568.513062,479.041473 591.442505,465.178131 
	C595.950623,462.452484 600.204407,459.306030 605.468506,455.750519 
	C609.689697,460.302307 613.788269,464.897522 618.095337,469.288300 
	C620.096558,471.328400 621.043152,473.074524 620.407349,476.249603 
	C619.246460,482.046722 620.767517,487.296661 625.234009,491.733612 
	C650.181946,516.516541 674.959595,541.471069 699.960754,566.199829 
	C702.190552,568.405273 705.443970,569.903809 708.493591,570.894226 
	C720.138245,574.676147 734.996277,561.262329 737.949280,551.331787 
	C740.079163,544.169434 738.992432,537.713196 733.706116,532.403748 
	C709.012512,507.601898 684.226379,482.892212 659.462036,458.160858 
	C655.872803,454.576416 651.473694,452.097534 646.456665,453.158478 
	C640.096924,454.503357 636.156616,451.757965 632.538025,447.238007 
	C630.776428,445.037628 628.756775,442.981812 626.583801,441.187836 
	C623.591797,438.717682 623.936279,436.604614 626.010132,433.582520 
	C630.330139,427.287170 634.823120,420.980621 638.121948,414.137299 
	C651.062439,387.293030 654.441162,359.244629 647.136169,329.330383 
M507.087616,631.482300 
	C507.116394,632.148193 507.100677,632.819519 507.180328,633.479248 
	C509.845947,655.561035 512.481812,677.646423 515.209351,699.720520 
	C516.735474,712.071228 518.532471,724.389404 519.948975,736.751892 
	C520.328064,740.059998 521.825256,740.951416 524.794922,740.898865 
	C530.625122,740.795593 536.460938,740.749207 542.288940,740.896973 
	C545.275940,740.972656 546.486633,739.624329 546.798950,736.854614 
	C548.137878,724.977783 549.491882,713.102295 550.925537,701.236633 
	C551.644592,695.284851 552.546326,689.355103 553.365417,683.415405 
	C554.564575,683.933777 554.923645,684.452026 554.991211,685.005859 
	C557.061401,701.973145 559.174805,718.935852 561.088257,735.921021 
	C561.470764,739.316528 562.477356,741.074280 566.254395,740.905762 
	C571.742310,740.660950 577.257202,740.653015 582.744873,740.896606 
	C586.506531,741.063538 587.608643,739.360840 587.931946,735.937744 
	C588.837402,726.352539 589.934082,716.783325 591.099243,707.225342 
	C594.293091,681.027344 597.602112,654.843323 600.778992,628.643311 
	C602.057190,618.102600 601.954529,618.089417 591.580261,618.072754 
	C590.247314,618.070618 588.684448,617.643982 587.637695,618.193848 
	C586.225403,618.935547 584.310364,620.327576 584.158203,621.622314 
	C581.330017,645.693237 578.752686,669.793518 576.041626,693.878540 
	C575.851135,695.571045 575.030640,697.192688 574.123291,700.038940 
	C573.355652,698.075439 573.072144,697.639648 573.021118,697.178162 
	C570.629639,675.567932 568.088257,653.972290 565.944763,632.337280 
	C564.528320,618.040771 564.785522,618.015259 550.631653,618.107056 
	C549.965149,618.111389 549.292480,618.178162 548.633301,618.111145 
	C545.611450,617.804138 544.461670,619.445007 544.178406,622.179749 
	C541.800293,645.133545 539.420166,668.087158 536.972717,691.033691 
	C536.695740,693.630493 535.998779,696.182556 535.496582,698.755371 
	C533.942322,696.890930 533.287109,695.176880 533.087952,693.411377 
	C531.301331,677.575867 529.567932,661.734192 527.877075,645.888123 
	C527.084351,638.458496 526.594666,630.991089 525.576660,623.594604 
	C525.312256,621.673218 523.738770,618.531128 522.490845,618.390137 
	C517.279358,617.801392 511.962769,618.142151 505.892883,618.142151 
	C506.327515,622.776001 506.693298,626.675659 507.087616,631.482300 
M655.931824,668.751648 
	C656.054565,666.921997 656.177368,665.092407 656.300110,663.262756 
	C657.942627,664.207458 658.648499,665.142761 658.950806,666.194153 
	C664.923157,686.967468 670.914551,707.735718 676.759033,728.545227 
	C680.232178,740.911499 680.121460,740.942688 693.018982,740.851074 
	C699.875427,740.802368 699.926514,740.802307 699.929688,733.924194 
	C699.945740,699.094360 699.971008,664.264404 699.911133,629.434692 
	C699.888245,616.123352 701.351318,618.537842 688.412842,618.038147 
	C683.685059,617.855591 682.007507,619.247131 682.080444,624.173157 
	C682.329712,641.000793 682.155884,657.834839 682.107544,674.666321 
	C682.102722,676.338379 681.852905,678.009766 681.716797,679.681458 
	C681.193909,679.739563 680.671021,679.797668 680.148071,679.855774 
	C679.072205,676.293152 677.939026,672.746704 676.930359,669.165100 
	C672.650635,653.968262 668.351379,638.776367 664.192810,623.546265 
	C663.200928,619.913635 661.744629,617.633301 657.409973,618.018982 
	C653.442139,618.371948 649.417480,618.075500 645.417908,618.084900 
	C638.189697,618.101868 638.176880,618.107910 638.175720,625.124207 
	C638.170227,659.787476 638.086426,694.451050 638.213928,729.113831 
	C638.264099,742.748291 636.058899,740.436462 650.253296,740.898682 
	C654.670532,741.042542 655.987427,739.534302 655.954956,735.178711 
	C655.791992,713.348938 655.909790,691.517090 655.931824,668.751648 
M227.175873,658.308228 
	C223.798447,646.493469 220.510880,634.651550 216.947296,622.893188 
	C216.409241,621.117798 214.668167,618.466064 213.341446,618.378723 
	C206.426636,617.923584 199.465866,618.166504 191.934799,618.166504 
	C191.934799,620.769043 191.934509,622.717712 191.934830,624.666382 
	C191.940552,659.476990 191.861969,694.287842 191.994568,729.097961 
	C192.046021,742.597961 189.470673,740.548157 203.897980,740.893799 
	C207.842865,740.988281 209.071411,739.633118 209.037964,735.713196 
	C208.874527,716.560425 208.964111,697.405518 208.964188,678.251343 
	C208.964203,670.850342 208.964172,663.449341 208.964172,656.048340 
	C211.463181,661.757812 213.273270,667.555176 214.921738,673.398132 
	C220.782669,694.172058 226.543488,714.974487 232.502319,735.720093 
	C232.970001,737.348328 234.580124,739.763550 235.817383,739.863953 
	C241.371735,740.314514 246.983261,740.060181 252.591614,740.060181 
	C252.591614,699.303589 252.591614,659.285339 252.591614,619.336792 
	C246.914810,619.336792 241.694412,619.336792 236.110046,619.336792 
	C236.110046,642.181335 236.110046,664.584656 236.110046,686.988037 
	C235.778549,687.046753 235.447067,687.105530 235.115570,687.164246 
	C232.560791,677.800720 230.006027,668.437134 227.175873,658.308228 
M498.802704,683.500000 
	C498.809021,671.510864 498.921082,659.520508 498.792084,647.532837 
	C498.661987,635.438843 494.908081,624.267700 483.239105,619.573853 
	C464.959076,612.220642 439.966461,616.995422 439.249817,645.891235 
	C438.692627,668.357117 438.757141,690.855957 439.267334,713.323730 
	C439.533844,725.058472 443.867126,735.414795 456.035706,739.748291 
	C460.744568,741.425232 466.099213,741.831055 471.165283,741.860779 
	C486.391602,741.950134 496.794800,732.511841 497.863647,717.389954 
	C498.636261,706.459106 498.521118,695.465576 498.802704,683.500000 
M290.603088,717.963745 
	C294.435272,717.958984 298.304047,718.283264 302.089996,717.862488 
	C306.391937,717.384460 307.564117,719.554810 307.997681,723.160339 
	C308.551910,727.768982 309.209656,732.374023 310.094421,736.927856 
	C310.317444,738.075745 311.534576,739.884888 312.362701,739.923157 
	C318.068756,740.187195 323.792816,740.062012 329.595703,740.062012 
	C329.595703,738.742126 329.687256,738.085083 329.582428,737.460999 
	C326.367950,718.325012 323.140503,699.191162 319.901794,680.059265 
	C316.636047,660.767700 313.309143,641.486145 310.140900,622.178650 
	C309.737915,619.722961 309.268494,618.084656 306.338654,618.118164 
	C299.175140,618.200073 292.002258,617.960693 284.852478,618.281799 
	C283.542572,618.340698 281.564056,620.238281 281.205841,621.625732 
	C280.133270,625.780640 279.744110,630.108948 279.029053,634.359619 
	C274.131836,663.471985 269.196045,692.577942 264.331543,721.695740 
	C263.337708,727.644714 262.593292,733.635376 261.674652,740.018616 
	C266.473938,740.322632 270.271210,740.763733 274.066437,740.746521 
	C277.791931,740.729614 280.222260,739.350891 280.119720,734.791565 
	C280.042755,731.368896 281.571350,727.915833 281.534912,724.485229 
	C281.471375,718.497314 284.454224,717.048767 290.603088,717.963745 
M908.517395,722.113525 
	C899.492371,727.188293 892.136536,723.024719 891.922424,712.716858 
	C891.898193,711.551392 891.761780,710.364990 891.923279,709.223022 
	C892.616455,704.320129 890.418945,702.847351 885.698486,703.044067 
	C870.643860,703.671448 872.725342,699.863037 873.282654,716.402649 
	C873.650330,727.312439 878.892456,736.371399 889.591492,739.932495 
	C900.919312,743.703064 912.808594,744.318726 922.565979,735.558472 
	C933.579041,725.670959 935.333923,704.476440 925.855103,690.869812 
	C920.787659,683.595703 914.274841,677.184692 907.735046,671.116150 
	C899.394592,663.376709 892.165466,655.493469 893.858276,642.968018 
	C894.446472,638.616272 896.147034,635.302612 901.048767,634.834900 
	C907.515930,634.217896 910.888428,636.134399 912.125427,641.387024 
	C912.690552,643.786804 912.593750,646.336914 913.068542,648.765808 
	C913.289307,649.895081 914.125488,651.794922 914.737000,651.816650 
	C919.817871,651.997498 924.915710,651.900085 929.993896,651.622009 
	C930.467285,651.596069 931.172058,649.755432 931.211365,648.735962 
	C931.919983,630.349670 923.095215,617.582764 905.068604,616.591492 
	C889.351685,615.727295 877.192505,623.151428 874.094116,639.601562 
	C871.224854,654.834900 876.390686,667.418945 886.827515,678.146423 
	C892.272095,683.742737 898.268555,688.798523 903.802063,694.312927 
	C911.270874,701.755859 914.146973,713.129578 908.517395,722.113525 
M733.500610,740.872742 
	C740.167297,740.866699 746.835938,740.962219 753.500244,740.833679 
	C767.787842,740.558228 765.439514,743.298767 765.849854,728.371460 
	C765.966431,724.130737 764.362000,722.862976 760.319458,722.975891 
	C752.325806,723.199280 744.320312,722.957947 736.322327,723.081116 
	C733.117493,723.130493 731.824707,721.899841 731.867126,718.678589 
	C731.987732,709.513489 731.994202,700.345825 731.924011,691.180054 
	C731.901367,688.226318 733.024902,686.890930 736.048462,686.999329 
	C739.377136,687.118652 742.713989,687.018188 746.047180,686.998413 
	C759.178711,686.920410 759.025024,686.919067 758.949829,673.756531 
	C758.927673,669.882141 757.567932,668.902161 753.978821,669.054321 
	C748.155823,669.301270 742.313904,669.061462 736.482422,669.165405 
	C733.408508,669.220215 731.869080,668.173096 731.907593,664.842407 
	C732.003845,656.510742 731.991272,648.174683 731.818848,639.844604 
	C731.754028,636.711060 733.045654,635.793762 735.975708,635.874023 
	C741.805115,636.033752 747.642761,636.059631 753.473755,635.957397 
	C767.594666,635.709839 765.549500,638.285156 765.912537,623.472656 
	C766.013977,619.332581 764.556030,617.971069 760.417236,618.031494 
	C746.587097,618.233337 732.752197,618.097534 718.919067,618.101624 
	C712.221985,618.103577 712.188110,618.114075 712.191223,624.668884 
	C712.208069,660.501038 712.237427,696.333130 712.289246,732.165283 
	C712.291626,733.817810 712.061646,735.755432 712.816528,737.048462 
	C713.717468,738.591614 715.480774,740.504883 717.016663,740.644043 
	C722.142883,741.108337 727.334473,740.851440 733.500610,740.872742 
M799.888916,680.305542 
	C798.913818,672.604492 797.888367,664.909424 796.975403,657.200989 
	C795.595154,645.546265 794.432617,633.862793 792.815674,622.241882 
	C792.556946,620.382812 790.699951,617.716736 789.083069,617.282898 
	C785.306885,616.269775 781.232910,616.231384 777.269165,616.089905 
	C773.150635,615.942932 770.482666,617.592590 771.003845,622.304321 
	C771.694397,628.547546 772.352173,634.794434 773.051880,641.036621 
	C774.156738,650.893433 775.264771,660.749878 776.407837,670.602295 
	C777.931519,683.735596 779.406189,696.875488 781.062256,709.992249 
	C782.221008,719.170410 783.462158,728.348572 785.121155,737.443848 
	C785.431824,739.146912 787.812317,741.636047 789.378357,741.745300 
	C796.173767,742.219299 803.036194,742.183777 809.837646,741.753662 
	C811.280579,741.662415 813.517090,739.292236 813.771667,737.711670 
	C815.137451,729.233459 815.941895,720.666443 817.042542,712.143311 
	C817.675110,707.244812 818.501648,702.371338 819.335327,696.862976 
	C820.388489,697.836060 820.781860,698.020630 820.814636,698.255371 
	C822.573059,710.857910 824.427490,723.449219 825.962280,736.079407 
	C826.484009,740.373474 828.172913,742.362061 832.650208,742.035645 
	C836.294861,741.769958 839.975220,741.945312 843.638733,741.995056 
	C856.801819,742.173828 854.060608,741.994080 855.872803,730.584839 
	C857.608154,719.659485 858.587708,708.612244 859.825867,697.610291 
	C860.935486,687.751221 861.891113,677.874756 863.015320,668.017456 
	C863.951599,659.808289 864.999146,651.611267 866.062317,643.417297 
	C866.975952,636.375305 868.205994,629.363525 868.780823,622.296448 
	C868.916382,620.629517 867.424561,618.050537 865.926758,617.159058 
	C857.300903,612.025391 847.903381,616.946411 847.029175,626.641113 
	C845.424927,644.431213 843.712708,662.211914 841.942383,679.986328 
	C841.719849,682.220825 840.875488,684.393433 840.319214,686.594727 
	C838.783936,682.668884 838.347046,678.915710 837.955139,675.157776 
	C837.012451,666.116760 836.170166,657.064514 835.137512,648.033875 
	C834.179810,639.658081 832.710083,631.327515 832.100952,622.930969 
	C831.813171,618.965698 830.187317,616.830139 826.671509,616.520752 
	C822.473572,616.151367 818.103882,615.973389 814.023621,616.788635 
	C812.061584,617.180664 809.393066,619.863220 809.099304,621.817383 
	C807.405396,633.083618 806.351501,644.445251 805.029846,655.768616 
	C804.071899,663.975342 803.068054,672.177246 802.006958,680.371155 
	C801.783203,682.099426 801.627014,682.079224 799.888916,680.305542 
z"/>
<path fill="#CE9025" opacity="1.000000" stroke="none" 
	d="
M647.262451,329.725647 
	C654.441162,359.244629 651.062439,387.293030 638.121948,414.137299 
	C634.823120,420.980621 630.330139,427.287170 626.010132,433.582520 
	C623.936279,436.604614 623.591797,438.717682 626.583801,441.187836 
	C628.756775,442.981812 630.776428,445.037628 632.538025,447.238007 
	C636.156616,451.757965 640.096924,454.503357 646.456665,453.158478 
	C651.473694,452.097534 655.872803,454.576416 659.462036,458.160858 
	C684.226379,482.892212 709.012512,507.601898 733.706116,532.403748 
	C738.992432,537.713196 740.079163,544.169434 737.949280,551.331787 
	C734.996277,561.262329 720.138245,574.676147 708.493591,570.894226 
	C705.443970,569.903809 702.190552,568.405273 699.960754,566.199829 
	C674.959595,541.471069 650.181946,516.516541 625.234009,491.733612 
	C620.767517,487.296661 619.246460,482.046722 620.407349,476.249603 
	C621.043152,473.074524 620.096558,471.328400 618.095337,469.288300 
	C613.788269,464.897522 609.689697,460.302307 605.468506,455.750519 
	C600.204407,459.306030 595.950623,462.452484 591.442505,465.178131 
	C568.513062,479.041473 543.571777,485.267883 516.938354,482.741150 
	C483.329895,479.552734 455.380005,464.962585 433.393890,439.060974 
	C417.981384,420.903625 408.539001,399.972534 405.410889,376.611572 
	C400.527832,340.144684 409.808990,307.296539 433.600220,278.953583 
	C452.275299,256.705597 476.142151,242.786102 504.597260,237.573441 
	C541.839050,230.751190 575.647156,239.359192 605.286499,262.982239 
	C626.853271,280.171356 640.414978,302.654205 647.262451,329.725647 
M428.902435,382.516266 
	C435.261749,408.054108 448.869385,428.427246 470.681641,443.605133 
	C491.705933,458.234711 514.962219,463.353302 539.820984,460.621613 
	C564.320862,457.929382 585.174377,446.972137 601.852173,428.613037 
	C624.068176,404.157501 632.640808,375.280121 627.578430,342.881470 
	C623.795044,318.668549 612.610718,298.039673 593.594849,281.922821 
	C567.552185,259.850372 537.725220,252.440842 504.711945,259.820068 
	C484.031921,264.442505 466.220001,274.784790 452.097351,291.213623 
	C429.382751,317.637543 421.711853,347.715881 428.902435,382.516266 
z"/>
<path fill="#CC9028" opacity="1.000000" stroke="none" 
	d="
M507.073364,631.028809 
	C506.693298,626.675659 506.327515,622.776001 505.892883,618.142151 
	C511.962769,618.142151 517.279358,617.801392 522.490845,618.390137 
	C523.738770,618.531128 525.312256,621.673218 525.576660,623.594604 
	C526.594666,630.991089 527.084351,638.458496 527.877075,645.888123 
	C529.567932,661.734192 531.301331,677.575867 533.087952,693.411377 
	C533.287109,695.176880 533.942322,696.890930 535.496582,698.755371 
	C535.998779,696.182556 536.695740,693.630493 536.972717,691.033691 
	C539.420166,668.087158 541.800293,645.133545 544.178406,622.179749 
	C544.461670,619.445007 545.611450,617.804138 548.633301,618.111145 
	C549.292480,618.178162 549.965149,618.111389 550.631653,618.107056 
	C564.785522,618.015259 564.528320,618.040771 565.944763,632.337280 
	C568.088257,653.972290 570.629639,675.567932 573.021118,697.178162 
	C573.072144,697.639648 573.355652,698.075439 574.123291,700.038940 
	C575.030640,697.192688 575.851135,695.571045 576.041626,693.878540 
	C578.752686,669.793518 581.330017,645.693237 584.158203,621.622314 
	C584.310364,620.327576 586.225403,618.935547 587.637695,618.193848 
	C588.684448,617.643982 590.247314,618.070618 591.580261,618.072754 
	C601.954529,618.089417 602.057190,618.102600 600.778992,628.643311 
	C597.602112,654.843323 594.293091,681.027344 591.099243,707.225342 
	C589.934082,716.783325 588.837402,726.352539 587.931946,735.937744 
	C587.608643,739.360840 586.506531,741.063538 582.744873,740.896606 
	C577.257202,740.653015 571.742310,740.660950 566.254395,740.905762 
	C562.477356,741.074280 561.470764,739.316528 561.088257,735.921021 
	C559.174805,718.935852 557.061401,701.973145 554.991211,685.005859 
	C554.923645,684.452026 554.564575,683.933777 553.365417,683.415405 
	C552.546326,689.355103 551.644592,695.284851 550.925537,701.236633 
	C549.491882,713.102295 548.137878,724.977783 546.798950,736.854614 
	C546.486633,739.624329 545.275940,740.972656 542.288940,740.896973 
	C536.460938,740.749207 530.625122,740.795593 524.794922,740.898865 
	C521.825256,740.951416 520.328064,740.059998 519.948975,736.751892 
	C518.532471,724.389404 516.735474,712.071228 515.209351,699.720520 
	C512.481812,677.646423 509.845947,655.561035 507.180328,633.479248 
	C507.100677,632.819519 507.116394,632.148193 507.073364,631.028809 
z"/>
<path fill="#CC9029" opacity="1.000000" stroke="none" 
	d="
M655.930420,669.218811 
	C655.909790,691.517090 655.791992,713.348938 655.954956,735.178711 
	C655.987427,739.534302 654.670532,741.042542 650.253296,740.898682 
	C636.058899,740.436462 638.264099,742.748291 638.213928,729.113831 
	C638.086426,694.451050 638.170227,659.787476 638.175720,625.124207 
	C638.176880,618.107910 638.189697,618.101868 645.417908,618.084900 
	C649.417480,618.075500 653.442139,618.371948 657.409973,618.018982 
	C661.744629,617.633301 663.200928,619.913635 664.192810,623.546265 
	C668.351379,638.776367 672.650635,653.968262 676.930359,669.165100 
	C677.939026,672.746704 679.072205,676.293152 680.148071,679.855774 
	C680.671021,679.797668 681.193909,679.739563 681.716797,679.681458 
	C681.852905,678.009766 682.102722,676.338379 682.107544,674.666321 
	C682.155884,657.834839 682.329712,641.000793 682.080444,624.173157 
	C682.007507,619.247131 683.685059,617.855591 688.412842,618.038147 
	C701.351318,618.537842 699.888245,616.123352 699.911133,629.434692 
	C699.971008,664.264404 699.945740,699.094360 699.929688,733.924194 
	C699.926514,740.802307 699.875427,740.802368 693.018982,740.851074 
	C680.121460,740.942688 680.232178,740.911499 676.759033,728.545227 
	C670.914551,707.735718 664.923157,686.967468 658.950806,666.194153 
	C658.648499,665.142761 657.942627,664.207458 656.300110,663.262756 
	C656.177368,665.092407 656.054565,666.921997 655.930420,669.218811 
z"/>
<path fill="#FDFDFD" opacity="1.000000" stroke="none" 
	d="
M227.313568,658.690918 
	C230.006027,668.437134 232.560791,677.800720 235.115570,687.164246 
	C235.447067,687.105530 235.778549,687.046753 236.110046,686.988037 
	C236.110046,664.584656 236.110046,642.181335 236.110046,619.336792 
	C241.694412,619.336792 246.914810,619.336792 252.591614,619.336792 
	C252.591614,659.285339 252.591614,699.303589 252.591614,740.060181 
	C246.983261,740.060181 241.371735,740.314514 235.817383,739.863953 
	C234.580124,739.763550 232.970001,737.348328 232.502319,735.720093 
	C226.543488,714.974487 220.782669,694.172058 214.921738,673.398132 
	C213.273270,667.555176 211.463181,661.757812 208.964172,656.048340 
	C208.964172,663.449341 208.964203,670.850342 208.964188,678.251343 
	C208.964111,697.405518 208.874527,716.560425 209.037964,735.713196 
	C209.071411,739.633118 207.842865,740.988281 203.897980,740.893799 
	C189.470673,740.548157 192.046021,742.597961 191.994568,729.097961 
	C191.861969,694.287842 191.940552,659.476990 191.934830,624.666382 
	C191.934509,622.717712 191.934799,620.769043 191.934799,618.166504 
	C199.465866,618.166504 206.426636,617.923584 213.341446,618.378723 
	C214.668167,618.466064 216.409241,621.117798 216.947296,622.893188 
	C220.510880,634.651550 223.798447,646.493469 227.313568,658.690918 
z"/>
<path fill="#CC9028" opacity="1.000000" stroke="none" 
	d="
M498.802307,684.000000 
	C498.521118,695.465576 498.636261,706.459106 497.863647,717.389954 
	C496.794800,732.511841 486.391602,741.950134 471.165283,741.860779 
	C466.099213,741.831055 460.744568,741.425232 456.035706,739.748291 
	C443.867126,735.414795 439.533844,725.058472 439.267334,713.323730 
	C438.757141,690.855957 438.692627,668.357117 439.249817,645.891235 
	C439.966461,616.995422 464.959076,612.220642 483.239105,619.573853 
	C494.908081,624.267700 498.661987,635.438843 498.792084,647.532837 
	C498.921082,659.520508 498.809021,671.510864 498.802307,684.000000 
M479.097839,678.500000 
	C479.085388,667.167358 479.156677,655.833801 479.028595,644.502502 
	C478.953766,637.880615 475.679199,634.470398 469.470581,634.052979 
	C463.681030,633.663818 459.901611,636.772034 458.952423,642.939148 
	C458.499512,645.881653 458.167450,648.875854 458.156555,651.847961 
	C458.088226,670.513428 458.100616,689.179260 458.158356,707.844788 
	C458.166016,710.321472 458.439667,712.819946 458.836792,715.268311 
	C459.960999,722.198914 463.678528,725.398865 469.800537,724.888000 
	C475.693024,724.396301 478.965302,720.688965 479.029999,713.997559 
	C479.141144,702.499207 479.085510,690.999268 479.097839,678.500000 
z"/>
<path fill="#FDFDFD" opacity="1.000000" stroke="none" 
	d="
M290.119873,717.959473 
	C284.454224,717.048767 281.471375,718.497314 281.534912,724.485229 
	C281.571350,727.915833 280.042755,731.368896 280.119720,734.791565 
	C280.222260,739.350891 277.791931,740.729614 274.066437,740.746521 
	C270.271210,740.763733 266.473938,740.322632 261.674652,740.018616 
	C262.593292,733.635376 263.337708,727.644714 264.331543,721.695740 
	C269.196045,692.577942 274.131836,663.471985 279.029053,634.359619 
	C279.744110,630.108948 280.133270,625.780640 281.205841,621.625732 
	C281.564056,620.238281 283.542572,618.340698 284.852478,618.281799 
	C292.002258,617.960693 299.175140,618.200073 306.338654,618.118164 
	C309.268494,618.084656 309.737915,619.722961 310.140900,622.178650 
	C313.309143,641.486145 316.636047,660.767700 319.901794,680.059265 
	C323.140503,699.191162 326.367950,718.325012 329.582428,737.460999 
	C329.687256,738.085083 329.595703,738.742126 329.595703,740.062012 
	C323.792816,740.062012 318.068756,740.187195 312.362701,739.923157 
	C311.534576,739.884888 310.317444,738.075745 310.094421,736.927856 
	C309.209656,732.374023 308.551910,727.768982 307.997681,723.160339 
	C307.564117,719.554810 306.391937,717.384460 302.089996,717.862488 
	C298.304047,718.283264 294.435272,717.958984 290.119873,717.959473 
M292.492432,653.997192 
	C290.067444,669.474243 287.642426,684.951233 285.183716,700.643433 
	C291.676208,700.643433 297.679871,700.643433 304.185364,700.643433 
	C301.184113,681.005066 298.261414,661.880615 295.338715,642.756104 
	C294.947571,642.793152 294.556396,642.830200 294.165253,642.867249 
	C293.690430,646.296204 293.215576,649.725098 292.492432,653.997192 
z"/>
<path fill="#CC8F29" opacity="1.000000" stroke="none" 
	d="
M908.802246,721.829834 
	C914.146973,713.129578 911.270874,701.755859 903.802063,694.312927 
	C898.268555,688.798523 892.272095,683.742737 886.827515,678.146423 
	C876.390686,667.418945 871.224854,654.834900 874.094116,639.601562 
	C877.192505,623.151428 889.351685,615.727295 905.068604,616.591492 
	C923.095215,617.582764 931.919983,630.349670 931.211365,648.735962 
	C931.172058,649.755432 930.467285,651.596069 929.993896,651.622009 
	C924.915710,651.900085 919.817871,651.997498 914.737000,651.816650 
	C914.125488,651.794922 913.289307,649.895081 913.068542,648.765808 
	C912.593750,646.336914 912.690552,643.786804 912.125427,641.387024 
	C910.888428,636.134399 907.515930,634.217896 901.048767,634.834900 
	C896.147034,635.302612 894.446472,638.616272 893.858276,642.968018 
	C892.165466,655.493469 899.394592,663.376709 907.735046,671.116150 
	C914.274841,677.184692 920.787659,683.595703 925.855103,690.869812 
	C935.333923,704.476440 933.579041,725.670959 922.565979,735.558472 
	C912.808594,744.318726 900.919312,743.703064 889.591492,739.932495 
	C878.892456,736.371399 873.650330,727.312439 873.282654,716.402649 
	C872.725342,699.863037 870.643860,703.671448 885.698486,703.044067 
	C890.418945,702.847351 892.616455,704.320129 891.923279,709.223022 
	C891.761780,710.364990 891.898193,711.551392 891.922424,712.716858 
	C892.136536,723.024719 899.492371,727.188293 908.802246,721.829834 
z"/>
<path fill="#CC8F29" opacity="1.000000" stroke="none" 
	d="
M733.000793,740.871765 
	C727.334473,740.851440 722.142883,741.108337 717.016663,740.644043 
	C715.480774,740.504883 713.717468,738.591614 712.816528,737.048462 
	C712.061646,735.755432 712.291626,733.817810 712.289246,732.165283 
	C712.237427,696.333130 712.208069,660.501038 712.191223,624.668884 
	C712.188110,618.114075 712.221985,618.103577 718.919067,618.101624 
	C732.752197,618.097534 746.587097,618.233337 760.417236,618.031494 
	C764.556030,617.971069 766.013977,619.332581 765.912537,623.472656 
	C765.549500,638.285156 767.594666,635.709839 753.473755,635.957397 
	C747.642761,636.059631 741.805115,636.033752 735.975708,635.874023 
	C733.045654,635.793762 731.754028,636.711060 731.818848,639.844604 
	C731.991272,648.174683 732.003845,656.510742 731.907593,664.842407 
	C731.869080,668.173096 733.408508,669.220215 736.482422,669.165405 
	C742.313904,669.061462 748.155823,669.301270 753.978821,669.054321 
	C757.567932,668.902161 758.927673,669.882141 758.949829,673.756531 
	C759.025024,686.919067 759.178711,686.920410 746.047180,686.998413 
	C742.713989,687.018188 739.377136,687.118652 736.048462,686.999329 
	C733.024902,686.890930 731.901367,688.226318 731.924011,691.180054 
	C731.994202,700.345825 731.987732,709.513489 731.867126,718.678589 
	C731.824707,721.899841 733.117493,723.130493 736.322327,723.081116 
	C744.320312,722.957947 752.325806,723.199280 760.319458,722.975891 
	C764.362000,722.862976 765.966431,724.130737 765.849854,728.371460 
	C765.439514,743.298767 767.787842,740.558228 753.500244,740.833679 
	C746.835938,740.962219 740.167297,740.866699 733.000793,740.871765 
z"/>
<path fill="#CDB282" opacity="1.000000" stroke="none" 
	d="
M799.940308,680.698242 
	C801.627014,682.079224 801.783203,682.099426 802.006958,680.371155 
	C803.068054,672.177246 804.071899,663.975342 805.029846,655.768616 
	C806.351501,644.445251 807.405396,633.083618 809.099304,621.817383 
	C809.393066,619.863220 812.061584,617.180664 814.023621,616.788635 
	C818.103882,615.973389 822.473572,616.151367 826.671509,616.520752 
	C830.187317,616.830139 831.813171,618.965698 832.100952,622.930969 
	C832.710083,631.327515 834.179810,639.658081 835.137512,648.033875 
	C836.170166,657.064514 837.012451,666.116760 837.955139,675.157776 
	C838.347046,678.915710 838.783936,682.668884 840.319214,686.594727 
	C840.875488,684.393433 841.719849,682.220825 841.942383,679.986328 
	C843.712708,662.211914 845.424927,644.431213 847.029175,626.641113 
	C847.903381,616.946411 857.300903,612.025391 865.926758,617.159058 
	C867.424561,618.050537 868.916382,620.629517 868.780823,622.296448 
	C868.205994,629.363525 866.975952,636.375305 866.062317,643.417297 
	C864.999146,651.611267 863.951599,659.808289 863.015320,668.017456 
	C861.891113,677.874756 860.935486,687.751221 859.825867,697.610291 
	C858.587708,708.612244 857.608154,719.659485 855.872803,730.584839 
	C854.060608,741.994080 856.801819,742.173828 843.638733,741.995056 
	C839.975220,741.945312 836.294861,741.769958 832.650208,742.035645 
	C828.172913,742.362061 826.484009,740.373474 825.962280,736.079407 
	C824.427490,723.449219 822.573059,710.857910 820.814636,698.255371 
	C820.781860,698.020630 820.388489,697.836060 819.335327,696.862976 
	C818.501648,702.371338 817.675110,707.244812 817.042542,712.143311 
	C815.941895,720.666443 815.137451,729.233459 813.771667,737.711670 
	C813.517090,739.292236 811.280579,741.662415 809.837646,741.753662 
	C803.036194,742.183777 796.173767,742.219299 789.378357,741.745300 
	C787.812317,741.636047 785.431824,739.146912 785.121155,737.443848 
	C783.462158,728.348572 782.221008,719.170410 781.062256,709.992249 
	C779.406189,696.875488 777.931519,683.735596 776.407837,670.602295 
	C775.264771,660.749878 774.156738,650.893433 773.051880,641.036621 
	C772.352173,634.794434 771.694397,628.547546 771.003845,622.304321 
	C770.482666,617.592590 773.150635,615.942932 777.269165,616.089905 
	C781.232910,616.231384 785.306885,616.269775 789.083069,617.282898 
	C790.699951,617.716736 792.556946,620.382812 792.815674,622.241882 
	C794.432617,633.862793 795.595154,645.546265 796.975403,657.200989 
	C797.888367,664.909424 798.913818,672.604492 799.940308,680.698242 
M832.264465,644.174744 
	C831.813477,639.551086 831.356262,634.928040 830.912598,630.303650 
	C829.827576,618.994141 829.830139,618.993713 818.358459,618.989014 
	C817.192322,618.988525 815.801575,618.587158 814.910706,619.082825 
	C813.443604,619.899109 811.430176,621.130798 811.173157,622.478516 
	C810.150635,627.838989 809.619019,633.302307 809.085938,638.745239 
	C807.308289,656.894775 805.671875,675.058350 803.836426,693.201843 
	C803.354004,697.970093 802.347717,702.685303 801.582092,707.424866 
	C801.131226,707.404236 800.680359,707.383606 800.229492,707.362915 
	C798.489075,692.144531 796.739258,676.927185 795.011536,661.707336 
	C793.796753,651.006226 792.963745,640.247192 791.317505,629.613586 
	C789.584412,618.419067 789.253357,618.587219 777.448669,618.892517 
	C773.847351,618.985657 772.633118,620.445984 773.060852,623.772644 
	C773.821655,629.690613 774.606628,635.605469 775.343628,641.526367 
	C777.226685,656.652710 779.103821,671.779907 780.955566,686.910156 
	C782.988770,703.523743 784.926514,720.149658 787.140991,736.738892 
	C787.301941,737.944702 789.325134,739.745605 790.567932,739.818665 
	C796.212402,740.150696 801.908936,740.232666 807.537598,739.786011 
	C809.098328,739.662170 811.580139,737.567932 811.787476,736.113586 
	C813.447876,724.468750 814.644226,712.758179 816.021667,701.072327 
	C817.090271,692.007019 818.215149,682.948303 819.482544,672.506165 
	C820.353943,674.404358 820.771973,674.941406 820.841431,675.520203 
	C823.228943,695.430725 825.701660,715.332520 827.836670,735.270386 
	C828.233337,738.974487 829.499207,740.186951 833.047913,740.047119 
	C838.037842,739.850647 843.047119,739.859375 848.037354,740.055359 
	C851.493042,740.191162 852.787354,738.661987 853.009216,735.400879 
	C853.324097,730.771179 853.831787,726.150452 854.393921,721.542603 
	C856.219788,706.575012 858.138794,691.618774 859.963623,676.651062 
	C861.928894,660.531555 863.659241,644.381226 865.824341,628.289124 
	C866.992554,619.606506 866.726807,618.959473 857.919067,618.953979 
	C856.919495,618.953369 855.911255,619.040100 854.921936,618.939819 
	C851.422058,618.585266 850.208069,620.413147 850.016724,623.626221 
	C849.711060,628.760010 849.307678,633.892456 848.770569,639.007141 
	C846.867004,657.136841 844.946045,675.265137 842.904968,693.379700 
	C842.300537,698.743408 841.278259,704.060059 840.447510,709.398315 
	C840.030823,709.353271 839.614197,709.308228 839.197510,709.263184 
	C836.978882,687.852295 834.760193,666.441345 832.264465,644.174744 
z"/>
<path fill="#CCB791" opacity="1.000000" stroke="none" 
	d="
M367.006226,739.952271 
	C366.013916,736.883606 364.180237,733.820740 364.159302,730.745483 
	C363.947266,699.582153 364.031372,668.416931 364.032013,637.252197 
	C364.032104,632.668640 363.961365,628.083740 364.046600,623.501770 
	C364.148712,618.013733 366.176605,616.054321 371.621124,616.023132 
	C376.287354,615.996399 380.967621,616.240051 385.616272,615.952759 
	C390.135559,615.673523 392.680695,618.024719 393.719818,621.833496 
	C397.323914,635.043335 400.611053,648.339355 404.123230,661.574829 
	C404.608093,663.402161 405.681213,665.073364 406.482025,666.816833 
	C406.976746,666.807068 407.471497,666.797302 407.966217,666.787476 
	C408.314117,665.069580 408.990723,663.345093 408.956635,661.634705 
	C408.731293,650.340759 408.347595,639.050049 408.032532,627.757751 
	C407.995392,626.426636 407.934296,625.076416 408.101929,623.762817 
	C408.968597,616.971313 410.084869,616.024414 416.976898,616.016907 
	C430.007965,616.002747 429.988953,616.002747 429.983521,628.933655 
	C429.969086,663.264832 429.977814,697.595947 429.965790,731.927124 
	C429.962372,741.711182 428.712738,742.972290 419.186890,742.968384 
	C417.853638,742.967834 416.520050,742.948853 415.187195,742.971802 
	C410.434967,743.053528 407.055267,741.704407 405.577118,736.413574 
	C400.591064,718.566650 395.260925,700.815674 390.016205,683.041565 
	C389.421631,681.026611 388.534088,679.098145 387.782379,677.129517 
	C387.269135,677.245117 386.755920,677.360657 386.242676,677.476257 
	C386.153290,679.197083 385.988220,680.917847 385.986176,682.638733 
	C385.965881,699.804321 385.986694,716.969910 385.964478,734.135498 
	C385.955505,741.088928 385.061493,742.213623 378.292084,741.894104 
	C374.582214,741.718933 370.441284,744.703186 367.549500,740.350525 
	C371.802002,739.988770 375.655579,740.237244 379.450714,739.874329 
	C380.725800,739.752441 382.833191,738.131531 382.892822,737.099365 
	C383.419800,727.978760 383.736786,718.837524 383.798248,709.700317 
	C383.918304,691.857666 383.833466,674.013611 383.833466,656.170166 
	C385.235901,657.562622 385.798981,659.064819 386.235718,660.602905 
	C392.492798,682.640625 398.605835,704.720154 405.018707,726.712341 
	C409.791870,743.081299 405.242340,739.524780 422.501617,740.094238 
	C426.463104,740.224976 427.235718,738.584473 427.147034,735.078125 
	C426.950562,727.307007 427.112854,719.527100 427.114349,711.750732 
	C427.119629,683.770630 427.157257,655.790405 427.100220,627.810425 
	C427.079620,617.697998 428.353180,618.988342 418.454132,618.954712 
	C410.294006,618.927002 411.004791,617.946411 410.994110,626.464050 
	C410.968445,646.880554 410.985809,667.297119 410.985809,687.713623 
	C409.900757,687.196777 409.453217,686.541687 409.244812,685.817810 
	C403.227295,664.917114 397.126831,644.039001 391.346680,623.072632 
	C390.435974,619.769348 389.034698,618.752625 385.883087,618.878052 
	C381.559662,619.050110 377.193909,619.243347 372.901978,618.837891 
	C367.930237,618.368408 366.863373,620.363281 366.885773,625.035400 
	C367.069122,663.340332 366.999237,701.646484 367.006226,739.952271 
z"/>
<path fill="#BFBDB7" opacity="1.000000" stroke="none" 
	d="
M428.810425,382.109375 
	C421.711853,347.715881 429.382751,317.637543 452.097351,291.213623 
	C466.220001,274.784790 484.031921,264.442505 504.711945,259.820068 
	C537.725220,252.440842 567.552185,259.850372 593.594849,281.922821 
	C612.610718,298.039673 623.795044,318.668549 627.578430,342.881470 
	C632.640808,375.280121 624.068176,404.157501 601.852173,428.613037 
	C585.174377,446.972137 564.320862,457.929382 539.820984,460.621613 
	C514.962219,463.353302 491.705933,458.234711 470.681641,443.605133 
	C448.869385,428.427246 435.261749,408.054108 428.810425,382.109375 
M483.000000,431.000000 
	C483.000000,431.000000 482.986542,431.023712 483.306183,431.511169 
	C483.844818,431.694427 484.383453,431.877686 484.992493,432.036346 
	C484.992493,432.036346 484.942383,432.091644 485.076172,432.833801 
	C486.396088,433.556915 487.661346,434.415863 489.047638,434.974091 
	C491.708618,436.045563 494.438293,436.946411 497.315918,438.444122 
	C497.571838,438.935699 497.827728,439.427277 498.193512,440.296814 
	C498.409180,440.139801 498.624847,439.982788 498.887054,439.218231 
	C498.953033,438.817535 499.019012,438.416809 499.746552,437.911774 
	C500.542419,436.830261 501.338287,435.748718 502.693848,434.736298 
	C503.068817,434.765167 503.443756,434.794067 504.683716,434.947571 
	C509.764282,434.975494 514.376343,434.040253 517.002808,428.989624 
	C517.002808,428.989624 516.973022,428.982269 517.442261,428.806580 
	C517.632751,428.539948 517.823242,428.273346 518.304565,427.450256 
	C519.502014,426.284485 520.699463,425.118713 522.405212,423.766602 
	C522.572571,423.458557 522.739929,423.150513 522.995422,422.292175 
	C523.307861,421.852631 523.620239,421.413086 524.648254,420.897125 
	C526.784302,416.283020 528.920288,411.668945 531.683105,406.971008 
	C532.530273,406.519775 533.377441,406.068512 534.454407,405.494873 
	C533.047607,404.840668 532.059326,404.381073 531.023743,403.163544 
	C528.333923,395.177399 526.415649,386.442719 518.824524,381.606812 
	C512.682556,377.694122 505.664032,375.157379 498.943848,371.546478 
	C498.943848,371.546478 498.904938,371.075928 498.948212,370.558136 
	C498.742706,370.322510 498.537201,370.086884 498.331665,369.851257 
	C498.235443,370.235229 498.139221,370.619232 498.022003,371.021301 
	C498.022003,371.021301 498.002350,371.043396 497.302002,371.116669 
	C495.340088,372.416382 493.537079,374.402679 491.389343,374.899811 
	C480.714050,377.370850 473.705536,383.922943 469.261749,393.627289 
	C467.526550,397.416595 465.794067,401.207184 463.592438,405.080627 
	C463.335571,405.220795 463.078735,405.360962 462.821899,405.501129 
	C463.231232,405.673401 463.640594,405.845673 464.085785,406.724701 
	C465.666290,409.748169 467.184174,412.807159 468.866486,415.772919 
	C469.355103,416.634308 470.314178,417.228851 471.031219,417.968170 
	C471.031219,417.968170 471.044250,417.964050 471.039673,418.576569 
	C471.384399,419.033600 471.729156,419.490601 472.003662,419.997559 
	C472.003662,419.997559 472.076691,419.945648 472.028046,420.666473 
	C472.706512,421.424622 473.384949,422.182770 474.052063,422.972717 
	C474.052063,422.972717 474.046448,422.950531 474.212524,423.426788 
	C474.480530,423.618896 474.748535,423.811035 475.425201,424.249908 
	C475.679565,424.455933 475.861206,424.713287 475.986298,425.765411 
	C477.671783,427.160553 479.357300,428.555695 481.006500,430.002228 
	C481.006500,430.002228 481.031738,429.946472 481.315521,430.476654 
	C481.870941,430.657898 482.426331,430.839172 483.000000,431.000000 
M549.694580,354.354095 
	C543.077698,351.739227 536.662231,348.234680 529.804871,346.682159 
	C511.755951,342.595795 494.031586,316.051758 495.873138,293.035248 
	C495.977020,291.736908 495.176178,290.366211 494.532410,288.336060 
	C492.621368,287.820862 490.710327,287.305664 489.663452,287.023468 
	C487.819366,292.178375 487.422058,297.509766 484.564453,300.449799 
	C477.310608,307.912842 477.148163,316.288544 478.651031,325.473541 
	C481.669586,343.921295 493.146393,355.982635 509.075409,363.761078 
	C522.899597,370.511658 537.110779,370.257629 550.313354,361.214417 
	C551.487305,360.410339 552.434814,358.792297 552.716431,357.396729 
	C552.836304,356.802826 550.969238,355.807983 549.694580,354.354095 
M579.937195,411.683868 
	C599.889954,403.687836 609.148132,380.035095 605.195129,358.216064 
	C598.719543,359.996460 592.234314,361.944305 585.664490,363.545227 
	C576.892029,365.682953 568.357849,368.010986 561.146179,374.027374 
	C552.474976,381.261353 547.975464,395.958771 553.848145,406.236023 
	C561.726868,396.200043 570.178345,386.796265 581.631897,380.589447 
	C578.407715,384.706299 574.721863,388.367889 571.037720,392.031250 
	C562.615784,400.405762 557.127136,410.629761 552.527100,421.411469 
	C551.325928,424.226776 551.052307,426.615570 555.447388,427.022552 
	C556.359009,424.636414 557.327393,422.360474 558.100769,420.020142 
	C559.444580,415.953735 561.703918,413.889709 566.454224,413.971100 
	C570.687439,414.043579 574.945129,412.685120 579.937195,411.683868 
M526.879822,298.555603 
	C526.052063,301.230377 524.949829,303.854065 524.441101,306.588196 
	C521.138245,324.339600 537.835388,344.248199 559.115479,337.950256 
	C577.167786,332.607635 584.880798,312.228851 574.830444,296.167877 
	C569.297241,287.325500 560.267883,283.258026 550.218445,283.480133 
	C540.193970,283.701721 532.299438,288.954346 526.879822,298.555603 
M463.830322,367.612091 
	C468.863953,364.415741 470.984741,359.724335 469.470032,355.136566 
	C467.471710,349.083954 460.872894,345.520966 455.287415,347.478729 
	C449.939880,349.353149 446.688568,355.779083 448.320984,361.247314 
	C450.170227,367.441833 456.236298,370.195007 463.830322,367.612091 
M598.577026,332.131042 
	C596.067688,328.623199 592.315796,327.857544 588.910095,329.490143 
	C586.773438,330.514404 584.288025,333.609955 584.341553,335.715668 
	C584.412842,338.524384 586.137939,342.315826 588.385254,343.739380 
	C590.397156,345.013763 594.589172,344.557709 596.911865,343.251495 
	C600.961304,340.974274 600.841309,336.789978 598.577026,332.131042 
z"/>
<path fill="#C1BCB0" opacity="1.000000" stroke="none" 
	d="
M479.098877,679.000000 
	C479.085510,690.999268 479.141144,702.499207 479.029999,713.997559 
	C478.965302,720.688965 475.693024,724.396301 469.800537,724.888000 
	C463.678528,725.398865 459.960999,722.198914 458.836792,715.268311 
	C458.439667,712.819946 458.166016,710.321472 458.158356,707.844788 
	C458.100616,689.179260 458.088226,670.513428 458.156555,651.847961 
	C458.167450,648.875854 458.499512,645.881653 458.952423,642.939148 
	C459.901611,636.772034 463.681030,633.663818 469.470581,634.052979 
	C475.679199,634.470398 478.953766,637.880615 479.028595,644.502502 
	C479.156677,655.833801 479.085388,667.167358 479.098877,679.000000 
z"/>
<path fill="#BEBDBD" opacity="1.000000" stroke="none" 
	d="
M292.616577,653.575623 
	C293.215576,649.725098 293.690430,646.296204 294.165253,642.867249 
	C294.556396,642.830200 294.947571,642.793152 295.338715,642.756104 
	C298.261414,661.880615 301.184113,681.005066 304.185364,700.643433 
	C297.679871,700.643433 291.676208,700.643433 285.183716,700.643433 
	C287.642426,684.951233 290.067444,669.474243 292.616577,653.575623 
z"/>
<path fill="#CC8F27" opacity="1.000000" stroke="none" 
	d="
M832.402954,644.602600 
	C834.760193,666.441345 836.978882,687.852295 839.197510,709.263184 
	C839.614197,709.308228 840.030823,709.353271 840.447510,709.398315 
	C841.278259,704.060059 842.300537,698.743408 842.904968,693.379700 
	C844.946045,675.265137 846.867004,657.136841 848.770569,639.007141 
	C849.307678,633.892456 849.711060,628.760010 850.016724,623.626221 
	C850.208069,620.413147 851.422058,618.585266 854.921936,618.939819 
	C855.911255,619.040100 856.919495,618.953369 857.919067,618.953979 
	C866.726807,618.959473 866.992554,619.606506 865.824341,628.289124 
	C863.659241,644.381226 861.928894,660.531555 859.963623,676.651062 
	C858.138794,691.618774 856.219788,706.575012 854.393921,721.542603 
	C853.831787,726.150452 853.324097,730.771179 853.009216,735.400879 
	C852.787354,738.661987 851.493042,740.191162 848.037354,740.055359 
	C843.047119,739.859375 838.037842,739.850647 833.047913,740.047119 
	C829.499207,740.186951 828.233337,738.974487 827.836670,735.270386 
	C825.701660,715.332520 823.228943,695.430725 820.841431,675.520203 
	C820.771973,674.941406 820.353943,674.404358 819.482544,672.506165 
	C818.215149,682.948303 817.090271,692.007019 816.021667,701.072327 
	C814.644226,712.758179 813.447876,724.468750 811.787476,736.113586 
	C811.580139,737.567932 809.098328,739.662170 807.537598,739.786011 
	C801.908936,740.232666 796.212402,740.150696 790.567932,739.818665 
	C789.325134,739.745605 787.301941,737.944702 787.140991,736.738892 
	C784.926514,720.149658 782.988770,703.523743 780.955566,686.910156 
	C779.103821,671.779907 777.226685,656.652710 775.343628,641.526367 
	C774.606628,635.605469 773.821655,629.690613 773.060852,623.772644 
	C772.633118,620.445984 773.847351,618.985657 777.448669,618.892517 
	C789.253357,618.587219 789.584412,618.419067 791.317505,629.613586 
	C792.963745,640.247192 793.796753,651.006226 795.011536,661.707336 
	C796.739258,676.927185 798.489075,692.144531 800.229492,707.362915 
	C800.680359,707.383606 801.131226,707.404236 801.582092,707.424866 
	C802.347717,702.685303 803.354004,697.970093 803.836426,693.201843 
	C805.671875,675.058350 807.308289,656.894775 809.085938,638.745239 
	C809.619019,633.302307 810.150635,627.838989 811.173157,622.478516 
	C811.430176,621.130798 813.443604,619.899109 814.910706,619.082825 
	C815.801575,618.587158 817.192322,618.988525 818.358459,618.989014 
	C829.830139,618.993713 829.827576,618.994141 830.912598,630.303650 
	C831.356262,634.928040 831.813477,639.551086 832.402954,644.602600 
z"/>
<path fill="#CD9027" opacity="1.000000" stroke="none" 
	d="
M367.008057,739.970825 
	C366.999237,701.646484 367.069122,663.340332 366.885773,625.035400 
	C366.863373,620.363281 367.930237,618.368408 372.901978,618.837891 
	C377.193909,619.243347 381.559662,619.050110 385.883087,618.878052 
	C389.034698,618.752625 390.435974,619.769348 391.346680,623.072632 
	C397.126831,644.039001 403.227295,664.917114 409.244812,685.817810 
	C409.453217,686.541687 409.900757,687.196777 410.985809,687.713623 
	C410.985809,667.297119 410.968445,646.880554 410.994110,626.464050 
	C411.004791,617.946411 410.294006,618.927002 418.454132,618.954712 
	C428.353180,618.988342 427.079620,617.697998 427.100220,627.810425 
	C427.157257,655.790405 427.119629,683.770630 427.114349,711.750732 
	C427.112854,719.527100 426.950562,727.307007 427.147034,735.078125 
	C427.235718,738.584473 426.463104,740.224976 422.501617,740.094238 
	C405.242340,739.524780 409.791870,743.081299 405.018707,726.712341 
	C398.605835,704.720154 392.492798,682.640625 386.235718,660.602905 
	C385.798981,659.064819 385.235901,657.562622 383.833466,656.170166 
	C383.833466,674.013611 383.918304,691.857666 383.798248,709.700317 
	C383.736786,718.837524 383.419800,727.978760 382.892822,737.099365 
	C382.833191,738.131531 380.725800,739.752441 379.450714,739.874329 
	C375.655579,740.237244 371.802002,739.988770 367.508789,739.988220 
	C367.046265,739.997314 367.009888,739.989380 367.008057,739.970825 
z"/>
<path fill="#3D9C50" opacity="1.000000" stroke="none" 
	d="
M579.564575,411.821045 
	C574.945129,412.685120 570.687439,414.043579 566.454224,413.971100 
	C561.703918,413.889709 559.444580,415.953735 558.100769,420.020142 
	C557.327393,422.360474 556.359009,424.636414 555.447388,427.022552 
	C551.052307,426.615570 551.325928,424.226776 552.527100,421.411469 
	C557.127136,410.629761 562.615784,400.405762 571.037720,392.031250 
	C574.721863,388.367889 578.407715,384.706299 581.631897,380.589447 
	C570.178345,386.796265 561.726868,396.200043 553.848145,406.236023 
	C547.975464,395.958771 552.474976,381.261353 561.146179,374.027374 
	C568.357849,368.010986 576.892029,365.682953 585.664490,363.545227 
	C592.234314,361.944305 598.719543,359.996460 605.195129,358.216064 
	C609.148132,380.035095 599.889954,403.687836 579.564575,411.821045 
M583.411804,379.591797 
	C583.411804,379.591797 583.515198,379.413300 583.515198,379.413300 
	C583.515198,379.413300 583.289856,379.440582 583.411804,379.591797 
z"/>
<path fill="#CF922A" opacity="1.000000" stroke="none" 
	d="
M550.005127,354.995361 
	C550.969238,355.807983 552.836304,356.802826 552.716431,357.396729 
	C552.434814,358.792297 551.487305,360.410339 550.313354,361.214417 
	C537.110779,370.257629 522.899597,370.511658 509.075409,363.761078 
	C493.146393,355.982635 481.669586,343.921295 478.651031,325.473541 
	C477.148163,316.288544 477.310608,307.912842 484.564453,300.449799 
	C487.422058,297.509766 487.819366,292.178375 489.663452,287.023468 
	C490.710327,287.305664 492.621368,287.820862 494.316864,288.746643 
	C491.653809,293.547516 491.904541,299.350037 487.103363,302.537231 
	C486.866730,302.694336 487.039307,303.467896 487.004395,304.386749 
	C482.936035,334.681183 511.177979,361.000946 541.485107,359.945099 
	C543.490479,359.635468 545.104919,359.020752 546.693115,359.082611 
	C549.849792,359.205688 550.203796,357.407288 550.005127,354.995361 
z"/>
<path fill="#EFB041" opacity="1.000000" stroke="none" 
	d="
M527.040833,298.216370 
	C532.299438,288.954346 540.193970,283.701721 550.218445,283.480133 
	C560.267883,283.258026 569.297241,287.325500 574.830444,296.167877 
	C584.880798,312.228851 577.167786,332.607635 559.115479,337.950256 
	C537.835388,344.248199 521.138245,324.339600 524.441101,306.588196 
	C524.949829,303.854065 526.052063,301.230377 527.040833,298.216370 
M531.424866,314.783417 
	C531.575439,315.257416 531.759949,315.723602 531.871582,316.206604 
	C533.692505,324.091248 540.813782,331.085266 547.960876,331.996582 
	C557.126160,333.165283 566.290710,328.271027 570.559692,319.927856 
	C574.020630,313.163971 572.188477,303.186523 566.807068,297.230133 
	C560.650635,290.415985 550.782410,289.373718 543.947815,292.093597 
	C534.716003,295.767395 530.658936,303.153137 531.424866,314.783417 
z"/>
<path fill="#E9B254" opacity="1.000000" stroke="none" 
	d="
M549.849854,354.674744 
	C550.203796,357.407288 549.849792,359.205688 546.693115,359.082611 
	C545.104919,359.020752 543.490479,359.635468 541.462769,359.545013 
	C541.407166,355.630280 539.966858,353.568817 536.448853,352.591187 
	C533.103882,351.661652 529.793274,350.448761 526.659546,348.957031 
	C522.187805,346.828339 517.429993,344.913086 513.607971,341.881104 
	C503.029846,333.489838 498.066895,321.423950 493.972687,309.060211 
	C492.735626,305.324402 491.135345,303.226654 487.021362,303.954407 
	C487.039307,303.467896 486.866730,302.694336 487.103363,302.537231 
	C491.904541,299.350037 491.653809,293.547516 494.448853,289.093201 
	C495.176178,290.366211 495.977020,291.736908 495.873138,293.035248 
	C494.031586,316.051758 511.755951,342.595795 529.804871,346.682159 
	C536.662231,348.234680 543.077698,351.739227 549.849854,354.674744 
z"/>
<path fill="#CCB791" opacity="1.000000" stroke="none" 
	d="
M471.057617,417.945709 
	C470.314178,417.228851 469.355103,416.634308 468.866486,415.772919 
	C467.184174,412.807159 465.666290,409.748169 464.429596,406.381104 
	C466.183136,406.335846 467.592865,406.634186 469.370453,407.110352 
	C471.324371,407.536072 472.944336,407.653717 474.490204,408.056122 
	C479.371552,409.326721 484.225159,410.704010 488.813080,412.207336 
	C487.869171,413.719177 487.201660,415.063751 486.339661,416.800171 
	C488.990845,415.999176 490.962585,415.403473 493.056732,415.089233 
	C493.454407,415.918915 493.729675,416.467133 493.984833,417.388733 
	C494.053864,418.501770 494.142975,419.241333 494.243835,420.374878 
	C494.620300,423.160645 494.985046,425.552429 495.264160,428.319885 
	C495.119019,429.463715 495.059540,430.231842 494.678894,430.846497 
	C493.925690,430.444916 493.521484,430.109436 493.057495,429.961487 
	C483.419250,426.888428 476.478516,421.195648 473.823608,410.950409 
	C473.555420,409.915405 471.246582,409.409210 469.884766,408.657593 
	C469.621918,409.050476 469.359070,409.443359 469.096222,409.836243 
	C469.750000,412.539398 470.403809,415.242554 471.057617,417.945709 
M492.020416,422.335938 
	C493.033020,416.603058 488.136841,418.530975 485.266876,417.522858 
	C485.942841,412.774200 483.147156,410.925385 479.172302,410.196045 
	C476.241394,409.658264 475.346161,411.138916 476.442017,413.605682 
	C478.892548,419.122040 482.980438,423.157837 488.497711,425.608185 
	C490.670166,426.573029 492.060059,425.770050 492.020416,422.335938 
z"/>
<path fill="#BF9448" opacity="1.000000" stroke="none" 
	d="
M521.896912,423.952942 
	C520.699463,425.118713 519.502014,426.284485 517.925537,427.818512 
	C517.355347,428.451935 517.164185,428.717102 516.973022,428.982269 
	C516.973022,428.982269 517.002808,428.989624 516.636414,429.020508 
	C512.119568,430.975220 507.969147,432.899078 503.818726,434.822937 
	C503.443756,434.794067 503.068817,434.765167 502.397186,434.328491 
	C501.147339,429.064117 505.473389,429.307159 507.969574,428.245789 
	C516.599426,424.576355 521.651489,418.329803 523.195129,408.909882 
	C523.976929,408.188141 524.482361,407.590057 525.281372,406.848633 
	C526.054565,405.782043 526.534241,404.858765 527.277710,403.901611 
	C527.712463,403.820587 527.883362,403.773407 528.324158,403.788330 
	C528.775269,403.885193 528.956543,403.919922 529.212524,404.215942 
	C529.197388,405.319397 529.107605,406.161530 528.675110,407.175842 
	C526.865906,411.889862 525.399292,416.431702 523.932617,420.973511 
	C523.620239,421.413086 523.307861,421.852631 522.730835,422.700836 
	C522.276489,423.390656 522.086670,423.671783 521.896912,423.952942 
z"/>
<path fill="#BF9448" opacity="1.000000" stroke="none" 
	d="
M463.478363,367.789520 
	C456.236298,370.195007 450.170227,367.441833 448.320984,361.247314 
	C446.688568,355.779083 449.939880,349.353149 455.287415,347.478729 
	C460.872894,345.520966 467.471710,349.083954 469.470032,355.136566 
	C470.984741,359.724335 468.863953,364.415741 463.478363,367.789520 
M450.975342,357.533752 
	C451.211700,361.894135 452.749573,365.361084 457.589447,365.981079 
	C462.226532,366.575104 466.439331,363.693573 467.001556,359.864075 
	C467.709351,355.042786 465.178925,351.045074 460.813202,350.087494 
	C456.281769,349.093506 452.345612,351.748016 450.975342,357.533752 
z"/>
<path fill="#BF9448" opacity="1.000000" stroke="none" 
	d="
M471.044403,417.956940 
	C470.403809,415.242554 469.750000,412.539398 469.096222,409.836243 
	C469.359070,409.443359 469.621918,409.050476 469.884766,408.657593 
	C471.246582,409.409210 473.555420,409.915405 473.823608,410.950409 
	C476.478516,421.195648 483.419250,426.888428 493.057495,429.961487 
	C493.521484,430.109436 493.925690,430.444916 494.665253,431.239014 
	C493.651703,432.472626 492.310120,433.755554 491.014343,433.710876 
	C488.974182,433.640564 486.964783,432.677032 484.942383,432.091675 
	C484.942383,432.091644 484.992493,432.036346 484.813171,431.790649 
	C484.084717,431.371216 483.535645,431.197449 482.986542,431.023712 
	C482.986542,431.023712 483.000000,431.000000 482.836304,430.757507 
	C482.125641,430.325500 481.578705,430.135986 481.031738,429.946472 
	C481.031738,429.946472 481.006500,430.002228 480.888641,429.682373 
	C479.170532,427.915680 477.570312,426.468842 475.970062,425.022003 
	C475.861206,424.713287 475.679565,424.455933 475.133392,423.890289 
	C474.576538,423.337280 474.311493,423.143921 474.046448,422.950531 
	C474.046448,422.950531 474.052063,422.972717 474.025787,422.641907 
	C473.358551,421.522614 472.717621,420.734131 472.076691,419.945648 
	C472.076691,419.945648 472.003662,419.997559 472.020752,419.675171 
	C471.706665,418.889832 471.375458,418.426941 471.044250,417.964050 
	C471.044250,417.964050 471.031219,417.968170 471.044403,417.956940 
z"/>
<path fill="#CCB791" opacity="1.000000" stroke="none" 
	d="
M529.137878,403.954651 
	C528.956543,403.919922 528.775269,403.885193 528.309326,403.497253 
	C527.752197,402.434387 527.479614,401.724731 527.159790,400.603027 
	C526.034424,388.103058 514.883118,377.474213 501.935028,377.246735 
	C502.881714,378.988251 504.062042,380.616364 505.628876,381.669342 
	C507.609070,383.000061 509.904175,383.862305 511.641541,384.956177 
	C508.169006,384.659149 505.118408,384.332489 501.807434,383.835022 
	C501.114655,382.750580 500.682220,381.836945 500.218567,380.506470 
	C499.803009,377.396515 499.418701,374.703400 499.034363,372.010315 
	C505.664032,375.157379 512.682556,377.694122 518.824524,381.606812 
	C526.415649,386.442719 528.333923,395.177399 530.723999,403.564362 
	C529.995483,403.961670 529.566711,403.958160 529.137878,403.954651 
z"/>
<path fill="#CCB791" opacity="1.000000" stroke="none" 
	d="
M522.918762,409.033508 
	C521.651489,418.329803 516.599426,424.576355 507.969574,428.245789 
	C505.473389,429.307159 501.147339,429.064117 502.117310,434.293945 
	C501.338287,435.748718 500.542419,436.830261 499.409973,437.608704 
	C499.342590,436.169617 499.611816,435.033539 499.985077,433.522949 
	C501.185822,427.784424 502.282562,422.420410 503.745728,417.040039 
	C505.746582,417.362213 507.380981,417.700775 508.760559,418.306183 
	C503.611145,419.633789 504.303772,423.164490 504.312256,426.791412 
	C513.696777,424.867310 520.470642,417.459167 521.262512,409.114502 
	C522.034058,409.056122 522.476379,409.044830 522.918762,409.033508 
z"/>
<path fill="#CCB791" opacity="1.000000" stroke="none" 
	d="
M464.060394,404.997223 
	C465.794067,401.207184 467.526550,397.416595 469.261749,393.627289 
	C473.705536,383.922943 480.714050,377.370850 491.389343,374.899811 
	C493.537079,374.402679 495.340088,372.416382 497.622986,371.451965 
	C497.589325,373.497711 497.234650,375.208191 496.648163,377.067993 
	C495.946472,377.505615 495.476624,377.793945 494.775574,377.765869 
	C483.869781,375.818604 469.977264,388.785126 469.305847,401.295197 
	C469.269653,402.384827 469.198669,403.217468 469.097229,404.061249 
	C469.066772,404.072418 469.031677,404.126923 468.664856,404.097656 
	C466.885498,404.377991 465.472931,404.687592 464.060394,404.997223 
z"/>
<path fill="#BF9448" opacity="1.000000" stroke="none" 
	d="
M598.827759,332.442566 
	C600.841309,336.789978 600.961304,340.974274 596.911865,343.251495 
	C594.589172,344.557709 590.397156,345.013763 588.385254,343.739380 
	C586.137939,342.315826 584.412842,338.524384 584.341553,335.715668 
	C584.288025,333.609955 586.773438,330.514404 588.910095,329.490143 
	C592.315796,327.857544 596.067688,328.623199 598.827759,332.442566 
M594.709290,342.549255 
	C595.446655,341.879364 596.758301,341.255585 596.816467,340.531158 
	C597.010559,338.112427 597.670959,334.858521 596.425781,333.432587 
	C595.073486,331.883972 591.105469,330.830811 589.524719,331.736786 
	C587.673889,332.797546 586.044922,336.349274 586.328430,338.563324 
	C586.819946,342.402802 590.188599,343.577240 594.709290,342.549255 
z"/>
<path fill="#CCB791" opacity="1.000000" stroke="none" 
	d="
M524.290466,420.935333 
	C525.399292,416.431702 526.865906,411.889862 529.014404,407.180298 
	C530.149719,407.026642 530.603027,407.040741 531.056335,407.054810 
	C528.920288,411.668945 526.784302,416.283020 524.290466,420.935333 
z"/>
<path fill="#CCB791" opacity="1.000000" stroke="none" 
	d="
M485.009277,432.462738 
	C486.964783,432.677032 488.974182,433.640564 491.014343,433.710876 
	C492.310120,433.755554 493.651703,432.472626 495.265472,431.621826 
	C496.085297,433.611725 496.612366,435.764893 497.139465,437.918030 
	C494.438293,436.946411 491.708618,436.045563 489.047638,434.974091 
	C487.661346,434.415863 486.396088,433.556915 485.009277,432.462738 
z"/>
<path fill="#BF9448" opacity="1.000000" stroke="none" 
	d="
M497.227692,438.181091 
	C496.612366,435.764893 496.085297,433.611725 495.279114,431.229309 
	C495.059540,430.231842 495.119019,429.463715 495.565887,428.405243 
	C497.262512,430.042450 498.571777,431.969971 499.881042,433.897491 
	C499.611816,435.033539 499.342590,436.169617 499.079193,437.660889 
	C499.019012,438.416809 498.953033,438.817535 498.676147,439.553223 
	C498.465240,439.888184 498.083649,439.918823 498.083618,439.918823 
	C497.827728,439.427277 497.571838,438.935699 497.227692,438.181091 
z"/>
<path fill="#CCB791" opacity="1.000000" stroke="none" 
	d="
M504.251221,434.885254 
	C507.969147,432.899078 512.119568,430.975220 516.623047,429.009766 
	C514.376343,434.040253 509.764282,434.975494 504.251221,434.885254 
z"/>
<path fill="#BF9448" opacity="1.000000" stroke="none" 
	d="
M496.879974,376.918671 
	C497.234650,375.208191 497.589325,373.497711 497.973175,371.415314 
	C498.002350,371.043396 498.022003,371.021301 498.247559,371.032288 
	C498.473145,371.043274 498.904938,371.075928 498.904938,371.075928 
	C498.904938,371.075928 498.943848,371.546478 498.989105,371.778381 
	C499.418701,374.703400 499.803009,377.396515 499.867432,380.534302 
	C499.083557,381.007904 498.619568,381.036774 498.106445,380.685303 
	C497.664825,379.176239 497.272400,378.047455 496.879974,376.918671 
z"/>
<path fill="#D5A248" opacity="1.000000" stroke="none" 
	d="
M463.826416,405.038940 
	C465.472931,404.687592 466.885498,404.377991 468.657898,404.446625 
	C469.012726,405.527435 469.007660,406.229980 469.002594,406.932526 
	C467.592865,406.634186 466.183136,406.335846 464.411682,406.027710 
	C463.640594,405.845673 463.231232,405.673401 462.821899,405.501099 
	C463.078735,405.360962 463.335571,405.220795 463.826416,405.038940 
z"/>
<path fill="#CCB791" opacity="1.000000" stroke="none" 
	d="
M475.978180,425.393707 
	C477.570312,426.468842 479.170532,427.915680 480.906799,429.656677 
	C479.357300,428.555695 477.671783,427.160553 475.978180,425.393707 
z"/>
<path fill="#CDB282" opacity="1.000000" stroke="none" 
	d="
M531.369751,407.012909 
	C530.603027,407.040741 530.149719,407.026642 529.357056,407.008118 
	C529.107605,406.161530 529.197388,405.319397 529.212524,404.215942 
	C529.566711,403.958160 529.995483,403.961670 530.747681,403.943359 
	C532.059326,404.381073 533.047607,404.840668 534.454407,405.494873 
	C533.377441,406.068512 532.530273,406.519775 531.369751,407.012909 
z"/>
<path fill="#CCB791" opacity="1.000000" stroke="none" 
	d="
M472.052368,420.306061 
	C472.717621,420.734131 473.358551,421.522614 474.031433,422.626038 
	C473.384949,422.182770 472.706512,421.424622 472.052368,420.306061 
z"/>
<path fill="#CCB791" opacity="1.000000" stroke="none" 
	d="
M498.926575,370.817017 
	C498.904938,371.075928 498.473145,371.043274 498.258057,371.023254 
	C498.139221,370.619232 498.235443,370.235229 498.331665,369.851257 
	C498.537201,370.086884 498.742706,370.322510 498.926575,370.817017 
z"/>
<path fill="#CCB791" opacity="1.000000" stroke="none" 
	d="
M471.041962,418.270325 
	C471.375458,418.426941 471.706665,418.889832 472.055847,419.650208 
	C471.729156,419.490601 471.384399,419.033600 471.041962,418.270325 
z"/>
<path fill="#CCB791" opacity="1.000000" stroke="none" 
	d="
M483.146362,431.267456 
	C483.535645,431.197449 484.084717,431.371216 484.777954,431.802979 
	C484.383453,431.877686 483.844818,431.694427 483.146362,431.267456 
z"/>
<path fill="#CCB791" opacity="1.000000" stroke="none" 
	d="
M481.173645,430.211548 
	C481.578705,430.135986 482.125641,430.325500 482.827179,430.767731 
	C482.426331,430.839172 481.870941,430.657898 481.173645,430.211548 
z"/>
<path fill="#CCB791" opacity="1.000000" stroke="none" 
	d="
M498.138580,440.107819 
	C498.083649,439.918823 498.465240,439.888184 498.652893,439.856995 
	C498.624847,439.982788 498.409180,440.139801 498.138580,440.107819 
z"/>
<path fill="#CCB791" opacity="1.000000" stroke="none" 
	d="
M517.207642,428.894409 
	C517.164185,428.717102 517.355347,428.451935 517.780151,428.096741 
	C517.823242,428.273346 517.632751,428.539948 517.207642,428.894409 
z"/>
<path fill="#CCB791" opacity="1.000000" stroke="none" 
	d="
M522.151062,423.859772 
	C522.086670,423.671783 522.276489,423.390656 522.686768,422.976013 
	C522.739929,423.150513 522.572571,423.458557 522.151062,423.859772 
z"/>
<path fill="#CCB791" opacity="1.000000" stroke="none" 
	d="
M474.129486,423.188660 
	C474.311493,423.143921 474.576538,423.337280 474.929077,423.766907 
	C474.748535,423.811035 474.480530,423.618896 474.129486,423.188660 
z"/>
<path fill="#BFBDB7" opacity="1.000000" stroke="none" 
	d="
M583.350830,379.516174 
	C583.289856,379.440582 583.515198,379.413300 583.515198,379.413300 
	C583.515198,379.413300 583.411804,379.591797 583.350830,379.516174 
z"/>
<path fill="#F9AF30" opacity="1.000000" stroke="none" 
	d="
M487.004395,304.386749 
	C491.135345,303.226654 492.735626,305.324402 493.972687,309.060211 
	C498.066895,321.423950 503.029846,333.489838 513.607971,341.881104 
	C517.429993,344.913086 522.187805,346.828339 526.659546,348.957031 
	C529.793274,350.448761 533.103882,351.661652 536.448853,352.591187 
	C539.966858,353.568817 541.407166,355.630280 541.059937,359.545929 
	C511.177979,361.000946 482.936035,334.681183 487.004395,304.386749 
z"/>
<path fill="#D5911E" opacity="1.000000" stroke="none" 
	d="
M531.293701,314.381714 
	C530.658936,303.153137 534.716003,295.767395 543.947815,292.093597 
	C550.782410,289.373718 560.650635,290.415985 566.807068,297.230133 
	C572.188477,303.186523 574.020630,313.163971 570.559692,319.927856 
	C566.290710,328.271027 557.126160,333.165283 547.960876,331.996582 
	C540.813782,331.085266 533.692505,324.091248 531.871582,316.206604 
	C531.759949,315.723602 531.575439,315.257416 531.293701,314.381714 
M542.240906,303.126892 
	C541.830688,303.942505 540.850098,305.077454 541.099854,305.523560 
	C543.215820,309.303192 541.474304,312.470184 540.332825,316.073425 
	C539.241638,319.517548 542.066650,321.787842 545.365967,321.839142 
	C547.600952,321.873840 549.858154,320.473236 550.881348,320.127838 
	C554.749512,320.658966 558.177002,322.218292 560.337891,321.169037 
	C563.513367,319.627228 563.616882,315.875397 562.341553,312.361053 
	C561.951172,311.285431 562.794617,309.823273 562.701111,308.565765 
	C562.520325,306.133087 562.797668,303.161224 561.500305,301.484222 
	C560.545105,300.249512 557.395569,300.607086 555.210083,300.459442 
	C553.078735,300.315430 550.928101,300.485382 548.789124,300.417664 
	C546.421326,300.342712 543.238220,298.278809 542.997742,303.002350 
	C542.997742,303.002350 542.963379,302.980164 542.240906,303.126892 
z"/>
<path fill="#CC8F29" opacity="1.000000" stroke="none" 
	d="
M469.370453,407.110352 
	C469.007660,406.229980 469.012726,405.527435 469.024719,404.475891 
	C469.031677,404.126923 469.066772,404.072418 469.446991,404.057861 
	C471.545410,403.489960 473.263641,402.936646 475.354065,402.271179 
	C476.499451,402.164948 477.272675,402.170868 478.302368,402.425659 
	C483.598938,403.478577 488.638977,404.282593 493.775177,405.451904 
	C494.974335,410.953644 498.385651,410.237854 502.039520,409.391388 
	C504.039032,410.518311 505.993469,411.275024 508.080078,412.310944 
	C507.364960,413.523193 506.567322,414.508789 505.654053,415.372040 
	C504.973297,416.015472 504.143005,416.500732 503.379303,417.056396 
	C502.282562,422.420410 501.185822,427.784424 499.985077,433.522949 
	C498.571777,431.969971 497.262512,430.042450 495.651489,428.029602 
	C494.985046,425.552429 494.620300,423.160645 494.449951,420.167053 
	C494.431152,418.715271 494.218018,417.865295 494.004883,417.015320 
	C493.729675,416.467133 493.454407,415.918915 492.881226,414.859314 
	C491.418701,413.578644 490.254089,412.809326 489.089478,412.040039 
	C484.225159,410.704010 479.371552,409.326721 474.490204,408.056122 
	C472.944336,407.653717 471.324371,407.536072 469.370453,407.110352 
z"/>
<path fill="#BFBDB7" opacity="1.000000" stroke="none" 
	d="
M492.017029,422.763306 
	C492.060059,425.770050 490.670166,426.573029 488.497711,425.608185 
	C482.980438,423.157837 478.892548,419.122040 476.442017,413.605682 
	C475.346161,411.138916 476.241394,409.658264 479.172302,410.196045 
	C483.147156,410.925385 485.942841,412.774200 485.266876,417.522858 
	C488.136841,418.530975 493.033020,416.603058 492.017029,422.763306 
z"/>
<path fill="#BF9448" opacity="1.000000" stroke="none" 
	d="
M488.813080,412.207306 
	C490.254089,412.809326 491.418701,413.578644 492.758789,414.577820 
	C490.962585,415.403473 488.990845,415.999176 486.339661,416.800171 
	C487.201660,415.063751 487.869171,413.719177 488.813080,412.207306 
z"/>
<path fill="#BF9448" opacity="1.000000" stroke="none" 
	d="
M493.984802,417.388733 
	C494.218018,417.865295 494.431152,418.715271 494.438202,419.773071 
	C494.142975,419.241333 494.053864,418.501770 493.984802,417.388733 
z"/>
<path fill="#D5A248" opacity="1.000000" stroke="none" 
	d="
M507.947937,412.031769 
	C505.993469,411.275024 504.039032,410.518311 502.175903,409.042175 
	C502.565063,406.863617 502.862885,405.404419 503.520782,404.141541 
	C510.916504,405.222565 517.952148,406.107269 524.987793,406.991943 
	C524.482361,407.590057 523.976929,408.188141 523.195129,408.909882 
	C522.476379,409.044830 522.034058,409.056122 520.878723,409.077698 
	C519.136963,409.135742 518.108154,409.183563 516.682129,409.165710 
	C514.199768,409.437622 512.114563,409.775238 509.706116,410.129517 
	C508.904572,410.774719 508.426270,411.403259 507.947937,412.031769 
z"/>
<path fill="#CC8F29" opacity="1.000000" stroke="none" 
	d="
M525.281372,406.848633 
	C517.952148,406.107269 510.916504,405.222565 503.371674,403.894775 
	C502.578369,402.956726 502.294220,402.461792 502.173065,401.657043 
	C503.943909,400.527496 505.551758,399.707764 507.475189,399.074280 
	C512.187927,400.187775 516.585022,401.114990 521.232300,402.293213 
	C523.326294,403.007965 525.170105,403.471710 527.013916,403.935486 
	C526.534241,404.858765 526.054565,405.782043 525.281372,406.848633 
z"/>
<path fill="#CDB282" opacity="1.000000" stroke="none" 
	d="
M527.277710,403.901611 
	C525.170105,403.471710 523.326294,403.007965 521.345764,402.013947 
	C521.500122,400.954681 521.791260,400.425659 522.411499,400.084839 
	C524.229492,400.520386 525.718262,400.767731 527.207092,401.015076 
	C527.479614,401.724731 527.752197,402.434387 528.039551,403.435120 
	C527.883362,403.773407 527.712463,403.820587 527.277710,403.901611 
z"/>
<path fill="#CE9025" opacity="1.000000" stroke="none" 
	d="
M450.977570,357.126343 
	C452.345612,351.748016 456.281769,349.093506 460.813202,350.087494 
	C465.178925,351.045074 467.709351,355.042786 467.001556,359.864075 
	C466.439331,363.693573 462.226532,366.575104 457.589447,365.981079 
	C452.749573,365.361084 451.211700,361.894135 450.977570,357.126343 
z"/>
<path fill="#BF9448" opacity="1.000000" stroke="none" 
	d="
M527.159790,400.603027 
	C525.718262,400.767731 524.229492,400.520386 522.353394,399.717163 
	C520.377625,393.227722 518.480469,387.509277 512.047974,384.949066 
	C512.040039,384.950562 512.063416,384.926605 512.063416,384.926605 
	C509.904175,383.862305 507.609070,383.000061 505.628876,381.669342 
	C504.062042,380.616364 502.881714,378.988251 501.935028,377.246735 
	C514.883118,377.474213 526.034424,388.103058 527.159790,400.603027 
z"/>
<path fill="#C1BCB0" opacity="1.000000" stroke="none" 
	d="
M502.067780,384.005829 
	C505.118408,384.332489 508.169006,384.659149 511.641541,384.956177 
	C512.063416,384.926605 512.040039,384.950562 512.060303,385.300293 
	C514.874207,389.671204 517.667725,393.692383 520.666870,398.009491 
	C515.313904,400.035309 512.336365,399.184662 510.828949,394.702759 
	C510.601807,393.684906 510.299622,392.951660 509.818207,391.932495 
	C508.268677,391.646545 506.898407,391.646545 506.483551,391.646545 
	C504.751007,389.331390 503.478271,387.630676 502.156433,385.611328 
	C502.094147,384.863770 502.080963,384.434814 502.067780,384.005829 
z"/>
<path fill="#D5A248" opacity="1.000000" stroke="none" 
	d="
M501.807434,383.835022 
	C502.080963,384.434814 502.094147,384.863770 502.102325,386.013214 
	C503.596588,389.421906 501.127686,393.981598 506.052063,395.388184 
	C506.400085,396.515564 506.723114,397.321014 507.073486,398.317017 
	C507.100861,398.507568 507.159607,398.888000 507.159607,398.888000 
	C505.551758,399.707764 503.943909,400.527496 501.841858,401.522705 
	C500.205261,401.375092 499.062836,401.052002 497.949341,400.280670 
	C498.041229,395.230682 498.104187,390.628967 498.441803,385.970459 
	C498.533691,385.262756 498.350922,384.611877 498.139465,383.598938 
	C498.125702,382.513123 498.140656,381.789368 498.155609,381.065613 
	C498.619568,381.036774 499.083557,381.007904 499.898651,380.951172 
	C500.682220,381.836945 501.114655,382.750580 501.807434,383.835022 
z"/>
<path fill="#C1BCB0" opacity="1.000000" stroke="none" 
	d="
M517.079346,409.231384 
	C518.108154,409.183563 519.136963,409.135742 520.549561,409.124786 
	C520.470642,417.459167 513.696777,424.867310 504.312256,426.791412 
	C504.303772,423.164490 503.611145,419.633789 509.085388,418.311035 
	C510.098419,418.066803 510.531738,418.084625 511.037354,418.230957 
	C511.208649,418.395691 511.307648,418.431885 511.406677,418.468109 
	C511.306030,418.299805 511.205383,418.131470 511.091370,417.593140 
	C511.056549,416.482880 511.035065,415.742645 511.275146,414.783661 
	C513.384216,412.787048 515.231812,411.009216 517.079346,409.231384 
z"/>
<path fill="#CDB282" opacity="1.000000" stroke="none" 
	d="
M511.013611,415.002441 
	C511.035065,415.742645 511.056549,416.482880 511.049316,417.620819 
	C511.020660,418.018555 510.965057,418.102448 510.965057,418.102417 
	C510.531738,418.084625 510.098419,418.066803 509.340271,418.044128 
	C507.380981,417.700775 505.746582,417.362213 503.745728,417.040039 
	C504.143005,416.500732 504.973297,416.015472 505.654053,415.372040 
	C506.567322,414.508789 507.364960,413.523193 508.080078,412.310944 
	C508.426270,411.403259 508.904572,410.774719 509.697632,410.504517 
	C510.346100,412.242676 510.679871,413.622559 511.013611,415.002441 
z"/>
<path fill="#BF9448" opacity="1.000000" stroke="none" 
	d="
M469.271027,401.038177 
	C469.977264,388.785126 483.869781,375.818604 494.781982,378.161072 
	C494.958771,379.663666 494.897919,380.454620 494.474731,381.237793 
	C484.377838,383.578583 476.677979,388.152588 474.430359,399.188232 
	C472.532593,399.942535 470.901825,400.490356 469.271027,401.038177 
z"/>
<path fill="#CC8F27" opacity="1.000000" stroke="none" 
	d="
M494.837036,381.245605 
	C494.897919,380.454620 494.958771,379.663666 495.013214,378.477478 
	C495.476624,377.793945 495.946472,377.505615 496.648163,377.067993 
	C497.272400,378.047455 497.664825,379.176239 498.106445,380.685303 
	C498.140656,381.789368 498.125702,382.513123 498.096619,383.942688 
	C498.110748,385.108063 498.138947,385.567627 498.167145,386.027222 
	C498.104187,390.628967 498.041229,395.230682 497.604919,400.356628 
	C496.537964,400.993286 495.844360,401.105804 494.814575,401.020996 
	C493.992737,398.882477 493.507080,396.941315 493.244904,394.670807 
	C493.924591,389.976196 494.380829,385.610901 494.837036,381.245605 
z"/>
<path fill="#D5A248" opacity="1.000000" stroke="none" 
	d="
M469.305847,401.295197 
	C470.901825,400.490356 472.532593,399.942535 474.520752,399.603790 
	C474.912689,400.669678 474.947266,401.526520 474.981873,402.383301 
	C473.263641,402.936646 471.545410,403.489960 469.477417,404.046692 
	C469.198669,403.217468 469.269653,402.384827 469.305847,401.295197 
z"/>
<path fill="#CE9025" opacity="1.000000" stroke="none" 
	d="
M594.342651,342.704437 
	C590.188599,343.577240 586.819946,342.402802 586.328430,338.563324 
	C586.044922,336.349274 587.673889,332.797546 589.524719,331.736786 
	C591.105469,330.830811 595.073486,331.883972 596.425781,333.432587 
	C597.670959,334.858521 597.010559,338.112427 596.816467,340.531158 
	C596.758301,341.255585 595.446655,341.879364 594.342651,342.704437 
z"/>
<path fill="#CF922A" opacity="1.000000" stroke="none" 
	d="
M542.980591,302.968201 
	C543.238220,298.278809 546.421326,300.342712 548.789124,300.417664 
	C550.928101,300.485382 553.078735,300.315430 555.210083,300.459442 
	C557.395569,300.607086 560.545105,300.249512 561.500305,301.484222 
	C562.797668,303.161224 562.520325,306.133087 562.701111,308.565765 
	C562.794617,309.823273 561.951172,311.285431 562.341553,312.361053 
	C563.616882,315.875397 563.513367,319.627228 560.337891,321.169037 
	C558.177002,322.218292 554.749512,320.658966 550.881348,320.127838 
	C549.858154,320.473236 547.600952,321.873840 545.365967,321.839142 
	C542.066650,321.787842 539.241638,319.517548 540.332825,316.073425 
	C541.474304,312.470184 543.215820,309.303192 541.099854,305.523560 
	C540.850098,305.077454 541.830688,303.942505 542.602783,303.457855 
	C542.825134,306.548767 543.727905,308.594818 546.863342,307.761505 
	C547.786865,307.516083 549.012573,305.440552 548.811340,304.471130 
	C548.130493,301.190796 545.777466,301.677582 543.441895,302.788940 
	C543.293335,302.859619 543.134583,302.908936 542.980591,302.968201 
M543.645752,319.085846 
	C545.256165,318.968170 546.944275,319.075745 548.419617,318.566620 
	C548.767212,318.446686 548.881104,315.697479 548.242432,315.135895 
	C547.315369,314.320709 544.878967,313.712402 544.388428,314.235931 
	C543.468018,315.218292 543.480347,317.074554 543.645752,319.085846 
M560.670288,317.250458 
	C560.304260,314.175140 558.450989,313.175812 555.872131,314.486176 
	C555.092163,314.882477 554.454529,317.338806 554.936890,318.116577 
	C556.597107,320.793671 558.647034,320.320435 560.670288,317.250458 
M555.041199,303.369293 
	C555.356873,304.732819 555.428284,306.244629 556.118103,307.381012 
	C556.365967,307.789337 558.631897,307.679962 559.039551,307.122009 
	C559.687927,306.234711 560.052063,303.958832 559.648987,303.710358 
	C558.537903,303.025665 556.966614,303.087921 555.041199,303.369293 
z"/>
<path fill="#C1BCB0" opacity="1.000000" stroke="none" 
	d="
M475.354065,402.271179 
	C474.947266,401.526520 474.912689,400.669678 474.787720,399.397278 
	C476.677979,388.152588 484.377838,383.578583 494.474731,381.237793 
	C494.380829,385.610901 493.924591,389.976196 492.889435,394.621094 
	C489.865509,393.789154 487.420532,392.677551 484.603516,391.396820 
	C485.915466,394.221130 487.037598,396.636780 488.320251,399.398010 
	C484.470734,400.439148 481.258331,401.307983 478.045898,402.176819 
	C477.272675,402.170868 476.499451,402.164948 475.354065,402.271179 
z"/>
<path fill="#D5A248" opacity="1.000000" stroke="none" 
	d="
M478.302368,402.425659 
	C481.258331,401.307983 484.470734,400.439148 488.320251,399.398010 
	C487.037598,396.636780 485.915466,394.221130 484.603516,391.396820 
	C487.420532,392.677551 489.865509,393.789154 492.665955,394.950439 
	C493.507080,396.941315 493.992737,398.882477 494.720520,401.346313 
	C494.534790,402.941528 494.106934,404.014069 493.679077,405.086609 
	C488.638977,404.282593 483.598938,403.478577 478.302368,402.425659 
z"/>
<path fill="#CCB791" opacity="1.000000" stroke="none" 
	d="
M493.775208,405.451904 
	C494.106934,404.014069 494.534790,402.941528 495.056702,401.543640 
	C495.844360,401.105804 496.537964,400.993286 497.575989,400.804871 
	C499.062836,401.052002 500.205261,401.375092 501.678894,401.832489 
	C502.294220,402.461792 502.578369,402.956726 503.011597,403.698456 
	C502.862885,405.404419 502.565063,406.863617 502.130859,408.671997 
	C498.385651,410.237854 494.974335,410.953644 493.775208,405.451904 
z"/>
<path fill="#CCB791" opacity="1.000000" stroke="none" 
	d="
M511.275146,414.783661 
	C510.679871,413.622559 510.346100,412.242676 510.020813,410.487823 
	C512.114563,409.775238 514.199768,409.437622 516.682129,409.165710 
	C515.231812,411.009216 513.384216,412.787048 511.275146,414.783661 
z"/>
<path fill="#CCB791" opacity="1.000000" stroke="none" 
	d="
M507.475189,399.074280 
	C507.159607,398.888000 507.100861,398.507568 507.292114,398.248535 
	C507.483337,397.989471 507.918213,397.844086 508.191040,397.729462 
	C509.227234,396.739014 509.990570,395.863220 510.753906,394.987427 
	C512.336365,399.184662 515.313904,400.035309 520.666870,398.009491 
	C517.667725,393.692383 514.874207,389.671204 512.068237,385.298798 
	C518.480469,387.509277 520.377625,393.227722 522.024292,399.528992 
	C521.791260,400.425659 521.500122,400.954681 521.095581,401.762939 
	C516.585022,401.114990 512.187927,400.187775 507.475189,399.074280 
z"/>
<path fill="#CCB791" opacity="1.000000" stroke="none" 
	d="
M506.027100,395.066284 
	C501.127686,393.981598 503.596588,389.421906 502.151428,386.331787 
	C503.478271,387.630676 504.751007,389.331390 506.483551,391.646545 
	C506.898407,391.646545 508.268677,391.646545 509.646362,392.155151 
	C509.102295,393.159821 508.550842,393.655853 507.708679,394.147400 
	C506.954346,394.450653 506.490692,394.758453 506.027100,395.066284 
z"/>
<path fill="#D5A248" opacity="1.000000" stroke="none" 
	d="
M507.999390,394.151855 
	C508.550842,393.655853 509.102295,393.159821 509.825592,392.441101 
	C510.299622,392.951660 510.601807,393.684906 510.828918,394.702759 
	C509.990570,395.863220 509.227234,396.739014 508.209381,397.362030 
	C507.969696,396.123444 507.984528,395.137634 507.999390,394.151855 
z"/>
<path fill="#CC8F29" opacity="1.000000" stroke="none" 
	d="
M507.708679,394.147369 
	C507.984528,395.137634 507.969696,396.123444 507.936523,397.476654 
	C507.918213,397.844086 507.483337,397.989471 507.264740,398.057983 
	C506.723114,397.321014 506.400085,396.515564 506.052063,395.388184 
	C506.490692,394.758453 506.954346,394.450653 507.708679,394.147369 
z"/>
<path fill="#BF9448" opacity="1.000000" stroke="none" 
	d="
M498.441803,385.970459 
	C498.138947,385.567627 498.110748,385.108063 498.125336,384.304718 
	C498.350922,384.611877 498.533691,385.262756 498.441803,385.970459 
z"/>
<path fill="#CCB791" opacity="1.000000" stroke="none" 
	d="
M511.062683,417.990845 
	C511.205383,418.131470 511.306030,418.299805 511.406677,418.468109 
	C511.307648,418.431885 511.208649,418.395691 511.037354,418.230957 
	C510.965057,418.102448 511.020660,418.018555 511.062683,417.990845 
z"/>
<path fill="#CDB282" opacity="1.000000" stroke="none" 
	d="
M543.375244,318.826599 
	C543.480347,317.074554 543.468018,315.218292 544.388428,314.235931 
	C544.878967,313.712402 547.315369,314.320709 548.242432,315.135895 
	C548.881104,315.697479 548.767212,318.446686 548.419617,318.566620 
	C546.944275,319.075745 545.256165,318.968170 543.375244,318.826599 
z"/>
<path fill="#CDB282" opacity="1.000000" stroke="none" 
	d="
M542.989136,302.985291 
	C543.134583,302.908936 543.293335,302.859619 543.441895,302.788940 
	C545.777466,301.677582 548.130493,301.190796 548.811340,304.471130 
	C549.012573,305.440552 547.786865,307.516083 546.863342,307.761505 
	C543.727905,308.594818 542.825134,306.548767 542.963989,303.384491 
	C542.963379,302.980164 542.997742,303.002350 542.989136,302.985291 
z"/>
<path fill="#CDB282" opacity="1.000000" stroke="none" 
	d="
M560.535034,317.589081 
	C558.647034,320.320435 556.597107,320.793671 554.936890,318.116577 
	C554.454529,317.338806 555.092163,314.882477 555.872131,314.486176 
	C558.450989,313.175812 560.304260,314.175140 560.535034,317.589081 
z"/>
<path fill="#CDB282" opacity="1.000000" stroke="none" 
	d="
M555.309265,303.112000 
	C556.966614,303.087921 558.537903,303.025665 559.648987,303.710358 
	C560.052063,303.958832 559.687927,306.234711 559.039551,307.122009 
	C558.631897,307.679962 556.365967,307.789337 556.118103,307.381012 
	C555.428284,306.244629 555.356873,304.732819 555.309265,303.112000 
z"/>
</svg>