<?xml version="1.0" encoding="utf-8"?>
<svg version="1.1" id="Layer_1" x="0px" y="0px" viewBox="0 0 776.6 699" style="enable-background:new 0 0 776.6 699;" xmlns="http://www.w3.org/2000/svg">
  <defs/>
  <style type="text/css">
	.st0{fill:#BFBFBF;}
	.st1{font-family:'ArialMT';}
	.st2{font-size:12px;}
	.st3{fill:#35A749;}
	.st4{fill:#979694;}
	.st5{fill:#FFFFFF;}
</style>
  <path class="st0" d="M331.3,481.5c-3.2,0-5.8,1.1-7.9,3.3c-2.1,2.2-3.3,5.5-3.7,9.8H343c-0.3-4.4-1.5-7.7-3.6-9.9&#10;&#9;&#9;C337.4,482.6,334.7,481.5,331.3,481.5z"/>
  <path class="st0" d="M546.1,503c-1.4,0.4-2.7,1.1-4,2.1c-1.3,1.1-1.9,2.5-1.9,4.4c0,1.9,0.7,3.6,2.2,5c1.5,1.4,3.4,2,5.8,2&#10;&#9;&#9;c2.5,0,4.9-0.6,7-1.7c2.1-1.1,3.7-2.5,4.7-4.3c1.2-1.9,1.7-5.1,1.7-9.6v-1.8c-1.9,0.7-4.6,1.4-8.2,2.2&#10;&#9;&#9;C549.9,502,547.4,502.6,546.1,503z"/>
  <path class="st0" d="M 732.8 470.3 C 722.2 399.5 696.2 345.6 728.1 226.3 C 751.6 138.4 663.4 46.5 561.6 58.4 C 487 67.1 438.6 68.5 326.8 42.9 C 217.6 17.9 222.9 86.2 140 107.5 C 64.4 127 32.7 189.4 43.5 258 C 53 317.9 75.3 388 76.8 446.6 C 78.3 505.2 63.5 580.3 137.3 618 C 211.1 655.6 271.6 621.8 386.2 643.3 C 446.3 654.5 548.3 677.8 642.9 629.2 C 756.7 570.6 740.3 520.3 732.8 470.3 Z"/>
  <text transform="matrix(1 0 0 1 0 -6.728313e-06)" class="st1 st2" style="white-space: pre;"> </text>
  <text transform="matrix(1 0 0 1 0 -6.728313e-06)" class="st1 st2" style="white-space: pre;"> </text>
  <title>server down</title>
  <path class="st0" d="M244.1,154.6L244.1,154.6c0.1,0,0.2-0.1,0.2-0.1l-0.1-0.1C244.2,154.5,244.1,154.5,244.1,154.6z"/>
  <path class="st4" d="M113,308.1c0.3,0.2,0.5,0,0.8-0.1c0.3,0.9,0.1,1.7,0.1,2.6c-0.1,5.1-0.1,10.2,0,15.3c0,0.8,0.1,1.6-0.1,2.4&#10;&#9;c-0.3,0-0.5-0.3-0.8-0.1C113,321.5,113,314.8,113,308.1z"/>
  <path class="st4" d="M397.9,18.4c0-0.2,0-0.3,0-0.5c3.5,0,7,0,10.6,0C404.9,18.5,401.4,18.5,397.9,18.4z"/>
  <path class="st4" d="M428.6,18.4c-3.5,0.1-7.1,0.2-10.6-0.5c3.5,0,7,0,10.6,0C428.6,18,428.6,18.2,428.6,18.4z"/>
  <path class="st5" d="M113,328.2c0.3-0.2,0.6,0,0.8,0.1c0,1.1,0.1,2.2,0,3.3c-0.1,0.6-0.5,0.3-0.8,0C113,330.4,113,329.3,113,328.2z"/>
  <path d="M 253.089 400.486 L 253.089 367.514 L 265.311 367.514 C 267.814 367.514 269.915 367.986 271.613 368.931 C 273.321 369.875 274.61 371.174 275.48 372.827 C 276.36 374.469 276.8 376.337 276.8 378.429 C 276.8 380.544 276.36 382.422 275.48 384.064 C 274.599 385.706 273.299 387 271.581 387.944 C 269.862 388.878 267.745 389.345 265.231 389.345 L 257.131 389.345 L 257.131 384.435 L 264.435 384.435 C 265.9 384.435 267.098 384.177 268.032 383.662 C 268.966 383.147 269.655 382.438 270.101 381.537 C 270.557 380.635 270.785 379.599 270.785 378.429 C 270.785 377.26 270.557 376.229 270.101 375.338 C 269.655 374.448 268.96 373.755 268.016 373.262 C 267.082 372.757 265.878 372.505 264.404 372.505 L 258.993 372.505 L 258.993 400.486 L 253.089 400.486 Z" fill="black"/>
  <path d="M 280.33 400.486 L 280.33 375.757 L 285.915 375.757 L 285.915 379.878 L 286.17 379.878 C 286.615 378.451 287.379 377.351 288.461 376.578 C 289.554 375.795 290.801 375.403 292.201 375.403 C 292.519 375.403 292.875 375.419 293.267 375.451 C 293.671 375.473 294.005 375.51 294.27 375.564 L 294.27 380.925 C 294.026 380.839 293.639 380.764 293.108 380.699 C 292.588 380.624 292.084 380.587 291.596 380.587 C 290.546 380.587 289.602 380.818 288.764 381.279 C 287.936 381.73 287.284 382.358 286.806 383.163 C 286.329 383.968 286.09 384.896 286.09 385.948 L 286.09 400.486 L 280.33 400.486 Z" fill="black"/>
  <path d="M 306.408 400.969 C 304.021 400.969 301.953 400.437 300.202 399.375 C 298.452 398.312 297.094 396.826 296.128 394.915 C 295.173 393.005 294.696 390.772 294.696 388.218 C 294.696 385.663 295.173 383.426 296.128 381.504 C 297.094 379.583 298.452 378.091 300.202 377.029 C 301.953 375.966 304.021 375.435 306.408 375.435 C 308.795 375.435 310.864 375.966 312.615 377.029 C 314.365 378.091 315.718 379.583 316.673 381.504 C 317.638 383.426 318.121 385.663 318.121 388.218 C 318.121 390.772 317.638 393.005 316.673 394.915 C 315.718 396.826 314.365 398.312 312.615 399.375 C 310.864 400.437 308.795 400.969 306.408 400.969 Z M 306.44 396.3 C 307.735 396.3 308.817 395.94 309.687 395.221 C 310.557 394.491 311.204 393.515 311.628 392.291 C 312.063 391.067 312.281 389.704 312.281 388.202 C 312.281 386.688 312.063 385.32 311.628 384.096 C 311.204 382.862 310.557 381.88 309.687 381.15 C 308.817 380.42 307.735 380.056 306.44 380.056 C 305.114 380.056 304.011 380.42 303.13 381.15 C 302.26 381.88 301.608 382.862 301.173 384.096 C 300.748 385.32 300.536 386.688 300.536 388.202 C 300.536 389.704 300.748 391.067 301.173 392.291 C 301.608 393.515 302.26 394.491 303.13 395.221 C 304.011 395.94 305.114 396.3 306.44 396.3 Z" fill="black"/>
  <path d="M 330.737 400.92 C 328.816 400.92 327.098 400.421 325.581 399.423 C 324.064 398.425 322.865 396.976 321.984 395.076 C 321.104 393.176 320.663 390.869 320.663 388.154 C 320.663 385.406 321.109 383.088 322 381.199 C 322.902 379.299 324.117 377.866 325.644 376.9 C 327.172 375.923 328.875 375.435 330.753 375.435 C 332.185 375.435 333.362 375.682 334.285 376.176 C 335.208 376.659 335.941 377.244 336.482 377.93 C 337.023 378.607 337.442 379.245 337.739 379.846 L 337.977 379.846 L 337.977 367.514 L 343.754 367.514 L 343.754 400.486 L 338.089 400.486 L 338.089 396.59 L 337.739 396.59 C 337.442 397.191 337.012 397.829 336.45 398.505 C 335.887 399.171 335.145 399.74 334.222 400.212 C 333.299 400.684 332.137 400.92 330.737 400.92 Z M 332.344 396.139 C 333.564 396.139 334.604 395.806 335.463 395.141 C 336.322 394.464 336.975 393.525 337.42 392.323 C 337.866 391.121 338.089 389.721 338.089 388.121 C 338.089 386.522 337.866 385.132 337.42 383.952 C 336.986 382.771 336.338 381.853 335.479 381.199 C 334.63 380.544 333.585 380.217 332.344 380.217 C 331.06 380.217 329.989 380.555 329.129 381.231 C 328.27 381.907 327.623 382.841 327.188 384.032 C 326.753 385.223 326.536 386.586 326.536 388.121 C 326.536 389.667 326.753 391.046 327.188 392.259 C 327.634 393.461 328.286 394.411 329.145 395.108 C 330.015 395.795 331.082 396.139 332.344 396.139 Z" fill="black"/>
  <path d="M 364.128 390.085 L 364.128 375.757 L 369.889 375.757 L 369.889 400.486 L 364.303 400.486 L 364.303 396.09 L 364.048 396.09 C 363.497 397.475 362.59 398.607 361.327 399.487 C 360.075 400.368 358.532 400.808 356.696 400.808 C 355.094 400.808 353.678 400.448 352.447 399.729 C 351.227 398.999 350.272 397.942 349.583 396.557 C 348.893 395.162 348.548 393.477 348.548 391.502 L 348.548 375.757 L 354.309 375.757 L 354.309 390.601 C 354.309 392.168 354.734 393.413 355.582 394.336 C 356.431 395.259 357.545 395.72 358.924 395.72 C 359.773 395.72 360.595 395.511 361.391 395.092 C 362.186 394.674 362.839 394.051 363.348 393.225 C 363.868 392.388 364.128 391.341 364.128 390.085 Z" fill="black"/>
  <path d="M 385.13 400.969 C 382.69 400.969 380.595 400.427 378.844 399.343 C 377.105 398.259 375.762 396.761 374.818 394.851 C 373.885 392.93 373.418 390.719 373.418 388.218 C 373.418 385.706 373.895 383.49 374.85 381.569 C 375.805 379.637 377.152 378.134 378.892 377.061 C 380.643 375.977 382.711 375.435 385.098 375.435 C 387.082 375.435 388.838 375.805 390.366 376.546 C 391.904 377.276 393.13 378.311 394.042 379.653 C 394.954 380.984 395.474 382.54 395.602 384.322 L 390.095 384.322 C 389.873 383.131 389.342 382.138 388.504 381.343 C 387.677 380.539 386.568 380.136 385.178 380.136 C 384 380.136 382.966 380.458 382.075 381.102 C 381.184 381.735 380.489 382.648 379.99 383.839 C 379.502 385.03 379.258 386.458 379.258 388.121 C 379.258 389.806 379.502 391.255 379.99 392.468 C 380.478 393.67 381.163 394.599 382.043 395.253 C 382.934 395.897 383.979 396.219 385.178 396.219 C 386.027 396.219 386.785 396.058 387.454 395.736 C 388.133 395.404 388.7 394.926 389.156 394.303 C 389.613 393.681 389.926 392.924 390.095 392.033 L 395.602 392.033 C 395.464 393.783 394.954 395.334 394.074 396.686 C 393.193 398.028 391.994 399.08 390.477 399.842 C 388.96 400.593 387.178 400.969 385.13 400.969 Z" fill="black"/>
  <path d="M 411.193 375.757 L 411.193 380.265 L 397.141 380.265 L 397.141 375.757 L 411.193 375.757 Z M 400.611 369.832 L 406.371 369.832 L 406.371 393.048 C 406.371 393.831 406.488 394.432 406.722 394.851 C 406.966 395.259 407.284 395.538 407.676 395.688 C 408.069 395.838 408.504 395.913 408.981 395.913 C 409.342 395.913 409.671 395.887 409.968 395.833 C 410.276 395.779 410.509 395.731 410.668 395.688 L 411.639 400.244 C 411.331 400.351 410.891 400.47 410.318 400.598 C 409.756 400.727 409.066 400.802 408.249 400.824 C 406.806 400.867 405.507 400.647 404.35 400.164 C 403.194 399.67 402.276 398.908 401.597 397.878 C 400.929 396.847 400.6 395.559 400.611 394.014 L 400.611 369.832 Z" fill="black"/>
  <path d="M 435.1 400.969 C 432.713 400.969 430.644 400.437 428.894 399.375 C 427.143 398.312 425.785 396.826 424.82 394.915 C 423.865 393.005 423.388 390.772 423.388 388.218 C 423.388 385.663 423.865 383.426 424.82 381.504 C 425.785 379.583 427.143 378.091 428.894 377.029 C 430.644 375.966 432.713 375.435 435.1 375.435 C 437.487 375.435 439.556 375.966 441.307 377.029 C 443.057 378.091 444.41 379.583 445.365 381.504 C 446.33 383.426 446.813 385.663 446.813 388.218 C 446.813 390.772 446.33 393.005 445.365 394.915 C 444.41 396.826 443.057 398.312 441.307 399.375 C 439.556 400.437 437.487 400.969 435.1 400.969 Z M 435.132 396.3 C 436.426 396.3 437.508 395.94 438.378 395.221 C 439.248 394.491 439.896 393.515 440.32 392.291 C 440.755 391.067 440.972 389.704 440.972 388.202 C 440.972 386.688 440.755 385.32 440.32 384.096 C 439.896 382.862 439.248 381.88 438.378 381.15 C 437.508 380.42 436.426 380.056 435.132 380.056 C 433.806 380.056 432.703 380.42 431.822 381.15 C 430.952 381.88 430.3 382.862 429.865 384.096 C 429.44 385.32 429.228 386.688 429.228 388.202 C 429.228 389.704 429.44 391.067 429.865 392.291 C 430.3 393.515 430.952 394.491 431.822 395.221 C 432.703 395.94 433.806 396.3 435.132 396.3 Z" fill="black"/>
  <path d="M 462.739 375.757 L 462.739 380.265 L 448.289 380.265 L 448.289 375.757 L 462.739 375.757 Z M 451.901 400.486 L 451.901 373.423 C 451.901 371.759 452.241 370.374 452.92 369.269 C 453.609 368.163 454.532 367.337 455.689 366.79 C 456.845 366.242 458.129 365.969 459.54 365.969 C 460.537 365.969 461.423 366.049 462.198 366.21 C 462.972 366.371 463.545 366.516 463.916 366.645 L 462.77 371.153 C 462.526 371.077 462.219 371.002 461.847 370.927 C 461.476 370.841 461.062 370.798 460.606 370.798 C 459.535 370.798 458.776 371.061 458.33 371.587 C 457.896 372.102 457.678 372.843 457.678 373.809 L 457.678 400.486 L 451.901 400.486 Z" fill="black"/>
  <path d="M 475.184 400.486 L 475.184 367.514 L 497.908 367.514 L 497.908 373.986 L 483.061 373.986 L 483.061 380.748 L 496.747 380.748 L 496.747 387.236 L 483.061 387.236 L 483.061 394.014 L 497.908 394.014 L 497.908 400.486 L 475.184 400.486 Z" fill="black"/>
  <path d="M 515.294 375.757 L 515.294 381.553 L 499.874 381.553 L 499.874 375.757 L 515.294 375.757 Z M 503.105 369.832 L 510.886 369.832 L 510.886 392.71 C 510.886 393.193 510.961 393.584 511.109 393.885 C 511.268 394.175 511.496 394.384 511.793 394.513 C 512.09 394.631 512.446 394.69 512.86 394.69 C 513.157 394.69 513.47 394.663 513.799 394.609 C 514.138 394.545 514.393 394.491 514.562 394.448 L 515.74 400.131 C 515.369 400.239 514.844 400.373 514.165 400.534 C 513.496 400.695 512.695 400.797 511.762 400.84 C 509.937 400.926 508.372 400.711 507.067 400.196 C 505.773 399.67 504.781 398.854 504.091 397.749 C 503.412 396.643 503.083 395.253 503.105 393.579 L 503.105 369.832 Z" fill="black"/>
  <path d="M 526.227 386.383 L 526.227 400.486 L 518.446 400.486 L 518.446 367.514 L 525.973 367.514 L 525.973 380.297 L 526.243 380.297 C 526.795 378.773 527.697 377.582 528.949 376.723 C 530.211 375.864 531.755 375.435 533.58 375.435 C 535.298 375.435 536.794 375.821 538.067 376.594 C 539.34 377.356 540.327 378.435 541.027 379.83 C 541.738 381.225 542.088 382.857 542.077 384.724 L 542.077 400.486 L 534.296 400.486 L 534.296 386.27 C 534.306 384.896 533.967 383.823 533.277 383.05 C 532.588 382.277 531.617 381.891 530.365 381.891 C 529.548 381.891 528.827 382.073 528.201 382.438 C 527.585 382.792 527.103 383.302 526.753 383.968 C 526.413 384.633 526.238 385.438 526.227 386.383 Z" fill="black"/>
  <path d="M 557.017 400.952 C 554.46 400.952 552.253 400.443 550.397 399.423 C 548.551 398.393 547.129 396.928 546.132 395.028 C 545.145 393.117 544.652 390.847 544.652 388.218 C 544.652 385.663 545.15 383.431 546.148 381.521 C 547.145 379.599 548.551 378.108 550.365 377.045 C 552.179 375.972 554.317 375.435 556.778 375.435 C 558.518 375.435 560.109 375.709 561.552 376.256 C 562.995 376.803 564.242 377.614 565.292 378.687 C 566.342 379.76 567.159 381.086 567.743 382.664 C 568.326 384.231 568.618 386.028 568.618 388.057 L 568.618 390.021 L 547.373 390.021 L 547.373 385.449 L 561.377 385.449 C 561.366 384.612 561.17 383.866 560.788 383.211 C 560.406 382.556 559.881 382.046 559.213 381.682 C 558.555 381.306 557.797 381.118 556.937 381.118 C 556.067 381.118 555.287 381.317 554.598 381.714 C 553.908 382.1 553.362 382.631 552.959 383.308 C 552.556 383.973 552.343 384.73 552.322 385.578 L 552.322 390.23 C 552.322 391.239 552.518 392.125 552.911 392.887 C 553.304 393.638 553.861 394.223 554.582 394.642 C 555.303 395.06 556.163 395.269 557.16 395.269 C 557.85 395.269 558.476 395.173 559.038 394.98 C 559.6 394.786 560.083 394.502 560.486 394.126 C 560.889 393.751 561.191 393.289 561.393 392.742 L 568.538 392.951 C 568.241 394.572 567.589 395.983 566.581 397.185 C 565.584 398.377 564.273 399.305 562.65 399.97 C 561.027 400.625 559.149 400.952 557.017 400.952 Z" fill="black"/>
  <path d="M 571.248 400.486 L 571.248 375.757 L 578.807 375.757 L 578.807 380.265 L 579.062 380.265 C 579.507 378.633 580.234 377.421 581.242 376.626 C 582.25 375.821 583.422 375.419 584.759 375.419 C 585.119 375.419 585.491 375.446 585.873 375.499 C 586.254 375.542 586.61 375.612 586.939 375.709 L 586.939 382.551 C 586.567 382.422 586.079 382.32 585.475 382.245 C 584.881 382.17 584.35 382.132 583.883 382.132 C 582.96 382.132 582.128 382.342 581.385 382.76 C 580.653 383.168 580.075 383.742 579.65 384.483 C 579.237 385.213 579.03 386.071 579.03 387.059 L 579.03 400.486 L 571.248 400.486 Z" fill="black"/>
  <path d="M 610.105 383.308 L 602.96 383.501 C 602.886 382.986 602.684 382.529 602.355 382.132 C 602.027 381.724 601.597 381.408 601.066 381.182 C 600.547 380.946 599.942 380.828 599.252 380.828 C 598.351 380.828 597.581 381.011 596.945 381.376 C 596.319 381.741 596.011 382.234 596.022 382.857 C 596.011 383.34 596.202 383.758 596.595 384.113 C 596.998 384.467 597.714 384.751 598.743 384.966 L 603.454 385.867 C 605.894 386.34 607.708 387.123 608.896 388.218 C 610.095 389.313 610.7 390.762 610.71 392.565 C 610.7 394.261 610.201 395.736 609.214 396.992 C 608.238 398.248 606.901 399.224 605.204 399.922 C 603.507 400.609 601.565 400.952 599.38 400.952 C 595.889 400.952 593.136 400.228 591.12 398.779 C 589.115 397.319 587.97 395.366 587.683 392.919 L 595.369 392.726 C 595.539 393.627 595.979 394.314 596.69 394.786 C 597.401 395.259 598.308 395.495 599.411 395.495 C 600.409 395.495 601.22 395.307 601.846 394.931 C 602.472 394.556 602.79 394.057 602.801 393.434 C 602.79 392.876 602.546 392.431 602.069 392.098 C 601.592 391.754 600.844 391.486 599.825 391.293 L 595.56 390.472 C 593.11 390.021 591.285 389.189 590.086 387.976 C 588.887 386.753 588.293 385.197 588.304 383.308 C 588.293 381.655 588.728 380.243 589.609 379.073 C 590.489 377.893 591.741 376.991 593.364 376.369 C 594.987 375.746 596.902 375.435 599.109 375.435 C 602.419 375.435 605.029 376.138 606.939 377.544 C 608.848 378.939 609.904 380.86 610.105 383.308 Z" fill="black"/>
  <path d="M 624.607 400.952 C 622.029 400.952 619.817 400.416 617.971 399.343 C 616.136 398.269 614.725 396.777 613.738 394.867 C 612.751 392.946 612.258 390.724 612.258 388.202 C 612.258 385.669 612.751 383.447 613.738 381.537 C 614.735 379.615 616.152 378.118 617.987 377.045 C 619.833 375.972 622.034 375.435 624.591 375.435 C 626.851 375.435 628.819 375.848 630.495 376.675 C 632.182 377.501 633.497 378.671 634.442 380.184 C 635.397 381.687 635.9 383.452 635.953 385.481 L 628.681 385.481 C 628.532 384.215 628.108 383.222 627.408 382.503 C 626.718 381.784 625.817 381.424 624.703 381.424 C 623.801 381.424 623.01 381.682 622.331 382.197 C 621.652 382.701 621.122 383.452 620.74 384.451 C 620.369 385.438 620.183 386.662 620.183 388.121 C 620.183 389.581 620.369 390.815 620.74 391.824 C 621.122 392.822 621.652 393.579 622.331 394.094 C 623.01 394.599 623.801 394.851 624.703 394.851 C 625.424 394.851 626.061 394.695 626.612 394.384 C 627.174 394.073 627.636 393.617 627.997 393.016 C 628.357 392.404 628.585 391.663 628.681 390.794 L 635.953 390.794 C 635.879 392.833 635.375 394.615 634.442 396.139 C 633.519 397.663 632.219 398.849 630.543 399.697 C 628.877 400.534 626.899 400.952 624.607 400.952 Z" fill="black"/>
  <path d="M 645.482 400.904 C 643.923 400.904 642.538 400.641 641.329 400.115 C 640.13 399.579 639.18 398.774 638.48 397.7 C 637.791 396.616 637.446 395.259 637.446 393.627 C 637.446 392.253 637.684 391.094 638.162 390.15 C 638.639 389.205 639.297 388.438 640.135 387.848 C 640.973 387.257 641.939 386.812 643.031 386.511 C 644.124 386.2 645.291 385.991 646.532 385.883 C 647.922 385.755 649.041 385.621 649.89 385.481 C 650.739 385.331 651.354 385.121 651.736 384.853 C 652.129 384.574 652.325 384.182 652.325 383.678 L 652.325 383.597 C 652.325 382.771 652.044 382.132 651.482 381.682 C 650.919 381.231 650.161 381.005 649.206 381.005 C 648.177 381.005 647.349 381.231 646.723 381.682 C 646.097 382.132 645.7 382.755 645.53 383.549 L 638.353 383.291 C 638.565 381.789 639.111 380.447 639.992 379.267 C 640.883 378.075 642.103 377.142 643.652 376.465 C 645.212 375.778 647.084 375.435 649.27 375.435 C 650.829 375.435 652.267 375.623 653.582 375.998 C 654.898 376.363 656.044 376.9 657.02 377.608 C 657.996 378.306 658.749 379.165 659.279 380.184 C 659.82 381.204 660.091 382.368 660.091 383.678 L 660.091 400.486 L 652.771 400.486 L 652.771 397.04 L 652.58 397.04 C 652.145 397.878 651.588 398.586 650.909 399.165 C 650.24 399.745 649.45 400.18 648.538 400.47 C 647.636 400.759 646.617 400.904 645.482 400.904 Z M 647.885 395.752 C 648.723 395.752 649.476 395.581 650.145 395.237 C 650.824 394.894 651.365 394.422 651.768 393.82 C 652.171 393.209 652.373 392.5 652.373 391.695 L 652.373 389.345 C 652.15 389.463 651.879 389.57 651.561 389.667 C 651.253 389.763 650.914 389.855 650.543 389.941 C 650.171 390.026 649.789 390.102 649.397 390.166 C 649.004 390.23 648.628 390.289 648.267 390.343 C 647.535 390.461 646.909 390.644 646.389 390.89 C 645.88 391.137 645.487 391.459 645.212 391.856 C 644.946 392.243 644.814 392.704 644.814 393.241 C 644.814 394.057 645.1 394.679 645.673 395.108 C 646.257 395.538 646.994 395.752 647.885 395.752 Z" fill="black"/>
  <path d="M 671.286 386.383 L 671.286 400.486 L 663.505 400.486 L 663.505 375.757 L 670.905 375.757 L 670.905 380.297 L 671.175 380.297 C 671.716 378.784 672.639 377.598 673.944 376.739 C 675.249 375.87 676.803 375.435 678.607 375.435 C 680.325 375.435 681.816 375.827 683.079 376.61 C 684.352 377.383 685.338 378.467 686.038 379.862 C 686.749 381.247 687.099 382.868 687.089 384.724 L 687.089 400.486 L 679.307 400.486 L 679.307 386.27 C 679.318 384.896 678.973 383.823 678.273 383.05 C 677.583 382.277 676.623 381.891 675.392 381.891 C 674.575 381.891 673.854 382.073 673.228 382.438 C 672.613 382.792 672.135 383.302 671.796 383.968 C 671.467 384.633 671.297 385.438 671.286 386.383 Z" fill="black"/>
  <path d="M 252.079 341.969 L 252.079 269.241 L 278.713 269.241 C 283.874 269.241 288.147 270.094 291.532 271.798 C 294.918 273.479 297.451 275.764 299.132 278.652 C 300.813 281.516 301.653 284.748 301.653 288.346 C 301.653 291.377 301.097 293.934 299.984 296.017 C 298.871 298.077 297.38 299.734 295.51 300.989 C 293.663 302.22 291.627 303.119 289.402 303.687 L 289.402 304.398 C 291.816 304.516 294.172 305.297 296.468 306.741 C 298.789 308.162 300.706 310.186 302.221 312.814 C 303.736 315.442 304.494 318.638 304.494 322.402 C 304.494 326.119 303.618 329.457 301.866 332.416 C 300.138 335.352 297.463 337.684 293.841 339.412 C 290.218 341.116 285.59 341.969 279.956 341.969 L 252.079 341.969 Z M 263.052 332.558 L 278.89 332.558 C 284.146 332.558 287.91 331.54 290.183 329.504 C 292.456 327.468 293.592 324.923 293.592 321.869 C 293.592 319.573 293.012 317.466 291.852 315.548 C 290.692 313.631 289.035 312.104 286.88 310.967 C 284.75 309.831 282.217 309.263 279.281 309.263 L 263.052 309.263 L 263.052 332.558 Z M 263.052 300.704 L 277.754 300.704 C 280.216 300.704 282.43 300.231 284.395 299.284 C 286.383 298.337 287.958 297.011 289.118 295.307 C 290.301 293.578 290.893 291.543 290.893 289.199 C 290.893 286.192 289.84 283.671 287.733 281.635 C 285.626 279.599 282.394 278.581 278.038 278.581 L 263.052 278.581 L 263.052 300.704 Z" fill="#0A0B0D"/>
  <path d="M 329.53 343.176 C 326.074 343.176 322.949 342.537 320.155 341.258 C 317.362 339.956 315.148 338.074 313.515 335.612 C 311.905 333.15 311.1 330.132 311.1 326.557 C 311.1 323.479 311.692 320.946 312.875 318.957 C 314.059 316.969 315.657 315.394 317.669 314.234 C 319.682 313.074 321.931 312.198 324.417 311.606 C 326.902 311.015 329.436 310.565 332.016 310.257 C 335.283 309.878 337.935 309.57 339.971 309.334 C 342.007 309.073 343.486 308.659 344.409 308.091 C 345.333 307.523 345.794 306.599 345.794 305.321 L 345.794 305.072 C 345.794 301.971 344.918 299.568 343.167 297.864 C 341.438 296.159 338.858 295.307 335.425 295.307 C 331.85 295.307 329.033 296.1 326.973 297.686 C 324.937 299.248 323.529 300.989 322.748 302.906 L 312.769 300.633 C 313.953 297.319 315.681 294.644 317.954 292.608 C 320.25 290.548 322.89 289.057 325.873 288.133 C 328.856 287.186 331.992 286.713 335.283 286.713 C 337.461 286.713 339.769 286.973 342.208 287.494 C 344.67 287.991 346.966 288.915 349.097 290.264 C 351.251 291.614 353.015 293.543 354.388 296.052 C 355.761 298.538 356.448 301.77 356.448 305.747 L 356.448 341.969 L 346.079 341.969 L 346.079 334.511 L 345.652 334.511 C 344.966 335.884 343.936 337.234 342.563 338.56 C 341.19 339.885 339.426 340.986 337.272 341.862 C 335.117 342.738 332.537 343.176 329.53 343.176 Z M 331.838 334.653 C 334.774 334.653 337.284 334.073 339.367 332.913 C 341.474 331.753 343.072 330.238 344.161 328.368 C 345.274 326.474 345.83 324.45 345.83 322.295 L 345.83 315.264 C 345.451 315.643 344.717 315.998 343.628 316.329 C 342.563 316.637 341.344 316.909 339.971 317.146 C 338.597 317.359 337.26 317.56 335.958 317.75 C 334.656 317.916 333.567 318.058 332.691 318.176 C 330.631 318.436 328.749 318.874 327.044 319.49 C 325.364 320.105 324.014 320.993 322.996 322.153 C 322.002 323.29 321.505 324.805 321.505 326.699 C 321.505 329.327 322.475 331.315 324.417 332.665 C 326.358 333.99 328.832 334.653 331.838 334.653 Z" fill="#0A0B0D"/>
  <path d="M 408.464 300.74 L 398.84 302.444 C 398.438 301.213 397.799 300.042 396.923 298.929 C 396.07 297.816 394.91 296.905 393.443 296.194 C 391.975 295.484 390.14 295.129 387.938 295.129 C 384.932 295.129 382.422 295.804 380.41 297.153 C 378.398 298.479 377.391 300.195 377.391 302.302 C 377.391 304.125 378.066 305.593 379.416 306.706 C 380.765 307.819 382.943 308.73 385.95 309.44 L 394.614 311.429 C 399.633 312.589 403.374 314.376 405.836 316.791 C 408.298 319.206 409.529 322.343 409.529 326.202 C 409.529 329.469 408.582 332.381 406.688 334.937 C 404.818 337.471 402.202 339.459 398.84 340.903 C 395.502 342.347 391.631 343.069 387.228 343.069 C 381.12 343.069 376.137 341.767 372.278 339.163 C 368.419 336.535 366.051 332.807 365.175 327.977 L 375.438 326.415 C 376.077 329.09 377.391 331.114 379.38 332.487 C 381.369 333.837 383.961 334.511 387.157 334.511 C 390.637 334.511 393.419 333.789 395.502 332.345 C 397.586 330.877 398.627 329.09 398.627 326.983 C 398.627 325.278 397.988 323.846 396.71 322.686 C 395.455 321.526 393.525 320.65 390.921 320.058 L 381.688 318.034 C 376.598 316.874 372.834 315.027 370.396 312.494 C 367.981 309.961 366.773 306.753 366.773 302.871 C 366.773 299.651 367.673 296.834 369.472 294.419 C 371.272 292.004 373.757 290.122 376.93 288.773 C 380.102 287.4 383.736 286.713 387.832 286.713 C 393.727 286.713 398.367 287.991 401.752 290.548 C 405.138 293.081 407.375 296.479 408.464 300.74 Z" fill="#0A0B0D"/>
  <path d="M 441.712 343.069 C 436.338 343.069 431.71 341.921 427.827 339.625 C 423.968 337.305 420.985 334.05 418.878 329.859 C 416.795 325.645 415.753 320.709 415.753 315.051 C 415.753 309.464 416.795 304.54 418.878 300.278 C 420.985 296.017 423.921 292.691 427.685 290.3 C 431.473 287.909 435.9 286.713 440.966 286.713 C 444.044 286.713 447.027 287.222 449.915 288.24 C 452.803 289.258 455.396 290.856 457.692 293.034 C 459.989 295.212 461.8 298.041 463.125 301.521 C 464.451 304.978 465.114 309.18 465.114 314.128 L 465.114 317.892 L 421.755 317.892 L 421.755 309.937 L 454.709 309.937 C 454.709 307.144 454.141 304.67 453.005 302.516 C 451.868 300.337 450.27 298.621 448.211 297.366 C 446.175 296.112 443.784 295.484 441.037 295.484 C 438.054 295.484 435.45 296.218 433.225 297.686 C 431.023 299.13 429.319 301.024 428.111 303.368 C 426.927 305.688 426.336 308.209 426.336 310.932 L 426.336 317.146 C 426.336 320.792 426.975 323.893 428.253 326.45 C 429.555 329.007 431.366 330.96 433.686 332.31 C 436.007 333.635 438.717 334.298 441.819 334.298 C 443.831 334.298 445.666 334.014 447.323 333.446 C 448.98 332.854 450.412 331.978 451.62 330.818 C 452.827 329.658 453.75 328.226 454.39 326.521 L 464.439 328.332 C 463.634 331.292 462.19 333.884 460.107 336.109 C 458.047 338.311 455.455 340.027 452.33 341.258 C 449.229 342.466 445.689 343.069 441.712 343.069 Z" fill="#0A0B0D"/>
  <path d="M 514.413 288.346 C 514.035 284.985 512.472 282.381 509.726 280.534 C 506.98 278.664 503.523 277.729 499.357 277.729 C 496.374 277.729 493.793 278.202 491.615 279.149 C 489.437 280.072 487.744 281.351 486.537 282.984 C 485.353 284.594 484.761 286.429 484.761 288.489 C 484.761 290.217 485.164 291.708 485.969 292.963 C 486.797 294.218 487.875 295.271 489.2 296.123 C 490.55 296.952 491.994 297.65 493.533 298.219 C 495.072 298.763 496.551 299.213 497.972 299.568 L 505.074 301.415 C 507.394 301.983 509.773 302.752 512.212 303.723 C 514.65 304.694 516.911 305.972 518.994 307.558 C 521.078 309.144 522.759 311.109 524.037 313.453 C 525.339 315.797 525.99 318.602 525.99 321.869 C 525.99 325.989 524.925 329.646 522.794 332.842 C 520.687 336.038 517.621 338.56 513.597 340.406 C 509.596 342.253 504.754 343.176 499.072 343.176 C 493.627 343.176 488.916 342.312 484.939 340.584 C 480.962 338.855 477.849 336.405 475.599 333.233 C 473.35 330.037 472.108 326.249 471.871 321.869 L 482.879 321.869 C 483.092 324.497 483.945 326.687 485.436 328.439 C 486.951 330.167 488.881 331.457 491.224 332.31 C 493.592 333.138 496.184 333.552 499.001 333.552 C 502.103 333.552 504.861 333.067 507.276 332.096 C 509.714 331.102 511.632 329.729 513.028 327.977 C 514.425 326.202 515.124 324.13 515.124 321.763 C 515.124 319.608 514.508 317.845 513.277 316.471 C 512.07 315.098 510.424 313.962 508.341 313.062 C 506.281 312.163 503.949 311.37 501.345 310.683 L 492.751 308.339 C 486.928 306.753 482.311 304.421 478.902 301.344 C 475.517 298.266 473.824 294.194 473.824 289.128 C 473.824 284.937 474.96 281.28 477.233 278.155 C 479.506 275.03 482.583 272.603 486.466 270.875 C 490.349 269.123 494.728 268.247 499.605 268.247 C 504.529 268.247 508.874 269.111 512.638 270.839 C 516.426 272.568 519.409 274.947 521.587 277.977 C 523.765 280.984 524.901 284.44 524.996 288.346 L 514.413 288.346 Z" fill="#0A0B0D"/>
  <path d="M 558.226 343.069 C 552.947 343.069 548.401 341.874 544.59 339.483 C 540.802 337.068 537.89 333.742 535.854 329.504 C 533.818 325.266 532.8 320.413 532.8 314.944 C 532.8 309.405 533.842 304.516 535.925 300.278 C 538.008 296.017 540.944 292.691 544.732 290.3 C 548.52 287.909 552.982 286.713 558.12 286.713 C 562.263 286.713 565.956 287.482 569.199 289.021 C 572.443 290.536 575.059 292.667 577.047 295.413 C 579.06 298.159 580.255 301.367 580.634 305.037 L 570.3 305.037 C 569.732 302.48 568.43 300.278 566.394 298.432 C 564.382 296.585 561.683 295.662 558.297 295.662 C 555.338 295.662 552.746 296.443 550.52 298.006 C 548.319 299.544 546.602 301.746 545.371 304.611 C 544.14 307.452 543.525 310.813 543.525 314.696 C 543.525 318.673 544.128 322.106 545.336 324.994 C 546.543 327.882 548.248 330.12 550.449 331.706 C 552.675 333.292 555.291 334.085 558.297 334.085 C 560.31 334.085 562.133 333.718 563.766 332.984 C 565.423 332.227 566.808 331.15 567.921 329.753 C 569.057 328.356 569.85 326.675 570.3 324.71 L 580.634 324.71 C 580.255 328.238 579.107 331.386 577.189 334.156 C 575.272 336.926 572.703 339.104 569.483 340.69 C 566.287 342.276 562.535 343.069 558.226 343.069 Z" fill="#0A0B0D"/>
  <path d="M 604.862 343.176 C 601.406 343.176 598.281 342.537 595.487 341.258 C 592.694 339.956 590.48 338.074 588.847 335.612 C 587.237 333.15 586.432 330.132 586.432 326.557 C 586.432 323.479 587.024 320.946 588.207 318.957 C 589.391 316.969 590.989 315.394 593.001 314.234 C 595.014 313.074 597.263 312.198 599.749 311.606 C 602.234 311.015 604.768 310.565 607.348 310.257 C 610.615 309.878 613.267 309.57 615.303 309.334 C 617.339 309.073 618.818 308.659 619.742 308.091 C 620.665 307.523 621.126 306.599 621.126 305.321 L 621.126 305.072 C 621.126 301.971 620.251 299.568 618.499 297.864 C 616.77 296.159 614.19 295.307 610.757 295.307 C 607.182 295.307 604.365 296.1 602.305 297.686 C 600.269 299.248 598.861 300.989 598.08 302.906 L 588.101 300.633 C 589.285 297.319 591.013 294.644 593.286 292.608 C 595.582 290.548 598.222 289.057 601.205 288.133 C 604.188 287.186 607.324 286.713 610.615 286.713 C 612.793 286.713 615.101 286.973 617.54 287.494 C 620.002 287.991 622.298 288.915 624.429 290.264 C 626.583 291.614 628.347 293.543 629.72 296.052 C 631.093 298.538 631.78 301.77 631.78 305.747 L 631.78 341.969 L 621.411 341.969 L 621.411 334.511 L 620.984 334.511 C 620.298 335.884 619.268 337.234 617.895 338.56 C 616.522 339.885 614.758 340.986 612.604 341.862 C 610.449 342.738 607.869 343.176 604.862 343.176 Z M 607.171 334.653 C 610.106 334.653 612.616 334.073 614.699 332.913 C 616.806 331.753 618.404 330.238 619.493 328.368 C 620.606 326.474 621.162 324.45 621.162 322.295 L 621.162 315.264 C 620.783 315.643 620.049 315.998 618.96 316.329 C 617.895 316.637 616.676 316.909 615.303 317.146 C 613.929 317.359 612.592 317.56 611.29 317.75 C 609.988 317.916 608.899 318.058 608.023 318.176 C 605.963 318.436 604.081 318.874 602.376 319.49 C 600.696 320.105 599.346 320.993 598.328 322.153 C 597.334 323.29 596.837 324.805 596.837 326.699 C 596.837 329.327 597.807 331.315 599.749 332.665 C 601.69 333.99 604.164 334.653 607.171 334.653 Z" fill="#0A0B0D"/>
  <path d="M 653.54 309.582 L 653.54 341.969 L 642.922 341.969 L 642.922 287.423 L 653.114 287.423 L 653.114 296.301 L 653.789 296.301 C 655.043 293.413 657.008 291.093 659.684 289.341 C 662.382 287.589 665.78 286.713 669.875 286.713 C 673.592 286.713 676.847 287.494 679.641 289.057 C 682.435 290.596 684.601 292.892 686.14 295.946 C 687.678 299 688.448 302.776 688.448 307.274 L 688.448 341.969 L 677.83 341.969 L 677.83 308.552 C 677.83 304.599 676.8 301.509 674.74 299.284 C 672.681 297.035 669.852 295.91 666.253 295.91 C 663.791 295.91 661.601 296.443 659.684 297.508 C 657.79 298.574 656.286 300.136 655.174 302.196 C 654.085 304.232 653.54 306.694 653.54 309.582 Z" fill="#0A0B0D"/>
  <path d="M 108.945 330.969 C 108.945 330.114 109.114 329.267 109.443 328.477 C 109.771 327.687 110.252 326.969 110.859 326.366 C 111.465 325.762 112.185 325.285 112.976 324.96 C 113.768 324.635 114.615 324.47 115.471 324.474 L 126.291 324.51 C 128.016 324.51 129.671 325.195 130.891 326.415 C 132.111 327.635 132.796 329.289 132.796 331.014 L 132.796 371.927 C 134.014 371.566 135.578 371.18 137.29 370.777 C 138.479 370.498 139.539 369.825 140.298 368.868 C 141.056 367.91 141.469 366.725 141.469 365.503 L 141.469 314.753 C 141.469 313.027 142.154 311.373 143.374 310.153 C 144.593 308.933 146.248 308.247 147.973 308.247 L 158.815 308.247 C 160.54 308.247 162.195 308.933 163.415 310.153 C 164.634 311.373 165.32 313.027 165.32 314.753 L 165.32 361.854 C 165.32 361.854 168.034 360.756 170.678 359.64 C 171.66 359.224 172.498 358.529 173.088 357.64 C 173.678 356.752 173.993 355.709 173.993 354.643 L 173.993 298.491 C 173.993 296.766 174.679 295.111 175.898 293.892 C 177.118 292.672 178.772 291.986 180.497 291.986 L 191.339 291.986 C 193.064 291.986 194.719 292.671 195.938 293.891 C 197.158 295.111 197.844 296.766 197.844 298.491 L 197.844 344.731 C 207.243 337.918 216.768 329.726 224.327 319.874 C 225.424 318.444 226.15 316.765 226.439 314.987 C 226.729 313.208 226.574 311.385 225.989 309.681 C 222.49 299.614 216.928 290.388 209.659 282.594 C 202.39 274.799 193.573 268.608 183.774 264.417 C 173.975 260.226 163.408 258.126 152.751 258.252 C 142.094 258.379 131.581 260.729 121.884 265.152 C 112.187 269.575 103.52 275.974 96.438 283.938 C 89.356 291.903 84.015 301.259 80.756 311.406 C 77.497 321.554 76.393 332.27 77.513 342.869 C 78.634 353.468 81.954 363.716 87.263 372.958 C 88.188 374.552 89.548 375.849 91.184 376.697 C 92.821 377.545 94.665 377.908 96.501 377.744 C 98.552 377.564 101.105 377.308 104.141 376.952 C 105.462 376.802 106.682 376.171 107.568 375.179 C 108.455 374.188 108.945 372.905 108.946 371.575 L 108.946 330.969" fill="#0A0B0D"/>
  <path d="M 108.945 330.969 C 108.945 330.114 109.114 329.267 109.443 328.477 C 109.771 327.687 110.252 326.969 110.859 326.366 C 111.465 325.762 112.185 325.285 112.976 324.96 C 113.768 324.635 114.615 324.47 115.471 324.474 L 126.291 324.51 C 128.016 324.51 129.671 325.195 130.891 326.415 C 132.111 327.635 132.796 329.289 132.796 331.014 L 132.796 371.927 C 134.014 371.566 135.578 371.18 137.29 370.777 C 138.479 370.498 139.539 369.825 140.298 368.868 C 141.056 367.91 141.469 366.725 141.469 365.503 L 141.469 314.753 C 141.469 313.027 142.154 311.373 143.374 310.153 C 144.593 308.933 146.248 308.247 147.973 308.247 L 158.815 308.247 C 160.54 308.247 162.195 308.933 163.415 310.153 C 164.634 311.373 165.32 313.027 165.32 314.753 L 165.32 361.854 C 165.32 361.854 168.034 360.756 170.678 359.64 C 171.66 359.224 172.498 358.529 173.088 357.64 C 173.678 356.752 173.993 355.709 173.993 354.643 L 173.993 298.491 C 173.993 296.766 174.679 295.111 175.898 293.892 C 177.118 292.672 178.772 291.986 180.497 291.986 L 191.339 291.986 C 193.064 291.986 194.719 292.671 195.938 293.891 C 197.158 295.111 197.844 296.766 197.844 298.491 L 197.844 344.731 C 207.243 337.918 216.768 329.726 224.327 319.874 C 225.424 318.444 226.15 316.765 226.439 314.987 C 226.729 313.208 226.574 311.385 225.989 309.681 C 222.49 299.614 216.928 290.388 209.659 282.594 C 202.39 274.799 193.573 268.608 183.774 264.417 C 173.975 260.226 163.408 258.126 152.751 258.252 C 142.094 258.379 131.581 260.729 121.884 265.152 C 112.187 269.575 103.52 275.974 96.438 283.938 C 89.356 291.903 84.015 301.259 80.756 311.406 C 77.497 321.554 76.393 332.27 77.513 342.869 C 78.634 353.468 81.954 363.716 87.263 372.958 C 88.188 374.552 89.548 375.849 91.184 376.697 C 92.821 377.545 94.665 377.908 96.501 377.744 C 98.552 377.564 101.105 377.308 104.141 376.952 C 105.462 376.802 106.682 376.171 107.568 375.179 C 108.455 374.188 108.945 372.905 108.946 371.575 L 108.946 330.969" stroke="white"/>
  <path d="M 108.708 396.59 C 120.136 404.904 133.641 409.894 147.729 411.008 C 161.817 412.123 175.939 409.318 188.532 402.905 C 201.125 396.491 211.699 386.718 219.082 374.668 C 226.465 362.618 230.371 348.76 230.367 334.628 C 230.367 332.865 230.285 331.12 230.168 329.386 C 202.18 371.127 150.504 390.642 108.71 396.583" fill="#C0D0DB"/>
</svg>