<?xml version="1.0" encoding="utf-8"?>
<svg version="1.1" id="Layer_1" x="0px" y="0px" viewBox="0 0 776.6 699" style="enable-background:new 0 0 776.6 699;" xmlns="http://www.w3.org/2000/svg">
  <defs/>
  <style type="text/css">
	.st0{fill:#BFBFBF;}
	.st1{font-family:'ArialMT';}
	.st2{font-size:12px;}
	.st3{fill:#979694;}
	.st4{fill:#FBB22F;}
	.st5{fill:#35A749;}
	.st6{clip-path:url(#SVGID_2_);}
	.st7{fill:#FCD113;}
	.st8{fill:#FCE19A;}
	.st9{fill:#E5A824;}
	.st10{fill:#5B5B5B;}
	.st11{enable-background:new    ;}
	.st12{font-family:'ArialRoundedMTBold';}
	.st13{font-size:40px;}
</style>
  <g>
    <path class="st0" d="M257.4,395.6c-3.9,1.1-7.7,2.3-11.6,3.3c-1.8,0.5-3.4,1.2-4.5,2.7c-0.5,0.6-1.1,1.1-1.7,1.6&#10;&#9;&#9;c-0.8,0.7-1.8,1.1-2.9,1.1c-1.7,0-3.4,0-5.1,0c-0.4,0-0.6-0.1-0.6-0.6c0-1.4,0-2.9,0-4.3c0-0.6,0.2-0.6,0.7-0.6c1,0,2.1,0,3.1,0&#10;&#9;&#9;c0.4,0,0.7-0.1,1-0.4c2.3-2.2,4.4-4.5,6.1-7.3c1.9-3.2,2.1-6.4,0.6-9.8c-1.4-3-3.4-5.5-5.7-7.8c-1.7-1.7-3.4-3.5-5.6-4.7&#10;&#9;&#9;c-0.4-0.2-0.2-0.5-0.2-0.7c0-1.5,0-2.9-0.1-4.4c-0.1-1.5-1.4-2.5-2.8-2.5c-1.4,0-2.5,1.1-2.6,2.5c-0.1,0.9-0.1,1.8,0,2.7&#10;&#9;&#9;c0,0.6-0.2,0.8-0.8,0.6c-1.9-0.6-3.9-1.1-5.8-1.6c-0.3-0.1-0.7-0.3-0.9,0c-0.3,0.3,0.1,0.6,0.2,0.8c2,3.7,3.6,7.5,4.7,11.6&#10;&#9;&#9;c0.9,3.4,1.5,6.9,0.4,10.4c-1,3.5-3,6.5-5,9.5c-0.2,0.3-0.5,0.5-0.3,0.9c0.2,0.3,0.5,0.3,0.9,0.3c1.9,0,3.8,0,5.7,0&#10;&#9;&#9;c0.6,0,0.8,0.1,0.8,0.7c0,1.3,0,2.7,0,4c0,0.5-0.1,0.7-0.7,0.7c-2.2,0-4.3,0-6.5,0c-2.8-0.1-4.8-2.2-4.9-5c0-0.7-0.2-1-0.9-1&#10;&#9;&#9;c-4.5,0-8.9,0-13.4,0c-0.6,0-0.8,0.2-0.8,0.8c-0.2,8.2,6.8,15.8,14.9,16.2c4.5,0.2,9.1,0,13.6,0c0,0,0,0,0,0.1c4,0,8.1-0.1,12.1,0&#10;&#9;&#9;c3.4,0.1,5.9-1.3,7.9-3.8c1.7-2.1,3.1-4.5,4.5-6.8c1.2-2,2.7-3.6,4.8-4.4c2-0.8,2.5-2,2.3-4C258.5,395.3,258.5,395.3,257.4,395.6z"/>
    <path class="st0" d="M 732.8 470.3 C 722.2 399.5 696.2 345.6 728.1 226.3 C 751.6 138.4 663.4 46.5 561.6 58.4 C 487 67.1 438.6 68.5 326.8 42.9 C 217.6 17.9 222.9 86.2 140 107.5 C 64.4 127 32.7 189.4 43.5 258 C 53 317.9 75.3 388 76.8 446.6 C 78.3 505.2 63.5 580.3 137.3 618 C 211.1 655.6 271.6 621.8 386.2 643.3 C 446.3 654.5 548.3 677.8 642.9 629.2 C 756.7 570.6 740.3 520.3 732.8 470.3 Z M 493.5 148.8 C 492.1 147 489.3 146.1 485.1 146.1 C 481.4 146.1 478.7 146.6 476.8 147.6 C 475 148.6 473.4 150.2 472 152.2 C 470.7 154.2 469.7 155.6 469.2 156.2 C 468.7 156.9 467.5 157.2 465.7 157.2 C 464.1 157.2 462.7 156.7 461.5 155.6 C 460.3 154.6 459.7 153.2 459.7 151.6 C 459.7 149.1 460.6 146.6 462.4 144.2 C 464.2 141.8 467 139.8 470.8 138.3 C 474.6 136.8 479.3 136 485 136 C 491.3 136 496.3 136.7 499.9 138.2 C 503.5 139.7 506.1 142.1 507.6 145.3 C 509.1 148.5 509.8 152.8 509.8 158.2 C 509.8 161.6 509.8 164.4 509.8 166.8 C 509.8 169.2 509.8 171.8 509.7 174.7 C 509.7 177.4 510.1 180.2 511 183.2 C 511.9 186.1 512.3 188 512.3 188.9 C 512.3 190.4 511.6 191.7 510.2 192.9 C 508.8 194.1 507.2 194.7 505.5 194.7 C 504 194.7 502.6 194 501.1 192.6 C 499.7 191.2 498.1 189.2 496.5 186.6 C 493 189.3 489.6 191.3 486.4 192.7 C 483.1 194.1 479.5 194.7 475.4 194.7 C 471.7 194.7 468.5 194 465.7 192.5 C 462.9 191 460.7 189.1 459.2 186.6 C 457.7 184.1 456.9 181.4 456.9 178.5 C 456.9 174.6 458.1 171.2 460.6 168.4 C 463.1 165.6 466.5 163.8 470.9 162.8 C 471.8 162.6 474.1 162.1 477.7 161.4 C 481.3 160.7 484.4 160 487 159.4 C 489.6 158.8 492.4 158 495.4 157.2 C 495.7 153.3 494.9 150.6 493.5 148.8 Z M 500.2 261.4 C 501.5 260.1 503.1 259.4 505.1 259.4 C 507.1 259.4 508.6 260.1 510 261.4 C 511.4 262.7 512.1 264.3 512.1 266.2 C 512.1 268.3 511.4 270 510 271.2 C 508.6 272.4 507 273 505.2 273 C 503.3 273 501.7 272.4 500.3 271.2 C 498.9 270 498.2 268.3 498.2 266.2 C 498.2 264.3 498.9 262.7 500.2 261.4 Z M 498.1 211.9 C 498.1 209.4 498.8 207.4 500.1 206 C 501.4 204.6 503.2 203.9 505.3 203.9 C 507.9 203.9 509.7 204.8 510.5 206.6 C 511.4 208.4 511.8 211 511.8 214.4 C 512.1 216.5 512 218.6 511.7 220.6 L 509.7 243.1 C 509.5 245.8 509 247.8 508.3 249.3 C 507.6 250.7 506.4 251.4 504.8 251.4 C 503.2 251.4 502 250.7 501.4 249.3 C 500.8 247.9 500.3 245.8 500 243 L 498.5 221.1 C 498.2 216.8 498.1 213.8 498.1 211.9 Z M 394.7 144.4 C 394.7 141.7 395.3 139.6 396.5 138.3 C 397.7 136.9 399.3 136.3 401.4 136.3 C 402.7 136.3 403.8 136.6 404.8 137.2 C 405.8 137.8 406.6 138.7 407.3 139.9 C 407.9 141.1 408.2 142.6 408.2 144.3 L 408.2 146 C 410.7 142.7 413.5 140.2 416.5 138.6 C 419.5 137 423 136.3 426.9 136.3 C 430.7 136.3 434.1 137.1 437.1 138.8 C 440.1 140.5 442.3 142.8 443.8 145.8 C 444.8 147.6 445.4 149.5 445.6 151.5 C 445.9 153.5 446 156.1 446 159.3 L 446 186 C 446 188.9 445.3 191.1 444 192.5 C 442.7 194 441 194.7 438.9 194.7 C 436.8 194.7 435 193.9 433.7 192.4 C 432.4 190.9 431.7 188.7 431.7 185.9 L 431.7 161.9 C 431.7 157.2 431 153.5 429.7 151 C 428.4 148.5 425.8 147.2 421.8 147.2 C 419.2 147.2 416.9 148 414.8 149.5 C 412.7 151 411.1 153.1 410.2 155.8 C 409.5 157.9 409.1 162 409.1 167.8 L 409.1 185.8 C 409.1 188.7 408.4 190.9 407.1 192.4 C 405.8 193.9 404 194.6 401.8 194.6 C 399.7 194.6 398 193.8 396.7 192.3 C 395.4 190.8 394.7 188.6 394.7 185.8 L 394.7 144.4 Z M 364 148.8 C 362.6 147 359.8 146.1 355.6 146.1 C 351.9 146.1 349.2 146.6 347.3 147.6 C 345.5 148.6 343.9 150.2 342.6 152.2 C 341.3 154.2 340.3 155.6 339.8 156.2 C 339.3 156.9 338.1 157.2 336.3 157.2 C 334.7 157.2 333.3 156.7 332.1 155.6 C 330.9 154.6 330.3 153.2 330.3 151.6 C 330.3 149.1 331.2 146.6 333 144.2 C 334.8 141.8 337.6 139.8 341.4 138.3 C 345.2 136.8 349.9 136 355.6 136 C 361.9 136 366.9 136.7 370.5 138.2 C 374.1 139.7 376.7 142.1 378.2 145.3 C 379.7 148.5 380.4 152.8 380.4 158.2 C 380.4 161.6 380.4 164.4 380.4 166.8 C 380.4 169.2 380.4 171.8 380.3 174.7 C 380.3 177.4 380.7 180.2 381.6 183.2 C 382.5 186.1 382.9 188 382.9 188.9 C 382.9 190.4 382.2 191.7 380.8 192.9 C 379.4 194.1 377.8 194.7 376.1 194.7 C 374.6 194.7 373.2 194 371.7 192.6 C 370.3 191.2 368.7 189.2 367.1 186.6 C 363.6 189.3 360.2 191.3 357 192.7 C 353.7 194.1 350.1 194.7 346 194.7 C 342.3 194.7 339.1 194 336.3 192.5 C 333.5 191 331.3 189.1 329.8 186.6 C 328.3 184.1 327.5 181.4 327.5 178.5 C 327.5 174.6 328.7 171.2 331.2 168.4 C 333.7 165.6 337.1 163.8 341.5 162.8 C 342.4 162.6 344.7 162.1 348.3 161.4 C 351.9 160.7 355 160 357.6 159.4 C 360.2 158.8 363 158 366 157.2 C 366.2 153.3 365.4 150.6 364 148.8 Z M 262.9 123.6 C 263 120.7 263.6 118.5 264.8 117 C 266 115.5 267.6 114.8 269.7 114.8 C 271.9 114.8 273.6 115.5 274.8 116.9 C 276 118.3 276.6 120.4 276.6 123 L 276.6 145 C 279.3 142.2 282.1 140 284.9 138.5 C 287.7 137 291.2 136.3 295.3 136.3 C 300.1 136.3 304.3 137.4 307.9 139.7 C 311.5 142 314.3 145.3 316.3 149.6 C 318.3 153.9 319.3 159 319.3 164.9 C 319.3 169.3 318.7 173.3 317.6 176.9 C 316.5 180.5 314.9 183.7 312.8 186.4 C 310.7 189.1 308.1 191.1 305.1 192.6 C 302.1 194.1 298.8 194.8 295.2 194.8 C 293 194.8 290.9 194.5 288.9 194 C 286.9 193.5 285.3 192.8 283.9 191.9 C 282.5 191 281.4 190.1 280.4 189.2 C 279.4 188.3 278.2 186.9 276.6 185.1 L 276.6 186.5 C 276.6 189.2 275.9 191.3 274.6 192.6 C 273.3 194 271.6 194.7 269.6 194.7 C 267.6 194.7 265.9 194 264.7 192.6 C 263.5 191.2 262.9 189.2 262.9 186.5 L 262.9 123.6 Z M 276 226.1 L 276 265.3 C 276 267.9 275.4 269.8 274.2 271.1 C 273 272.4 271.5 273.1 269.6 273.1 C 267.7 273.1 266.1 272.4 265 271.1 C 263.8 269.8 263.3 267.9 263.3 265.3 L 263.3 213.7 C 263.3 211.5 263.5 209.8 264 208.5 C 264.6 207.1 265.5 206 266.9 205.1 C 268.2 204.2 269.7 203.8 271.2 203.8 C 272.4 203.8 273.5 204 274.3 204.4 C 275.2 204.8 275.9 205.3 276.6 206 C 277.3 206.7 277.9 207.5 278.6 208.6 C 279.3 209.7 280 210.8 280.7 211.9 L 306.7 251.3 L 306.7 211.5 C 306.7 208.9 307.3 207 308.4 205.7 C 309.5 204.4 311 203.8 312.9 203.8 C 314.8 203.8 316.4 204.4 317.5 205.7 C 318.8 207.2 319.3 209.2 319.3 211.7 L 319.3 264.3 C 319.3 270.2 316.9 273.1 312 273.1 C 310.8 273.1 309.7 272.9 308.7 272.6 C 307.7 272.2 306.8 271.7 306 270.9 C 305.1 270.1 304.4 269.3 303.6 268.2 C 302.9 267.2 302.1 266.1 301.4 265.1 L 276 226.1 Z M 388.1 263.6 C 385.3 266.7 381.9 269.1 377.8 270.7 C 373.7 272.3 369.1 273.2 363.8 273.2 C 358.6 273.2 353.9 272.4 349.8 270.7 C 345.7 269 342.2 266.6 339.4 263.6 C 336.6 260.5 334.5 256.8 333.1 252.5 C 331.7 248.2 331 243.5 331 238.5 C 331 233.4 331.7 228.6 333.2 224.4 C 334.7 220.1 336.8 216.5 339.6 213.5 C 342.4 210.5 345.8 208.2 349.8 206.6 C 353.8 205 358.4 204.2 363.5 204.2 C 370.4 204.2 376.4 205.6 381.4 208.4 C 386.4 211 390.2 215 392.7 220.2 C 395.3 225.4 396.5 231.5 396.5 238.5 C 396.5 243.7 395.8 248.4 394.4 252.6 C 393 256.8 390.9 260.5 388.1 263.6 Z M 458.7 268.1 C 458.2 266.8 457.5 264.6 456.6 261.5 L 445.8 221.4 L 434.9 261.5 C 434 264.5 433.4 266.7 432.9 268 C 432.4 269.3 431.5 270.5 430.3 271.6 C 429.1 272.6 427.4 273.2 425.3 273.2 C 423.6 273.2 422.3 272.9 421.2 272.3 C 420.1 271.7 419.2 270.8 418.6 269.7 C 417.9 268.6 417.4 267.2 417 265.6 C 416.6 264 416.2 262.6 415.9 261.2 L 404.8 216.2 C 404.1 213.6 403.8 211.6 403.8 210.2 C 403.8 208.5 404.4 207 405.6 205.8 C 406.8 204.6 408.3 204 410.1 204 C 412.6 204 414.2 204.8 415.1 206.4 C 416 208 416.7 210.3 417.3 213.3 L 426.1 252.3 L 435.9 215.8 C 436.6 213 437.3 210.9 437.9 209.4 C 438.5 207.9 439.4 206.7 440.7 205.6 C 442 204.5 443.8 204 446 204 C 448.3 204 450.1 204.6 451.3 205.7 C 452.4 206.8 453.3 208 453.8 209.3 C 454.3 210.6 454.9 212.8 455.8 215.8 L 465.7 252.3 L 474.5 213.3 C 474.9 211.3 475.3 209.7 475.7 208.5 C 476.1 207.3 476.7 206.3 477.7 205.4 C 478.6 204.5 480 204 481.7 204 C 483.5 204 485 204.6 486.2 205.8 C 487.4 207 488 208.4 488 210.2 C 488 211.4 487.7 213.4 487 216.2 L 475.9 261.2 C 475.1 264.2 474.5 266.5 474 267.9 C 473.5 269.3 472.6 270.6 471.4 271.6 C 470.2 272.7 468.5 273.2 466.3 273.2 C 464.2 273.2 462.6 272.7 461.3 271.6 C 460.1 270.6 459.2 269.4 458.7 268.1 Z"/>
    <path class="st0" d="M202.7,392.8c2,0,4.1,0,6.1,0c1.5,0,2.9-0.1,4.4,0c1.9,0.2,3-0.5,3.8-2.2c1.2-2.5,2.3-4.9,1.9-7.8&#10;&#9;&#9;c-0.5-3.7-1.7-7.2-3.2-10.6c-0.3-0.7-0.7-0.5-1,0c-4.2,6.5-8.4,13.1-12.6,19.6C201.7,392.5,201.8,392.8,202.7,392.8z"/>
  </g>
  <text transform="matrix(1 0 0 1 0 -6.728313e-06)" class="st1 st2" style="white-space: pre;"> </text>
  <text transform="matrix(1 0 0 1 0 -6.728313e-06)" class="st1 st2" style="white-space: pre;"> </text>
  <title>server down</title>
  <path class="st0" d="M244.1,154.6L244.1,154.6c0.1,0,0.2-0.1,0.2-0.1l-0.1-0.1C244.2,154.5,244.1,154.5,244.1,154.6z"/>
  <path class="st3" d="M397.9,18.4c0-0.2,0-0.3,0-0.5c3.5,0,7,0,10.6,0C404.9,18.5,401.4,18.5,397.9,18.4z"/>
  <path class="st3" d="M428.6,18.4c-3.5,0.1-7.1,0.2-10.6-0.5c3.5,0,7,0,10.6,0C428.6,18,428.6,18.2,428.6,18.4z"/>
  <path class="st0" d="M373.7,217.5c-2.9-1.8-6.3-2.8-10.1-2.8c-2.7,0-5.2,0.5-7.5,1.5s-4.3,2.5-5.9,4.4c-1.7,1.9-3,4.4-3.9,7.5&#10;&#9;c-1,3-1.4,6.4-1.4,10.2s0.5,7.2,1.4,10.3c1,3.1,2.3,5.6,4.1,7.6c1.7,2,3.8,3.5,6,4.5c2.3,1,4.8,1.5,7.5,1.5c3.5,0,6.7-0.9,9.6-2.6&#10;&#9;s5.2-4.4,6.9-8c1.7-3.6,2.6-8.1,2.6-13.4c0-4.9-0.8-9.1-2.4-12.7C378.9,222.1,376.6,219.4,373.7,217.5z"/>
  <path class="st0" d="M291.5,183.6c3.6,0,6.7-1.6,9.4-4.7c2.6-3.1,3.9-7.7,3.9-13.5c0-3.8-0.5-7.1-1.6-9.8s-2.6-4.9-4.6-6.4&#10;&#9;s-4.3-2.2-7-2.2s-5.2,0.7-7.3,2.2c-2.1,1.5-3.8,3.7-5.1,6.5c-1.2,2.8-1.8,6.2-1.8,10.1c0,5.7,1.3,10.1,3.9,13.2&#10;&#9;S287.3,183.6,291.5,183.6z"/>
  <path class="st0" d="M351.2,185.3c2.8,0,5.5-0.6,7.9-1.9c2.4-1.2,4.2-2.9,5.3-4.8c1.3-2.2,2-5.8,2-10.8v-2.1&#10;&#9;c-2.1,0.8-5.2,1.6-9.2,2.5s-6.8,1.5-8.4,1.9c-1.5,0.4-3,1.2-4.4,2.4s-2.1,2.8-2.1,4.9c0,2.2,0.8,4,2.5,5.6&#10;&#9;C346.3,184.6,348.5,185.3,351.2,185.3z"/>
  <path class="st0" d="M478.3,170.1c-1.5,0.4-3,1.2-4.4,2.4s-2.1,2.8-2.1,4.9c0,2.2,0.8,4,2.5,5.6c1.7,1.5,3.8,2.3,6.5,2.3&#10;&#9;c2.9,0,5.5-0.6,7.9-1.9c2.4-1.2,4.2-2.9,5.3-4.8c1.3-2.2,2-5.8,2-10.8v-2.1c-2.1,0.8-5.2,1.6-9.2,2.5&#10;&#9;C482.6,169.1,479.8,169.7,478.3,170.1z"/>
  <g id="Layer_x0020_1" transform="matrix(0.208071, 0, 0, 0.208071, -846.786926, 77.135948)" style="transform-origin: 1250px 319.5px;">
    <g id="_2599888554384">
      <path d="M758.1,586.4V52.6h174.6c57.9,0,101.5,12,130.7,36c29.2,23.9,43.8,59.4,43.8,106.5c0,24.9-7,47.1-21.3,66.2    c-14.1,19.3-33.4,34.2-57.9,44.7c28.9,8,51.7,23.4,68.5,45.9c16.8,22.7,25,49.6,25,80.7c0,47.9-15.5,85.5-46.6,112.8    c-31,27.4-74.8,41-131.5,41H758.1z M828.6,337.9v190.7h116.1c32.8,0,58.7-8.4,77.6-25.3c18.9-16.9,28.4-40.2,28.4-69.7    c0-63.8-34.9-95.7-104.9-95.7L828.6,337.9L828.6,337.9z M828.6,280.1h106.2c30.8,0,55.4-7.8,74-23.2    c18.4-15.4,27.7-36.2,27.7-62.6c0-29.4-8.6-50.7-25.7-64c-17.1-13.4-43.2-20-78.1-20H828.6L828.6,280.1L828.6,280.1z     M1520.2,446.8h-223.8l-50.2,139.7h-72.6l203.9-533.9h61.6l204.2,533.9h-72.2L1520.2,446.8L1520.2,446.8z M1317.8,389h181.6    l-91-249.5L1317.8,389z M1872.5,348.5c-60.3-17.4-104.2-38.8-131.8-64.1c-27.5-25.3-41.3-56.6-41.3-93.7    c0-42,16.9-76.8,50.4-104.4c33.7-27.5,77.3-41.3,131-41.3c36.7,0,69.5,7.1,98.1,21.3c28.8,14.1,50.9,33.7,66.7,58.7    c15.8,24.9,23.7,52.2,23.7,81.7h-70.7c0-32.3-10.3-57.7-30.8-76.2c-20.5-18.4-49.6-27.7-87-27.7c-34.7,0-61.7,7.6-81.1,22.9    c-19.5,15.4-29.2,36.5-29.2,63.7c0,21.8,9.1,40.3,27.7,55.3c18.4,15,49.8,28.8,94.2,41.3c44.3,12.5,79.1,26.3,104.1,41.3    c25,15,43.6,32.5,55.7,52.7c12.1,20,18.1,43.7,18.1,70.8c0,43.3-16.9,78-50.6,104c-33.8,26-78.8,39-135.3,39    c-36.7,0-71-7-102.7-21c-31.7-14.1-56.2-33.4-73.5-57.8c-17.3-24.4-25.8-52.2-25.8-83.2h70.7c0,32.2,11.9,57.6,35.8,76.2    c23.8,18.6,55.6,28,95.5,28c37.2,0,65.6-7.6,85.4-22.8c19.9-15.1,29.8-35.8,29.8-61.8c0-26.2-9.3-46.4-27.5-60.7    C1954,376.6,1920.7,362.4,1872.5,348.5L1872.5,348.5z M2462.6,340.1h-231.3v188.5H2500v57.8h-339.1V52.6h335.5v57.8h-265.1v171.9    h231.3L2462.6,340.1L2462.6,340.1z"/>
    </g>
  </g>
  <g id="g-1" transform="matrix(0.05372, 0, 0, 0.05372, 142.1819, 329.408661)" style="">
    <g>
      <g>
        <defs>
          <path id="SVGID_1_" d="M1250,2500C559.6,2500,0,1940.4,0,1250C0,559.6,559.6,0,1250,0c690.4,0,1250,559.6,1250,1250      C2500,1940.4,1940.4,2500,1250,2500z"/>
        </defs>
        <clipPath id="SVGID_00000137130877621503601290000017679510272143242652_">
          <path d="M1250,2500C559.6,2500,0,1940.4,0,1250C0,559.6,559.6,0,1250,0c690.4,0,1250,559.6,1250,1250      C2500,1940.4,1940.4,2500,1250,2500z" style="overflow: visible;"/>
        </clipPath>
        <g style="clip-path:url(#SVGID_00000137130877621503601290000017679510272143242652_);">
          <polygon class="st1" points="1250,1250 -518,1239.1 -516.4,1174.1     " style="clip-rule: evenodd; fill: rgb(254, 254, 255); fill-rule: evenodd; font-family: 'system-ui', -apple-system, Inter, Roboto, 'Helvetica Neue', 'Lucida Grande', Arial, sans-serif;"/>
          <polygon id="_1" class="st2" points="1250,1250 -516.7,1184.9 -514,1130.7     " style="clip-rule: evenodd; fill: rgb(253, 254, 255); fill-rule: evenodd; font-size: 15px; line-height: 24px;"/>
          <polygon id="_2" class="st3" points="1250,1250 -514.6,1141.6 -510.6,1087.5     " style="clip-rule: evenodd; fill: rgb(252, 253, 255); fill-rule: evenodd;"/>
          <polygon id="_3" class="st4" points="1250,1250 -511.4,1098.3 -506.1,1044.3     " style="clip-rule: evenodd; fill: rgb(251, 252, 255); fill-rule: evenodd;"/>
          <polygon id="_4" class="st5" points="1250,1250 -507.1,1055.1 -500.5,1001.3     " style="clip-rule: evenodd; fill: rgb(250, 252, 255); fill-rule: evenodd;"/>
          <polygon id="_5" class="st6" points="1250,1250 -501.8,1012.1 -493.9,958.4     " style="clip-path: none; clip-rule: evenodd; fill: rgb(249, 251, 255); fill-rule: evenodd;"/>
          <polygon id="_6" class="st7" points="1250,1250 -495.4,969.1 -486.2,915.7     " style="clip-rule: evenodd; fill: rgb(248, 250, 255); fill-rule: evenodd;"/>
          <polygon id="_7" class="st8" points="1250,1250 -488,926.4 -477.5,873.2     " style="clip-rule: evenodd; fill: rgb(247, 250, 255); fill-rule: evenodd;"/>
          <polygon id="_8" class="st9" points="1250,1250 -479.6,883.9 -467.7,830.9     " style="clip-rule: evenodd; fill: rgb(246, 249, 255); fill-rule: evenodd;"/>
          <polygon id="_9" class="st10" points="1250,1250 -470.1,841.5 -456.9,788.9     " style="clip-rule: evenodd; fill: rgb(245, 248, 255); fill-rule: evenodd;"/>
          <polygon id="_10" class="st11" points="1250,1250 -459.5,799.4 -445.1,747.1     " style="clip-rule: evenodd; fill: rgb(244, 248, 255); fill-rule: evenodd;"/>
          <polygon id="_11" class="st12" points="1250,1250 -448,757.6 -432.2,705.7     " style="clip-rule: evenodd; fill: rgb(243, 247, 255); fill-rule: evenodd; font-family: 'system-ui', -apple-system, Inter, Roboto, 'Helvetica Neue', 'Lucida Grande', Arial, sans-serif;"/>
          <polygon id="_12" class="st13" points="1250,1250 -435.4,716.1 -418.3,664.6     " style="clip-rule: evenodd; fill: rgb(242, 246, 255); fill-rule: evenodd; font-size: 15px; line-height: 24px;"/>
          <polygon id="_13" class="st14" points="1250,1250 -421.8,674.9 -403.5,623.8     " style="clip-rule: evenodd; fill: rgb(241, 246, 255); fill-rule: evenodd;"/>
          <polygon id="_14" class="st15" points="1250,1250 -407.1,634 -387.6,583.4     " style="clip-rule: evenodd; fill: rgb(240, 245, 255); fill-rule: evenodd;"/>
          <polygon id="_15" class="st16" points="1250,1250 -391.5,593.5 -370.8,543.4     " style="clip-rule: evenodd; fill: rgb(239, 244, 255); fill-rule: evenodd;"/>
          <polygon id="_16" class="st17" points="1250,1250 -374.9,553.4 -352.9,503.9     " style="clip-rule: evenodd; fill: rgb(238, 243, 255); fill-rule: evenodd;"/>
          <polygon id="_17" class="st18" points="1250,1250 -357.3,513.8 -334.1,464.8     " style="clip-rule: evenodd; fill: rgb(237, 243, 255); fill-rule: evenodd;"/>
          <polygon id="_18" class="st19" points="1250,1250 -338.8,474.6 -314.4,426.1     " style="clip-rule: evenodd; fill: rgb(236, 242, 255); fill-rule: evenodd;"/>
          <polygon id="_19" class="st20" points="1250,1250 -319.3,435.8 -293.7,388     " style="clip-rule: evenodd; fill: rgb(235, 241, 255); fill-rule: evenodd;"/>
          <polygon id="_20" class="st21" points="1250,1250 -298.8,397.6 -272.1,350.3     " style="clip-rule: evenodd; fill: rgb(234, 241, 255); fill-rule: evenodd;"/>
          <polygon id="_21" class="st22" points="1250,1250 -277.4,359.8 -249.5,313.3     " style="clip-rule: evenodd; fill: rgb(233, 240, 255); fill-rule: evenodd;"/>
          <polygon id="_22" class="st23" points="1250,1250 -255.1,322.6 -226.1,276.7     " style="clip-rule: evenodd; fill: rgb(232, 239, 255); fill-rule: evenodd;"/>
          <polygon id="_23" class="st24" points="1250,1250 -231.9,285.9 -201.7,240.8     " style="clip-rule: evenodd; fill: rgb(231, 239, 255); fill-rule: evenodd;"/>
          <polygon id="_24" class="st25" points="1250,1250 -207.8,249.8 -176.6,205.5     " style="clip-rule: evenodd; fill: rgb(230, 238, 255); fill-rule: evenodd;"/>
          <polygon id="_25" class="st26" points="1250,1250 -182.8,214.4 -150.5,170.8     " style="clip-rule: evenodd; fill: rgb(229, 237, 255); fill-rule: evenodd;"/>
          <polygon id="_26" class="st27" points="1250,1250 -157,179.5 -123.6,136.7     " style="clip-rule: evenodd; fill: rgb(228, 237, 255); fill-rule: evenodd;"/>
          <polygon id="_27" class="st28" points="1250,1250 -130.3,145.3 -95.9,103.4     " style="clip-rule: evenodd; fill: rgb(227, 236, 255); fill-rule: evenodd;"/>
          <polygon id="_28" class="st29" points="1250,1250 -102.7,111.8 -67.3,70.7     " style="clip-rule: evenodd; fill: rgb(226, 235, 255); fill-rule: evenodd;"/>
          <polygon id="_29" class="st30" points="1250,1250 -74.4,78.9 -38,38.7     " style="clip-rule: evenodd; fill: rgb(225, 235, 255); fill-rule: evenodd;"/>
          <polygon id="_30" class="st31" points="1250,1250 -45.3,46.8 -7.9,7.5     " style="clip-rule: evenodd; fill: rgb(224, 234, 255); fill-rule: evenodd;"/>
          <polygon id="_31" class="st32" points="1250,1250 -15.4,15.4 23,-23     " style="clip-rule: evenodd; fill: rgb(223, 233, 255); fill-rule: evenodd;"/>
          <polygon id="_32" class="st33" points="1250,1250 15.4,-15.4 54.6,-52.7     " style="clip-rule: evenodd; fill: rgb(222, 233, 255); fill-rule: evenodd;"/>
          <polygon id="_33" class="st34" points="1250,1250 46.8,-45.3 87,-81.7     " style="clip-rule: evenodd; fill: rgb(221, 232, 255); fill-rule: evenodd;"/>
          <polygon id="_34" class="st35" points="1250,1250 78.9,-74.4 120,-109.8     " style="clip-rule: evenodd; fill: rgb(220, 231, 255); fill-rule: evenodd;"/>
          <polygon id="_35" class="st36" points="1250,1250 111.8,-102.7 153.7,-137.1     " style="clip-rule: evenodd; fill: rgb(219, 231, 255); fill-rule: evenodd;"/>
          <polygon id="_36" class="st37" points="1250,1250 145.3,-130.3 188.1,-163.6     " style="clip-rule: evenodd; fill: rgb(218, 230, 255); fill-rule: evenodd;"/>
          <polygon id="_37" class="st38" points="1250,1250 179.5,-157 223.1,-189.3     " style="clip-rule: evenodd; fill: rgb(217, 229, 255); fill-rule: evenodd;"/>
          <polygon id="_38" class="st39" points="1250,1250 214.4,-182.8 258.7,-214     " style="clip-rule: evenodd; fill: rgb(216, 229, 255); fill-rule: evenodd;"/>
          <polygon id="_39" class="st40" points="1250,1250 249.8,-207.8 294.9,-237.9     " style="clip-rule: evenodd; fill: rgb(215, 228, 255); fill-rule: evenodd;"/>
          <polygon id="_40" class="st41" points="1250,1250 285.9,-231.9 331.8,-260.9     " style="clip-rule: evenodd; fill: rgb(214, 227, 255); fill-rule: evenodd;"/>
          <polygon id="_41" class="st42" points="1250,1250 322.6,-255.1 369.1,-283     " style="clip-rule: evenodd; fill: rgb(213, 227, 255); fill-rule: evenodd;"/>
          <polygon id="_42" class="st43" points="1250,1250 359.8,-277.4 407,-304.1     " style="clip-rule: evenodd; fill: rgb(212, 226, 255); fill-rule: evenodd;"/>
          <polygon id="_43" class="st44" points="1250,1250 397.6,-298.8 445.4,-324.4     " style="clip-rule: evenodd; fill: rgb(211, 225, 255); fill-rule: evenodd;"/>
          <polygon id="_44" class="st45" points="1250,1250 435.8,-319.3 484.3,-343.6     " style="clip-rule: evenodd; fill: rgb(210, 224, 255); fill-rule: evenodd;"/>
          <polygon id="_45" class="st46" points="1250,1250 474.6,-338.8 523.6,-361.9     " style="clip-rule: evenodd; fill: rgb(209, 224, 255); fill-rule: evenodd;"/>
          <polygon id="_46" class="st47" points="1250,1250 513.8,-357.3 563.4,-379.3     " style="clip-rule: evenodd; fill: rgb(208, 223, 255); fill-rule: evenodd;"/>
          <polygon id="_47" class="st48" points="1250,1250 553.4,-374.9 603.6,-395.7     " style="clip-rule: evenodd; fill: rgb(207, 222, 255); fill-rule: evenodd;"/>
          <polygon id="_48" class="st49" points="1250,1250 593.5,-391.5 644.2,-411     " style="clip-rule: evenodd; fill: rgb(206, 222, 255); fill-rule: evenodd;"/>
          <polygon id="_49" class="st50" points="1250,1250 634,-407.1 685.1,-425.4     " style="clip-rule: evenodd; fill: rgb(205, 221, 255); fill-rule: evenodd;"/>
          <polygon id="_50" class="st51" points="1250,1250 674.9,-421.8 726.4,-438.7     " style="clip-rule: evenodd; fill: rgb(204, 220, 255); fill-rule: evenodd;"/>
          <polygon id="_51" class="st52" points="1250,1250 716.1,-435.4 768,-451.1     " style="clip-rule: evenodd; fill: rgb(203, 220, 255); fill-rule: evenodd;"/>
          <polygon id="_52" class="st53" points="1250,1250 757.6,-448 809.9,-462.4     " style="clip-rule: evenodd; fill: rgb(202, 219, 255); fill-rule: evenodd;"/>
          <polygon id="_53" class="st54" points="1250,1250 799.4,-459.5 852,-472.7     " style="clip-rule: evenodd; fill: rgb(201, 218, 255); fill-rule: evenodd;"/>
          <polygon id="_54" class="st55" points="1250,1250 841.5,-470.1 894.4,-481.9     " style="clip-rule: evenodd; fill: rgb(200, 218, 255); fill-rule: evenodd;"/>
          <polygon id="_55" class="st56" points="1250,1250 883.9,-479.6 937,-490.1     " style="clip-rule: evenodd; fill: rgb(199, 217, 255); fill-rule: evenodd;"/>
          <polygon id="_56" class="st57" points="1250,1250 926.4,-488 979.8,-497.3     " style="clip-rule: evenodd; fill: rgb(198, 216, 255); fill-rule: evenodd;"/>
          <polygon id="_57" class="st58" points="1250,1250 969.1,-495.4 1022.8,-503.4     " style="clip-rule: evenodd; fill: rgb(197, 216, 255); fill-rule: evenodd;"/>
          <polygon id="_58" class="st59" points="1250,1250 1012.1,-501.8 1065.9,-508.4     " style="clip-rule: evenodd; fill: rgb(196, 215, 255); fill-rule: evenodd;"/>
          <polygon id="_59" class="st60" points="1250,1250 1055.1,-507.1 1109.1,-512.4     " style="clip-rule: evenodd; fill: rgb(195, 214, 255); fill-rule: evenodd;"/>
          <polygon id="_60" class="st61" points="1250,1250 1098.3,-511.4 1152.4,-515.4     " style="clip-rule: evenodd; fill: rgb(194, 214, 255); fill-rule: evenodd;"/>
          <polygon id="_61" class="st62" points="1250,1250 1141.6,-514.6 1195.8,-517.2     " style="clip-rule: evenodd; fill: rgb(193, 213, 255); fill-rule: evenodd;"/>
          <polygon id="_62" class="st63" points="1250,1250 1184.9,-516.7 1239.1,-518     " style="clip-rule: evenodd; fill: rgb(192, 212, 255); fill-rule: evenodd;"/>
          <polygon id="_63" class="st64" points="1250,1250 1228.3,-517.8 1282.5,-517.8     " style="clip-rule: evenodd; fill: rgb(191, 212, 255); fill-rule: evenodd;"/>
          <polygon id="_64" class="st65" points="1250,1250 1271.7,-517.8 1325.9,-516.4     " style="clip-rule: evenodd; fill: rgb(190, 211, 255); fill-rule: evenodd;"/>
          <polygon id="_65" class="st66" points="1250,1250 1315.1,-516.7 1369.2,-514     " style="clip-rule: evenodd; fill: rgb(189, 210, 255); fill-rule: evenodd;"/>
          <polygon id="_66" class="st67" points="1250,1250 1358.4,-514.6 1412.5,-510.6     " style="clip-rule: evenodd; fill: rgb(188, 210, 255); fill-rule: evenodd;"/>
          <polygon id="_67" class="st68" points="1250,1250 1401.7,-511.4 1455.7,-506.1     " style="clip-rule: evenodd; fill: rgb(187, 209, 255); fill-rule: evenodd;"/>
          <polygon id="_68" class="st69" points="1250,1250 1444.8,-507.1 1498.7,-500.5     " style="clip-rule: evenodd; fill: rgb(186, 208, 255); fill-rule: evenodd;"/>
          <polygon id="_69" class="st70" points="1250,1250 1487.9,-501.8 1541.6,-493.9     " style="clip-rule: evenodd; fill: rgb(185, 208, 255); fill-rule: evenodd;"/>
          <polygon id="_70" class="st71" points="1250,1250 1530.8,-495.4 1584.3,-486.2     " style="clip-rule: evenodd; fill: rgb(184, 207, 255); fill-rule: evenodd;"/>
          <polygon id="_71" class="st72" points="1250,1250 1573.6,-488 1626.8,-477.5     " style="clip-rule: evenodd; fill: rgb(183, 206, 255); fill-rule: evenodd;"/>
          <polygon id="_72" class="st73" points="1250,1250 1616.1,-479.6 1669.1,-467.7     " style="clip-rule: evenodd; fill: rgb(182, 205, 255); fill-rule: evenodd;"/>
          <polygon id="_73" class="st74" points="1250,1250 1658.5,-470.1 1711.1,-456.9     " style="clip-rule: evenodd; fill: rgb(181, 205, 255); fill-rule: evenodd;"/>
          <polygon id="_74" class="st75" points="1250,1250 1700.6,-459.5 1752.8,-445.1     " style="clip-rule: evenodd; fill: rgb(180, 204, 255); fill-rule: evenodd;"/>
          <polygon id="_75" class="st76" points="1250,1250 1742.4,-448 1794.3,-432.2     " style="clip-rule: evenodd; fill: rgb(179, 203, 255); fill-rule: evenodd;"/>
          <polygon id="_76" class="st77" points="1250,1250 1783.9,-435.4 1835.4,-418.3     " style="clip-rule: evenodd; fill: rgb(178, 203, 255); fill-rule: evenodd;"/>
          <polygon id="_77" class="st78" points="1250,1250 1825.1,-421.8 1876.2,-403.5     " style="clip-rule: evenodd; fill: rgb(177, 202, 255); fill-rule: evenodd;"/>
          <polygon id="_78" class="st79" points="1250,1250 1866,-407.1 1916.6,-387.6     " style="clip-rule: evenodd; fill: rgb(176, 201, 255); fill-rule: evenodd;"/>
          <polygon id="_79" class="st80" points="1250,1250 1906.4,-391.5 1956.6,-370.8     " style="clip-rule: evenodd; fill: rgb(175, 201, 255); fill-rule: evenodd;"/>
          <polygon id="_80" class="st81" points="1250,1250 1946.5,-374.9 1996.1,-352.9     " style="clip-rule: evenodd; fill: rgb(174, 200, 255); fill-rule: evenodd;"/>
          <polygon id="_81" class="st82" points="1250,1250 1986.2,-357.3 2035.2,-334.1     " style="clip-rule: evenodd; fill: rgb(173, 199, 255); fill-rule: evenodd;"/>
          <polygon id="_82" class="st83" points="1250,1250 2025.4,-338.8 2073.9,-314.4     " style="clip-rule: evenodd; fill: rgb(172, 199, 255); fill-rule: evenodd;"/>
          <polygon id="_83" class="st84" points="1250,1250 2064.2,-319.3 2112,-293.7     " style="clip-rule: evenodd; fill: rgb(171, 198, 255); fill-rule: evenodd;"/>
          <polygon id="_84" class="st85" points="1250,1250 2102.4,-298.8 2149.7,-272.1     " style="clip-rule: evenodd; fill: rgb(170, 197, 255); fill-rule: evenodd;"/>
          <polygon id="_85" class="st86" points="1250,1250 2140.2,-277.4 2186.7,-249.5     " style="clip-rule: evenodd; fill: rgb(169, 197, 255); fill-rule: evenodd;"/>
          <polygon id="_86" class="st87" points="1250,1250 2177.4,-255.1 2223.2,-226.1     " style="clip-rule: evenodd; fill: rgb(168, 196, 255); fill-rule: evenodd;"/>
          <polygon id="_87" class="st88" points="1250,1250 2214.1,-231.9 2259.2,-201.7     " style="clip-rule: evenodd; fill: rgb(167, 195, 255); fill-rule: evenodd;"/>
          <polygon id="_88" class="st89" points="1250,1250 2250.2,-207.8 2294.5,-176.6     " style="clip-rule: evenodd; fill: rgb(166, 195, 255); fill-rule: evenodd;"/>
          <polygon id="_89" class="st90" points="1250,1250 2285.6,-182.8 2329.2,-150.5     " style="clip-rule: evenodd; fill: rgb(165, 194, 255); fill-rule: evenodd;"/>
          <polygon id="_90" class="st91" points="1250,1250 2320.5,-157 2363.2,-123.6     " style="clip-rule: evenodd; fill: rgb(164, 193, 255); fill-rule: evenodd;"/>
          <polygon id="_91" class="st92" points="1250,1250 2354.7,-130.3 2396.6,-95.9     " style="clip-rule: evenodd; fill: rgb(163, 193, 255); fill-rule: evenodd;"/>
          <polygon id="_92" class="st93" points="1250,1250 2388.2,-102.7 2429.3,-67.3     " style="clip-rule: evenodd; fill: rgb(162, 192, 255); fill-rule: evenodd;"/>
          <polygon id="_93" class="st94" points="1250,1250 2421.1,-74.4 2461.3,-38     " style="clip-rule: evenodd; fill: rgb(161, 191, 255); fill-rule: evenodd;"/>
          <polygon id="_94" class="st95" points="1250,1250 2453.2,-45.3 2492.5,-7.9     " style="clip-rule: evenodd; fill: rgb(160, 191, 255); fill-rule: evenodd;"/>
          <polygon id="_95" class="st96" points="1250,1250 2484.6,-15.4 2523,23     " style="clip-rule: evenodd; fill: rgb(159, 190, 255); fill-rule: evenodd;"/>
          <polygon id="_96" class="st97" points="1250,1250 2515.3,15.4 2552.7,54.6     " style="clip-rule: evenodd; fill: rgb(158, 189, 255); fill-rule: evenodd;"/>
          <polygon id="_97" class="st98" points="1250,1250 2545.3,46.8 2581.7,87     " style="clip-rule: evenodd; fill: rgb(157, 189, 255); fill-rule: evenodd;"/>
          <polygon id="_98" class="st99" points="1250,1250 2574.4,78.9 2609.8,120     " style="clip-rule: evenodd; fill: rgb(156, 188, 255); fill-rule: evenodd;"/>
          <polygon id="_99" class="st100" points="1250,1250 2602.7,111.8 2637.1,153.7     " style="clip-rule: evenodd; fill: rgb(155, 187, 255); fill-rule: evenodd;"/>
          <polygon id="_100" class="st101" points="1250,1250 2630.3,145.3 2663.6,188.1     " style="clip-rule: evenodd; fill: rgb(154, 186, 255); fill-rule: evenodd;"/>
          <polygon id="_101" class="st102" points="1250,1250 2657,179.5 2689.3,223.1     " style="clip-rule: evenodd; fill: rgb(153, 186, 255); fill-rule: evenodd;"/>
          <polygon id="_102" class="st103" points="1250,1250 2682.8,214.4 2714,258.7     " style="clip-rule: evenodd; fill: rgb(152, 185, 255); fill-rule: evenodd;"/>
          <polygon id="_103" class="st104" points="1250,1250 2707.8,249.8 2737.9,294.9     " style="clip-rule: evenodd; fill: rgb(151, 184, 255); fill-rule: evenodd;"/>
          <polygon id="_104" class="st105" points="1250,1250 2731.9,285.9 2760.9,331.8     " style="clip-rule: evenodd; fill: rgb(150, 184, 255); fill-rule: evenodd;"/>
          <polygon id="_105" class="st106" points="1250,1250 2755.1,322.6 2783,369.1     " style="clip-rule: evenodd; fill: rgb(149, 183, 255); fill-rule: evenodd;"/>
          <polygon id="_106" class="st107" points="1250,1250 2777.4,359.8 2804.1,407     " style="clip-rule: evenodd; fill: rgb(148, 182, 255); fill-rule: evenodd;"/>
          <polygon id="_107" class="st108" points="1250,1250 2798.8,397.6 2824.3,445.4     " style="clip-rule: evenodd; fill: rgb(147, 182, 255); fill-rule: evenodd;"/>
          <polygon id="_108" class="st109" points="1250,1250 2819.2,435.8 2843.6,484.3     " style="clip-rule: evenodd; fill: rgb(146, 181, 255); fill-rule: evenodd;"/>
          <polygon id="_109" class="st110" points="1250,1250 2838.8,474.6 2861.9,523.6     " style="clip-rule: evenodd; fill: rgb(145, 180, 255); fill-rule: evenodd;"/>
          <polygon id="_110" class="st111" points="1250,1250 2857.3,513.8 2879.3,563.4     " style="clip-rule: evenodd; fill: rgb(144, 180, 255); fill-rule: evenodd;"/>
          <polygon id="_111" class="st112" points="1250,1250 2874.9,553.4 2895.6,603.6     " style="clip-rule: evenodd; fill: rgb(143, 179, 255); fill-rule: evenodd;"/>
          <polygon id="_112" class="st113" points="1250,1250 2891.5,593.5 2911,644.2     " style="clip-rule: evenodd; fill: rgb(142, 178, 255); fill-rule: evenodd;"/>
          <polygon id="_113" class="st114" points="1250,1250 2907.1,634 2925.4,685.1     " style="clip-rule: evenodd; fill: rgb(141, 178, 255); fill-rule: evenodd;"/>
          <polygon id="_114" class="st115" points="1250,1250 2921.7,674.9 2938.7,726.4     " style="clip-rule: evenodd; fill: rgb(140, 177, 255); fill-rule: evenodd;"/>
          <polygon id="_115" class="st116" points="1250,1250 2935.3,716.1 2951.1,768     " style="clip-rule: evenodd; fill: rgb(139, 176, 255); fill-rule: evenodd;"/>
          <polygon id="_116" class="st117" points="1250,1250 2947.9,757.6 2962.4,809.9     " style="clip-rule: evenodd; fill: rgb(138, 176, 255); fill-rule: evenodd;"/>
          <polygon id="_117" class="st118" points="1250,1250 2959.5,799.4 2972.7,852     " style="clip-rule: evenodd; fill: rgb(137, 175, 255); fill-rule: evenodd;"/>
          <polygon id="_118" class="st119" points="1250,1250 2970.1,841.5 2981.9,894.4     " style="clip-rule: evenodd; fill: rgb(136, 174, 255); fill-rule: evenodd;"/>
          <polygon id="_119" class="st120" points="1250,1250 2979.5,883.9 2990.1,937     " style="clip-rule: evenodd; fill: rgb(135, 174, 255); fill-rule: evenodd;"/>
          <polygon id="_120" class="st121" points="1250,1250 2988,926.4 2997.3,979.8     " style="clip-rule: evenodd; fill: rgb(134, 173, 255); fill-rule: evenodd;"/>
          <polygon id="_121" class="st122" points="1250,1250 2995.4,969.1 3003.4,1022.8     " style="clip-rule: evenodd; fill: rgb(133, 172, 255); fill-rule: evenodd;"/>
          <polygon id="_122" class="st123" points="1250,1250 3001.8,1012.1 3008.4,1065.9     " style="clip-rule: evenodd; fill: rgb(132, 172, 255); fill-rule: evenodd;"/>
          <polygon id="_123" class="st124" points="1250,1250 3007.1,1055.1 3012.4,1109.1     " style="clip-rule: evenodd; fill: rgb(131, 171, 255); fill-rule: evenodd;"/>
          <polygon id="_124" class="st125" points="1250,1250 3011.4,1098.3 3015.4,1152.4     " style="clip-rule: evenodd; fill: rgb(130, 170, 255); fill-rule: evenodd;"/>
          <polygon id="_125" class="st126" points="1250,1250 3014.6,1141.6 3017.2,1195.8     " style="clip-rule: evenodd; fill: rgb(129, 170, 255); fill-rule: evenodd;"/>
          <polygon id="_126" class="st127" points="1250,1250 3016.7,1184.9 3018,1239.1     " style="clip-rule: evenodd; fill: rgb(128, 169, 255); fill-rule: evenodd;"/>
          <polygon id="_127" class="st128" points="1250,1250 3017.7,1228.3 3017.7,1282.5     " style="clip-rule: evenodd; fill: rgb(127, 168, 255); fill-rule: evenodd;"/>
          <polygon id="_128" class="st129" points="1250,1250 3017.7,1271.7 3016.4,1325.9     " style="clip-rule: evenodd; fill: rgb(126, 167, 255); fill-rule: evenodd;"/>
          <polygon id="_129" class="st130" points="1250,1250 3016.7,1315.1 3014,1369.2     " style="clip-rule: evenodd; fill: rgb(125, 167, 255); fill-rule: evenodd;"/>
          <polygon id="_130" class="st131" points="1250,1250 3014.6,1358.4 3010.6,1412.5     " style="clip-rule: evenodd; fill: rgb(124, 166, 255); fill-rule: evenodd;"/>
          <polygon id="_131" class="st132" points="1250,1250 3011.4,1401.7 3006.1,1455.7     " style="clip-rule: evenodd; fill: rgb(123, 165, 255); fill-rule: evenodd;"/>
          <polygon id="_132" class="st133" points="1250,1250 3007.1,1444.8 3000.5,1498.7     " style="clip-rule: evenodd; fill: rgb(122, 165, 255); fill-rule: evenodd;"/>
          <polygon id="_133" class="st134" points="1250,1250 3001.8,1487.9 2993.8,1541.6     " style="clip-rule: evenodd; fill: rgb(121, 164, 255); fill-rule: evenodd;"/>
          <polygon id="_134" class="st135" points="1250,1250 2995.4,1530.8 2986.2,1584.3     " style="clip-rule: evenodd; fill: rgb(120, 163, 255); fill-rule: evenodd;"/>
          <polygon id="_135" class="st136" points="1250,1250 2988,1573.6 2977.4,1626.8     " style="clip-rule: evenodd; fill: rgb(119, 163, 255); fill-rule: evenodd;"/>
          <polygon id="_136" class="st137" points="1250,1250 2979.5,1616.1 2967.7,1669.1     " style="clip-rule: evenodd; fill: rgb(118, 162, 255); fill-rule: evenodd;"/>
          <polygon id="_137" class="st138" points="1250,1250 2970.1,1658.5 2956.9,1711.1     " style="clip-rule: evenodd; fill: rgb(117, 161, 255); fill-rule: evenodd;"/>
          <polygon id="_138" class="st139" points="1250,1250 2959.5,1700.6 2945.1,1752.8     " style="clip-rule: evenodd; fill: rgb(116, 161, 255); fill-rule: evenodd;"/>
          <polygon id="_139" class="st140" points="1250,1250 2947.9,1742.4 2932.2,1794.3     " style="clip-rule: evenodd; fill: rgb(115, 160, 255); fill-rule: evenodd;"/>
          <polygon id="_140" class="st141" points="1250,1250 2935.3,1783.9 2918.3,1835.4     " style="clip-rule: evenodd; fill: rgb(114, 159, 255); fill-rule: evenodd;"/>
          <polygon id="_141" class="st142" points="1250,1250 2921.7,1825.1 2903.5,1876.2     " style="clip-rule: evenodd; fill: rgb(113, 159, 255); fill-rule: evenodd;"/>
          <polygon id="_142" class="st143" points="1250,1250 2907.1,1866 2887.6,1916.6     " style="clip-rule: evenodd; fill: rgb(112, 158, 255); fill-rule: evenodd;"/>
          <polygon id="_143" class="st144" points="1250,1250 2891.5,1906.4 2870.7,1956.6     " style="clip-rule: evenodd; fill: rgb(111, 157, 255); fill-rule: evenodd;"/>
          <polygon id="_144" class="st145" points="1250,1250 2874.9,1946.5 2852.9,1996.1     " style="clip-rule: evenodd; fill: rgb(110, 157, 255); fill-rule: evenodd;"/>
          <polygon id="_145" class="st146" points="1250,1250 2857.3,1986.2 2834.1,2035.2     " style="clip-rule: evenodd; fill: rgb(109, 156, 255); fill-rule: evenodd;"/>
          <polygon id="_146" class="st147" points="1250,1250 2838.8,2025.4 2814.4,2073.9     " style="clip-rule: evenodd; fill: rgb(108, 155, 255); fill-rule: evenodd;"/>
          <polygon id="_147" class="st148" points="1250,1250 2819.2,2064.2 2793.7,2112     " style="clip-rule: evenodd; fill: rgb(107, 155, 255); fill-rule: evenodd;"/>
          <polygon id="_148" class="st149" points="1250,1250 2798.8,2102.4 2772.1,2149.7     " style="clip-rule: evenodd; fill: rgb(106, 154, 255); fill-rule: evenodd;"/>
          <polygon id="_149" class="st150" points="1250,1250 2777.4,2140.2 2749.5,2186.7     " style="clip-rule: evenodd; fill: rgb(105, 153, 255); fill-rule: evenodd;"/>
          <polygon id="_150" class="st151" points="1250,1250 2755.1,2177.4 2726.1,2223.2     " style="clip-rule: evenodd; fill: rgb(104, 153, 255); fill-rule: evenodd;"/>
          <polygon id="_151" class="st152" points="1250,1250 2731.9,2214.1 2701.7,2259.2     " style="clip-rule: evenodd; fill: rgb(103, 152, 255); fill-rule: evenodd;"/>
          <polygon id="_152" class="st153" points="1250,1250 2707.8,2250.2 2676.6,2294.5     " style="clip-rule: evenodd; fill: rgb(102, 151, 255); fill-rule: evenodd;"/>
          <polygon id="_153" class="st154" points="1250,1250 2682.8,2285.6 2650.5,2329.2     " style="clip-rule: evenodd; fill: rgb(101, 151, 255); fill-rule: evenodd;"/>
          <polygon id="_154" class="st155" points="1250,1250 2657,2320.5 2623.6,2363.2     " style="clip-rule: evenodd; fill: rgb(100, 150, 255); fill-rule: evenodd;"/>
          <polygon id="_155" class="st156" points="1250,1250 2630.3,2354.7 2595.9,2396.6     " style="clip-rule: evenodd; fill: rgb(99, 149, 255); fill-rule: evenodd;"/>
          <polygon id="_156" class="st157" points="1250,1250 2602.7,2388.2 2567.3,2429.3     " style="clip-rule: evenodd; fill: rgb(98, 148, 255); fill-rule: evenodd;"/>
          <polygon id="_157" class="st158" points="1250,1250 2574.4,2421.1 2538,2461.3     " style="clip-rule: evenodd; fill: rgb(97, 148, 255); fill-rule: evenodd;"/>
          <polygon id="_158" class="st159" points="1250,1250 2545.3,2453.2 2507.9,2492.5     " style="clip-rule: evenodd; fill: rgb(96, 147, 255); fill-rule: evenodd;"/>
          <polygon id="_159" class="st160" points="1250,1250 2515.3,2484.6 2477,2523     " style="clip-rule: evenodd; fill: rgb(95, 146, 255); fill-rule: evenodd;"/>
          <polygon id="_160" class="st161" points="1250,1250 2484.6,2515.3 2445.4,2552.7     " style="clip-rule: evenodd; fill: rgb(94, 146, 255); fill-rule: evenodd;"/>
          <polygon id="_161" class="st162" points="1250,1250 2453.2,2545.3 2413,2581.7     " style="clip-rule: evenodd; fill: rgb(93, 145, 255); fill-rule: evenodd;"/>
          <polygon id="_162" class="st163" points="1250,1250 2421.1,2574.4 2380,2609.8     " style="clip-rule: evenodd; fill: rgb(92, 144, 255); fill-rule: evenodd;"/>
          <polygon id="_163" class="st164" points="1250,1250 2388.2,2602.7 2346.3,2637.1     " style="clip-rule: evenodd; fill: rgb(91, 144, 255); fill-rule: evenodd;"/>
          <polygon id="_164" class="st165" points="1250,1250 2354.7,2630.3 2311.9,2663.6     " style="clip-rule: evenodd; fill: rgb(90, 143, 255); fill-rule: evenodd;"/>
          <polygon id="_165" class="st166" points="1250,1250 2320.5,2657 2276.9,2689.3     " style="clip-rule: evenodd; fill: rgb(89, 142, 255); fill-rule: evenodd;"/>
          <polygon id="_166" class="st167" points="1250,1250 2285.6,2682.8 2241.3,2714     " style="clip-rule: evenodd; fill: rgb(88, 142, 255); fill-rule: evenodd;"/>
          <polygon id="_167" class="st168" points="1250,1250 2250.2,2707.8 2205,2737.9     " style="clip-rule: evenodd; fill: rgb(87, 141, 255); fill-rule: evenodd;"/>
          <polygon id="_168" class="st169" points="1250,1250 2214.1,2731.9 2168.2,2760.9     " style="clip-rule: evenodd; fill: rgb(86, 140, 255); fill-rule: evenodd;"/>
          <polygon id="_169" class="st170" points="1250,1250 2177.4,2755.1 2130.9,2783     " style="clip-rule: evenodd; fill: rgb(85, 140, 255); fill-rule: evenodd;"/>
          <polygon id="_170" class="st171" points="1250,1250 2140.2,2777.4 2093,2804.1     " style="clip-rule: evenodd; fill: rgb(84, 139, 255); fill-rule: evenodd;"/>
          <polygon id="_171" class="st172" points="1250,1250 2102.4,2798.8 2054.6,2824.3     " style="clip-rule: evenodd; fill: rgb(83, 138, 255); fill-rule: evenodd;"/>
          <polygon id="_172" class="st173" points="1250,1250 2064.2,2819.2 2015.7,2843.6     " style="clip-rule: evenodd; fill: rgb(82, 138, 255); fill-rule: evenodd;"/>
          <polygon id="_173" class="st174" points="1250,1250 2025.4,2838.8 1976.4,2861.9     " style="clip-rule: evenodd; fill: rgb(81, 137, 255); fill-rule: evenodd;"/>
          <polygon id="_174" class="st175" points="1250,1250 1986.2,2857.3 1936.6,2879.3     " style="clip-rule: evenodd; fill: rgb(80, 136, 255); fill-rule: evenodd;"/>
          <polygon id="_175" class="st176" points="1250,1250 1946.5,2874.9 1896.4,2895.6     " style="clip-rule: evenodd; fill: rgb(79, 136, 255); fill-rule: evenodd;"/>
          <polygon id="_176" class="st177" points="1250,1250 1906.4,2891.5 1855.8,2911     " style="clip-rule: evenodd; fill: rgb(78, 135, 255); fill-rule: evenodd;"/>
          <polygon id="_177" class="st178" points="1250,1250 1866,2907.1 1814.9,2925.4     " style="clip-rule: evenodd; fill: rgb(77, 134, 255); fill-rule: evenodd;"/>
          <polygon id="_178" class="st179" points="1250,1250 1825.1,2921.7 1773.6,2938.7     " style="clip-rule: evenodd; fill: rgb(76, 134, 255); fill-rule: evenodd;"/>
          <polygon id="_179" class="st180" points="1250,1250 1783.9,2935.3 1732,2951.1     " style="clip-rule: evenodd; fill: rgb(75, 133, 255); fill-rule: evenodd;"/>
          <polygon id="_180" class="st181" points="1250,1250 1742.4,2947.9 1690.1,2962.4     " style="clip-rule: evenodd; fill: rgb(74, 132, 255); fill-rule: evenodd;"/>
          <polygon id="_181" class="st182" points="1250,1250 1700.6,2959.5 1647.9,2972.7     " style="clip-rule: evenodd; fill: rgb(73, 132, 255); fill-rule: evenodd;"/>
          <polygon id="_182" class="st183" points="1250,1250 1658.5,2970.1 1605.6,2981.9     " style="clip-rule: evenodd; fill: rgb(72, 131, 255); fill-rule: evenodd;"/>
          <polygon id="_183" class="st184" points="1250,1250 1616.1,2979.5 1562.9,2990.1     " style="clip-rule: evenodd; fill: rgb(71, 130, 255); fill-rule: evenodd;"/>
          <polygon id="_184" class="st185" points="1250,1250 1573.6,2988 1520.2,2997.3     " style="clip-rule: evenodd; fill: rgb(70, 129, 255); fill-rule: evenodd;"/>
          <polygon id="_185" class="st186" points="1250,1250 1530.8,2995.4 1477.2,3003.4     " style="clip-rule: evenodd; fill: rgb(69, 129, 255); fill-rule: evenodd;"/>
          <polygon id="_186" class="st187" points="1250,1250 1487.9,3001.8 1434.1,3008.4     " style="clip-rule: evenodd; fill: rgb(68, 128, 255); fill-rule: evenodd;"/>
          <polygon id="_187" class="st188" points="1250,1250 1444.8,3007.1 1390.9,3012.4     " style="clip-rule: evenodd; fill: rgb(67, 127, 255); fill-rule: evenodd;"/>
          <polygon id="_188" class="st189" points="1250,1250 1401.7,3011.4 1347.6,3015.4     " style="clip-rule: evenodd; fill: rgb(66, 127, 255); fill-rule: evenodd;"/>
          <polygon id="_189" class="st190" points="1250,1250 1358.4,3014.6 1304.2,3017.2     " style="clip-rule: evenodd; fill: rgb(65, 126, 255); fill-rule: evenodd;"/>
          <polygon id="_190" class="st191" points="1250,1250 1315.1,3016.7 1260.8,3018     " style="clip-rule: evenodd; fill: rgb(64, 125, 255); fill-rule: evenodd;"/>
          <polygon id="_191" class="st192" points="1250,1250 1271.7,3017.7 1217.4,3017.7     " style="clip-rule: evenodd; fill: rgb(63, 125, 255); fill-rule: evenodd;"/>
          <polygon id="_192" class="st193" points="1250,1250 1228.3,3017.7 1174.1,3016.4     " style="clip-rule: evenodd; fill: rgb(62, 124, 255); fill-rule: evenodd;"/>
          <polygon id="_193" class="st194" points="1250,1250 1184.9,3016.7 1130.7,3014     " style="clip-rule: evenodd; fill: rgb(61, 123, 255); fill-rule: evenodd;"/>
          <polygon id="_194" class="st195" points="1250,1250 1141.6,3014.6 1087.5,3010.6     " style="clip-rule: evenodd; fill: rgb(60, 123, 255); fill-rule: evenodd;"/>
          <polygon id="_195" class="st196" points="1250,1250 1098.3,3011.4 1044.3,3006.1     " style="clip-rule: evenodd; fill: rgb(59, 122, 255); fill-rule: evenodd;"/>
          <polygon id="_196" class="st197" points="1250,1250 1055.1,3007.1 1001.3,3000.5     " style="clip-rule: evenodd; fill: rgb(58, 121, 255); fill-rule: evenodd;"/>
          <polygon id="_197" class="st198" points="1250,1250 1012.1,3001.8 958.4,2993.8     " style="clip-rule: evenodd; fill: rgb(57, 121, 255); fill-rule: evenodd;"/>
          <polygon id="_198" class="st199" points="1250,1250 969.1,2995.4 915.7,2986.2     " style="clip-rule: evenodd; fill: rgb(56, 120, 255); fill-rule: evenodd;"/>
          <polygon id="_199" class="st200" points="1250,1250 926.4,2988 873.2,2977.4     " style="clip-rule: evenodd; fill: rgb(55, 119, 255); fill-rule: evenodd;"/>
          <polygon id="_200" class="st201" points="1250,1250 883.9,2979.5 830.9,2967.7     " style="clip-rule: evenodd; fill: rgb(54, 119, 255); fill-rule: evenodd;"/>
          <polygon id="_201" class="st202" points="1250,1250 841.5,2970.1 788.9,2956.9     " style="clip-rule: evenodd; fill: rgb(53, 118, 255); fill-rule: evenodd;"/>
          <polygon id="_202" class="st203" points="1250,1250 799.4,2959.5 747.1,2945.1     " style="clip-rule: evenodd; fill: rgb(52, 117, 255); fill-rule: evenodd;"/>
          <polygon id="_203" class="st204" points="1250,1250 757.6,2947.9 705.7,2932.2     " style="clip-rule: evenodd; fill: rgb(51, 117, 255); fill-rule: evenodd;"/>
          <polygon id="_204" class="st205" points="1250,1250 716.1,2935.3 664.6,2918.3     " style="clip-rule: evenodd; fill: rgb(50, 116, 255); fill-rule: evenodd;"/>
          <polygon id="_205" class="st206" points="1250,1250 674.9,2921.7 623.8,2903.5     " style="clip-rule: evenodd; fill: rgb(49, 115, 255); fill-rule: evenodd;"/>
          <polygon id="_206" class="st207" points="1250,1250 634,2907.1 583.4,2887.6     " style="clip-rule: evenodd; fill: rgb(48, 115, 255); fill-rule: evenodd;"/>
          <polygon id="_207" class="st208" points="1250,1250 593.5,2891.5 543.4,2870.7     " style="clip-rule: evenodd; fill: rgb(47, 114, 255); fill-rule: evenodd;"/>
          <polygon id="_208" class="st209" points="1250,1250 553.4,2874.9 503.9,2852.9     " style="clip-rule: evenodd; fill: rgb(46, 113, 255); fill-rule: evenodd;"/>
          <polygon id="_209" class="st210" points="1250,1250 513.8,2857.3 464.8,2834.1     " style="clip-rule: evenodd; fill: rgb(45, 113, 255); fill-rule: evenodd;"/>
          <polygon id="_210" class="st211" points="1250,1250 474.6,2838.8 426.1,2814.4     " style="clip-rule: evenodd; fill: rgb(44, 112, 255); fill-rule: evenodd;"/>
          <polygon id="_211" class="st212" points="1250,1250 435.8,2819.2 388,2793.7     " style="clip-rule: evenodd; fill: rgb(43, 111, 255); fill-rule: evenodd;"/>
          <polygon id="_212" class="st213" points="1250,1250 397.6,2798.8 350.3,2772.1     " style="clip-rule: evenodd; fill: rgb(42, 110, 255); fill-rule: evenodd;"/>
          <polygon id="_213" class="st214" points="1250,1250 359.8,2777.4 313.3,2749.5     " style="clip-rule: evenodd; fill: rgb(41, 110, 255); fill-rule: evenodd;"/>
          <polygon id="_214" class="st215" points="1250,1250 322.6,2755.1 276.7,2726.1     " style="clip-rule: evenodd; fill: rgb(40, 109, 255); fill-rule: evenodd;"/>
          <polygon id="_215" class="st216" points="1250,1250 285.9,2731.9 240.8,2701.7     " style="clip-rule: evenodd; fill: rgb(39, 108, 255); fill-rule: evenodd;"/>
          <polygon id="_216" class="st217" points="1250,1250 249.8,2707.8 205.5,2676.6     " style="clip-rule: evenodd; fill: rgb(38, 108, 255); fill-rule: evenodd;"/>
          <polygon id="_217" class="st218" points="1250,1250 214.4,2682.8 170.8,2650.5     " style="clip-rule: evenodd; fill: rgb(37, 107, 255); fill-rule: evenodd;"/>
          <polygon id="_218" class="st219" points="1250,1250 179.5,2657 136.7,2623.6     " style="clip-rule: evenodd; fill: rgb(36, 106, 255); fill-rule: evenodd;"/>
          <polygon id="_219" class="st220" points="1250,1250 145.3,2630.3 103.4,2595.9     " style="clip-rule: evenodd; fill: rgb(35, 106, 255); fill-rule: evenodd;"/>
          <polygon id="_220" class="st221" points="1250,1250 111.8,2602.7 70.7,2567.3     " style="clip-rule: evenodd; fill: rgb(34, 105, 255); fill-rule: evenodd;"/>
          <polygon id="_221" class="st222" points="1250,1250 78.9,2574.4 38.7,2538     " style="clip-rule: evenodd; fill: rgb(33, 104, 255); fill-rule: evenodd;"/>
          <polygon id="_222" class="st223" points="1250,1250 46.8,2545.3 7.5,2507.9     " style="clip-rule: evenodd; fill: rgb(32, 104, 255); fill-rule: evenodd;"/>
          <polygon id="_223" class="st224" points="1250,1250 15.4,2515.3 -23,2477     " style="clip-rule: evenodd; fill: rgb(31, 103, 255); fill-rule: evenodd;"/>
          <polygon id="_224" class="st225" points="1250,1250 -15.4,2484.6 -52.7,2445.4     " style="clip-rule: evenodd; fill: rgb(30, 102, 255); fill-rule: evenodd;"/>
          <polygon id="_225" class="st226" points="1250,1250 -45.3,2453.2 -81.7,2413     " style="clip-rule: evenodd; fill: rgb(29, 102, 255); fill-rule: evenodd;"/>
          <polygon id="_226" class="st227" points="1250,1250 -74.4,2421.1 -109.8,2380     " style="clip-rule: evenodd; fill: rgb(28, 101, 255); fill-rule: evenodd;"/>
          <polygon id="_227" class="st228" points="1250,1250 -102.7,2388.2 -137.1,2346.3     " style="clip-rule: evenodd; fill: rgb(27, 100, 255); fill-rule: evenodd;"/>
          <polygon id="_228" class="st229" points="1250,1250 -130.3,2354.7 -163.6,2311.9     " style="clip-rule: evenodd; fill: rgb(26, 100, 255); fill-rule: evenodd;"/>
          <polygon id="_229" class="st230" points="1250,1250 -157,2320.5 -189.3,2276.9     " style="clip-rule: evenodd; fill: rgb(25, 99, 255); fill-rule: evenodd;"/>
          <polygon id="_230" class="st231" points="1250,1250 -182.8,2285.6 -214,2241.3     " style="clip-rule: evenodd; fill: rgb(24, 98, 255); fill-rule: evenodd;"/>
          <polygon id="_231" class="st232" points="1250,1250 -207.8,2250.2 -237.9,2205     " style="clip-rule: evenodd; fill: rgb(23, 98, 255); fill-rule: evenodd;"/>
          <polygon id="_232" class="st233" points="1250,1250 -231.9,2214.1 -260.9,2168.2     " style="clip-rule: evenodd; fill: rgb(22, 97, 255); fill-rule: evenodd;"/>
          <polygon id="_233" class="st234" points="1250,1250 -255.1,2177.4 -283,2130.9     " style="clip-rule: evenodd; fill: rgb(21, 96, 255); fill-rule: evenodd;"/>
          <polygon id="_234" class="st235" points="1250,1250 -277.4,2140.2 -304.1,2093     " style="clip-rule: evenodd; fill: rgb(20, 96, 255); fill-rule: evenodd;"/>
          <polygon id="_235" class="st236" points="1250,1250 -298.8,2102.4 -324.4,2054.6     " style="clip-rule: evenodd; fill: rgb(19, 95, 255); fill-rule: evenodd;"/>
          <polygon id="_236" class="st237" points="1250,1250 -319.3,2064.2 -343.6,2015.7     " style="clip-rule: evenodd; fill: rgb(18, 94, 255); fill-rule: evenodd;"/>
          <polygon id="_237" class="st238" points="1250,1250 -338.8,2025.4 -361.9,1976.4     " style="clip-rule: evenodd; fill: rgb(17, 94, 255); fill-rule: evenodd;"/>
          <polygon id="_238" class="st239" points="1250,1250 -357.3,1986.2 -379.3,1936.6     " style="clip-rule: evenodd; fill: rgb(16, 93, 255); fill-rule: evenodd;"/>
          <polygon id="_239" class="st240" points="1250,1250 -374.9,1946.5 -395.7,1896.4     " style="clip-rule: evenodd; fill: rgb(15, 92, 255); fill-rule: evenodd;"/>
          <polygon id="_240" class="st241" points="1250,1250 -391.5,1906.4 -411,1855.8     " style="clip-rule: evenodd; fill: rgb(14, 91, 255); fill-rule: evenodd;"/>
          <polygon id="_241" class="st242" points="1250,1250 -407.1,1866 -425.4,1814.9     " style="clip-rule: evenodd; fill: rgb(13, 91, 255); fill-rule: evenodd;"/>
          <polygon id="_242" class="st243" points="1250,1250 -421.8,1825.1 -438.7,1773.6     " style="clip-rule: evenodd; fill: rgb(12, 90, 255); fill-rule: evenodd;"/>
          <polygon id="_243" class="st244" points="1250,1250 -435.4,1783.9 -451.1,1732     " style="clip-rule: evenodd; fill: rgb(11, 89, 255); fill-rule: evenodd;"/>
          <polygon id="_244" class="st245" points="1250,1250 -448,1742.4 -462.4,1690.1     " style="clip-rule: evenodd; fill: rgb(10, 89, 255); fill-rule: evenodd;"/>
          <polygon id="_245" class="st246" points="1250,1250 -459.5,1700.6 -472.7,1647.9     " style="clip-rule: evenodd; fill: rgb(9, 88, 255); fill-rule: evenodd;"/>
          <polygon id="_246" class="st247" points="1250,1250 -470.1,1658.5 -481.9,1605.6     " style="clip-rule: evenodd; fill: rgb(8, 87, 255); fill-rule: evenodd;"/>
          <polygon id="_247" class="st248" points="1250,1250 -479.6,1616.1 -490.1,1562.9     " style="clip-rule: evenodd; fill: rgb(7, 87, 255); fill-rule: evenodd;"/>
          <polygon id="_248" class="st249" points="1250,1250 -488,1573.6 -497.3,1520.2     " style="clip-rule: evenodd; fill: rgb(6, 86, 255); fill-rule: evenodd;"/>
          <polygon id="_249" class="st250" points="1250,1250 -495.4,1530.8 -503.4,1477.2     " style="clip-rule: evenodd; fill: rgb(5, 85, 255); fill-rule: evenodd;"/>
          <polygon id="_250" class="st251" points="1250,1250 -501.8,1487.9 -508.4,1434.1     " style="clip-rule: evenodd; fill: rgb(4, 85, 255); fill-rule: evenodd;"/>
          <polygon id="_251" class="st252" points="1250,1250 -507.1,1444.8 -512.4,1390.9     " style="clip-rule: evenodd; fill: rgb(3, 84, 255); fill-rule: evenodd;"/>
          <polygon id="_252" class="st253" points="1250,1250 -511.4,1401.7 -515.4,1347.6     " style="clip-rule: evenodd; fill: rgb(2, 83, 255); fill-rule: evenodd;"/>
          <polygon id="_253" class="st254" points="1250,1250 -514.6,1358.4 -517.2,1304.2     " style="clip-rule: evenodd; fill: rgb(1, 83, 255); fill-rule: evenodd;"/>
          <polygon id="_254" class="st255" points="1250,1250 -516.7,1315.1 -518,1260.8     " style="clip-rule: evenodd; fill: rgb(0, 82, 255); fill-rule: evenodd;"/>
          <polygon id="_255" class="st256" points="1250,1250 -517.8,1271.7 -517.8,1228.3     " style="clip-rule: evenodd; fill: rgb(255, 255, 255); fill-rule: evenodd;"/>
        </g>
      </g>
    </g>
  </g>
</svg>