<?xml version="1.0" encoding="utf-8"?>
<!-- Generator: Adobe Illustrator 24.0.2, SVG Export Plug-In . SVG Version: 6.00 Build 0)  -->
<svg version="1.1" id="Layer_1" xmlns="http://www.w3.org/2000/svg" xmlns:xlink="http://www.w3.org/1999/xlink" x="0px" y="0px"
	 viewBox="0 0 776.6 699" style="enable-background:new 0 0 776.6 699;" xml:space="preserve">
<style type="text/css">
	.st0{fill:#BFBFBF;}
	.st1{font-family:'ArialMT';}
	.st2{font-size:12px;}
	.st3{fill:#35A749;}
	.st4{font-family:'ArialRoundedMTBold';}
	.st5{font-size:40px;}
	.st6{fill:url(#SVGID_1_);}
	.st7{fill:url(#SVGID_2_);}
</style>
<path class="st0" d="M732.8,470.3c-6.1-40.9-17.4-76.1-19.7-121.6h-57.7c-0.9,0-1.6-0.8-1.6-1.6v-74c0-0.9,0.7-1.7,1.6-1.7h19.4
	c1,0,2.1,0.6,2.6,1.5l19.4,34.8v-34.6c0-0.9,0.8-1.7,1.6-1.7h19.8c2.4-14,5.6-29,10-45.2c23.5-87.9-64.7-179.8-166.5-167.9
	c-74.6,8.7-123,10.1-234.8-15.5c-109.2-25-103.9,43.3-186.8,64.6C67.7,126.1,35.6,184,42.3,249H99c15,0,27.2,12.2,27.2,27.2
	c0,13.9-10.4,25.4-23.9,27l0,0.5c1.4-0.2,2.8-0.3,4.2-0.3c19.2,0,34.8,15.6,34.8,34.8c0,19.2-15.6,34.8-34.8,34.8H67.3
	c5,25.5,8.9,50.5,9.5,73.7c1.5,58.6-13.3,133.7,60.5,171.4c73.8,37.6,134.3,3.8,248.9,25.3c60.1,11.2,162.1,34.5,256.7-14.1
	C756.7,570.6,740.3,520.3,732.8,470.3z M276.2,349.6h-61c-0.9,0-1.7-0.8-1.7-1.6v-37.1c0,21.3-17.3,38.6-38.6,38.6
	s-38.6-17.3-38.6-38.6s17.3-38.6,38.6-38.6s38.6,17.3,38.6,38.6V274c0-0.9,0.8-1.7,1.7-1.7h29.6c17.2,0,28.7,10.1,28.7,25.3
	c0,9-4.8,16.9-12.5,20.8l16.6,29.3C278,348.8,277.2,349.6,276.2,349.6z M343.8,348c0,0.8-0.7,1.6-1.7,1.6h-62.7
	c-0.9,0-1.6-0.8-1.6-1.6v-74c0-0.9,0.7-1.7,1.6-1.7h19.4c1,0,2.1,0.6,2.6,1.5l19.4,34.8V274c0-0.9,0.8-1.7,1.6-1.7h19.8
	c1,0,1.7,0.8,1.7,1.7V348z M587.4,319.5c0,17.6-12.7,29.2-31.9,29.2c-14.5,0-25.4-6.7-29.8-17.5c0.5,2.2,0.7,4.6,0.7,7
	c0,19.2-15.6,34.8-34.8,34.8h-65.9V249h58.3c15,0,27.2,12.2,27.2,27.2c0,13.9-10.4,25.4-23.9,27l0,0.5c1.4-0.2,2.8-0.3,4.2-0.3
	c14.8,0,27.4,9.3,32.4,22.3c-0.4-2-0.6-4-0.6-6.2v-46.2c0-1,1-1.9,2.3-1.9h59.3c1.3,0,2.3,0.9,2.3,1.9V319.5z M652.3,348.7h-61
	c-0.9,0-1.7-0.8-1.7-1.6v-74c0-0.9,0.8-1.7,1.7-1.7h29.6c17.2,0,28.7,10.1,28.7,25.3c0,9-4.8,16.9-12.5,20.8l16.6,29.3
	C654.1,347.9,653.3,348.7,652.3,348.7z"/>
<text transform="matrix(1 0 0 1 0 -6.728313e-06)" class="st1 st2"> </text>
<text transform="matrix(1 0 0 1 0 -6.728313e-06)" class="st1 st2"> </text>
<title>server down</title>
<text transform="matrix(1 0 0 1 245.3704 561.9894)" class="st3 st4 st5">NFT Collection</text>
<g>
	<linearGradient id="SVGID_1_" gradientUnits="userSpaceOnUse" x1="384.3359" y1="369.3932" x2="384.3359" y2="245.1638">
		<stop  offset="0" style="stop-color:#EC1C24"/>
		<stop  offset="1" style="stop-color:#EC1C24"/>
	</linearGradient>
	<path class="st6" d="M422.2,286.8c0-20.9-17-37.9-37.9-37.9c-20.9,0-37.9,17-37.9,37.9c0,16.7,12.5,24.9,26.6,25.4
		c4.4,0.1,9-1.6,11.5-3.2c3-1.9,5-2.1,7.8-4.7c1.8-1.7,1.5-2.4,2-3.2c1.2-1.6,1.4-0.3,2.2-1.7c0.4-0.6-0.4-1,0.2-1.6
		c0.4-0.4,0.8-0.2,1-0.7c0.5-1-0.3-1,0-2.2c0.4-1.2,0.7,0.5,0.7,0.2c0.1-0.8,0.1-1.4-0.3-1.8c-0.8-0.7-0.7-1.3-0.7-1.3
		c-0.3,0.8,0.3,1.5-0.8,2c-0.7,0.3,0.1,1.2-0.8,1.7c-1,0.5,0.6-0.8-1-2c0.5,1.9-1.5,1.6-1.3,3.5c0.1,1.1-1.5,0.8-1.8,1.8
		c-0.4,1.2-0.3,1.6-1,2.6c-1.2,1.6-1.6,0-4.3,0.8c-2.2,0.6-1.4,2.5-4.4,2.5c-3.1,0-4.5,1-9.9-2.3c-4.8-3-7.4-8.7-7.4-14.4
		c-0.1-10.1,9.4-20.2,19.5-20.2c10,0,18.2,8.1,18.2,18.2c0,0.4,0,0.8,0,1.2c0,0.2,0,0.3,0,0.5c0,14.8-13.2,22.4-25.4,28
		c-7,3.2-10.8,5.8-13.3,7.6c-3,2.3-6.6,5.4-9.2,9.1c-4.7,6.7-8,15.9-8,24.1v16.2h75.7V344h-43.4C381,329.8,422.2,325.9,422.2,286.8z
		"/>
	<linearGradient id="SVGID_2_" gradientUnits="userSpaceOnUse" x1="399.1701" y1="292.6699" x2="399.1701" y2="287.6242">
		<stop  offset="0" style="stop-color:#EC1C24"/>
		<stop  offset="1" style="stop-color:#EC1C24"/>
	</linearGradient>
	<path class="st7" d="M399.1,292.8c0,0-1-0.9-0.9-1.8c0.1-0.9,0.7-1.1,0.9-1.7c0.4-0.9,0.1-1.6,0.1-1.6s0.9,1.2,1,2.3
		c0.1,1.1-0.6-0.9-0.9,0.6c-0.1,0.5,0.2,0.7,0.2,1.2S399.1,292.8,399.1,292.8z"/>
</g>
</svg>
