<?xml version="1.0" encoding="utf-8"?>
<!-- Generator: Adobe Illustrator 24.0.2, SVG Export Plug-In . SVG Version: 6.00 Build 0)  -->
<svg version="1.1" id="Layer_1" xmlns="http://www.w3.org/2000/svg" xmlns:xlink="http://www.w3.org/1999/xlink" x="0px" y="0px"
	 viewBox="0 0 776.6 699" style="enable-background:new 0 0 776.6 699;" xml:space="preserve">
<style type="text/css">
	.st0{fill:#BFBFBF;}
	.st1{font-family:'ArialMT';}
	.st2{font-size:12px;}
	.st3{fill:#35A749;}
	.st4{fill:#979694;}
	.st5{fill:#FFFFFF;}
</style>
<g>
	<path class="st0" d="M331.3,481.5c-3.2,0-5.8,1.1-7.9,3.3c-2.1,2.2-3.3,5.5-3.7,9.8H343c-0.3-4.4-1.5-7.7-3.6-9.9
		C337.4,482.6,334.7,481.5,331.3,481.5z"/>
	<path class="st0" d="M546.1,503c-1.4,0.4-2.7,1.1-4,2.1c-1.3,1.1-1.9,2.5-1.9,4.4c0,1.9,0.7,3.6,2.2,5c1.5,1.4,3.4,2,5.8,2
		c2.5,0,4.9-0.6,7-1.7c2.1-1.1,3.7-2.5,4.7-4.3c1.2-1.9,1.7-5.1,1.7-9.6v-1.8c-1.9,0.7-4.6,1.4-8.2,2.2
		C549.9,502,547.4,502.6,546.1,503z"/>
	<path class="st0" d="M732.8,470.3c-10.6-70.8-36.6-124.7-4.7-244c23.5-87.9-64.7-179.8-166.5-167.9c-74.6,8.7-123,10.1-234.8-15.5
		c-109.2-25-103.9,43.3-186.8,64.6C64.4,127,32.7,189.4,43.5,258c9.5,59.9,31.8,130,33.3,188.6c1.5,58.6-13.3,133.7,60.5,171.4
		c73.8,37.6,134.3,3.8,248.9,25.3c60.1,11.2,162.1,34.5,256.7-14.1C756.7,570.6,740.3,520.3,732.8,470.3z M204.7,522.2
		c-1.1,1-2.8,1.5-5,1.5h-38c-3,0-5.2-0.7-6.6-2c-1.3-1.3-2-3.5-2-6.5v-51.9c0-2,0.3-3.6,0.9-4.9c0.6-1.3,1.5-2.2,2.8-2.8
		c1.3-0.6,2.9-0.9,4.9-0.9h36.9c2.2,0,3.9,0.5,5,1.5c1.1,1,1.6,2.3,1.6,3.9c0,1.6-0.5,2.9-1.6,3.9c-1.1,1-2.7,1.5-5,1.5h-31.5v17h29
		c2.1,0,3.7,0.5,4.8,1.4c1.1,1,1.6,2.2,1.6,3.8s-0.5,2.8-1.6,3.8c-1,1-2.6,1.5-4.8,1.5h-29v19.6h32.6c2.2,0,3.9,0.5,5,1.5
		c1.1,1,1.7,2.4,1.7,4.1C206.3,519.9,205.8,521.2,204.7,522.2z M242.6,523.3c-2.3,1.1-5.5,1.6-9.7,1.6c-4,0-7.1-0.7-9.1-2
		s-3.4-3.2-4.1-5.6c-0.6-2.4-1-5.6-1-9.6v-24.7H217c-1.9,0-3.3-0.4-4.2-1.3c-1-0.9-1.5-2-1.5-3.3c0-1.3,0.5-2.5,1.5-3.3
		c1-0.9,2.5-1.3,4.4-1.3h1.4v-7.7c0-2.1,0.1-3.7,0.2-4.9c0.1-1.2,0.4-2.2,0.9-3c0.5-0.9,1.2-1.6,2.2-2.1c0.9-0.5,2-0.8,3.2-0.8
		c1.6,0,3.1,0.6,4.4,1.8c0.9,0.8,1.4,1.8,1.7,3c0.2,1.2,0.4,2.8,0.4,5v8.8h4.7c1.8,0,3.2,0.4,4.2,1.3c1,0.9,1.4,2,1.4,3.3
		c0,1.7-0.7,2.9-2,3.6c-1.4,0.7-3.3,1-5.9,1h-2.4v23.6c0,2,0.1,3.6,0.2,4.6c0.1,1.1,0.5,2,1.1,2.6c0.6,0.7,1.6,1,3,1
		c0.8,0,1.8-0.1,3.1-0.4c1.3-0.3,2.3-0.4,3-0.4c1,0,2,0.4,2.8,1.2c0.8,0.8,1.2,1.9,1.2,3.1C246,520.6,244.9,522.2,242.6,523.3z
		 M296.2,517.1c0,2.6-0.6,4.5-1.8,5.8c-1.2,1.3-2.7,2-4.7,2c-4.2,0-6.4-2.6-6.4-7.8v-21.7c0-4.1-0.6-7.3-1.8-9.5
		c-1.2-2.2-3.5-3.3-7-3.3c-2.3,0-4.4,0.7-6.2,2c-1.8,1.3-3.2,3.1-4.1,5.3c-0.7,1.9-1,5.3-1,10.2v17c0,2.5-0.6,4.5-1.7,5.8
		c-1.1,1.3-2.7,2-4.8,2c-4.2,0-6.4-2.6-6.4-7.8v-55.7c0-2.6,0.6-4.6,1.7-5.9c1.1-1.3,2.7-2,4.7-2c2,0,3.6,0.7,4.8,2
		c1.1,1.3,1.7,3.3,1.7,5.8v19.1c1.6-1.9,3.2-3.4,4.8-4.5c1.6-1.1,3.3-1.9,5.2-2.5c1.9-0.5,3.9-0.8,6.1-0.8c3.3,0,6.2,0.7,8.7,2.1
		c2.5,1.4,4.5,3.4,6,6c0.9,1.5,1.5,3.3,1.8,5.2c0.3,1.9,0.5,4.1,0.5,6.6V517.1z M321.4,509.7c1.1,2.2,2.7,3.9,4.6,5
		c1.9,1.1,4,1.7,6.3,1.7c1.5,0,2.9-0.2,4.2-0.5c1.3-0.4,2.5-0.9,3.7-1.7c1.2-0.8,2.3-1.6,3.3-2.5c1-0.9,2.3-2.1,3.9-3.6
		c0.7-0.6,1.6-0.8,2.8-0.8c1.3,0,2.4,0.4,3.2,1.1c0.8,0.7,1.2,1.7,1.2,3.1c0,1.2-0.5,2.5-1.4,4.1c-0.9,1.6-2.3,3-4.1,4.5
		c-1.8,1.4-4.1,2.6-6.9,3.6s-6,1.4-9.6,1.4c-8.3,0-14.7-2.4-19.3-7.1c-4.6-4.7-6.9-11.1-6.9-19.2c0-3.8,0.6-7.3,1.7-10.6
		c1.1-3.2,2.8-6,4.9-8.4s4.8-4.1,8-5.3c3.2-1.2,6.7-1.9,10.5-1.9c5,0,9.3,1.1,12.9,3.2c3.6,2.1,6.3,4.9,8.1,8.2
		c1.8,3.4,2.7,6.8,2.7,10.3c0,3.2-0.9,5.3-2.8,6.3c-1.9,1-4.5,1.4-7.8,1.4h-25.1C319.7,504.9,320.3,507.4,321.4,509.7z M399.8,483.9
		c-1.1,1-2.3,1.5-3.5,1.5c-0.5,0-1.6-0.3-3.4-0.9c-1.8-0.6-3.4-0.9-4.8-0.9c-1.9,0-3.4,0.5-4.6,1.5c-1.2,1-2.1,2.5-2.8,4.4
		c-0.7,1.9-1.1,4.3-1.4,6.9c-0.3,2.7-0.4,6-0.4,9.8v10.7c0,2.6-0.6,4.6-1.8,5.9c-1.2,1.3-2.8,2-4.7,2c-1.9,0-3.4-0.7-4.6-2
		c-1.2-1.3-1.8-3.3-1.8-5.8v-35.8c0-5.8,2.1-8.7,6.3-8.7c2.1,0,3.7,0.7,4.6,2c0.9,1.4,1.5,3.3,1.6,6c1.5-2.6,3.1-4.6,4.7-6
		c1.6-1.3,3.8-2,6.5-2c2.7,0,5.3,0.7,7.9,2c2.5,1.4,3.8,3.1,3.8,5.4C401.5,481.6,400.9,482.9,399.8,483.9z M458.6,514.3
		c-2.2,3.3-5.3,5.9-9.4,7.8c-4.1,1.9-9.1,2.8-14.7,2.8c-6.8,0-12.4-1.3-16.9-3.9c-3.1-1.9-5.7-4.3-7.7-7.4c-2-3.1-2.9-6.1-2.9-9
		c0-1.7,0.6-3.1,1.8-4.4c1.2-1.2,2.7-1.8,4.5-1.8c1.5,0,2.7,0.5,3.7,1.4c1,0.9,1.9,2.3,2.6,4.2c0.9,2.2,1.8,4,2.8,5.5
		c1,1.5,2.5,2.7,4.3,3.6c1.9,1,4.3,1.4,7.3,1.4c4.1,0,7.5-1,10.1-2.9c2.6-1.9,3.9-4.3,3.9-7.2c0-2.3-0.7-4.2-2.1-5.6
		c-1.4-1.4-3.2-2.5-5.4-3.3c-2.2-0.8-5.2-1.6-8.9-2.4c-5-1.2-9.1-2.5-12.5-4.1s-6-3.7-8-6.4c-2-2.7-2.9-6-2.9-10
		c0-3.8,1-7.2,3.1-10.1c2.1-3,5.1-5.2,9-6.8s8.5-2.4,13.8-2.4c4.2,0,7.9,0.5,11,1.6c3.1,1.1,5.7,2.4,7.7,4.2c2,1.7,3.5,3.6,4.5,5.5
		c0.9,1.9,1.4,3.8,1.4,5.6c0,1.7-0.6,3.2-1.8,4.5c-1.2,1.3-2.6,2-4.4,2c-1.6,0-2.8-0.4-3.6-1.2c-0.8-0.8-1.7-2.1-2.7-3.9
		c-1.3-2.6-2.8-4.6-4.5-6.1c-1.8-1.5-4.6-2.2-8.5-2.2c-3.6,0-6.5,0.8-8.7,2.4c-2.2,1.6-3.3,3.5-3.3,5.7c0,1.4,0.4,2.6,1.1,3.6
		c0.8,1,1.8,1.9,3.1,2.6c1.3,0.7,2.7,1.3,4,1.7c1.3,0.4,3.6,1,6.7,1.8c3.9,0.9,7.4,1.9,10.6,3c3.2,1.1,5.8,2.4,8.1,4
		c2.2,1.6,3.9,3.6,5.2,6c1.2,2.4,1.9,5.3,1.9,8.8C461.8,507.2,460.7,511,458.6,514.3z M517.5,514.2c-1,1.8-2.4,3.6-4.4,5.2
		c-2,1.6-4.4,3-7.4,4c-3,1-6.3,1.5-10.1,1.5c-7.9,0-14.1-2.3-18.6-6.9c-4.5-4.6-6.7-10.8-6.7-18.6c0-5.3,1-9.9,3.1-14
		c2-4,5-7.2,8.9-9.4s8.5-3.3,13.8-3.3c3.3,0,6.4,0.5,9.2,1.5c2.8,1,5.1,2.2,7.1,3.8s3.4,3.2,4.4,4.9c1,1.7,1.5,3.4,1.5,4.9
		c0,1.5-0.6,2.8-1.7,3.9c-1.1,1.1-2.5,1.6-4.2,1.6c-1.1,0-2-0.3-2.7-0.8s-1.5-1.4-2.4-2.7c-1.6-2.4-3.2-4.2-4.9-5.4
		c-1.7-1.2-3.9-1.8-6.5-1.8c-3.8,0-6.9,1.5-9.2,4.4c-2.3,3-3.5,7-3.5,12.2c0,2.4,0.3,4.6,0.9,6.7c0.6,2,1.5,3.8,2.6,5.2
		s2.5,2.5,4.1,3.2c1.6,0.7,3.4,1.1,5.3,1.1c2.6,0,4.8-0.6,6.6-1.8c1.8-1.2,3.5-3,4.9-5.5c0.8-1.4,1.6-2.6,2.5-3.4
		c0.9-0.8,2-1.2,3.3-1.2c1.6,0,2.9,0.6,3.9,1.8c1,1.2,1.6,2.5,1.6,3.8C518.9,510.6,518.4,512.3,517.5,514.2z M509.6,375.9
		c-9.5,11.4-20.5,21.2-32.9,29.4c-10.5,7-21.8,12.5-33.7,16.7c-7.4,2.6-15,4.6-22.7,6c-4.4,0.8-8.8,1.4-13.3,1.8
		c-6.3,0.6-12.7,0.9-19,0.7c-4.1-0.1-8.1-0.5-12.2-0.9c-11-1.2-21.7-3.6-32.2-7.1c-14.3-4.9-27.6-11.8-39.9-20.6
		c-0.2-0.1-0.4-0.2-0.6-0.6c1.2-0.2,2.3-0.4,3.4-0.6c8.1-1.1,16.1-2.6,24-4.3c10.2-2.1,20.3-4.6,30.4-7.4
		c11.2-3.1,22.3-6.7,33.2-10.7c9.7-3.6,19.2-7.5,28.6-11.8c8.5-3.9,16.8-8.1,25-12.6c11.6-6.5,22.8-13.6,33.6-21.4
		c7.7-5.6,15.1-11.6,22.1-17.9c6.5-5.8,12.7-11.9,18.5-18.3c8.2-9,15.7-18.5,22.5-28.6c0.1-0.1,0.2-0.3,0.4-0.5
		c0.2,0.7,0.3,1.3,0.3,1.9c0,1.1,0,2.3,0.1,3.4c0,0.4-0.1,0.8,0.2,1.2c0,2.5,0,5.1,0,7.6c-0.3,0.7-0.2,1.5-0.2,2.2
		c0,7.5-1.1,14.9-2.4,22.3c-2.9,15.5-8.2,30.2-15.6,44.2C522.2,359.2,516.3,367.9,509.6,375.9z M574.8,523.3
		c-1.2,1.1-2.6,1.6-4.2,1.6c-1.3,0-2.6-0.6-3.9-1.9c-1.3-1.2-2.7-3-4.1-5.4c-3.1,2.4-6.1,4.2-9,5.4c-2.9,1.2-6.2,1.8-9.8,1.8
		c-3.3,0-6.2-0.7-8.7-2c-2.5-1.3-4.4-3.1-5.8-5.3c-1.4-2.2-2-4.6-2-7.3c0-3.5,1.1-6.5,3.3-9c2.2-2.5,5.3-4.1,9.2-5
		c0.8-0.2,2.8-0.6,6.1-1.3c3.2-0.7,6-1.3,8.3-1.8c2.3-0.5,4.8-1.2,7.5-2c-0.2-3.4-0.8-5.9-2-7.5c-1.2-1.6-3.7-2.4-7.5-2.4
		c-3.3,0-5.7,0.5-7.4,1.4c-1.6,0.9-3.1,2.3-4.2,4.1c-1.2,1.8-2,3-2.5,3.6s-1.5,0.9-3.1,0.9c-1.4,0-2.7-0.5-3.7-1.4
		c-1.1-0.9-1.6-2.1-1.6-3.6c0-2.3,0.8-4.5,2.4-6.6c1.6-2.1,4.1-3.9,7.5-5.3c3.4-1.4,7.6-2.1,12.7-2.1c5.6,0,10.1,0.7,13.3,2
		s5.5,3.4,6.9,6.3c1.3,2.9,2,6.7,2,11.5c0,3,0,5.6,0,7.7c0,2.1,0,4.4-0.1,7c0,2.4,0.4,4.9,1.2,7.6c0.8,2.6,1.2,4.3,1.2,5.1
		C576.7,521,576,522.2,574.8,523.3z M632.8,517.1c0,2.6-0.6,4.5-1.8,5.8c-1.2,1.3-2.7,2-4.6,2c-1.9,0-3.5-0.7-4.7-2
		c-1.2-1.3-1.8-3.3-1.8-5.8v-21.4c0-4.2-0.6-7.5-1.8-9.7c-1.2-2.2-3.5-3.4-7-3.4c-2.3,0-4.4,0.7-6.3,2s-3.3,3.2-4.1,5.6
		c-0.6,1.9-0.9,5.5-0.9,10.7v16.1c0,2.6-0.6,4.6-1.8,5.9c-1.2,1.3-2.8,2-4.7,2c-1.9,0-3.4-0.7-4.6-2c-1.2-1.3-1.8-3.3-1.8-5.8V480
		c0-2.4,0.5-4.3,1.6-5.5c1.1-1.2,2.5-1.8,4.4-1.8c1.1,0,2.1,0.3,3.1,0.8c0.9,0.5,1.6,1.3,2.2,2.4s0.8,2.4,0.8,3.9v1.6
		c2.3-3,4.7-5.2,7.4-6.6s5.8-2.1,9.3-2.1c3.4,0,6.4,0.7,9.1,2.2c2.7,1.5,4.7,3.6,6,6.3c0.8,1.6,1.4,3.3,1.6,5.1
		c0.3,1.8,0.4,4.1,0.4,7V517.1z"/>
</g>
<text transform="matrix(1 0 0 1 0 -6.728313e-06)" class="st1 st2"> </text>
<text transform="matrix(1 0 0 1 0 -6.728313e-06)" class="st1 st2"> </text>
<title>server down</title>
<path class="st0" d="M244.1,154.6L244.1,154.6c0.1,0,0.2-0.1,0.2-0.1l-0.1-0.1C244.2,154.5,244.1,154.5,244.1,154.6z"/>
<path class="st3" d="M400.3,125c6.7,0.3,13.4,1.1,20,2.4c15.8,3,30.8,8.2,44.9,16c34.5,19,58.4,47.1,71.6,84.3
	c2.6,7.3,1.4,14.2-3.3,20.4c-8.1,10.5-17.2,20-27.1,28.9c-7.9,7.1-16.1,13.6-24.6,19.9c-0.3,0.2-0.6,0.6-1.2,0.6c0-0.5,0-1,0-1.5
	c0-30,0-60,0-90c0-2.1-0.2-4.2-1.1-6.1c-2.3-5-6.3-7.7-11.8-7.8c-7.2-0.1-14.3,0-21.5,0c-7,0-12.8,5.8-12.9,12.7c0,0.7,0,1.3,0,2
	c0,36.6,0,73.2,0,109.8c0,1.2,0,2.4-0.4,3.6c-0.8,3.2-2.7,5.6-5.7,7c-3.5,1.6-7.1,3.1-10.6,4.6c-0.1,0-0.2,0-0.5,0.1
	c0-0.5,0-1,0-1.5c0-30.5,0-61.1,0-91.6c0-1.3-0.1-2.7-0.4-4c-1.5-5.8-6.7-9.9-12.7-9.9c-7.2,0-14.4,0-21.6,0c-7.2,0-13,5.8-13.2,13
	c0,0.5,0,1.1,0,1.6c0,33.1,0,66.1,0,99.2c0,2.5-0.5,4.8-2,6.9c-1.6,2.2-3.8,3.7-6.4,4.4c-2.8,0.7-5.6,1.3-8.4,2.1
	c-0.1,0-0.2,0-0.4,0c-0.2-0.4-0.1-0.9-0.1-1.4c0-26.5,0-53,0-79.5c0-1.4-0.1-2.8-0.5-4.1c-1.6-5.6-6.7-9.6-12.6-9.6
	c-7.3,0-14.5,0-21.8,0c-6.8,0-12.4,5.3-12.8,12.1c0,0.7,0,1.4,0,2.1c0,26.2,0,52.3,0,78.5c0,1.5-0.1,2.9-0.5,4.4
	c-1.3,4.3-4.8,7.1-9.3,7.6c-4.6,0.5-9.2,1-13.9,1.4c-3.2,0.3-6.4,0.2-9.5-0.9c-4.5-1.7-7.9-4.6-10.3-8.8c-4.8-8.4-8.9-17.2-12-26.4
	c-3.1-9.2-5.4-18.7-6.8-28.3c-0.6-4.2-1-8.4-1.2-12.6c0-0.3,0-0.6-0.1-0.8c-0.1-0.3-0.3-0.2-0.4,0c0-0.2,0-0.5,0-0.7
	c0.1,0.2,0.4,0.3,0.4,0c0.1-0.6,0-1.1,0-1.7c0.1-0.4,0.1-0.8,0.1-1.2c-0.1-2.6-0.1-5.2,0-7.8c0-0.4,0.1-0.9-0.1-1.3
	c0.1-2.8,0.3-5.5,0.5-8.3c0.7-8.7,2.3-17.3,4.5-25.7c12.5-46.8,46.1-85.2,91.6-103.2c10.4-4.1,21.2-7.1,32.3-8.8
	c5.3-0.8,10.6-1.4,15.9-1.7c1.8,0,3.6,0.1,5.4-0.2c1.6,0,3.3,0,4.9,0C396.7,125.1,398.5,125.1,400.3,125z"/>
<path class="st4" d="M113,308.1c0.3,0.2,0.5,0,0.8-0.1c0.3,0.9,0.1,1.7,0.1,2.6c-0.1,5.1-0.1,10.2,0,15.3c0,0.8,0.1,1.6-0.1,2.4
	c-0.3,0-0.5-0.3-0.8-0.1C113,321.5,113,314.8,113,308.1z"/>
<path class="st4" d="M397.9,18.4c0-0.2,0-0.3,0-0.5c3.5,0,7,0,10.6,0C404.9,18.5,401.4,18.5,397.9,18.4z"/>
<path class="st4" d="M428.6,18.4c-3.5,0.1-7.1,0.2-10.6-0.5c3.5,0,7,0,10.6,0C428.6,18,428.6,18.2,428.6,18.4z"/>
<path class="st5" d="M113,328.2c0.3-0.2,0.6,0,0.8,0.1c0,1.1,0.1,2.2,0,3.3c-0.1,0.6-0.5,0.3-0.8,0C113,330.4,113,329.3,113,328.2z"
	/>
</svg>
