<?xml version="1.0" encoding="utf-8"?>
<!-- Generator: Adobe Illustrator 24.0.2, SVG Export Plug-In . SVG Version: 6.00 Build 0)  -->
<svg version="1.1" id="Layer_1" xmlns="http://www.w3.org/2000/svg" xmlns:xlink="http://www.w3.org/1999/xlink" x="0px" y="0px"
	 viewBox="0 0 776.6 699" style="enable-background:new 0 0 776.6 699;" xml:space="preserve">
<style type="text/css">
	.st0{fill:#BFBFBF;}
	.st1{font-family:'ArialMT';}
	.st2{font-size:12px;}
	.st3{fill:#979694;}
	.st4{fill:#FFFFFF;}
	.st5{fill:#FBB22F;}
	.st6{fill:#35A749;}
	.st7{clip-path:url(#SVGID_2_);}
	.st8{fill:#FCD113;}
	.st9{fill:#FCE19A;}
	.st10{fill:#E5A824;}
	.st11{fill:#5B5B5B;}
	.st12{font-family:'ArialRoundedMTBold';}
	.st13{font-size:60px;}
</style>
<g>
	<path class="st0" d="M427.1,336.3h-77.6c-19.1,0-34.8,15.7-34.8,34.8v77.6c0,19.2,15.7,34.8,34.8,34.8h77.6
		c19.2,0,34.8-15.6,34.8-34.8v-77.6C461.9,352,446.3,336.3,427.1,336.3z M453.2,448.7c0,14.4-11.7,26.1-26.1,26.1h-77.6
		c-14.3,0-26.1-11.7-26.1-26.1v-77.6c0-14.3,11.7-26.1,26.1-26.1h77.6c14.4,0,26.1,11.7,26.1,26.1V448.7z"/>
	<path class="st0" d="M434.9,356c-4.2,0-7.6,3.4-7.6,7.6c0,4.2,3.4,7.6,7.6,7.6c4.2,0,7.6-3.4,7.6-7.6
		C442.5,359.4,439.1,356,434.9,356z"/>
	<path class="st0" d="M732.8,470.3c-10.6-70.8-36.6-124.7-4.7-244c23.5-87.9-64.7-179.8-166.5-167.9c-74.6,8.7-123,10.1-234.8-15.5
		c-109.2-25-103.9,43.3-186.8,64.6C64.4,127,32.7,189.4,43.5,258c9.5,59.9,31.8,130,33.3,188.6c1.5,58.6-13.3,133.7,60.5,171.4
		c73.8,37.6,134.3,3.8,248.9,25.3c60.1,11.2,162.1,34.5,256.7-14.1C756.7,570.6,740.3,520.3,732.8,470.3z M453.8,209.3
		c0.5,1.3,1.1,3.5,2,6.5l9.9,36.5l8.8-39c0.4-2,0.8-3.6,1.2-4.8c0.4-1.2,1-2.2,2-3.1c0.9-0.9,2.3-1.4,4-1.4c1.8,0,3.3,0.6,4.5,1.8
		s1.8,2.6,1.8,4.4c0,1.2-0.3,3.2-1,6l-11.1,45c-0.8,3-1.4,5.3-1.9,6.7s-1.4,2.7-2.6,3.7c-1.2,1.1-2.9,1.6-5.1,1.6
		c-2.1,0-3.7-0.5-5-1.6c-1.2-1-2.1-2.2-2.6-3.5s-1.2-3.5-2.1-6.6l-10.8-40.1l-10.9,40.1c-0.9,3-1.5,5.2-2,6.5s-1.4,2.5-2.6,3.6
		c-1.2,1-2.9,1.6-5,1.6c-1.7,0-3-0.3-4.1-0.9c-1.1-0.6-2-1.5-2.6-2.6c-0.7-1.1-1.2-2.5-1.6-4.1c-0.4-1.6-0.8-3-1.1-4.4l-11.1-45
		c-0.7-2.6-1-4.6-1-6c0-1.7,0.6-3.2,1.8-4.4c1.2-1.2,2.7-1.8,4.5-1.8c2.5,0,4.1,0.8,5,2.4c0.9,1.6,1.6,3.9,2.2,6.9l8.8,39l9.8-36.5
		c0.7-2.8,1.4-4.9,2-6.4c0.6-1.5,1.5-2.7,2.8-3.8c1.3-1.1,3.1-1.6,5.3-1.6c2.3,0,4.1,0.6,5.3,1.7C452.4,206.8,453.3,208,453.8,209.3
		z M394.7,144.4L394.7,144.4c0-2.7,0.6-4.8,1.8-6.1c1.2-1.4,2.8-2,4.9-2c1.3,0,2.4,0.3,3.4,0.9c1,0.6,1.8,1.5,2.5,2.7
		c0.6,1.2,0.9,2.7,0.9,4.4v1.7c2.5-3.3,5.3-5.8,8.3-7.4c3-1.6,6.5-2.3,10.4-2.3c3.8,0,7.2,0.8,10.2,2.5c3,1.7,5.2,4,6.7,7
		c1,1.8,1.6,3.7,1.8,5.7c0.3,2,0.4,4.6,0.4,7.8V186c0,2.9-0.7,5.1-2,6.5c-1.3,1.5-3,2.2-5.1,2.2c-2.1,0-3.9-0.8-5.2-2.3
		c-1.3-1.5-2-3.7-2-6.5v-24c0-4.7-0.7-8.4-2-10.9s-3.9-3.8-7.9-3.8c-2.6,0-4.9,0.8-7,2.3c-2.1,1.5-3.7,3.6-4.6,6.3
		c-0.7,2.1-1.1,6.2-1.1,12v18c0,2.9-0.7,5.1-2,6.6s-3.1,2.2-5.3,2.2c-2.1,0-3.8-0.8-5.1-2.3c-1.3-1.5-2-3.7-2-6.5V144.4z
		 M392.7,220.2c2.6,5.2,3.8,11.3,3.8,18.3c0,5.2-0.7,9.9-2.1,14.1c-1.4,4.2-3.5,7.9-6.3,11c-2.8,3.1-6.2,5.5-10.3,7.1
		c-4.1,1.6-8.7,2.5-14,2.5c-5.2,0-9.9-0.8-14-2.5c-4.1-1.7-7.6-4.1-10.4-7.1c-2.8-3.1-4.9-6.8-6.3-11.1c-1.4-4.3-2.1-9-2.1-14
		c0-5.1,0.7-9.9,2.2-14.1c1.5-4.3,3.6-7.9,6.4-10.9s6.2-5.3,10.2-6.9c4-1.6,8.6-2.4,13.7-2.4c6.9,0,12.9,1.4,17.9,4.2
		C386.4,211,390.2,215,392.7,220.2z M364,148.8c-1.4-1.8-4.2-2.7-8.4-2.7c-3.7,0-6.4,0.5-8.3,1.5c-1.8,1-3.4,2.6-4.7,4.6
		s-2.3,3.4-2.8,4c-0.5,0.7-1.7,1-3.5,1c-1.6,0-3-0.5-4.2-1.6c-1.2-1-1.8-2.4-1.8-4c0-2.5,0.9-5,2.7-7.4c1.8-2.4,4.6-4.4,8.4-5.9
		s8.5-2.3,14.2-2.3c6.3,0,11.3,0.7,14.9,2.2c3.6,1.5,6.2,3.9,7.7,7.1s2.2,7.5,2.2,12.9c0,3.4,0,6.2,0,8.6c0,2.4,0,5-0.1,7.9
		c0,2.7,0.4,5.5,1.3,8.5c0.9,2.9,1.3,4.8,1.3,5.7c0,1.5-0.7,2.8-2.1,4c-1.4,1.2-3,1.8-4.7,1.8c-1.5,0-2.9-0.7-4.4-2.1
		c-1.4-1.4-3-3.4-4.6-6c-3.5,2.7-6.9,4.7-10.1,6.1c-3.3,1.4-6.9,2-11,2c-3.7,0-6.9-0.7-9.7-2.2c-2.8-1.5-5-3.4-6.5-5.9
		s-2.3-5.2-2.3-8.1c0-3.9,1.2-7.3,3.7-10.1c2.5-2.8,5.9-4.6,10.3-5.6c0.9-0.2,3.2-0.7,6.8-1.4c3.6-0.7,6.7-1.4,9.3-2
		c2.6-0.6,5.4-1.4,8.4-2.2C366.2,153.3,365.4,150.6,364,148.8z M262.9,123.6L262.9,123.6c0.1-2.9,0.7-5.1,1.9-6.6
		c1.2-1.5,2.8-2.2,4.9-2.2c2.2,0,3.9,0.7,5.1,2.1c1.2,1.4,1.8,3.5,1.8,6.1v22c2.7-2.8,5.5-5,8.3-6.5s6.3-2.2,10.4-2.2
		c4.8,0,9,1.1,12.6,3.4c3.6,2.3,6.4,5.6,8.4,9.9s3,9.4,3,15.3c0,4.4-0.6,8.4-1.7,12c-1.1,3.6-2.7,6.8-4.8,9.5
		c-2.1,2.7-4.7,4.7-7.7,6.2s-6.3,2.2-9.9,2.2c-2.2,0-4.3-0.3-6.3-0.8s-3.6-1.2-5-2.1c-1.4-0.9-2.5-1.8-3.5-2.7
		c-1-0.9-2.2-2.3-3.8-4.1v1.4c0,2.7-0.7,4.8-2,6.1c-1.3,1.4-3,2.1-5,2.1s-3.7-0.7-4.9-2.1c-1.2-1.4-1.8-3.4-1.8-6.1V123.6z
		 M276,265.3c0,2.6-0.6,4.5-1.8,5.8s-2.7,2-4.6,2c-1.9,0-3.5-0.7-4.6-2c-1.2-1.3-1.7-3.2-1.7-5.8v-51.6c0-2.2,0.2-3.9,0.7-5.2
		c0.6-1.4,1.5-2.5,2.9-3.4c1.3-0.9,2.8-1.3,4.3-1.3c1.2,0,2.3,0.2,3.1,0.6c0.9,0.4,1.6,0.9,2.3,1.6c0.7,0.7,1.3,1.5,2,2.6
		c0.7,1.1,1.4,2.2,2.1,3.3l26,39.4v-39.8c0-2.6,0.6-4.5,1.7-5.8c1.1-1.3,2.6-1.9,4.5-1.9c1.9,0,3.5,0.6,4.6,1.9
		c1.3,1.5,1.8,3.5,1.8,6v52.6c0,5.9-2.4,8.8-7.3,8.8c-1.2,0-2.3-0.2-3.3-0.5c-1-0.4-1.9-0.9-2.7-1.7c-0.9-0.8-1.6-1.6-2.4-2.7
		c-0.7-1-1.5-2.1-2.2-3.1l-25.4-39V265.3z M490.3,477.9c0,18.7-15.3,34-34,34h-136c-18.7,0-34-15.3-34-34v-136c0-18.7,15.3-34,34-34
		h136c18.7,0,34,15.3,34,34V477.9z M510,271.2c-1.4,1.2-3,1.8-4.8,1.8c-1.9,0-3.5-0.6-4.9-1.8c-1.4-1.2-2.1-2.9-2.1-5
		c0-1.9,0.7-3.5,2-4.8s2.9-2,4.9-2s3.5,0.7,4.9,2c1.4,1.3,2.1,2.9,2.1,4.8C512.1,268.3,511.4,270,510,271.2z M498.1,211.9
		c0-2.5,0.7-4.5,2-5.9c1.3-1.4,3.1-2.1,5.2-2.1c2.6,0,4.4,0.9,5.2,2.7c0.9,1.8,1.3,4.4,1.3,7.8c0.3,2.1,0.2,4.2-0.1,6.2l-2,22.5
		c-0.2,2.7-0.7,4.7-1.4,6.2c-0.7,1.4-1.9,2.1-3.5,2.1c-1.6,0-2.8-0.7-3.4-2.1c-0.6-1.4-1.1-3.5-1.4-6.3l-1.5-21.9
		C498.2,216.8,498.1,213.8,498.1,211.9z M510.2,192.9c-1.4,1.2-3,1.8-4.7,1.8c-1.5,0-2.9-0.7-4.4-2.1c-1.4-1.4-3-3.4-4.6-6
		c-3.5,2.7-6.9,4.7-10.1,6.1c-3.3,1.4-6.9,2-11,2c-3.7,0-6.9-0.7-9.7-2.2c-2.8-1.5-5-3.4-6.5-5.9s-2.3-5.2-2.3-8.1
		c0-3.9,1.2-7.3,3.7-10.1c2.5-2.8,5.9-4.6,10.3-5.6c0.9-0.2,3.2-0.7,6.8-1.4c3.6-0.7,6.7-1.4,9.3-2c2.6-0.6,5.4-1.4,8.4-2.2
		c0.3-3.9-0.5-6.6-1.9-8.4c-1.4-1.8-4.2-2.7-8.4-2.7c-3.7,0-6.4,0.5-8.3,1.5c-1.8,1-3.4,2.6-4.8,4.6c-1.3,2-2.3,3.4-2.8,4
		c-0.5,0.7-1.7,1-3.5,1c-1.6,0-3-0.5-4.2-1.6c-1.2-1-1.8-2.4-1.8-4c0-2.5,0.9-5,2.7-7.4c1.8-2.4,4.6-4.4,8.4-5.9s8.5-2.3,14.2-2.3
		c6.3,0,11.3,0.7,14.9,2.2c3.6,1.5,6.2,3.9,7.7,7.1s2.2,7.5,2.2,12.9c0,3.4,0,6.2,0,8.6c0,2.4,0,5-0.1,7.9c0,2.7,0.4,5.5,1.3,8.5
		c0.9,2.9,1.3,4.8,1.3,5.7C512.3,190.4,511.6,191.7,510.2,192.9z"/>
	<path class="st0" d="M388.3,362.4c-26.2,0-47.5,21.2-47.5,47.5c0,26.2,21.2,47.5,47.5,47.5c26.2,0,47.5-21.2,47.5-47.5
		C435.8,383.7,414.5,362.4,388.3,362.4z M388.3,447.5c-20.8,0-37.6-16.8-37.6-37.6c0-20.8,16.9-37.6,37.6-37.6s37.6,16.9,37.6,37.6
		C425.9,430.7,409.1,447.5,388.3,447.5z"/>
</g>
<text transform="matrix(1 0 0 1 0 -6.728313e-06)" class="st1 st2"> </text>
<text transform="matrix(1 0 0 1 0 -6.728313e-06)" class="st1 st2"> </text>
<title>server down</title>
<path class="st0" d="M244.1,154.6L244.1,154.6c0.1,0,0.2-0.1,0.2-0.1l-0.1-0.1C244.2,154.5,244.1,154.5,244.1,154.6z"/>
<path class="st3" d="M113,308.1c0.3,0.2,0.5,0,0.8-0.1c0.3,0.9,0.1,1.7,0.1,2.6c-0.1,5.1-0.1,10.2,0,15.3c0,0.8,0.1,1.6-0.1,2.4
	c-0.3,0-0.5-0.3-0.8-0.1C113,321.5,113,314.8,113,308.1z"/>
<path class="st3" d="M397.9,18.4c0-0.2,0-0.3,0-0.5c3.5,0,7,0,10.6,0C404.9,18.5,401.4,18.5,397.9,18.4z"/>
<path class="st3" d="M428.6,18.4c-3.5,0.1-7.1,0.2-10.6-0.5c3.5,0,7,0,10.6,0C428.6,18,428.6,18.2,428.6,18.4z"/>
<path class="st4" d="M113,328.2c0.3-0.2,0.6,0,0.8,0.1c0,1.1,0.1,2.2,0,3.3c-0.1,0.6-0.5,0.3-0.8,0C113,330.4,113,329.3,113,328.2z"
	/>
<path class="st0" d="M373.7,217.5c-2.9-1.8-6.3-2.8-10.1-2.8c-2.7,0-5.2,0.5-7.5,1.5s-4.3,2.5-5.9,4.4c-1.7,1.9-3,4.4-3.9,7.5
	c-1,3-1.4,6.4-1.4,10.2s0.5,7.2,1.4,10.3c1,3.1,2.3,5.6,4.1,7.6c1.7,2,3.8,3.5,6,4.5c2.3,1,4.8,1.5,7.5,1.5c3.5,0,6.7-0.9,9.6-2.6
	s5.2-4.4,6.9-8c1.7-3.6,2.6-8.1,2.6-13.4c0-4.9-0.8-9.1-2.4-12.7C378.9,222.1,376.6,219.4,373.7,217.5z"/>
<path class="st0" d="M291.5,183.6c3.6,0,6.7-1.6,9.4-4.7c2.6-3.1,3.9-7.7,3.9-13.5c0-3.8-0.5-7.1-1.6-9.8s-2.6-4.9-4.6-6.4
	s-4.3-2.2-7-2.2s-5.2,0.7-7.3,2.2c-2.1,1.5-3.8,3.7-5.1,6.5c-1.2,2.8-1.8,6.2-1.8,10.1c0,5.7,1.3,10.1,3.9,13.2
	S287.3,183.6,291.5,183.6z"/>
<path class="st0" d="M351.2,185.3c2.8,0,5.5-0.6,7.9-1.9c2.4-1.2,4.2-2.9,5.3-4.8c1.3-2.2,2-5.8,2-10.8v-2.1
	c-2.1,0.8-5.2,1.6-9.2,2.5s-6.8,1.5-8.4,1.9c-1.5,0.4-3,1.2-4.4,2.4s-2.1,2.8-2.1,4.9c0,2.2,0.8,4,2.5,5.6
	C346.3,184.6,348.5,185.3,351.2,185.3z"/>
<path class="st0" d="M478.3,170.1c-1.5,0.4-3,1.2-4.4,2.4s-2.1,2.8-2.1,4.9c0,2.2,0.8,4,2.5,5.6c1.7,1.5,3.8,2.3,6.5,2.3
	c2.9,0,5.5-0.6,7.9-1.9c2.4-1.2,4.2-2.9,5.3-4.8c1.3-2.2,2-5.8,2-10.8v-2.1c-2.1,0.8-5.2,1.6-9.2,2.5
	C482.6,169.1,479.8,169.7,478.3,170.1z"/>
<g>
	<ellipse class="st5" cx="363.7" cy="238.5" rx="36" ry="35.8"/>
	<ellipse class="st6" cx="363.7" cy="238.5" rx="26.2" ry="26.1"/>
	<g>
		<g>
			<defs>
				<ellipse id="SVGID_1_" cx="363.7" cy="238.5" rx="26.2" ry="26.1"/>
			</defs>
			<clipPath id="SVGID_2_">
				<use xlink:href="#SVGID_1_"  style="overflow:visible;"/>
			</clipPath>
			<g class="st7">
				<path class="st8" d="M377.7,259.3c-2-4-3.1-8.9-1.8-13.3c1-3.4,4.4-5.5,9.9-5.5c6.6,0,5.8-3.7,5.8-3.7s-0.8,3.6-13,2.8
					c-6.4-0.4-11.7,3.1-8.6,14.1C370,253.8,377.7,259.3,377.7,259.3z"/>
				<path class="st9" d="M368.7,243.1c-5-13.2,1.7-23.2-2.7-26.9c-3.8-3.2-9.5,2.6-12,11.7c2.6,0.1,4.8,2.2,5,4.9
					c0.2,2.9-2,5.4-4.9,5.5c2.9-0.2,5.4,2,5.5,4.9c0.2,2.9-2,5.4-4.9,5.5h-0.2c0.1,0.3,0.2,0.5,0.3,0.8c5,13.8,17.4,20.7,22.4,15.5
					C381.9,260,372.8,254,368.7,243.1z"/>
				<path class="st5" d="M365.2,265.3c-7.9-7-8.9-12.6-12.2-10.1c0,0,1.9-1.7,5.3-4.3c5.8-4.5,19.7,3.6,20.2,11.4
					C378.7,266.4,370.7,270.1,365.2,265.3z"/>
				<path class="st8" d="M364.3,249.6c-2.9-0.9-6.9,1.7-8.1,9.3c-0.9,5.7-3.1,8.2-4.5,8.9c-2.1,1-4.5-0.3-4.5-0.3s2.3-0.5,3-5.2
					c0.8-5.4,1.1-6.8,2.9-8.3c1.8-1.4,4.1-2.9,6.6-3.9C362.6,248.9,364.3,249.6,364.3,249.6z"/>
				<path class="st10" d="M342.4,265c1.6-0.8,5,3.7,9.6,2.7c0,0-3.1,1.2-5.5,1.2C344,268.8,341.6,265.4,342.4,265z"/>
				<path class="st5" d="M364.6,242.9c-0.2-2.9-2.7-5.1-5.5-4.9c2.9-0.2,5.1-2.7,4.9-5.5c-0.2-2.9-2.7-5.1-5.5-4.9L354,228
					c0.1,0,2.2,0.2,3.8,1.8c0.7,0.8,1.2,1.9,1.3,3.1c0.2,2.9-2,5.3-4.9,5.5c0.1,0,0.2,0,0.2,0c2.8,0,5.1,2.1,5.3,4.9
					c0.2,2.7-1.8,5.1-4.5,5.5l4.6-0.3C362.6,248.2,364.8,245.8,364.6,242.9z"/>
			</g>
		</g>
	</g>
</g>
<circle class="st11" cx="926" cy="366.9" r="11"/>
<text transform="matrix(1 0 0 1 239.8236 585.9894)" class="st6 st12 st13">Instagram</text>
</svg>
