<?xml version="1.0" encoding="utf-8"?>
<!-- Generator: Adobe Illustrator 24.0.2, SVG Export Plug-In . SVG Version: 6.00 Build 0)  -->
<svg version="1.1" id="Layer_1" xmlns="http://www.w3.org/2000/svg" xmlns:xlink="http://www.w3.org/1999/xlink" x="0px" y="0px"
	 viewBox="0 0 776.6 699" style="enable-background:new 0 0 776.6 699;" xml:space="preserve">
<style type="text/css">
	.st0{fill:#BFBFBF;}
	.st1{font-family:'ArialMT';}
	.st2{font-size:12px;}
	.st3{fill:#5B5B5B;}
	.st4{fill:#35A749;}
	.st5{font-family:'ArialRoundedMTBold';}
	.st6{font-size:40px;}
</style>
<g>
	<path class="st0" d="M580.6,406.7c-0.4-1.6-1.2-3.9-3.1-5.1c-1.2,0.4-1.6,1.6-1.2,2.7c0,1.2,0,2.7,1.6,3.5c1.6,0.4,3.5,0.8,5.1-0.4
		l0.8-2.7C582.2,405.1,583,407.1,580.6,406.7z"/>
	<path class="st0" d="M608.8,241.2c-0.4-0.4-0.8,0-1.2,0.4c-0.8,0.8-1.6,1.6-0.8,2.7c1.6,0,2.4-0.8,2.4-2
		C609.2,242,609.2,241.2,608.8,241.2z"/>
	<path class="st0" d="M614.3,234.2c0,0,0.8,0,0.8-0.4v-2.4c-0.8,0.8-1.2,1.2-1.2,2C613.6,233.4,613.9,233.8,614.3,234.2z"/>
	<path class="st0" d="M577.5,411.4c-0.4-0.4-1.2,0.4-1.2,0.8c0,0.8,0.4,1.2,0.8,1.2c0.4,0.4,1.2,0,1.2-0.8
		C577.9,412.2,577.9,411.4,577.5,411.4z"/>
	<path class="st0" d="M170,217.3c0-0.9-0.1-1.3-0.4-1.3c-0.1,0-0.2,0.4-0.2,1.3c0,0.8,0.1,1.1,0.2,1.1
		C169.9,218.5,170,218.1,170,217.3z"/>
	<path class="st0" d="M732.8,470.3c-6.9-46.4-20.5-85.5-20-140.6l-7.6,7.7l-5.2,4c-1.9,1.8-3.9,4-3.5,7.5c-0.1,0.4-0.1,0.4,0.2,0.5
		c3.3-3.4,6.6-6.8,10.2-10.1c0.8-1,1.8-1.5,2-1c0.5,1-0.2,1.6-0.4,2.3c-1.4,1.6-2.4,3.3-3.3,4.7l-1.7,2.3c-4.1,2.3-6.8,6.3-10,9.4
		l-21.8,18.1c-5.9,5-12.4,8.1-19.3,11.1c-4.9,2-10.3,2.2-15.7,1.9c-1.6-0.2-3.5-0.8-5.2-1.8c-6.1-3.8-11.6-8.3-15.1-14.9
		c-0.5-1-1.3-2.1-1.4-3c-3.3-9.5-4.5-19.1-1.5-28.8c1.8-5.2,4-10.2,7.3-14.9c2.7-4,5.5-8.5,8.5-12.4c1.3-1.2,2.2-2.6,3.3-3.4
		c4.9-4.5,9.7-8.6,14.9-12.6c2.4-2.1,5.2-4,7.8-5.6l8.7-5.7c4.4-3,9.2-3.8,14.6-2.3c2.3,0.4,4.9,1.3,7.5,1c1.7-0.2,3.1,0.7,4.3,1.9
		c1.1,1.6,2.2,3.3,2.6,5.5c1.2,3.7-0.6,7.7,0.4,11.8c-1.4,2.8-2.1,5.9-4.2,8.5c-1.7,2.3-3.5,4.2-3.9,7.4c-0.4,1.1-2,2.2-3.3,3.4
		c-4.5,4.6-9.2,9.6-14.8,13.5c-0.6,0.6-1.1,0.8-1.4,1.6c-4.1,5.6-10.6,7.5-16.7,9.5l-6.5,1.9c-3.1-0.7-5.8-1.2-8.8-2.3
		c-2-0.3-3.5-0.8-4.9-2.6c-0.2-0.5-1.2-1.3-2.1-1.2c-5.9,9.6-5.6,27.6,1.5,34.6c4.8,0.5,9.3-0.4,13.4-2.7l8.7-3.6
		c2.9-1.1,5.6-3,7.9-4.7l9.6-7c1.8-1.5,3.5-2.9,5.5-3.9c1.8-1.5,3.3-3.4,5.5-3.9c0.9-0.1,1.1-0.8,1.8-1.5c2.4-3.3,6.1-5.3,8.5-8.7
		c0.3-0.7,1.3-1.2,1.9-1.8c0.6-0.6,1.5-0.7,1.6-1.1c0.7-3.1,3.5-4.2,5.4-6l9.5-9.1l5-4.6c1.1-26.4,5.4-56.5,15.1-92.6
		c23.5-87.9-64.7-179.8-166.5-167.9c-74.6,8.7-123,10.1-234.8-15.5c-109.2-25-103.9,43.3-186.8,64.6C64.4,127,32.7,189.4,43.5,258
		c6.7,42,19.6,89,27.3,133.5c9.4-5.8,21.4-8.7,36.1-8.7c3.3,0,9.5,0.3,18.6,0.8c3.1,0.3,11.2,0.6,15.3,0.6c2.7-13,4.2-19.4,5.2-24
		l4.3-21.8c9.7-40.8,13.3-67.1,14.1-89.8l0.8-19.9c0-11.7-2.8-16.1-3.5-17.1c-13.1-18.1-40.5,0-49.9,25.2l1.8-8.4
		c-3.6-0.1-11,17.5-12.9,22.1c-0.1,0.2-10.4,28.7-15.5,40c0,0.1,0,0.1,0,0.2c0,0.8-0.1,1.1-0.4,1.1c-0.1,0-0.1-0.1-0.1-0.3
		c-1.1,2.3-1.9,3.6-2.2,3.5c-2.6-0.9-3.8-4.1-3.8-9.8c0-4.5,0.8-10.3,2.3-17.6c2-10.1,5.1-20.1,9.1-30.2c4-10,8.4-18.5,13.1-25.4
		c3.1-4.2,6.9-8.5,11.5-12.8c4.6-4.3,8.7-7.5,12.4-9.6c5-2.7,8.6-4.1,11-4.2c2.4-0.1,3.8-0.2,4.3-0.2c4,0,8.4,0.9,13.3,2.6
		c4.9,1.7,9.5,2.1,12.9,3.5c3.3,1.3,7.6,6.8,12.4,10c3.3,2.7,9,10.1,10.3,14.6c1.1,4.1,1.7,10.9,1.7,20.3V248
		c0,25.8-6,63.2-18,112.2c-2.6,10.7-4.6,18.3-6.1,22.6c-1.1,3.6-1.7,5.7-1.7,6.5c0,1,7.3,2.9,9.1,3.2c6,1.3,22.8,6.3,50.4,15.1
		c4.5,1.7,11,4.1,19.6,7.2c8.6,3.1,17.3,6.4,25.9,9.7c47.4,17.6,80.7,29.1,100,34.5c34.5,9.4,65.5,14.2,93.1,14.2
		c16.2,0,28.8-2.4,37.9-7.1c7.7-4,11.5-8,11.5-12.1c0-2.2-0.4-3.6-1.1-4.2c-0.8-0.6-1.1-1.1-1.1-1.3c0-0.6,0.7-1.1,2.1-1.3
		c0.5,0,0.9,0.1,1.1,0.4c0.3,0.3,0.7,0.4,1.3,0.4h1c0.8,0,1.5,0.3,2.1,0.9c0.6,0.6,1.3,0.9,1.9,0.9c0.4,0,0.7-0.1,1-0.2
		c0.6,0,1.4,0.3,2.2,0.8c0.8,0.5,1.8,0.8,2.8,0.8h1.3c2.8,0,5.5,1.2,8,3.6c2.6,2.4,3.8,5.1,3.8,8c0,3.8-2.2,8-6.5,12.4
		c-7.9,7-20.2,11.4-36.8,13.2c-5,0.4-11.5,0.6-19.5,0.6c-39.2,0-85.7-9.1-139.6-27.2c-18.8-6.3-44.4-15.4-77-27.6
		c-19.8-7.4-33.1-12.3-39.8-14.6c-11.5-4.1-22.1-7.3-32-9.6c-9.8-2.3-16.9-3.4-21.1-3.4c0,0-23.8-3.3-33.1-3.3
		c-3.8,0-7.2,0.2-10,0.6c-27.1,4.9-42.8,12.3-47.1,22.2c-0.6,1.5-1.5,2.3-2.7,2.3c0,0-0.1,0-0.1,0c0.5,6.2,0.9,12.3,1.1,18.3
		c1.5,58.6-13.3,133.7,60.5,171.4c73.8,37.6,134.3,3.8,248.9,25.3c60.1,11.2,162.1,34.5,256.7-14.1
		C756.7,570.6,740.3,520.3,732.8,470.3z M379.8,366.7c-1.6,2.4-2.7,4.7-4.3,6.7c-2.4,3.5-5.5,6.7-9,9c-0.8,0.4-2,0.8-2.7,0.8
		c-3.5-0.8-7.5-0.8-10.6-3.1c-1.2-1.2-2.7-2-3.9-2.7c-2-0.8-3.5-2.4-4.3-4.3c-2.4-5.9-4.7-11.8-3.9-18l0.4-0.4l2.7,4.3
		c0.8-0.4,1.6-0.4,2.4-0.4c1.2-2.4,1.2-4.3-0.8-5.9c1.6-3.1,3.1-5.9,1.6-9.8c-1.2,2-2.4,3.5-3.9,4.7c-1.2,1.6-2.7,2.7-3.9,3.9
		c-1.2,2-2.4,3.5-3.9,4.7c-1.2,1.6-2.4,3.1-3.9,4.3c-2.7,2.7-5.5,5.5-8.6,7.8c-2.4,2-5.1,3.1-8.2,2.4c-3.5-0.8-6.7-1.2-9.8-2.7
		c-4.3-1.6-7.5-4.7-10.6-7.8c-0.5-0.5-1-1.1-1.5-1.7c-0.5,0.9-1.2,1.7-2,2.5c-1.6,1.6-3.1,3.5-4.3,5.5l-3.9,5.5
		c-1.6,1.6-2.7,2.4-4.7,2.7c-2,0.4-3.9,1.2-5.9,2c-0.4-0.8-0.8-1.6-0.8-2.7c-1.6-0.4-2.7-1.2-4.3-2c-1.6-0.8-3.1-1.2-4.3-2
		c-2-1.2-3.1-2.7-3.5-5.1c0-1.6-0.4-3.5-0.8-5.5c-0.8,0.4-1.6,0.4-2,0.8l-3.5,5.1l-2.4,4.3c-2.7,3.5-5.5,7.1-9.8,8.2
		c-0.8,0-1.6,0.4-2,0.8c-5.9,3.1-11.8,2.7-17.3-0.8l-2.4-1.2c-5.9-3.5-8.6-8.2-9.4-14.9c0-2.7-0.4-5.9-0.4-8.6c0-4.3,0.4-8.2,2-11.8
		c2.7-7.5,5.5-15.3,9.4-22.4c4.7-7.8,9.4-15.3,14.9-22.4c0.4-0.4,0.4-0.4,0.4-0.8c3.9-5.1,7.1-10.2,12.2-13.7c1.2-0.8,2-2,2.4-2.7
		c1.6-3.5,4.3-5.1,7.8-6.3c3.9-1.6,8.2-2,12.2-2c3.5,0,6.3,2,8.6,4.3c1.2,0.8,2.4,2,2.7,3.5c1.6,3.9,3.5,7.5,5.9,10.6
		c0.8,3.5,0,6.7-1.2,9.8c-5.5,13.7-10.6,27.5-14.1,42c-0.8,3.9-1.6,7.8-1.2,11.8c0.4,3.5-0.4,7.5,0.8,11.4c0.8-0.4,1.6-0.4,2-0.8
		c5.1-4.3,7.8-9.4,11-15.3c0.4-0.4,0.4-1.2,0.4-2c0.4-2.4,0.8-5.1,2.7-7.1l3.7-4c0.5-1.3,0.9-2.7,1.4-4c-0.1-1.5-0.2-2.8,1.3-3.6
		c1.6-4.3,3.3-8.6,5.4-12.7c4.7-8.6,10.2-16.1,16.5-23.1l7.1-7.8l5.1-4.7c1.2-1.6,2.7-2.4,4.7-2.4l8.2-1.2c3.1-0.4,5.9,0.4,9,1.6
		l5.9-3.1c2.4-5.1,3.1-10.2,2.4-15.7c-0.8-3.9,0-7.5,1.2-11c0.8-2.7,2-5.5,3.1-8.2c0.8-2.4,2-4.7,2-7.5c0.4-2,1.2-3.9,2-5.9
		c1.6-4.3,3.1-9,4.3-13.7c0.8-2.7,2.7-3.5,5.5-3.1c4.3,1.2,7.1,3.9,9.8,7.5c0.8,1.6,1.2,3.5,0.4,5.1l-3.5,10.6
		c-3.5,8.2-5.9,16.9-9,25.5c-3.5,10.6-6.3,21.2-8.6,32.2c-3.1,12.2-6.3,23.9-8.6,36.5c-1.6,9.8-3.9,19.2-3.5,29.4
		c0.4,7.1,0.4,9.4,3.1,14.9c0.8,0.4,1.6,0,2.4-0.8c3.1-2.7,5.5-5.5,7.5-9c3.5-7.1,7.8-13.7,11-20.8c2-5.5,5.1-10.6,8.2-16.1
		c0.8-1.2,1.2-2.7,3.5-2.7c0,0.8,0.4,1.2,0.4,2c0,2.4-1.2,4.7-2,7.5c-2,6.3-5.1,12.2-5.9,18.8c-1.2,1.6-1.6,3.5-2,6.7l3.1-3.1
		c0.4,0,0.8-0.4,1.2,0c0.4,0,0.8,0.8,0.8,1.2C383.4,358.5,382.2,362.8,379.8,366.7z M485.7,321.6c-3.1,2.4-6.7,3.9-8.2,7.5
		c-3.9,3.1-7.5,6.7-12.2,9c-6.3,2.7-11.8,6.3-17.6,10.2c-1.6,3.1-2,7.5-2.7,11c-1.2,4.3-1.6,8.6-3.1,12.9c-1.2,3.1-2,6.3-2.4,9.4
		c-0.4,4.3-2.7,8.2-4.3,12.2c-1.2,3.1-3.1,6.3-5.1,9c-2.4,3.1-5.1,5.5-7.5,8.2c-0.8,0.4-1.6,0.8-2,0.8c-6.7,1.6-6.7,1.2-13.3-1.2
		c-4.7-1.6-8.2-4.3-12.2-7.1l-2.4-2.4c-1.6-2.4-2.7-5.1-4.3-7.8c-2-5.5-0.8-10.6,2.7-14.9c5.5-5.9,10.6-11.8,17.3-16.1l5.9-5.1
		c4.3-3.9,9-7.8,14.1-10.6c2.4-1.6,3.9-3.5,5.5-4.7c1.6-3.9,1.2-7.5,3.1-10.6l0.8-2.7c0-2.7,0.4-5.5,0.8-8.2l-0.4-0.4
		c-1.6,0-2.4,1.6-3.1,2.4c-2.4,3.5-4.3,7.5-7.5,9.8l-7.5,5.5c-2,1.2-3.9,1.6-5.9,0.8c-3.9-1.2-7.8-2.4-10.6-5.1
		c-0.4-0.8-1.2-1.6-2-2c-5.9-3.5-7.8-9-8.6-15.3c-0.8-9-0.8-18.4,1.6-27.5l2.4-7.8c0.4-1.6,1.2-2.7,2-3.9c0.8-1.2,2.4-1.6,3.9-1.2
		c1.2,0.4,2.4,0.8,3.1,1.6c2,2.4,4.7,4.3,5.1,8.2c-0.4,2.7-1.6,5.9-2.4,9c-2.4,9-3.1,18.4-1.6,28.2c0.4,1.6,0.4,3.1,2,4.3
		c2,0,3.1-1.6,4.7-2.7c3.1-2,6.3-4.7,8.2-7.8c3.5-5.1,7.1-9.4,10.6-14.1c2.7-3.5,5.1-7.1,7.1-11l4.7-8.2c2-2.7,2.7-5.1,2.7-8.6
		c0-0.8,0.8-2,1.6-3.1c2,0.4,3.5,0.4,4.7,1.2c1.2,0.4,2.7,1.2,3.5,2c1.6,2,2.7,3.9,3.9,5.9c1.2,1.6,1.6,3.1,1.2,5.1
		c-2,10.2-3.9,20.4-6.3,30.6c-0.4,3.1-2,6.3-2.7,9.4c0,1.2-0.4,2.4-0.4,3.5c0,0.4,0.4,0.8,0.4,1.2l12.9-5.1c2.7-1.2,6.3-2,9-3.1
		c3.5-1.6,7.1-1.2,11-2C485.7,321.2,485.7,321.6,485.7,321.6z M604.5,321.2c-0.4,2-0.8,3.5-0.8,5.5l-1.2,3.9
		c-3.9,10.2-7.5,20.4-9.8,31c-1.2,3.9-2,7.8-2.7,11.4c0,1.2-0.4,2.4-0.4,3.5c0,7.5-2,14.9-3.5,22c-0.4,2-0.8,3.9,0,6.3
		c0.4,0.8,0,2,0.4,3.1c0.4,7.8,1.2,15.7,2.7,23.5l3.5,11.8c0.8,2,2,3.5,3.1,5.5l5.5,8.6c0,0.8,0,1.6,0.4,2c-2,1.2-3.9,1.2-5.5,0.4
		c-2-0.4-3.5-1.2-5.1-2.4c-4.3-3.1-8.6-7.1-11-12.2c-1.6-3.9-3.1-7.8-3.1-12.2c0-1.6-0.4-3.1-0.4-4.7c0.8,1.6,1.6,3.5,2,5.1
		c0.4-0.4,0.8-0.4,0.8-0.4c0.8-3.1-0.4-5.5-2.4-7.8l-0.4,0.4c0-0.4,0-1.2-0.4-1.2c-2.7-3.9-2.4-8.6-2.4-12.9c0-5.1,0-10.6,0.4-15.7
		c0-1.6,0-2.7,1.2-3.9c2,0.8,1.6,2.7,2.4,4.3c0.8,1.2,0.8,3.1,2.4,4.3l1.2-3.9l2.4-3.9c0-1.6-1.6-3.9,0.8-5.5c0-1.6,0.4-2.7,0.4-4.3
		c0.4-4.3,1.6-9,2.7-13.3c1.6-5.9,3.1-12.2,3.1-18.8l2-2.7c1.2-3.5,2-7.1,2.7-10.2c0.8-2,0.8-3.9,0.4-5.9c0-0.4,0.4-0.4,0.4-0.8
		c0.8-0.4,2-0.8,2.4-1.6l2.4-5.1l-0.8-8.2h3.5c2-2.4-0.4-6.3,2.7-8.2l-2-3.9c0.4-1.2,1.6-0.8,2.7-1.2l4.3-6.7c0-1.6-0.4-2.7-0.4-4.3
		c0-2.4,0.4-4.3,0.4-6.7l0.8-2.7c0.4-2,2-2.4,3.5-3.5v-5.1l3.5-3.9c0-0.8-0.4-2-0.4-3.5c1.2-1.6,2.7-3.5,2.7-6.3
		c0.4-2.4,1.6-4.3,2.4-6.7c-0.4-0.8-0.8-0.8-1.6-0.4c-2,3.1-4.7,5.5-5.5,9.4c-3.9,6.3-6.3,13.3-9.4,20c-1.2,3.1-2.7,5.9-2.7,9
		c-0.4,1.2-0.8,2.4-1.6,3.5c-1.6,2-2.4,3.9-3.1,6.7c-2.7,8.6-5.9,16.9-9,25.5c-1.2,4.3-2.7,8.2-3.5,12.5c-0.8,1.6,0,3.9-0.8,5.5
		c-0.4,1.6-1.2,2.7-2,4.3c-1.2,1.6,0.4,4.3-2,5.5c0,2-0.4,4.3-0.8,6.3l1.2,2.7c-2,2-1.2,5.1-2.7,7.1c-2,2.7-1.2,6.3-2,8.6
		c-1.2,2.7-0.4,5.5-2.4,8.6c-1.6-2.7-1.2-5.1-0.8-7.1c2-12.9,4.7-25.5,8.2-37.6c1.6-4.7,2.4-9.8,4.3-14.1c0-0.8,0.4-1.2,0.4-2
		c0.8-4.3,2.4-8.6,3.9-12.5c2.4-6.3,3.1-12.9,6.3-18.8c0.8-1.6,1.2-3.1,1.6-4.7c2-5.9,3.5-11.4,6.3-16.9c0.4-0.4,0.4-0.8,0.4-1.2
		c0.8-6.7,4.7-11.8,6.7-17.6c0.8-1.6,2.4-2.7,1.6-5.1l2.4-4.3c0.4-0.8,0.4-1.6-0.8-2.4c-3.5,3.1-6.3,7.1-8.2,11.4
		c-0.8,1.6-1.6,3.1-2.7,4.7c-3.5,4.7-6.3,10.2-10.2,14.5c-2,2-2.7,4.3-3.9,6.7c-2,3.5-4.7,6.7-8.6,8.2c-0.8,3.5-2.4,6.3-4.3,9.4
		l-6.3,7.8c-2.7,1.2-5.5,2-7.8,3.5c-4.7,2-9,1.2-13.3-1.2l-3.1-2.7c-3.5-1.6-5.1-4.7-6.3-7.8c-1.6-5.5-2.4-11-2.4-16.5
		c0-3.5,0.8-7.5,0.8-11v-3.5c1.6-4.7,2-9.4,2-14.1c0-1.2,0.8-2,2-3.9c0-1.2,0.4-3.5,0.8-5.9c-1.2,0-2,0-2.4,0.4
		c-3.1,4.3-5.5,9-7.5,14.1c-1.2,3.5-2.7,6.7-4.3,10.2c-1.6,3.1-2.7,6.7-3.9,10.2c-2.4,5.9-4.3,11.8-6.3,17.6
		c-1.2,3.1-2.4,6.7-3.1,9.8c-2.4,7.8-4.3,15.3-5.9,22.7c-1.6,7.8-3.5,16.1-3.9,23.9l-0.8,4.3c-1.2,3.9-1.6,7.8-2,12.2
		c0,3.1-1.2,6.3-2,9.4c-0.4,1.2-1.6,2.4-2.4,3.5c0,1.6,0,3.1-0.4,5.1c-1.2-0.4-2-0.8-2.4-1.6c-3.5-3.1-5.1-7.1-5.5-11.8
		c-0.8-6.7-1.2-13.3,0.4-20.8c0.4-0.4,2-1.2,2.4-2.4c0.8-0.8,0.8-2.4,1.2-4.7l-2.4,2.7c-0.4-2.4-0.4-4.3,1.6-5.9
		c1.6-1.6,2-3.5,1.6-5.5c-0.4,0-0.8,0.4-1.2,0.4c-0.8-2.4-0.8-2.4,0-7.1l3.1-2c-2-6.3-0.4-11.8,1.6-18l2,1.2l1.2-4.7
		c-1.6,0.8-2,0.8-2-0.4c0-1.2,0.4-2,0.4-2.7c0.4-0.8,1.6-0.8,2.4,0.4c1.6-2,2-3.9,0.8-5.9c-1.2-1.6-0.8-3.1-0.4-4.7
		c2-3.5,2.7-7.8,3.9-11.8c1.6-5.1,3.5-10.2,5.5-14.9c4.7-11.4,9.4-22.7,15.3-33.3c2-4.3,4.3-8.2,6.7-12.9c-1.2,0-1.6,0-2,0.4
		c-5.9,4.7-11.8,9-16.9,14.1c-10.2,11-19.6,22.4-27.5,35.3l-4.7,8.2l-2.7,5.5c-1.6,0.4-2.4,0.4-3.5,0.4c-1.6,0-3.1,0-4.7,0.8
		c-2,1.2-3.5,0.4-5.5-0.8c0-1.2-0.4-2.4,0-3.1c0.8-3.1,1.6-6.3,3.1-9c2.4-5.5,5.5-10.2,9-14.9c4.3-6.3,9-12.2,14.1-18
		c9-11,19.2-20.4,30.6-29c7.8-6.3,16.1-11.4,25.5-15.7l3.5-3.9c2-2,4.3-2.7,7.1-2.7c4.3,0.4,7.8,2,11,4.3c1.2,2-0.8,3.9,0.8,5.5
		c2.7,3.5,2,7.5,0,10.6c-4.3,7.8-7.1,16.5-10.2,25.1c-3.9,10.6-5.9,22-8.2,33.3c-1.6,9.4-2.4,18.8,0,28.2c0,1.2,0.4,2,0.8,2.7
		c0.4,0.4,0.8,0.8,1.2,0.8c1.6,0,2.7-1.2,3.9-2.4c2.4-2.7,4.3-5.9,7.1-8.6l3.1-3.5c2.4-2,4.3-4.3,5.9-7.1c0,0,0-0.4,0.4-0.4
		c2-2.4,3.9-4.7,5.5-7.8c1.6-2.7,3.9-5.1,5.5-7.8l5.5-7.8l9-14.1l2.4-2.4l2.4-2.7c2.4-4.7,6.3-8.2,9.4-12.5c3.9-4.3,7.5-9,11.8-12.9
		c1.6-1.6,3.1-3.1,4.3-5.1c2.4-3.5,5.1-5.5,8.6-7.1c1.6,0,1.2,2.4,3.1,2.4c2-0.4,4.3,1.2,6.3,2.4c1.2,0.8,2.4,2.4,3.1,3.9
		c0,2.7-1.2,5.5-2.4,7.8c-1.6,3.1-3.1,6.7-5.1,9.8c-5.5,11-11.4,21.6-15.7,33.3c0,0.4-0.4,1.2-0.8,2c-4.3,7.5-7.5,15.3-10.2,23.1
		c-2.4,6.7-5.9,12.2-7.1,18.8c0,0.8-0.4,1.2-0.4,1.6c-1.6,3.5-3.5,7.1-4.3,11C606.1,314.9,605.7,318.5,604.5,321.2z"/>
	<path class="st0" d="M153.8,385.5c0,0.9,0.1,1.3,0.2,1.3c0.4,0,1.7-5,4-14.9c10.2-43.9,16.6-75.8,19.1-95.7
		c1.5-11.6,2.3-22.2,2.3-31.8v-15.7l-1.1,17c-1.8,31.5-7.4,66.3-16.9,104.4C156.6,370.2,154,382,153.8,385.5z"/>
	<path class="st0" d="M145.9,383.9c0,1.4,0.3,2.1,0.8,2.1c0.4,0,0.8-1.7,1.1-5c0.8-7,2.9-17.9,6.3-32.6
		c11.7-48.6,17.6-85.4,17.6-110.3c0-3.8-0.4-10.1-1.1-19l-0.6,17.6c-0.5,29.4-6.1,65.6-16.7,108.6
		C148.4,366.3,145.9,379.1,145.9,383.9z"/>
	<path class="st0" d="M267.3,283.6c-0.8,0.4-2,1.2-3.1,2.4c-2,2.7-4.3,4.7-6.3,7.1c-5.1,5.1-10.6,10.6-14.5,16.9l-9,13.3
		c-3.1,5.5-6.7,11-9,16.9c-2.7,7.8-4.3,16.1-2.7,24.7c0.8,2.7,1.2,5.1,3.9,8.2c3.1-3.9,6.7-5.9,8.6-9.8c2.4-4.7,5.1-9.4,7.8-14.1
		c2.4-4.3,5.5-9,7.5-13.7c0.4-2,1.6-3.9,3.1-5.5c0.8-1.6,1.6-3.1,2-5.1l2.4-7.1l7.5-16.5l1.6-3.1l2.4-8.6c0.4-1.6,0.4-2.7,0-4.3
		C269.2,284.4,268.9,283.6,267.3,283.6z"/>
	<path class="st0" d="M174.4,246.1c0.3,0,0.4-2.1,0.4-6.3c0-4.2-0.1-6.3-0.4-6.3V246.1z"/>
	<path class="st0" d="M347.7,292.6c0-2,1.2-3.9-0.8-5.9h-1.2l-2,1.2c-1.6,1.2-2.7,3.1-4.7,3.9c-5.1,2.4-8.6,6.3-12.2,9.8
		c-11.4,12.2-19.2,26.3-22.7,42.4c-1.2,3.5-1.6,7.1-1.2,11c0.4,2.7,1.2,4.7,3.9,6.7c1.2-0.4,2.4-0.8,3.5-1.6l6.7-5.1
		c11-11.4,20.8-23.5,27.5-38c0.4-1.6,1.2-2.7,2.4-3.9c1.6-2,3.1-3.9,3.9-6.7c1.2-3.9,2-7.8,2-12.2
		C351.2,293,348.8,294.2,347.7,292.6z"/>
	<path class="st0" d="M254.3,333c-0.4,0.4-0.8,0.8-0.8,1.6c-0.4,0.4,0.4,1.2,0.8,1.2c0.8,0.4,1.6-0.8,1.2-2
		C255.5,333.4,254.7,333,254.3,333z"/>
	<path class="st0" d="M84.4,289v1.3c0,0.6,0,1,0.1,1.3c0.2-0.3,0.3-0.7,0.5-1.1C85,289.5,84.8,289,84.4,289z"/>
	<path class="st0" d="M429.6,379.7c0,0.4,0.4,1.2,0.8,1.6l1.2-1.2l-1.2-1.6C430,378.9,429.6,379.3,429.6,379.7z"/>
	<path class="st0" d="M532.4,244.4l-4.3,7.1c-2.7,7.1-5.9,14.1-9,21.2c-1.2,2.4-2,5.1-2.4,7.8c-0.8,2.7-2.7,5.5-3.1,8.2
		c-0.8,4.3-2.4,8.2-3.5,12.5l-2.4,6.7l-5.1,22.4c-1.6,7.1-3.5,14.1-3.1,22.7c1.6-4.3,3.5-7.1,4.3-10.6l1.6-7.1c0-2.4,0.4-4.7,2-7.1
		c0.4-0.4,0.8-0.8,0.8-1.2c-1.2-3.1,1.2-5.5,1.2-8.6s1.6-5.9,2.4-8.6c0.4-0.8,0.8-2,0.4-2.7c0-1.6,0.8-2.7,1.2-3.9
		c1.2-3.5,3.5-7.1,3.1-11c0-0.8,0.8-1.6,0.8-2c2.4-6.3,4.7-12.2,6.3-18.4c0.8-5.1,3.1-9.8,5.5-14.1c2.7-4.3,4.7-9.4,5.9-15.7
		C533.2,243.2,532.8,243.6,532.4,244.4z"/>
	<path class="st0" d="M439.8,328.3c-0.8,2-0.4,3.9,0,5.9c0.4,0,1.2,0,1.2-0.4l0.8-6.3C440.6,327.9,439.8,327.9,439.8,328.3z"/>
	<path class="st0" d="M538.7,237.3c0.8-1.2,0.8-2.4,0-3.9C536.7,235.3,536.7,235.3,538.7,237.3z"/>
	<path class="st0" d="M428.1,361.2l-9.8,8.2c-5.1,4.3-10.6,8.6-14.5,14.5c-1.6,2-3.5,4.3-6.3,5.1l-1.6,1.2c0,1.6-0.4,3.1-0.8,5.1
		l2.4,4.3c0.8,1.2,1.6,2.4,2.7,3.1c3.9,2.7,6.7,3.9,10.6,1.2c2-1.2,3.1-2.4,4.7-3.9c5.1-5.9,7.8-12.9,10.6-20
		c2.4-5.5,2.7-11,3.9-16.9C430.4,362.4,429.6,361.6,428.1,361.2z"/>
	<path class="st0" d="M161.2,371.5c-0.9,3.8-1.6,6.9-2.1,9.3c-0.5,2.4-0.9,4.1-1.1,5.2c-0.2,1.1-0.3,1.7-0.3,1.8l0.2,0.4
		c0.5,0,3.8-12.7,10-38.1c10.8-45.8,16.3-80.7,16.3-104.7c0-11.1-0.3-16.7-1-16.7c-0.3,0-0.4,2.6-0.4,7.9c0,17.2-1.6,35.8-4.8,55.8
		C174.9,312.3,169.3,338.7,161.2,371.5z"/>
	<path class="st0" d="M173.5,260.2c0.4,0,0.6-1.2,0.6-3.6l-0.2-3.8c-0.8,3.3-1.1,5.2-1.1,5.7C172.7,259.7,173,260.2,173.5,260.2z"/>
	<path class="st0" d="M174.1,223.5c0-0.8-0.2-1.1-0.6-1.1c-0.1,0-0.2,0.3-0.2,0.8c0,0.6,0.1,1,0.4,1
		C173.9,223.9,174.1,223.7,174.1,223.5z"/>
	<path class="st0" d="M171.8,273.8c0.5-0.3,0.8-0.8,0.8-1.5c0-0.8-0.3-1.1-0.8-1.1c-0.5,0-0.8,0.5-0.8,1.5c0,0.8,0.1,1.1,0.4,1.1
		H171.8z"/>
	<path class="st0" d="M149.9,379.3c0,0.5,0.1,0.8,0.2,0.8l0.2-0.4l0.2-2.1l-0.4-0.4C150,377.2,149.9,377.9,149.9,379.3z"/>
	<path class="st0" d="M680.4,295.8c-3.2,0.9-6.1,2-8.9,3.9c-3.1,1.8-6.7,2.6-9.5,4.5c-7.5,4.8-15.1,9.6-20.8,16.4
		c-3.7,4.5-7.4,9-10.3,13.8c-0.5,0.2-0.3,0.7-0.3,2c0.7,0.3,1.3,0.9,2.2,0.8c3.6,0.4,7.3-0.7,10.5-2.5c5.4-2.3,10.3-5.5,14.8-8.9
		c6.7-4.7,12.7-10.1,18.4-15.5c2.8-3.2,5.1-6.1,4.2-10.6l0.7-1.8C681.2,296.9,680.6,296.3,680.4,295.8z"/>
	<path class="st0" d="M88.1,253.5c-5,15.1-7.5,26.8-7.5,35.2c0,3.4,0.4,5.2,1.1,5.2c0.4,0,0.7-2.1,1-6.3c2.3-19.9,8-39.2,17.2-57.8
		c3.3-6.8,5-10.7,5-11.7c-0.5,0-2.1,2.7-4.8,8C94.3,237.5,90.2,246.6,88.1,253.5z"/>
	<path class="st0" d="M170.8,280V278l-0.4-0.2c-0.1,0-0.2,0.4-0.2,1.1s0.1,1.1,0.2,1.1L170.8,280z"/>
	<path class="st0" d="M149.2,383.9c0,1.1,0.1,1.7,0.2,1.7c0.3,0,0.4-0.9,0.4-2.7l-0.4-0.4C149.2,382.6,149.2,383,149.2,383.9z"/>
	<path class="st0" d="M171.8,266.6c0,1,0.3,1.5,0.8,1.5c0.5,0,0.8-0.9,0.8-2.7c0-1.3-0.1-1.9-0.4-1.9
		C172.1,263.5,171.8,264.5,171.8,266.6z"/>
	<path class="st0" d="M165.4,312.5c0-0.8-0.2-1.1-0.6-1.1c-0.1,0-0.2,0.4-0.2,1.3c0,0.3,0.1,0.4,0.4,0.4
		C165.3,313,165.4,312.8,165.4,312.5z"/>
	<path class="st0" d="M166.2,307.9c0-0.8-0.2-1.1-0.6-1.1v1.1c0,0.8,0.1,1.1,0.2,1.1C166.1,309.1,166.2,308.7,166.2,307.9z"/>
	<path class="st0" d="M164.7,316.3c0-0.8-0.2-1.1-0.6-1.1c-0.1,0-0.2,0.4-0.2,1.3c0,0.4,0.1,0.6,0.4,0.6L164.7,316.3z"/>
	<path class="st0" d="M169.7,283.2c-0.1,0-0.2,0.4-0.2,1.1v1.1c0.4,0,0.6-0.4,0.6-1.1S169.9,283.2,169.7,283.2z"/>
	<path class="st0" d="M166.6,302c-0.1,0-0.2,0.4-0.2,1.1v1.1c0.4,0,0.6-0.4,0.6-1.1C167,302.4,166.8,302,166.6,302z"/>
	<path class="st0" d="M169.3,289.1c0-0.8-0.2-1.1-0.6-1.1v1.1c0,0.8,0.1,1.1,0.2,1.1C169.1,290.3,169.3,289.9,169.3,289.1z"/>
	<path class="st0" d="M167.7,298.5c0-0.8-0.2-1.1-0.6-1.1v1.1c0,0.8,0.1,1.1,0.2,1.1C167.6,299.7,167.7,299.3,167.7,298.5z"/>
	<path class="st0" d="M168.1,292.6c-0.1,0-0.2,0.4-0.2,1.1v1.1c0.4,0,0.6-0.4,0.6-1.1C168.5,293,168.4,292.6,168.1,292.6z"/>
</g>
<text transform="matrix(1 0 0 1 0 -6.728313e-06)" class="st1 st2"> </text>
<text transform="matrix(1 0 0 1 0 -6.728313e-06)" class="st1 st2"> </text>
<title>server down</title>
<circle class="st3" cx="926" cy="366.9" r="11"/>
<text transform="matrix(1 0 0 1 245.3704 561.9894)" class="st4 st5 st6">NFT Collection</text>
</svg>
