<?xml version="1.0" encoding="utf-8"?>
<!-- Generator: Adobe Illustrator 24.0.2, SVG Export Plug-In . SVG Version: 6.00 Build 0)  -->
<svg version="1.1" id="Layer_1" xmlns="http://www.w3.org/2000/svg" xmlns:xlink="http://www.w3.org/1999/xlink" x="0px" y="0px"
	 viewBox="0 0 776.6 699" style="enable-background:new 0 0 776.6 699;" xml:space="preserve">
<style type="text/css">
	.st0{fill:#BFBFBF;}
	.st1{font-family:'ArialMT';}
	.st2{font-size:12px;}
	.st3{fill:#FBB22F;}
	.st4{fill:#35A749;}
	.st5{clip-path:url(#SVGID_2_);}
	.st6{fill:#FCD113;}
	.st7{fill:#FCE19A;}
	.st8{fill:#E5A824;}
	.st9{fill:#5B5B5B;}
	.st10{font-family:'ArialRoundedMTBold';}
	.st11{font-size:40px;}
</style>
<g>
	<path class="st0" d="M418.3,160c1.5-0.5,3-1.2,4.4-2c1.4-0.8,2.6-1.7,3.7-2.8c1-1.1,1.5-2.2,1.5-3.4c0-0.7-0.2-1.1-0.5-1.5
		c-0.3-0.3-0.8-0.5-1.3-0.5c-1,0-2,0.4-3.2,1.2c-1.1,0.8-2.3,1.7-3.4,2.9c-1.1,1.1-2.1,2.4-3,3.7c-0.9,1.3-1.6,2.5-2.1,3.5
		C415.5,160.9,416.7,160.6,418.3,160z"/>
	<path class="st0" d="M433.5,216.9c-1,1.4-1.9,2.8-2.8,4.2c-0.8,1.4-1.5,2.9-1.9,4.3c-0.5,1.4-0.7,2.8-0.7,4.1
		c0,1.2,0.2,2.2,0.7,2.9c0.5,0.7,1.2,1.1,2.1,1.1c1.3,0,2.5-0.3,3.7-1c1.2-0.7,2.4-1.6,3.6-2.7c1.1-1.1,2.2-2.3,3.2-3.7
		c1-1.4,1.8-2.8,2.6-4.3c0.7-1.5,1.3-3,1.7-4.4c0.4-1.4,0.6-2.7,0.6-3.9c0-1-0.2-1.8-0.7-2.5c-0.5-0.7-1.2-1-2.3-1
		c-1,0-2,0.3-3.1,0.9s-2.3,1.5-3.4,2.5C435.6,214.4,434.5,215.6,433.5,216.9z"/>
	<path class="st0" d="M732.8,470.3c-10.6-70.8-36.6-124.7-4.7-244c23.5-87.9-64.7-179.8-166.5-167.9c-74.6,8.7-123,10.1-234.8-15.5
		c-109.2-25-103.9,43.3-186.8,64.6C64.4,127,32.7,189.4,43.5,258c9.5,59.9,31.8,130,33.3,188.6c1.5,58.6-13.3,133.7,60.5,171.4
		c73.8,37.6,134.3,3.8,248.9,25.3c60.1,11.2,162.1,34.5,256.7-14.1C756.7,570.6,740.3,520.3,732.8,470.3z M448.3,210.8
		c1,1.1,1.6,2.6,1.7,4.3c0.1,1.1,0.6,2.1,1.5,3c0.9,0.9,2.2,1.4,3.7,1.4c1.4,0,2.7-0.4,4-1.1c0.2-0.1,0.4-0.3,0.7-0.4
		c1.5-2.5,3.1-5,4.6-7.5h-5v-0.8h5.4c1.8-2.9,3.7-5.8,5.6-8.8c1.9-2.9,3.9-5.6,6-7.9c2.1-2.4,4.3-4.3,6.6-5.7
		c2.3-1.5,4.7-2.2,7.2-2.2c1.5,0,2.7,0.3,3.6,0.9c0.9,0.6,1.4,1.6,1.4,2.9c0,1.1-0.3,2-1,2.8c-0.7,0.7-1.6,1.1-2.7,1.2
		c0.2-0.7,0.3-1.3,0.5-1.9c0.1-0.6,0.2-1.3,0.2-2.1c0-0.9-0.2-1.7-0.7-2.2s-1.2-0.8-2.3-0.8c-1.7,0-3.5,0.8-5.3,2.3
		c-1.8,1.6-3.6,3.5-5.3,5.9s-3.5,5-5.1,7.7c-1.7,2.8-3.2,5.4-4.7,7.8h15.8v0.8h-16.2c-4.5,7.7-8.5,14.2-12,19.7s-7,9.9-10.2,13.4
		s-6.5,6.1-9.8,7.7c-3.3,1.6-6.9,2.5-10.9,2.5c-1.4,0-2.7-0.2-4-0.5s-2.4-0.9-3.4-1.6c-1-0.7-1.8-1.6-2.4-2.6
		c-0.6-1-0.9-2.3-0.9-3.7c0-1.8,0.6-3.4,1.7-4.7c1.1-1.3,3.1-1.9,5.8-1.9h0.6v0.6c-1.4,0.1-2.6,0.6-3.6,1.6c-1,1-1.5,2.3-1.5,4.1
		c0,2.4,0.7,4.4,2,5.8c1.4,1.4,3.3,2.1,6,2.1c2.5,0,4.9-0.6,7.2-1.7c2.3-1.1,4.5-2.7,6.6-4.7c2.1-2,4.2-4.4,6.2-7.1
		c2-2.7,4.1-5.6,6.1-8.8c2-3.1,4.1-6.4,6.1-9.9c0.3-0.5,0.6-1,1-1.6c-1.3,0.6-2.6,1-3.8,1c-1.3,0-2.4-0.3-3.4-0.9
		c-0.9-0.6-1.7-1.3-2.2-2.1h-0.1c-0.5,1.8-1.3,3.7-2.6,5.7c-1.3,2-2.8,3.9-4.5,5.5c-1.8,1.7-3.7,3.1-5.8,4.2
		c-2.1,1.1-4.2,1.7-6.4,1.7c-2,0-3.5-0.6-4.5-1.8c-1-1.2-1.5-2.7-1.5-4.7c0-1,0.3-2.2,0.8-3.6c0.5-1.4,1.2-2.7,2.1-4.1
		c0.9-1.4,2-2.7,3.2-4.1c1.2-1.3,2.6-2.5,4-3.6c1.4-1.1,3-1.9,4.6-2.5c1.6-0.6,3.2-0.9,4.9-0.9C445.8,209.1,447.3,209.6,448.3,210.8
		z M330.3,163.5c0.6-0.7,1.4-1.1,2.5-1.1c0.7,0,1.4,0.2,1.9,0.7c0.5,0.5,0.7,1.1,0.7,1.9c0,0.7-0.2,1.3-0.7,1.7
		c-0.5,0.4-1,0.6-1.6,0.6c-0.3,0-0.6,0-0.8-0.1c0.2,2.2,1.3,3.9,3.2,5.1c1.9,1.2,4.2,1.8,6.9,1.8c2.6,0,5-0.6,7.2-1.8
		c2.2-1.2,4.2-2.7,6.1-4.6c1.9-1.9,3.7-4.1,5.4-6.5c1.7-2.5,3.3-5,5-7.6c1.7-2.6,3.3-5.2,5-7.8s3.5-5,5.3-7.1c1.9-2.1,3.9-4,6-5.5
		c2.1-1.5,4.5-2.5,7-3v-0.1c-2.1,0-4.4-0.1-6.9-0.3c-2.5-0.2-4.8-0.3-6.9-0.3c-5.9,0-11.1,0.4-15.6,1.3c-4.6,0.9-8.4,2.1-11.5,3.6
		c-3.1,1.5-5.5,3.3-7.1,5.4c-1.6,2.1-2.4,4.3-2.4,6.7c0,2.8,0.9,4.9,2.8,6.3c1.9,1.4,4.6,2.1,8,2.1c2.4,0,4.6-0.4,6.6-1.1
		c2-0.7,3.7-1.7,5.2-2.9c1.4-1.2,2.6-2.6,3.4-4.1c0.8-1.5,1.2-3.1,1.2-4.8c0-0.5,0-0.9,0-1.3c0-0.5,0-0.9-0.1-1.4h0.8
		c0,0.5,0.1,0.9,0.1,1.3s0,0.8,0,1.3c0,1.8-0.4,3.6-1.3,5.2c-0.9,1.7-2.1,3.1-3.6,4.4c-1.6,1.3-3.4,2.3-5.6,3
		c-2.1,0.7-4.5,1.1-7.1,1.1c-3.8,0-6.7-0.9-8.6-2.6c-1.9-1.7-2.8-4-2.8-6.7c0-2.2,0.8-4.6,2.3-6.9c1.5-2.4,4-4.6,7.5-6.5
		s8.1-3.6,13.9-4.9c5.7-1.3,12.9-1.9,21.4-1.9c2.6,0,5,0.1,7.1,0.2c2.1,0.1,4,0.2,5.5,0.2c1.4,0,2.5-0.1,3.4-0.2
		c0.9-0.1,1.7-0.2,2.3-0.2c0.4,0,0.7,0.1,1,0.2c0.1-0.2,0.3-0.5,0.5-0.7l4.7-0.2l-24.8,36.8l0.1,0.1c0.9-1.2,2-2.5,3.3-4
		c1.3-1.5,2.6-3,4.1-4.3c1.5-1.4,3-2.5,4.7-3.4c1.6-0.9,3.3-1.4,4.9-1.4c2.8,0,4.3,1.4,4.3,4.3c0,0.7-0.3,1.6-0.8,2.7
		c-0.5,1-1.2,2.1-2,3.3c-0.8,1.1-1.7,2.3-2.6,3.5c-0.9,1.2-1.8,2.3-2.6,3.4c-0.8,1.1-1.5,2.1-2,3.1c-0.5,1-0.8,1.8-0.8,2.4
		c0,0.5,0.2,0.9,0.5,1.3c0.3,0.4,0.7,0.5,1.2,0.5c1.1,0,2.3-0.3,3.5-1c1.3-0.7,2.6-1.6,4-2.7c1.4-1.1,2.7-2.3,4.1-3.7c1-1,2-2,2.9-3
		c0.2-0.3,0.3-0.7,0.5-1.1c1.2-2.3,2.8-4.4,4.7-6.3c1.9-1.9,4-3.5,6.3-4.8c2.3-1.3,4.5-1.9,6.6-1.9c1.2,0,2.1,0.2,2.7,0.7
		c0.7,0.5,1,1.2,1,2.1c0,1.1-0.6,2.2-1.8,3.3c-1.2,1.1-2.7,2-4.4,2.9c-1.8,0.9-3.6,1.6-5.6,2.3c-2,0.7-3.8,1.2-5.3,1.5
		c-0.5,0.9-0.9,2-1.3,3.1c-0.3,1.2-0.5,2.3-0.5,3.5c0,0.6,0.1,1.1,0.2,1.6c0.1,0.5,0.3,1,0.6,1.5c0.3,0.4,0.6,0.8,1,1.1
		c0.4,0.3,1,0.4,1.6,0.4c1.5,0,3.3-0.5,5.4-1.5c2.1-1,4.2-2.3,6.3-4c2.1-1.7,4.2-3.6,6.2-5.7c2-2.1,3.6-4.4,5-6.6l0.6,0.4
		c-0.7,1.2-1.6,2.4-2.6,3.9c-1,1.4-2.2,2.8-3.6,4.2c-1.3,1.4-2.8,2.7-4.3,4c-1.5,1.3-3.1,2.4-4.7,3.4c-1.6,1-3.3,1.8-4.9,2.4
		c-1.7,0.6-3.3,0.9-4.9,0.9c-2,0-3.5-0.5-4.5-1.5c-1.1-1-1.6-2.4-1.6-4.3c0-1.3,0.2-2.5,0.7-3.9c-0.7,0.8-1.4,1.5-2.2,2.3
		c-1.4,1.4-2.8,2.6-4.1,3.7c-1.4,1.1-2.7,2-4.1,2.7s-2.6,1-3.8,1c-1.2,0-2.2-0.4-3-1.1c-0.8-0.7-1.2-1.8-1.2-3.1
		c0-0.9,0.3-2,0.8-3.1c0.5-1.1,1.2-2.3,2-3.4c0.8-1.1,1.7-2.3,2.6-3.4c0.9-1.1,1.8-2.2,2.6-3.3c0.8-1,1.5-2,2-2.8
		c0.5-0.9,0.8-1.6,0.8-2.2c0-0.7-0.2-1.3-0.6-1.5c-0.4-0.3-0.9-0.4-1.5-0.4c-1.2,0-2.5,0.4-3.9,1.3c-1.4,0.9-2.9,2-4.4,3.4
		s-3,3-4.5,4.7c-1.5,1.8-2.9,3.5-4.2,5.3c-1.3,1.8-2.5,3.5-3.5,5c-1,1.6-1.8,2.9-2.3,4.1h-4.6c2.6-4,5.2-8.1,7.9-12.2
		c2.7-4.2,5.4-8.3,8.1-12.4c2.7-4.1,5.3-8.2,7.9-12.1c1.6-2.5,3.1-4.9,4.6-7.2c-0.3,0-0.6,0-1,0c-1.1,0-2.5,0-4.2,0
		c-3.3,0-6,0.6-8.2,1.7c-2.2,1.1-4.2,2.9-6.1,5.2c-1.9,2.3-3.8,5.2-5.8,8.7c-2,3.5-4.5,7.5-7.5,12.1c-1,1.6-2.3,3.4-3.9,5.4
		c-1.6,2-3.4,3.9-5.6,5.7c-2.1,1.8-4.6,3.3-7.3,4.5c-2.8,1.2-5.9,1.8-9.3,1.8c-1.3,0-2.7-0.2-4.1-0.5c-1.4-0.3-2.8-0.8-4-1.5
		c-1.2-0.7-2.2-1.6-2.9-2.7c-0.8-1.1-1.2-2.5-1.2-4.1C329.4,165.1,329.7,164.2,330.3,163.5z M319.3,424.3c0,5.9-2.4,8.8-7.3,8.8
		c-1.2,0-2.3-0.2-3.3-0.5c-1-0.4-1.9-0.9-2.7-1.7c-0.9-0.8-1.6-1.6-2.4-2.7c-0.7-1-1.5-2.1-2.2-3.1l-25.4-39v39.2
		c0,2.6-0.6,4.5-1.8,5.8s-2.7,2-4.6,2c-1.9,0-3.5-0.7-4.6-2c-1.2-1.3-1.7-3.2-1.7-5.8v-51.6c0-2.2,0.2-3.9,0.7-5.2
		c0.6-1.4,1.5-2.5,2.9-3.4c1.3-0.9,2.8-1.3,4.3-1.3c1.2,0,2.3,0.2,3.1,0.6c0.9,0.4,1.6,0.9,2.3,1.6c0.7,0.7,1.3,1.5,2,2.6
		c0.7,1.1,1.4,2.2,2.1,3.3l26,39.4v-39.8c0-2.6,0.6-4.5,1.7-5.8c1.1-1.3,2.6-1.9,4.5-1.9c1.9,0,3.5,0.6,4.6,1.9
		c1.3,1.5,1.8,3.5,1.8,6V424.3z M317.6,336.9c-1.1,3.6-2.7,6.8-4.8,9.5c-2.1,2.7-4.7,4.7-7.7,6.2s-6.3,2.2-9.9,2.2
		c-2.2,0-4.3-0.3-6.3-0.8s-3.6-1.2-5-2.1c-1.4-0.9-2.5-1.8-3.5-2.7c-1-0.9-2.2-2.3-3.8-4.1v1.4c0,2.7-0.7,4.8-2,6.1
		c-1.3,1.4-3,2.1-5,2.1s-3.7-0.7-4.9-2.1c-1.2-1.4-1.8-3.4-1.8-6.1v-62.9h0.1c0-2.9,0.6-5.1,1.8-6.6c1.2-1.5,2.8-2.2,4.9-2.2
		c2.2,0,3.9,0.7,5.1,2.1c1.2,1.4,1.8,3.5,1.8,6.1v22c2.7-2.8,5.5-5,8.3-6.5s6.3-2.2,10.4-2.2c4.8,0,9,1.1,12.6,3.4
		c3.6,2.3,6.4,5.6,8.4,9.9s3,9.4,3,15.3C319.3,329.3,318.7,333.3,317.6,336.9z M322.9,232.5c-1-1.2-1.5-2.7-1.5-4.7
		c0-1,0.3-2.2,0.8-3.6c0.5-1.3,1.2-2.7,2.1-4c-0.3,0.3-0.6,0.6-0.9,0.9c-2.4,2.2-4.9,4.4-7.4,6.8c-2.5,2.3-5,4.6-7.2,6.9
		c-2.3,2.2-4.1,4.2-5.5,5.8c-0.5,1.4-1.2,2.5-2,3.5s-1.7,1.5-2.5,1.5c-0.6,0-0.9-0.3-0.9-0.8c0-0.3,0.1-0.6,0.3-0.8
		c0.2-0.2,0.4-0.5,0.6-0.7c0.2-0.2,0.4-0.5,0.6-0.8c0.2-0.3,0.2-0.7,0.2-1.1c0-1.5-0.3-2.8-0.8-4c-0.5-1.1-1.2-2.1-2.1-2.9
		s-2-1.4-3.2-1.8c-1.2-0.4-2.6-0.6-4-0.6c-0.5,0-1.1,0.1-2,0.4c-0.9,0.3-1.8,0.6-2.9,0.9c-1.1,0.4-2.2,0.7-3.4,1
		c-1.2,0.3-2.3,0.5-3.4,0.5c-0.6,0-1-0.1-1.4-0.3c-0.4-0.2-0.6-0.5-0.6-0.8s0.3-0.7,0.8-0.9c0.6-0.3,1.3-0.5,2.2-0.7
		c0.9-0.2,1.9-0.3,2.9-0.4c1-0.1,2.1-0.2,3.1-0.2c1-0.1,2-0.1,2.8-0.1c0.8,0,1.5-0.1,1.9-0.1c2.3-0.7,4.5-2.1,6.4-4
		c2-1.9,3.9-4.2,5.7-6.9s3.6-5.6,5.5-8.7c1.8-3.2,3.7-6.3,5.7-9.5c-1.4-0.2-2.8-0.6-4.1-1.2c-1.3-0.6-2.5-1.3-3.5-2.3
		c-1-0.9-1.8-2-2.4-3.3c-0.6-1.2-0.9-2.6-0.9-4.1c0-1,0.2-1.9,0.6-2.8c0.4-0.9,0.9-1.7,1.6-2.3c0.7-0.7,1.4-1.2,2.4-1.6
		c0.9-0.4,1.9-0.6,2.9-0.6c0.9,0,1.7,0.1,2.6,0.3c0.8,0.2,1.5,0.5,2.1,0.7l-0.3,0.8c-0.6-0.3-1.2-0.5-2-0.7
		c-0.7-0.2-1.6-0.3-2.4-0.3c-1,0-1.9,0.2-2.7,0.6c-0.8,0.4-1.5,0.9-2.1,1.5s-1,1.3-1.3,2.1c-0.3,0.8-0.5,1.6-0.5,2.3
		c0,1.3,0.3,2.5,0.9,3.7c0.6,1.2,1.4,2.2,2.3,3.1s2.1,1.6,3.4,2.2c1.3,0.6,2.6,0.9,4,1c1.3-2,2.9-4,4.7-6.1c1.8-2.1,3.9-3.9,6.1-5.6
		c2.2-1.7,4.5-3,6.9-4.1c2.4-1,4.9-1.6,7.4-1.6c1.8,0,3.2,0.4,4.2,1.2c1.1,0.8,1.6,2,1.6,3.7c0,1.5-0.6,3.1-1.8,4.8
		c-1.2,1.6-2.9,3.1-5,4.5c-2.1,1.4-4.6,2.5-7.5,3.4c-2.9,0.9-6,1.3-9.3,1.3c-0.8,0-1.5,0-2,0c-0.6,0-1.1-0.1-1.8-0.1
		c-1.7,2.7-3.5,5.5-5.2,8.4c-1.8,2.9-3.7,5.6-5.7,8.2c-2.1,2.6-4.4,5-6.9,7.1c-2.5,2.1-5.4,3.9-8.6,5.1l0.1,0.1
		c0.4,0,0.8-0.1,1.2-0.1c0.4,0,1-0.1,1.6-0.1c3.2,0,5.5,0.8,7.1,2.3c1.6,1.5,2.5,3.4,2.8,5.7c1.9-2.1,3.9-4.2,6-6.2
		c2.1-2.1,4.3-4.1,6.6-6.1c2.2-2,4.5-4,6.7-6c1.2-1.1,2.4-2.1,3.5-3.2c0.5-0.6,0.9-1.1,1.4-1.7c1.2-1.3,2.6-2.5,4-3.6
		c1.4-1.1,3-1.9,4.6-2.5c1.6-0.6,3.2-0.9,4.9-0.9c1.9,0,3.4,0.6,4.4,1.7c1.1,1.1,1.6,2.6,1.7,4.3c0.1,1.1,0.6,2.1,1.5,3
		s2.2,1.4,3.7,1.4c1.4,0,2.7-0.4,4-1.1c0.6-0.3,1.1-0.7,1.6-1.1c1.6-2.5,3.3-5.1,4.9-7.7h4.3l-8.9,13l0.1,0.1
		c0.7-0.8,1.5-1.7,2.5-2.8c1-1.1,2.1-2.1,3.3-3.2c1.2-1.1,2.4-2.2,3.7-3.3c1.3-1.1,2.6-2,3.9-2.9c0.2-0.5,0.5-0.8,0.8-1.1
		c0.3-0.3,0.8-0.4,1.7-0.4c0.5,0,1,0,1.4,0c0.4,0,0.8,0.1,1.2,0.1c-0.8,0.8-1.6,1.8-2.3,2.9c-0.7,1.1-1.1,2.4-1.1,3.7
		c0,1.1,0.3,1.9,0.8,2.5c0.5,0.6,1.2,0.9,2,0.9c0.7,0,1.4-0.1,2.1-0.4c0.5-0.2,1-0.5,1.5-0.8c0.6-0.7,1.2-1.3,1.8-2
		c2-2,4.2-3.7,6.5-5c2.3-1.4,4.5-2,6.5-2c1.5,0,2.7,0.5,3.6,1.4c0.9,0.9,1.3,2.1,1.3,3.6h0.2l18.1-28.8h4.6
		c-1.8,2.9-3.8,5.9-5.9,9.2c-2.1,3.2-4.3,6.4-6.4,9.6c-2.1,3.2-4.2,6.2-6.2,9.2c-2,3-3.7,5.7-5.3,8.2c-1.5,2.5-2.8,4.6-3.7,6.4
		c-0.9,1.8-1.4,3.1-1.4,4c0,0.5,0.1,0.9,0.4,1.2c0.3,0.3,0.6,0.5,1.2,0.5c1.2,0,2.5-0.5,4-1.4c1.5-0.9,3.3-2.4,5.4-4.4
		c1.8-1.8,3.6-3.7,5.3-5.9s3.2-4.3,4.5-6.4l0.6,0.3c-0.4,0.7-1,1.6-1.6,2.6c-0.7,1-1.4,2-2.2,3.1c-0.8,1.1-1.7,2.2-2.6,3.3
		c-0.9,1.1-1.9,2.1-2.9,3.1c-1.9,1.9-3.7,3.5-5.5,4.7c-1.8,1.2-3.5,1.9-5,1.9c-1.5,0-2.6-0.3-3.3-0.9c-0.7-0.6-1.1-1.4-1.1-2.4
		c0-0.9,0.2-1.8,0.6-2.6c0.4-0.8,0.7-1.6,1.1-2.2l-0.1-0.1c-0.7,0.8-1.6,1.7-2.5,2.7c-0.9,1-1.9,1.9-2.9,2.7c-1,0.8-2.1,1.5-3.3,2.1
		c-1.1,0.5-2.3,0.8-3.5,0.8c-1.7,0-3-0.5-3.9-1.5s-1.4-2.2-1.4-3.6c0-2,0.7-4.1,2-6.4c0.7-1.1,1.4-2.2,2.2-3.3
		c-0.2,0.1-0.4,0.2-0.7,0.3c-0.8,0.3-1.6,0.5-2.5,0.5c-1.5,0-2.7-0.5-3.6-1.4c-0.9-0.9-1.4-2.2-1.4-3.8c0-1.1,0.3-2.1,0.8-3
		l-0.1-0.1c-1.9,1.3-4,3-6.3,5.1c-2.3,2.1-4.7,4.6-7.3,7.5c-0.9,1-1.9,2.4-2.9,4.1c-1,1.7-1.9,3.4-2.6,5.2h-4.6c2.5-4,5-8,7.6-12
		c0.6-1,1.3-2,1.9-3c-0.1,0.1-0.3,0.2-0.4,0.3c-1.4,0.7-2.8,1.1-4.1,1.1c-1.3,0-2.4-0.3-3.4-0.9c-0.9-0.6-1.7-1.3-2.2-2.1h-0.1
		c-0.5,1.8-1.3,3.7-2.6,5.7c-1.3,2-2.8,3.9-4.5,5.5c-1.8,1.7-3.7,3.1-5.8,4.2s-4.2,1.7-6.4,1.7C325.4,234.3,323.9,233.7,322.9,232.5
		z M327.5,338.5c0-3.9,1.2-7.3,3.7-10.1c2.5-2.8,5.9-4.6,10.3-5.6c0.9-0.2,3.2-0.7,6.8-1.4c3.6-0.7,6.7-1.4,9.3-2
		c2.6-0.6,5.4-1.4,8.4-2.2c0.2-3.9-0.6-6.6-2-8.4c-1.4-1.8-4.2-2.7-8.4-2.7c-3.7,0-6.4,0.5-8.3,1.5c-1.8,1-3.4,2.6-4.7,4.6
		s-2.3,3.4-2.8,4c-0.5,0.7-1.7,1-3.5,1c-1.6,0-3-0.5-4.2-1.6c-1.2-1-1.8-2.4-1.8-4c0-2.5,0.9-5,2.7-7.4c1.8-2.4,4.6-4.4,8.4-5.9
		s8.5-2.3,14.2-2.3c6.3,0,11.3,0.7,14.9,2.2c3.6,1.5,6.2,3.9,7.7,7.1s2.2,7.5,2.2,12.9c0,3.4,0,6.2,0,8.6c0,2.4,0,5-0.1,7.9
		c0,2.7,0.4,5.5,1.3,8.5c0.9,2.9,1.3,4.8,1.3,5.7c0,1.5-0.7,2.8-2.1,4c-1.4,1.2-3,1.8-4.7,1.8c-1.5,0-2.9-0.7-4.4-2.1
		c-1.4-1.4-3-3.4-4.6-6c-3.5,2.7-6.9,4.7-10.1,6.1c-3.3,1.4-6.9,2-11,2c-3.7,0-6.9-0.7-9.7-2.2c-2.8-1.5-5-3.4-6.5-5.9
		S327.5,341.4,327.5,338.5z M394.4,412.6c-1.4,4.2-3.5,7.9-6.3,11c-2.8,3.1-6.2,5.5-10.3,7.1c-4.1,1.6-8.7,2.5-14,2.5
		c-5.2,0-9.9-0.8-14-2.5c-4.1-1.7-7.6-4.1-10.4-7.1c-2.8-3.1-4.9-6.8-6.3-11.1c-1.4-4.3-2.1-9-2.1-14c0-5.1,0.7-9.9,2.2-14.1
		c1.5-4.3,3.6-7.9,6.4-10.9s6.2-5.3,10.2-6.9c4-1.6,8.6-2.4,13.7-2.4c6.9,0,12.9,1.4,17.9,4.2c5,2.6,8.8,6.6,11.3,11.8
		c2.6,5.2,3.8,11.3,3.8,18.3C396.5,403.7,395.8,408.4,394.4,412.6z M396.7,352.3c-1.3-1.5-2-3.7-2-6.5v-41.4h0
		c0-2.7,0.6-4.8,1.8-6.1c1.2-1.4,2.8-2,4.9-2c1.3,0,2.4,0.3,3.4,0.9c1,0.6,1.8,1.5,2.5,2.7c0.6,1.2,0.9,2.7,0.9,4.4v1.7
		c2.5-3.3,5.3-5.8,8.3-7.4c3-1.6,6.5-2.3,10.4-2.3c3.8,0,7.2,0.8,10.2,2.5c3,1.7,5.2,4,6.7,7c1,1.8,1.6,3.7,1.8,5.7
		c0.3,2,0.4,4.6,0.4,7.8V346c0,2.9-0.7,5.1-2,6.5c-1.3,1.5-3,2.2-5.1,2.2c-2.1,0-3.9-0.8-5.2-2.3c-1.3-1.5-2-3.7-2-6.5v-24
		c0-4.7-0.7-8.4-2-10.9s-3.9-3.8-7.9-3.8c-2.6,0-4.9,0.8-7,2.3c-2.1,1.5-3.7,3.6-4.6,6.3c-0.7,2.1-1.1,6.2-1.1,12v18
		c0,2.9-0.7,5.1-2,6.6s-3.1,2.2-5.3,2.2C399.7,354.6,398,353.8,396.7,352.3z M487,376.2l-11.1,45c-0.8,3-1.4,5.3-1.9,6.7
		s-1.4,2.7-2.6,3.7c-1.2,1.1-2.9,1.6-5.1,1.6c-2.1,0-3.7-0.5-5-1.6c-1.2-1-2.1-2.2-2.6-3.5s-1.2-3.5-2.1-6.6l-10.8-40.1l-10.9,40.1
		c-0.9,3-1.5,5.2-2,6.5s-1.4,2.5-2.6,3.6c-1.2,1-2.9,1.6-5,1.6c-1.7,0-3-0.3-4.1-0.9c-1.1-0.6-2-1.5-2.6-2.6
		c-0.7-1.1-1.2-2.5-1.6-4.1c-0.4-1.6-0.8-3-1.1-4.4l-11.1-45c-0.7-2.6-1-4.6-1-6c0-1.7,0.6-3.2,1.8-4.4c1.2-1.2,2.7-1.8,4.5-1.8
		c2.5,0,4.1,0.8,5,2.4c0.9,1.6,1.6,3.9,2.2,6.9l8.8,39l9.8-36.5c0.7-2.8,1.4-4.9,2-6.4c0.6-1.5,1.5-2.7,2.8-3.8
		c1.3-1.1,3.1-1.6,5.3-1.6c2.3,0,4.1,0.6,5.3,1.7c1.1,1.1,2,2.3,2.5,3.6s1.1,3.5,2,6.5l9.9,36.5l8.8-39c0.4-2,0.8-3.6,1.2-4.8
		c0.4-1.2,1-2.2,2-3.1c0.9-0.9,2.3-1.4,4-1.4c1.8,0,3.3,0.6,4.5,1.8s1.8,2.6,1.8,4.4C488,371.4,487.7,373.4,487,376.2z M510,431.2
		c-1.4,1.2-3,1.8-4.8,1.8c-1.9,0-3.5-0.6-4.9-1.8c-1.4-1.2-2.1-2.9-2.1-5c0-1.9,0.7-3.5,2-4.8s2.9-2,4.9-2s3.5,0.7,4.9,2
		c1.4,1.3,2.1,2.9,2.1,4.8C512.1,428.3,511.4,430,510,431.2z M498.1,371.9c0-2.5,0.7-4.5,2-5.9c1.3-1.4,3.1-2.1,5.2-2.1
		c2.6,0,4.4,0.9,5.2,2.7c0.9,1.8,1.3,4.4,1.3,7.8c0.3,2.1,0.2,4.2-0.1,6.2l-2,22.5c-0.2,2.7-0.7,4.7-1.4,6.2
		c-0.7,1.4-1.9,2.1-3.5,2.1c-1.6,0-2.8-0.7-3.4-2.1c-0.6-1.4-1.1-3.5-1.4-6.3l-1.5-21.9C498.2,376.8,498.1,373.8,498.1,371.9z
		 M510.2,352.9c-1.4,1.2-3,1.8-4.7,1.8c-1.5,0-2.9-0.7-4.4-2.1c-1.4-1.4-3-3.4-4.6-6c-3.5,2.7-6.9,4.7-10.1,6.1c-3.3,1.4-6.9,2-11,2
		c-3.7,0-6.9-0.7-9.7-2.2c-2.8-1.5-5-3.4-6.5-5.9s-2.3-5.2-2.3-8.1c0-3.9,1.2-7.3,3.7-10.1c2.5-2.8,5.9-4.6,10.3-5.6
		c0.9-0.2,3.2-0.7,6.8-1.4c3.6-0.7,6.7-1.4,9.3-2c2.6-0.6,5.4-1.4,8.4-2.2c0.3-3.9-0.5-6.6-1.9-8.4c-1.4-1.8-4.2-2.7-8.4-2.7
		c-3.7,0-6.4,0.5-8.3,1.5c-1.8,1-3.4,2.6-4.8,4.6c-1.3,2-2.3,3.4-2.8,4c-0.5,0.7-1.7,1-3.5,1c-1.6,0-3-0.5-4.2-1.6
		c-1.2-1-1.8-2.4-1.8-4c0-2.5,0.9-5,2.7-7.4c1.8-2.4,4.6-4.4,8.4-5.9s8.5-2.3,14.2-2.3c6.3,0,11.3,0.7,14.9,2.2
		c3.6,1.5,6.2,3.9,7.7,7.1s2.2,7.5,2.2,12.9c0,3.4,0,6.2,0,8.6c0,2.4,0,5-0.1,7.9c0,2.7,0.4,5.5,1.3,8.5c0.9,2.9,1.3,4.8,1.3,5.7
		C512.3,350.4,511.6,351.7,510.2,352.9z"/>
	<path class="st0" d="M379.4,225.5c-0.5,1.4-0.8,2.6-0.8,3.6c0,1,0.2,1.8,0.6,2.4c0.4,0.7,1,1,2,1c0.8,0,1.8-0.3,2.9-1
		c1.1-0.7,2.3-1.5,3.5-2.6c1.2-1.1,2.4-2.3,3.6-3.6c1.2-1.4,2.2-2.7,3.2-4.1c0.9-1.4,1.7-2.7,2.3-4c0.6-1.3,0.9-2.4,0.9-3.3
		c0-1.1-0.2-2.1-0.6-2.9c-0.4-0.8-1.2-1.3-2.6-1.3c-0.9,0-2,0.3-3.1,1c-1.1,0.7-2.3,1.5-3.5,2.6c-1.2,1.1-2.3,2.3-3.4,3.7
		c-1.1,1.4-2.1,2.8-2.9,4.2C380.5,222.8,379.9,224.2,379.4,225.5z"/>
	<path class="st0" d="M338.4,226c1-1.4,1.8-2.8,2.6-4.3c0.7-1.5,1.3-3,1.7-4.4c0.4-1.4,0.6-2.7,0.6-3.9c0-1-0.2-1.8-0.7-2.5
		c-0.5-0.7-1.2-1-2.3-1c-1,0-2,0.3-3.1,0.9c-1.1,0.6-2.3,1.5-3.4,2.5c-1.1,1-2.2,2.2-3.3,3.6c-1,1.4-1.9,2.8-2.8,4.2
		c-0.8,1.4-1.5,2.9-1.9,4.3c-0.5,1.4-0.7,2.8-0.7,4.1c0,1.2,0.2,2.2,0.7,2.9c0.5,0.7,1.2,1.1,2.1,1.1c1.3,0,2.5-0.3,3.7-1
		c1.2-0.7,2.4-1.6,3.6-2.7C336.4,228.7,337.4,227.4,338.4,226z"/>
	<path class="st0" d="M320.6,201.9c2.1,0,4.4-0.3,6.8-0.8c2.5-0.6,4.7-1.4,6.9-2.5c2.1-1.1,3.9-2.5,5.3-4.1c1.4-1.6,2.1-3.5,2.1-5.6
		c0-1.4-0.4-2.4-1.1-3.1c-0.7-0.7-1.8-1-3.1-1c-2.1,0-4.2,0.6-6.2,1.7c-2.1,1.1-4,2.6-5.7,4.3c-1.8,1.7-3.4,3.5-4.9,5.5
		c-1.5,2-2.7,3.8-3.7,5.5c0.5,0,1,0.1,1.6,0.1C319.2,201.9,319.9,201.9,320.6,201.9z"/>
</g>
<text transform="matrix(1 0 0 1 0 -6.728313e-06)" class="st1 st2"> </text>
<text transform="matrix(1 0 0 1 0 -6.728313e-06)" class="st1 st2"> </text>
<title>server down</title>
<path class="st0" d="M244.1,314.6L244.1,314.6c0.1,0,0.2-0.1,0.2-0.1l-0.1-0.1C244.2,314.5,244.1,314.5,244.1,314.6z"/>
<path class="st0" d="M373.7,377.5c-2.9-1.8-6.3-2.8-10.1-2.8c-2.7,0-5.2,0.5-7.5,1.5s-4.3,2.5-5.9,4.4c-1.7,1.9-3,4.4-3.9,7.5
	c-1,3-1.4,6.4-1.4,10.2c0,3.8,0.5,7.2,1.4,10.3c1,3.1,2.3,5.6,4.1,7.6c1.7,2,3.8,3.5,6,4.5c2.3,1,4.8,1.5,7.5,1.5
	c3.5,0,6.7-0.9,9.6-2.6s5.2-4.4,6.9-8c1.7-3.6,2.6-8.1,2.6-13.4c0-4.9-0.8-9.1-2.4-12.7C378.9,382.1,376.6,379.4,373.7,377.5z"/>
<path class="st0" d="M291.5,343.6c3.6,0,6.7-1.6,9.4-4.7c2.6-3.1,3.9-7.7,3.9-13.5c0-3.8-0.5-7.1-1.6-9.8c-1.1-2.7-2.6-4.9-4.6-6.4
	s-4.3-2.2-7-2.2s-5.2,0.7-7.3,2.2c-2.1,1.5-3.8,3.7-5.1,6.5c-1.2,2.8-1.8,6.2-1.8,10.1c0,5.7,1.3,10.1,3.9,13.2
	C283.9,342.1,287.3,343.6,291.5,343.6z"/>
<path class="st0" d="M351.2,345.3c2.8,0,5.5-0.6,7.9-1.9c2.4-1.2,4.2-2.9,5.3-4.8c1.3-2.2,2-5.8,2-10.8v-2.1
	c-2.1,0.8-5.2,1.6-9.2,2.5s-6.8,1.5-8.4,1.9c-1.5,0.4-3,1.2-4.4,2.4c-1.4,1.2-2.1,2.8-2.1,4.9c0,2.2,0.8,4,2.5,5.6
	C346.3,344.6,348.5,345.3,351.2,345.3z"/>
<path class="st0" d="M478.3,330.1c-1.5,0.4-3,1.2-4.4,2.4c-1.4,1.2-2.1,2.8-2.1,4.9c0,2.2,0.8,4,2.5,5.6c1.7,1.5,3.8,2.3,6.5,2.3
	c2.9,0,5.5-0.6,7.9-1.9c2.4-1.2,4.2-2.9,5.3-4.8c1.3-2.2,2-5.8,2-10.8v-2.1c-2.1,0.8-5.2,1.6-9.2,2.5
	C482.6,329.1,479.8,329.7,478.3,330.1z"/>
<g>
	<ellipse class="st3" cx="363.7" cy="399.4" rx="36" ry="35.8"/>
	<ellipse class="st4" cx="363.7" cy="399.4" rx="26.2" ry="26.1"/>
	<g>
		<g>
			<defs>
				<ellipse id="SVGID_1_" cx="363.7" cy="399.4" rx="26.2" ry="26.1"/>
			</defs>
			<clipPath id="SVGID_2_">
				<use xlink:href="#SVGID_1_"  style="overflow:visible;"/>
			</clipPath>
			<g class="st5">
				<path class="st6" d="M377.7,420.2c-2-4-3.1-8.9-1.8-13.3c1-3.4,4.4-5.5,9.9-5.5c6.6,0,5.8-3.7,5.8-3.7s-0.8,3.6-13,2.8
					c-6.4-0.4-11.7,3.1-8.6,14.1C370,414.7,377.7,420.2,377.7,420.2z"/>
				<path class="st7" d="M368.7,404c-5-13.2,1.7-23.2-2.7-26.9c-3.8-3.2-9.5,2.6-12,11.7c2.6,0.1,4.8,2.2,5,4.9
					c0.2,2.9-2,5.4-4.9,5.5c2.9-0.2,5.4,2,5.5,4.9c0.2,2.9-2,5.4-4.9,5.5h-0.2c0.1,0.3,0.2,0.5,0.3,0.8c5,13.8,17.4,20.7,22.4,15.5
					C381.9,420.9,372.8,414.9,368.7,404z"/>
				<path class="st3" d="M365.2,426.2c-7.9-7-8.9-12.6-12.2-10.1c0,0,1.9-1.7,5.3-4.3c5.8-4.5,19.7,3.6,20.2,11.4
					C378.7,427.3,370.7,431,365.2,426.2z"/>
				<path class="st6" d="M364.3,410.5c-2.9-0.9-6.9,1.7-8.1,9.3c-0.9,5.7-3.1,8.2-4.5,8.9c-2.1,1-4.5-0.3-4.5-0.3s2.3-0.5,3-5.2
					c0.8-5.4,1.1-6.8,2.9-8.3c1.8-1.4,4.1-2.9,6.6-3.9C362.6,409.8,364.3,410.5,364.3,410.5z"/>
				<path class="st8" d="M342.4,425.9c1.6-0.8,5,3.7,9.6,2.7c0,0-3.1,1.2-5.5,1.2C344,429.7,341.6,426.3,342.4,425.9z"/>
				<path class="st3" d="M364.6,403.8c-0.2-2.9-2.7-5.1-5.5-4.9c2.9-0.2,5.1-2.7,4.9-5.5c-0.2-2.9-2.7-5.1-5.5-4.9l-4.5,0.4
					c0.1,0,2.2,0.2,3.8,1.8c0.7,0.8,1.2,1.9,1.3,3.1c0.2,2.9-2,5.3-4.9,5.5c0.1,0,0.2,0,0.2,0c2.8,0,5.1,2.1,5.3,4.9
					c0.2,2.7-1.8,5.1-4.5,5.5l4.6-0.3C362.6,409.1,364.8,406.7,364.6,403.8z"/>
			</g>
		</g>
	</g>
</g>
<circle class="st9" cx="926" cy="366.9" r="11"/>
<text transform="matrix(1 0 0 1 245.3704 561.9894)" class="st4 st10 st11">NFT Collection</text>
</svg>
