<?xml version="1.0" encoding="utf-8"?>
<!-- Generator: Adobe Illustrator 24.0.2, SVG Export Plug-In . SVG Version: 6.00 Build 0)  -->
<svg version="1.1" id="Layer_1" xmlns="http://www.w3.org/2000/svg" xmlns:xlink="http://www.w3.org/1999/xlink" x="0px" y="0px"
	 viewBox="0 0 776.6 699" style="enable-background:new 0 0 776.6 699;" xml:space="preserve">
<style type="text/css">
	.st0{fill:#BFBFBF;}
	.st1{font-family:'ArialMT';}
	.st2{font-size:12px;}
	.st3{fill:#35A749;}
	.st4{fill:#FBB22F;}
</style>
<g>
	<path class="st0" d="M408.8,210.2c3,0.2,4.8-1.5,4.9-4.5c0.1-3.4-1.5-5-5.1-5.5c-2.9-0.4-5.4,1.8-5.5,4.4
		C403.1,207.3,405.9,210,408.8,210.2z"/>
	<path class="st0" d="M317.6,515.7c-5.9-2.7-12.2-4.1-18.3-6c-1.2-0.4-2.5-0.5-3.7-0.1c-1.9,0.6-2.9,2-2.4,3.9
		c0.2,0.8,0.5,1.4,1,2.1c3.9,5.2,7.8,10.5,11.8,15.6c2.1,2.7,4.5,3.7,8.2,2.4c5.3-1.8,8.4-5.3,8.4-11.2c0-0.9-0.1-2.1-0.8-3.3
		C320.7,517.6,319.3,516.5,317.6,515.7z M316.6,524.8c-0.7,2-2.1,3.2-3.6,3.1c-1.5-0.1-2.8-0.6-3.8-1.5c-1.9-1.6-3.2-3.7-4.3-5.9
		c-0.9-1.8-0.1-2.9,1.9-2.7c3,0.3,5.9,1.2,8.5,3C316.8,521.9,317.2,523.2,316.6,524.8z"/>
	<path class="st0" d="M403.6,241c1.9,0.8,3.8,1.6,5.7,2.2c2.7,0.7,4.4,2.3,4.3,5.4c0,1.2,0.3,2.5,0.4,3.8c0.4,6,3.3,10.5,7.9,14.1
		c4.2,3.3,9,5.4,13.8,7.4c4.7,1.9,9.4,3.7,12.3,3.7c10.1,0.1,16.5-3,21.9-8.4c2.1-2.1,4-4.3,4.9-7.1c1.4-4.8,2-9.8,1.8-14.7
		c-0.1-3.6,1.1-6,4.4-7.4c2.6-1.1,4.6-2.9,6.4-5c0.7-0.8,0.7-1.6,0.2-2.4c-0.5-0.7-1.3-0.3-1.9-0.2c-0.7,0.1-1.3,0.5-1.9,0.8
		c-1.8,0.9-3.4,1.9-5.3,2.5c-7.5,2.5-15.2,4-23.2,4.2c-9.7,0.1-19.3,0.3-29-0.5c-6.4-0.5-12.9-0.7-19.1-2.3c-1.1-0.3-2.4-0.4-3.5,0
		c-0.8,0.3-2.1,0.4-2,1.7C402,239.7,402.4,240.4,403.6,241z"/>
	<path class="st0" d="M305.1,485.6c3.3,1.5,6.8,1.8,10.3,0.9c1-0.3,2.1-0.5,3-1.1c2.7-1.9,3.4-4.6,1.7-8c-2.6-5.4-3.9-11.1-5.5-16.8
		c-1-3.7-1.9-7.3-3.3-10.9c-0.8-2-1.7-4-3.3-5.5c-1.1-1.1-2.5-2.1-4.2-1.3c-1.6,0.7-2.1,2-2.2,3.8c-0.2,4.2,0.2,8.4,0.2,12.6
		c0,5.9,0,11.7-0.7,17.5C300.5,481.8,301.4,484,305.1,485.6z M306.9,468.4c-0.1-0.9,0.4-1.9,0.7-2.8c0.2-0.6,0.5-1,1.2-1.1
		c0.7,0,1.1,0.3,1.4,0.8c0.2,0.4,0.4,0.9,0.5,1.3c0.7,3.3,2.3,6.4,3,9.8c0.5,2.4,0.1,3.2-1.8,3.9c-1.9,0.7-4.1,0-4.8-1.7
		c-0.4-0.9-0.9-1.8-0.5-3.2C306.4,473.3,307.3,470.9,306.9,468.4z"/>
	<path class="st0" d="M393.1,532.2c-1-1.8-2.1-3.5-3.4-5.1c-1.9-2.3-4.5-1.9-5.4,0.9c-0.7,2-1.3,4.1-1.7,6.2
		c-1.2,6-1.3,12.2-1.5,16.6c0.1,5.9,1,7.3,4.1,8.5c1.6,0.6,3.3,0.4,4.9,0.2c7.3-0.7,10.5-7.9,8.5-13.5
		C397,541.4,395.5,536.6,393.1,532.2z M391.5,553.4c-1.2,0.9-2.5,1-3.9,0.4c-1.3-0.7-0.9-2-1.1-3c0.6-2.5,0.2-5.1,1.2-7.5
		c0.3-0.8,0.6-1.7,1.7-1.8c1.1,0,1.3,0.9,1.6,1.7c0.9,2,1.6,4,1.9,6.1C393.1,550.9,392.9,552.4,391.5,553.4z"/>
	<path class="st0" d="M352.9,549.6c-2-0.8-3.9,0.1-5.6,0.9c-3.6,1.7-7.2,3.4-11,4.7c-1.9,0.7-2.4,2.2-2.6,3.9
		c-0.2,1.6,1,2.6,2.2,3.2c4.7,2.3,9.6,3.6,14.9,3.5c1.5,0,2.9-0.4,4.2-1.1c2.6-1.4,2.7-3.8,2.9-6.3c-0.1-1-0.2-1.9-0.3-2.9
		C357.2,552.5,355.6,550.6,352.9,549.6z M350.1,561.3c-2.2,0-4.3-1.2-4.4-2.6c0-1.2,1.9-2.8,3.8-3.1c1.9-0.4,3.4,0.6,3.7,2.4
		C353.4,559.8,352.1,561.2,350.1,561.3z"/>
	<path class="st0" d="M461.3,207.7c3.5,0,5-2,5.1-5.2c0.1-2.7-2.6-5.2-5.8-4.8c-2.9,0-5,2.3-5,5.2
		C455.7,205.8,458.9,207.7,461.3,207.7z"/>
	<path class="st0" d="M384.1,491c2-3.5,2.2-6.3-1-9.5c-3.5-3.4-7-6.8-10.5-10.1c-1.2-1.1-2.4-2.3-3.7-3.2c-2.9-1.9-6.2-0.4-6.5,2.9
		c-0.1,1.1-0.2,2.3,0,3.4c0.5,3.7,0.7,7.4,0.8,10.8c0,2.1-0.1,4,0,5.9c0.2,5.9,2.2,7.2,7.2,7.5C376.5,499.1,381.1,496.3,384.1,491z
		 M378.2,489.6c-1.2,1.9-2.8,3.2-5.2,3.4c-2.1,0.1-3.4-0.8-3.7-2.9c-0.1-0.9-0.2-1.7-0.2-2.6c0-0.9,0-1.8,0-2.6c0,0,0,0-0.1,0
		c0-1.2-0.1-2.4,0-3.5c0.3-2.2,1.7-2.9,3.5-1.6c2.4,1.8,4.3,4,5.8,6.5C379,487.3,378.9,488.6,378.2,489.6z"/>
	<path class="st0" d="M614.6,366.9c-2.5-0.7-5-0.5-7.5-0.5c-2.8,0-5.6-0.1-8.3,0.6c-1.9,0.5-3,1.7-3,3.7c0,2.1,1.4,3.1,3.2,3.5
		c5.2,0.9,10.3,1.1,15.5,0.1c1.8-0.4,3.2-1.3,3.4-3.4C618,369,616.7,367.5,614.6,366.9z"/>
	<path class="st0" d="M451.9,494.4c-1.3-0.7-2.7-0.5-4-0.4c-1.4,0.1-2.5-0.4-3.1-1.6c0.2-0.8,0.5-1.5,0.7-2.5
		c-1.2,0.8-1.2,0.8-1.6,2.5c-1.5,5.6,3.1,7.6,7.3,7.5c1.2,0,2.5-0.5,2.8-2C454.2,496.1,453.6,495.2,451.9,494.4z"/>
	<path class="st0" d="M615.1,334.1c-0.4-0.1-0.8-0.2-1.2-0.2c-4.6-0.7-9.3-0.7-13.9,0c-0.8,0.1-1.6,0.3-2.3,0.7
		c-2.5,1.3-2.6,4.3-0.1,5.7c1,0.6,2.2,0.9,3.4,0.9c2,0,4,0,6,0c2.7,0.1,5.4,0.3,8-0.3c1.8-0.5,3.2-1.4,3.2-3.6
		C618,335.4,616.7,334.6,615.1,334.1z"/>
	<path class="st0" d="M261.1,485.4c-7.7-3.1-15.7-5.3-23.6-7.8c-4-1.2-7.9-2.7-12-3.5c-1.2-0.2-2.2-0.1-2.9,0.9
		c-0.7,1.1-0.3,2.2,0.5,3.2c0.3,0.4,0.6,0.7,1,1.1c4.2,4.6,8.8,8.8,13,13.5c3.8,4.3,8.6,7.6,13.2,11.1c3.6,2.8,8.6,2.1,11.2-0.8
		c2.7-3,4-6.9,4.4-10.3C265.8,489,264.1,486.6,261.1,485.4z M257.6,498.3c-1.3,1.4-2.8,1.4-4.8,0.2c-4.6-2.6-8.5-6.2-12-10.2
		c-0.3-0.3-0.5-0.6-0.7-0.9c-1.1-1.8-0.5-2.8,2-2.8c1.4,0.4,3.3,0.9,5.2,1.4c3.8,1.1,7.2,3.1,11,4c1,0.2,1.7,0.9,2,2
		C261.1,494.8,259.2,496.6,257.6,498.3z"/>
	<path class="st0" d="M600,267.3c-0.6,0.1-1.3,0.3-1.9,0.6c-1.6,0.6-2.5,1.8-2.6,3.6c0,1.8,0.9,3,2.4,3.7c3.8,1.8,5,1,5-3.3
		c0-0.7,0-1.3,0-2C602.9,267.2,602.5,266.8,600,267.3z"/>
	<path class="st0" d="M284.7,455c-3.6-2.5-7.3-4.9-11.1-7.2c-2.7-1.7-5.6-3.2-8.3-4.9c-2-1.2-4.1-1.9-6.4-1.9
		c-2.5,0-3.1,1.1-1.7,3.2c0.5,0.8,0.7,1.8,1.4,2.5c2.5,2.6,5,5.2,7.8,7.5c3,2.5,5.2,5.5,6.1,9.6c1.2,5.4,5.5,8.9,10.6,8.7
		c4.6-0.1,7.5-2.6,7.5-8.1c0-0.3-0.2-1.2-0.3-2C289.7,459.2,287.3,456.9,284.7,455z M286.5,464.5c0,2.7-2.9,4.7-5.6,3.9
		c-1.5-0.5-2.6-1.3-3.3-2.7c-1.4-2.8-2.5-5.7-3.2-8.7c-0.4-1.7,0.1-2.5,1.6-2.1c4.3,1.3,8,3.4,10,7.7
		C286.5,463.2,286.6,463.8,286.5,464.5z"/>
	<path class="st0" d="M615.3,191.5c-2.3-0.8-4.7-1.1-7.3-0.5c0.8,5.5,2.1,7.1,5.6,7.5c2.5,0.3,4.5-0.7,4.9-2.5
		C618.9,194.2,617.7,192.3,615.3,191.5z"/>
	<path class="st0" d="M732.8,470.3c-10.6-70.8-36.6-124.7-4.7-244c23.5-87.9-64.7-179.8-166.5-167.9c-74.6,8.7-123,10.1-234.8-15.5
		c-109.2-25-103.9,43.3-186.8,64.6C64.4,127,32.7,189.4,43.5,258c9.5,59.9,31.8,130,33.3,188.6c1.5,58.6-13.3,133.7,60.5,171.4
		c73.8,37.6,134.3,3.8,248.9,25.3c60.1,11.2,162.1,34.5,256.7-14.1C756.7,570.6,740.3,520.3,732.8,470.3z M511.9,213.6
		c3.4-4.2,6.4-8.6,9.2-13.1c0.7-1.2,1.8-2.1,2.7-3.1c0.7-0.7,1.7-1.1,2.7-0.7c1,0.4,0.8,1.4,0.9,2.3c-0.7,3.9-1.5,7.9-3,11.6
		c-1.7,4.3-3.7,8.6-5.5,12.8c-0.2,0.3-0.4,0.6-0.7,1c-1.5,2.1-2.8,2.3-4.4,0.3c-1.6-2-2.7-4.2-3.3-6.7
		C510.1,216.2,510.9,214.8,511.9,213.6z M479.9,163.5c1.7-7.4,4.3-14.4,8.1-20.9c1.2-2,2-4.2,3.6-6c0.8-0.9,1.6-1.9,2.9-1.5
		c1.3,0.4,1.7,1.6,1.7,2.8c0.1,1.6,0.3,3.1,0.4,4.7c0.5,6.8,0.6,13.6,0.5,20.5c-0.3,5.3,0.4,10.5-0.3,15.8c-0.1,0.6-0.1,1.2-0.3,1.7
		c-0.5,1.4-1.5,1.7-2.8,1.2c-1.1-0.5-1.9-1.3-2.8-2.2c-3-3.1-6-6.2-9.1-9.2C480,168.5,479.3,166.3,479.9,163.5z M450.8,139.3
		c1-2.7,2.3-5.4,3.4-8.1c0.1-0.3,0.1-0.6,0.3-0.8c0.6-0.8,1.1-1.7,2.2-1.7c1.1,0,1.6,1,2,1.9c0.5,1,0.9,2,1.2,3
		c1.5,5.5,3,11.1,4.5,16.7c0.4,1.7,0.7,3.4,1,4.9c0,2.1-0.9,2.9-2.8,2.8c-1.1-0.1-2.1-0.5-3.1-0.9c-2.5-1.1-5.1-1.9-7.8-2.5
		c-3.1-0.7-4-2-4-5.1C447.9,145.7,449.6,142.6,450.8,139.3z M402.1,123.2c0.2-1.2,0.4-2.3,0.4-3.5c0-1.4,0.4-2.7,0.8-4
		c0.2-0.6,0.5-1.4,1.3-1.4c0.6,0,1,0.5,1.4,1c0.8,1.3,1.4,2.8,1.9,4.3c2.2,7,4.2,14,7.6,20.6c1.2,2.3,2.4,4.4,3.7,6.7
		c0.3,0.6,0.7,1.2,1,1.8c1.4,3.1,0.5,5-2.8,5.6c-3.8,0.7-7.3,2.2-11,3.1c-3.1,0.8-4.4,0-4.9-3.2c-0.4-2.4,0.1-4.9-0.2-6.3
		c-0.2-3.9-0.3-6.9-0.5-9.8C400.5,133.1,401.3,128.1,402.1,123.2z M402.8,166.5c1.6-1,3.3-1.7,4.9-2.5c5.9-2.8,12.2-3.3,18.5-3.9
		c4.1-0.4,8.2,0.2,12.3,0.1c2.1,0,4.1,0.1,6.2,0c4.5-0.2,8.6,1.3,12.6,3.2c3.3,1.5,6.6,3,9.8,4.6c3.9,2,7.4,4.8,10.4,7.8
		c4.1,4.1,8.4,8.2,12.3,12.5c3.4,3.7,5.8,7.8,7.8,12.3c2.5,5.4,4.2,11.1,5,17c0.3,2.1,1.2,4.1,2.3,6c2.4,4.1,5.1,8,6.7,12.6
		c1.2,3.5,2.1,7.1,2.2,10.8c0.1,2.1-0.7,3.6-2.1,4.9c-2.9,2.6-2.5,3.9,0.7,6.3c5.5,4.1,11.6,7.3,16.5,12.1c3.2,3.1,5.1,6.6,6,10.8
		c0.4,1.7,0.9,3.4,0.7,5.2c-0.2,3-1.6,4.3-4.6,3.9c-7.2-1.2-14.2-0.3-21.1,1.7c-3,0.9-5.9,2.1-8.8,3.3c-3.9,1.6-7.8,2.8-12,3.7
		c-2.8,0.6-5.5,1.3-8.2,2.3c-3,1.1-6.1,1.5-9.1,1.9c-2.5,0.3-5-0.8-7.5-1.1c-5.4-0.7-10.7-0.5-15.9,1.3c-6.3,2.2-12.7,3-19.3,1.9
		c-2.8-0.4-5.6-0.4-8.5-0.7c-6.5-0.7-12.6-2.4-18.4-5.3c-4.2-2-8.6-3.8-13.1-5c-8.7-2.4-17.5-1.9-26.4-1.6c-3.2,0.1-6.4,1-9.6,1.4
		c-2.8,0.4-3.9-0.3-4.6-3.1c-0.9-3.7,0.8-6.6,2.9-9.5c1.8-2.5,4.5-4,7.1-5.6c1.1-0.7,2.2-1.3,3.2-2c0.3-0.2,0.6-0.5,0.8-0.8
		c0.9-0.8,1.3-1.8,0.5-2.9c-0.6-0.9-1.6-1.1-2.6-0.8c-0.9,0.2-1.8,0.7-2.8,0.8c-1.6,0.1-2.7-0.3-3.6-1.9c-1.6-2.8-1.8-5.7-1.1-8.8
		c0.3-1.5,0.8-3,1.1-4.6c1.3-5.1,0.5-10.3,0.5-15.4c0-6.1-0.3-12.3,1.1-18.4c1.2-5,2.7-9.8,5.2-14.2c3.1-5.5,6.2-11,10.6-15.7
		c6-6.4,12.1-12.8,19.3-18C394.6,170.7,398.9,168.9,402.8,166.5z M451.3,314.8c-2.6,2.8-5.8,4.8-9.7,5.7c-6.3,1.5-12.5,3-18.5,5.6
		c-3.8,1.6-7.4,3.4-11.2,5.1c-2.4,1.1-4.8,2.2-7.3,2.9c-2.3,0.7-4.7,1.2-7.2,1c-2.5-0.1-5.1,0-8.3,0c-6.2,0.4-13-0.6-19.7-1.8
		c-4.8-0.8-9.5-1.8-14.3-3c-3.7-1-6.8-2.9-9.8-5.1c-1.9-1.4-3.7-2.9-5.5-4.4c-1.9-1.7-3.1-3.8-3.5-6.3c-0.3-2.3,0.1-4.3,2.1-6
		c3.2-2.7,7-4.2,10.7-5.8c3.8-1.6,7.8-2.7,11.8-3.2c6.7-0.9,13.5-1.4,20.4-0.6c4.9,0.6,9.5,2.1,14,4.1c4,1.7,8.1,3.4,12.2,4.8
		c4.2,1.4,8.5,2.2,12.8,2.8c6.5,0.9,13,1.7,19.6,1.4c3.1-0.2,6-0.9,8.9-1.5c1.4-0.2,3.3-1,4.1,0.3
		C454,312.4,452.3,313.8,451.3,314.8z M372.8,137.8c3,2.6,5.3,5.7,7.5,8.9c1.8,2.7,3.2,5.5,4.3,8.5c0.5,1.4,1.1,2.7,2,3.9
		c1,1.4,1.6,3.1,2.1,4.7c0.6,2,0.4,2.6-1.2,3.7c-1.9,1.4-3.8,2.7-5.8,4c-2.2,1.5-2.7,1.3-3.7-1.2c-2.8-7.2-4.4-14.7-5.9-22.3
		c-0.4-2.2-0.2-4.4-0.6-6.7C371.3,140.3,371.3,138.9,372.8,137.8z M347.8,162.2c0.7-0.3,1.1,0.2,1.5,0.6c0.6,0.5,1.2,1,1.7,1.6
		c3,3,6.2,5.6,9.6,8c2.7,1.9,5.2,4,7.7,6.1c2.2,1.9,2.4,3.6,0.6,5.8c-1.8,2.3-3.7,4.5-5.7,6.6c-2.2,2.4-4,2.1-5.5-0.7
		c-2.1-3.7-3.7-7.8-5.3-11.7c-1.6-3.8-3.2-7.7-4.8-11.5c-0.4-1-0.4-2.1-0.6-3.1C347,163.2,347.1,162.5,347.8,162.2z M337.3,201.8
		c0.2-0.5,0.5-0.5,2.1-0.4c2.8-0.1,5.3,1.2,8,1.4c1.3,0.1,2.7,0.1,4,0.6c2.7,1,3.4,2.2,2.5,4.9c-0.5,1.5-1.3,2.9-2.1,4.1
		c-1,1.5-2.4,1.7-4.1,0.8c-4.4-2.4-7.6-6-10.1-10.2C337.2,202.5,337.1,202.1,337.3,201.8z M326.2,224.6c0.5-0.6,1.3-0.4,1.9-0.2
		c5.8,1.9,11.7,3.4,17.4,5.9c1.5,0.6,2.4,2,2.6,3.6c0.2,1.4,0.2,2.7,0.2,3.8c0.1,2.1,0.2,3.8-0.7,5.4c-0.7,1.2-1.7,1.7-2.9,0.9
		c-1.8-1.1-3.8-1.9-5.1-3.8c-1-1.5-2.5-2.7-4-3.8c-2.9-2.2-4.7-5.3-7.4-7.7c-0.7-0.6-1.1-1.6-1.7-2.4
		C326.2,225.9,325.6,225.3,326.2,224.6z M300.1,406.7c-0.1-1.9,0.8-4.9,2.3-7.7c2.3-4.2,4.5-8.3,7.1-12.3c0.5-0.7,0.9-1.5,1.6-2.1
		c1.3-1.2,2.9-0.8,3.3,1c0.4,1.5,0.6,3.1,0.7,4.6c0.5,7.1,1.9,14,2.4,21.1c0.2,2.2-0.9,4-2.4,5c-2,1.4-4.3,2.7-6.9,3.1
		c-2.5,0.4-4.5-0.4-5.9-2.6C300.4,414.1,300,411.1,300.1,406.7z M258.6,395.4c0.1-0.5,0.3-1.1,0.6-1.6c0.9-1.5,1.9-1.6,3.3-0.6
		c1.9,1.4,2.9,3.5,4.1,5.3c2.6,4.1,6.2,7.5,9.5,11c1.4,1.5,2.4,3,2.4,5.1c0,3.1-0.9,4.7-3.8,5.8c-4,1.6-8.2,1.6-12.4,0.9
		c-2.6-0.4-4.2-2.2-4.6-5c-0.3-2-0.5-4.1-0.5-6.1C257.2,405.3,258,400.4,258.6,395.4z M177.7,453.9c-0.3,2.4-1.4,3.4-3.8,3.5
		c-1,0-2-0.1-2.9-0.6c-4.5-2.4-9-4.8-12.8-8.2c-2.2-2-2.7-4.8-2.9-7.4c-0.3-3.4-0.5-6.9,0.8-10.2c0.1-0.2,0.1-0.4,0.1-0.6
		c0.2-1.2,0.3-2.4-1-3.1c-1.4-0.8-2.5,0.1-3.3,1c-1.3,1.4-2.2,3-2.6,4.9c-0.2,1.1-0.4,2.1-0.7,3.2c-0.6,2-1.8,2.4-3.5,1.3
		c-1.9-1.3-3.4-3.2-3.9-5.4c-1.2-5.8-1.8-11.7,1.9-17c0.7-1,1.6-2.3,0.2-3.4c-1.3-1-2.4,0.1-3.4,0.9c-1.1,0.9-1.8,2-2.6,3.1
		c-0.4,0.5-0.7,1.2-1.2,1.7c-1.6,1.9-3.2,1.7-4.3-0.5c-3.7-7.2-3.3-14.1,1.3-20.8c0.8-1.1,2.2-2.3,1.1-3.6c-1.1-1.4-2.8-0.8-4.3-0.2
		c-0.3,0.1-0.6,0.1-0.8,0.3c-3.4,1.3-3.4,1.3-3.3-2.2c0.1-3,0.5-6,1.5-8.9c1.8-5.2,4.2-10.1,6.8-14.9c0.3-0.5,0.7-1,1-1.5
		c0.3-0.4,0.6-0.9,1.2-0.6c0.5,0.2,0.7,0.7,0.7,1.2c0,0.9,0,1.8,0,2.6c0,1.3,0,2.6,0,3.8c-0.7,6.8,1.6,12.8,4.6,18.8
		c3.2,6.3,7.1,12.2,12.1,17.2c2.9,2.9,6.2,5.4,9.6,7.7c3.7,2.5,7.3,5.3,11,7.9c3.5,2.4,7.4,3.9,11.5,5.2c0.7,0.2,1.3,0.4,2,0.6
		c1,0.3,1.2,1,0.5,1.8c-1.2,1.5-2.3,2.9-3.5,4.4c-2.9,3.6-5.1,7.7-6.1,12.2C178.2,450,178,452,177.7,453.9z M184,459.1
		c0.7-7.6,1.7-15.1,7.4-21c1.2-1.2,2.3-2.6,3.2-4.1c1.1-2.1,3.1-3.1,4.8-4.5c0.6-0.5,1.4-0.6,2.2-0.7c2.3-0.4,3.4,0.8,2.7,3.1
		c-0.3,0.9-0.7,1.8-1.1,2.7c-2.1,4.3-4.2,8.5-5.1,13.2c-0.5,2.6-1.6,5.3-2.4,7.9c-1,3.6-1.4,7.3-1.6,11c-0.1,1.5-0.1,3.1-1.7,3.8
		c-1.7,0.7-3.2-0.1-4.5-1.3C184.9,466.4,183.8,463,184,459.1z M222.4,519.2c-1.2,0.2-2.3,0.4-3.5,0.3c-4.8-0.7-9.6-1.3-14.4-2.1
		c-3.6-0.6-7.3-0.9-10.9-2.1c-0.8-0.3-1.7-0.6-2.4-1.1c-0.6-0.5-1.5-0.8-1.3-1.8c0.2-0.8,1.1-1,1.9-1.2c1.7-0.3,3.5-0.5,5.2-0.7
		c5-0.5,9.9-1,14.9-1.5c2.7-0.3,5.4-0.7,8.1-1c0.6-0.1,1.2-0.1,1.7-0.1c2.1,0.2,3.4,1.1,3.9,3.2c0.3,1.1,0.5,2.3,0.6,3.4
		C226.5,516.8,224.6,518.8,222.4,519.2z M238,547.9c-0.5-0.1-0.9-0.1-1.3-0.2c-2-0.4-2.3-1.2-1-2.8c0.8-1,1.9-1.7,2.9-2.4
		c3.8-2.6,8.1-4.2,12.3-6.2c3.9-1.8,7.8-3.6,11.7-5.5c0.4-0.2,0.9-0.4,1.3-0.6c2.5-1.3,4.8-1.8,7.4,0.1c2.8,2.1,4.7,4.7,4.7,8.3
		c-0.1,3.2-1.2,4.5-4.4,5.3c-2.9,0.8-6,1.1-8.9,1.5C254.4,546.8,246.1,546.9,238,547.9z M541.1,425.3c-0.7,6.3-1.3,12.6-2.7,18.8
		c-1.8,8-3.8,15.9-6.7,23.7c-2.2,5.7-4.3,11.5-6.9,17c-3.1,6.6-6.6,13-10.5,19.2c-4.9,7.8-10.1,15.2-16.3,21.9
		c-3.7,4-7.5,7.9-11.5,11.7c-6.2,5.9-12.9,11-19.7,16.1c-5.6,4.2-11.8,7.6-18,10.9c-6.7,3.5-13.7,6.6-20.8,9.4
		c-10.2,3.9-20.8,6.7-31.5,8.7c-9,1.7-18.2,2.7-29,2.8c-1.9-0.1-5.4-0.4-8.9-0.6c-4.7-0.2-9.3-0.8-14-1.5c-4.5-0.6-9.1-1.4-13.6-2.3
		c-10.4-2.2-20.7-5.1-30.7-8.8c-9.8-3.6-19.4-7.7-28.5-12.8c-2-1.1-3.9-2.2-5.9-3.3c-0.5-0.3-1-0.5-1.4-1c-0.8-0.9-1.8-1.7-1.4-3
		c0.3-1.2,1.6-1.3,2.6-1.6c3-0.7,6.1-1,9.2-1.8c3.8-0.9,5.8-3.2,6.5-7c1.4-7.6-2.8-15.1-10.1-17.9c-2.1-0.8-4.2-0.7-6.3,0
		c-3.9,1.3-7.4,3.5-11,5.4c-3.1,1.6-6.4,2.8-9.6,4.2c-1.8,0.8-3.7,0.1-5.2-1.1c-2.7-2.1-5.2-4.4-7.7-6.7c-1.4-1.2-1.9-3-1.1-4.5
		c2.2-4.1,1.2-8.1,0.5-12.3c-1.1-6.3-3.7-6.2-8.3-6.7c-2.7-0.3-5.4,0-8.1,0.2c-2.5,0.1-4-1.1-5-3.3c-2.4-5.4-4.3-10.9-5.4-16.7
		c-1.6-8.3-1.9-16.6-0.4-25c1.1-6,2.8-11.8,5.3-17.3c1.5-3.2,2.6-3.7,6-2.6c3.9,1.2,7.9,2.3,11.3,4.7c2.2,1.6,4.3,3.4,6.5,5
		c1.9,1.5,4,3,6.5,3c3.5,0,6.8-0.7,9.6-2.8c2.3-1.7,2.5-5.4,0.5-7.5c-1.2-1.2-2.9-1.6-4.4-2.2c-3-1.1-5.9-2.6-9-3.5
		c-4.6-1.3-9.5-1-14.2-1.6c-1.2-0.2-2.5,0.1-3.7-0.5c-1.3-0.7-1.8-1.5-1.2-2.8c0.3-0.8,0.8-1.6,1.4-2.2c7.6-7.1,16.1-12.7,26.3-15.3
		c1.4-0.4,2.9-0.5,4.4-0.6c1.9-0.1,3.1,0.8,3.6,2.7c0.5,1.9,0.4,3.8,1.1,5.7c0.8,2.1,2,3.7,3.9,5c2.4,1.6,4.8,3.1,7.6,3.6
		c1,0.2,1.9,0.3,2.8-0.2c2.3-1.2,4.7-1.9,7.1-2.6c3.5-1,6.2-3.1,8-6.3c0.8-1.4,1-2.9,1-4.5c-0.1-3.2,0.8-4.1,4-4.4
		c0.7-0.1,1.4-0.1,2.1-0.1c2.6-0.2,4.5,0.8,5.5,3.4c0.9,2.3,1.8,4.5,3.1,6.6c2,3.4,5.2,5.1,9,4.6c5.2-0.7,9.8-2.8,13.2-6.9
		c1.1-1.4,2.5-1.8,4.1-1.8c1.8,0.1,3.5,0.2,5.2,0.6c5.2,1.1,10.3,2.8,15.7,3.2c1.9,0.1,3.8,0.8,5.7,1.4c3.8,1.1,7.6,1.7,11.4,2.5
		c1.2,0.3,2.5,0.6,3.6,1.1c1.7,0.7,2.8,2.3,2.5,3.9c-2.1,9.7-6.1,18.3-14.6,24.2c-2.4,1.7-4.9,3.2-7.9,3.7c-1.4,0.3-2.9,0.8-3.4,2.3
		c-0.3,0.8,2.1,2.1,4.1,2.2c0.5,0,1-0.3,1.4-0.1c5.8,1.6,9.6-2,13.6-5.1c4.4-3.5,7.3-8.4,9.9-13.3c1.7-3.3,2.7-6.9,3.6-10.5
		c1.5-6.2,2.3-12.4,2.8-18.8c0.4-5.5,0.3-11-0.1-16.4c-0.3-3.8-0.4-7.6-0.9-11.4c-0.7-5.4-1.6-10.8-2.4-16.2
		c-1.1-7.3-2.3-14.7-3.2-22c-0.6-4.4,0.7-5.7,5.1-5.6c4.8,0.1,9.5,0.5,14.3,0.4c3.1-0.1,6.2-0.3,9.3,0.3c0.9,0.2,1.6,0.4,2.4,0.9
		c3.7,2,7.7,3.3,12,3.3c1.9,0,3.9,0.3,5.8,0.3c3.6,0,7.2-0.1,10.5-1.8c4.2-2.1,8.7-2.1,13.2-2.2c3-0.1,6.1,0.1,9.1,0
		c6.7-0.2,13.2,1.1,19.7,2.2c10,1.7,20.1,2.6,30.1-0.4c6.6-1.9,13.3-3.7,19.8-6.1c2.2-0.8,4.2-2.1,6.3-3.1c0.4-0.2,0.8-0.5,1.3-0.6
		c2.2-0.6,3.1-0.2,3.7,2c0.4,1.3,0.6,2.7,0.7,4c0.6,5.6,3.1,10.7,4.2,16.1c0.7,3.4,1.2,6.9,1.7,10.4c1,8.2,1.2,16.6,1.2,24.8
		C542.4,403.5,542.3,414.4,541.1,425.3z M230.5,438.8c0.5-1.1,1.7-0.7,2.7-0.7c4.1-0.1,7.5,2.2,11.1,3.8c1,0.5,1.1,1.3,1,2.2
		c-0.1,1-0.7,1.8-1.7,2.2c-2.5,0.9-5,0.7-7.3-0.6c-1.9-1-3.5-2.5-4.9-4C230.6,440.9,229.9,439.9,230.5,438.8z M549,310.1
		c-1.8,2.7-4.2,4.9-6.5,7.2c-5.3,5.3-11.5,9.4-17.8,13.4c-3.8,2.4-8.1,3.7-12.4,5.1c-6.3,2.1-12.6,3.8-19.3,4.2
		c-1.5,0.1-2.9,0.2-4.6,0.2c-5.5-0.1-11.1-0.9-16.7-2c-12.1-2.3-24.3-2.7-36.5-1c-2.6,0.4-5.1,1.3-7.6,2.3c-2.2,0.9-4.4,0.8-6.6,0.7
		c-1.2-0.1-2.5-0.4-2.8-1.7c-0.2-1.2,0.9-1.8,1.8-2.4c2.3-1.3,4.7-2.4,7.3-3.1c3.2-0.8,6.1-2.2,9-3.5c3.5-1.5,7.1-2.7,10.7-3.9
		c0.7-0.2,1.5-0.5,2.2-0.9c4.7-2.7,9-5.8,13.3-9c4.2-3.1,8.7-5.6,13.8-6.8c7.4-1.7,14.8-3.7,22.1-5.8c2.9-0.8,5.5-2.5,8.3-3.6
		c6.7-2.6,13.5-4.3,20.8-3.4c2,0.2,3.9,0.5,5.7,1.3c3.2,1.5,6.6,2.4,10,3.1c2.4,0.5,4.1,1.8,5.5,3.6
		C550.2,306,550.3,308.2,549,310.1z M577.4,219.8c0-5.7,0-5.7,5.8-5.6c0.4,0,0.8,0,1.2,0c1.9-0.3,2.8,0.5,2.5,2.5
		c-0.1,0.8,0,1.6,0,2.4c-0.1,5.9,0.8,5-5.2,5C577.1,224.1,577.5,224.5,577.4,219.8z M579.3,423.4c2.4,0,4.8,0,7.2,0
		c0.2,0.6,0.4,1,0.4,1.4c-0.1,2.6,0.4,5.3-0.2,7.9c-3,0.8-6,0.4-9.3,0.2c0-2.7,0-5.2,0-7.7C577.3,423.8,578,423.4,579.3,423.4z
		 M618.5,530.2c-12.5,0.1-24.9,0-37.4,0c-3.6,0-3.7,0-3.6-3.4c0.1-2.7-1-5.7,0.5-7.9c1.4-2,4.4-2.2,6.8-3.2
		c6.2-2.7,12.5-5.3,19.2-8.1c-1.1-1-2-0.7-2.9-0.7c-6.8,0-13.7,0-20.5,0c-3,0-3.1-0.1-3.1-3.1c0-5.9-0.6-4.8,4.9-4.9
		c12.7,0,25.5,0,38.2,0c3.8,0,3.4-0.3,3.4,3.5c0,5.7,0,5.7-5,7.8c-7.3,3.1-14.6,6.1-21.8,9.2c-1.2,0.5-2.3,1.1-4,2
		c2,1.1,3.4,0.8,4.7,0.8c7.9,0,15.8,0.1,23.7,0c2,0,2.5,0.6,2.5,2.5C623.8,531.6,624.7,530.2,618.5,530.2z M623.4,490
		c-1.4,1.4-4.4,0.4-6.6,0.4c-11.9,0-23.9,0-35.8,0c-3.3,0-3.4,0-3.4-3.2c0-16.1,0-32.2,0-48.3c0-3.1,0.1-3.2,3-3.2
		c6.8,0,5.5-0.7,5.6,5.4c0,0.7,0,1.3,0,2c-0.1,1.6,0.7,2.1,2.2,2c0.9-0.1,1.9,0,2.8,0c10.1,0,20.1,0,30.2,0c1.8,0,2.7,0.4,2.6,2.4
		c-0.1,2.4,0,4.8,0,7.5c-1.6,0.7-3,0.4-4.3,0.4c-10.2,0-20.4,0-30.6,0c-1.5,0-3-0.1-2.9,2.1c0.2,6.3-1.1,12.5-0.8,18.8
		c0.2,3.8,0.1,3.8,4.1,3.9c1.9,0,3.8-0.1,5.6,0c2,0.1,2.6-0.8,2.5-2.6c-0.1-2.9,0-5.9,0-8.8c0-1.6,0.6-2.1,2.2-2.1
		c7,0.1,5.6-0.7,5.8,5.2c0.1,2.6-1.2,5.9,0.7,7.7c1.7,1.6,4.9,0.4,7.4,0.5c2.7,0.1,5.4,0.1,8,0c1.8-0.1,2.4,0.7,2.2,2.4
		C623.7,485.2,625.1,488.3,623.4,490z M599.4,406.4c1.8,0.4,3.7,0.5,5.6,0.5c5.2,0.1,10.5,0,15.7,0c3.5,0,3.4-0.2,3.4,3.2
		c0.1,6.5,0.1,6.5-6.6,6.5c-8.3,0-16.6,0-24.9,0c-2.8,0-2.9-0.1-2.9-2.9c0-1.1,0.1-2.2,0-3.2c-0.3-2.2,0.3-3.7,3.9-3.2
		c-3.6-2.9-4.7-5.9-4.5-9.5c0.3-4.5,2.7-7.2,7.2-7.7c8.7-0.9,17.4-0.3,26.1-0.5c1.2,0,1.7,0.5,1.7,1.7c0,2.4,0.7,5.3-0.3,7.1
		c-1.2,2.2-4.4,0.8-6.6,0.8c-4.8,0.2-9.6,0-14.5,0.1c-1.1,0-2.1,0-3.2,0.2c-1.8,0.3-2.9,1.2-3,3.2
		C596.5,404.7,597.3,406.1,599.4,406.4z M623.4,432.7c-1.4,1.3-4.1,0.4-6.2,0.4c-3.5,0.1-7,0-10.4,0c0,0,0,0,0,0
		c-5,0-9.9-0.1-14.9,0c-1.7,0-2.2-0.6-2.3-2.3c-0.4-7.4-0.4-7.4,6.9-7.4c8.2,0,16.3,0,24.5,0c2.9,0,3.1,0.1,3,2.7
		C624,428.4,625,431.3,623.4,432.7z M618.5,382.5c-7.3,3.2-15,3.1-22.4,0.4c-6.5-2.4-8.5-8.6-5.3-14.7c0.2-0.3,0.2-0.7,0.5-1.5
		c-4-0.5-7.6-0.3-11.2-0.2c-1.8,0-2.8-0.3-2.6-2.4c0.2-1.6,0.1-3.2,0-4.8c-0.1-1.8,0.8-2.3,2.4-2.2c14,0.1,27.9,0.1,41.9,0
		c1.8,0,2.4,0.7,2.3,2.4c-0.1,1.1,0,2.1,0,3.2c0,3.3,0,3.3-3.4,3.8c0.1,0.2,0.1,0.6,0.3,0.7C626.6,372.4,625.6,379.5,618.5,382.5z
		 M624.2,298.6c0.1,1.8-0.7,2.2-2.4,2.2c-6.2-0.1-12.3,0-18.5,0c-1.2,0-2.4,0-3.6,0.1c-1.7,0.1-2.8,0.9-3.1,2.6
		c-0.3,1.8,0.6,3.4,2.3,4.2c1.4,0.6,2.9,0.5,4.4,0.5c6,0,12.1,0.1,18.1,0c2.1,0,3,0.6,2.8,2.7c-0.2,2.2,0.3,4.5-0.4,7
		c-6.5,0-12.9,0-19.3,0c-3.9,0-7.8,0-11.7,0c-3,0-3-0.1-3-3.2c0-0.8,0-1.6,0-2.4c0-3,0-3,3-4.2c-2.7-2.4-3.9-5.4-3.6-9
		c0.4-4.4,2.9-7.5,7.3-7.6c9.1-0.2,18.2-0.1,27.4-0.1C624.4,293.8,624,296.2,624.2,298.6z M617,349.8c-6.6,2.4-13.4,2.4-20.1,0
		c-5.3-1.9-7.8-6.2-7.8-12.3c0-6.2,2.5-10.2,7.8-12.3c3.2-1.3,6.5-1.7,9.8-1.6c3.5-0.1,7,0.3,10.2,1.6c5.3,2.1,7.8,6.2,7.8,12.3
		C624.8,343.7,622.3,347.9,617,349.8z M614.9,284.9c-6.1,1.7-12.3,1.7-18.1-1c-8.5-3.9-10.4-15.2-3.9-21.6c2.7-2.7,6.3-3.5,9.9-4
		c5.7-0.7,5.7-0.7,5.7,5c0,3.4,0,6.7,0,10.1c0,2.6,0.1,2.6,2.8,2.6c1.3,0,2.7-0.1,4-0.6c1.7-0.6,2.7-1.8,2.8-3.6
		c0.2-1.9-0.5-3.9-2.3-4.2c-3.9-0.7-3.5-3.2-3.2-6c0.1-1.1,0.2-2.1,0.4-3.4c7.9,1.5,11.5,5.5,11.8,12.4
		C625.2,278.1,621.9,283,614.9,284.9z M618,253.8c-2.9,1.2-3.4,0.9-3.9-2.2c-0.1-0.7-0.1-1.4-0.3-2c-0.5-1.7-0.2-2.7,1.7-3.3
		c2.2-0.7,3-2.5,3-4.7c0-1.5-0.3-3-2.1-3.5c-1.7-0.5-3.2-0.1-4.1,1.6c-0.5,1.1-0.9,2.2-1.4,3.3c-0.7,1.7-1.3,3.5-2.2,5.2
		c-2,3.8-5.3,5.6-9.6,5.3c-4.2-0.2-7-2.4-8.8-6.1c-3.2-6.6-0.8-14.2,5.3-16.8c2.1-0.9,2.3-0.9,3.1,1.4c0.2,0.5,0.3,1,0.5,1.5
		c0.8,1.8,0.8,3.2-1.4,4.1c-1.4,0.5-2.2,1.9-2.3,3.5c-0.1,1.3,0.2,2.5,1.4,3c1.3,0.6,2.6,0.5,3.7-0.6c0.9-0.8,1.3-2,1.8-3.1
		c0.7-1.9,1.4-3.8,2.2-5.6c1.6-3.9,4.5-6,8.6-6.2c4.2-0.2,7.5,1.6,9.8,5.3c1.5,2.5,1.9,5.3,1.8,8.1
		C624.8,247.4,623.3,251.8,618,253.8z M617.9,224c-3.7,0.1-7.5,0-11.3,0c0,0,0,0,0,0c-4.6,0-9.1,0-13.7,0c-3.1,0-3.1,0-3.2-3
		c-0.1-6.7-0.1-6.7,6.7-6.7c8.2,0,16.3,0,24.5,0c3.2,0,3.3,0.1,3.2,3C624.1,225.4,625.4,223.8,617.9,224z M623.9,203.7
		c-1.6,3.6-4.9,4.7-8.6,4.7c-5.3,0-8.9-2.6-10.7-7.5c-0.9-2.5-1.4-5.2-1.6-7.9c-0.1-2.1-1.1-2.5-2.8-2.3c-0.7,0.1-1.3,0.1-2,0.3
		c-1.4,0.3-2.5,1-2.7,2.6c-0.2,1.6,0.4,3.4,1.9,3.6c3.9,0.5,3.1,3.1,2.9,5.6c-0.4,4.9-1.3,5.4-5.5,2.8c-6.5-4-7.9-16.4-2.5-21.8
		c1-1,2.1-1.7,3.4-2c1.6-0.3,3.2-0.6,4.8-0.6c7.7-0.1,15.5,0,23.7,0c0,1.6,0,2.9,0,4.2c0,4,0,4-3.7,5c0.2,1.2,1.3,1.6,2,2.4
		C625.3,196.1,625.7,199.9,623.9,203.7z M634.4,160.3C634.4,160.3,634.4,160.3,634.4,160.3c0,4.9-0.1,9.9,0,14.8
		c0.1,2.4-1.1,2.5-2.9,2.5c-3.2-0.1-3.3,0-3.3-2.5c0-10,0-20.1,0-30.1c0-2.5,0.2-2.5,3.3-2.5c1.8,0,3,0.1,2.9,2.5
		C634.3,150.2,634.4,155.3,634.4,160.3z"/>
	<path class="st0" d="M354.9,514.2c-1.2-1.7-2.7-3-4.8-3.7c-2.8-1-5.6-0.2-6.4,2.6c-1,3.2-1.7,6.5-1.9,10c-0.2,4.3,3.7,7.3,7.5,7
		c2.3,0.2,4.7-0.7,7-1.9c2.3-1.2,3.5-4,2.5-6.5C357.7,519.1,356.6,516.5,354.9,514.2z M351.6,524.7c-1,0.2-2.2,0.4-3-0.4
		c-0.3-0.3-0.6-0.8-0.9-1.2c-0.7-1.3-0.7-2.6,0.1-3.9c0.5-0.8,1.4-1.2,2.3-0.9c1.4,0.5,2,1.8,2.4,3.1c0.1,0.4,0,0.8,0,1.2
		C352.6,523.4,352.7,524.4,351.6,524.7z"/>
</g>
<text transform="matrix(1 0 0 1 0 -6.728313e-06)" class="st1 st2"> </text>
<text transform="matrix(1 0 0 1 0 -6.728313e-06)" class="st1 st2"> </text>
<title>server down</title>
<path class="st3" d="M611.5,552.7c0.1,0.1,0.1,0.3,0.2,0.3c5.1,4,3.6,10.3-3.6,12.1c-5.2,1.3-10.1,0.8-14.8-1.8
	c-5.2-2.9-6.1-6.2-3.4-11.5c0.4-0.8,0.3-1.1-0.5-1.4c-1.2-0.4-0.8-1.5-0.9-2.4c-0.2-1.8,0.5-2.4,2.3-2.1c4.2,0.7,8.5,1.3,12.7,1.9
	c1.2,0.2,2.4,0.3,3.6,0.2c2-0.2,2.7-1.8,1.3-3.4c-0.7-0.8-1.6-1.4-2.6-1.8c-6.2-2.6-12.4-2.5-18.3,0.6c-6.6,3.4-8.6,12.6-4.4,19.3
	c2.3,3.7,5.7,6,9.9,7.2c4.2,1.2,8.5,1.4,12.8,0.6c11.8-2.2,16.5-10.8,13.5-22.4c-0.5-2-1.6-3.7-2.4-5.5c0.2-0.2,0.2-0.6,0.4-0.7
	c3.9-1.8,3.9-1.8,5.6,1.9c4.5,9.5,2.8,20.5-4.4,27.1c-1.8,1.7-3.8,3-6.1,3.9c-8.3,3.1-16.6,3.2-24.6-0.7
	c-11.5-5.6-13.7-16.7-10.7-26.5c1.4-4.6,4.7-7.8,9-9.8c6.4-2.9,13-3.1,19.6-0.7c2.4,0.9,4.5,2.4,6.2,4.3
	C615.6,545.2,615.4,549.1,611.5,552.7z M602.5,559.3c0.8,0,1.6,0.1,2.4,0c1.5-0.2,3.1-0.5,3.3-2.3c0.2-2-1.3-2.8-2.9-3.2
	c-2.7-0.8-5.5-1.1-8.3-0.5c-1,0.2-2.1,0.6-2.3,1.8c-0.2,1.4,0.6,2.3,1.7,2.9C598.3,559,600.3,559.5,602.5,559.3z"/>
<path class="st4" d="M440,245.5c8.5,0.3,17,0.2,25.5-1.1c0.7-0.1,1.4-0.2,2.1-0.1c1.9,0.1,2.8,0.8,3,2.6c0.8,8.6-1.1,16.2-8.9,21.3
	c-4.1,2.7-8.6,3.9-13.4,2.9c-7.5-1.5-14.4-4.4-20.9-8.3c-4.8-2.9-7.2-7.3-7.4-12.9c-0.1-3.2,1-4.3,4.2-4.3
	C429.4,245.5,434.7,245.5,440,245.5z"/>
</svg>
