<?xml version="1.0" encoding="utf-8"?>
<!-- Generator: Adobe Illustrator 24.0.2, SVG Export Plug-In . SVG Version: 6.00 Build 0)  -->
<svg version="1.1" id="Layer_1" xmlns="http://www.w3.org/2000/svg" xmlns:xlink="http://www.w3.org/1999/xlink" x="0px" y="0px"
	 viewBox="0 0 776.6 699" style="enable-background:new 0 0 776.6 699;" xml:space="preserve">
<style type="text/css">
	.st0{fill:#BFBFBF;}
	.st1{font-family:'ArialMT';}
	.st2{font-size:12px;}
	.st3{fill:#979694;}
	.st4{fill:#FBB22F;}
	.st5{fill:#35A749;}
	.st6{clip-path:url(#SVGID_2_);}
	.st7{fill:#FCD113;}
	.st8{fill:#FCE19A;}
	.st9{fill:#E5A824;}
	.st10{fill:#5B5B5B;}
	.st11{enable-background:new    ;}
	.st12{font-family:'ArialRoundedMTBold';}
	.st13{font-size:40px;}
</style>
<g>
	<path class="st0" d="M257.4,395.6c-3.9,1.1-7.7,2.3-11.6,3.3c-1.8,0.5-3.4,1.2-4.5,2.7c-0.5,0.6-1.1,1.1-1.7,1.6
		c-0.8,0.7-1.8,1.1-2.9,1.1c-1.7,0-3.4,0-5.1,0c-0.4,0-0.6-0.1-0.6-0.6c0-1.4,0-2.9,0-4.3c0-0.6,0.2-0.6,0.7-0.6c1,0,2.1,0,3.1,0
		c0.4,0,0.7-0.1,1-0.4c2.3-2.2,4.4-4.5,6.1-7.3c1.9-3.2,2.1-6.4,0.6-9.8c-1.4-3-3.4-5.5-5.7-7.8c-1.7-1.7-3.4-3.5-5.6-4.7
		c-0.4-0.2-0.2-0.5-0.2-0.7c0-1.5,0-2.9-0.1-4.4c-0.1-1.5-1.4-2.5-2.8-2.5c-1.4,0-2.5,1.1-2.6,2.5c-0.1,0.9-0.1,1.8,0,2.7
		c0,0.6-0.2,0.8-0.8,0.6c-1.9-0.6-3.9-1.1-5.8-1.6c-0.3-0.1-0.7-0.3-0.9,0c-0.3,0.3,0.1,0.6,0.2,0.8c2,3.7,3.6,7.5,4.7,11.6
		c0.9,3.4,1.5,6.9,0.4,10.4c-1,3.5-3,6.5-5,9.5c-0.2,0.3-0.5,0.5-0.3,0.9c0.2,0.3,0.5,0.3,0.9,0.3c1.9,0,3.8,0,5.7,0
		c0.6,0,0.8,0.1,0.8,0.7c0,1.3,0,2.7,0,4c0,0.5-0.1,0.7-0.7,0.7c-2.2,0-4.3,0-6.5,0c-2.8-0.1-4.8-2.2-4.9-5c0-0.7-0.2-1-0.9-1
		c-4.5,0-8.9,0-13.4,0c-0.6,0-0.8,0.2-0.8,0.8c-0.2,8.2,6.8,15.8,14.9,16.2c4.5,0.2,9.1,0,13.6,0c0,0,0,0,0,0.1c4,0,8.1-0.1,12.1,0
		c3.4,0.1,5.9-1.3,7.9-3.8c1.7-2.1,3.1-4.5,4.5-6.8c1.2-2,2.7-3.6,4.8-4.4c2-0.8,2.5-2,2.3-4C258.5,395.3,258.5,395.3,257.4,395.6z"
		/>
	<path class="st0" d="M732.8,470.3c-10.6-70.8-36.6-124.7-4.7-244c23.5-87.9-64.7-179.8-166.5-167.9c-74.6,8.7-123,10.1-234.8-15.5
		c-109.2-25-103.9,43.3-186.8,64.6C64.4,127,32.7,189.4,43.5,258c9.5,59.9,31.8,130,33.3,188.6c1.5,58.6-13.3,133.7,60.5,171.4
		c73.8,37.6,134.3,3.8,248.9,25.3c60.1,11.2,162.1,34.5,256.7-14.1C756.7,570.6,740.3,520.3,732.8,470.3z M493.5,148.8
		c-1.4-1.8-4.2-2.7-8.4-2.7c-3.7,0-6.4,0.5-8.3,1.5c-1.8,1-3.4,2.6-4.8,4.6c-1.3,2-2.3,3.4-2.8,4c-0.5,0.7-1.7,1-3.5,1
		c-1.6,0-3-0.5-4.2-1.6c-1.2-1-1.8-2.4-1.8-4c0-2.5,0.9-5,2.7-7.4c1.8-2.4,4.6-4.4,8.4-5.9s8.5-2.3,14.2-2.3
		c6.3,0,11.3,0.7,14.9,2.2c3.6,1.5,6.2,3.9,7.7,7.1s2.2,7.5,2.2,12.9c0,3.4,0,6.2,0,8.6c0,2.4,0,5-0.1,7.9c0,2.7,0.4,5.5,1.3,8.5
		c0.9,2.9,1.3,4.8,1.3,5.7c0,1.5-0.7,2.8-2.1,4c-1.4,1.2-3,1.8-4.7,1.8c-1.5,0-2.9-0.7-4.4-2.1c-1.4-1.4-3-3.4-4.6-6
		c-3.5,2.7-6.9,4.7-10.1,6.1c-3.3,1.4-6.9,2-11,2c-3.7,0-6.9-0.7-9.7-2.2c-2.8-1.5-5-3.4-6.5-5.9s-2.3-5.2-2.3-8.1
		c0-3.9,1.2-7.3,3.7-10.1c2.5-2.8,5.9-4.6,10.3-5.6c0.9-0.2,3.2-0.7,6.8-1.4c3.6-0.7,6.7-1.4,9.3-2c2.6-0.6,5.4-1.4,8.4-2.2
		C495.7,153.3,494.9,150.6,493.5,148.8z M500.2,261.4c1.3-1.3,2.9-2,4.9-2s3.5,0.7,4.9,2c1.4,1.3,2.1,2.9,2.1,4.8
		c0,2.1-0.7,3.8-2.1,5c-1.4,1.2-3,1.8-4.8,1.8c-1.9,0-3.5-0.6-4.9-1.8c-1.4-1.2-2.1-2.9-2.1-5C498.2,264.3,498.9,262.7,500.2,261.4z
		 M498.1,211.9c0-2.5,0.7-4.5,2-5.9c1.3-1.4,3.1-2.1,5.2-2.1c2.6,0,4.4,0.9,5.2,2.7c0.9,1.8,1.3,4.4,1.3,7.8
		c0.3,2.1,0.2,4.2-0.1,6.2l-2,22.5c-0.2,2.7-0.7,4.7-1.4,6.2c-0.7,1.4-1.9,2.1-3.5,2.1c-1.6,0-2.8-0.7-3.4-2.1
		c-0.6-1.4-1.1-3.5-1.4-6.3l-1.5-21.9C498.2,216.8,498.1,213.8,498.1,211.9z M394.7,144.4L394.7,144.4c0-2.7,0.6-4.8,1.8-6.1
		c1.2-1.4,2.8-2,4.9-2c1.3,0,2.4,0.3,3.4,0.9c1,0.6,1.8,1.5,2.5,2.7c0.6,1.2,0.9,2.7,0.9,4.4v1.7c2.5-3.3,5.3-5.8,8.3-7.4
		c3-1.6,6.5-2.3,10.4-2.3c3.8,0,7.2,0.8,10.2,2.5c3,1.7,5.2,4,6.7,7c1,1.8,1.6,3.7,1.8,5.7c0.3,2,0.4,4.6,0.4,7.8V186
		c0,2.9-0.7,5.1-2,6.5c-1.3,1.5-3,2.2-5.1,2.2c-2.1,0-3.9-0.8-5.2-2.3c-1.3-1.5-2-3.7-2-6.5v-24c0-4.7-0.7-8.4-2-10.9
		s-3.9-3.8-7.9-3.8c-2.6,0-4.9,0.8-7,2.3c-2.1,1.5-3.7,3.6-4.6,6.3c-0.7,2.1-1.1,6.2-1.1,12v18c0,2.9-0.7,5.1-2,6.6
		s-3.1,2.2-5.3,2.2c-2.1,0-3.8-0.8-5.1-2.3c-1.3-1.5-2-3.7-2-6.5V144.4z M364,148.8c-1.4-1.8-4.2-2.7-8.4-2.7
		c-3.7,0-6.4,0.5-8.3,1.5c-1.8,1-3.4,2.6-4.7,4.6c-1.3,2-2.3,3.4-2.8,4c-0.5,0.7-1.7,1-3.5,1c-1.6,0-3-0.5-4.2-1.6
		c-1.2-1-1.8-2.4-1.8-4c0-2.5,0.9-5,2.7-7.4c1.8-2.4,4.6-4.4,8.4-5.9s8.5-2.3,14.2-2.3c6.3,0,11.3,0.7,14.9,2.2
		c3.6,1.5,6.2,3.9,7.7,7.1s2.2,7.5,2.2,12.9c0,3.4,0,6.2,0,8.6c0,2.4,0,5-0.1,7.9c0,2.7,0.4,5.5,1.3,8.5c0.9,2.9,1.3,4.8,1.3,5.7
		c0,1.5-0.7,2.8-2.1,4c-1.4,1.2-3,1.8-4.7,1.8c-1.5,0-2.9-0.7-4.4-2.1c-1.4-1.4-3-3.4-4.6-6c-3.5,2.7-6.9,4.7-10.1,6.1
		c-3.3,1.4-6.9,2-11,2c-3.7,0-6.9-0.7-9.7-2.2c-2.8-1.5-5-3.4-6.5-5.9s-2.3-5.2-2.3-8.1c0-3.9,1.2-7.3,3.7-10.1
		c2.5-2.8,5.9-4.6,10.3-5.6c0.9-0.2,3.2-0.7,6.8-1.4c3.6-0.7,6.7-1.4,9.3-2c2.6-0.6,5.4-1.4,8.4-2.2
		C366.2,153.3,365.4,150.6,364,148.8z M262.9,123.6c0.1-2.9,0.7-5.1,1.9-6.6c1.2-1.5,2.8-2.2,4.9-2.2c2.2,0,3.9,0.7,5.1,2.1
		c1.2,1.4,1.8,3.5,1.8,6.1v22c2.7-2.8,5.5-5,8.3-6.5s6.3-2.2,10.4-2.2c4.8,0,9,1.1,12.6,3.4c3.6,2.3,6.4,5.6,8.4,9.9s3,9.4,3,15.3
		c0,4.4-0.6,8.4-1.7,12c-1.1,3.6-2.7,6.8-4.8,9.5c-2.1,2.7-4.7,4.7-7.7,6.2s-6.3,2.2-9.9,2.2c-2.2,0-4.3-0.3-6.3-0.8s-3.6-1.2-5-2.1
		c-1.4-0.9-2.5-1.8-3.5-2.7c-1-0.9-2.2-2.3-3.8-4.1v1.4c0,2.7-0.7,4.8-2,6.1c-1.3,1.4-3,2.1-5,2.1s-3.7-0.7-4.9-2.1
		c-1.2-1.4-1.8-3.4-1.8-6.1V123.6z M275.6,394.5c-0.3,0.1-0.2,0.3-0.2,0.5c-0.2,1.6-0.4,3.3-0.7,4.9c-3.9,20.2-20.5,36-40.8,38.9
		c-1.2,0.2-2.4,0.1-3.5,0.5c-2.5,0-5.1,0-7.6,0c-0.1-0.3-0.4-0.2-0.6-0.2c-2.3-0.2-4.6-0.6-6.9-1.1c-19.4-4.7-34-20.6-36.9-40.3
		c-0.2-1-0.1-2.1-0.5-3.1c0-2.7,0-5.3,0-8c0.3-0.1,0.2-0.4,0.2-0.6c0.2-2.1,0.5-4.2,1-6.3c6-25.8,31.2-42.1,57.2-37
		c20.2,3.9,35.8,20.3,38.8,40.7c0.2,1.1,0.1,2.2,0.5,3.3C275.6,389.3,275.6,391.9,275.6,394.5z M276,226.1v39.2
		c0,2.6-0.6,4.5-1.8,5.8c-1.2,1.3-2.7,2-4.6,2c-1.9,0-3.5-0.7-4.6-2c-1.2-1.3-1.7-3.2-1.7-5.8v-51.6c0-2.2,0.2-3.9,0.7-5.2
		c0.6-1.4,1.5-2.5,2.9-3.4c1.3-0.9,2.8-1.3,4.3-1.3c1.2,0,2.3,0.2,3.1,0.6c0.9,0.4,1.6,0.9,2.3,1.6c0.7,0.7,1.3,1.5,2,2.6
		c0.7,1.1,1.4,2.2,2.1,3.3l26,39.4v-39.8c0-2.6,0.6-4.5,1.7-5.8c1.1-1.3,2.6-1.9,4.5-1.9c1.9,0,3.5,0.6,4.6,1.9
		c1.3,1.5,1.8,3.5,1.8,6v52.6c0,5.9-2.4,8.8-7.3,8.8c-1.2,0-2.3-0.2-3.3-0.5c-1-0.4-1.9-0.9-2.7-1.7c-0.9-0.8-1.6-1.6-2.4-2.7
		c-0.7-1-1.5-2.1-2.2-3.1L276,226.1z M376.4,425.7c0,8-3.3,12-10,12c-1.7,0-3.2-0.2-4.5-0.7c-1.3-0.5-2.6-1.2-3.7-2.3
		c-1.2-1-2.2-2.2-3.2-3.6c-1-1.4-2-2.8-3-4.3l-34.7-53.2v53.5c0,3.5-0.8,6.1-2.4,7.9s-3.7,2.7-6.2,2.7c-2.6,0-4.7-0.9-6.3-2.7
		c-1.6-1.8-2.4-4.4-2.4-7.9v-70.4c0-3,0.3-5.3,1-7c0.8-1.9,2.1-3.4,3.9-4.6c1.8-1.2,3.8-1.8,5.9-1.8c1.7,0,3.1,0.3,4.3,0.8
		s2.2,1.3,3.1,2.2c0.9,0.9,1.8,2.1,2.7,3.5c0.9,1.5,1.9,3,2.9,4.5l35.5,53.8v-54.3c0-3.5,0.8-6.2,2.3-7.9c1.5-1.8,3.6-2.6,6.1-2.6
		c2.7,0,4.8,0.9,6.3,2.6c1.5,1.8,2.3,4.4,2.3,7.9V425.7z M388.1,263.6c-2.8,3.1-6.2,5.5-10.3,7.1c-4.1,1.6-8.7,2.5-14,2.5
		c-5.2,0-9.9-0.8-14-2.5c-4.1-1.7-7.6-4.1-10.4-7.1c-2.8-3.1-4.9-6.8-6.3-11.1c-1.4-4.3-2.1-9-2.1-14c0-5.1,0.7-9.9,2.2-14.1
		c1.5-4.3,3.6-7.9,6.4-10.9s6.2-5.3,10.2-6.9c4-1.6,8.6-2.4,13.7-2.4c6.9,0,12.9,1.4,17.9,4.2c5,2.6,8.8,6.6,11.3,11.8
		c2.6,5.2,3.8,11.3,3.8,18.3c0,5.2-0.7,9.9-2.1,14.1C393,256.8,390.9,260.5,388.1,263.6z M457.7,357.2c-1.4,1.3-3.6,2-6.6,2h-36.4
		v23.3h30.4c2.8,0,4.9,0.6,6.3,1.9c1.4,1.3,2.1,3,2.1,5.1s-0.7,3.8-2.1,5c-1.4,1.2-3.5,1.9-6.3,1.9h-30.4v30.1
		c0,3.8-0.9,6.6-2.6,8.5c-1.7,1.8-3.9,2.8-6.6,2.8c-2.7,0-5-0.9-6.7-2.8s-2.6-4.7-2.6-8.5v-70.2c0-2.7,0.4-4.8,1.2-6.5
		s2-2.9,3.7-3.7c1.7-0.8,3.8-1.2,6.4-1.2h43.6c2.9,0,5.1,0.7,6.6,2c1.4,1.3,2.1,3,2.1,5.1C459.9,354.1,459.1,355.9,457.7,357.2z
		 M458.7,268.1c-0.5-1.3-1.2-3.5-2.1-6.6l-10.8-40.1l-10.9,40.1c-0.9,3-1.5,5.2-2,6.5s-1.4,2.5-2.6,3.6c-1.2,1-2.9,1.6-5,1.6
		c-1.7,0-3-0.3-4.1-0.9c-1.1-0.6-2-1.5-2.6-2.6c-0.7-1.1-1.2-2.5-1.6-4.1c-0.4-1.6-0.8-3-1.1-4.4l-11.1-45c-0.7-2.6-1-4.6-1-6
		c0-1.7,0.6-3.2,1.8-4.4c1.2-1.2,2.7-1.8,4.5-1.8c2.5,0,4.1,0.8,5,2.4c0.9,1.6,1.6,3.9,2.2,6.9l8.8,39l9.8-36.5
		c0.7-2.8,1.4-4.9,2-6.4c0.6-1.5,1.5-2.7,2.8-3.8c1.3-1.1,3.1-1.6,5.3-1.6c2.3,0,4.1,0.6,5.3,1.7c1.1,1.1,2,2.3,2.5,3.6
		s1.1,3.5,2,6.5l9.9,36.5l8.8-39c0.4-2,0.8-3.6,1.2-4.8c0.4-1.2,1-2.2,2-3.1c0.9-0.9,2.3-1.4,4-1.4c1.8,0,3.3,0.6,4.5,1.8
		s1.8,2.6,1.8,4.4c0,1.2-0.3,3.2-1,6l-11.1,45c-0.8,3-1.4,5.3-1.9,6.7s-1.4,2.7-2.6,3.7c-1.2,1.1-2.9,1.6-5.1,1.6
		c-2.1,0-3.7-0.5-5-1.6C460.1,270.6,459.2,269.4,458.7,268.1z M540,358c-1.6,1.4-3.9,2.1-7.1,2.1h-20.2v66.3c0,3.8-0.9,6.6-2.6,8.5
		s-3.9,2.8-6.6,2.8c-2.7,0-5-0.9-6.7-2.8c-1.7-1.9-2.6-4.7-2.6-8.5v-66.3h-20.2c-3.2,0-5.5-0.7-7-2.1c-1.5-1.4-2.3-3.2-2.3-5.5
		c0-2.4,0.8-4.2,2.4-5.6c1.6-1.4,3.9-2.1,6.9-2.1h58.8c3.2,0,5.6,0.7,7.1,2.1c1.6,1.4,2.3,3.3,2.3,5.5S541.5,356.7,540,358z
		 M595.4,427.5c-2.3,3.3-5.7,5.9-10.1,7.6c-4.5,1.7-9.9,2.6-16.3,2.6c-6.1,0-11.3-0.9-15.7-2.8c-4.4-1.9-7.6-4.2-9.6-7
		c-2.1-2.8-3.1-5.6-3.1-8.4c0-1.9,0.7-3.5,2-4.8c1.3-1.3,3-2,5-2c1.8,0,3.2,0.4,4.1,1.3c1,0.9,1.9,2.1,2.7,3.7
		c1.7,3,3.8,5.3,6.3,6.8c2.4,1.5,5.7,2.2,9.9,2.2c3.4,0,6.2-0.8,8.4-2.3c2.2-1.5,3.3-3.2,3.3-5.2c0-3-1.1-5.2-3.4-6.5
		c-2.3-1.4-6-2.7-11.2-3.9c-5.8-1.5-10.6-3-14.3-4.6c-3.7-1.6-6.6-3.7-8.8-6.3c-2.2-2.6-3.3-5.8-3.3-9.6c0-3.4,1-6.6,3-9.6
		c2-3,5-5.4,9-7.2c4-1.8,8.7-2.7,14.3-2.7c4.4,0,8.3,0.5,11.9,1.4c3.5,0.9,6.4,2.1,8.8,3.7c2.3,1.5,4.1,3.2,5.4,5.1
		c1.2,1.9,1.8,3.7,1.8,5.5c0,2-0.7,3.5-2,4.8c-1.3,1.2-3.2,1.9-5.6,1.9c-1.7,0-3.2-0.5-4.5-1.5c-1.2-1-2.6-2.5-4.2-4.5
		c-1.3-1.7-2.8-3-4.5-4c-1.7-1-4.1-1.5-7.1-1.5c-3.1,0-5.6,0.7-7.7,2s-3,2.9-3,4.9c0,1.8,0.7,3.2,2.2,4.4c1.5,1.1,3.5,2.1,6,2.8
		c2.5,0.7,6,1.7,10.5,2.7c5.3,1.3,9.6,2.8,12.9,4.6c3.3,1.8,5.9,3.9,7.6,6.3s2.6,5.2,2.6,8.3C598.8,420.1,597.6,424.2,595.4,427.5z"
		/>
	<path class="st0" d="M202.7,392.8c2,0,4.1,0,6.1,0c1.5,0,2.9-0.1,4.4,0c1.9,0.2,3-0.5,3.8-2.2c1.2-2.5,2.3-4.9,1.9-7.8
		c-0.5-3.7-1.7-7.2-3.2-10.6c-0.3-0.7-0.7-0.5-1,0c-4.2,6.5-8.4,13.1-12.6,19.6C201.7,392.5,201.8,392.8,202.7,392.8z"/>
</g>
<text transform="matrix(1 0 0 1 0 -6.728313e-06)" class="st1 st2"> </text>
<text transform="matrix(1 0 0 1 0 -6.728313e-06)" class="st1 st2"> </text>
<title>server down</title>
<path class="st0" d="M244.1,154.6L244.1,154.6c0.1,0,0.2-0.1,0.2-0.1l-0.1-0.1C244.2,154.5,244.1,154.5,244.1,154.6z"/>
<path class="st3" d="M397.9,18.4c0-0.2,0-0.3,0-0.5c3.5,0,7,0,10.6,0C404.9,18.5,401.4,18.5,397.9,18.4z"/>
<path class="st3" d="M428.6,18.4c-3.5,0.1-7.1,0.2-10.6-0.5c3.5,0,7,0,10.6,0C428.6,18,428.6,18.2,428.6,18.4z"/>
<path class="st0" d="M373.7,217.5c-2.9-1.8-6.3-2.8-10.1-2.8c-2.7,0-5.2,0.5-7.5,1.5s-4.3,2.5-5.9,4.4c-1.7,1.9-3,4.4-3.9,7.5
	c-1,3-1.4,6.4-1.4,10.2s0.5,7.2,1.4,10.3c1,3.1,2.3,5.6,4.1,7.6c1.7,2,3.8,3.5,6,4.5c2.3,1,4.8,1.5,7.5,1.5c3.5,0,6.7-0.9,9.6-2.6
	s5.2-4.4,6.9-8c1.7-3.6,2.6-8.1,2.6-13.4c0-4.9-0.8-9.1-2.4-12.7C378.9,222.1,376.6,219.4,373.7,217.5z"/>
<path class="st0" d="M291.5,183.6c3.6,0,6.7-1.6,9.4-4.7c2.6-3.1,3.9-7.7,3.9-13.5c0-3.8-0.5-7.1-1.6-9.8s-2.6-4.9-4.6-6.4
	s-4.3-2.2-7-2.2s-5.2,0.7-7.3,2.2c-2.1,1.5-3.8,3.7-5.1,6.5c-1.2,2.8-1.8,6.2-1.8,10.1c0,5.7,1.3,10.1,3.9,13.2
	S287.3,183.6,291.5,183.6z"/>
<path class="st0" d="M351.2,185.3c2.8,0,5.5-0.6,7.9-1.9c2.4-1.2,4.2-2.9,5.3-4.8c1.3-2.2,2-5.8,2-10.8v-2.1
	c-2.1,0.8-5.2,1.6-9.2,2.5s-6.8,1.5-8.4,1.9c-1.5,0.4-3,1.2-4.4,2.4s-2.1,2.8-2.1,4.9c0,2.2,0.8,4,2.5,5.6
	C346.3,184.6,348.5,185.3,351.2,185.3z"/>
<path class="st0" d="M478.3,170.1c-1.5,0.4-3,1.2-4.4,2.4s-2.1,2.8-2.1,4.9c0,2.2,0.8,4,2.5,5.6c1.7,1.5,3.8,2.3,6.5,2.3
	c2.9,0,5.5-0.6,7.9-1.9c2.4-1.2,4.2-2.9,5.3-4.8c1.3-2.2,2-5.8,2-10.8v-2.1c-2.1,0.8-5.2,1.6-9.2,2.5
	C482.6,169.1,479.8,169.7,478.3,170.1z"/>
<g>
	<ellipse class="st4" cx="363.7" cy="238.5" rx="36" ry="35.8"/>
	<ellipse class="st5" cx="363.7" cy="238.5" rx="26.2" ry="26.1"/>
	<g>
		<g>
			<g>
				<defs>
					<ellipse id="SVGID_1_" cx="363.7" cy="238.5" rx="26.2" ry="26.1"/>
				</defs>
				<clipPath id="SVGID_2_">
					<use xlink:href="#SVGID_1_"  style="overflow:visible;"/>
				</clipPath>
				<g class="st6">
					<path class="st7" d="M377.7,259.3c-2-4-3.1-8.9-1.8-13.3c1-3.4,4.4-5.5,9.9-5.5c6.6,0,5.8-3.7,5.8-3.7s-0.8,3.6-13,2.8
						c-6.4-0.4-11.7,3.1-8.6,14.1C370,253.8,377.7,259.3,377.7,259.3z"/>
					<path class="st8" d="M368.7,243.1c-5-13.2,1.7-23.2-2.7-26.9c-3.8-3.2-9.5,2.6-12,11.7c2.6,0.1,4.8,2.2,5,4.9
						c0.2,2.9-2,5.4-4.9,5.5c2.9-0.2,5.4,2,5.5,4.9c0.2,2.9-2,5.4-4.9,5.5h-0.2c0.1,0.3,0.2,0.5,0.3,0.8c5,13.8,17.4,20.7,22.4,15.5
						C381.9,260,372.8,254,368.7,243.1z"/>
					<path class="st4" d="M365.2,265.3c-7.9-7-8.9-12.6-12.2-10.1c0,0,1.9-1.7,5.3-4.3c5.8-4.5,19.7,3.6,20.2,11.4
						C378.7,266.4,370.7,270.1,365.2,265.3z"/>
					<path class="st7" d="M364.3,249.6c-2.9-0.9-6.9,1.7-8.1,9.3c-0.9,5.7-3.1,8.2-4.5,8.9c-2.1,1-4.5-0.3-4.5-0.3s2.3-0.5,3-5.2
						c0.8-5.4,1.1-6.8,2.9-8.3c1.8-1.4,4.1-2.9,6.6-3.9C362.6,248.9,364.3,249.6,364.3,249.6z"/>
					<path class="st9" d="M342.4,265c1.6-0.8,5,3.7,9.6,2.7c0,0-3.1,1.2-5.5,1.2C344,268.8,341.6,265.4,342.4,265z"/>
					<path class="st4" d="M364.6,242.9c-0.2-2.9-2.7-5.1-5.5-4.9c2.9-0.2,5.1-2.7,4.9-5.5c-0.2-2.9-2.7-5.1-5.5-4.9L354,228
						c0.1,0,2.2,0.2,3.8,1.8c0.7,0.8,1.2,1.9,1.3,3.1c0.2,2.9-2,5.3-4.9,5.5c0.1,0,0.2,0,0.2,0c2.8,0,5.1,2.1,5.3,4.9
						c0.2,2.7-1.8,5.1-4.5,5.5l4.6-0.3C362.6,248.2,364.8,245.8,364.6,242.9z"/>
				</g>
			</g>
		</g>
	</g>
</g>
<circle class="st10" cx="926" cy="366.9" r="11"/>
<text transform="matrix(1 0 0 1 223.4565 516.9894)" class="st11"><tspan x="0" y="0" class="st5 st12 st13">Bananow Official</tspan><tspan x="-60.6" y="48" class="st5 st12 st13">Collection On OpenSea</tspan></text>
</svg>
