<?xml version="1.0" encoding="utf-8"?>
<!-- Generator: Adobe Illustrator 24.0.2, SVG Export Plug-In . SVG Version: 6.00 Build 0)  -->
<svg version="1.1" id="Layer_1" xmlns="http://www.w3.org/2000/svg" xmlns:xlink="http://www.w3.org/1999/xlink" x="0px" y="0px"
	 viewBox="0 0 1500 1500" style="enable-background:new 0 0 1500 1500;" xml:space="preserve">
<style type="text/css">
	.st0{fill:#BFBFBF;}
	.st1{clip-path:url(#SVGID_2_);fill:#FFD39F;}
	.st2{clip-path:url(#SVGID_2_);}
	.st3{fill:#745020;}
	.st4{opacity:0.1;clip-path:url(#SVGID_2_);}
	.st5{clip-path:url(#SVGID_2_);fill:#FFED9F;}
	.st6{clip-path:url(#SVGID_2_);fill:#EACA7A;}
	.st7{clip-path:url(#SVGID_2_);fill:#DDBC5F;}
	.st8{clip-path:url(#SVGID_2_);fill:#E8AA1F;}
	.st9{clip-path:url(#SVGID_2_);fill:#FFE578;}
	.st10{opacity:0.5;clip-path:url(#SVGID_2_);}
	.st11{clip-path:url(#SVGID_2_);fill:url(#SVGID_3_);}
	.st12{clip-path:url(#SVGID_2_);fill:url(#SVGID_4_);}
	.st13{clip-path:url(#SVGID_6_);}
	.st14{fill:url(#SVGID_7_);}
	.st15{opacity:0.2;}
	.st16{fill:#3D1328;}
	.st17{fill:#FFFFFF;}
	.st18{fill:url(#SVGID_8_);}
	.st19{opacity:0.5;clip-path:url(#SVGID_2_);fill:#FFFFFF;}
	.st20{clip-path:url(#SVGID_2_);fill:url(#SVGID_9_);}
	.st21{clip-path:url(#SVGID_11_);}
	.st22{clip-path:url(#SVGID_2_);fill:#444444;}
</style>
<path class="st0" d="M1312.4,1308.4c-53.2,53.2-163.6,99.3-238.9,99.3c-155.2,0-374-63.6-544.8-30.4c-92.5,18-319.5,39.1-386.2-27.5
	c-92.3-92.3-19.5-331.2-19.5-461.7c0-174.5-18.5-216.3-22.5-339.1c-3.4-103.1-8.6-248.5,64.3-321.5
	c75.7-75.7,160.7-111.6,310.3-102.7C648,135.1,764.3,38.6,982,102.4c167.4,49.1,267.6,26.5,337.1,96
	c72.2,72.2,50.1,232.9,46.9,334.9c-4.5,140.7,40.2,265.6,40.2,363.9C1406.2,1021.5,1400.3,1220.5,1312.4,1308.4z"/>
<g>
	<defs>
		<path id="SVGID_1_" d="M1312.4,1308.4c-53.2,53.2-163.6,99.3-238.9,99.3c-155.2,0-374-63.6-544.8-30.4
			c-92.5,18-319.5,39.1-386.2-27.5c-92.3-92.3-19.5-331.2-19.5-461.7c0-174.5-18.5-216.3-22.5-339.1
			c-3.4-103.1-8.6-248.5,64.3-321.5c75.7-75.7,160.7-111.6,310.3-102.7C648,135.1,764.3,38.6,982,102.4
			c167.4,49.1,267.6,26.5,337.1,96c72.2,72.2,50.1,232.9,46.9,334.9c-4.5,140.7,40.2,265.6,40.2,363.9
			C1406.2,1021.5,1400.3,1220.5,1312.4,1308.4z"/>
	</defs>
	<clipPath id="SVGID_2_">
		<use xlink:href="#SVGID_1_"  style="overflow:visible;"/>
	</clipPath>
	<path class="st1" d="M988.3,1399.2c-25.4-125.5-84.1-310.7-102-538.9c-32.1-407.9,124.1-576.3,41.4-651.5
		c-108.3-98.6-353.8,101.3-396.5,452.4c-38.9,320,7,591.1,38.8,738.3L988.3,1399.2z"/>
	<g class="st2">
		<path class="st3" d="M886,860.3c-1.6-18.4-2.9-36.8-3.8-55.3c-0.8-18.5-1.4-36.9-1.5-55.4c-0.1-18.5,0.2-37,0.9-55.4
			c0.7-18.5,1.7-36.9,3.3-55.4c3.1-36.8,7.8-73.6,14-110c6.2-36.5,14-72.6,22.7-108.5c4.3-18,8.9-35.9,13.3-53.8
			c4.4-17.9,8.6-35.9,11.9-54c1.6-9.1,2.9-18.2,3.7-27.3c0.8-9.2,0.9-18.4,0-27.5c-0.5-4.6-1.2-9.1-2.4-13.5c-0.5-2.2-1.3-4.4-2-6.6
			c-0.4-1.1-0.8-2.1-1.3-3.2l-0.6-1.6l-0.7-1.5c-1.9-4.2-4.3-8-7-11.7l-2.1-2.7c-0.7-0.9-1.5-1.7-2.3-2.6L931,213
			c-0.4-0.4-0.8-0.8-1.2-1.2l-2.5-2.4c-6.7-6.2-14.4-11.5-22.6-15.5c-8.2-4-17.1-6.8-26.2-8.2c-9.1-1.5-18.3-1.7-27.4-0.9
			c-9.2,0.8-18.2,2.5-27.1,5c-8.8,2.5-17.5,5.7-25.9,9.5c-8.4,3.8-16.5,8.2-24.4,12.9c-7.9,4.8-15.5,9.9-22.9,15.4
			c-7.4,5.5-14.6,11.3-21.5,17.3c-13.9,12.1-26.8,25.2-39,39c-12.1,13.8-23.5,28.3-34.2,43.3c-10.7,15-20.5,30.6-29.8,46.5
			c-9.2,16-17.7,32.3-25.6,48.9C585,456,572,490.6,561.4,525.9c-10.6,35.3-18.6,71.3-24.3,107.7c-0.7,4.6-1.4,9.1-2,13.7l-1.8,13.7
			l-3.2,27.5l-2.8,27.5l-2.5,27.6c-3.1,36.8-5.2,73.6-6.3,110.5c-2.3,73.8-0.7,147.7,4.1,221.4l-0.4,0
			c-6.1-73.6-8.5-147.6-6.8-221.5c0.9-36.9,2.7-73.9,5.5-110.7c0.8-9.2,1.5-18.4,2.3-27.6L526,688l3.1-27.6l1.8-13.8
			c0.6-4.6,1.3-9.2,2-13.7c2.8-18.3,6.3-36.5,10.4-54.6c4-18.1,8.7-36,14.1-53.7c10.7-35.4,24-70.1,39.9-103.6
			c15.9-33.4,34.6-65.6,56.2-95.7c10.8-15,22.4-29.5,34.7-43.3c12.4-13.8,25.6-26.8,39.6-38.9c7-6,14.3-11.8,21.8-17.2
			c7.5-5.4,15.2-10.5,23.2-15.3c8-4.7,16.2-9,24.7-12.7c8.4-3.8,17.2-7,26.1-9.5c8.9-2.5,18.1-4.2,27.3-5c9.2-0.8,18.6-0.5,27.8,1
			c9.2,1.5,18.1,4.3,26.5,8.3c8.4,4,16.1,9.3,23,15.6l2.5,2.4c0.4,0.4,0.8,0.8,1.2,1.2l1.2,1.3c0.8,0.9,1.6,1.7,2.3,2.6l2.2,2.8
			c2.8,3.7,5.3,7.7,7.2,12l0.8,1.6l0.7,1.6c0.4,1.1,0.9,2.2,1.3,3.3c0.7,2.2,1.5,4.4,2.1,6.7c1.2,4.5,2,9.1,2.5,13.7
			c1,9.2,1,18.6,0.3,27.8c-0.7,9.2-1.9,18.4-3.5,27.6c-3.1,18.3-7.2,36.3-11.4,54.3l-12.8,53.9c-4.2,18-8.3,36-12.1,54
			c-3.8,18.1-7.3,36.2-10.4,54.3c-6.3,36.3-11.2,72.9-14.4,109.7c-6.5,73.5-6.7,147.5-1.6,221.2L886,860.3z"/>
	</g>
	<g class="st4">
		
			<image style="overflow:visible;" width="1440" height="4753" xlink:href="619041E37E6E9D06.png"  transform="matrix(0.24 0 0 0.24 504.3781 203.7122)">
		</image>
	</g>
	<path class="st5" d="M904.5,1398.8c-0.1-31.2,62.3-323.4,286.2-323.4c53.4,0,134,31.2,208.8,26.7l-0.1,26.1c0,0-70.9,5.5-167.8-6.1
		c-165.5-19.8-192.4,276.8-192.4,276.8H904.5z"/>
	<path class="st6" d="M912.8,1417.4c0-51.3,64.3-330,268.3-327.3c53.4,0.7,143.2,37.3,218.1,33.4l0.1,10.8c0,0-49.5,3.6-151.4,1.5
		c-189.5-3.9-176.7,297.3-176.7,297.3L912.8,1417.4z"/>
	<g class="st2">
		<path class="st3" d="M904.3,1398.8c-0.1-3.6,0.3-7.1,0.7-10.7c0.4-3.5,1-7.1,1.5-10.6c1.2-7,2.6-14,4.2-20.9
			c1.6-6.9,3.4-13.8,5.3-20.7c1-3.4,1.9-6.9,2.9-10.3c1-3.4,2.1-6.8,3.2-10.2c8.8-27.1,19.7-53.6,33.3-78.6
			c13.6-25.1,29.6-48.8,48-70.5c9.2-10.9,19-21.2,29.6-30.8c10.5-9.6,21.8-18.4,33.8-26.2c12-7.8,24.7-14.4,38-19.8
			c13.3-5.4,27.1-9.4,41.2-12.1c14.1-2.7,28.4-4.1,42.7-4.2c7.2-0.1,14.4,0.3,21.5,1.2c7.1,0.9,14.2,2.1,21.2,3.6
			c14,2.9,27.7,6.4,41.6,9.5c13.8,3.1,27.7,5.9,41.7,7.9c14,2.2,28.1,3.7,42.2,4.7c7.1,0.5,14.2,0.9,21.2,1.2l10.6,0.3l10.6,0.2
			l0,0.4c-14.2,0.5-28.4,0.5-42.7-0.1c-14.2-0.6-28.4-1.8-42.6-3.6c-14.1-1.9-28.2-4.4-42.1-7.3c-7-1.5-13.9-3-20.8-4.6
			c-6.9-1.6-13.8-3.1-20.8-4.5c-13.9-2.8-27.8-4.8-41.8-4.6c-14.1,0.1-28.2,1.3-42,3.8c-13.9,2.5-27.5,6.4-40.6,11.4
			c-13.1,5.1-25.8,11.4-37.9,18.8c-12.1,7.4-23.4,15.9-34.1,25.2c-10.6,9.4-20.5,19.6-29.7,30.4c-9.1,10.8-17.5,22.4-25.1,34.3
			c-7.6,11.9-14.6,24.3-21.1,36.9c-12.9,25.2-24,51.3-33.2,78.1c-4.5,13.4-8.8,26.9-12.3,40.7c-1.8,6.9-3.4,13.8-4.9,20.7
			c-0.7,3.5-1.4,6.9-2,10.4c-0.5,3.5-1.1,7-1.3,10.5L904.3,1398.8z"/>
	</g>
	<g class="st2">
		<path class="st3" d="M1005.7,1349.7c5-19,10.6-37.8,17-56.3c3.2-9.3,6.6-18.5,10.3-27.6c3.8-9.1,7.7-18.1,12.1-26.9
			c4.4-8.8,9-17.4,14.1-25.8c5-8.4,10.4-16.6,16.3-24.5c11.7-15.8,25.2-30.3,41.1-42c7.9-5.8,16.4-11,25.3-15.2
			c4.4-2.1,9-4,13.7-5.6c4.6-1.7,9.4-3.1,14.1-4.3c19.1-4.9,39-6.2,58.7-4.7c9.8,0.8,19.5,2.2,29.2,3.7c9.7,1.5,19.4,3,29.1,4.3
			c9.7,1.3,19.4,2.3,29.2,3c9.8,0.8,19.5,1.2,29.3,1.4l0,0.2c-9.8,0.1-19.6-0.2-29.4-0.7c-9.8-0.5-19.6-1.4-29.3-2.5
			c-9.7-1.1-19.4-2.6-29.1-3.9c-9.7-1.4-19.4-2.7-29.1-3.4c-9.7-0.7-19.5-0.8-29.2,0c-9.7,0.8-19.4,2.3-28.8,4.7
			c-18.9,4.7-36.9,12.9-52.8,24.3c-8,5.6-15.4,12.1-22.3,18.9c-6.9,6.9-13.2,14.4-19.1,22.3c-2.9,3.9-5.7,8-8.4,12.1
			c-2.7,4.1-5.3,8.3-7.7,12.5c-4.9,8.5-9.3,17.2-13.5,26c-1,2.2-2.1,4.4-3.1,6.7c-1,2.2-2,4.5-3,6.7c-1.9,4.5-3.9,9-5.7,13.5
			c-3.7,9-7.2,18.2-10.5,27.4c-6.6,18.4-12.6,37.1-18.3,55.8L1005.7,1349.7z"/>
	</g>
	<path class="st5" d="M557.8,1399.2c32.4-162-114.4-341.1-219.5-309.4c-114.5,34.6,63.4-61,144-72.7
		c83.2-12.1,313.1,57.3,342.6,382.3L557.8,1399.2z"/>
	<path class="st7" d="M518.5,1399.2c-19.2-207.8-53.9-283.5-197.5-309.4c0,0,64.7-32.1,140.3-62.4c71.7-28.7,314.6,42.1,340.3,371.8
		H518.5z"/>
	<g class="st2">
		<path class="st3" d="M518.3,1399.2c-1.2-16.9-2.6-33.7-4.5-50.5c-0.5-4.2-1-8.4-1.5-12.6c-0.5-4.2-1.1-8.4-1.7-12.5
			c-1.2-8.3-2.5-16.7-3.9-25c-1.4-8.3-2.9-16.6-4.6-24.9c-0.4-2.1-0.9-4.1-1.4-6.2c-0.5-2.1-0.9-4.1-1.5-6.2c-0.5-2.1-1-4.1-1.6-6.1
			c-0.5-2-1.1-4.1-1.7-6.1c-4.7-16.2-11-32-18.6-47c-7.7-15-16.6-29.3-27.1-42.4c-10.5-13.1-22.6-24.8-36.1-34.6
			c-13.5-9.9-28.4-17.7-44.2-23.5c-15.7-5.8-32.3-9.4-49.1-11.6l0-0.4c16.9,0.8,33.8,3.7,50.1,9c16.2,5.3,31.7,13.1,45.6,23
			c6.9,5,13.5,10.5,19.6,16.5c6.1,6,11.8,12.4,17,19.2c10.5,13.5,19.1,28.3,26.1,43.8c3.6,7.7,6.7,15.6,9.7,23.5
			c3,7.9,5.7,16,8.2,24.1c0.6,2,1.3,4,1.9,6.1c0.6,2,1.2,4.1,1.8,6.1c0.6,2,1.2,4.1,1.7,6.1c0.6,2,1.1,4.1,1.7,6.1
			c2.1,8.2,4.1,16.5,5.7,24.8c1.6,8.3,3,16.7,4.1,25.1c0.5,4.2,1,8.4,1.5,12.6c0.4,4.2,0.8,8.4,1.2,12.7c1.4,16.9,2,33.9,1.8,50.8
			L518.3,1399.2z"/>
	</g>
	<path class="st8" d="M583.9,1041c-89.9-35.8-174.9,14.8-217.3,123.1s-108.3,146-153,150.7c-44.7,4.7-95.7-15.6-95.7-15.6
		s59.1-18.2,93.6-101.6c40-96.5,51.8-121.8,98.7-139.6c47-17.8,117.7-35.7,182.1-41C539.5,1013.3,583.9,1041,583.9,1041z"/>
	<path class="st9" d="M576.7,1029.8c-61.9-31.7-161.2-1.6-219.1,134.3c-43,101-103.3,137.4-135.9,142.8c-51.8,8.7-98.6-27-98.6-27
		s54,1.1,88.6-82.4c40-96.5,51.8-121.8,98.7-139.6c47-17.8,102.6-34.7,162.7-41.5C541.2,1008.8,576.7,1029.8,576.7,1029.8z"/>
	<g class="st2">
		<path class="st3" d="M443.4,1058c13.9,2.6,27.2,7.8,39.6,14.6c0.8,0.4,1.6,0.8,2.3,1.3l2.3,1.4l4.5,2.8c0.8,0.4,1.5,0.9,2.2,1.4
			l2.2,1.5l4.4,3c2.8,2.1,5.6,4.3,8.4,6.5l4,3.4c1.3,1.2,2.7,2.3,4,3.5l3.8,3.6c1.3,1.2,2.6,2.4,3.8,3.7l3.7,3.8l1.8,1.9l1.8,2
			l3.5,4l1.8,2l1.7,2l3.4,4.1l1.7,2l1.6,2.1c8.7,11.1,16.7,22.8,23.9,34.9c7.3,12.1,13.7,24.7,19.3,37.7c5.5,13,10.3,26.3,14,40
			c3.8,13.6,6.7,27.5,8.6,41.5c1.9,14,2.7,28.1,2.5,42.2l-0.2,0c-0.7-28.2-5.2-56.1-12.8-83.1c-3.8-13.5-8.4-26.8-13.8-39.8
			c-5.4-13-11.6-25.6-18.5-37.9c-6.9-12.2-14.7-24-23.5-35c-4.4-5.5-9-10.8-13.9-15.9l-1.8-1.9l-1.9-1.8l-3.8-3.7
			c-1.2-1.3-2.5-2.4-3.8-3.6l-3.9-3.5c-10.5-9.3-21.8-17.8-34-24.7c-12.2-6.9-25.2-12.4-38.9-15.7L443.4,1058z"/>
	</g>
	<g class="st2">
		<path class="st3" d="M295.1,1130.6c-8.4,17.3-14.7,35.5-21.8,53.5c-3.6,9-7.3,17.8-11.2,26.7c-3.9,8.8-7.9,17.6-12.6,26
			c-4.6,8.5-10,16.6-16.4,23.9c-6.3,7.3-13.6,13.9-21.9,19.2c-8.2,5.3-17.3,9.1-26.6,11.7c-9.4,2.5-19,3.8-28.7,4l0-0.2
			c9.6-0.9,19.1-2.5,28.2-5.3c9.2-2.8,17.9-6.8,25.9-12c8-5.2,15.2-11.5,21.6-18.6c6.4-7.1,11.9-15,16.9-23.2
			c4.9-8.2,9.2-16.9,13-25.7c3.8-8.9,7-17.9,10.3-27c3.3-9,6.8-18,10.5-26.9c3.8-8.9,7.8-17.7,12.7-26L295.1,1130.6z"/>
	</g>
	<path class="st8" d="M100.5,1255.9c26,29.3,58.7,57.6,112.6,59.1c0,0-58.8-2.5-112.6-4.2V1255.9z"/>
	<g class="st2">
		<path class="st3" d="M191.3,1233.4c5.1-7.4,9.2-15.3,13.2-23.3c4-8,7.7-16.1,11.4-24.2c7.4-16.3,14.4-32.7,21.7-49
			c1.8-4.1,3.7-8.1,5.6-12.2c1.9-4,3.9-8.1,6.3-11.9c2.2-3.8,4.4-7.8,6.7-11.6c2.3-3.8,4.8-7.6,7.6-11.1
			c5.6-7.1,12.2-13.3,19.5-18.6c3.7-2.6,7.5-5,11.4-7.2c3.9-2.2,8-4.2,12.1-6c8.2-3.7,16.7-6.6,25.2-9.2l25.7-7.6
			c17.2-5,34.3-9.9,51.7-14.1c17.3-4.3,34.9-7.7,52.7-9.9c17.7-2.3,35.6-3.4,53.5-3.5c9,0.1,17.9,1.4,26.7,3.1
			c8.8,1.8,17.4,4.2,25.9,7c17,5.6,33.5,12.9,49.3,21.2c15.8,8.3,31,17.9,45.5,28.4c14.5,10.5,28.2,22.1,41.2,34.5
			c12.9,12.4,25,25.7,36,39.8c11,14.1,21,29,29.8,44.6c8.9,15.5,16.5,31.8,22.9,48.5c3.2,8.4,6,16.8,8.6,25.4
			c2.5,8.6,4.7,17.2,6.7,26l-0.2,0c-2.1-8.7-4.4-17.3-7-25.8c-2.7-8.5-5.7-16.9-8.9-25.2c-6.6-16.6-14.3-32.7-23.2-48.1
			c-17.8-30.9-40.3-59-66-83.6c-25.7-24.7-54.8-45.7-86.2-62.6c-15.7-8.3-32-15.6-48.9-21.3c-4.2-1.4-8.5-2.7-12.8-3.9
			c-4.3-1.2-8.6-2.2-13-3.2c-8.7-1.8-17.5-3.1-26.4-3.3c-17.8-0.1-35.7,0.8-53.4,2.9c-17.7,2.1-35.3,5.4-52.6,9.5
			c-17.3,4.2-34.5,9.2-51.6,14.4c-17,5.4-34.4,10-50.5,17.3c-4.1,1.8-8,3.8-11.9,6c-3.9,2.2-7.6,4.5-11.2,7.1
			c-7.2,5.1-13.8,11.2-19.3,18.1c-2.7,3.5-5.2,7.2-7.5,10.9c-2.3,3.8-4.5,7.7-6.7,11.6c-2.3,3.8-4.3,7.7-6.3,11.8
			c-1.9,4-3.8,8.1-5.7,12.1c-7.4,16.2-14.5,32.6-22.1,48.8c-3.8,8.1-7.7,16.1-11.7,24.1c-4.1,7.9-8.4,15.8-13.5,23.1L191.3,1233.4z"
			/>
	</g>
	<path class="st10" d="M682.8,686.4c0,0,23.8-40.9,43-53c27.7-17.4,51.7,0.2,56.4-3.9c4.7-4.1-24.3-33.8-62.7-6.3
		C701,636.5,682.8,686.4,682.8,686.4z"/>
	<path class="st10" d="M858.5,694.6c0,0,2.8-34.1-17.9-52.2c-11.2-9.7-31.7-4.9-33.9-9.4c-2.2-4.5,19.2-18.7,39.4,0
		C864.2,649.8,858.5,694.6,858.5,694.6z"/>
	
		<linearGradient id="SVGID_3_" gradientUnits="userSpaceOnUse" x1="9073.4092" y1="827.2496" x2="9073.4092" y2="688.8464" gradientTransform="matrix(-0.9936 -0.1129 -0.1129 0.9936 9929.6631 1034.9268)">
		<stop  offset="0" style="stop-color:#D09600"/>
		<stop  offset="0.3087" style="stop-color:#E1AC3A"/>
		<stop  offset="0.6293" style="stop-color:#F1C171"/>
		<stop  offset="0.8695" style="stop-color:#FBCE92"/>
		<stop  offset="1" style="stop-color:#FFD39F"/>
	</linearGradient>
	<path class="st11" d="M788.7,771c-1.9,30.1,7.5,58.8,35.4,62c25.1,2.9,41.9-21.9,41.8-54.7c-0.2-63-16.6-85.1-40.7-84
		C810.5,694.9,792.7,709.2,788.7,771z"/>
	
		<linearGradient id="SVGID_4_" gradientUnits="userSpaceOnUse" x1="729.2789" y1="840.6381" x2="729.2789" y2="674.7747" gradientTransform="matrix(0.9936 0.1129 -0.1129 0.9936 91.3435 -82.8242)">
		<stop  offset="0" style="stop-color:#D09600"/>
		<stop  offset="0.3087" style="stop-color:#E1AC3A"/>
		<stop  offset="0.6293" style="stop-color:#F1C171"/>
		<stop  offset="0.8695" style="stop-color:#FBCE92"/>
		<stop  offset="1" style="stop-color:#FFD39F"/>
	</linearGradient>
	<path class="st12" d="M776.5,772.9c-8.1,34.2-20.7,63.7-44.4,62.8c-20.5-0.8-32.7-6.7-43.7-21.9c-7.3-10-11.7-36.2-8-61.9
		c10.8-74.6,43-87.7,72.4-79.8C770.8,676.9,792.7,704.6,776.5,772.9z"/>
	<g class="st2">
		<defs>
			<path id="SVGID_5_" d="M687.5,730.2c5-18.1,28.3-19.3,60.9-13.6c11.3,2,27.1,10.3,26.9,23.2c-0.2,12.9,13.9,13.1,14.7,0.2
				c1.5-23.7,70.3-18.8,73.2,0.7c2.9,19.6,8.5,74.7,8.5,74.7s-35.5,17.4-92.8,14.5s-112.4-27.5-112.4-27.5L687.5,730.2z"/>
		</defs>
		<clipPath id="SVGID_6_">
			<use xlink:href="#SVGID_5_"  style="overflow:visible;"/>
		</clipPath>
		<g class="st13">
			
				<radialGradient id="SVGID_7_" cx="8779.9326" cy="1123.673" r="37.2572" fx="8791.8486" fy="1123.3282" gradientTransform="matrix(-1.0916 -0.124 -0.2225 1.9585 10663.9443 -358.1783)" gradientUnits="userSpaceOnUse">
				<stop  offset="0" style="stop-color:#D0D2D3"/>
				<stop  offset="0.242" style="stop-color:#CFD1D0"/>
				<stop  offset="0.4008" style="stop-color:#CDCEC8"/>
				<stop  offset="0.5358" style="stop-color:#CAC9B9"/>
				<stop  offset="0.6574" style="stop-color:#C4C2A3"/>
				<stop  offset="0.77" style="stop-color:#BEB988"/>
				<stop  offset="0.876" style="stop-color:#B5AD66"/>
				<stop  offset="0.9751" style="stop-color:#ACA03F"/>
				<stop  offset="1" style="stop-color:#A99C34"/>
			</radialGradient>
			<path class="st14" d="M794.1,753.5c-3.5,39,4.5,57.4,31.8,57.1c18.8-0.2,40.1-10.1,37.7-48.9c-2.8-43.7-12.8-63.7-34.2-66.1
				C807.9,693.2,796.8,723.7,794.1,753.5z"/>
			<path class="st15" d="M810.2,796.6c-2.2-1.1-3.2-2-3.2-2S808.1,795.4,810.2,796.6z"/>
			
				<ellipse transform="matrix(0.1129 -0.9936 0.9936 0.1129 -20.4352 1488.1437)" class="st16" cx="823.2" cy="755.5" rx="26.1" ry="18.9"/>
			<path class="st17" d="M839.5,733.5c0,0-1.5-12.8-2.9-18.6c-1.4-5.8-10.1-14.7-10.1-14.7s8-0.8,15.9,3.9
				c7.9,4.6,10.2,13.4,10.2,13.4l-5.5,19.2L839.5,733.5z"/>
			<path class="st17" d="M848.4,740l8.1-11.4c0,0,0.6,2.2,1.3,5c0.7,2.8-0.1,5.2-0.1,5.2l-8.8,3.6L848.4,740z"/>
			<polygon class="st17" points="838,740.3 834.3,746.9 841.3,751.9 844.1,748.9 			"/>
		</g>
		<g class="st13">
			
				<radialGradient id="SVGID_8_" cx="249.8754" cy="1162.8872" r="43.7571" fx="263.8701" fy="1162.4823" gradientTransform="matrix(1.1735 0.1333 -0.2277 2.0043 702.1003 -1622.9542)" gradientUnits="userSpaceOnUse">
				<stop  offset="0" style="stop-color:#D0D2D3"/>
				<stop  offset="0.242" style="stop-color:#CFD1D0"/>
				<stop  offset="0.4008" style="stop-color:#CDCEC8"/>
				<stop  offset="0.5358" style="stop-color:#CAC9B9"/>
				<stop  offset="0.6574" style="stop-color:#C4C2A3"/>
				<stop  offset="0.77" style="stop-color:#BEB988"/>
				<stop  offset="0.876" style="stop-color:#B5AD66"/>
				<stop  offset="0.9751" style="stop-color:#ACA03F"/>
				<stop  offset="1" style="stop-color:#A99C34"/>
			</radialGradient>
			<path class="st18" d="M774.7,751c-6.4,46.6-21.4,65.9-55,58.1c-23.2-5.4-46.6-22.9-32.8-67.7c15.5-50.4,33.3-71,60.4-67.9
				S779.7,715.3,774.7,751z"/>
			
				<ellipse transform="matrix(0.1129 -0.9936 0.9936 0.1129 -99.275 1380.7937)" class="st16" cx="723.6" cy="746" rx="27" ry="21.1"/>
			<path class="st15" d="M743,796.9c3-0.6,4.5-1.4,4.5-1.4S745.9,796.1,743,796.9z"/>
			<path class="st17" d="M746.7,724.7c0,0-2.6-16.5-5-23.9c-2.4-7.5-15.9-19.2-15.9-19.2s18.4-8.3,30.6-2.2
				c12.2,6.2,10.9,17,10.9,17l-8.9,32.5L746.7,724.7z"/>
			<path class="st17" d="M760.6,733.3l12.1-14.3c0,0,1,2.8,2.1,6.4s0,6.7,0,6.7l-13.4,4.3L760.6,733.3z"/>
			<polygon class="st17" points="741,731.5 735.5,739.9 746.4,746.5 750.7,742.8 			"/>
			<path class="st15" d="M721.4,803.1c-13.8-6.8-16-20.8-16.5-34c-0.2-5.5,0.1-10.7,0.8-15.7l-2.8-0.3c-0.8-0.1-1.3-0.8-1.3-1.7
				c0-1,0.9-1.7,1.8-1.6l2.8,0.5c0.2-1,0.3-2,0.5-3.1l-3.1-0.6c-1-0.2-1.7-1.2-1.6-2.4l0.3-2.4c0.1-1.2,1.2-2.1,2.4-1.8l3.3,0.8
				c0.5-2.4,1.1-4.8,1.6-7.3c2.8-13.6-8.8-12.5-5.6-23.6c5-17.2,14.5-23.7,14.5-23.7s-12.3,4-23.2,33.4
				c-13.4,36.3-15.8,56.8,1.6,74.4c14,14.1,32.5,13.8,40.3,13C733.8,807.3,728.5,806.6,721.4,803.1z"/>
		</g>
	</g>
	<path class="st19" d="M775.3,724.3c0,0,1.4-8.9-4.3-23.4c-5.8-14.5-11.6-19.6-20.3-21c-4.3-0.7-0.9,7.6,0.5,21.3
		C751.9,708.3,775.3,724.3,775.3,724.3z"/>
	<path class="st19" d="M856.5,725.2c0,0,0.2-0.5-6.9-12.1s-12.7-15-20.1-14.9c-3.6,0,6.7,7.7,7.7,14.4
		C838.6,722.4,856.5,725.2,856.5,725.2z"/>
	<linearGradient id="SVGID_9_" gradientUnits="userSpaceOnUse" x1="771.9693" y1="1003.9883" x2="771.9693" y2="908.9876">
		<stop  offset="0" style="stop-color:#000000"/>
		<stop  offset="0.1662" style="stop-color:#191307"/>
		<stop  offset="0.5531" style="stop-color:#503B17"/>
		<stop  offset="0.8427" style="stop-color:#715421"/>
		<stop  offset="1" style="stop-color:#7E5D25"/>
	</linearGradient>
	<path class="st20" d="M864,920.6c0,0,3.1,32.1-54.6,31c-65.2-1.3-131.3-42.6-131.3-42.6s45.3,99.5,131.2,94.8
		C881.3,999.9,864,920.6,864,920.6z"/>
	<path class="st19" d="M864,920.6c0,0,17.4,80.1-53.9,83.1c-88.3,3.7-132-94.7-132-94.7s35.4,117.8,131.7,110.5
		C886.5,1013.7,864,920.6,864,920.6z"/>
	<path class="st10" d="M864,920.6c0,0,22.4,110-53.9,114.3c-88.2,5-132-126-132-126s35.4,117.8,131.7,110.5
		C886.5,1013.7,864,920.6,864,920.6z"/>
	<g class="st2">
		<defs>
			<path id="SVGID_10_" d="M807.8,959.7c-61.6,0.4-120.5-39.4-120.5-39.4s37.6,81.3,122.1,80.5c63.5-0.6,54.9-71.1,54.9-71.1
				S863.3,959.4,807.8,959.7z"/>
		</defs>
		<clipPath id="SVGID_11_">
			<use xlink:href="#SVGID_10_"  style="overflow:visible;"/>
		</clipPath>
		<g class="st21">
			<path class="st17" d="M805.8,916.8c0,0,2.3,46.1,1.7,52.4c-0.6,6.3-30.1,6.8-34.8,4.5c-4.7-2.3-2.8-62.1,2.6-62.5
				S798.6,912.8,805.8,916.8z"/>
			<path class="st17" d="M772.5,926.4c0,0-3.3,19-2.5,41.2c0.3,8.1-23.3,0.3-27.2-2.9s-4.5-40.2,4.5-48
				C756.4,908.9,767.4,913.4,772.5,926.4z"/>
			<path class="st17" d="M743,921.5c0,0-1.1,12.6-3.1,23.4c-1.5,8-15.1,18.9-18.9,15.7c-3.8-3.2-12-36-3-43.7
				C727.1,909.1,737.9,908.5,743,921.5z"/>
			<path class="st17" d="M712.3,927.6c0,0,1.5,18.1,1.6,29.1c0.1,8.1-13.2,9.7-17.6,7.6s-8-3.9-3.6-15.8
				C698.4,933,704.8,916.3,712.3,927.6z"/>
			<path class="st17" d="M807.1,917.5c0,0,0.9,46.2,1.7,52.4c0.8,6.2,21.9,2.8,25.2-0.2c3.3-2.9-1.5-62.2-5.4-61.9
				S811.9,912.7,807.1,917.5z"/>
			<path class="st17" d="M834.3,920.9c0,0,0.7,31.3,1.3,38.4c0.6,7,14.4,3.9,16.5,0.7c2.1-3.2-1.2-49.5-3.8-49.3
				C845.7,910.9,837.4,915.6,834.3,920.9z"/>
			<path class="st17" d="M850.6,922.3c0,0,1.9,17.2,2.4,24.3c0.6,7,8.7,10.3,10.6,6.9c6.4-11.2-3.4-40.2-6-40
				C855.1,913.7,853.7,917,850.6,922.3z"/>
			<path class="st17" d="M808.9,1012.6c0,0,1.4-41.6-3.8-39.4c-6.4,2.7-27.6,4.7-32.3,1.5c-4.4-3-0.7,40.6,6.2,48.3
				C795.7,1041.3,806.9,1024.5,808.9,1012.6z"/>
			<path class="st17" d="M774.4,1016.8c0,0-4.5-18.4-5.2-40.6c-0.3-8.1-20.3-3.7-26.7-8.5c-3.9-3-2.2,42.4,1.6,48.6
				C750.4,1026.6,770.2,1030.5,774.4,1016.8z"/>
			<path class="st17" d="M716.4,1009.2c0,0-2.6-38.6,5.8-44.1c6.1-4,12-11,15.9-7.9c3.8,3.2,1.3,48.1,0.7,57.5
				C737.9,1027.5,721.5,1022.1,716.4,1009.2z"/>
			<path class="st17" d="M714.3,1004.6c0,0,2.2-38.5-0.4-39.5c-4-1.5-15.9,3.6-23.3-1.2c-4.1-2.7-3.9,26.2,1.2,37.4
				C698.5,1015.9,707.6,1017,714.3,1004.6z"/>
			<path class="st17" d="M810.1,1011.6c0,0-3.5-38.3,1.9-37.5c5.7,0.8,18.6-2.4,22,0c3.4,2.4,1.6,39.6-0.1,43.7
				C831.5,1023.7,815.4,1029.1,810.1,1011.6z"/>
			<path class="st17" d="M837.7,1008.4c0,0-1.4-31.3-1.3-38.4c0.1-7.1,14.1-6.1,16.4-3.3s2.7,39.7,0.1,39.9
				C850.4,1006.8,841.1,1013.2,837.7,1008.4z"/>
			<path class="st17" d="M867.3,987.7c0,0,3-14.5,2.4-21.6c-0.6-7-13.2-12.8-14.3-9c-2.7,9.6-0.2,41.6,2.4,41.4
				C860.4,998.3,864.2,993,867.3,987.7z"/>
		</g>
	</g>
	<path class="st2" d="M915.4,475.8c17.9-13.4,22.3-69.2,29-100.5c6.7-31.3,20.1-96,4.5-140.7s-80.4-75.9-125-60.3
		s-134,62.5-167.4,113.9c-33.5,51.3-60.3,91.5-69.2,116.1c-14.8,40.7-8.5,38.8,17.9,44.7c20.1,4.5,53.6-2.2,107.2-4.5
		c53.6-2.2,102.7,4.5,127.3,4.5C864,449,915.4,475.8,915.4,475.8z"/>
	<path class="st22" d="M915.4,475.8c17.9-13.4,20.1-26.8,22.3-46.9c2-17.6-125-46.9-196.5-44.7c-75.9,2.4-142.9-6.7-158.5,15.6
		c-24.9,35.5-12.9,43.3,13.4,49.1c20.1,4.5,62.5-2.2,116.1-4.5c53.6-2.2,102.7,4.5,127.3,4.5C864,449,915.4,475.8,915.4,475.8z"/>
	<ellipse class="st2" cx="847.8" cy="885.3" rx="6.1" ry="8.1"/>
</g>
</svg>
