<?xml version="1.0" encoding="utf-8"?>
<!-- Generator: Adobe Illustrator 24.0.2, SVG Export Plug-In . SVG Version: 6.00 Build 0)  -->
<svg version="1.1" id="Layer_1" xmlns="http://www.w3.org/2000/svg" xmlns:xlink="http://www.w3.org/1999/xlink" x="0px" y="0px"
	 viewBox="0 0 776.6 699" style="enable-background:new 0 0 776.6 699;" xml:space="preserve">
<style type="text/css">
	.st0{fill:#BFBFBF;}
	.st1{font-family:'ArialMT';}
	.st2{font-size:12px;}
	.st3{fill:#979694;}
	.st4{fill:#FBB22F;}
	.st5{fill:#35A749;}
	.st6{clip-path:url(#SVGID_2_);}
	.st7{fill:#FCD113;}
	.st8{fill:#FCE19A;}
	.st9{fill:#E5A824;}
	.st10{fill:#5B5B5B;}
	.st11{font-family:'ArialRoundedMTBold';}
	.st12{font-size:40px;}
	.st13{fill:#38A449;}
	.st14{fill:#FAB030;}
	.st15{opacity:0.3;}
</style>
<g>
	<path class="st0" d="M732.8,470.3c-10.6-70.8-36.6-124.7-4.7-244c23.5-87.9-64.7-179.8-166.5-167.9c-74.6,8.7-123,10.1-234.8-15.5
		c-109.2-25-103.9,43.3-186.8,64.6C64.4,127,32.7,189.4,43.5,258c9.5,59.9,31.8,130,33.3,188.6c1.5,58.6-13.3,133.7,60.5,171.4
		c73.8,37.6,134.3,3.8,248.9,25.3c60.1,11.2,162.1,34.5,256.7-14.1C756.7,570.6,740.3,520.3,732.8,470.3z M493.5,148.8
		c-1.4-1.8-4.2-2.7-8.4-2.7c-3.7,0-6.4,0.5-8.3,1.5c-1.8,1-3.4,2.6-4.8,4.6c-1.3,2-2.3,3.4-2.8,4c-0.5,0.7-1.7,1-3.5,1
		c-1.6,0-3-0.5-4.2-1.6c-1.2-1-1.8-2.4-1.8-4c0-2.5,0.9-5,2.7-7.4c1.8-2.4,4.6-4.4,8.4-5.9s8.5-2.3,14.2-2.3
		c6.3,0,11.3,0.7,14.9,2.2c3.6,1.5,6.2,3.9,7.7,7.1s2.2,7.5,2.2,12.9c0,3.4,0,6.2,0,8.6c0,2.4,0,5-0.1,7.9c0,2.7,0.4,5.5,1.3,8.5
		c0.9,2.9,1.3,4.8,1.3,5.7c0,1.5-0.7,2.8-2.1,4c-1.4,1.2-3,1.8-4.7,1.8c-1.5,0-2.9-0.7-4.4-2.1c-1.4-1.4-3-3.4-4.6-6
		c-3.5,2.7-6.9,4.7-10.1,6.1c-3.3,1.4-6.9,2-11,2c-3.7,0-6.9-0.7-9.7-2.2c-2.8-1.5-5-3.4-6.5-5.9s-2.3-5.2-2.3-8.1
		c0-3.9,1.2-7.3,3.7-10.1c2.5-2.8,5.9-4.6,10.3-5.6c0.9-0.2,3.2-0.7,6.8-1.4c3.6-0.7,6.7-1.4,9.3-2c2.6-0.6,5.4-1.4,8.4-2.2
		C495.7,153.3,494.9,150.6,493.5,148.8z M500.2,261.4c1.3-1.3,2.9-2,4.9-2s3.5,0.7,4.9,2c1.4,1.3,2.1,2.9,2.1,4.8
		c0,2.1-0.7,3.8-2.1,5c-1.4,1.2-3,1.8-4.8,1.8c-1.9,0-3.5-0.6-4.9-1.8c-1.4-1.2-2.1-2.9-2.1-5C498.2,264.3,498.9,262.7,500.2,261.4z
		 M498.1,211.9c0-2.5,0.7-4.5,2-5.9c1.3-1.4,3.1-2.1,5.2-2.1c2.6,0,4.4,0.9,5.2,2.7c0.9,1.8,1.3,4.4,1.3,7.8
		c0.3,2.1,0.2,4.2-0.1,6.2l-2,22.5c-0.2,2.7-0.7,4.7-1.4,6.2c-0.7,1.4-1.9,2.1-3.5,2.1c-1.6,0-2.8-0.7-3.4-2.1
		c-0.6-1.4-1.1-3.5-1.4-6.3l-1.5-21.9C498.2,216.8,498.1,213.8,498.1,211.9z M394.7,144.4L394.7,144.4c0-2.7,0.6-4.8,1.8-6.1
		c1.2-1.4,2.8-2,4.9-2c1.3,0,2.4,0.3,3.4,0.9c1,0.6,1.8,1.5,2.5,2.7c0.6,1.2,0.9,2.7,0.9,4.4v1.7c2.5-3.3,5.3-5.8,8.3-7.4
		c3-1.6,6.5-2.3,10.4-2.3c3.8,0,7.2,0.8,10.2,2.5c3,1.7,5.2,4,6.7,7c1,1.8,1.6,3.7,1.8,5.7c0.3,2,0.4,4.6,0.4,7.8V186
		c0,2.9-0.7,5.1-2,6.5c-1.3,1.5-3,2.2-5.1,2.2c-2.1,0-3.9-0.8-5.2-2.3c-1.3-1.5-2-3.7-2-6.5v-24c0-4.7-0.7-8.4-2-10.9
		s-3.9-3.8-7.9-3.8c-2.6,0-4.9,0.8-7,2.3c-2.1,1.5-3.7,3.6-4.6,6.3c-0.7,2.1-1.1,6.2-1.1,12v18c0,2.9-0.7,5.1-2,6.6
		s-3.1,2.2-5.3,2.2c-2.1,0-3.8-0.8-5.1-2.3c-1.3-1.5-2-3.7-2-6.5V144.4z M364,148.8c-1.4-1.8-4.2-2.7-8.4-2.7
		c-3.7,0-6.4,0.5-8.3,1.5c-1.8,1-3.4,2.6-4.7,4.6s-2.3,3.4-2.8,4c-0.5,0.7-1.7,1-3.5,1c-1.6,0-3-0.5-4.2-1.6c-1.2-1-1.8-2.4-1.8-4
		c0-2.5,0.9-5,2.7-7.4c1.8-2.4,4.6-4.4,8.4-5.9s8.5-2.3,14.2-2.3c6.3,0,11.3,0.7,14.9,2.2c3.6,1.5,6.2,3.9,7.7,7.1s2.2,7.5,2.2,12.9
		c0,3.4,0,6.2,0,8.6c0,2.4,0,5-0.1,7.9c0,2.7,0.4,5.5,1.3,8.5c0.9,2.9,1.3,4.8,1.3,5.7c0,1.5-0.7,2.8-2.1,4c-1.4,1.2-3,1.8-4.7,1.8
		c-1.5,0-2.9-0.7-4.4-2.1c-1.4-1.4-3-3.4-4.6-6c-3.5,2.7-6.9,4.7-10.1,6.1c-3.3,1.4-6.9,2-11,2c-3.7,0-6.9-0.7-9.7-2.2
		c-2.8-1.5-5-3.4-6.5-5.9s-2.3-5.2-2.3-8.1c0-3.9,1.2-7.3,3.7-10.1c2.5-2.8,5.9-4.6,10.3-5.6c0.9-0.2,3.2-0.7,6.8-1.4
		c3.6-0.7,6.7-1.4,9.3-2c2.6-0.6,5.4-1.4,8.4-2.2C366.2,153.3,365.4,150.6,364,148.8z M262.9,123.6L262.9,123.6
		c0.1-2.9,0.7-5.1,1.9-6.6c1.2-1.5,2.8-2.2,4.9-2.2c2.2,0,3.9,0.7,5.1,2.1c1.2,1.4,1.8,3.5,1.8,6.1v22c2.7-2.8,5.5-5,8.3-6.5
		s6.3-2.2,10.4-2.2c4.8,0,9,1.1,12.6,3.4c3.6,2.3,6.4,5.6,8.4,9.9s3,9.4,3,15.3c0,4.4-0.6,8.4-1.7,12c-1.1,3.6-2.7,6.8-4.8,9.5
		c-2.1,2.7-4.7,4.7-7.7,6.2s-6.3,2.2-9.9,2.2c-2.2,0-4.3-0.3-6.3-0.8s-3.6-1.2-5-2.1c-1.4-0.9-2.5-1.8-3.5-2.7
		c-1-0.9-2.2-2.3-3.8-4.1v1.4c0,2.7-0.7,4.8-2,6.1c-1.3,1.4-3,2.1-5,2.1s-3.7-0.7-4.9-2.1c-1.2-1.4-1.8-3.4-1.8-6.1V123.6z
		 M276,265.3c0,2.6-0.6,4.5-1.8,5.8s-2.7,2-4.6,2c-1.9,0-3.5-0.7-4.6-2c-1.2-1.3-1.7-3.2-1.7-5.8v-51.6c0-2.2,0.2-3.9,0.7-5.2
		c0.6-1.4,1.5-2.5,2.9-3.4c1.3-0.9,2.8-1.3,4.3-1.3c1.2,0,2.3,0.2,3.1,0.6c0.9,0.4,1.6,0.9,2.3,1.6c0.7,0.7,1.3,1.5,2,2.6
		c0.7,1.1,1.4,2.2,2.1,3.3l26,39.4v-39.8c0-2.6,0.6-4.5,1.7-5.8c1.1-1.3,2.6-1.9,4.5-1.9c1.9,0,3.5,0.6,4.6,1.9
		c1.3,1.5,1.8,3.5,1.8,6v52.6c0,5.9-2.4,8.8-7.3,8.8c-1.2,0-2.3-0.2-3.3-0.5c-1-0.4-1.9-0.9-2.7-1.7c-0.9-0.8-1.6-1.6-2.4-2.7
		c-0.7-1-1.5-2.1-2.2-3.1l-25.4-39V265.3z M357.9,384.3c0.1,3.1-1.2,4.6-3.9,4.6c-5,0-7.8-0.2-8.3-0.7c-1.6-0.3-2.8-0.2-3.5,0.1
		c-0.8,0.4-1.2,0.9-1.2,1.6v-1.1l-6.4,4.5v70c0,3.8-1.8,5.7-5.5,5.7c-1.9,0-4.7-0.2-8.3-0.5c-4.6-0.5-6.9-1.1-7-1.7
		c-1.1-0.3-1.7-1.4-1.7-3.3v-69.8l-6.3-4.5v0.7c0-0.6-0.4-1.1-1.1-1.6c-0.2-0.1-0.4-0.2-0.7-0.3c-1.1,0.5-2.8,0.8-5.3,0.8
		c-1.4,0-3.2-0.2-5.3-0.5c-2.5-0.4-3.9-0.9-4.1-1.4c-0.5-0.3-0.7-1.3-0.7-2.7c0-0.1,0-0.9,0-2.3c0.1-1.6,0.2-2.4,0.2-2.5
		c0-0.1,0.2-1,0.3-2.7c0.2-1.7,0.3-2.6,0.5-2.6h67c0.1,0,0.2,0.7,0.4,2.2c0.2,1.5,0.3,2.3,0.3,2.4c0,0.1,0.2,1,0.3,2.7
		C358,383.1,358,384.1,357.9,384.3z M363.8,273.2c-5.2,0-9.9-0.8-14-2.5c-4.1-1.7-7.6-4.1-10.4-7.1c-2.8-3.1-4.9-6.8-6.3-11.1
		c-1.4-4.3-2.1-9-2.1-14c0-5.1,0.7-9.9,2.2-14.1c1.5-4.3,3.6-7.9,6.4-10.9s6.2-5.3,10.2-6.9c4-1.6,8.6-2.4,13.7-2.4
		c6.9,0,12.9,1.4,17.9,4.2c5,2.6,8.8,6.6,11.3,11.8c2.6,5.2,3.8,11.3,3.8,18.3c0,5.2-0.7,9.9-2.1,14.1c-1.4,4.2-3.5,7.9-6.3,11
		c-2.8,3.1-6.2,5.5-10.3,7.1C373.7,272.3,369.1,273.2,363.8,273.2z M442.4,402.4c0,3.8-1.2,6.9-3.5,9.3c-2.4,2.5-5.3,4-8.9,4.6
		c-2.4,0.4-5.1,0.9-8.1,1.6c0.9,1,1.8,2,2.9,3c0.5,0.6,1.2,1.6,2.1,3c0.9,1.4,1.3,2.2,1.3,2.6l7.7,23.1c0.7,0.6,1.3,1.5,1.7,2.5
		c0.4-0.2,0.8,1.9,1.1,6.1l1.2,3.7c0.2,0.5-0.1,0.9-0.8,1.2c0-0.1,0,0.7,0,2.4c0-0.5-0.1-2.7-0.4-6.4c0-0.3,0-0.6-0.1-0.8l-2.9-8.6
		c-0.5-0.4-1.1-0.8-1.7-1.1c-1.6-0.6-2.8-1.4-3.6-2.4c-0.2-0.2-3.2-3.9-8.9-11.2c-5.8-7.3-9-10.9-9.6-10.9c-5.3,0-8,1.5-8,4.5l-2,11
		c0,1.2-0.9,1.8-2.6,1.8h-0.9l-9.6,24.3c-0.9,2.2-2.7,3.3-5.4,3.3c-1.6,0-2.8-0.4-3.7-1.2c-0.9-0.8-1.3-2.4-1.3-4.7v-83.8
		c0-0.9,0.2-1.9,0.5-3.1c0.5-1.6,1.1-2.4,1.8-2.4h49.7c3.2,0,6,1.1,8.4,3.2c2.4,2.1,3.5,5,3.5,8.5V402.4z M458.7,268.1
		c-0.5-1.3-1.2-3.5-2.1-6.6l-10.8-40.1l-10.9,40.1c-0.9,3-1.5,5.2-2,6.5s-1.4,2.5-2.6,3.6c-1.2,1-2.9,1.6-5,1.6
		c-1.7,0-3-0.3-4.1-0.9c-1.1-0.6-2-1.5-2.6-2.6c-0.7-1.1-1.2-2.5-1.6-4.1c-0.4-1.6-0.8-3-1.1-4.4l-11.1-45c-0.7-2.6-1-4.6-1-6
		c0-1.7,0.6-3.2,1.8-4.4c1.2-1.2,2.7-1.8,4.5-1.8c2.5,0,4.1,0.8,5,2.4c0.9,1.6,1.6,3.9,2.2,6.9l8.8,39l9.8-36.5
		c0.7-2.8,1.4-4.9,2-6.4c0.6-1.5,1.5-2.7,2.8-3.8c1.3-1.1,3.1-1.6,5.3-1.6c2.3,0,4.1,0.6,5.3,1.7c1.1,1.1,2,2.3,2.5,3.6
		s1.1,3.5,2,6.5l9.9,36.5l8.8-39c0.4-2,0.8-3.6,1.2-4.8c0.4-1.2,1-2.2,2-3.1c0.9-0.9,2.3-1.4,4-1.4c1.8,0,3.3,0.6,4.5,1.8
		s1.8,2.6,1.8,4.4c0,1.2-0.3,3.2-1,6l-11.1,45c-0.8,3-1.4,5.3-1.9,6.7s-1.4,2.7-2.6,3.7c-1.2,1.1-2.9,1.6-5.1,1.6
		c-2.1,0-3.7-0.5-5-1.6C460.1,270.6,459.2,269.4,458.7,268.1z M492.1,414.7c1.1,0.8,2.8,1.2,5,1.2h11.4c2.9,0,4.3,1.5,4.3,4.6
		c0,3.1-1.6,4.6-4.7,4.6h-12.1c-1.1,0.4-2.4,0.8-3.8,1.3c-0.2,0.1-1.1,0.6-2.9,1.4c-1.1,0.6-1.6,1.1-1.6,1.3v25.6
		c0,0.8,1.7,1.7,5.1,2.6c4.3,1.1,6.5,1.6,6.7,1.7c2.2,0.3,4.8,0.6,7.9,0.9h13.9c2.7,0,4,1.5,3.9,4.5c0,0.9-0.4,1.4-1.3,1.6
		c0,0.9-4.4,1.6-13.1,2.2c-7.3,0.5-12,0.7-14.3,0.6c-1.1,0.1-6.5-0.2-16.2-0.7c-9.8-0.6-14.6-1-14.6-1.2v-86.6
		c0-0.7,0.2-1.8,0.7-3.3c0.5-1.8,1.1-2.8,1.6-2.8h53.7c2.7,0,4.1,1.5,4.1,4.6c0,2.9-1.4,4.3-4.1,4.3h-18c-4.9,0-7.8,0.5-8.8,1.6
		c-0.4,0.4-1.6,0.9-3.6,1.5c-2.1,0.6-3.1,0.9-3.1,1.1v23.5C488.2,411.8,489.5,413,492.1,414.7z M574.9,414.7c1.1,0.8,2.8,1.2,5,1.2
		h11.4c2.9,0,4.3,1.5,4.3,4.6c0,3.1-1.6,4.6-4.7,4.6h-12.1c-1.1,0.4-2.4,0.8-3.8,1.3c-0.2,0.1-1.1,0.6-2.9,1.4
		c-1.1,0.6-1.6,1.1-1.6,1.3v25.6c0,0.8,1.7,1.7,5.1,2.6c4.3,1.1,6.5,1.6,6.7,1.7c2.2,0.3,4.8,0.6,7.9,0.9h13.9c2.7,0,4,1.5,3.9,4.5
		c0,0.9-0.4,1.4-1.3,1.6c0,0.9-4.4,1.6-13.1,2.2c-7.3,0.5-12,0.7-14.3,0.6c-1.1,0.1-6.5-0.2-16.2-0.7c-9.8-0.6-14.6-1-14.6-1.2
		v-86.6c0-0.7,0.2-1.8,0.7-3.3c0.5-1.8,1.1-2.8,1.6-2.8h53.7c2.7,0,4.1,1.5,4.1,4.6c0,2.9-1.4,4.3-4.1,4.3h-18
		c-4.9,0-7.8,0.5-8.8,1.6c-0.4,0.4-1.6,0.9-3.6,1.5c-2.1,0.6-3.1,0.9-3.1,1.1v23.5C570.9,411.8,572.3,413,574.9,414.7z"/>
	<path class="st0" d="M429.6,384.7c-2.5-1.6-4.9-2.2-7.4-2c-1-0.2-3.2-0.1-6.6,0.3c-3.4,0.4-5.4,0.7-6,1.2c-0.3,0.2-1.9,0.7-5,1.6
		c-2.6,0.8-3.9,1.5-3.9,2.1v16.8c0,0.7,1.3,1.4,3.9,2.2c3.2,1,4.8,1.5,5,1.7c0.7,0.5,2.7,1,6,1.4c3.3,0.4,5.4,0.5,6.2,0.2
		c2.5,0.4,5.1-0.3,7.6-1.8c2.3-1.4,3.4-3.4,3.4-5.9v-11.8C432.9,387.9,431.8,386,429.6,384.7z"/>
</g>
<text transform="matrix(1 0 0 1 0 -6.728313e-06)" class="st1 st2"> </text>
<text transform="matrix(1 0 0 1 0 -6.728313e-06)" class="st1 st2"> </text>
<title>server down</title>
<path class="st0" d="M244.1,154.6L244.1,154.6c0.1,0,0.2-0.1,0.2-0.1l-0.1-0.1C244.2,154.5,244.1,154.5,244.1,154.6z"/>
<path class="st3" d="M397.9,18.4c0-0.2,0-0.3,0-0.5c3.5,0,7,0,10.6,0C404.9,18.5,401.4,18.5,397.9,18.4z"/>
<path class="st3" d="M428.6,18.4c-3.5,0.1-7.1,0.2-10.6-0.5c3.5,0,7,0,10.6,0C428.6,18,428.6,18.2,428.6,18.4z"/>
<path class="st0" d="M373.7,217.5c-2.9-1.8-6.3-2.8-10.1-2.8c-2.7,0-5.2,0.5-7.5,1.5s-4.3,2.5-5.9,4.4c-1.7,1.9-3,4.4-3.9,7.5
	c-1,3-1.4,6.4-1.4,10.2s0.5,7.2,1.4,10.3c1,3.1,2.3,5.6,4.1,7.6c1.7,2,3.8,3.5,6,4.5c2.3,1,4.8,1.5,7.5,1.5c3.5,0,6.7-0.9,9.6-2.6
	s5.2-4.4,6.9-8c1.7-3.6,2.6-8.1,2.6-13.4c0-4.9-0.8-9.1-2.4-12.7C378.9,222.1,376.6,219.4,373.7,217.5z"/>
<path class="st0" d="M291.5,183.6c3.6,0,6.7-1.6,9.4-4.7c2.6-3.1,3.9-7.7,3.9-13.5c0-3.8-0.5-7.1-1.6-9.8s-2.6-4.9-4.6-6.4
	s-4.3-2.2-7-2.2s-5.2,0.7-7.3,2.2c-2.1,1.5-3.8,3.7-5.1,6.5c-1.2,2.8-1.8,6.2-1.8,10.1c0,5.7,1.3,10.1,3.9,13.2
	S287.3,183.6,291.5,183.6z"/>
<path class="st0" d="M351.2,185.3c2.8,0,5.5-0.6,7.9-1.9c2.4-1.2,4.2-2.9,5.3-4.8c1.3-2.2,2-5.8,2-10.8v-2.1
	c-2.1,0.8-5.2,1.6-9.2,2.5s-6.8,1.5-8.4,1.9c-1.5,0.4-3,1.2-4.4,2.4s-2.1,2.8-2.1,4.9c0,2.2,0.8,4,2.5,5.6
	C346.3,184.6,348.5,185.3,351.2,185.3z"/>
<path class="st0" d="M478.3,170.1c-1.5,0.4-3,1.2-4.4,2.4s-2.1,2.8-2.1,4.9c0,2.2,0.8,4,2.5,5.6c1.7,1.5,3.8,2.3,6.5,2.3
	c2.9,0,5.5-0.6,7.9-1.9c2.4-1.2,4.2-2.9,5.3-4.8c1.3-2.2,2-5.8,2-10.8v-2.1c-2.1,0.8-5.2,1.6-9.2,2.5
	C482.6,169.1,479.8,169.7,478.3,170.1z"/>
<g>
	<ellipse class="st4" cx="363.7" cy="238.5" rx="36" ry="35.8"/>
	<ellipse class="st5" cx="363.7" cy="238.5" rx="26.2" ry="26.1"/>
	<g>
		<g>
			<defs>
				<ellipse id="SVGID_1_" cx="363.7" cy="238.5" rx="26.2" ry="26.1"/>
			</defs>
			<clipPath id="SVGID_2_">
				<use xlink:href="#SVGID_1_"  style="overflow:visible;"/>
			</clipPath>
			<g class="st6">
				<path class="st7" d="M377.7,259.3c-2-4-3.1-8.9-1.8-13.3c1-3.4,4.4-5.5,9.9-5.5c6.6,0,5.8-3.7,5.8-3.7s-0.8,3.6-13,2.8
					c-6.4-0.4-11.7,3.1-8.6,14.1C370,253.8,377.7,259.3,377.7,259.3z"/>
				<path class="st8" d="M368.7,243.1c-5-13.2,1.7-23.2-2.7-26.9c-3.8-3.2-9.5,2.6-12,11.7c2.6,0.1,4.8,2.2,5,4.9
					c0.2,2.9-2,5.4-4.9,5.5c2.9-0.2,5.4,2,5.5,4.9c0.2,2.9-2,5.4-4.9,5.5h-0.2c0.1,0.3,0.2,0.5,0.3,0.8c5,13.8,17.4,20.7,22.4,15.5
					C381.9,260,372.8,254,368.7,243.1z"/>
				<path class="st4" d="M365.2,265.3c-7.9-7-8.9-12.6-12.2-10.1c0,0,1.9-1.7,5.3-4.3c5.8-4.5,19.7,3.6,20.2,11.4
					C378.7,266.4,370.7,270.1,365.2,265.3z"/>
				<path class="st7" d="M364.3,249.6c-2.9-0.9-6.9,1.7-8.1,9.3c-0.9,5.7-3.1,8.2-4.5,8.9c-2.1,1-4.5-0.3-4.5-0.3s2.3-0.5,3-5.2
					c0.8-5.4,1.1-6.8,2.9-8.3c1.8-1.4,4.1-2.9,6.6-3.9C362.6,248.9,364.3,249.6,364.3,249.6z"/>
				<path class="st9" d="M342.4,265c1.6-0.8,5,3.7,9.6,2.7c0,0-3.1,1.2-5.5,1.2C344,268.8,341.6,265.4,342.4,265z"/>
				<path class="st4" d="M364.6,242.9c-0.2-2.9-2.7-5.1-5.5-4.9c2.9-0.2,5.1-2.7,4.9-5.5c-0.2-2.9-2.7-5.1-5.5-4.9L354,228
					c0.1,0,2.2,0.2,3.8,1.8c0.7,0.8,1.2,1.9,1.3,3.1c0.2,2.9-2,5.3-4.9,5.5c0.1,0,0.2,0,0.2,0c2.8,0,5.1,2.1,5.3,4.9
					c0.2,2.7-1.8,5.1-4.5,5.5l4.6-0.3C362.6,248.2,364.8,245.8,364.6,242.9z"/>
			</g>
		</g>
	</g>
</g>
<circle class="st10" cx="926" cy="366.9" r="11"/>
<text transform="matrix(1 0 0 1 245.3704 561.9894)" class="st5 st11 st12">NFT Collection</text>
<g>
	<g>
		<g>
			<g>
				<path class="st10" d="M228.9,385.7c2-0.8,4.2,0.2,6.1,1.4c1.8,1.2,3.7,2.5,5.9,2.4c1.7-0.1,3.1-1.1,4.7-1.7
					c1.6-0.5,3.3-0.6,4.9-0.2c1,0.3,1.9,0.7,2.9,0.9c1,0.2,4.4-0.8,4.4-0.8l-0.7-2.2l1.8,1.7c0,0,1.8,0,2.6-0.2
					c4.9-1.4,9-5.1,11.1-9.7"/>
			</g>
		</g>
		<g>
			<g>
				<path class="st10" d="M158.7,343.4c0.2,0.4,8.5,10.2,12.4,10.9c3.9,0.7,5.5,0.5,7.5,2.4c2,1.8,5.6,6.2,9.5,7.3
					c3.9,1.1,5.8,1,5.8,1l1.9-1.4l-0.7,1.8c0,0,5.4,1.9,7.9,1.9c2.5,0,2-1.8,4.2-0.5c2.2,1.2,3.7,3.7,5.6,4.1c2,0.4,2.5-0.3,2.5-0.3
					s-6.4-8.3-6.4-8.6c0-0.3-6.4-2.8-7.1-3.1c-0.7-0.3-15.5-3.5-17.4-4.6c-2-1.1-13.8-5.9-13.8-5.9l-6.9-2.3L158.7,343.4z"/>
			</g>
		</g>
		<g>
			<g>
				<path class="st13" d="M225.7,382.5c0,0,2.2-3.5,7.1-5.7c7.6-3.4,24.5-3.4,29.8-4.9c5.2-1.5,17-3.5,17-3.5s1.8,5.8-5,10.7
					c-6.8,4.9-6.7,3.9-6.7,3.9l-4.1-2.6l2.7,3.4c0,0-4.1,1.4-7,1.5c-2.9,0.1-2.4,1.2-5.2,1.6c-2.8,0.4-4.5-0.6-7-0.9
					c-2.5-0.3-2.8,1-5.8,0.9c-3.1-0.1-5.5-1.5-8.7-1.6s-6,1.3-6,1.3l-4.7,13.2l-1.9-8.1L225.7,382.5z"/>
			</g>
		</g>
		<g>
			<g>
				<path class="st13" d="M215.3,469c0-1.1,1.5-19.5,1-23.9c-0.5-4.3-1.6-8.6-1.6-8.6l2.9,3.8l-1.4-23.7v-7l1.4,4.5v-20.2l-0.6-8
					l0.6-7.9l-2.1-4.8h5l1,4l4.5-6.2l2.9,0.9c0,0-5.7,7.4-5.6,11.4c0.1,4,2,41.9,2,41.9l1.4-1.4c0,0-0.3,4-0.5,6.4
					c-0.2,2.4,0,18.4,0,18.4l2.6,20.6H215.3z"/>
			</g>
		</g>
		<g>
			<g>
				<path class="st13" d="M220.1,375.8c0,0-4.9-11.5-12.2-17.5c-7.3-6-26.9-15.6-32.8-17.8c-5.9-2.3-22.6-10.9-22.6-10.9
					s-3.5,3.8,2.4,11.1c0.3,0.4,0.6,0.7,1,1.1c0.1,0.2,2.2-3.6,2.4-3.5c0.5,0.3-1.8,4.2-1,4.8c7.4,5.8,19.3,8.2,24.1,10.9
					c5.4,3,1.3,3.3,6.8,4.3c5.6,1,6.1,5.8,12.8,6.3s7.4-2.4,10.4,1.4c3,3.8,6.8,17.7,6.8,17.7L220.1,375.8z"/>
			</g>
		</g>
		<g>
			<g>
				<g>
					<path class="st13" d="M221.2,372.8c-0.1-0.6,2.1-6.5,6.5-18.8c4.4-12.3,22.3-34.7,25-38.6c2.7-3.9,11.5-12.8,11.5-12.8
						s4.2,3.5,4.2,9.6s-2.8,14.2-2.8,14.2l-5.1,0.6l5.1,1.1l-1.6,2.6l-6.1-0.6l5.8,3.6c0,0-3.9,5.2-7.4,9c-3.5,3.9-5.1,3.1-6.1,6.3
						c-1,3.2-8.9,8-8.9,8l-4-1.7l2.2,2.5c0,0-8,4-10.5,3.9c-2.5-0.1-2.6,2-2.6,2l-2.6,15.9L221.2,372.8z"/>
				</g>
			</g>
			<g>
				<g>
					<g>
						<path class="st10" d="M240.1,350.5c0,0.1-2-0.3-4.4-0.8c-2.4-0.5-4.4-0.9-4.4-1c0-0.1,2,0.3,4.4,0.8
							C238.2,350,240.1,350.4,240.1,350.5z"/>
					</g>
				</g>
			</g>
			<g>
				<g>
					<g>
						<path class="st10" d="M237.4,348.1c0,0.1-1.3,0.1-2.8,0c-1.6,0-2.8-0.1-2.8-0.2s1.3-0.1,2.8,0
							C236.1,347.9,237.4,348,237.4,348.1z"/>
					</g>
				</g>
			</g>
			<g>
				<g>
					<g>
						<path class="st10" d="M246,346.5c0,0-0.1-0.1-0.4-0.2c-0.3-0.2-0.6-0.4-1-0.6c-0.8-0.5-2-1.2-3.2-1.8
							c-1.3-0.7-2.5-1.3-3.3-1.7c-0.4-0.2-0.7-0.4-1-0.5c-0.2-0.1-0.4-0.2-0.4-0.2c0,0,0.1,0,0.4,0.1c0.2,0.1,0.6,0.2,1,0.4
							c0.9,0.4,2.1,1,3.4,1.6c1.3,0.7,2.4,1.4,3.2,1.9c0.4,0.3,0.7,0.5,0.9,0.6C245.9,346.4,246,346.4,246,346.5z"/>
					</g>
				</g>
			</g>
			<g>
				<g>
					<g>
						<path class="st10" d="M246.9,342.5c0,0.1-2-0.6-4.4-1.4c-2.4-0.8-4.3-1.6-4.3-1.6c0-0.1,2,0.6,4.4,1.4
							C245,341.7,246.9,342.4,246.9,342.5z"/>
					</g>
				</g>
			</g>
			<g>
				<g>
					<g>
						<path class="st10" d="M248.2,339.6c0,0-0.4-0.1-1.2-0.3c-0.7-0.2-1.7-0.4-2.8-0.7c-1.1-0.3-2.1-0.5-2.8-0.6
							c-0.7-0.2-1.2-0.3-1.2-0.3c0,0,0.5,0,1.2,0.1c0.7,0.1,1.7,0.3,2.8,0.6c1.1,0.3,2.1,0.5,2.8,0.7
							C247.8,339.4,248.2,339.6,248.2,339.6z"/>
					</g>
				</g>
			</g>
			<g>
				<g>
					<g>
						<path class="st10" d="M253.1,332.4c0,0-0.2,0-0.4,0c-0.3,0-0.7,0-1.2,0c-1,0-2.4,0.1-3.9,0.3c-1.5,0.2-2.9,0.5-3.9,0.7
							c-0.5,0.1-0.8,0.2-1.2,0.3c-0.3,0.1-0.4,0.1-0.4,0.1c0,0,0.1-0.1,0.4-0.2c0.3-0.1,0.7-0.2,1.1-0.4c1-0.3,2.3-0.6,3.9-0.8
							c1.5-0.2,2.9-0.2,3.9-0.2c0.5,0,0.9,0,1.2,0.1C253,332.4,253.1,332.4,253.1,332.4z"/>
					</g>
				</g>
			</g>
			<g>
				<g>
					<g>
						<path class="st10" d="M255.7,329.2c0,0-0.1,0-0.4,0.1c-0.2,0-0.6,0.1-1,0.2c-0.8,0.1-2,0.3-3.2,0.4c-1.3,0.1-2.4,0.1-3.3,0.1
							c-0.4,0-0.8,0-1,0c-0.2,0-0.4,0-0.4,0c0,0,0.5-0.1,1.3-0.1c0.8,0,2-0.1,3.3-0.2c1.3-0.1,2.4-0.2,3.2-0.3
							C255.2,329.2,255.7,329.2,255.7,329.2z"/>
					</g>
				</g>
			</g>
			<g>
				<g>
					<g>
						<path class="st10" d="M251.9,328.2c0,0.1-1,0.2-2.3,0.4c-1.3,0.2-2.3,0.3-2.3,0.2c0-0.1,1-0.2,2.3-0.4
							C250.9,328.2,251.9,328.1,251.9,328.2z"/>
					</g>
				</g>
			</g>
		</g>
		<g>
			<g>
				<g>
					<path class="st10" d="M197.1,360.1c-0.1,0,0.4-1.2,1.1-2.5c0.6-1.4,1.2-2.5,1.2-2.5c0.1,0-0.4,1.2-1.1,2.5
						C197.7,359,197.2,360.1,197.1,360.1z"/>
				</g>
			</g>
		</g>
		<g>
			<g>
				<g>
					<path class="st10" d="M198.6,360.1c0,0,0-0.3,0.2-0.8c0.1-0.5,0.3-1.2,0.6-1.9c0.3-0.7,0.6-1.4,0.8-1.9
						c0.2-0.5,0.4-0.7,0.4-0.7c0.1,0-0.5,1.2-1,2.7C199,358.9,198.7,360.1,198.6,360.1z"/>
				</g>
			</g>
		</g>
		<g>
			<g>
				<g>
					<path class="st10" d="M195.9,355.5c0,0,0.3-0.5,0.7-1.1c0.4-0.6,0.7-1.1,0.8-1.1c0,0-0.2,0.6-0.6,1.2
						C196.4,355.1,196,355.6,195.9,355.5z"/>
				</g>
			</g>
		</g>
		<g>
			<g>
				<g>
					<path class="st10" d="M187.4,353.7c0,0,0.8-0.9,1.7-1.9c0.9-1.1,1.6-2,1.6-2c0,0-0.6,1-1.5,2.1
						C188.3,353,187.4,353.8,187.4,353.7z"/>
				</g>
			</g>
		</g>
		<g>
			<g>
				<g>
					<path class="st10" d="M186.5,351.8c0,0,0.5-0.6,1.2-1.2c0.7-0.7,1.2-1.3,1.2-1.2c0,0-0.4,0.7-1.1,1.4
						C187.2,351.4,186.5,351.8,186.5,351.8z"/>
				</g>
			</g>
		</g>
		<g>
			<g>
				<g>
					<path class="st10" d="M183.7,351.9c0,0,0.2-0.3,0.6-0.7c0.4-0.4,1-0.9,1.6-1.5c0.7-0.6,1.3-1,1.7-1.4c0.4-0.3,0.7-0.5,0.8-0.5
						c0,0-0.2,0.3-0.7,0.6c-0.5,0.4-1,0.9-1.7,1.4c-0.6,0.5-1.2,1-1.7,1.4C184,351.7,183.7,351.9,183.7,351.9z"/>
				</g>
			</g>
		</g>
		<g>
			<g>
				<g>
					<path class="st10" d="M172.7,348.3c0,0,0.9-1.2,2.1-2.7c1.2-1.4,2.2-2.6,2.3-2.5c0,0-0.9,1.2-2.1,2.7
						C173.7,347.2,172.7,348.3,172.7,348.3z"/>
				</g>
			</g>
		</g>
		<g>
			<g>
				<g>
					<path class="st10" d="M170,347.3c0,0,0.3-0.3,0.8-0.7c0.5-0.4,1.2-1,1.9-1.6c0.7-0.6,1.4-1.2,1.9-1.7c0.5-0.4,0.8-0.7,0.8-0.7
						c0,0-0.2,0.3-0.7,0.8c-0.5,0.5-1.1,1.1-1.8,1.7c-0.7,0.6-1.5,1.2-2,1.6C170.4,347.1,170.1,347.3,170,347.3z"/>
				</g>
			</g>
		</g>
		<g>
			<g>
				<g>
					<path class="st10" d="M166.6,347.3c0,0,1.5-1.3,3.5-2.9c2-1.5,3.6-2.7,3.6-2.7c0,0-1.5,1.3-3.5,2.9
						C168.2,346.2,166.6,347.4,166.6,347.3z"/>
				</g>
			</g>
		</g>
		<g>
			<g>
				<g>
					<path class="st10" d="M278.1,358.7c-0.2,0.3-8.6,6.9-11.9,6.8c-3.3-0.1-4.6-0.5-6.5,0.7s-5.6,4.2-9,4.4
						c-3.4,0.3-4.9-0.1-4.9-0.1l-1.3-1.4l0.3,1.6c0,0-4.7,0.6-6.8,0.2c-2-0.4-1.4-1.8-3.3-1.1c-2,0.7-3.6,2.4-5.3,2.4
						c-1.7,0-2-0.6-2-0.6s6.5-5.7,6.6-6c0.1-0.2,5.7-1.3,6.3-1.4c0.6-0.1,13.2-0.3,14.9-0.9c1.8-0.6,12.2-2.5,12.2-2.5l6-0.8
						L278.1,358.7z"/>
				</g>
			</g>
			<g>
				<g>
					<path class="st13" d="M222.6,374.9c0,0,5.9-8.6,12.9-12.2c7-3.7,24.5-8.3,29.7-9.1c5.2-0.9,20.2-5.2,20.2-5.2s2.2,3.7-3.8,8.7
						c-0.3,0.2-0.6,0.5-1,0.8c-0.1,0.1-1.2-3.3-1.4-3.2c-0.4,0.2,0.8,3.7,0,4.1c-6.9,3.5-17.1,3.5-21.4,4.9
						c-4.9,1.6-1.6,2.5-6.3,2.4c-4.7-0.1-6,3.7-11.5,3.1c-5.5-0.6-5.6-3.2-8.7-0.6c-3.1,2.6-8.5,13.3-8.5,13.3L222.6,374.9z"/>
				</g>
			</g>
			<g>
				<g>
					<g>
						<path class="st10" d="M241.8,365.4c-0.1,0-0.4-0.8-0.8-1.8c-0.4-1-0.6-1.9-0.6-1.9c0.1,0,0.4,0.8,0.8,1.8
							C241.6,364.5,241.8,365.4,241.8,365.4z"/>
					</g>
				</g>
			</g>
			<g>
				<g>
					<g>
						<path class="st10" d="M244.5,365.7c0,0-0.7-0.9-1.4-2.2c-0.7-1.3-1.1-2.4-1.1-2.4c0.1,0,0.6,1,1.3,2.3
							C244,364.7,244.5,365.7,244.5,365.7z"/>
					</g>
				</g>
			</g>
			<g>
				<g>
					<g>
						<path class="st10" d="M244.3,363.1c0,0-0.4-0.3-0.8-0.9c-0.4-0.6-0.5-1.1-0.5-1.1c0.1,0,0.3,0.5,0.6,1
							C244,362.7,244.4,363.1,244.3,363.1z"/>
					</g>
				</g>
			</g>
			<g>
				<g>
					<g>
						<path class="st10" d="M253.5,364.1c0,0-1.1-1.1-2.5-2.6c-1.3-1.5-2.4-2.7-2.3-2.8c0,0,1.1,1.1,2.5,2.6
							C252.5,362.8,253.5,364.1,253.5,364.1z"/>
					</g>
				</g>
			</g>
			<g>
				<g>
					<g>
						<path class="st10" d="M252.2,360.2c0,0-0.6-0.2-1.2-0.7c-0.6-0.5-1-0.9-1-1c0,0,0.5,0.3,1.1,0.8
							C251.7,359.8,252.2,360.2,252.2,360.2z"/>
					</g>
				</g>
			</g>
			<g>
				<g>
					<g>
						<path class="st10" d="M259.4,358.9c0,0-0.7-0.5-1.4-1.2c-0.7-0.7-1.2-1.4-1.2-1.4c0,0,0.6,0.5,1.3,1.2
							C258.9,358.3,259.5,358.8,259.4,358.9z"/>
					</g>
				</g>
			</g>
			<g>
				<g>
					<g>
						<path class="st10" d="M261.6,359.1c0,0-0.9-0.6-1.8-1.4c-0.9-0.9-1.6-1.6-1.6-1.7c0,0,0.8,0.7,1.7,1.5
							C260.9,358.4,261.6,359.1,261.6,359.1z"/>
					</g>
				</g>
			</g>
			<g>
				<g>
					<g>
						<path class="st10" d="M262.7,357.3c0,0-0.6-0.2-1.2-0.6c-0.6-0.4-0.9-0.9-0.9-0.9c0,0,0.5,0.4,1,0.8
							C262.2,357,262.7,357.3,262.7,357.3z"/>
					</g>
				</g>
			</g>
			<g>
				<g>
					<g>
						<path class="st10" d="M272.4,357.6c0,0-0.3-0.1-0.7-0.4c-0.4-0.3-1-0.7-1.7-1.1c-0.6-0.5-1.2-0.9-1.6-1.3
							c-0.4-0.3-0.6-0.6-0.6-0.6c0,0,1,0.7,2.3,1.7C271.4,356.9,272.5,357.6,272.4,357.6z"/>
					</g>
				</g>
			</g>
			<g>
				<g>
					<g>
						<path class="st10" d="M273.2,356.3c0,0-0.9-0.4-1.7-1.2c-0.9-0.8-1.5-1.5-1.4-1.5c0,0,0.7,0.6,1.6,1.4
							C272.5,355.8,273.2,356.3,273.2,356.3z"/>
					</g>
				</g>
			</g>
			<g>
				<g>
					<g>
						<path class="st10" d="M275.3,355.3c0,0.1-0.6-0.1-1.3-0.5c-0.7-0.4-1.2-0.8-1.1-0.9c0,0,0.6,0.3,1.2,0.7
							C274.7,355,275.3,355.2,275.3,355.3z"/>
					</g>
				</g>
			</g>
		</g>
		<g>
			<g>
				<g>
					<path class="st10" d="M246.4,384.4c0,0-0.1-0.1-0.4-0.2c-0.2-0.1-0.6-0.3-1-0.6c-0.8-0.5-1.9-1.3-3.1-2.2
						c-1.1-1-2.1-1.9-2.8-2.6c-0.3-0.4-0.6-0.7-0.8-0.9c-0.2-0.2-0.3-0.3-0.2-0.3c0,0,0.4,0.4,1.1,1.1c0.7,0.7,1.6,1.6,2.8,2.6
						c1.1,1,2.2,1.7,3,2.3C245.9,384.1,246.5,384.4,246.4,384.4z"/>
				</g>
			</g>
		</g>
		<g>
			<g>
				<g>
					<path class="st10" d="M240.8,382.8c0,0-0.3-0.2-0.7-0.6c-0.4-0.4-1-0.9-1.5-1.6c-0.5-0.7-0.9-1.3-1.2-1.8
						c-0.3-0.5-0.4-0.8-0.4-0.8c0.1,0,0.7,1.2,1.8,2.5C239.8,381.8,240.9,382.7,240.8,382.8z"/>
				</g>
			</g>
		</g>
		<g>
			<g>
				<g>
					<path class="st10" d="M243.6,380c0,0-0.9-0.4-1.8-1.2c-0.9-0.8-1.4-1.6-1.3-1.7c0,0,0.6,0.7,1.5,1.5
						C242.8,379.4,243.6,379.9,243.6,380z"/>
				</g>
			</g>
		</g>
		<g>
			<g>
				<g>
					<path class="st10" d="M258.2,382.1c0,0-0.4-0.2-1-0.6c-0.6-0.4-1.4-1.1-2.2-1.9c-0.8-0.8-1.4-1.6-1.9-2.2c-0.4-0.6-0.7-1-0.6-1
						c0,0,0.3,0.3,0.8,0.9c0.5,0.6,1.1,1.3,1.9,2.1c0.8,0.8,1.6,1.4,2.1,1.9C257.9,381.8,258.2,382.1,258.2,382.1z"/>
				</g>
			</g>
		</g>
		<g>
			<g>
				<g>
					<path class="st10" d="M257.4,378.2c0,0-0.9-0.5-1.7-1.5c-0.8-1-1.3-1.9-1.2-1.9c0.1,0,0.6,0.8,1.4,1.8
						C256.6,377.5,257.4,378.1,257.4,378.2z"/>
				</g>
			</g>
		</g>
		<g>
			<g>
				<g>
					<path class="st10" d="M259.2,377.4c0,0-0.8-0.3-1.7-1.1c-0.9-0.7-1.4-1.5-1.3-1.5c0,0,0.6,0.6,1.4,1.3
						C258.5,376.9,259.3,377.4,259.2,377.4z"/>
				</g>
			</g>
		</g>
		<g>
			<g>
				<g>
					<path class="st10" d="M216.2,384.2c-0.4-0.1-5.5-2-6.7-2.8c-1.2-0.8-3,1.4-5.3,1.4c-2.3,0-8.9-0.8-11.9-2.5
						c-3-1.7-4.2-0.9-6.1-1.9s-0.4-0.5-1.9-1.1c-1.6-0.6-6.4-2.3-7.7-2.6c-1.3-0.4-4.2,0.8-5.9-1.3c-1.7-2.2-3.2-2.2-5.3-3.2
						c-2-1.1-17.8-2.5-17.3-11.4c0,0,27.3,3.4,27.6,3.4c0.4,0,22.1,8.9,22.1,8.9l13.9,7.1l5,4.4L216.2,384.2z"/>
				</g>
			</g>
			<g>
				<g>
					<path class="st13" d="M148.1,358.6c0.5,0,19.9,1.8,27.6,3.1c7.7,1.3,21.9,6.7,27.2,10.2c5.3,3.5,13.4,7.7,15.7,13l-1,9.6
						c0,0-1.8-9-3.8-10.7c0,0-1.9,0.6-3-0.1c-1.1-0.7-0.1-0.6-1.9-1.1c-1.8-0.5-5.9,0.3-7.8-1.1c-1.9-1.3-4.1-2.9-7.9-4.4
						c-3.8-1.6-9.9-0.7-9.9-0.7s-2.8-2-5.7-2.9c-2.9-0.8-4,0.2-4.8-0.7c-0.7-1-4.7-9.7-4.7-9.7l0.8,5.8l-6.4-1.4l-0.4-5.4l-1,4.2
						c0,0-6.7-0.8-7.8-1.7C152.5,363.6,148.1,358.6,148.1,358.6z"/>
				</g>
			</g>
			<g>
				<g>
					<g>
						<path class="st10" d="M184.6,374.1c0,0-0.2-0.4-0.5-1.1c-0.3-0.7-0.7-1.7-1.1-2.7c-0.4-1.1-0.7-2.1-0.8-2.8
							c-0.2-0.7-0.3-1.2-0.2-1.2c0,0,0.2,0.4,0.4,1.2c0.2,0.7,0.5,1.7,0.9,2.8c0.4,1.1,0.7,2.1,1,2.8
							C184.5,373.6,184.6,374.1,184.6,374.1z"/>
					</g>
				</g>
			</g>
			<g>
				<g>
					<g>
						<path class="st10" d="M184.6,369.5c0,0-0.5-0.7-0.9-1.7c-0.4-1-0.5-1.9-0.4-1.9c0.1,0,0.2,0.8,0.6,1.8
							C184.2,368.7,184.6,369.5,184.6,369.5z"/>
					</g>
				</g>
			</g>
			<g>
				<g>
					<g>
						<path class="st10" d="M200.6,379.3c0,0-0.1-0.5-0.3-1.2c-0.2-0.7-0.4-1.8-0.7-2.9c-0.3-1.1-0.7-2.1-1-2.8
							c-0.3-0.7-0.5-1.1-0.5-1.1c0,0,0.3,0.4,0.6,1.1c0.3,0.7,0.7,1.7,1.1,2.8c0.3,1.1,0.6,2.2,0.7,2.9
							C200.6,378.8,200.7,379.3,200.6,379.3z"/>
					</g>
				</g>
			</g>
			<g>
				<g>
					<g>
						<path class="st10" d="M201.4,377.9c-0.1,0-0.2-1.2-0.6-2.6c-0.4-1.4-0.8-2.6-0.7-2.6c0,0,0.2,0.3,0.3,0.7
							c0.2,0.5,0.4,1.1,0.6,1.8c0.2,0.7,0.3,1.4,0.3,1.9C201.5,377.6,201.5,377.9,201.4,377.9z"/>
					</g>
				</g>
			</g>
			<g>
				<g>
					<g>
						<path class="st10" d="M203.7,376.7c-0.1,0-0.2-0.4-0.4-1c-0.2-0.6-0.2-1.1-0.2-1.1c0.1,0,0.2,0.4,0.4,1
							C203.7,376.2,203.8,376.6,203.7,376.7z"/>
					</g>
				</g>
			</g>
		</g>
		<g>
			<g>
				<g>
					<path class="st10" d="M217.6,407.8c0,0,0-0.1,0-0.2c0-0.2,0-0.4,0.1-0.6c0.1-0.6,0.1-1.4,0.3-2.4c0.3-2,0.9-4.7,1.6-7.7
						c0.8-3,1.6-5.6,2.4-7.5c0.4-0.9,0.7-1.7,0.9-2.2c0.1-0.2,0.2-0.4,0.3-0.6c0.1-0.1,0.1-0.2,0.1-0.2c0,0,0,0.1-0.1,0.2
						c-0.1,0.2-0.1,0.4-0.2,0.6c-0.2,0.5-0.5,1.3-0.8,2.2c-0.7,1.9-1.5,4.5-2.3,7.5c-0.8,3-1.3,5.7-1.7,7.6c-0.2,1-0.3,1.8-0.4,2.3
						c0,0.3-0.1,0.5-0.1,0.6C217.7,407.7,217.7,407.8,217.6,407.8z"/>
				</g>
			</g>
		</g>
		<g>
			<g>
				<g>
					<path class="st10" d="M224.4,424.7c0,0-0.1-0.1-0.4-0.3c-0.2-0.2-0.6-0.6-1-1c-0.8-0.9-1.8-2.2-2.8-3.7c-0.9-1.6-1.6-3.1-2-4.2
						c-0.2-0.6-0.3-1-0.4-1.3c-0.1-0.3-0.1-0.5-0.1-0.5c0,0,0.1,0.2,0.2,0.5c0.1,0.3,0.3,0.8,0.5,1.3c0.4,1.1,1.1,2.6,2,4.1
						c0.9,1.5,1.9,2.8,2.7,3.7c0.4,0.4,0.7,0.8,0.9,1C224.3,424.5,224.4,424.7,224.4,424.7z"/>
				</g>
			</g>
		</g>
		<g>
			<g>
				<g>
					<path class="st10" d="M225.3,425.1c0,0-0.1,0.2-0.3,0.6c-0.2,0.4-0.5,0.9-0.9,1.6c-0.8,1.3-1.8,3.2-2.8,5.4
						c-1,2.1-1.9,4.1-2.6,5.5c-0.3,0.7-0.5,1.3-0.7,1.7c-0.2,0.4-0.3,0.6-0.3,0.6c0,0,0.1-0.2,0.2-0.6c0.1-0.4,0.4-1,0.7-1.7
						c0.6-1.4,1.5-3.4,2.5-5.5c1-2.1,2.1-4,2.9-5.3c0.4-0.7,0.7-1.2,1-1.5C225.1,425.3,225.2,425.1,225.3,425.1z"/>
				</g>
			</g>
		</g>
		<g>
			<g>
				<g>
					<path class="st10" d="M226.4,452.5c0,0-0.1-0.2-0.3-0.5c-0.2-0.3-0.4-0.8-0.8-1.4c-0.7-1.2-1.7-2.7-2.9-4.4
						c-1.2-1.7-2.4-3.1-3.3-4.2c-0.4-0.5-0.8-0.9-1.1-1.2c-0.3-0.3-0.4-0.4-0.4-0.4c0,0,0.2,0.1,0.4,0.4c0.3,0.3,0.7,0.7,1.1,1.2
						c0.9,1,2.1,2.5,3.4,4.1c1.2,1.7,2.2,3.3,2.9,4.5c0.3,0.6,0.6,1.1,0.7,1.4C226.3,452.3,226.4,452.5,226.4,452.5z"/>
				</g>
			</g>
		</g>
		<g>
			<g>
				<g>
					<path class="st13" d="M243.1,410.8c-0.8,0.8-1.5,1.6-2,2.6c0.6-5.5,1.1-11.4,1-13.6c-0.2-3.7,0.5-22.6-3.9-32
						c-0.2-1.5-0.4-3-0.6-4.5c-0.3,0.8-0.4,1.6-0.5,2.4c-0.8-1.1-1.6-2-2.6-2.5c-8.5-4.8-14.9,4.4-14.9,4.4l2.6,5c0,0,4.6-6.2,8.7-5
						c1.9,0.5,3.2,2.3,4.1,4.6c-0.8-0.4-1.8-0.6-2.7-0.6c1.3,0.8,2.6,1.7,3.5,2.9c0.7,2.3,1.2,5,1.7,7.7c1.4,6.7,0.6,18,0.2,26.3
						c-0.1,1.6-0.2,3.2-0.2,4.6c-0.6-0.7-1.3-1.4-2-2c0.9,1.6,1.7,3.4,1.9,5.2c-0.2,4.7-0.4,8.1-0.4,8.1h3c0,0,0.4-3.1,0.9-7.2
						C241.2,415,242,412.8,243.1,410.8z"/>
				</g>
			</g>
			<g>
				<g>
					<g>
						<path class="st10" d="M220.9,365.9c0,0,0.1-0.1,0.2-0.2c0.1-0.2,0.4-0.4,0.7-0.6c0.6-0.5,1.6-1.3,3-2.1
							c0.7-0.4,1.5-0.7,2.5-0.9c0.9-0.2,2-0.3,3.2-0.2c0.6,0,1.2,0.2,1.7,0.4c0.3,0.1,0.6,0.2,0.9,0.3c0.3,0.1,0.6,0.3,0.9,0.4
							c1.2,0.5,2.2,1.6,3.1,2.8l-0.1,0c0.1-0.8,0.3-1.6,0.5-2.4l0.1-0.3l0,0.3c0.2,1.4,0.4,2.9,0.6,4.5l0,0c1.3,2.8,2,6,2.6,9.4
							c0.6,3.4,0.9,7.1,1.1,11c0.1,1.9,0.1,3.9,0.2,5.9c0,2,0,4.1,0.1,6.2c0,2.1-0.2,4.3-0.4,6.4c-0.2,2.2-0.4,4.4-0.6,6.6l-0.2-0.1
							c0.5-0.9,1.2-1.8,2.1-2.6l0.4-0.4l-0.3,0.5c-1,1.9-1.9,4.1-2.4,6.4l0,0c-0.2,1.3-0.3,2.7-0.5,4.1c-0.1,1-0.2,2.1-0.4,3.1
							l0,0.1h-0.1c-1,0-2,0-3,0h-0.1l0-0.1c0.1-2.7,0.3-5.4,0.4-8.1l0,0c-0.1-1.9-1-3.6-1.9-5.2l-0.3-0.5l0.4,0.4
							c0.7,0.7,1.4,1.3,2,2l-0.2,0.1c0.3-7.6,0.9-14.7,0.8-21.2c0-1.6,0-3.2-0.2-4.8c-0.1-1.6-0.3-3.1-0.5-4.5
							c-0.6-2.9-1.1-5.6-1.8-8.1l0,0c-0.5-0.7-1-1.2-1.6-1.6c-0.6-0.5-1.2-0.9-1.8-1.2l-0.2-0.1l0.2,0c1,0,1.9,0.3,2.7,0.6l-0.1,0.1
							c-0.5-1.2-1.1-2.4-1.9-3.3c-0.8-0.9-1.9-1.4-2.9-1.5c-1-0.1-2,0.2-2.8,0.6c-0.8,0.4-1.5,0.9-2,1.3c-1.1,0.9-1.9,1.7-2.4,2.3
							c-0.2,0.3-0.4,0.5-0.6,0.6c-0.1,0.1-0.2,0.2-0.2,0.2s0.1-0.1,0.2-0.2c0.1-0.2,0.3-0.4,0.5-0.7c0.5-0.6,1.2-1.4,2.4-2.3
							c0.6-0.4,1.2-0.9,2-1.3c0.8-0.4,1.8-0.7,2.8-0.6c1.1,0.1,2.1,0.6,3,1.5c0.8,0.9,1.4,2,1.9,3.3l0.1,0.1l-0.1-0.1
							c-0.8-0.3-1.7-0.6-2.7-0.6l0-0.1c0.6,0.4,1.2,0.8,1.8,1.2c0.6,0.5,1.2,1,1.7,1.7l0,0l0,0c0.7,2.5,1.2,5.2,1.8,8.1
							c0.3,1.5,0.4,3,0.5,4.5c0.1,1.6,0.2,3.2,0.2,4.8c0,6.5-0.5,13.7-0.8,21.2l0,0.2l-0.2-0.2c-0.6-0.7-1.3-1.4-2-2l0.2-0.1
							c0.4,0.8,0.9,1.6,1.2,2.5c0.3,0.9,0.6,1.8,0.7,2.7l0,0l0,0c-0.1,2.6-0.3,5.3-0.4,8.1l-0.1-0.1c1,0,2,0,3,0l-0.1,0.1
							c0.1-1,0.2-2.1,0.4-3.1c0.2-1.4,0.3-2.8,0.5-4.1l0,0l0,0c0.6-2.3,1.4-4.5,2.5-6.4l0.2,0.1c-0.8,0.8-1.5,1.7-2,2.6l-0.2,0.4
							l0.1-0.5c0.2-2.2,0.5-4.4,0.6-6.6c0.2-2.2,0.4-4.3,0.4-6.4c-0.1-2.1-0.1-4.2-0.1-6.2c0-2-0.1-4-0.2-5.9c-0.2-3.9-0.5-7.6-1-11
							c-0.6-3.4-1.3-6.6-2.6-9.4l0,0l0,0c-0.2-1.6-0.4-3.1-0.6-4.5l0.1,0c-0.3,0.8-0.4,1.6-0.5,2.4l0,0.2l-0.1-0.1
							c-0.8-1.2-1.8-2.2-3-2.7c-0.3-0.1-0.6-0.3-0.9-0.4c-0.3-0.1-0.6-0.2-0.9-0.3c-0.6-0.2-1.2-0.3-1.7-0.4
							c-1.1-0.1-2.2-0.1-3.1,0.2c-0.9,0.2-1.8,0.5-2.5,0.9c-1.4,0.7-2.4,1.5-3,2c-0.3,0.3-0.5,0.5-0.7,0.6
							C221,365.8,220.9,365.9,220.9,365.9z"/>
					</g>
				</g>
			</g>
			<g>
				<g>
					<g>
						<path class="st14" d="M232.7,426.9c-0.7,2.4-0.5,5,0.5,7.3c2.9-3.6,4.2-8.4,3.5-12.9C234.9,422.7,233.4,424.7,232.7,426.9z"/>
					</g>
				</g>
			</g>
			<g>
				<g>
					<g>
						<path class="st14" d="M245.2,424.1c1.8,1.7,3,4.1,3.3,6.5c-4.3-1.6-7.9-5-9.7-9.2C241.1,421.5,243.4,422.5,245.2,424.1z"/>
					</g>
				</g>
			</g>
			<g>
				<g>
					<g>
						<path class="st14" d="M234.7,429.3c-0.3,3,0.5,6.1,2.3,8.5c2.6-4.9,3.1-10.8,1.3-16C236.3,423.8,235,426.5,234.7,429.3z"/>
					</g>
				</g>
			</g>
			<g>
				<g>
					<g>
						<path class="st14" d="M241.5,429.6c1.3,2.7,3.6,4.9,6.4,6.1c-0.3-5.5-3-10.8-7.2-14.4C240,424.1,240.3,427.1,241.5,429.6z"/>
					</g>
				</g>
			</g>
			<g>
				<g>
					<g>
						<path class="st14" d="M238.2,430.9c0.5,2.9,2.2,5.7,4.5,7.5c1.1-5.4-0.6-12.6-3.7-17.1C237.6,423.8,237.7,428.1,238.2,430.9z"
							/>
					</g>
				</g>
			</g>
			<g>
				<g>
					<g>
						<path class="st10" d="M236.6,426.9c0,0,0,0.1,0,0.3c0,0.2-0.1,0.5-0.2,0.9c-0.2,0.7-0.5,1.7-1,2.7c-0.5,1-1,1.9-1.5,2.5
							c-0.2,0.3-0.4,0.5-0.5,0.7c-0.1,0.2-0.2,0.2-0.2,0.2c0,0,0.3-0.4,0.7-1c0.4-0.6,0.9-1.5,1.4-2.5c0.5-1,0.8-2,1-2.7
							C236.5,427.3,236.6,426.9,236.6,426.9z"/>
					</g>
				</g>
			</g>
			<g>
				<g>
					<g>
						<path class="st10" d="M237.6,426.9c0,0,0,0.4,0.1,1c0.1,0.6,0.2,1.5,0.5,2.5c0.2,1,0.5,1.8,0.7,2.4c0.2,0.6,0.3,1,0.3,1
							c0,0-0.2-0.4-0.4-1c-0.2-0.6-0.5-1.5-0.7-2.4c-0.2-1-0.4-1.9-0.4-2.5C237.5,427.3,237.6,426.9,237.6,426.9z"/>
					</g>
				</g>
			</g>
			<g>
				<g>
					<g>
						<path class="st10" d="M241.7,426.3c0,0,0.2,0.3,0.4,0.9c0.2,0.6,0.4,1.4,0.6,2.3c0.2,0.9,0.3,1.8,0.3,2.4c0,0.6,0,1,0,1
							c0,0-0.1-0.4-0.1-1c-0.1-0.6-0.2-1.4-0.4-2.4c-0.2-0.9-0.4-1.7-0.5-2.3C241.8,426.7,241.7,426.3,241.7,426.3z"/>
					</g>
				</g>
			</g>
			<g>
				<g>
					<g>
						<path class="st10" d="M242.5,426.3c0.1,0,0.8,1.1,2.1,2.1c1.3,1,2.6,1.6,2.5,1.6c0,0-0.3-0.1-0.8-0.3
							c-0.5-0.2-1.2-0.6-1.8-1.2c-0.7-0.5-1.2-1.1-1.5-1.5C242.6,426.7,242.5,426.4,242.5,426.3z"/>
					</g>
				</g>
			</g>
			<g>
				<g>
					<path class="st13" d="M239.7,421.3c2.2,0.9,4.6,1.4,7,1.3c-2.1-1.7-5-2.5-7.8-2.3l-1.9,0.3c-2.4,0.8-4.5,2.4-5.8,4.4
						c2.3-0.6,4.4-2,5.7-3.8c-0.8,2.4-0.8,4.9,0,7.3c1.1-1.9,1.6-4.1,1.4-6.3c0.7,2.3,2.8,4.2,5.4,4.8
						C243.4,424.7,241.9,422.6,239.7,421.3z"/>
				</g>
			</g>
			<g>
				<g>
					<g>
						<g>
							<path class="st14" d="M230.5,386.3c0,0-3.6-3.9-3.9-4.3c-0.3-0.4-0.7-1-0.7-1h-0.9v0.8c0,0-0.7,0.9-0.2,3
								c0.5,2.1,3.8,5.6,4.7,6.5c0.9,1,3.3,1.2,4,0.4c0,0,1.4-0.8,2.4,0c1,0.8,1.1,0.7,1.1,0.7l0,0l0.9-0.9l-5.1-3.6L230.5,386.3z"
								/>
						</g>
					</g>
					<g>
						<g>
							<g>
								<path class="st14" d="M229.7,376.8l-0.6,1.1c0,0-1.2,1.7,0,5.2c1.2,3.5,3,6,4,6.7c1,0.7,2.1,0.3,2.3,0.2s2.7,1.7,2.7,1.7
									l1-0.8l-2.9-2.1c0,0-0.2-0.9-0.6-1.7c-0.3-0.7-2.5-3.9-3.1-5.5c-0.6-1.6-1-3.5-1.6-3.9c-0.1-0.1-0.2-0.9-0.2-0.9H229.7z"/>
							</g>
						</g>
						<g>
							<g>
								<g>
									<path class="st10" d="M229.7,376.8c0,0,0.1,0,0.3,0c0.2,0,0.5,0,0.8,0l0,0l0,0c0,0.1,0,0.3,0.1,0.4c0,0.1,0,0.3,0.1,0.4
										c0.1,0.1,0.3,0.2,0.4,0.4c0.1,0.2,0.2,0.4,0.3,0.6c0.3,0.8,0.6,1.8,1,2.9c0.4,1.1,1.1,2.2,1.8,3.3c0.4,0.6,0.7,1.2,1.1,1.8
										c0.4,0.6,0.6,1.4,0.8,2.1l0-0.1c0.9,0.7,1.9,1.4,2.9,2.1l0.1,0.1l-0.1,0.1c-0.3,0.3-0.7,0.5-1,0.8l-0.1,0l-0.1,0
										c-0.1-0.1-0.2-0.2-0.4-0.2c-0.4-0.3-0.9-0.6-1.3-0.9c-0.2-0.1-0.4-0.3-0.7-0.4c-0.1-0.1-0.2-0.1-0.3-0.2c0,0,0,0,0,0l0,0
										l-0.1,0c-0.1,0-0.1,0-0.2,0c-0.5,0.1-1.1,0.1-1.5-0.1c-0.5-0.2-0.9-0.5-1.2-0.9c-0.7-0.7-1.2-1.5-1.6-2.3
										c-0.4-0.8-0.8-1.5-1.1-2.3c-0.3-0.7-0.6-1.5-0.8-2.1c-0.2-0.7-0.3-1.3-0.3-1.9c-0.1-1.2,0.2-2.2,0.5-2.8l0,0
										c0.2-0.4,0.4-0.6,0.5-0.8C229.6,377,229.6,377,229.7,376.8C229.7,376.9,229.7,376.8,229.7,376.8
										C229.7,376.8,229.7,376.9,229.7,376.8c-0.1,0.1-0.1,0.2-0.1,0.3c-0.1,0.2-0.2,0.5-0.4,0.8l0,0c-0.3,0.6-0.6,1.5-0.5,2.7
										c0,0.6,0.2,1.2,0.3,1.9c0.2,0.7,0.5,1.4,0.8,2.1c0.3,0.7,0.7,1.5,1.1,2.3c0.4,0.8,1,1.5,1.6,2.2c0.3,0.3,0.7,0.7,1.1,0.8
										c0.4,0.2,0.9,0.2,1.4,0.1c0.1,0,0.1,0,0.2,0l0.1,0l0,0c0,0,0.1,0,0.1,0c0.2,0.1,0.2,0.1,0.4,0.2c0.2,0.1,0.4,0.3,0.7,0.4
										c0.4,0.3,0.9,0.6,1.3,0.9c0.1,0.1,0.3,0.2,0.4,0.2l-0.1,0c0.3-0.3,0.7-0.5,1-0.8l0,0.2c-1-0.7-2-1.5-2.9-2.1l0,0l0,0
										c-0.2-0.7-0.4-1.5-0.8-2.1c-0.4-0.6-0.8-1.2-1.1-1.8c-0.7-1.2-1.4-2.3-1.8-3.4c-0.4-1.1-0.6-2.1-0.9-2.9
										c-0.2-0.4-0.3-0.7-0.6-0.9c-0.1-0.2-0.1-0.3-0.1-0.5c0-0.2,0-0.3,0-0.4l0,0c-0.3,0-0.6,0-0.8,0
										C229.8,376.8,229.7,376.8,229.7,376.8z"/>
								</g>
							</g>
						</g>
					</g>
					<g>
						<g>
							<g>
								<path class="st14" d="M238.9,374.3l-1.1,0.3c0,0-0.1,0.9-0.3,1.1c-0.1,0.2-0.6,0.6-0.5,2.3c0.1,1.7,0.4,8.4,1.1,9.5l1.1,0.9
									l0.4,2.6h1.2l0-2.7c0,0,0.9-0.8,1.1-2.3c0.2-1.5-0.8-9.3-1-9.8c-0.4-1-1.4-1.2-1.4-1.3S238.9,374.3,238.9,374.3z"/>
							</g>
						</g>
						<g>
							<g>
								<g>
									<path class="st10" d="M238.9,374.3c0,0,0.1,0.1,0.2,0.2c0.1,0.1,0.2,0.2,0.3,0.3c0,0,0,0.1,0.1,0.1l0,0c0,0,0,0.1,0,0
										c0,0,0,0,0,0c0.1,0,0.2,0.1,0.2,0.1c0.3,0.1,0.8,0.4,1,0.9c0.1,0.2,0.2,0.5,0.2,0.8c0,0.3,0.1,0.6,0.1,1
										c0.2,1.3,0.4,3,0.6,4.8c0.1,0.9,0.2,1.9,0.2,2.9c0,1-0.3,2.1-1.1,3l0-0.1c0,0.9,0,1.7,0,2.7l0,0.1h-0.1c-0.2,0-0.5,0-0.8,0
										c-0.1,0-0.3,0-0.4,0h-0.1l0-0.1c-0.1-0.9-0.3-1.8-0.4-2.6l0,0.1c-0.4-0.3-0.7-0.6-1.1-0.9l0,0l0,0
										c-0.2-0.4-0.3-0.7-0.4-1.1c-0.1-0.4-0.1-0.7-0.2-1.1c-0.1-0.7-0.2-1.4-0.2-2.1c-0.1-1.4-0.2-2.6-0.2-3.7
										c0-1.1-0.1-2.1,0.1-3c0.1-0.2,0.1-0.4,0.2-0.6c0.1-0.1,0.1-0.2,0.2-0.2c0-0.1,0.1-0.2,0.1-0.2c0.1-0.3,0.1-0.6,0.2-0.9l0,0
										l0,0c0.4-0.1,0.6-0.1,0.8-0.2C238.8,374.3,238.9,374.3,238.9,374.3c0,0-0.1,0-0.3,0.1c-0.2,0.1-0.5,0.1-0.8,0.2l0,0
										c0,0.3-0.1,0.5-0.2,0.9c0,0.1,0,0.2-0.1,0.3c-0.1,0.1-0.1,0.1-0.2,0.2c-0.1,0.2-0.2,0.3-0.2,0.5c-0.2,0.8-0.1,1.8,0,2.9
										c0.1,1.1,0.1,2.4,0.3,3.7c0.1,0.7,0.1,1.4,0.2,2.1c0.1,0.4,0.1,0.7,0.2,1.1c0.1,0.4,0.2,0.7,0.3,1.1l0,0
										c0.3,0.3,0.7,0.6,1.1,0.9l0,0l0,0c0.1,0.8,0.3,1.7,0.4,2.6l-0.1-0.1c0.1,0,0.3,0,0.4,0c0.3,0,0.5,0,0.8,0l-0.1,0.1
										c0-0.9,0-1.8,0-2.7l0,0l0,0c0.7-0.8,1.1-1.8,1-2.8c0-1-0.1-2-0.2-2.9c-0.2-1.8-0.4-3.4-0.5-4.8c0-0.3-0.1-0.7-0.1-1
										c-0.1-0.3-0.1-0.6-0.2-0.8c-0.2-0.5-0.6-0.7-1-0.9c-0.1,0-0.2-0.1-0.2-0.1c0,0,0,0-0.1,0c0,0,0,0,0,0c0,0,0,0,0,0s0,0,0,0
										l0,0c0,0,0-0.1-0.1-0.1c-0.1-0.1-0.2-0.2-0.2-0.3C238.9,374.4,238.9,374.3,238.9,374.3z"/>
								</g>
							</g>
						</g>
					</g>
					<g>
						<g>
							<path class="st14" d="M247.5,383.8c0,0,2.3-4.8,2.5-5.3c0.2-0.4,0.4-1.2,0.4-1.2l0.9-0.3l0.2,0.8c0,0,1,0.6,1.1,2.8
								s-2,6.4-2.6,7.6c-0.6,1.2-2.8,2.1-3.7,1.6c0,0-1.5-0.4-2.3,0.7c-0.7,1-0.8,1-0.8,1l0,0l-1.1-0.6l3.8-5L247.5,383.8z"/>
						</g>
					</g>
					<g>
						<g>
							<g>
								<path class="st14" d="M248,374.8l0.8,1c0,0,1.5,1.5,1,5.1c-0.5,3.6-1.8,6.4-2.7,7.3c-0.9,0.9-2.1,0.7-2.2,0.7
									c-0.2,0-2.4,2.2-2.4,2.2l-1.1-0.6l2.4-2.6c0,0,0.1-1,0.3-1.8c0.2-0.8,1.7-4.3,2-6c0.3-1.7,0.3-3.6,0.9-4.2
									c0.1-0.1,0-0.9,0-0.9L248,374.8z"/>
							</g>
						</g>
						<g>
							<g>
								<g>
									<path class="st10" d="M248,374.8c0,0-0.1,0-0.3,0.1c-0.2,0-0.4,0.1-0.8,0.2l0,0c0,0.1,0,0.3,0,0.4c0,0.2,0,0.3,0,0.5
										c-0.3,0.3-0.4,0.6-0.4,1c-0.2,0.8-0.2,1.8-0.4,3c-0.2,1.1-0.6,2.3-1.1,3.6c-0.2,0.6-0.5,1.3-0.8,2
										c-0.3,0.7-0.3,1.4-0.4,2.2l0,0l0,0c-0.8,0.8-1.6,1.7-2.4,2.6l0-0.2c0.4,0.2,0.7,0.4,1.1,0.6l-0.1,0
										c0.1-0.1,0.2-0.2,0.3-0.3c0.4-0.4,0.8-0.7,1.1-1.1c0.2-0.2,0.4-0.4,0.6-0.5c0.1-0.1,0.2-0.2,0.3-0.3c0,0,0.1,0,0.1,0l0.1,0
										l0.1,0c0.1,0,0.1,0,0.2,0c0.5,0,1-0.1,1.4-0.3c0.4-0.2,0.7-0.6,1-1c0.5-0.8,0.9-1.7,1.2-2.5c0.3-0.8,0.5-1.6,0.7-2.4
										c0.2-0.8,0.3-1.5,0.4-2.2c0.1-0.7,0.1-1.3,0-1.9c-0.1-1.2-0.5-2.1-1-2.6l0,0c-0.2-0.3-0.4-0.6-0.6-0.7
										C248.2,375,248.1,374.9,248,374.8C248,374.8,248,374.8,248,374.8S248,374.8,248,374.8c0.1,0.1,0.1,0.2,0.2,0.2
										c0.1,0.2,0.3,0.4,0.6,0.7l0,0c0.5,0.5,0.9,1.4,1,2.6c0.1,0.6,0.1,1.3,0,2c-0.1,0.7-0.2,1.5-0.4,2.2
										c-0.2,0.8-0.4,1.6-0.7,2.5c-0.3,0.8-0.7,1.7-1.2,2.5c-0.3,0.4-0.6,0.8-1,1.1c-0.4,0.3-1,0.4-1.5,0.4c-0.1,0-0.1,0-0.2,0
										l-0.1,0l0,0c0,0,0,0,0,0c-0.1,0.1-0.2,0.1-0.3,0.2c-0.2,0.2-0.4,0.3-0.6,0.5c-0.4,0.4-0.8,0.7-1.1,1.1
										c-0.1,0.1-0.2,0.2-0.3,0.3l-0.1,0.1l-0.1,0c-0.4-0.2-0.8-0.4-1.1-0.6l-0.1-0.1l0.1-0.1c0.8-0.9,1.7-1.8,2.4-2.6l0,0.1
										c0.1-0.8,0.2-1.6,0.4-2.3c0.3-0.7,0.5-1.4,0.8-2c0.5-1.3,0.9-2.5,1.1-3.6c0.2-1.1,0.3-2.1,0.4-3c0-0.2,0.1-0.4,0.2-0.6
										c0.1-0.2,0.2-0.4,0.3-0.5c0.1-0.1,0-0.3,0-0.5c0-0.2,0-0.3,0-0.4l0,0l0,0c0.3-0.1,0.6-0.1,0.8-0.1
										C247.9,374.8,248,374.8,248,374.8z"/>
								</g>
							</g>
						</g>
					</g>
					<g>
						<g>
							<g>
								<path class="st14" d="M243,374.2l1,0.8c0,0,1.8,1.2,2,4.8c0.2,3.7-0.5,6.7-1.2,7.7c-0.7,1-1.9,1.1-2,1.1
									c-0.2,0-1.3,2.8-1.3,2.8l-1.8-0.5l1.9-3.1c0,0-0.1-1-0.1-1.8c0-0.8,0.8-4.5,0.8-6.2c0-1.7-0.4-4,0.1-4.5l0.1-0.7L243,374.2z
									"/>
							</g>
						</g>
						<g>
							<g>
								<g>
									<path class="st10" d="M243,374.2c0,0-0.1,0-0.2,0.1c-0.1,0.1-0.3,0.1-0.5,0.2l0,0c0,0.2,0,0.5-0.1,0.7l0,0l0,0
										c-0.2,0.2-0.2,0.5-0.2,0.9c0,0.3,0,0.7,0,1.1c0,0.8,0.2,1.8,0.2,2.9c0,1.1-0.2,2.3-0.4,3.6c-0.1,0.6-0.2,1.3-0.3,2
										c-0.1,0.7,0,1.4,0.1,2.1l0,0l0,0c-0.6,1-1.2,2-1.9,3.1l-0.1-0.1c0.6,0.2,1.2,0.3,1.8,0.5l-0.1,0.1c0-0.1,0-0.1,0.1-0.2
										c0.2-0.5,0.4-1,0.7-1.5c0.1-0.2,0.2-0.5,0.3-0.7c0.1-0.1,0.1-0.2,0.2-0.3c0,0,0-0.1,0.1-0.1c0,0,0,0,0.1-0.1c0,0,0,0,0.1,0
										l0.2,0c0.5-0.1,1-0.3,1.3-0.6c0.4-0.3,0.6-0.7,0.8-1.2c0.3-0.9,0.5-1.8,0.7-2.7c0.1-0.9,0.2-1.7,0.2-2.5
										c0-0.8,0-1.6-0.1-2.3c-0.1-0.7-0.2-1.3-0.4-1.9c-0.4-1.1-0.9-1.9-1.5-2.3l0,0c-0.3-0.3-0.5-0.5-0.7-0.6
										C243.2,374.4,243.1,374.3,243,374.2C243.1,374.3,243,374.2,243,374.2C243,374.2,243.1,374.3,243,374.2
										c0.1,0.1,0.2,0.1,0.2,0.2c0.2,0.1,0.4,0.3,0.7,0.6l0,0c0.6,0.4,1.2,1.2,1.5,2.4c0.2,0.6,0.3,1.2,0.4,1.9
										c0.1,0.7,0.1,1.5,0.1,2.3c0,0.8-0.1,1.7-0.2,2.6c-0.1,0.9-0.3,1.8-0.7,2.7c-0.2,0.4-0.4,0.9-0.8,1.3
										c-0.4,0.3-0.9,0.5-1.4,0.6l-0.2,0l0,0l0,0l0,0c0,0.1,0-0.1,0-0.1c0,0,0,0,0,0c0,0,0,0,0,0l0,0c0,0,0,0,0,0.1
										c-0.1,0.1-0.1,0.2-0.2,0.3c-0.1,0.2-0.2,0.5-0.3,0.7c-0.2,0.5-0.4,1-0.7,1.4c0,0.1,0,0.1-0.1,0.2l0,0.1l-0.1,0
										c-0.6-0.2-1.2-0.4-1.8-0.5l-0.1,0l0.1-0.1c0.6-1.1,1.3-2.1,1.9-3.1l0,0.1c-0.1-0.7-0.1-1.4,0-2.1c0.1-0.7,0.2-1.3,0.3-2
										c0.2-1.3,0.4-2.5,0.5-3.5c0-1.1-0.1-2-0.1-2.9c0-0.4,0-0.8,0-1.2c0-0.3,0.1-0.7,0.3-0.9l0,0c0-0.3,0.1-0.5,0.1-0.7l0,0l0,0
										c0.2-0.1,0.4-0.2,0.5-0.2C243,374.3,243,374.2,243,374.2z"/>
								</g>
							</g>
						</g>
					</g>
					<g>
						<g>
							<g>
								<path class="st14" d="M234.5,375.4l-0.8,1c0,0-1.5,1.5-1,5.1c0.5,3.7,1.7,6.5,2.6,7.3c0.9,0.9,2,0.7,2.2,0.7
									c0.2,0,1.8,2.5,1.8,2.5l1.6-0.8l-2.4-2.7c0,0-0.1-1-0.2-1.8c-0.2-0.8-1.7-4.3-1.9-6c-0.3-1.7-0.3-4-0.9-4.4l-0.2-0.7
									L234.5,375.4z"/>
							</g>
						</g>
						<g>
							<g>
								<g>
									<path class="st10" d="M234.5,375.4c0,0,0.1,0,0.2,0c0.1,0,0.3,0.1,0.6,0.1l0,0l0,0c0.1,0.2,0.1,0.4,0.2,0.7l0,0
										c0.2,0.2,0.3,0.5,0.4,0.8c0.1,0.3,0.2,0.7,0.2,1.1c0.1,0.8,0.2,1.8,0.4,2.9c0.2,1,0.7,2.2,1.1,3.4c0.2,0.6,0.5,1.2,0.7,1.9
										c0.2,0.7,0.3,1.4,0.3,2.1l0-0.1c0.8,0.9,1.6,1.8,2.4,2.7l0.1,0.1l-0.1,0.1c-0.5,0.3-1.1,0.6-1.6,0.8l-0.1,0l-0.1-0.1
										c0,0-0.1-0.1-0.1-0.1c-0.3-0.4-0.6-0.9-0.9-1.3c-0.2-0.2-0.3-0.4-0.5-0.6c-0.1-0.1-0.2-0.2-0.2-0.3c0,0,0,0-0.1-0.1
										c0,0,0,0,0,0c0,0,0,0,0,0l-0.2,0c-0.5,0-1.1-0.1-1.5-0.3c-0.5-0.3-0.8-0.7-1-1.1c-0.5-0.8-0.9-1.7-1.2-2.6
										c-0.3-0.9-0.5-1.7-0.7-2.5c-0.2-0.8-0.3-1.5-0.3-2.3c0-0.7,0-1.4,0.1-2c0.2-1.2,0.6-2.1,1.1-2.6l0,0
										c0.3-0.3,0.5-0.5,0.6-0.7C234.3,375.5,234.4,375.5,234.5,375.4C234.5,375.4,234.5,375.4,234.5,375.4
										C234.5,375.4,234.5,375.4,234.5,375.4c-0.1,0.1-0.1,0.2-0.2,0.3c-0.1,0.2-0.3,0.4-0.6,0.7l0,0c-0.4,0.5-0.9,1.4-1,2.6
										c-0.1,0.6-0.1,1.2,0,1.9c0.1,0.7,0.2,1.5,0.4,2.2c0.2,0.8,0.4,1.6,0.7,2.5c0.3,0.8,0.6,1.7,1.2,2.5c0.3,0.4,0.6,0.8,1,1
										c0.4,0.2,0.9,0.3,1.4,0.3l0.2,0c0,0,0,0,0.1,0c0.1,0,0.1,0,0.1,0c0,0,0.1,0.1,0.1,0.1c0.1,0.1,0.2,0.2,0.3,0.3
										c0.2,0.2,0.3,0.4,0.5,0.6c0.3,0.4,0.6,0.9,0.9,1.3c0,0.1,0.1,0.1,0.1,0.1l-0.1,0c0.6-0.3,1.1-0.6,1.6-0.8l0,0.2
										c-0.8-0.9-1.6-1.8-2.4-2.7l0,0l0,0c-0.1-0.7-0.1-1.4-0.3-2.1c-0.2-0.6-0.5-1.3-0.7-1.9c-0.4-1.2-0.8-2.3-1.1-3.4
										c-0.2-1.1-0.2-2.1-0.4-2.9c-0.1-0.4-0.1-0.8-0.2-1.1c-0.1-0.3-0.2-0.6-0.4-0.8l0,0l0,0c-0.1-0.3-0.1-0.5-0.2-0.7l0,0
										c-0.2-0.1-0.4-0.1-0.6-0.1C234.6,375.4,234.5,375.4,234.5,375.4z"/>
								</g>
							</g>
						</g>
					</g>
					<g>
						<g>
							<path class="st14" d="M236.7,392.4c0,0,0.3,0.5,0.3,1l6.6-0.4l0.2-3.6l-6.1,1.7L236.7,392.4z"/>
						</g>
					</g>
					<g>
						<g>
							<polygon class="st10" points="229.3,377.5 230.9,377.7 230.7,376.8 229.7,376.8 							"/>
						</g>
					</g>
					<g>
						<g>
							<polygon class="st10" points="235.4,376.2 234,375.9 234.5,375.4 235.2,375.5 							"/>
						</g>
					</g>
					<g>
						<g>
							<polygon class="st10" points="237.6,375.4 237.8,374.5 238.9,374.3 239.4,374.9 							"/>
						</g>
					</g>
					<g>
						<g>
							<polygon class="st10" points="242.3,375.2 243.6,374.7 243,374.2 242.3,374.5 							"/>
						</g>
					</g>
					<g>
						<g>
							<polyline class="st10" points="247,375.6 247,375.6 248.5,375.4 248,374.8 247,375 							"/>
						</g>
					</g>
					<g>
						<g>
							<polygon class="st10" points="250.3,377.7 251.5,377.8 251.2,377.1 250.4,377.3 							"/>
						</g>
					</g>
					<g>
						<g>
							<path class="st10" d="M224.9,381.7V381h0.9c0,0,0.5,0.7,0.5,0.7C226.3,381.6,224.9,381.7,224.9,381.7z"/>
						</g>
					</g>
					<g>
						<g>
							<g>
								<path class="st10" d="M237.5,387.9c0,0-0.1-0.1-0.2-0.4c-0.1-0.3-0.3-0.6-0.5-1.1c-0.4-1-0.8-2.3-1.2-3.9
									c-0.4-1.5-0.5-3-0.6-4c0-0.5-0.1-0.9-0.1-1.2c0-0.3,0-0.5,0-0.5s0,0.2,0.1,0.4c0,0.3,0.1,0.7,0.1,1.2c0.1,1,0.3,2.4,0.7,4
									c0.4,1.5,0.8,2.9,1.1,3.9c0.2,0.5,0.3,0.9,0.4,1.2C237.4,387.7,237.5,387.9,237.5,387.9z"/>
							</g>
						</g>
					</g>
					<g>
						<g>
							<g>
								<path class="st10" d="M243.2,376.1c0,0,0,0.1,0.1,0.4c0,0.3,0.1,0.7,0.1,1.1c0.1,1,0.1,2.3,0,3.8c-0.1,1.5-0.4,2.8-0.7,3.7
									c-0.1,0.5-0.2,0.8-0.3,1.1c-0.1,0.3-0.1,0.4-0.2,0.4c0,0,0.1-0.6,0.4-1.5c0.2-0.9,0.5-2.3,0.6-3.7c0.1-1.5,0.1-2.8,0.1-3.8
									C243.3,376.7,243.2,376.1,243.2,376.1z"/>
							</g>
						</g>
					</g>
					<g>
						<g>
							<g>
								<path class="st10" d="M229.4,388.5c0,0-0.3-0.3-0.7-0.7c-0.4-0.5-0.9-1.2-1.4-2c-0.5-0.8-0.9-1.6-1.1-2.1
									c-0.3-0.6-0.4-0.9-0.4-0.9c0,0,0.2,0.3,0.5,0.9c0.3,0.5,0.7,1.3,1.2,2.1c0.5,0.8,1,1.5,1.3,2
									C229.2,388.1,229.5,388.4,229.4,388.5z"/>
							</g>
						</g>
					</g>
				</g>
				<g class="st15">
					<g>
						<g>
							<path d="M251.5,384.9c-1-0.3-0.4-1.4-1.4-1.3c-0.5,0-0.9,0.5-1.4,0.5c-0.5-0.1-0.7-0.8-1-1.2c-0.5-0.8-1.7-1-2.4-0.4
								c-0.2,0.2-0.4,0.4-0.7,0.6c-0.2,0.2-0.6,0.3-0.9,0.2c-0.3-0.2-0.4-0.6-0.5-0.9c-0.3-0.7-1-1.2-1.8-1.2
								c-0.8,0-1.5,0.5-1.8,1.2c-0.1,0.4-0.3,0.9-0.7,0.9c-0.5,0-0.6-0.8-1-1.1c-0.5-0.4-1.2,0-1.7,0.4c-0.5,0.5-1,1-1.7,0.8
								c-0.5-0.2-0.8-0.8-1.2-1.1c-0.5-0.4-1.4-0.4-2-0.1c-0.6,0.4-1,1-1.2,1.7c-0.1,0.4-0.2,0.9-0.4,1.3c-0.2,0.4-0.5,0.8-1,0.9
								c-0.4,0.1-0.8-0.1-1.2-0.3c-0.4-0.2-0.8-0.4-1.2-0.3c-0.4,0.1-0.8,1.2-0.6,1.6c1,1.8,2.3,3.5,3.8,5.2
								c3.2,2.4,5.4,5.3,9.4,5.7c3.5,0.4,5.8-3.1,8.6-5.1"/>
						</g>
					</g>
				</g>
				<g>
					<g>
						<g>
							<path class="st14" d="M230.3,393.9c0,0-3.1-5.1-3.3-5.6c-0.2-0.5-0.6-1.3-0.6-1.3l-1-0.2l-0.2,0.9c0,0-1,0.8-0.9,3.3
								s2.9,7,3.6,8.2c0.7,1.3,3.3,2,4.3,1.4c0,0,1.7-0.6,2.6,0.5c0.9,1.1,1,1,1,1l0,0l1.2-0.8l-4.8-5.1L230.3,393.9z"/>
						</g>
					</g>
					<g>
						<g>
							<g>
								<path class="st14" d="M231.6,383.3l-0.9,1.1c0,0-1.7,1.6-1.2,5.7c0.5,4.1,1.9,7.2,2.9,8.2c1,1,2.3,0.8,2.5,0.8
									s2.6,2.5,2.6,2.5l1.3-0.6l-2.7-3c0,0-0.1-1.1-0.3-2c-0.2-0.9-1.8-4.8-2.1-6.7c-0.3-1.9-0.3-4.1-0.9-4.7c-0.1-0.1,0-1,0-1
									L231.6,383.3z"/>
							</g>
						</g>
						<g>
							<g>
								<g>
									<path class="st10" d="M231.6,383.3C231.6,383.3,231.6,383.3,231.6,383.3c0.1,0,0.2,0,0.3,0c0.2,0,0.5,0.1,0.9,0.2l0,0l0,0
										c0,0.1,0,0.3,0,0.5c0,0.2,0,0.4,0,0.5c0.1,0.1,0.3,0.3,0.3,0.5c0.1,0.2,0.1,0.4,0.2,0.7c0.2,0.9,0.2,2.1,0.4,3.3
										c0.2,1.3,0.7,2.6,1.2,4.1c0.3,0.7,0.5,1.5,0.8,2.3c0.3,0.8,0.4,1.7,0.4,2.5l0-0.1c0.9,1,1.8,2,2.7,3l0.1,0.1l-0.1,0.1
										c-0.4,0.2-0.8,0.4-1.3,0.6l-0.1,0l-0.1-0.1c-0.1-0.1-0.2-0.2-0.3-0.4c-0.4-0.4-0.8-0.8-1.3-1.2c-0.2-0.2-0.4-0.4-0.6-0.6
										c-0.1-0.1-0.2-0.2-0.3-0.3c0,0,0,0,0,0l0,0l-0.1,0c-0.1,0-0.1,0-0.2,0c-0.6,0-1.2-0.1-1.7-0.4c-0.5-0.3-0.8-0.8-1.1-1.2
										c-0.6-0.9-0.9-1.9-1.3-2.9c-0.3-0.9-0.5-1.9-0.7-2.8c-0.2-0.9-0.3-1.7-0.4-2.5c0-0.8,0-1.5,0.1-2.2
										c0.2-1.3,0.7-2.3,1.2-2.9l0,0c0.3-0.3,0.5-0.6,0.7-0.8C231.5,383.5,231.5,383.4,231.6,383.3
										C231.6,383.3,231.6,383.3,231.6,383.3C231.6,383.3,231.6,383.4,231.6,383.3c-0.1,0.1-0.2,0.2-0.2,0.3
										c-0.2,0.2-0.4,0.5-0.7,0.8l0,0c-0.5,0.5-1,1.5-1.2,2.9c-0.1,0.7-0.1,1.4-0.1,2.2c0.1,0.8,0.2,1.6,0.4,2.5
										c0.2,0.9,0.4,1.8,0.7,2.7c0.3,0.9,0.7,1.9,1.3,2.8c0.3,0.5,0.6,0.9,1.1,1.2c0.4,0.3,1,0.4,1.6,0.4c0.1,0,0.1,0,0.2,0l0.1,0
										l0.1,0c0,0,0.1,0,0.1,0c0.1,0.1,0.2,0.2,0.4,0.3c0.2,0.2,0.4,0.4,0.6,0.6c0.4,0.4,0.8,0.8,1.3,1.2c0.1,0.1,0.2,0.2,0.3,0.4
										l-0.1,0c0.4-0.2,0.9-0.4,1.3-0.6l0,0.2c-0.9-1-1.8-2-2.7-3l0,0l0,0c-0.1-0.9-0.1-1.7-0.4-2.5c-0.3-0.8-0.5-1.5-0.8-2.3
										c-0.3-0.7-0.5-1.4-0.7-2.1c-0.2-0.7-0.4-1.3-0.5-2c-0.2-1.3-0.2-2.4-0.4-3.3c-0.1-0.5-0.2-0.9-0.5-1.2
										c-0.1-0.2,0-0.4,0-0.6c0-0.2,0-0.3,0-0.5l0,0c-0.4-0.1-0.6-0.1-0.8-0.2C231.8,383.4,231.8,383.4,231.6,383.3
										C231.6,383.3,231.6,383.3,231.6,383.3z"/>
								</g>
							</g>
						</g>
					</g>
					<g>
						<g>
							<g>
								<path class="st14" d="M242.3,382.6l-1.3,0c0,0-0.4,0.9-0.5,1.1c-0.2,0.2-0.8,0.5-1.1,2.4c-0.3,1.9-1.5,9.2-1,10.7l1,1.2
									l-0.2,3l1.3,0.3l0.7-2.9c0,0,1.1-0.7,1.7-2.3s1.2-10.4,1.2-10.9c-0.2-1.2-1.3-1.7-1.3-1.7
									C242.7,383.3,242.3,382.6,242.3,382.6z"/>
							</g>
						</g>
						<g>
							<g>
								<g>
									<path class="st10" d="M242.3,382.6C242.3,382.6,242.3,382.6,242.3,382.6c0.1,0.1,0.1,0.2,0.2,0.3c0.1,0.1,0.1,0.2,0.2,0.3
										c0,0,0,0.1,0.1,0.1l0,0c0,0,0,0.1,0,0c0,0,0,0,0,0c0.1,0.1,0.2,0.1,0.2,0.2c0.3,0.2,0.7,0.6,0.9,1.2c0.1,0.3,0.1,0.6,0.1,1
										c0,0.3,0,0.7-0.1,1.1c-0.1,1.5-0.2,3.3-0.5,5.4c-0.1,1-0.2,2.1-0.4,3.2c-0.2,1.1-0.8,2.2-1.9,3l0-0.1
										c-0.2,0.9-0.4,1.9-0.7,2.9l0,0.1l-0.1,0c-0.3-0.1-0.6-0.1-0.9-0.2c-0.2,0-0.3-0.1-0.5-0.1l-0.1,0l0-0.1c0.1-1,0.1-2,0.2-3
										l0,0.1c-0.3-0.4-0.6-0.8-1-1.2l0,0l0,0l-0.1-0.3c0-0.1,0-0.2,0-0.3c0-0.2,0-0.4,0-0.6c0-0.4,0-0.8,0.1-1.2
										c0.1-0.8,0.1-1.6,0.2-2.4c0.2-1.5,0.4-2.9,0.6-4.2c0.2-1.2,0.3-2.4,0.8-3.2c0.1-0.2,0.2-0.4,0.4-0.6
										c0.1-0.1,0.2-0.1,0.2-0.2c0.1-0.1,0.1-0.2,0.2-0.2c0.2-0.3,0.3-0.6,0.4-0.9l0,0l0,0c0.4,0,0.7,0,1,0
										C242.1,382.6,242.1,382.6,242.3,382.6C242.2,382.6,242.3,382.6,242.3,382.6C242.3,382.6,242.2,382.6,242.3,382.6
										c-0.1,0-0.2,0-0.3,0c-0.2,0-0.5,0-0.9,0l0,0c-0.1,0.3-0.2,0.6-0.4,0.9c0,0.1-0.1,0.2-0.2,0.3c-0.1,0.1-0.2,0.1-0.2,0.2
										c-0.1,0.2-0.3,0.3-0.4,0.5c-0.4,0.8-0.5,2-0.7,3.2c-0.2,1.2-0.4,2.6-0.6,4.2c-0.1,0.8-0.2,1.5-0.2,2.4c0,0.4,0,0.8,0,1.2
										c0,0.4,0,0.8,0.1,1.2l0,0c0.3,0.4,0.6,0.8,1,1.2l0,0l0,0c-0.1,1-0.1,1.9-0.2,3l-0.1-0.1c0.1,0,0.3,0.1,0.5,0.1
										c0.3,0.1,0.6,0.1,0.9,0.2l-0.1,0.1c0.2-1,0.4-2,0.7-2.9l0,0l0,0c1-0.7,1.6-1.8,1.8-2.8c0.2-1.1,0.3-2.2,0.5-3.2
										c0.2-2,0.4-3.9,0.5-5.4c0-0.4,0-0.7,0.1-1.1c0-0.3,0.1-0.7,0-0.9c-0.2-0.6-0.5-0.9-0.9-1.2c-0.1-0.1-0.2-0.1-0.2-0.2
										c0,0,0,0-0.1-0.1c0,0,0,0,0,0c0,0,0,0,0,0c0,0,0,0,0,0l0,0c0,0,0-0.1-0.1-0.1c-0.1-0.1-0.1-0.3-0.2-0.3
										C242.4,382.8,242.3,382.8,242.3,382.6C242.3,382.6,242.3,382.6,242.3,382.6z"/>
								</g>
							</g>
						</g>
					</g>
					<g>
						<g>
							<path class="st14" d="M249.5,395c0,0,3.7-4.8,3.9-5.2c0.3-0.4,0.7-1.2,0.7-1.2l1-0.1l0.1,0.9c0,0,0.9,0.9,0.6,3.3
								c-0.3,2.4-3.7,6.6-4.6,7.8c-0.9,1.2-3.5,1.6-4.5,0.9c0,0-1.6-0.7-2.6,0.2c-1,1-1.1,0.9-1.1,0.9l0,0l-1.1-1l5.3-4.6L249.5,395
								z"/>
						</g>
					</g>
					<g>
						<g>
							<g>
								<path class="st14" d="M252.2,385.3l0.6,1.2c0,0,1.3,2-0.1,5.8c-1.4,3.9-3.5,6.6-4.7,7.4s-2.4,0.3-2.6,0.2
									c-0.2,0-3.1,1.8-3.1,1.8l-1.1-0.9l3.3-2.3c0,0,0.3-1.1,0.7-1.9c0.4-0.8,2.9-4.3,3.6-6.1c0.7-1.8,1.2-3.9,1.9-4.4
									c0.2-0.1,0.2-1,0.2-1L252.2,385.3z"/>
							</g>
						</g>
						<g>
							<g>
								<g>
									<path class="st10" d="M252.2,385.3C252.2,385.3,252.1,385.3,252.2,385.3c-0.1,0-0.2,0-0.3,0c-0.2,0-0.5,0-0.9,0l0,0
										c0,0.1,0,0.3-0.1,0.5c0,0.2,0,0.3-0.2,0.5c-0.3,0.2-0.5,0.6-0.7,1c-0.4,0.9-0.7,2-1.1,3.2c-0.2,0.6-0.6,1.2-0.9,1.8
										c-0.4,0.6-0.7,1.3-1.2,1.9c-0.4,0.7-0.9,1.3-1.3,2c-0.4,0.7-0.7,1.5-1,2.3l0,0l0,0c-1.1,0.8-2.2,1.5-3.3,2.3l0-0.2
										c0.3,0.3,0.7,0.6,1.1,0.9l-0.1,0c0.1-0.1,0.3-0.2,0.4-0.3c0.5-0.3,1-0.6,1.5-0.9c0.2-0.2,0.5-0.3,0.8-0.4
										c0.1-0.1,0.2-0.1,0.4-0.2c0,0,0.1,0,0.1,0l0.1,0l0.1,0c0.1,0,0.1,0,0.2,0.1c0.5,0.1,1.1,0.1,1.6-0.1
										c0.5-0.2,0.9-0.5,1.3-0.9c0.7-0.8,1.3-1.6,1.8-2.5c0.5-0.8,1-1.7,1.3-2.5c0.4-0.8,0.7-1.6,0.9-2.3c0.2-0.7,0.4-1.5,0.4-2.1
										c0.1-1.3-0.1-2.4-0.5-3l0,0c-0.2-0.4-0.4-0.7-0.5-0.9C252.3,385.5,252.2,385.4,252.2,385.3
										C252.2,385.3,252.2,385.3,252.2,385.3C252.2,385.3,252.2,385.3,252.2,385.3c0.1,0.1,0.1,0.2,0.2,0.3
										c0.1,0.2,0.3,0.5,0.5,0.9l0,0c0.4,0.7,0.6,1.7,0.5,3.1c0,0.7-0.2,1.4-0.4,2.2c-0.2,0.8-0.5,1.5-0.9,2.4
										c-0.4,0.8-0.8,1.7-1.3,2.5c-0.5,0.8-1.1,1.7-1.9,2.5c-0.4,0.4-0.8,0.8-1.4,1c-0.5,0.2-1.1,0.2-1.7,0.1
										c-0.1,0-0.1,0-0.2-0.1l-0.1,0l0,0c0,0,0,0,0,0c-0.1,0-0.2,0.1-0.4,0.2c-0.2,0.1-0.5,0.3-0.7,0.4c-0.5,0.3-1,0.6-1.5,0.9
										c-0.1,0.1-0.3,0.2-0.4,0.3l-0.1,0l-0.1,0c-0.4-0.3-0.7-0.6-1.1-0.9l-0.1-0.1l0.1-0.1c1.1-0.8,2.2-1.6,3.3-2.3l0,0.1
										c0.3-0.8,0.5-1.7,1-2.4c0.4-0.7,0.9-1.4,1.3-2c0.8-1.3,1.6-2.5,2.1-3.7c0.5-1.2,0.8-2.3,1.2-3.2c0.1-0.2,0.2-0.4,0.3-0.6
										c0.1-0.2,0.3-0.3,0.4-0.4c0.1-0.1,0.1-0.3,0.1-0.5c0-0.2,0.1-0.3,0.1-0.5l0,0l0,0c0.4,0,0.7,0,0.9,0
										C252,385.3,252,385.3,252.2,385.3C252.1,385.3,252.2,385.3,252.2,385.3z"/>
								</g>
							</g>
						</g>
					</g>
					<g>
						<g>
							<g>
								<path class="st14" d="M246.8,383.5l0.9,1.1c0,0,1.7,1.7,1,5.8s-2.1,7.2-3.1,8.2c-1,1-2.3,0.7-2.5,0.7
									c-0.2,0-2.1,2.7-2.1,2.7l-1.8-1l2.7-2.9c0,0,0.1-1.1,0.3-2c0.2-0.9,2-4.8,2.3-6.6c0.3-1.9,0.4-4.4,1.1-5l0.2-0.8
									L246.8,383.5z"/>
							</g>
						</g>
						<g>
							<g>
								<g>
									<path class="st10" d="M246.8,383.5c0,0-0.1,0-0.2,0.1c-0.2,0-0.4,0.1-0.6,0.1l0,0c-0.1,0.2-0.1,0.5-0.2,0.8l0,0l0,0
										c-0.2,0.2-0.4,0.5-0.5,0.9c-0.1,0.4-0.2,0.8-0.2,1.3c-0.1,0.9-0.2,2-0.5,3.2c-0.3,1.2-0.8,2.4-1.3,3.8
										c-0.3,0.7-0.5,1.4-0.8,2.1c-0.2,0.7-0.3,1.5-0.4,2.3l0,0l0,0c-0.9,0.9-1.8,1.9-2.7,2.9l0-0.2c0.6,0.3,1.2,0.6,1.8,1l-0.1,0
										c0-0.1,0.1-0.1,0.1-0.2c0.3-0.5,0.7-1,1.1-1.4c0.2-0.2,0.4-0.5,0.5-0.7c0.1-0.1,0.2-0.2,0.3-0.3c0,0,0.1-0.1,0.1-0.1
										c0,0,0,0,0.1,0c0,0,0,0,0.1,0c0.1,0,0.1,0,0.2,0c0.6,0,1.1-0.1,1.6-0.3c0.5-0.3,0.8-0.7,1.1-1.1c0.6-0.9,1-1.9,1.3-2.8
										c0.3-0.9,0.6-1.9,0.8-2.7c0.2-0.9,0.4-1.7,0.4-2.5c0.1-0.8,0.1-1.5,0-2.2c-0.2-1.3-0.6-2.3-1.1-2.9l0,0
										c-0.3-0.4-0.5-0.6-0.6-0.8C247,383.7,246.9,383.7,246.8,383.5C246.8,383.6,246.8,383.5,246.8,383.5
										C246.8,383.5,246.8,383.5,246.8,383.5c0.1,0.1,0.2,0.2,0.2,0.3c0.2,0.2,0.4,0.5,0.7,0.8l0,0c0.5,0.6,1,1.6,1.2,2.9
										c0.1,0.7,0.1,1.4,0,2.2c-0.1,0.8-0.2,1.6-0.4,2.5c-0.2,0.9-0.5,1.8-0.8,2.8c-0.3,0.9-0.8,1.9-1.4,2.8
										c-0.3,0.5-0.7,0.9-1.2,1.2c-0.5,0.3-1.1,0.4-1.7,0.3c-0.1,0-0.1,0-0.2,0l0,0l0,0l0,0c0,0.1,0-0.1,0-0.1c0,0,0,0.1,0,0.1
										l0,0c0,0,0,0-0.1,0.1c-0.1,0.1-0.2,0.2-0.3,0.3c-0.2,0.2-0.4,0.5-0.5,0.7c-0.4,0.5-0.7,1-1,1.4c0,0.1-0.1,0.1-0.1,0.2
										l-0.1,0.1l-0.1,0c-0.6-0.3-1.2-0.7-1.8-1l-0.1-0.1l0.1-0.1c0.9-1,1.9-2,2.8-2.9l0,0.1c0.1-0.8,0.2-1.6,0.4-2.4
										c0.3-0.7,0.5-1.4,0.8-2.1c0.5-1.3,1-2.6,1.3-3.8c0.3-1.2,0.3-2.3,0.5-3.2c0.1-0.5,0.2-0.9,0.3-1.3c0.1-0.4,0.2-0.7,0.5-0.9
										l0,0c0.1-0.3,0.2-0.6,0.3-0.8l0,0l0,0c0.3,0,0.5-0.1,0.6-0.1C246.8,383.5,246.8,383.5,246.8,383.5z"/>
								</g>
							</g>
						</g>
					</g>
					<g>
						<g>
							<g>
								<path class="st14" d="M237.2,382.8l-1.1,0.9c0,0-2,1.3-2.3,5.4c-0.3,4.1,0.4,7.5,1.2,8.6c0.8,1.2,2.1,1.2,2.2,1.3
									c0.2,0,1.4,3.1,1.4,3.1l2-0.5l-2-3.5c0,0,0.2-1.1,0.1-2c0-0.9-0.8-5.1-0.8-7c0.1-1.9,0.6-4.4,0-5.1l-0.1-0.8L237.2,382.8z"
									/>
							</g>
						</g>
						<g>
							<g>
								<g>
									<path class="st10" d="M237.2,382.8c0,0,0.1,0,0.2,0.1c0.1,0.1,0.3,0.1,0.6,0.2l0,0l0,0c0,0.2,0,0.5,0.1,0.8l0,0
										c0.2,0.3,0.3,0.6,0.3,1c0,0.4,0,0.8,0,1.3c-0.1,0.9-0.2,2-0.2,3.2c0,1.2,0.2,2.5,0.4,4c0.1,0.7,0.2,1.4,0.3,2.2
										c0.1,0.8,0,1.6-0.1,2.4l0-0.1c0.7,1.1,1.3,2.3,2,3.5l0.1,0.1l-0.1,0c-0.6,0.2-1.3,0.4-2,0.5l-0.1,0l0-0.1
										c0-0.1-0.1-0.1-0.1-0.2c-0.2-0.6-0.5-1.1-0.7-1.6c-0.1-0.3-0.2-0.5-0.4-0.8c-0.1-0.1-0.1-0.3-0.2-0.4c0,0,0-0.1-0.1-0.1
										c0,0,0,0,0,0c0,0,0,0,0,0c-0.1,0-0.1,0-0.2,0c-0.6-0.1-1.1-0.3-1.6-0.7c-0.4-0.4-0.7-0.9-0.9-1.4c-0.4-1-0.6-2.1-0.7-3.1
										c-0.1-1-0.2-2-0.2-2.9c0-0.9,0-1.8,0.1-2.6c0.1-0.8,0.3-1.5,0.5-2.1c0.5-1.3,1.2-2.2,1.8-2.6l0,0c0.4-0.3,0.6-0.5,0.8-0.6
										C237,382.9,237.1,382.9,237.2,382.8C237.2,382.8,237.2,382.8,237.2,382.8C237.2,382.8,237.2,382.8,237.2,382.8
										c-0.1,0.1-0.2,0.2-0.3,0.2c-0.2,0.2-0.5,0.4-0.8,0.7l0,0c-0.6,0.4-1.3,1.3-1.7,2.6c-0.2,0.6-0.4,1.3-0.5,2.1
										c-0.1,0.8-0.1,1.6-0.1,2.5c0,0.9,0.1,1.9,0.2,2.8c0.1,1,0.3,2,0.7,3c0.2,0.5,0.4,1,0.8,1.3c0.4,0.4,0.9,0.6,1.5,0.7
										c0.1,0,0.1,0,0.2,0c0,0,0,0,0.1,0c0.1,0,0.1,0.1,0.1,0.1c0,0,0,0.1,0.1,0.1c0.1,0.1,0.1,0.3,0.2,0.4
										c0.1,0.3,0.2,0.5,0.4,0.8c0.2,0.5,0.5,1.1,0.7,1.6c0,0.1,0.1,0.1,0.1,0.2l-0.1-0.1c0.7-0.2,1.4-0.4,2-0.5l-0.1,0.1
										c-0.7-1.2-1.4-2.4-2-3.5l0,0l0,0c0.1-0.8,0.2-1.6,0.1-2.3c-0.1-0.8-0.2-1.5-0.3-2.2c-0.2-1.4-0.4-2.8-0.4-4
										c0-1.2,0.2-2.3,0.3-3.2c0-0.5,0.1-0.9,0-1.3c0-0.4-0.1-0.7-0.2-1l0,0l0,0c0-0.3,0-0.6,0-0.8l0,0c-0.2-0.1-0.4-0.2-0.6-0.3
										C237.3,382.9,237.2,382.8,237.2,382.8z"/>
								</g>
							</g>
						</g>
					</g>
					<g>
						<g>
							<path class="st14" d="M235.8,402c0,0,0.3,0.7,0.1,1.2l7.3,1.1l1.1-3.9l-7.1,0.5L235.8,402z"/>
						</g>
					</g>
					<g>
						<g>
							<polygon class="st10" points="231,384 232.7,384.5 232.8,383.6 231.6,383.3 							"/>
						</g>
					</g>
					<g>
						<g>
							<polygon class="st10" points="238,383.9 236.6,383.3 237.2,382.8 238,383.1 							"/>
						</g>
					</g>
					<g>
						<g>
							<polygon class="st10" points="240.6,383.6 241,382.7 242.3,382.6 242.7,383.4 							"/>
						</g>
					</g>
					<g>
						<g>
							<polygon class="st10" points="245.8,384.4 247.4,384.2 246.8,383.5 246,383.7 							"/>
						</g>
					</g>
					<g>
						<g>
							<polyline class="st10" points="250.8,385.9 250.9,385.9 252.5,386 252.2,385.3 251,385.3 							"/>
						</g>
					</g>
					<g>
						<g>
							<polygon class="st10" points="253.9,389 255.2,389.4 255.2,388.5 254.2,388.6 							"/>
						</g>
					</g>
					<g>
						<g>
							<path class="st10" d="M225.3,387.6l0.2-0.8l1,0.2c0,0,0.4,0.8,0.4,0.8S225.3,387.6,225.3,387.6z"/>
						</g>
					</g>
					<g>
						<g>
							<g>
								<path class="st10" d="M237.6,397.2c0,0-0.1-0.2-0.1-0.5c-0.1-0.3-0.2-0.8-0.3-1.4c-0.2-1.1-0.4-2.7-0.4-4.5
									c0-1.8,0.1-3.4,0.2-4.5c0.1-0.6,0.1-1,0.2-1.4c0.1-0.3,0.1-0.5,0.1-0.5c0,0,0,0.2,0,0.5c0,0.3-0.1,0.8-0.1,1.4
									c-0.1,1.2-0.2,2.8-0.2,4.5c0,1.8,0.2,3.4,0.4,4.5c0.1,0.6,0.2,1,0.2,1.4C237.6,397,237.7,397.2,237.6,397.2z"/>
							</g>
						</g>
					</g>
					<g>
						<g>
							<g>
								<path class="st10" d="M246.6,385.6c0,0,0,0.2,0,0.5c0,0.3-0.1,0.7-0.1,1.3c-0.1,1.1-0.4,2.6-0.9,4.2c-0.5,1.6-1.1,3-1.6,3.9
									c-0.2,0.5-0.5,0.9-0.6,1.1c-0.2,0.3-0.3,0.4-0.3,0.4c0,0,0.1-0.2,0.2-0.4c0.1-0.3,0.3-0.7,0.6-1.2c0.5-1,1-2.4,1.5-3.9
									c0.5-1.6,0.8-3,1-4.1c0.1-0.5,0.1-1,0.2-1.3C246.6,385.7,246.6,385.6,246.6,385.6z"/>
							</g>
						</g>
					</g>
					<g>
						<g>
							<g>
								<path class="st10" d="M228.7,396c0,0-0.2-0.4-0.6-1c-0.3-0.6-0.7-1.5-1-2.5c-0.4-1-0.6-1.9-0.8-2.6
									c-0.2-0.7-0.2-1.1-0.2-1.1c0,0,0.1,0.4,0.3,1.1c0.2,0.7,0.5,1.6,0.8,2.5c0.4,1,0.7,1.9,1,2.5
									C228.5,395.6,228.7,396,228.7,396z"/>
							</g>
						</g>
					</g>
				</g>
				<g class="st15">
					<g>
						<g>
							<path d="M253.6,395.3c0-0.3-0.1-0.6-0.3-0.8c-0.3-0.2-0.6-0.1-0.9-0.2c-1-0.3-1.2-2-2.2-1.9c-0.5,0-0.9,0.5-1.4,0.5
								c-0.5-0.1-0.7-0.8-1-1.2c-0.5-0.8-1.7-1-2.4-0.4c-0.2,0.2-0.4,0.4-0.7,0.6c-0.2,0.2-0.6,0.3-0.9,0.2
								c-0.3-0.2-0.4-0.6-0.5-0.9c-0.3-0.7-1-1.2-1.8-1.2c-0.8,0-1.5,0.5-1.8,1.2c-0.1,0.4-0.3,0.9-0.7,0.9c-0.5,0-0.6-0.8-1-1.1
								c-0.5-0.4-1.2,0-1.7,0.4c-0.5,0.5-1,1-1.7,0.8c-0.5-0.2-0.8-0.8-1.2-1.1c-0.5-0.4-1.4-0.4-2-0.1c-0.6,0.4-1,1-1.2,1.7
								c-0.1,0.4-0.2,0.9-0.4,1.3c-0.2,0.4-0.5,0.8-1,0.9c-0.4,0.1-0.8-0.1-1.2-0.3c-0.4-0.2-0.8-0.4-1.2-0.3
								c-0.4,0.1-0.8,1.2-0.6,1.6l3,5.2c2.1,3.4,6.2,5.2,10.2,5.6c3.5,0.4,7.2-0.3,10.1-2.3C252.2,402.3,254.1,398.8,253.6,395.3z"
								/>
						</g>
					</g>
				</g>
				<g>
					<g>
						<g>
							<path class="st14" d="M232.9,403.2l-1.9-2c0,0-2.8-4.6-3-5c-0.2-0.4-0.5-1.2-0.5-1.2l-0.9-0.2l-0.2,0.8c0,0-0.9,0.7-0.8,2.9
								c0.1,2.2,2.6,6.2,3.3,7.4c0.7,1.2,3,1.8,3.9,1.3c0,0,1.3-0.3,2.3,0.5c1,0.7,2.2,2.6,2.2,2.6l0.1-0.9l-0.3-1.6L232.9,403.2z"
								/>
						</g>
					</g>
					<g>
						<g>
							<g>
								<path class="st14" d="M232.3,391.7l-0.8,1c0,0-1.5,1.5-1.1,5.1c0.5,3.7,1.7,6.5,2.6,7.4c0.9,0.9,2,0.7,2.2,0.7
									c0.2,0,2.3,2.2,2.3,2.2l1.1-0.6l-2.4-2.7c0,0-0.1-1-0.2-1.8c-0.2-0.8-1.6-4.3-1.9-6c-0.3-1.7-0.2-3.6-0.8-4.2
									c-0.1-0.1,0-0.9,0-0.9L232.3,391.7z"/>
							</g>
						</g>
						<g>
							<g>
								<g>
									<path class="st10" d="M232.3,391.7c0,0,0.1,0,0.3,0c0.2,0,0.4,0.1,0.8,0.1l0,0l0,0c0,0.1,0,0.3,0,0.4c0,0.1,0,0.3,0,0.5
										c0.1,0.1,0.2,0.3,0.3,0.5c0.1,0.2,0.1,0.4,0.2,0.6c0.2,0.8,0.2,1.9,0.4,3c0.2,1.1,0.6,2.3,1.1,3.6c0.2,0.7,0.5,1.3,0.7,2
										c0.3,0.7,0.3,1.5,0.4,2.3l0-0.1c0.8,0.9,1.6,1.8,2.4,2.7l0.1,0.1l-0.1,0.1c-0.4,0.2-0.7,0.4-1.1,0.6l-0.1,0l-0.1-0.1
										c-0.1-0.1-0.2-0.2-0.3-0.3c-0.4-0.4-0.8-0.7-1.1-1.1c-0.2-0.2-0.4-0.4-0.6-0.5c-0.1-0.1-0.2-0.2-0.3-0.2c0,0,0,0,0,0l0,0
										l-0.1,0c-0.1,0-0.1,0-0.2,0c-0.5,0-1.1-0.1-1.5-0.4c-0.4-0.3-0.8-0.7-1-1.1c-0.5-0.8-0.8-1.7-1.1-2.6
										c-0.3-0.8-0.5-1.7-0.6-2.5c-0.2-0.8-0.3-1.5-0.3-2.3c0-0.7,0-1.4,0.1-2c0.2-1.2,0.6-2.1,1.1-2.6l0,0
										c0.3-0.3,0.5-0.5,0.6-0.7C232.1,391.9,232.2,391.8,232.3,391.7C232.3,391.7,232.3,391.7,232.3,391.7
										C232.3,391.7,232.3,391.8,232.3,391.7c-0.1,0.1-0.1,0.2-0.2,0.3c-0.1,0.2-0.3,0.4-0.6,0.7l0,0c-0.4,0.5-0.9,1.4-1,2.6
										c-0.1,0.6-0.1,1.2-0.1,1.9c0.1,0.7,0.2,1.4,0.3,2.2c0.2,0.8,0.4,1.6,0.7,2.4c0.3,0.8,0.6,1.7,1.1,2.5
										c0.2,0.4,0.5,0.8,0.9,1c0.4,0.3,0.9,0.4,1.4,0.4c0.1,0,0.1,0,0.2,0l0.1,0l0.1,0c0,0,0.1,0,0.1,0c0.1,0.1,0.2,0.2,0.3,0.3
										c0.2,0.2,0.4,0.4,0.6,0.5c0.4,0.4,0.7,0.7,1.1,1.1c0.1,0.1,0.2,0.2,0.3,0.3l-0.1,0c0.4-0.2,0.8-0.4,1.1-0.6l0,0.2
										c-0.8-0.9-1.6-1.8-2.4-2.7l0,0l0,0c-0.1-0.8-0.1-1.5-0.4-2.2c-0.2-0.7-0.5-1.4-0.7-2c-0.4-1.3-0.9-2.5-1.1-3.7
										c-0.2-1.1-0.2-2.2-0.3-3c-0.1-0.4-0.2-0.8-0.4-1c-0.1-0.2,0-0.4,0-0.5c0-0.2,0-0.3,0-0.4l0,0c-0.3-0.1-0.6-0.1-0.8-0.2
										C232.4,391.8,232.3,391.7,232.3,391.7z"/>
								</g>
							</g>
						</g>
					</g>
					<g>
						<g>
							<g>
								<path class="st14" d="M241.8,391.1l-1.1,0c0,0-0.3,0.8-0.5,1c-0.1,0.2-0.7,0.4-1,2.1c-0.3,1.7-1.3,8.3-0.9,9.5l0.9,1.1
									l-0.2,2.6l1.2,0.2l0.6-2.6c0,0,1-0.6,1.5-2.1c0.5-1.4,1.1-9.3,1-9.8c-0.1-1.1-1.1-1.5-1.1-1.5
									C242.2,391.8,241.8,391.1,241.8,391.1z"/>
							</g>
						</g>
						<g>
							<g>
								<g>
									<path class="st10" d="M241.8,391.1c0,0,0.1,0.1,0.2,0.2c0.1,0.1,0.1,0.2,0.2,0.3c0,0,0,0.1,0.1,0.1l0,0c0,0,0,0.1,0,0
										c0,0,0,0,0,0c0.1,0,0.1,0.1,0.2,0.1c0.3,0.2,0.7,0.6,0.8,1.1c0.1,0.3,0.1,0.6,0.1,0.9c0,0.3,0,0.6-0.1,1
										c-0.1,1.4-0.2,3-0.4,4.8c-0.1,0.9-0.2,1.9-0.4,2.9c-0.2,1-0.8,2-1.7,2.7l0-0.1c-0.2,0.8-0.4,1.7-0.6,2.6l0,0.1l-0.1,0
										c-0.2-0.1-0.5-0.1-0.8-0.2c-0.1,0-0.3-0.1-0.4-0.1l-0.1,0l0-0.1c0.1-0.9,0.1-1.8,0.2-2.6l0,0.1c-0.3-0.4-0.6-0.7-0.9-1.1
										l0,0l0,0c-0.1-0.4-0.1-0.8-0.1-1.2c0-0.4,0-0.8,0-1.1c0.1-0.7,0.1-1.4,0.2-2.1c0.2-1.4,0.3-2.6,0.5-3.7
										c0.2-1.1,0.3-2.1,0.7-2.9c0.1-0.2,0.2-0.4,0.4-0.5c0.1-0.1,0.1-0.1,0.2-0.2c0.1-0.1,0.1-0.1,0.1-0.2
										c0.2-0.3,0.3-0.6,0.4-0.8l0,0l0,0c0.4,0,0.6,0,0.9,0C241.7,391.1,241.8,391.1,241.8,391.1c0,0-0.1,0-0.3,0
										c-0.2,0-0.5,0-0.8,0l0,0c-0.1,0.2-0.2,0.5-0.3,0.8c0,0.1-0.1,0.2-0.1,0.2c-0.1,0.1-0.1,0.1-0.2,0.2
										c-0.1,0.1-0.2,0.3-0.3,0.5c-0.4,0.7-0.5,1.8-0.6,2.9c-0.2,1.1-0.3,2.4-0.5,3.7c-0.1,0.7-0.1,1.4-0.2,2.1c0,0.4,0,0.7,0,1.1
										c0,0.4,0,0.8,0.1,1.1l0,0c0.3,0.4,0.6,0.7,0.9,1.1l0,0l0,0c0,0.9-0.1,1.7-0.2,2.6l-0.1-0.1c0.1,0,0.3,0.1,0.4,0.1
										c0.3,0.1,0.5,0.1,0.8,0.2l-0.1,0.1c0.2-0.9,0.4-1.8,0.6-2.6l0,0l0,0c0.9-0.6,1.4-1.6,1.6-2.5c0.2-1,0.3-2,0.4-2.9
										c0.2-1.8,0.3-3.5,0.4-4.8c0-0.3,0-0.7,0.1-1c0-0.3,0-0.6,0-0.8c-0.1-0.5-0.5-0.8-0.8-1.1c-0.1-0.1-0.1-0.1-0.2-0.2
										c0,0,0,0-0.1-0.1c0,0,0,0,0,0c0,0,0,0,0,0c0,0,0,0,0,0l0,0c0,0,0-0.1-0.1-0.1c-0.1-0.1-0.1-0.2-0.2-0.3
										C241.9,391.2,241.8,391.1,241.8,391.1z"/>
								</g>
							</g>
						</g>
					</g>
					<g>
						<g>
							<path class="st14" d="M248.3,402.2c0,0,3.3-4.3,3.5-4.7c0.2-0.4,0.6-1.1,0.6-1.1l0.9-0.1l0.1,0.8c0,0,0.8,0.8,0.5,3
								c-0.3,2.2-3.3,5.9-4.1,7c-0.8,1.1-3.2,1.5-4,0.8c0,0-1.4-0.7-2.4,0.2c-0.9,0.9-1,0.8-1,0.8l0,0l-1-0.9l4.8-4.1L248.3,402.2z"
								/>
						</g>
					</g>
					<g>
						<g>
							<g>
								<path class="st14" d="M250.7,393.5l0.6,1.1c0,0,1.2,1.8-0.1,5.2s-3.1,5.9-4.2,6.6c-1.1,0.7-2.2,0.2-2.3,0.2
									c-0.1,0-2.8,1.7-2.8,1.7l-1-0.8l2.9-2.1c0,0,0.3-0.9,0.6-1.7c0.4-0.7,2.6-3.8,3.2-5.4c0.6-1.6,1-3.5,1.7-3.9
									c0.1-0.1,0.2-0.9,0.2-0.9L250.7,393.5z"/>
							</g>
						</g>
						<g>
							<g>
								<g>
									<path class="st10" d="M250.7,393.5c0,0-0.1,0-0.3,0c-0.2,0-0.4,0-0.8,0l0,0c0,0.1,0,0.3-0.1,0.4c0,0.2,0,0.3-0.1,0.5
										c-0.3,0.2-0.5,0.5-0.7,0.9c-0.3,0.8-0.6,1.8-1,2.8c-0.4,1.1-1.1,2.2-1.8,3.3c-0.4,0.6-0.8,1.2-1.2,1.8
										c-0.4,0.6-0.6,1.3-0.9,2.1l0,0l0,0c-0.9,0.7-1.9,1.4-2.9,2.1l0-0.2c0.3,0.3,0.6,0.5,1,0.8l-0.1,0c0.1-0.1,0.2-0.2,0.4-0.2
										c0.5-0.3,0.9-0.6,1.3-0.8c0.2-0.1,0.4-0.3,0.7-0.4c0.1-0.1,0.2-0.1,0.4-0.2c0,0,0.1,0,0.1,0l0,0l0.1,0c0.1,0,0.1,0,0.2,0
										c0.5,0.1,1,0.1,1.4,0c0.5-0.2,0.8-0.5,1.2-0.8c0.7-0.7,1.2-1.4,1.7-2.2c0.5-0.8,0.9-1.5,1.2-2.2c0.3-0.7,0.6-1.4,0.8-2.1
										c0.2-0.7,0.3-1.3,0.4-1.9c0.1-1.2-0.1-2.1-0.4-2.7l0,0c-0.2-0.4-0.3-0.6-0.4-0.8C250.8,393.7,250.7,393.6,250.7,393.5
										C250.7,393.5,250.7,393.5,250.7,393.5C250.7,393.5,250.7,393.5,250.7,393.5c0.1,0.1,0.1,0.2,0.2,0.3
										c0.1,0.2,0.3,0.5,0.5,0.8l0,0c0.4,0.6,0.6,1.6,0.5,2.8c0,0.6-0.2,1.3-0.4,1.9c-0.2,0.7-0.5,1.4-0.8,2.1
										c-0.3,0.7-0.7,1.5-1.2,2.3c-0.5,0.8-1,1.5-1.7,2.2c-0.3,0.3-0.7,0.7-1.2,0.9c-0.5,0.2-1,0.2-1.5,0.1c-0.1,0-0.1,0-0.2-0.1
										l-0.1,0l0,0c0,0,0,0,0,0c-0.1,0-0.2,0.1-0.3,0.2c-0.2,0.1-0.4,0.3-0.7,0.4c-0.4,0.3-0.9,0.6-1.3,0.8
										c-0.1,0.1-0.3,0.2-0.4,0.2l-0.1,0l-0.1,0c-0.3-0.3-0.7-0.6-1-0.8l-0.1-0.1l0.1-0.1c1-0.7,2-1.4,2.9-2.1l0,0.1
										c0.2-0.8,0.5-1.5,0.9-2.1c0.4-0.6,0.8-1.2,1.2-1.8c0.7-1.2,1.4-2.2,1.9-3.3c0.4-1.1,0.7-2,1-2.8c0.1-0.2,0.2-0.4,0.3-0.5
										c0.1-0.2,0.3-0.3,0.4-0.4c0.1-0.1,0.1-0.3,0.1-0.4c0-0.1,0-0.3,0.1-0.4l0,0l0,0c0.3,0,0.6,0,0.8,0
										C250.6,393.5,250.7,393.5,250.7,393.5z"/>
								</g>
							</g>
						</g>
					</g>
					<g>
						<g>
							<g>
								<path class="st14" d="M245.9,391.9l0.8,1c0,0,1.5,1.5,0.9,5.2c-0.6,3.7-1.9,6.4-2.8,7.3c-0.9,0.9-2.1,0.7-2.2,0.6
									s-1.9,2.4-1.9,2.4l-1.6-0.9l2.5-2.6c0,0,0.1-1,0.3-1.8c0.2-0.8,1.8-4.3,2.1-6c0.3-1.7,0.4-4,1-4.4l0.2-0.7L245.9,391.9z"/>
							</g>
						</g>
						<g>
							<g>
								<g>
									<path class="st10" d="M245.9,391.9c0,0-0.1,0-0.2,0c-0.1,0-0.3,0.1-0.6,0.1l0,0c-0.1,0.2-0.1,0.4-0.2,0.7l0,0l0,0
										c-0.2,0.2-0.3,0.5-0.4,0.8c-0.1,0.3-0.2,0.7-0.2,1.1c-0.1,0.8-0.2,1.8-0.4,2.9c-0.3,1.1-0.7,2.2-1.1,3.4
										c-0.2,0.6-0.5,1.2-0.7,1.9c-0.2,0.6-0.3,1.3-0.4,2.1l0,0l0,0c-0.8,0.8-1.6,1.7-2.5,2.6l0-0.2c0.5,0.3,1.1,0.6,1.6,0.9
										l-0.1,0c0,0,0.1-0.1,0.1-0.1c0.3-0.4,0.6-0.9,0.9-1.3c0.2-0.2,0.3-0.4,0.5-0.6c0.1-0.1,0.2-0.2,0.3-0.3c0,0,0,0,0.1-0.1
										c0,0,0,0,0.1,0c0,0,0,0,0.1,0l0.2,0c0.5,0,1-0.1,1.4-0.3c0.4-0.2,0.7-0.6,1-1c0.5-0.8,0.9-1.7,1.2-2.5
										c0.3-0.8,0.5-1.7,0.7-2.4c0.2-0.8,0.3-1.5,0.4-2.2c0.1-0.7,0.1-1.4,0-2c-0.1-1.2-0.5-2.1-1-2.6l0,0
										c-0.2-0.3-0.4-0.6-0.6-0.7C246,392.1,246,392,245.9,391.9C245.9,391.9,245.9,391.9,245.9,391.9
										C245.9,391.9,245.9,391.9,245.9,391.9c0.1,0.1,0.1,0.2,0.2,0.2c0.1,0.2,0.3,0.4,0.6,0.7l0,0c0.5,0.5,0.9,1.4,1,2.6
										c0.1,0.6,0.1,1.3,0,2c-0.1,0.7-0.2,1.5-0.4,2.3c-0.2,0.8-0.4,1.6-0.7,2.5c-0.3,0.8-0.7,1.7-1.2,2.5
										c-0.3,0.4-0.6,0.8-1.1,1.1c-0.5,0.3-1,0.3-1.5,0.3l-0.2,0l0,0l0,0l0,0c0,0.1,0-0.1,0-0.1c0,0,0,0,0,0c0,0,0,0,0,0l0,0
										c0,0,0,0-0.1,0.1c-0.1,0.1-0.2,0.2-0.2,0.3c-0.2,0.2-0.3,0.4-0.5,0.6c-0.3,0.4-0.6,0.9-0.9,1.3c0,0.1-0.1,0.1-0.1,0.1
										l-0.1,0.1l-0.1,0c-0.6-0.3-1.1-0.6-1.6-0.9l-0.1-0.1l0.1-0.1c0.8-0.9,1.7-1.8,2.5-2.6l0,0.1c0.1-0.7,0.2-1.4,0.4-2.1
										c0.2-0.7,0.5-1.3,0.7-1.9c0.5-1.2,0.9-2.3,1.2-3.4c0.2-1.1,0.3-2,0.5-2.9c0.1-0.4,0.1-0.8,0.2-1.1c0.1-0.3,0.2-0.6,0.5-0.8
										l0,0c0.1-0.3,0.2-0.5,0.2-0.7l0,0l0,0c0.2,0,0.4-0.1,0.6-0.1C245.8,391.9,245.9,391.9,245.9,391.9z"/>
								</g>
							</g>
						</g>
					</g>
					<g>
						<g>
							<g>
								<path class="st14" d="M237.3,391.3l-1,0.8c0,0-1.8,1.1-2.1,4.8c-0.3,3.7,0.4,6.7,1.1,7.7s1.9,1.1,2,1.1
									c0.2,0,1.3,2.8,1.3,2.8l1.8-0.5l-1.8-3.1c0,0,0.1-1,0.1-1.8s-0.8-4.6-0.7-6.3c0.1-1.7,0.5-3.9,0-4.6l-0.1-0.7L237.3,391.3z"
									/>
							</g>
						</g>
						<g>
							<g>
								<g>
									<path class="st10" d="M237.3,391.3c0,0,0.1,0,0.2,0.1c0.1,0.1,0.3,0.1,0.5,0.2l0,0l0,0c0,0.2,0,0.5,0.1,0.7l0,0
										c0.2,0.2,0.2,0.6,0.3,0.9c0,0.4,0,0.7,0,1.2c0,0.8-0.2,1.8-0.2,2.9c0,1.1,0.2,2.3,0.4,3.5c0.1,0.6,0.2,1.3,0.3,2
										c0.1,0.7,0,1.4-0.1,2.1l0-0.1c0.6,1,1.2,2,1.8,3.1l0.1,0.1l-0.1,0c-0.6,0.2-1.2,0.3-1.8,0.5l-0.1,0l0-0.1
										c0-0.1,0-0.1-0.1-0.2c-0.2-0.5-0.4-1-0.6-1.5c-0.1-0.2-0.2-0.5-0.3-0.7c-0.1-0.1-0.1-0.2-0.2-0.3c0,0,0-0.1,0-0.1
										c0,0,0,0,0,0c0,0,0,0,0,0l-0.2,0c-0.5-0.1-1-0.3-1.4-0.6c-0.4-0.3-0.6-0.8-0.8-1.3c-0.3-0.9-0.5-1.9-0.6-2.7
										c-0.1-0.9-0.1-1.8-0.1-2.6c0-0.8,0-1.6,0.1-2.3c0.1-0.7,0.3-1.4,0.5-1.9c0.4-1.1,1-1.9,1.6-2.3l0,0
										c0.3-0.2,0.6-0.4,0.8-0.6C237.1,391.4,237.2,391.3,237.3,391.3C237.3,391.3,237.3,391.3,237.3,391.3
										C237.3,391.3,237.3,391.3,237.3,391.3c-0.1,0.1-0.2,0.1-0.2,0.2c-0.2,0.1-0.4,0.3-0.7,0.6l0,0c-0.5,0.4-1.1,1.2-1.5,2.3
										c-0.2,0.6-0.3,1.2-0.4,1.9c-0.1,0.7-0.1,1.5-0.1,2.3c0,0.8,0,1.7,0.2,2.5c0.1,0.9,0.3,1.8,0.6,2.7c0.2,0.4,0.4,0.9,0.8,1.2
										c0.4,0.3,0.8,0.5,1.3,0.6l0.2,0c0,0,0,0,0.1,0c0.1,0,0.1,0.1,0.1,0.1c0,0,0,0.1,0.1,0.1c0.1,0.1,0.1,0.2,0.2,0.4
										c0.1,0.2,0.2,0.5,0.3,0.7c0.2,0.5,0.4,1,0.6,1.5c0,0.1,0,0.1,0.1,0.2l-0.1-0.1c0.6-0.2,1.2-0.3,1.8-0.5l-0.1,0.1
										c-0.6-1.1-1.2-2.1-1.8-3.1l0,0l0,0c0.1-0.7,0.2-1.4,0.1-2.1c-0.1-0.7-0.2-1.3-0.3-2c-0.2-1.3-0.3-2.5-0.4-3.6
										c0-1.1,0.2-2.1,0.2-2.9c0-0.4,0.1-0.8,0-1.1c0-0.3-0.1-0.7-0.2-0.9l0,0l0,0c0-0.3,0-0.5,0-0.7l0,0
										c-0.2-0.1-0.4-0.2-0.5-0.2C237.3,391.3,237.3,391.3,237.3,391.3z"/>
								</g>
							</g>
						</g>
					</g>
					<g>
						<g>
							<path class="st14" d="M237.3,407.5l-1.4,0.8c0,0,1.6,1.7,1.5,2.2l4.5,0.7l1.8-4.1L237.3,407.5z"/>
						</g>
					</g>
					<g>
						<g>
							<polygon class="st10" points="231.8,392.3 233.3,392.8 233.3,391.9 232.3,391.7 							"/>
						</g>
					</g>
					<g>
						<g>
							<polygon class="st10" points="238,392.3 236.7,391.7 237.3,391.3 238,391.6 							"/>
						</g>
					</g>
					<g>
						<g>
							<polygon class="st10" points="240.3,391.9 240.7,391.1 241.8,391.1 242.2,391.8 							"/>
						</g>
					</g>
					<g>
						<g>
							<polygon class="st10" points="244.9,392.7 246.4,392.5 245.9,391.9 245.1,392.1 							"/>
						</g>
					</g>
					<g>
						<g>
							<polyline class="st10" points="249.5,394.1 249.5,394.1 251,394.1 250.7,393.5 249.6,393.5 							"/>
						</g>
					</g>
					<g>
						<g>
							<polygon class="st10" points="252.3,396.8 253.4,397.2 253.4,396.4 252.5,396.4 							"/>
						</g>
					</g>
					<g>
						<g>
							<path class="st10" d="M226.6,395.6l0.2-0.7l0.9,0.2c0,0,0.3,0.8,0.3,0.8C227.9,395.7,226.6,395.6,226.6,395.6z"/>
						</g>
					</g>
					<g>
						<g>
							<g>
								<path class="st10" d="M237.7,404.1c0,0-0.1-0.2-0.1-0.4c-0.1-0.3-0.2-0.7-0.2-1.2c-0.2-1-0.3-2.5-0.4-4.1
									c0-1.6,0.1-3,0.2-4.1c0.1-0.5,0.1-0.9,0.2-1.2c0.1-0.3,0.1-0.4,0.1-0.4c0,0,0,0.2,0,0.5c0,0.3-0.1,0.7-0.1,1.2
									c-0.1,1-0.2,2.5-0.2,4c0,1.6,0.2,3,0.3,4c0.1,0.5,0.1,0.9,0.2,1.2C237.7,404,237.7,404.1,237.7,404.1z"/>
							</g>
						</g>
					</g>
					<g>
						<g>
							<g>
								<path class="st10" d="M245.7,393.8c0,0,0,0.2,0,0.4c0,0.3,0,0.7-0.1,1.1c-0.1,1-0.4,2.3-0.8,3.7c-0.4,1.4-1,2.7-1.4,3.5
									c-0.2,0.4-0.4,0.8-0.6,1c-0.1,0.2-0.2,0.4-0.2,0.4c0,0,0.3-0.5,0.7-1.4c0.4-0.9,0.9-2.1,1.4-3.5c0.4-1.4,0.7-2.7,0.9-3.7
									C245.6,394.3,245.7,393.7,245.7,393.8z"/>
							</g>
						</g>
					</g>
					<g>
						<g>
							<g>
								<path class="st10" d="M229.7,403.1c0,0-0.2-0.3-0.5-0.9c-0.3-0.6-0.6-1.3-0.9-2.2c-0.3-0.9-0.5-1.7-0.7-2.3
									c-0.1-0.6-0.2-1-0.2-1c0,0,0.1,0.4,0.3,0.9c0.2,0.6,0.4,1.4,0.7,2.3c0.3,0.9,0.6,1.7,0.9,2.2
									C229.5,402.7,229.7,403.1,229.7,403.1z"/>
							</g>
						</g>
					</g>
				</g>
			</g>
		</g>
		<g>
			<g>
				<g>
					<path class="st13" d="M194.8,292c0,0-8,10.6-4.5,25.5l5.7,3.1l-5.3-0.9c0,0,1.8,7.8,2.7,10.1l8.6,0.8l-7.9,0.4
						c0,0,6,12.8,10.1,20.5c4.1,7.7,13.9,14.9,13.9,14.9l-0.5,12.3l5.3,1.6l-2.1-15c0,0,2.5-3.6,3.3-10.3c0.9-6.7-0.2-6.7-0.2-6.7
						s0.3-7.2-4.2-17.3l-4.9,4.1l3.6-7.7l-7.6-15.1l-2.7,4.3l1.6-6.1l-4.8-7.5l-2.6,4.7l1.6-6C204.1,301.7,198.4,290,194.8,292z"/>
				</g>
			</g>
			<g>
				<g>
					<g>
						<path class="st13" d="M221.2,366.7c0,0-4-14.5-9.6-27.5c-2.9-6.6-10.1-21.4-12.7-29.7c-2-6.3-3.1-16.1-3.1-16.1
							s1.2,12.5,2.4,17.2c1.3,5.3,13.3,32.5,15.3,37.8c2,5.3,4.3,12.3,4.8,18.8"/>
					</g>
				</g>
				<g>
					<g>
						<g>
							<path class="st10" d="M218.2,367.2c0,0,0-0.1-0.1-0.4c0-0.3-0.1-0.7-0.1-1.2c-0.1-1-0.4-2.5-0.8-4.5
								c-0.8-3.8-2.4-9.3-5.2-15.8c-2.7-6.5-6-14.2-9.5-22.8c-0.9-2.2-1.8-4.4-2.7-6.6c-0.4-1.1-0.9-2.3-1.3-3.5
								c-0.2-0.6-0.4-1.2-0.6-1.8c-0.2-0.6-0.3-1.2-0.4-1.8c-0.5-2.5-0.8-5-1.2-7.6c-0.3-2.6-0.6-5.2-0.9-7.9l0.2,0c0,0,0,0.1,0,0.1
								c0.3,2.7,0.8,5.3,1.2,7.9c0.5,2.6,1,5.1,1.7,7.5c0.7,2.4,1.6,4.7,2.5,7c0.9,2.3,1.8,4.5,2.8,6.6c3.7,8.5,7.5,16,10,22.6
								c2.5,6.6,4.3,12,5.4,15.8c0.6,1.9,1,3.4,1.3,4.3c0.1,0.5,0.2,0.9,0.3,1.1c0.1,0.3,0.1,0.4,0.1,0.4s0-0.1-0.1-0.4
								c-0.1-0.3-0.2-0.6-0.3-1.1c-0.3-1-0.7-2.5-1.3-4.3c-1.2-3.8-2.9-9.2-5.5-15.7c-2.5-6.6-6.3-14.1-10-22.6
								c-0.9-2.1-1.9-4.3-2.8-6.6c-0.9-2.3-1.8-4.6-2.5-7c-0.7-2.4-1.2-5-1.7-7.5c-0.5-2.6-0.9-5.2-1.2-7.9c0,0,0-0.1,0-0.1l0.2,0
								c0.3,2.7,0.6,5.3,0.9,7.9c0.3,2.6,0.7,5.1,1.1,7.6c0.1,0.6,0.2,1.2,0.4,1.8c0.2,0.6,0.3,1.2,0.6,1.8c0.4,1.2,0.8,2.3,1.3,3.5
								c0.9,2.3,1.8,4.5,2.6,6.6c3.5,8.6,6.8,16.3,9.5,22.8c2.7,6.5,4.3,12,5.1,15.8c0.4,1.9,0.6,3.4,0.7,4.5
								C218.2,366.7,218.2,367.2,218.2,367.2z"/>
						</g>
					</g>
				</g>
			</g>
			<g>
				<g>
					<g>
						<path class="st10" d="M219,336.3c0,0-1.1,1.8-2.6,4c-1.5,2.2-2.7,3.9-2.7,3.9c0,0,1.1-1.8,2.6-4
							C217.7,338,219,336.2,219,336.3z"/>
					</g>
				</g>
			</g>
			<g>
				<g>
					<g>
						<path class="st10" d="M219.6,338.7c0,0-0.3,0.4-0.8,1c-0.5,0.6-1.2,1.4-1.9,2.2c-0.8,0.9-1.4,1.7-1.9,2.3
							c-0.5,0.6-0.8,1-0.8,0.9c0,0,0.2-0.4,0.7-1c0.5-0.6,1.1-1.4,1.9-2.3c0.8-0.9,1.5-1.7,2-2.2C219.2,339,219.5,338.7,219.6,338.7
							z"/>
					</g>
				</g>
			</g>
			<g>
				<g>
					<g>
						<path class="st10" d="M214,325.7c0.1,0-0.9,2.1-2.2,4.7c-1.3,2.5-2.3,4.6-2.4,4.6c-0.1,0,0.9-2.1,2.2-4.7
							C212.9,327.7,214,325.6,214,325.7z"/>
					</g>
				</g>
			</g>
			<g>
				<g>
					<g>
						<path class="st10" d="M212.8,325.1c0,0-0.2,0.4-0.6,1.1c-0.4,0.7-0.9,1.7-1.4,2.7c-0.5,1.1-1,2.1-1.3,2.8
							c-0.3,0.7-0.5,1.2-0.6,1.2c0,0,0.1-0.5,0.4-1.2c0.3-0.7,0.7-1.7,1.3-2.8c0.5-1.1,1.1-2,1.5-2.7
							C212.5,325.5,212.8,325.1,212.8,325.1z"/>
					</g>
				</g>
			</g>
			<g>
				<g>
					<g>
						<path class="st10" d="M210.8,321.5c0,0-0.2,0.4-0.5,1.1c-0.4,0.7-0.8,1.6-1.3,2.5c-0.5,1-0.9,1.8-1.3,2.6
							c-0.3,0.7-0.5,1.1-0.6,1c0,0,0.1-0.4,0.4-1.1c0.3-0.7,0.7-1.6,1.2-2.6c0.5-1,1-1.9,1.4-2.5
							C210.5,321.9,210.7,321.5,210.8,321.5z"/>
					</g>
				</g>
			</g>
			<g>
				<g>
					<g>
						<path class="st10" d="M207.7,310.6c0.1,0-0.7,2.9-1.6,6.5c-0.9,3.6-1.7,6.4-1.8,6.4c-0.1,0,0.7-2.9,1.6-6.5
							C206.9,313.4,207.7,310.5,207.7,310.6z"/>
					</g>
				</g>
			</g>
			<g>
				<g>
					<g>
						<path class="st10" d="M205.6,310.1c0,0,0,0.2-0.1,0.5c-0.1,0.3-0.2,0.8-0.3,1.3c-0.2,1.1-0.6,2.6-0.8,4.2
							c-0.2,1.7-0.4,3.2-0.4,4.3c0,0.5-0.1,1-0.1,1.3c0,0.3,0,0.5,0,0.5c0,0,0-0.2,0-0.5c0-0.3,0-0.8,0-1.3c0-1.1,0.1-2.6,0.4-4.3
							c0.2-1.7,0.6-3.2,0.9-4.2c0.1-0.5,0.3-1,0.4-1.3C205.5,310.3,205.6,310.1,205.6,310.1z"/>
					</g>
				</g>
			</g>
			<g>
				<g>
					<g>
						<path class="st10" d="M201.6,300.8c0,0-0.2,0.5-0.5,1.3c-0.3,0.8-0.7,1.9-1.1,3.2c-0.3,1.3-0.6,2.5-0.7,3.3
							c-0.1,0.9-0.2,1.4-0.2,1.4c0,0,0-0.1,0-0.4c0-0.2,0-0.6,0.1-1c0.1-0.9,0.3-2.1,0.7-3.4c0.4-1.3,0.8-2.4,1.1-3.2
							c0.2-0.4,0.3-0.7,0.4-0.9C201.5,300.9,201.6,300.8,201.6,300.8z"/>
					</g>
				</g>
			</g>
			<g>
				<g>
					<g>
						<path class="st10" d="M195.8,324.4c0-0.1,2.1,0.8,4.6,1.9c2.5,1.1,4.5,2,4.5,2.1c0,0.1-2.1-0.8-4.6-1.9
							C197.8,325.4,195.8,324.5,195.8,324.4z"/>
					</g>
				</g>
			</g>
			<g>
				<g>
					<g>
						<path class="st10" d="M198.2,323.6c0-0.1,1.4,0.6,3.1,1.4c1.7,0.8,3.1,1.5,3,1.6c0,0.1-1.4-0.6-3.1-1.4
							C199.5,324.3,198.2,323.6,198.2,323.6z"/>
					</g>
				</g>
			</g>
			<g>
				<g>
					<g>
						<path class="st10" d="M211,343.1c0,0-0.4-0.1-1-0.2c-0.6-0.1-1.5-0.3-2.4-0.5c-0.9-0.2-1.8-0.3-2.4-0.4c-0.6-0.1-1-0.1-1-0.2
							c0,0,0.4,0,1,0c0.6,0.1,1.5,0.2,2.5,0.3c1,0.2,1.8,0.4,2.4,0.5C210.6,342.9,211,343,211,343.1z"/>
					</g>
				</g>
			</g>
			<g>
				<g>
					<g>
						<path class="st10" d="M201.7,339.3c0-0.1,2,0.3,4.4,0.9c2.4,0.5,4.4,1,4.4,1.1c0,0.1-2-0.3-4.4-0.9
							C203.7,339.9,201.7,339.4,201.7,339.3z"/>
					</g>
				</g>
			</g>
			<g>
				<g>
					<g>
						<path class="st10" d="M204.6,338.1c0-0.1,1.1,0.2,2.5,0.5c1.4,0.3,2.5,0.6,2.4,0.7c0,0.1-1.1-0.2-2.5-0.5
							C205.7,338.4,204.6,338.1,204.6,338.1z"/>
					</g>
				</g>
			</g>
			<g>
				<g>
					<g>
						<path class="st10" d="M215.8,355.4c0,0-0.1,0-0.4-0.1c-0.2-0.1-0.6-0.2-1-0.3c-0.8-0.3-1.9-0.7-3.1-1.3
							c-1.2-0.5-2.3-1-3.1-1.4c-0.8-0.4-1.3-0.6-1.2-0.6c0,0,0.5,0.2,1.3,0.5c0.8,0.4,1.9,0.8,3.1,1.3c1.2,0.5,2.3,1,3.1,1.3
							C215.3,355.2,215.8,355.4,215.8,355.4z"/>
					</g>
				</g>
			</g>
			<g>
				<g>
					<g>
						<path class="st10" d="M218.2,342.7c0,0-0.7,1.1-1.6,2.4c-0.9,1.3-1.7,2.3-1.8,2.3c0,0,0.7-1.1,1.6-2.4
							C217.4,343.7,218.2,342.7,218.2,342.7z"/>
					</g>
				</g>
			</g>
			<g class="st15">
				<g>
					<path d="M200,316.1c0,0,2.6,8,5.5,15.5c2.9,7.5,5.4,13.3,5.4,13.3l-4.9-0.6l5.9,2.9l4.6,10.9c0,0-1.3-5.4-4-11.7
						c-1.1-2.6-2.3-5.2-2.8-6.6C208.1,335,200,316.1,200,316.1z"/>
				</g>
			</g>
			<g class="st15">
				<g>
					<path d="M203,320.1l4.8,9.8l1.4-3.1l-0.9,4c0,0,2.5,5.1,3.5,9.1L203,320.1z"/>
				</g>
			</g>
			<g>
				<g>
					<g>
						<path class="st10" d="M218.7,381.9c0,0,0-0.1-0.1-0.4c-0.1-0.3-0.1-0.7-0.2-1.2c-0.1-1-0.3-2.3-0.4-3.8
							c-0.1-1.5-0.1-2.9-0.1-3.9c0-0.5,0-0.9,0.1-1.2c0-0.3,0-0.4,0.1-0.4c0,0,0,0.2,0,0.4c0,0.3,0,0.7,0,1.2c0,1,0,2.3,0.1,3.8
							c0.1,1.5,0.2,2.9,0.3,3.8c0,0.5,0.1,0.8,0.1,1.2C218.7,381.8,218.7,381.9,218.7,381.9z"/>
					</g>
				</g>
			</g>
			<g class="st15">
				<g>
					<g>
						<path d="M218.1,371.6c-0.5,1.2-0.6,2.7-0.5,4c0.1,1.3,0.4,2.6,0.7,3.9l0.1,0c-0.2-1.8-0.3-3.7-0.4-5.6
							C218,373.2,218,372.3,218.1,371.6z"/>
					</g>
				</g>
			</g>
		</g>
		<g>
			<g>
				<g>
					<path class="st10" d="M221.6,371.3c-0.1,0-0.1-1.1-0.2-2.5c-0.1-1.4-0.3-2.4-0.2-2.5c0.1,0,0.3,1.1,0.4,2.4
						C221.7,370.2,221.6,371.3,221.6,371.3z"/>
				</g>
			</g>
		</g>
		<g>
			<g>
				<g>
					<path class="st10" d="M221.8,390.2c0,0-0.3-0.5-0.7-1.2c-0.4-0.7-1-1.8-1.7-2.8c-0.7-1.1-1.4-2-1.9-2.6
						c-0.5-0.7-0.9-1.1-0.8-1.1c0,0,0.1,0.1,0.3,0.2c0.2,0.2,0.4,0.4,0.7,0.7c0.6,0.6,1.3,1.5,2,2.6c0.7,1.1,1.3,2.1,1.6,2.9
						c0.2,0.4,0.3,0.7,0.4,0.9C221.7,390.1,221.8,390.2,221.8,390.2z"/>
				</g>
			</g>
		</g>
		<g>
			<g>
				<g>
					<path class="st10" d="M219.2,385.9c0,0,0-0.2,0.1-0.6c0.1-0.4,0.2-0.9,0.3-1.6c0.3-1.4,0.9-3.2,1.7-5.2c0.9-2,1.8-3.6,2.6-4.8
						c0.4-0.6,0.7-1.1,0.9-1.4c0.2-0.3,0.4-0.5,0.4-0.5s-0.1,0.2-0.3,0.5c-0.2,0.3-0.5,0.8-0.9,1.4c-0.7,1.2-1.7,2.9-2.5,4.8
						c-0.9,2-1.4,3.8-1.8,5.1c-0.2,0.7-0.3,1.2-0.4,1.6C219.2,385.7,219.2,385.9,219.2,385.9z"/>
				</g>
			</g>
		</g>
		<g class="st15">
			<g>
				<g>
					<path d="M220,431.8c-1.1,2.6-1.6,5.4-2.2,8.1l0.7-1.5c2-4.6,4.1-8.8,6.5-12.9C222.7,427,221,429.2,220,431.8z"/>
				</g>
			</g>
		</g>
		<g class="st15">
			<g>
				<g>
					<path d="M218.4,402.7c1.1-4.8,2.4-9.7,4-14.3l0.4-0.8C219.8,391.9,218.3,397.4,218.4,402.7z"/>
				</g>
			</g>
		</g>
	</g>
	<g>
		<g>
			<path class="st13" d="M241.3,440.8c0.2-0.5,0.4-1,0.6-1.6c-2.5,0.2-4.8,1.7-6.4,3.6s-2.7,4.3-3.7,6.5c-2.9,6.4-6.3,12.6-6.2,19.6
				h3.2c-1.3-7.9-0.2-11.7,5-17.9c5.2-6.2,13.2-9.9,21.2-9.9C251,438.6,245.5,438.4,241.3,440.8z"/>
		</g>
	</g>
	<g>
		<g>
			<path class="st13" d="M212.1,457.6c-1-2.3-2.1-4.6-3.7-6.5c-1.6-1.9-3.9-3.4-6.4-3.6c0.2,0.5,0.4,1,0.6,1.6
				c-4.2-2.3-9.6-2.1-13.7,0.4c8.1,0,16,3.7,21.2,9.9c3,3.6,4.7,6.4,5.3,9.7l1.6,0C215.7,465.1,213.8,461.4,212.1,457.6z"/>
		</g>
	</g>
</g>
</svg>
