<?xml version="1.0" encoding="utf-8"?>
<!-- Generator: Adobe Illustrator 24.0.2, SVG Export Plug-In . SVG Version: 6.00 Build 0)  -->
<svg version="1.1" id="Layer_1" xmlns="http://www.w3.org/2000/svg" xmlns:xlink="http://www.w3.org/1999/xlink" x="0px" y="0px"
	 viewBox="0 0 1500 1500" style="enable-background:new 0 0 1500 1500;" xml:space="preserve">
<style type="text/css">
	.st0{clip-path:url(#SVGID_2_);fill:#BFBFBF;}
	.st1{clip-path:url(#SVGID_2_);}
	.st2{fill:#AD214D;}
	.st3{fill:#CC366C;}
	.st4{fill:#EA508B;}
	.st5{clip-path:url(#SVGID_2_);fill:#F7CDCD;}
	.st6{fill:#745020;}
	.st7{opacity:0.1;clip-path:url(#SVGID_2_);}
	.st8{opacity:0.5;clip-path:url(#SVGID_2_);}
	.st9{clip-path:url(#SVGID_2_);fill:url(#SVGID_3_);}
	.st10{clip-path:url(#SVGID_2_);fill:url(#SVGID_4_);}
	.st11{clip-path:url(#SVGID_6_);}
	.st12{fill:url(#SVGID_7_);}
	.st13{opacity:0.2;}
	.st14{fill:#3D1328;}
	.st15{fill:#FFFFFF;}
	.st16{fill:url(#SVGID_8_);}
	.st17{opacity:0.5;clip-path:url(#SVGID_2_);fill:#FFFFFF;}
	.st18{fill:#FFED9F;}
	.st19{fill:#DBA1A1;}
	.st20{fill:#CE8686;}
	.st21{fill:#E8AA1F;}
	.st22{fill:#EDB9B9;}
	.st23{fill:#7A0138;}
	.st24{fill:#F967A6;}
	.st25{opacity:0.3;fill:#281804;}
	.st26{clip-path:url(#SVGID_2_);fill:url(#SVGID_9_);}
	.st27{clip-path:url(#SVGID_2_);fill:url(#SVGID_10_);}
	.st28{opacity:0.15;clip-path:url(#SVGID_2_);}
	.st29{fill:#281212;}
</style>
<g>
	<defs>
		<path id="SVGID_1_" d="M1312.4,1308.4c-53.2,53.2-163.6,99.3-238.9,99.3c-155.2,0-374-63.6-544.8-30.4
			c-92.5,18-319.5,39.1-386.2-27.5c-92.3-92.3-19.5-331.2-19.5-461.7c0-174.5-18.5-216.3-22.5-339.1
			c-3.4-103.1-8.6-248.5,64.3-321.5c75.7-75.7,160.7-111.6,310.3-102.7C648,135.1,764.3,38.6,982,102.4
			c167.4,49.1,267.6,26.5,337.1,96c72.2,72.2,50.1,232.9,46.9,334.9c-4.5,140.7,40.2,265.6,40.2,363.9
			C1406.2,1021.5,1400.3,1220.5,1312.4,1308.4z"/>
	</defs>
	<clipPath id="SVGID_2_">
		<use xlink:href="#SVGID_1_"  style="overflow:visible;"/>
	</clipPath>
	<path class="st0" d="M1312.4,1308.4c-53.2,53.2-163.6,99.3-238.9,99.3c-155.2,0-374-63.6-544.8-30.4
		c-92.5,18-319.5,39.1-386.2-27.5c-92.3-92.3-19.5-331.2-19.5-461.7c0-174.5-18.5-216.3-22.5-339.1c-3.4-103.1-8.6-248.5,64.3-321.5
		c75.7-75.7,160.7-111.6,310.3-102.7C648,135.1,764.3,38.6,982,102.4c167.4,49.1,267.6,26.5,337.1,96
		c72.2,72.2,50.1,232.9,46.9,334.9c-4.5,140.7,40.2,265.6,40.2,363.9C1406.2,1021.5,1400.3,1220.5,1312.4,1308.4z"/>
	<g class="st1">
		<path class="st2" d="M1050.8,463.2c24,30.6,4,46.6-19,51.7c-23,5.1-62,28.5-29.3,38.4c32.7,10,35.9-8.6,14.8-19.2
			c21.9-2.5,36.3,11.5,33,39.9c-3.4,28.5-46.4,45.3-68,18.6c11.9,35.9-43.8,48-51.3,24.9c24.3,5.9,34.3-32.8-2.3-33.9
			c-36.7-1.1-49.4-31.4-22.5-47.2c26.9-15.9,34.4-37.8,13.4-53.5c-20.9-15.7-3.2-66.2,21.8-90.2c-1.6,11.1,1.6,37.6,14.4,48.1
			c-5.2-18.6,14.5-31.4,14.5-31.4C984.8,450.5,1018.4,433.8,1050.8,463.2z"/>
		<path class="st3" d="M918.9,529.4c30.8-12.8,42.6-32.3,13.1-46.2c-29.5-13.9-15.7-68.6,8.6-75.9c0,0-21.4,24.4,24.4,63.1
			c18.1,15.2,20.7,31.9,14.5,35.9c65.3-24.2-38.9-39.7-7.8-80.8c10.7,28.7,50,24.2,73.1,36.3c23.1,12.1,21.3,43.4-14.8,46.9
			c-36.1,3.5-81.8,27.6-53.4,45.5c33.1,20.9,77.7,16.6,69.8-6.3c22.2,22.2-13.3,60.8-58.2,41c7.3,12.2-2.8,27.6-22.6,30.3
			c15.9-20.9-11-43.8-25.7-47.3C893.9,561.1,890.2,541.3,918.9,529.4z"/>
		<path class="st4" d="M1020.2,459.5c32.5,0.7,58.6,44.7,6,50C1040.9,497.2,1034.6,465.1,1020.2,459.5z"/>
		<path class="st4" d="M1043.2,564.3c-9.4,15.2-54.5-1-54.5-1C1009.4,595.8,1033.7,599,1043.2,564.3z"/>
		<path class="st4" d="M942.5,550.2c44.1,0,60.9,43.7,37.8,55.7C981.8,582.2,942.5,550.2,942.5,550.2z"/>
		<path class="st4" d="M945.6,459.8c35.1,15.4,67.9,46.4,7,72.1C938.3,536,983.9,496.2,945.6,459.8z"/>
		<path class="st2" d="M901.1,487.6c-0.8,6.8,13.5,9.7,13.8,25.8c0.4,16.1-14.9,19.6-25.8,36.8c-10.9,17.2-8.2,33.3,9.2,34.7
			c-23.5,9.3-43.9-24.3-25.3-41.1c18.6-16.8,35.5-29,25.3-38.3C888.1,496.2,898.3,489,901.1,487.6z"/>
		<path class="st2" d="M875.2,530c-36.5,25.8-20.2,62.1,3,72.1c23.2,10,31.1-17.5,20.8-15.6c0.9,10.2-26,9-33.2-17.4
			C858.7,542.7,872,531.6,875.2,530z"/>
	</g>
	<path class="st5" d="M988.3,1399.2c-25.4-125.5-84.1-310.7-102-538.9c-32.1-407.9,124.1-576.3,41.4-651.5
		c-108.3-98.6-353.8,101.3-396.5,452.4c-38.9,320,7,591.1,38.8,738.3L988.3,1399.2z"/>
	<g class="st1">
		<path class="st6" d="M886,860.3c-1.6-18.4-2.9-36.8-3.8-55.3c-0.8-18.5-1.4-36.9-1.5-55.4c-0.1-18.5,0.2-37,0.9-55.4
			c0.7-18.5,1.7-36.9,3.3-55.4c3.1-36.8,7.8-73.6,14-110c6.2-36.5,14-72.6,22.7-108.5c4.3-18,8.9-35.9,13.3-53.8
			c4.4-17.9,8.6-35.9,11.9-54c1.6-9.1,2.9-18.2,3.7-27.3c0.8-9.2,0.9-18.4,0-27.5c-0.5-4.6-1.2-9.1-2.4-13.5c-0.5-2.2-1.3-4.4-2-6.6
			c-0.4-1.1-0.8-2.1-1.3-3.2l-0.6-1.6l-0.7-1.5c-1.9-4.2-4.3-8-7-11.7l-2.1-2.7c-0.7-0.9-1.5-1.7-2.3-2.6L931,213
			c-0.4-0.4-0.8-0.8-1.2-1.2l-2.5-2.4c-6.7-6.2-14.4-11.5-22.6-15.5c-8.2-4-17.1-6.8-26.2-8.2c-9.1-1.5-18.3-1.7-27.4-0.9
			c-9.2,0.8-18.2,2.5-27.1,5c-8.8,2.5-17.5,5.7-25.9,9.5c-8.4,3.8-16.5,8.2-24.4,12.9c-7.9,4.8-15.5,9.9-22.9,15.4
			c-7.4,5.5-14.6,11.3-21.5,17.3c-13.9,12.1-26.8,25.2-39,39c-12.1,13.8-23.5,28.3-34.2,43.3c-10.7,15-20.5,30.6-29.8,46.5
			c-9.2,16-17.7,32.3-25.6,48.9C585,456,572,490.6,561.4,525.9c-10.6,35.3-18.6,71.3-24.3,107.7c-0.7,4.6-1.4,9.1-2,13.7l-1.8,13.7
			l-3.2,27.5l-2.8,27.5l-2.5,27.6c-3.1,36.8-5.2,73.6-6.3,110.5c-2.3,73.8-0.7,147.7,4.1,221.4l-0.4,0
			c-6.1-73.6-8.5-147.6-6.8-221.5c0.9-36.9,2.7-73.9,5.5-110.7c0.8-9.2,1.5-18.4,2.3-27.6L526,688l3.1-27.6l1.8-13.8
			c0.6-4.6,1.3-9.2,2-13.7c2.8-18.3,6.3-36.5,10.4-54.6c4-18.1,8.7-36,14.1-53.7c10.7-35.4,24-70.1,39.9-103.6
			c15.9-33.4,34.6-65.6,56.2-95.7c10.8-15,22.4-29.5,34.7-43.3c12.4-13.8,25.6-26.8,39.6-38.9c7-6,14.3-11.8,21.8-17.2
			c7.5-5.4,15.2-10.5,23.2-15.3c8-4.7,16.2-9,24.7-12.7c8.4-3.8,17.2-7,26.1-9.5c8.9-2.5,18.1-4.2,27.3-5c9.2-0.8,18.6-0.5,27.8,1
			c9.2,1.5,18.1,4.3,26.5,8.3c8.4,4,16.1,9.3,23,15.6l2.5,2.4c0.4,0.4,0.8,0.8,1.2,1.2l1.2,1.3c0.8,0.9,1.6,1.7,2.3,2.6l2.2,2.8
			c2.8,3.7,5.3,7.7,7.2,12l0.8,1.6l0.7,1.6c0.4,1.1,0.9,2.2,1.3,3.3c0.7,2.2,1.5,4.4,2.1,6.7c1.2,4.5,2,9.1,2.5,13.7
			c1,9.2,1,18.6,0.3,27.8c-0.7,9.2-1.9,18.4-3.5,27.6c-3.1,18.3-7.2,36.3-11.4,54.3l-12.8,53.9c-4.2,18-8.3,36-12.1,54
			c-3.8,18.1-7.3,36.2-10.4,54.3c-6.3,36.3-11.2,72.9-14.4,109.7c-6.5,73.5-6.7,147.5-1.6,221.2L886,860.3z"/>
	</g>
	<g class="st7">
		
			<image style="overflow:visible;" width="1440" height="4753" xlink:href="14B70B9F36223250.png"  transform="matrix(0.24 0 0 0.24 504.3781 203.7122)">
		</image>
	</g>
	<path class="st8" d="M682.8,686.4c0,0,23.8-40.9,43-53c27.7-17.4,51.7,0.2,56.4-3.9c4.7-4.1-24.3-33.8-62.7-6.3
		C701,636.5,682.8,686.4,682.8,686.4z"/>
	<path class="st8" d="M858.5,694.6c0,0,2.8-34.1-17.9-52.2c-11.2-9.7-31.7-4.9-33.9-9.4c-2.2-4.5,19.2-18.7,39.4,0
		C864.2,649.8,858.5,694.6,858.5,694.6z"/>
	
		<linearGradient id="SVGID_3_" gradientUnits="userSpaceOnUse" x1="9073.4092" y1="827.2496" x2="9073.4092" y2="688.8464" gradientTransform="matrix(-0.9936 -0.1129 -0.1129 0.9936 9929.6631 1034.9268)">
		<stop  offset="0" style="stop-color:#F69075"/>
		<stop  offset="0.2675" style="stop-color:#F8A38B"/>
		<stop  offset="0.7415" style="stop-color:#FBC1AC"/>
		<stop  offset="1" style="stop-color:#FCCCB9"/>
	</linearGradient>
	<path class="st9" d="M788.7,771c-1.9,30.1,7.5,58.8,35.4,62c25.1,2.9,41.9-21.9,41.8-54.7c-0.2-63-16.6-85.1-40.7-84
		C810.5,694.9,792.7,709.2,788.7,771z"/>
	
		<linearGradient id="SVGID_4_" gradientUnits="userSpaceOnUse" x1="729.2789" y1="840.6381" x2="729.2789" y2="674.7747" gradientTransform="matrix(0.9936 0.1129 -0.1129 0.9936 91.3435 -82.8242)">
		<stop  offset="0" style="stop-color:#F69075"/>
		<stop  offset="0.2675" style="stop-color:#F8A38B"/>
		<stop  offset="0.7415" style="stop-color:#FBC1AC"/>
		<stop  offset="1" style="stop-color:#FCCCB9"/>
	</linearGradient>
	<path class="st10" d="M776.5,772.9c-8.1,34.2-20.7,63.7-44.4,62.8c-20.5-0.8-32.7-6.7-43.7-21.9c-7.3-10-11.7-36.2-8-61.9
		c10.8-74.6,43-87.7,72.4-79.8C770.8,676.9,792.7,704.6,776.5,772.9z"/>
	<g class="st1">
		<defs>
			<path id="SVGID_5_" d="M687.5,730.2c5-18.1,28.3-19.3,60.9-13.6c11.3,2,27.1,10.3,26.9,23.2c-0.2,12.9,13.9,13.1,14.7,0.2
				c1.5-23.7,70.3-18.8,73.2,0.7c2.9,19.6,8.5,74.7,8.5,74.7s-35.5,17.4-92.8,14.5s-112.4-27.5-112.4-27.5L687.5,730.2z"/>
		</defs>
		<clipPath id="SVGID_6_">
			<use xlink:href="#SVGID_5_"  style="overflow:visible;"/>
		</clipPath>
		<g class="st11">
			
				<radialGradient id="SVGID_7_" cx="8779.9326" cy="1123.673" r="37.2572" fx="8791.8486" fy="1123.3282" gradientTransform="matrix(-1.0916 -0.124 -0.2225 1.9585 10663.9443 -358.1783)" gradientUnits="userSpaceOnUse">
				<stop  offset="0" style="stop-color:#D0D2D3"/>
				<stop  offset="0.242" style="stop-color:#CFD1D0"/>
				<stop  offset="0.4008" style="stop-color:#CDCEC8"/>
				<stop  offset="0.5358" style="stop-color:#CAC9B9"/>
				<stop  offset="0.6574" style="stop-color:#C4C2A3"/>
				<stop  offset="0.77" style="stop-color:#BEB988"/>
				<stop  offset="0.876" style="stop-color:#B5AD66"/>
				<stop  offset="0.9751" style="stop-color:#ACA03F"/>
				<stop  offset="1" style="stop-color:#A99C34"/>
			</radialGradient>
			<path class="st12" d="M794.1,753.5c-3.5,39,4.5,57.4,31.8,57.1c18.8-0.2,40.1-10.1,37.7-48.9c-2.8-43.7-12.8-63.7-34.2-66.1
				C807.9,693.2,796.8,723.7,794.1,753.5z"/>
			<path class="st13" d="M810.2,796.6c-2.2-1.1-3.2-2-3.2-2S808.1,795.4,810.2,796.6z"/>
			
				<ellipse transform="matrix(0.1129 -0.9936 0.9936 0.1129 -20.4352 1488.1437)" class="st14" cx="823.2" cy="755.5" rx="26.1" ry="18.9"/>
			<path class="st15" d="M839.5,733.5c0,0-1.5-12.8-2.9-18.6c-1.4-5.8-10.1-14.7-10.1-14.7s8-0.8,15.9,3.9
				c7.9,4.6,10.2,13.4,10.2,13.4l-5.5,19.2L839.5,733.5z"/>
			<path class="st15" d="M848.4,740l8.1-11.4c0,0,0.6,2.2,1.3,5c0.7,2.8-0.1,5.2-0.1,5.2l-8.8,3.6L848.4,740z"/>
			<polygon class="st15" points="838,740.3 834.3,746.9 841.3,751.9 844.1,748.9 			"/>
		</g>
		<g class="st11">
			
				<radialGradient id="SVGID_8_" cx="249.8754" cy="1162.8872" r="43.7571" fx="263.8701" fy="1162.4823" gradientTransform="matrix(1.1735 0.1333 -0.2277 2.0043 702.1003 -1622.9542)" gradientUnits="userSpaceOnUse">
				<stop  offset="0" style="stop-color:#D0D2D3"/>
				<stop  offset="0.242" style="stop-color:#CFD1D0"/>
				<stop  offset="0.4008" style="stop-color:#CDCEC8"/>
				<stop  offset="0.5358" style="stop-color:#CAC9B9"/>
				<stop  offset="0.6574" style="stop-color:#C4C2A3"/>
				<stop  offset="0.77" style="stop-color:#BEB988"/>
				<stop  offset="0.876" style="stop-color:#B5AD66"/>
				<stop  offset="0.9751" style="stop-color:#ACA03F"/>
				<stop  offset="1" style="stop-color:#A99C34"/>
			</radialGradient>
			<path class="st16" d="M774.7,751c-6.4,46.6-21.4,65.9-55,58.1c-23.2-5.4-46.6-22.9-32.8-67.7c15.5-50.4,33.3-71,60.4-67.9
				S779.7,715.3,774.7,751z"/>
			
				<ellipse transform="matrix(0.1129 -0.9936 0.9936 0.1129 -99.275 1380.7937)" class="st14" cx="723.6" cy="746" rx="27" ry="21.1"/>
			<path class="st13" d="M743,796.9c3-0.6,4.5-1.4,4.5-1.4S745.9,796.1,743,796.9z"/>
			<path class="st15" d="M746.7,724.7c0,0-2.6-16.5-5-23.9c-2.4-7.5-15.9-19.2-15.9-19.2s18.4-8.3,30.6-2.2
				c12.2,6.2,10.9,17,10.9,17l-8.9,32.5L746.7,724.7z"/>
			<path class="st15" d="M760.6,733.3l12.1-14.3c0,0,1,2.8,2.1,6.4s0,6.7,0,6.7l-13.4,4.3L760.6,733.3z"/>
			<polygon class="st15" points="741,731.5 735.5,739.9 746.4,746.5 750.7,742.8 			"/>
			<path class="st13" d="M721.4,803.1c-13.8-6.8-16-20.8-16.5-34c-0.2-5.5,0.1-10.7,0.8-15.7l-2.8-0.3c-0.8-0.1-1.3-0.8-1.3-1.7
				c0-1,0.9-1.7,1.8-1.6l2.8,0.5c0.2-1,0.3-2,0.5-3.1l-3.1-0.6c-1-0.2-1.7-1.2-1.6-2.4l0.3-2.4c0.1-1.2,1.2-2.1,2.4-1.8l3.3,0.8
				c0.5-2.4,1.1-4.8,1.6-7.3c2.8-13.6-8.8-12.5-5.6-23.6c5-17.2,14.5-23.7,14.5-23.7s-12.3,4-23.2,33.4
				c-13.4,36.3-15.8,56.8,1.6,74.4c14,14.1,32.5,13.8,40.3,13C733.8,807.3,728.5,806.6,721.4,803.1z"/>
		</g>
	</g>
	<path class="st17" d="M775.3,724.3c0,0,1.4-8.9-4.3-23.4c-5.8-14.5-11.6-19.6-20.3-21c-4.3-0.7-0.9,7.6,0.5,21.3
		C751.9,708.3,775.3,724.3,775.3,724.3z"/>
	<path class="st17" d="M856.5,725.2c0,0,0.2-0.5-6.9-12.1s-12.7-15-20.1-14.9c-3.6,0,6.7,7.7,7.7,14.4
		C838.6,722.4,856.5,725.2,856.5,725.2z"/>
	<g class="st1">
		<path class="st18" d="M904.5,1398.8c-0.1-31.2,62.3-323.4,286.2-323.4c53.4,0,134,31.2,208.8,26.7l-0.1,26.1
			c0,0-70.9,5.5-167.8-6.1c-165.5-19.8-192.4,276.8-192.4,276.8H904.5z"/>
		<path class="st19" d="M912.8,1417.4c0-51.3,64.3-330,268.3-327.3c53.4,0.7,143.2,37.3,218.1,33.4l0.1,10.8c0,0-49.5,3.6-151.4,1.5
			c-189.5-3.9-176.7,297.3-176.7,297.3L912.8,1417.4z"/>
		<g>
			<path class="st6" d="M904.3,1398.8c-0.1-3.6,0.3-7.1,0.7-10.7c0.4-3.5,1-7.1,1.5-10.6c1.2-7,2.6-14,4.2-20.9
				c1.6-6.9,3.4-13.8,5.3-20.7c1-3.4,1.9-6.9,2.9-10.3c1-3.4,2.1-6.8,3.2-10.2c8.8-27.1,19.7-53.6,33.3-78.6
				c13.6-25.1,29.6-48.8,48-70.5c9.2-10.9,19-21.2,29.6-30.8c10.5-9.6,21.8-18.4,33.8-26.2c12-7.8,24.7-14.4,38-19.8
				c13.3-5.4,27.1-9.4,41.2-12.1c14.1-2.7,28.4-4.1,42.7-4.2c7.2-0.1,14.4,0.3,21.5,1.2c7.1,0.9,14.2,2.1,21.2,3.6
				c14,2.9,27.7,6.4,41.6,9.5c13.8,3.1,27.7,5.9,41.7,7.9c14,2.2,28.1,3.7,42.2,4.7c7.1,0.5,14.2,0.9,21.2,1.2l10.6,0.3l10.6,0.2
				l0,0.4c-14.2,0.5-28.4,0.5-42.7-0.1c-14.2-0.6-28.4-1.8-42.6-3.6c-14.1-1.9-28.2-4.4-42.1-7.3c-7-1.5-13.9-3-20.8-4.6
				c-6.9-1.6-13.8-3.1-20.8-4.5c-13.9-2.8-27.8-4.8-41.8-4.6c-14.1,0.1-28.2,1.3-42,3.8c-13.9,2.5-27.5,6.4-40.6,11.4
				c-13.1,5.1-25.8,11.4-37.9,18.8c-12.1,7.4-23.4,15.9-34.1,25.2c-10.6,9.4-20.5,19.6-29.7,30.4c-9.1,10.8-17.5,22.4-25.1,34.3
				c-7.6,11.9-14.6,24.3-21.1,36.9c-12.9,25.2-24,51.3-33.2,78.1c-4.5,13.4-8.8,26.9-12.3,40.7c-1.8,6.9-3.4,13.8-4.9,20.7
				c-0.7,3.5-1.4,6.9-2,10.4c-0.5,3.5-1.1,7-1.3,10.5L904.3,1398.8z"/>
		</g>
		<g>
			<path class="st6" d="M1005.7,1349.7c5-19,10.6-37.8,17-56.3c3.2-9.3,6.6-18.5,10.3-27.6c3.8-9.1,7.7-18.1,12.1-26.9
				c4.4-8.8,9-17.4,14.1-25.8c5-8.4,10.4-16.6,16.3-24.5c11.7-15.8,25.2-30.3,41.1-42c7.9-5.8,16.4-11,25.3-15.2
				c4.4-2.1,9-4,13.7-5.6c4.6-1.7,9.4-3.1,14.1-4.3c19.1-4.9,39-6.2,58.7-4.7c9.8,0.8,19.5,2.2,29.2,3.7c9.7,1.5,19.4,3,29.1,4.3
				c9.7,1.3,19.4,2.3,29.2,3c9.8,0.8,19.5,1.2,29.3,1.4l0,0.2c-9.8,0.1-19.6-0.2-29.4-0.7c-9.8-0.5-19.6-1.4-29.3-2.5
				c-9.7-1.1-19.4-2.6-29.1-3.9c-9.7-1.4-19.4-2.7-29.1-3.4c-9.7-0.7-19.5-0.8-29.2,0c-9.7,0.8-19.4,2.3-28.8,4.7
				c-18.9,4.7-36.9,12.9-52.8,24.3c-8,5.6-15.4,12.1-22.3,18.9c-6.9,6.9-13.2,14.4-19.1,22.3c-2.9,3.9-5.7,8-8.4,12.1
				c-2.7,4.1-5.3,8.3-7.7,12.5c-4.9,8.5-9.3,17.2-13.5,26c-1,2.2-2.1,4.4-3.1,6.7c-1,2.2-2,4.5-3,6.7c-1.9,4.5-3.9,9-5.7,13.5
				c-3.7,9-7.2,18.2-10.5,27.4c-6.6,18.4-12.6,37.1-18.3,55.8L1005.7,1349.7z"/>
		</g>
	</g>
	<g class="st1">
		<path class="st18" d="M557.8,1399.2c32.4-162-114.4-341.1-219.5-309.4c-114.5,34.6,63.4-61,144-72.7
			c83.2-12.1,313.1,57.3,342.6,382.3L557.8,1399.2z"/>
		<path class="st20" d="M518.5,1399.2c-19.2-207.8-53.9-283.5-197.5-309.4c0,0,64.7-32.1,140.3-62.4
			c71.7-28.7,314.6,42.1,340.3,371.8H518.5z"/>
		<g>
			<path class="st6" d="M518.3,1399.2c-1.2-16.9-2.6-33.7-4.5-50.5c-0.5-4.2-1-8.4-1.5-12.6c-0.5-4.2-1.1-8.4-1.7-12.5
				c-1.2-8.3-2.5-16.7-3.9-25c-1.4-8.3-2.9-16.6-4.6-24.9c-0.4-2.1-0.9-4.1-1.4-6.2c-0.5-2.1-0.9-4.1-1.5-6.2
				c-0.5-2.1-1-4.1-1.6-6.1c-0.5-2-1.1-4.1-1.7-6.1c-4.7-16.2-11-32-18.6-47c-7.7-15-16.6-29.3-27.1-42.4
				c-10.5-13.1-22.6-24.8-36.1-34.6c-13.5-9.9-28.4-17.7-44.2-23.5c-15.7-5.8-32.3-9.4-49.1-11.6l0-0.4c16.9,0.8,33.8,3.7,50.1,9
				c16.2,5.3,31.7,13.1,45.6,23c6.9,5,13.5,10.5,19.6,16.5c6.1,6,11.8,12.4,17,19.2c10.5,13.5,19.1,28.3,26.1,43.8
				c3.6,7.7,6.7,15.6,9.7,23.5c3,7.9,5.7,16,8.2,24.1c0.6,2,1.3,4,1.9,6.1c0.6,2,1.2,4.1,1.8,6.1c0.6,2,1.2,4.1,1.7,6.1
				c0.6,2,1.1,4.1,1.7,6.1c2.1,8.2,4.1,16.5,5.7,24.8c1.6,8.3,3,16.7,4.1,25.1c0.5,4.2,1,8.4,1.5,12.6c0.4,4.2,0.8,8.4,1.2,12.7
				c1.4,16.9,2,33.9,1.8,50.8L518.3,1399.2z"/>
		</g>
		<path class="st21" d="M583.9,1041c-89.9-35.8-174.9,14.8-217.3,123.1s-108.3,146-153,150.7c-44.7,4.7-95.7-15.6-95.7-15.6
			s59.1-18.2,93.6-101.6c40-96.5,51.8-121.8,98.7-139.6c47-17.8,117.7-35.7,182.1-41C539.5,1013.3,583.9,1041,583.9,1041z"/>
		<path class="st22" d="M576.7,1029.8c-61.9-31.7-161.2-1.6-219.1,134.3c-43,101-103.3,137.4-135.9,142.8c-51.8,8.7-98.6-27-98.6-27
			s54,1.1,88.6-82.4c40-96.5,51.8-121.8,98.7-139.6c47-17.8,102.6-34.7,162.7-41.5C541.2,1008.8,576.7,1029.8,576.7,1029.8z"/>
		<g>
			<path class="st6" d="M443.4,1058c13.9,2.6,27.2,7.8,39.6,14.6c0.8,0.4,1.6,0.8,2.3,1.3l2.3,1.4l4.5,2.8c0.8,0.4,1.5,0.9,2.2,1.4
				l2.2,1.5l4.4,3c2.8,2.1,5.6,4.3,8.4,6.5l4,3.4c1.3,1.2,2.7,2.3,4,3.5l3.8,3.6c1.3,1.2,2.6,2.4,3.8,3.7l3.7,3.8l1.8,1.9l1.8,2
				l3.5,4l1.8,2l1.7,2l3.4,4.1l1.7,2l1.6,2.1c8.7,11.1,16.7,22.8,23.9,34.9c7.3,12.1,13.7,24.7,19.3,37.7c5.5,13,10.3,26.3,14,40
				c3.8,13.6,6.7,27.5,8.6,41.5c1.9,14,2.7,28.1,2.5,42.2l-0.2,0c-0.7-28.2-5.2-56.1-12.8-83.1c-3.8-13.5-8.4-26.8-13.8-39.8
				c-5.4-13-11.6-25.6-18.5-37.9c-6.9-12.2-14.7-24-23.5-35c-4.4-5.5-9-10.8-13.9-15.9l-1.8-1.9l-1.9-1.8l-3.8-3.7
				c-1.2-1.3-2.5-2.4-3.8-3.6l-3.9-3.5c-10.5-9.3-21.8-17.8-34-24.7c-12.2-6.9-25.2-12.4-38.9-15.7L443.4,1058z"/>
		</g>
		<g>
			<path class="st6" d="M295.1,1130.6c-8.4,17.3-14.7,35.5-21.8,53.5c-3.6,9-7.3,17.8-11.2,26.7c-3.9,8.8-7.9,17.6-12.6,26
				c-4.6,8.5-10,16.6-16.4,23.9c-6.3,7.3-13.6,13.9-21.9,19.2c-8.2,5.3-17.3,9.1-26.6,11.7c-9.4,2.5-19,3.8-28.7,4l0-0.2
				c9.6-0.9,19.1-2.5,28.2-5.3c9.2-2.8,17.9-6.8,25.9-12c8-5.2,15.2-11.5,21.6-18.6c6.4-7.1,11.9-15,16.9-23.2
				c4.9-8.2,9.2-16.9,13-25.7c3.8-8.9,7-17.9,10.3-27c3.3-9,6.8-18,10.5-26.9c3.8-8.9,7.8-17.7,12.7-26L295.1,1130.6z"/>
		</g>
		<path class="st21" d="M100.5,1255.9c26,29.3,58.7,57.6,112.6,59.1c0,0-58.8-2.5-112.6-4.2V1255.9z"/>
		<g>
			<path class="st6" d="M191.3,1233.4c5.1-7.4,9.2-15.3,13.2-23.3c4-8,7.7-16.1,11.4-24.2c7.4-16.3,14.4-32.7,21.7-49
				c1.8-4.1,3.7-8.1,5.6-12.2c1.9-4,3.9-8.1,6.3-11.9c2.2-3.8,4.4-7.8,6.7-11.6c2.3-3.8,4.8-7.6,7.6-11.1
				c5.6-7.1,12.2-13.3,19.5-18.6c3.7-2.6,7.5-5,11.4-7.2c3.9-2.2,8-4.2,12.1-6c8.2-3.7,16.7-6.6,25.2-9.2l25.7-7.6
				c17.2-5,34.3-9.9,51.7-14.1c17.3-4.3,34.9-7.7,52.7-9.9c17.7-2.3,35.6-3.4,53.5-3.5c9,0.1,17.9,1.4,26.7,3.1
				c8.8,1.8,17.4,4.2,25.9,7c17,5.6,33.5,12.9,49.3,21.2c15.8,8.3,31,17.9,45.5,28.4c14.5,10.5,28.2,22.1,41.2,34.5
				c12.9,12.4,25,25.7,36,39.8c11,14.1,21,29,29.8,44.6c8.9,15.5,16.5,31.8,22.9,48.5c3.2,8.4,6,16.8,8.6,25.4
				c2.5,8.6,4.7,17.2,6.7,26l-0.2,0c-2.1-8.7-4.4-17.3-7-25.8c-2.7-8.5-5.7-16.9-8.9-25.2c-6.6-16.6-14.3-32.7-23.2-48.1
				c-17.8-30.9-40.3-59-66-83.6c-25.7-24.7-54.8-45.7-86.2-62.6c-15.7-8.3-32-15.6-48.9-21.3c-4.2-1.4-8.5-2.7-12.8-3.9
				c-4.3-1.2-8.6-2.2-13-3.2c-8.7-1.8-17.5-3.1-26.4-3.3c-17.8-0.1-35.7,0.8-53.4,2.9c-17.7,2.1-35.3,5.4-52.6,9.5
				c-17.3,4.2-34.5,9.2-51.6,14.4c-17,5.4-34.4,10-50.5,17.3c-4.1,1.8-8,3.8-11.9,6c-3.9,2.2-7.6,4.5-11.2,7.1
				c-7.2,5.1-13.8,11.2-19.3,18.1c-2.7,3.5-5.2,7.2-7.5,10.9c-2.3,3.8-4.5,7.7-6.7,11.6c-2.3,3.8-4.3,7.7-6.3,11.8
				c-1.9,4-3.8,8.1-5.7,12.1c-7.4,16.2-14.5,32.6-22.1,48.8c-3.8,8.1-7.7,16.1-11.7,24.1c-4.1,7.9-8.4,15.8-13.5,23.1L191.3,1233.4z
				"/>
		</g>
	</g>
	<g class="st1">
		<path class="st2" d="M869.2,333.7c16.6-28,32.4-31.2,32.4-31.2c29.8,21.2,37,54.9,27.6,91.5c-11,43.1,40.1,76.3,134.7,74.3
			c42.6-0.9,57-47,33.5-57.6c5.4,18.7-26,24.8-48.3,1.4c-6.8-7.2,2.5-12.2,19.2-26.1c24.7-20.6,31.9-75.8-12.8-117.3
			c18.2-28.2-25.1-51.4-42.5-55c6-48.4-84.2-97.7-148.8-77.2c-39.5-39.8-143.9-16.4-157.6,42.5c-4.5,38.1,23.4,48.2,24.5,61.9
			c51.8-0.3,103.7,23.7,120.2,90.1C853.9,346.3,866.8,339.3,869.2,333.7z"/>
		<path class="st3" d="M815.4,241.3c46.5-46.2,95.7-46.4,95.7-46.4c-56.2,18-70.4,68.4-70.1,76.8c0.3,8.4,15.9,59.1,31.2,47.9
			c79.3-90.2,174.4-32.2,169.1,5.6c-5.2,37.8-47.2,34.4-45.3,69.8c2.7,53,125.9,91,100.3,25.9c-12,18.6-57.9,4-59-24.3
			c-1-28.3,51.7-14.4,44.2-78c-7.7-65.6-104-93.1-118.9-93.1c54.5-19.1,41.5-50,22.5-64.8c-19-14.8-96.4-68.8-178.4,42.9
			c2.9-39.6,37.2-80.3,53.3-68.4c-10.8-37.5-67.8-6.7-78.3,37.1c13.9-55,27.2-61,33.7-55.9c-33.2-29.3-61.6,21.7-64.5,47.8
			c-4.6-32.1,2.7-35.7,2.7-35.7c-17-3.8-24.2,59.8-1.2,98.1c1.6-26.1,8.4-58,17-72.2c-10.7,34-10.1,70.4-2,76.7
			c8,6.3,23.8-50.9,23.8-50.9s-5,47-1.5,55.6C798.1,256.7,815.4,241.3,815.4,241.3z"/>
		<path class="st4" d="M832.5,195.1c32.2-60.8,141.2-73.8,165-11C996.8,196.5,921.7,145.1,832.5,195.1z"/>
		<path class="st3" d="M1055.6,267.5c69.5,70.2,47.3,112.9,3.2,118c34.7-1.6,52.2-58.5,11.6-93.4"/>
		<path class="st23" d="M909.2,299.9c36-18.6,93-13.9,106.4,13.6c13.4,27.5-9.8,41.2-24,57.3c-14.1,16-15.2,56.8,39.5,80.4
			c-64.6-18.9-66.8-61.3-54.7-83.6c-21.8,7.3-16.1,33.4-8.8,40.7c-30.8-14.4-32-34-27.5-56.3C945.4,326.5,934,308.5,909.2,299.9z"/>
		<path class="st24" d="M856.3,280.2c16.8-64.2,100.5-72,132.2-46.2c-39.3-6.6-74.6,3.7-87.4,14.7c42.4-20.7,172.2-13.1,178.4,64.9
			c-28.3-42.7-68.2-74.8-124-52c-55.8,22.8-74.3,42.2-80.3,37.3c-6-4.9,41.1-51.3,85.8-52.2C896.5,257.2,869.6,280.2,856.3,280.2z"
			/>
		<path class="st24" d="M1016.9,271.1c41.7,11.4,92.8,72.7,31.2,106.5C1070.4,347.9,1044.7,298.4,1016.9,271.1z"/>
		<path class="st4" d="M910.4,202.6c22.3-24.7,73.2-22.7,89.9-5.3C964.4,195,910.4,202.6,910.4,202.6z"/>
		<path class="st4" d="M848.7,125.3c-22-12.2-45.6-3.3-66.1,43.7C812.1,135.9,847.1,129.4,848.7,125.3z"/>
		<path class="st4" d="M803.2,108.9c-24.8-0.8-40,27.6-31.7,75.2C782.3,129,803.2,108.9,803.2,108.9z"/>
		<path class="st3" d="M994.1,223.1c37.7-15,79,18.6,62.2,38.5C1047.6,237.9,1004.2,223.4,994.1,223.1z"/>
		<path class="st23" d="M838.6,284.6c-11.2-18.1,17.3-64.4,38.8-74.7c-55.5,20.5-55.2,43.2-59.8,46.8c-4.6,3.6-34.2-2.5-33.5-33.6
			c-2.6,15.2-5.6,20.4-13.5,20.5C792.5,247.6,824.8,269.9,838.6,284.6z"/>
		<path class="st24" d="M1030.4,382c-8.9,28.7,21.6,42.9,40.3,42.1c18.7-0.8,19.3-21.5,6.6-25.7c22.3-1,16.7,41.8-10.7,33
			c11.2,16.7,32.2-0.3,29.4-15.3C1117.9,469.3,1008.2,454.5,1030.4,382z"/>
		<path class="st25" d="M910.4,445.4c1.8-70-50.7-101.7-56.6-108.1c12.8-3,42.2-48,93.5-48c39.7-1.1,72.6,12.2,72.3,38.6
			c-8.6-21.2-24.1-21.3-31.7-21.2c22.2,15.2,13.9,41.1-2.3,58.9c6.1-24.3-7.3-47.2-17.8-54.2c7,18.7,5.6,34.6-7.8,56
			c-13.4,21.4-2.3,47,12.3,55.1c-25.1-10-34.9-21.7-28.9-37.1C925.4,424.4,910.4,445.4,910.4,445.4z"/>
	</g>
	<linearGradient id="SVGID_9_" gradientUnits="userSpaceOnUse" x1="779.852" y1="979.6203" x2="779.852" y2="911.2642">
		<stop  offset="0" style="stop-color:#7F133A"/>
		<stop  offset="0.1326" style="stop-color:#92244D"/>
		<stop  offset="0.5352" style="stop-color:#C65584"/>
		<stop  offset="0.8364" style="stop-color:#E674A5"/>
		<stop  offset="1" style="stop-color:#F27FB2"/>
	</linearGradient>
	<path class="st26" d="M884.2,940.3c0,0-5.4,13.9-50.3,8.9c-6.9-0.8-10,4.3-19.2,4c-10.3-0.3-18.5-6.3-27.6-7
		c-90.8-6.4-111.5-35-111.5-35s16.6,67,139.7,68.3C873.4,980.3,884.2,940.3,884.2,940.3z"/>
	
		<radialGradient id="SVGID_10_" cx="779.852" cy="948.9752" r="100.5909" fx="834.5836" fy="1022.9689" gradientTransform="matrix(1 3.803178e-03 -4.330552e-03 1.1387 4.1152 -134.5494)" gradientUnits="userSpaceOnUse">
		<stop  offset="0.2443" style="stop-color:#EE3361"/>
		<stop  offset="0.3305" style="stop-color:#EF436F"/>
		<stop  offset="0.6413" style="stop-color:#F37A9C"/>
		<stop  offset="0.8738" style="stop-color:#F59BB8"/>
		<stop  offset="1" style="stop-color:#F6A8C3"/>
	</radialGradient>
	<path class="st27" d="M884.2,940.3c0,0-3.5,26.3-68.7,26.3c-112.6,0-140.1-55.3-140.1-55.3s16.6,75.4,139.7,75.4
		C874.9,986.7,884.2,940.3,884.2,940.3z"/>
	<path class="st28" d="M866,969.6c0,0-27.6,40.2-61.2,37.4c-60.2-4.9-103.6-57.5-103.6-57.5s37.5,37.1,114,37.1
		C849.2,986.7,866,969.6,866,969.6z"/>
	<path class="st17" d="M874.9,954.6c0,0-13.4,9.8-33.6,12.8c-13.2,2-7.9,6.6,2.6,4.6C865.1,968.1,874.9,954.6,874.9,954.6z"/>
	<path class="st17" d="M823.9,973.7c-0.3-2.6-5.7-3.4-11.5-3.3c-5.9,0.1-11.3,1.1-11.2,3.3c0.3,4.6,7.3,6.1,12.5,6.6
		C820.6,980.9,824.2,976.3,823.9,973.7z"/>
	<path class="st17" d="M691.3,931.9c0,0,23,19.7,53.3,27.8c23.2,6.2,12.9,9.6-5.5,3.8C709,953.9,691.3,931.9,691.3,931.9z"/>
	<path class="st17" d="M763.6,967.9c-0.4,4.3,9.9,5.7,10.5,1.1C774.8,964.4,764,964.3,763.6,967.9z"/>
	<path class="st1" d="M739.9,718.7c32.2,0.8,33.1,6.8,38,11.3c2.1,1.9,4.3,10.4,4.3,10.4c1.9-15.5-23-30.5-42.7-28.5
		c-67,6.8-61.5,3.6-61.5,3.6s4.6,4.6,4.2,6.9C691.4,724.3,720.4,718.2,739.9,718.7z"/>
	<path class="st1" d="M814.1,724.4c13.6-2.5,24.2-0.8,34.3,2.8c2.8,1,10.2,4,12,7.6c-0.2-2.4,3-6,3-6s-2.3-0.1-7.8-2.5
		c-6.4-2.8-18.2-8.1-31.7-7c-17,1.4-30.6,10.9-30.7,16.6C795.7,732.4,808.2,725.5,814.1,724.4z"/>
	<g class="st1">
		<path class="st29" d="M683.1,724.2c-1-2.2-2.5-3.9-4.5-4.9c-2.1-1.1-4.7-1.5-7.5-1.7c-2.8-0.2-5.8-0.3-8.7-0.6
			c-3-0.4-6-1.1-8.7-2.4c-0.7-0.3-1.3-0.7-2-1.1c-0.7-0.4-1.3-0.9-1.9-1.4c-1.2-1-2.1-2.3-2.8-3.7c-1.3-2.8-1.4-6-0.8-8.9
			c0.6-2.9,1.8-5.7,3.6-8c0.9-1.1,2-2.2,3.4-2.8c0.7-0.3,1.5-0.3,2.2-0.1c0.7,0.3,1.2,0.8,1.6,1.4c-0.4-0.6-1-1.1-1.6-1.3
			c-0.7-0.2-1.4-0.1-2,0.2c-1.3,0.6-2.3,1.7-3.1,2.8c-1.6,2.3-2.6,5.1-3,7.8c-0.4,2.8-0.1,5.6,1.2,8c1.3,2.4,3.5,4,6.1,4.8
			c2.6,0.9,5.3,1.3,8.1,1.3c2.8,0.1,5.6-0.2,8.6-0.3c2.9-0.1,6.2-0.1,9.4,1.2c1.6,0.6,3.2,1.5,4.5,2.7c1.3,1.2,2.4,2.6,3.3,4
			L683.1,724.2z"/>
	</g>
	<g class="st1">
		<path class="st29" d="M685.8,722.6c-0.5-2.5-1.9-4.9-4-6.8c-2.1-2-4.8-3.6-7.5-5.1c-2.8-1.6-5.7-3.1-8.3-5.2
			c-1.3-1.1-2.4-2.4-3.2-3.9c-0.8-1.5-1.1-3.2-0.9-4.8c0.1,1.6,0.7,3.1,1.6,4.4c0.9,1.3,2.1,2.2,3.4,3c2.7,1.6,5.7,2.6,8.7,3.7
			c3,1.1,6.1,2.3,9.1,4.3c1.5,1,2.9,2.2,4.1,3.7c1.2,1.5,2.2,3.1,2.9,4.9L685.8,722.6z"/>
	</g>
	<g class="st1">
		<path class="st29" d="M697.2,720c-0.7-2.9-2.4-5.6-4.7-8c-2.3-2.3-5-4.4-7.8-6.4c-2.8-2-5.7-4-8.2-6.4c-1.2-1.2-2.3-2.6-3.1-4.2
			c-0.8-1.6-1.2-3.3-1.1-5c0.1,1.7,0.7,3.4,1.5,4.8c0.9,1.4,2.1,2.7,3.4,3.7c2.6,2.1,5.6,3.8,8.6,5.5c3,1.7,6,3.5,8.8,5.8
			c2.7,2.3,5.2,5.3,6.5,9L697.2,720z"/>
	</g>
	<g class="st1">
		<path class="st29" d="M705.2,717c-0.2-3-1.3-5.9-3.2-8.4c-1.8-2.6-4.2-4.9-6.7-7.2c-2.5-2.3-5.1-4.5-7.2-7.2
			c-1.1-1.3-2-2.9-2.5-4.5c-0.5-1.6-0.6-3.4-0.3-5.1c-0.2,1.7,0.1,3.4,0.7,4.9c0.7,1.5,1.6,2.8,2.8,4c2.3,2.4,5,4.3,7.7,6.3
			c2.7,2,5.4,4.2,7.8,6.9c2.3,2.7,4.2,6.1,4.8,9.8L705.2,717z"/>
	</g>
	<g class="st1">
		<path class="st29" d="M717.3,716.7c0.1-2.3,0.2-4.5-0.3-6.7c-0.4-2.2-1.5-4-3-5.7c-1.6-1.6-3.5-3.2-4.9-5.1
			c-1.5-1.9-2.6-4-3.5-6.2c1.1,2.1,2.4,4,4,5.7c1.6,1.7,3.5,3,5.4,4.5c0.5,0.4,0.9,0.8,1.3,1.3c0.2,0.2,0.4,0.5,0.6,0.7l0.6,0.8
			c0.4,0.5,0.6,1.1,1,1.7c0.3,0.6,0.5,1.2,0.7,1.8c0.7,2.4,0.9,4.9,1.1,7.3L717.3,716.7z"/>
	</g>
	<g class="st1">
		<path class="st29" d="M861,729c1.2-2.1,3.1-3.9,5.4-4.6c2.3-0.8,4.6-0.7,6.8-0.7c2.2,0.1,4.4,0.2,6.6,0c2.2-0.2,4.4-0.7,6.4-1.7
			c-1.9,1.1-4.1,1.8-6.3,2.2c-2.2,0.3-4.5,0.4-6.7,0.5c-2.2,0.1-4.4,0.3-6.3,1.1c-1.9,0.8-3.3,2.3-4.2,4.2L861,729z"/>
	</g>
	<g class="st1">
		<path class="st29" d="M858.3,728.3c0.9-2.5,2.7-4.6,4.7-6.1c2-1.5,4.3-2.4,6.4-3.3c2.2-0.9,4.4-1.6,6.3-2.9c1-0.6,1.8-1.4,2.5-2.3
			c0.6-0.9,1-2.1,1.1-3.2c0,1.2-0.2,2.4-0.8,3.4c-0.6,1.1-1.4,2-2.3,2.7c-1.9,1.5-4,2.5-6.1,3.6c-2,1.1-4.1,2.2-5.7,3.7
			c-1.6,1.4-2.8,3.2-3.2,5.2L858.3,728.3z"/>
	</g>
	<g class="st1">
		<path class="st29" d="M854.6,727.6c0.9-2.7,2.7-4.9,4.7-6.6c2-1.7,4.2-3,6.4-4.2c2.2-1.3,4.3-2.4,6.3-4c0.9-0.8,1.8-1.7,2.4-2.7
			c0.6-1,1-2.2,1.1-3.5c0,1.3-0.2,2.5-0.8,3.7c-0.6,1.2-1.4,2.2-2.3,3.1c-1.8,1.8-3.9,3.2-5.9,4.7c-2,1.5-4,2.9-5.7,4.6
			c-1.7,1.7-2.9,3.7-3.4,5.8L854.6,727.6z"/>
	</g>
	<g class="st1">
		<path class="st29" d="M851,725c0.4-2.7,1.8-5.2,3.5-7.2c1.7-2,3.7-3.5,5.7-5c2-1.5,4-2.9,5.6-4.6c0.8-0.9,1.6-1.8,2-2.9
			c0.5-1.1,0.7-2.3,0.5-3.6c0.3,1.2,0.2,2.5-0.2,3.7c-0.4,1.2-1,2.3-1.8,3.3c-1.6,2-3.5,3.6-5.2,5.3c-1.8,1.7-3.5,3.3-4.9,5.2
			c-1.3,1.9-2.2,4-2.3,6.1L851,725z"/>
	</g>
	<g class="st1">
		<path class="st29" d="M845.5,723.1c0.1-1.8,0.3-3.6,0.9-5.4c0.2-0.4,0.3-0.9,0.5-1.3c0.2-0.4,0.4-0.9,0.7-1.2
			c0.5-0.8,1.2-1.4,1.9-2c1.4-1.1,2.8-2,4-3.2c1.2-1.2,2.2-2.6,3-4.1c-0.6,1.6-1.4,3.2-2.4,4.6c-1,1.4-2.4,2.6-3.5,3.8
			c-1.1,1.2-1.8,2.5-2.1,4.1c-0.3,1.5-0.2,3.2-0.1,4.8L845.5,723.1z"/>
	</g>
</g>
</svg>
