<?xml version="1.0" encoding="utf-8"?>
<!-- Generator: Adobe Illustrator 24.0.2, SVG Export Plug-In . SVG Version: 6.00 Build 0)  -->
<svg version="1.1" id="Layer_1" xmlns="http://www.w3.org/2000/svg" xmlns:xlink="http://www.w3.org/1999/xlink" x="0px" y="0px"
	 viewBox="0 0 1500 1500" style="enable-background:new 0 0 1500 1500;" xml:space="preserve">
<style type="text/css">
	.st0{fill:#BFBFBF;}
	.st1{clip-path:url(#SVGID_2_);fill:#FFE6A1;}
	.st2{clip-path:url(#SVGID_2_);}
	.st3{fill:#745020;}
	.st4{opacity:0.1;clip-path:url(#SVGID_2_);}
	.st5{clip-path:url(#SVGID_2_);fill:#FFED9F;}
	.st6{clip-path:url(#SVGID_2_);fill:#F7B981;}
	.st7{clip-path:url(#SVGID_2_);fill:#EAAF75;}
	.st8{clip-path:url(#SVGID_2_);fill:#E8AA1F;}
	.st9{clip-path:url(#SVGID_2_);fill:#FCD495;}
	.st10{clip-path:url(#SVGID_4_);}
	.st11{clip-path:url(#SVGID_6_);}
	.st12{fill:#242422;}
	.st13{fill:#2D2D2C;}
	.st14{fill:#3A3A39;}
	.st15{fill:none;stroke:#B2B2B2;stroke-width:3.9956;stroke-linecap:round;stroke-miterlimit:10;}
	.st16{opacity:0.5;fill:#020202;}
	.st17{fill:#C4C4C4;}
	.st18{fill:url(#SVGID_9_);}
	.st19{fill:url(#SVGID_10_);}
	.st20{fill:url(#SVGID_11_);}
	.st21{fill:#CEB500;}
	.st22{opacity:0.5;}
	.st23{fill:#020202;}
	.st24{fill:#A0510A;}
	.st25{opacity:0.8;}
	.st26{opacity:0.25;}
	.st27{fill:#229982;}
	.st28{fill:#40D3B7;}
	.st29{clip-path:url(#SVGID_2_);fill:#4C4740;}
</style>
<path class="st0" d="M1312.4,1308.4c-53.2,53.2-163.6,99.3-238.9,99.3c-155.2,0-374-63.6-544.8-30.4c-92.5,18-319.5,39.1-386.2-27.5
	c-92.3-92.3-19.5-331.2-19.5-461.7c0-174.5-18.5-216.3-22.5-339.1c-3.4-103.1-8.6-248.5,64.3-321.5
	c75.7-75.7,160.7-111.6,310.3-102.7C648,135.1,764.3,38.6,982,102.4c167.4,49.1,267.6,26.5,337.1,96
	c72.2,72.2,50.1,232.9,46.9,334.9c-4.5,140.7,40.2,265.6,40.2,363.9C1406.2,1021.5,1400.3,1220.5,1312.4,1308.4z"/>
<g>
	<defs>
		<path id="SVGID_1_" d="M1312.4,1308.4c-53.2,53.2-163.6,99.3-238.9,99.3c-155.2,0-374-63.6-544.8-30.4
			c-92.5,18-319.5,39.1-386.2-27.5c-92.3-92.3-19.5-331.2-19.5-461.7c0-174.5-18.5-216.3-22.5-339.1
			c-3.4-103.1-8.6-248.5,64.3-321.5c75.7-75.7,160.7-111.6,310.3-102.7C648,135.1,764.3,38.6,982,102.4
			c167.4,49.1,267.6,26.5,337.1,96c72.2,72.2,50.1,232.9,46.9,334.9c-4.5,140.7,40.2,265.6,40.2,363.9
			C1406.2,1021.5,1400.3,1220.5,1312.4,1308.4z"/>
	</defs>
	<clipPath id="SVGID_2_">
		<use xlink:href="#SVGID_1_"  style="overflow:visible;"/>
	</clipPath>
	<path class="st1" d="M988.3,1399.2c-25.4-125.5-84.1-310.7-102-538.9c-32.1-407.9,124.1-576.3,41.4-651.5
		c-108.3-98.6-353.8,101.3-396.5,452.4c-38.9,320,7,591.1,38.8,738.3L988.3,1399.2z"/>
	<g class="st2">
		<path class="st3" d="M886,860.3c-1.6-18.4-2.9-36.8-3.8-55.3c-0.8-18.5-1.4-36.9-1.5-55.4c-0.1-18.5,0.2-37,0.9-55.4
			c0.7-18.5,1.7-36.9,3.3-55.4c3.1-36.8,7.8-73.6,14-110c6.2-36.5,14-72.6,22.7-108.5c4.3-18,8.9-35.9,13.3-53.8
			c4.4-17.9,8.6-35.9,11.9-54c1.6-9.1,2.9-18.2,3.7-27.3c0.8-9.2,0.9-18.4,0-27.5c-0.5-4.6-1.2-9.1-2.4-13.5c-0.5-2.2-1.3-4.4-2-6.6
			c-0.4-1.1-0.8-2.1-1.3-3.2l-0.6-1.6l-0.7-1.5c-1.9-4.2-4.3-8-7-11.7l-2.1-2.7c-0.7-0.9-1.5-1.7-2.3-2.6L931,213
			c-0.4-0.4-0.8-0.8-1.2-1.2l-2.5-2.4c-6.7-6.2-14.4-11.5-22.6-15.5c-8.2-4-17.1-6.8-26.2-8.2c-9.1-1.5-18.3-1.7-27.4-0.9
			c-9.2,0.8-18.2,2.5-27.1,5c-8.8,2.5-17.5,5.7-25.9,9.5c-8.4,3.8-16.5,8.2-24.4,12.9c-7.9,4.8-15.5,9.9-22.9,15.4
			c-7.4,5.5-14.6,11.3-21.5,17.3c-13.9,12.1-26.8,25.2-39,39c-12.1,13.8-23.5,28.3-34.2,43.3c-10.7,15-20.5,30.6-29.8,46.5
			c-9.2,16-17.7,32.3-25.6,48.9C585,456,572,490.6,561.4,525.9c-10.6,35.3-18.6,71.3-24.3,107.7c-0.7,4.6-1.4,9.1-2,13.7l-1.8,13.7
			l-3.2,27.5l-2.8,27.5l-2.5,27.6c-3.1,36.8-5.2,73.6-6.3,110.5c-2.3,73.8-0.7,147.7,4.1,221.4l-0.4,0
			c-6.1-73.6-8.5-147.6-6.8-221.5c0.9-36.9,2.7-73.9,5.5-110.7c0.8-9.2,1.5-18.4,2.3-27.6L526,688l3.1-27.6l1.8-13.8
			c0.6-4.6,1.3-9.2,2-13.7c2.8-18.3,6.3-36.5,10.4-54.6c4-18.1,8.7-36,14.1-53.7c10.7-35.4,24-70.1,39.9-103.6
			c15.9-33.4,34.6-65.6,56.2-95.7c10.8-15,22.4-29.5,34.7-43.3c12.4-13.8,25.6-26.8,39.6-38.9c7-6,14.3-11.8,21.8-17.2
			c7.5-5.4,15.2-10.5,23.2-15.3c8-4.7,16.2-9,24.7-12.7c8.4-3.8,17.2-7,26.1-9.5c8.9-2.5,18.1-4.2,27.3-5c9.2-0.8,18.6-0.5,27.8,1
			c9.2,1.5,18.1,4.3,26.5,8.3c8.4,4,16.1,9.3,23,15.6l2.5,2.4c0.4,0.4,0.8,0.8,1.2,1.2l1.2,1.3c0.8,0.9,1.6,1.7,2.3,2.6l2.2,2.8
			c2.8,3.7,5.3,7.7,7.2,12l0.8,1.6l0.7,1.6c0.4,1.1,0.9,2.2,1.3,3.3c0.7,2.2,1.5,4.4,2.1,6.7c1.2,4.5,2,9.1,2.5,13.7
			c1,9.2,1,18.6,0.3,27.8c-0.7,9.2-1.9,18.4-3.5,27.6c-3.1,18.3-7.2,36.3-11.4,54.3l-12.8,53.9c-4.2,18-8.3,36-12.1,54
			c-3.8,18.1-7.3,36.2-10.4,54.3c-6.3,36.3-11.2,72.9-14.4,109.7c-6.5,73.5-6.7,147.5-1.6,221.2L886,860.3z"/>
	</g>
	<g class="st4">
		
			<image style="overflow:visible;" width="1440" height="4753" xlink:href="48C76DD8918331C.png"  transform="matrix(0.24 0 0 0.24 504.3781 203.7122)">
		</image>
	</g>
	<path class="st5" d="M904.5,1398.8c-0.1-31.2,62.3-323.4,286.2-323.4c53.4,0,134,31.2,208.8,26.7l-0.1,26.1c0,0-70.9,5.5-167.8-6.1
		c-165.5-19.8-192.4,276.8-192.4,276.8H904.5z"/>
	<path class="st6" d="M912.8,1417.4c0-51.3,64.3-330,268.3-327.3c53.4,0.7,143.2,37.3,218.1,33.4l0.1,10.8c0,0-49.5,3.6-151.4,1.5
		c-189.5-3.9-176.7,297.3-176.7,297.3L912.8,1417.4z"/>
	<g class="st2">
		<path class="st3" d="M904.3,1398.8c-0.1-3.6,0.3-7.1,0.7-10.7c0.4-3.5,1-7.1,1.5-10.6c1.2-7,2.6-14,4.2-20.9
			c1.6-6.9,3.4-13.8,5.3-20.7c1-3.4,1.9-6.9,2.9-10.3c1-3.4,2.1-6.8,3.2-10.2c8.8-27.1,19.7-53.6,33.3-78.6
			c13.6-25.1,29.6-48.8,48-70.5c9.2-10.9,19-21.2,29.6-30.8c10.5-9.6,21.8-18.4,33.8-26.2c12-7.8,24.7-14.4,38-19.8
			c13.3-5.4,27.1-9.4,41.2-12.1c14.1-2.7,28.4-4.1,42.7-4.2c7.2-0.1,14.4,0.3,21.5,1.2c7.1,0.9,14.2,2.1,21.2,3.6
			c14,2.9,27.7,6.4,41.6,9.5c13.8,3.1,27.7,5.9,41.7,7.9c14,2.2,28.1,3.7,42.2,4.7c7.1,0.5,14.2,0.9,21.2,1.2l10.6,0.3l10.6,0.2
			l0,0.4c-14.2,0.5-28.4,0.5-42.7-0.1c-14.2-0.6-28.4-1.8-42.6-3.6c-14.1-1.9-28.2-4.4-42.1-7.3c-7-1.5-13.9-3-20.8-4.6
			c-6.9-1.6-13.8-3.1-20.8-4.5c-13.9-2.8-27.8-4.8-41.8-4.6c-14.1,0.1-28.2,1.3-42,3.8c-13.9,2.5-27.5,6.4-40.6,11.4
			c-13.1,5.1-25.8,11.4-37.9,18.8c-12.1,7.4-23.4,15.9-34.1,25.2c-10.6,9.4-20.5,19.6-29.7,30.4c-9.1,10.8-17.5,22.4-25.1,34.3
			c-7.6,11.9-14.6,24.3-21.1,36.9c-12.9,25.2-24,51.3-33.2,78.1c-4.5,13.4-8.8,26.9-12.3,40.7c-1.8,6.9-3.4,13.8-4.9,20.7
			c-0.7,3.5-1.4,6.9-2,10.4c-0.5,3.5-1.1,7-1.3,10.5L904.3,1398.8z"/>
	</g>
	<g class="st2">
		<path class="st3" d="M1005.7,1349.7c5-19,10.6-37.8,17-56.3c3.2-9.3,6.6-18.5,10.3-27.6c3.8-9.1,7.7-18.1,12.1-26.9
			c4.4-8.8,9-17.4,14.1-25.8c5-8.4,10.4-16.6,16.3-24.5c11.7-15.8,25.2-30.3,41.1-42c7.9-5.8,16.4-11,25.3-15.2
			c4.4-2.1,9-4,13.7-5.6c4.6-1.7,9.4-3.1,14.1-4.3c19.1-4.9,39-6.2,58.7-4.7c9.8,0.8,19.5,2.2,29.2,3.7c9.7,1.5,19.4,3,29.1,4.3
			c9.7,1.3,19.4,2.3,29.2,3c9.8,0.8,19.5,1.2,29.3,1.4l0,0.2c-9.8,0.1-19.6-0.2-29.4-0.7c-9.8-0.5-19.6-1.4-29.3-2.5
			c-9.7-1.1-19.4-2.6-29.1-3.9c-9.7-1.4-19.4-2.7-29.1-3.4c-9.7-0.7-19.5-0.8-29.2,0c-9.7,0.8-19.4,2.3-28.8,4.7
			c-18.9,4.7-36.9,12.9-52.8,24.3c-8,5.6-15.4,12.1-22.3,18.9c-6.9,6.9-13.2,14.4-19.1,22.3c-2.9,3.9-5.7,8-8.4,12.1
			c-2.7,4.1-5.3,8.3-7.7,12.5c-4.9,8.5-9.3,17.2-13.5,26c-1,2.2-2.1,4.4-3.1,6.7c-1,2.2-2,4.5-3,6.7c-1.9,4.5-3.9,9-5.7,13.5
			c-3.7,9-7.2,18.2-10.5,27.4c-6.6,18.4-12.6,37.1-18.3,55.8L1005.7,1349.7z"/>
	</g>
	<path class="st5" d="M557.8,1399.2c32.4-162-114.4-341.1-219.5-309.4c-114.5,34.6,63.4-61,144-72.7
		c83.2-12.1,313.1,57.3,342.6,382.3L557.8,1399.2z"/>
	<path class="st7" d="M518.5,1399.2c-19.2-207.8-53.9-283.5-197.5-309.4c0,0,64.7-32.1,140.3-62.4c71.7-28.7,314.6,42.1,340.3,371.8
		H518.5z"/>
	<g class="st2">
		<path class="st3" d="M518.3,1399.2c-1.2-16.9-2.6-33.7-4.5-50.5c-0.5-4.2-1-8.4-1.5-12.6c-0.5-4.2-1.1-8.4-1.7-12.5
			c-1.2-8.3-2.5-16.7-3.9-25c-1.4-8.3-2.9-16.6-4.6-24.9c-0.4-2.1-0.9-4.1-1.4-6.2c-0.5-2.1-0.9-4.1-1.5-6.2c-0.5-2.1-1-4.1-1.6-6.1
			c-0.5-2-1.1-4.1-1.7-6.1c-4.7-16.2-11-32-18.6-47c-7.7-15-16.6-29.3-27.1-42.4c-10.5-13.1-22.6-24.8-36.1-34.6
			c-13.5-9.9-28.4-17.7-44.2-23.5c-15.7-5.8-32.3-9.4-49.1-11.6l0-0.4c16.9,0.8,33.8,3.7,50.1,9c16.2,5.3,31.7,13.1,45.6,23
			c6.9,5,13.5,10.5,19.6,16.5c6.1,6,11.8,12.4,17,19.2c10.5,13.5,19.1,28.3,26.1,43.8c3.6,7.7,6.7,15.6,9.7,23.5
			c3,7.9,5.7,16,8.2,24.1c0.6,2,1.3,4,1.9,6.1c0.6,2,1.2,4.1,1.8,6.1c0.6,2,1.2,4.1,1.7,6.1c0.6,2,1.1,4.1,1.7,6.1
			c2.1,8.2,4.1,16.5,5.7,24.8c1.6,8.3,3,16.7,4.1,25.1c0.5,4.2,1,8.4,1.5,12.6c0.4,4.2,0.8,8.4,1.2,12.7c1.4,16.9,2,33.9,1.8,50.8
			L518.3,1399.2z"/>
	</g>
	<path class="st8" d="M583.9,1041c-89.9-35.8-174.9,14.8-217.3,123.1s-108.3,146-153,150.7c-44.7,4.7-95.7-15.6-95.7-15.6
		s59.1-18.2,93.6-101.6c40-96.5,51.8-121.8,98.7-139.6c47-17.8,117.7-35.7,182.1-41C539.5,1013.3,583.9,1041,583.9,1041z"/>
	<path class="st9" d="M576.7,1029.8c-61.9-31.7-161.2-1.6-219.1,134.3c-43,101-103.3,137.4-135.9,142.8c-51.8,8.7-98.6-27-98.6-27
		s54,1.1,88.6-82.4c40-96.5,51.8-121.8,98.7-139.6c47-17.8,102.6-34.7,162.7-41.5C541.2,1008.8,576.7,1029.8,576.7,1029.8z"/>
	<g class="st2">
		<path class="st3" d="M443.4,1058c13.9,2.6,27.2,7.8,39.6,14.6c0.8,0.4,1.6,0.8,2.3,1.3l2.3,1.4l4.5,2.8c0.8,0.4,1.5,0.9,2.2,1.4
			l2.2,1.5l4.4,3c2.8,2.1,5.6,4.3,8.4,6.5l4,3.4c1.3,1.2,2.7,2.3,4,3.5l3.8,3.6c1.3,1.2,2.6,2.4,3.8,3.7l3.7,3.8l1.8,1.9l1.8,2
			l3.5,4l1.8,2l1.7,2l3.4,4.1l1.7,2l1.6,2.1c8.7,11.1,16.7,22.8,23.9,34.9c7.3,12.1,13.7,24.7,19.3,37.7c5.5,13,10.3,26.3,14,40
			c3.8,13.6,6.7,27.5,8.6,41.5c1.9,14,2.7,28.1,2.5,42.2l-0.2,0c-0.7-28.2-5.2-56.1-12.8-83.1c-3.8-13.5-8.4-26.8-13.8-39.8
			c-5.4-13-11.6-25.6-18.5-37.9c-6.9-12.2-14.7-24-23.5-35c-4.4-5.5-9-10.8-13.9-15.9l-1.8-1.9l-1.9-1.8l-3.8-3.7
			c-1.2-1.3-2.5-2.4-3.8-3.6l-3.9-3.5c-10.5-9.3-21.8-17.8-34-24.7c-12.2-6.9-25.2-12.4-38.9-15.7L443.4,1058z"/>
	</g>
	<g class="st2">
		<path class="st3" d="M295.1,1130.6c-8.4,17.3-14.7,35.5-21.8,53.5c-3.6,9-7.3,17.8-11.2,26.7c-3.9,8.8-7.9,17.6-12.6,26
			c-4.6,8.5-10,16.6-16.4,23.9c-6.3,7.3-13.6,13.9-21.9,19.2c-8.2,5.3-17.3,9.1-26.6,11.7c-9.4,2.5-19,3.8-28.7,4l0-0.2
			c9.6-0.9,19.1-2.5,28.2-5.3c9.2-2.8,17.9-6.8,25.9-12c8-5.2,15.2-11.5,21.6-18.6c6.4-7.1,11.9-15,16.9-23.2
			c4.9-8.2,9.2-16.9,13-25.7c3.8-8.9,7-17.9,10.3-27c3.3-9,6.8-18,10.5-26.9c3.8-8.9,7.8-17.7,12.7-26L295.1,1130.6z"/>
	</g>
	<path class="st8" d="M100.5,1255.9c26,29.3,58.7,57.6,112.6,59.1c0,0-58.8-2.5-112.6-4.2V1255.9z"/>
	<g class="st2">
		<path class="st3" d="M191.3,1233.4c5.1-7.4,9.2-15.3,13.2-23.3c4-8,7.7-16.1,11.4-24.2c7.4-16.3,14.4-32.7,21.7-49
			c1.8-4.1,3.7-8.1,5.6-12.2c1.9-4,3.9-8.1,6.3-11.9c2.2-3.8,4.4-7.8,6.7-11.6c2.3-3.8,4.8-7.6,7.6-11.1
			c5.6-7.1,12.2-13.3,19.5-18.6c3.7-2.6,7.5-5,11.4-7.2c3.9-2.2,8-4.2,12.1-6c8.2-3.7,16.7-6.6,25.2-9.2l25.7-7.6
			c17.2-5,34.3-9.9,51.7-14.1c17.3-4.3,34.9-7.7,52.7-9.9c17.7-2.3,35.6-3.4,53.5-3.5c9,0.1,17.9,1.4,26.7,3.1
			c8.8,1.8,17.4,4.2,25.9,7c17,5.6,33.5,12.9,49.3,21.2c15.8,8.3,31,17.9,45.5,28.4c14.5,10.5,28.2,22.1,41.2,34.5
			c12.9,12.4,25,25.7,36,39.8c11,14.1,21,29,29.8,44.6c8.9,15.5,16.5,31.8,22.9,48.5c3.2,8.4,6,16.8,8.6,25.4
			c2.5,8.6,4.7,17.2,6.7,26l-0.2,0c-2.1-8.7-4.4-17.3-7-25.8c-2.7-8.5-5.7-16.9-8.9-25.2c-6.6-16.6-14.3-32.7-23.2-48.1
			c-17.8-30.9-40.3-59-66-83.6c-25.7-24.7-54.8-45.7-86.2-62.6c-15.7-8.3-32-15.6-48.9-21.3c-4.2-1.4-8.5-2.7-12.8-3.9
			c-4.3-1.2-8.6-2.2-13-3.2c-8.7-1.8-17.5-3.1-26.4-3.3c-17.8-0.1-35.7,0.8-53.4,2.9c-17.7,2.1-35.3,5.4-52.6,9.5
			c-17.3,4.2-34.5,9.2-51.6,14.4c-17,5.4-34.4,10-50.5,17.3c-4.1,1.8-8,3.8-11.9,6c-3.9,2.2-7.6,4.5-11.2,7.1
			c-7.2,5.1-13.8,11.2-19.3,18.1c-2.7,3.5-5.2,7.2-7.5,10.9c-2.3,3.8-4.5,7.7-6.7,11.6c-2.3,3.8-4.3,7.7-6.3,11.8
			c-1.9,4-3.8,8.1-5.7,12.1c-7.4,16.2-14.5,32.6-22.1,48.8c-3.8,8.1-7.7,16.1-11.7,24.1c-4.1,7.9-8.4,15.8-13.5,23.1L191.3,1233.4z"
			/>
	</g>
	<g class="st2">
		<g>
			<defs>
				<path id="SVGID_3_" d="M926.2,806.2c15.9-41.7,8.7-90.5-28.1-120c-15.7-12.6-14.4-28.7-20.6-36.4c-5-6.3-10.8-11.8-18-13.7
					c-55-14.4-107.4-14.3-124.8-12.4c-25.4,2.8-52.9,7.1-69.9,26.1c-6.2,6.9-10.7,15.1-16.7,22.1c-6,7-14.2,13-23.5,13
					c-6.4,0-13.9-2.4-18.3,2.2c-1.9,2-2.6,4.9-3.2,7.7c-1.6,7.6-3.2,15.4-2.1,23.1c1.1,7.7,5.7,15.3,12.9,18
					c10.7,4,15.2,3,17.6,15.5c2.1,11.5,1.1,23.2,2.7,34.7c3.4,24,18,46.4,15.5,70.5c-0.3,2.9-0.9,6-2.7,8.3
					c-1.7,2.2-4.3,3.5-6.9,4.6c-7.2,2.9-15,4.1-22.8,3.5c-2.2-0.2-4.7-0.4-6.4,1c-0.7,0.6-1.2,1.5-1.6,2.3
					c-6,12.7,4.6,27.7,17.2,33.9c12.6,6.1,27.3,7,40.2,12.5c14,5.9,25.2,16.8,35.1,28.2c10.3,11.9,20.8,25.6,36.2,29.2
					c19,4.5,37.5-8,53.6-19c15.6-10.6,31.8-20.5,48.4-29.5c11.5-6.2,39.4-13.6,45.5-24.9c3.3-6,2.8-16.6,5-23.4
					c2.8-8.9,6.7-17.5,10.8-25.9C909.8,840.4,919.5,824,926.2,806.2z"/>
			</defs>
			<clipPath id="SVGID_4_">
				<use xlink:href="#SVGID_3_"  style="overflow:visible;"/>
			</clipPath>
			<g class="st10">
				<g>
					<defs>
						
							<rect id="SVGID_5_" x="560.8" y="611.9" transform="matrix(0.129 -0.9916 0.9916 0.129 -117.8739 1440.9441)" width="401.1" height="351.3"/>
					</defs>
					<clipPath id="SVGID_6_">
						<use xlink:href="#SVGID_5_"  style="overflow:visible;"/>
					</clipPath>
					<g class="st11">
						<defs>
							
								<rect id="SVGID_7_" x="560.8" y="611.9" transform="matrix(0.129 -0.9916 0.9916 0.129 -117.8739 1440.9441)" width="401.1" height="351.3"/>
						</defs>
						<clipPath id="SVGID_8_">
							<use xlink:href="#SVGID_7_"  style="overflow:visible;"/>
						</clipPath>
						<g style="clip-path:url(#SVGID_8_);">
							
								<image style="overflow:visible;" width="834" height="924" xlink:href="48C76DD8918331C.jpg"  transform="matrix(0.48 0 0 0.48 561.2581 565.6322)">
							</image>
						</g>
					</g>
				</g>
			</g>
		</g>
		<path class="st12" d="M712.6,922.3c2.8-2.6,2-8-1.8-11.9c-3.8-4-9.1-5-11.8-2.4L677.9,928l13.6,14.3L712.6,922.3z"/>
		<path class="st13" d="M712.6,922.3c2.8-2.6,2-8-1.8-11.9c-3.8-4-9.1-5-11.8-2.4L677.9,928l13.6,14.3L712.6,922.3z"/>
		<g>
			<path class="st12" d="M697.4,944.5c4.4-4.2,3.1-12.6-2.8-18.9c-5.9-6.3-14.3-8-18.7-3.8l-6.8,6.4l21.5,22.7L697.4,944.5z"/>
			<g>
				<path class="st12" d="M672,947.2c5.9,6.3,14.3,8,18.7,3.8c4.4-4.2,3.1-12.6-2.8-18.9c-5.9-6.3-14.3-8-18.7-3.8
					S666,940.9,672,947.2z"/>
				<path class="st12" d="M697.4,944.5c4.4-4.2,3.1-12.6-2.8-18.9c-5.9-6.3-14.3-8-18.7-3.8l-6.8,6.4l21.5,22.7L697.4,944.5z"/>
				<path class="st14" d="M672,947.2c5.9,6.3,14.3,8,18.7,3.8c4.4-4.2,3.1-12.6-2.8-18.9c-5.9-6.3-14.3-8-18.7-3.8
					S666,940.9,672,947.2z"/>
				<path class="st12" d="M673.9,945.3c4.2,4.5,10.2,5.7,13.3,2.7c3.1-3,2.2-9-2-13.5s-10.2-5.7-13.3-2.7
					C668.8,934.8,669.7,940.9,673.9,945.3z"/>
			</g>
		</g>
		<path class="st13" d="M875.6,907.8c-8.2-8.7-20.3-13.2-32.2-13.4c-11.9-0.3-23.7,3.3-34.4,8.7c-9.3,4.7-18,10.7-24.7,18.7
			c-6.7,7.9-11.4,17.8-12.3,28.1L875.6,907.8z"/>
		<polygon class="st13" points="609.3,695.3 641.8,708.1 648.6,726.7 630.2,730.3 603.7,720 		"/>
		<g>
			<path class="st15" d="M605.1,691.1c6.4,1.6,12.7,3.8,18.4,7.1c3.2,1.8,6.3,4.3,7.5,7.7c1,3,0.3,6.3-0.4,9.4
				c-0.9,3.6-2.1,7.4-5.2,9.4c-2.9,2-6.8,1.8-10.3,1.3c-5.7-0.8-11.2-2.4-16.5-4.7"/>
			<line class="st15" x1="605.1" y1="691.1" x2="598.6" y2="721.4"/>
		</g>
		<path class="st12" d="M609.3,695.3c-48.7-11.1-79.9-36.3-79-40.7c-2.4,10.3-2.2,14.9-3.5,25.4c-0.1,0.9,28.4,28,77,40L609.3,695.3
			z"/>
		
			<ellipse transform="matrix(0.3777 -0.9259 0.9259 0.3777 -242.1069 1142.7074)" class="st12" cx="729.1" cy="751.5" rx="60.2" ry="60.2"/>
		
			<ellipse transform="matrix(0.3777 -0.9259 0.9259 0.3777 -242.1069 1142.7074)" class="st16" cx="729.1" cy="751.5" rx="60.2" ry="60.2"/>
		<g>
			<path class="st17" d="M729,691.3c2.6,0,5.2,0.2,7.8,0.5c33,4.3,56.2,34.5,51.9,67.4c-3.9,30.3-29.8,52.4-59.6,52.4
				c-2.6,0-5.2-0.2-7.8-0.5c-33-4.3-56.2-34.5-51.9-67.4C673.4,713.4,699.2,691.3,729,691.3 M729,689.2v2.1V689.2L729,689.2
				c-31.1,0-57.7,23.3-61.7,54.2c-4.4,34.1,19.7,65.4,53.7,69.8c2.7,0.3,5.4,0.5,8.1,0.5c31.1,0,57.7-23.3,61.7-54.2
				c4.4-34.1-19.7-65.4-53.7-69.8C734.4,689.4,731.7,689.2,729,689.2L729,689.2z"/>
		</g>
		<g>
			<g>
				
					<linearGradient id="SVGID_9_" gradientUnits="userSpaceOnUse" x1="732.5994" y1="700.6243" x2="781.8947" y2="809.715" gradientTransform="matrix(-0.9916 -0.129 -0.129 0.9916 1575.327 99.3777)">
					<stop  offset="0" style="stop-color:#007F6F"/>
					<stop  offset="1" style="stop-color:#07182A"/>
				</linearGradient>
				<path class="st18" d="M669.4,743.7c4.3-33,34.5-56.2,67.4-51.9c5.1,0.7,10,1.9,14.5,3.8c22.5,11.1,36.5,35.5,33.1,61.8
					c-4.3,33-34.5,56.2-67.4,51.9c-5.1-0.7-10-1.9-14.5-3.8C680.1,794.4,666,769.9,669.4,743.7z"/>
			</g>
		</g>
		<g>
			
				<linearGradient id="SVGID_10_" gradientUnits="userSpaceOnUse" x1="560.2714" y1="735.9256" x2="633.655" y2="735.9256" gradientTransform="matrix(-0.9916 -0.129 -0.129 0.9916 1575.327 99.3777)">
				<stop  offset="0" style="stop-color:#007F6F"/>
				<stop  offset="1" style="stop-color:#07182A"/>
			</linearGradient>
			<path class="st19" d="M853.5,756.2c3.5,30.5,22.1,53.3,41.3,51.1c19.3-2.2,32.1-28.8,28.5-59.2c-3.5-30.5-22.1-53.3-41.3-51.1
				C862.7,699.2,849.9,725.7,853.5,756.2z"/>
		</g>
		<g>
			<path class="st12" d="M916.9,749.4c-3.5-29.8-21.3-52.3-40.1-51.2c1.7-0.6,3.4-1,5.2-1.2c19.3-2.2,37.8,20.6,41.3,51.1
				c3.5,30.5-9.2,57-28.5,59.2c-0.4,0-0.8,0.1-1.3,0.1C909.9,801.4,920.1,777,916.9,749.4z"/>
		</g>
		<g>
			
				<linearGradient id="SVGID_11_" gradientUnits="userSpaceOnUse" x1="508.4272" y1="910.4792" x2="695.327" y2="1044.6965" gradientTransform="matrix(-0.9916 -0.129 -0.129 0.9916 1575.327 99.3777)">
				<stop  offset="0" style="stop-color:#404041"/>
				<stop  offset="3.502446e-03" style="stop-color:#464340"/>
				<stop  offset="3.428230e-02" style="stop-color:#745837"/>
				<stop  offset="6.613880e-02" style="stop-color:#9C6A2F"/>
				<stop  offset="9.866737e-02" style="stop-color:#BD7829"/>
				<stop  offset="0.1321" style="stop-color:#D68424"/>
				<stop  offset="0.1667" style="stop-color:#E88C21"/>
				<stop  offset="0.2033" style="stop-color:#F3901F"/>
				<stop  offset="0.2452" style="stop-color:#F6921E"/>
				<stop  offset="0.3346" style="stop-color:#E5891E"/>
				<stop  offset="0.5125" style="stop-color:#B7701F"/>
				<stop  offset="0.7595" style="stop-color:#6F491F"/>
				<stop  offset="1" style="stop-color:#231F20"/>
			</linearGradient>
			<path class="st20" d="M744.9,996c-1.4-31.1,36.2-66.2,89.5-81.5c50.4-14.5,98.3-6.4,116.3,17.5l0.3-0.1l0.4,1
				c2.4,3.4,4.3,7.1,5.4,11.1c0.4,1.3,0.7,2.7,0.9,4l25.7,64l-216.7,62.6l-19.1-66.7L744.9,996z"/>
			<path class="st12" d="M744.7,996c-0.2-5.3,0.6-10.6,2.3-15.6c1.7-5,4.1-9.8,6.9-14.2c5.8-8.9,13.2-16.6,21.4-23.4
				c16.4-13.4,35.8-23.2,56.1-29.3c20.3-6.1,41.8-8.9,63-7.1c10.6,0.9,21.1,3,31,7c4.9,2,9.7,4.4,14.1,7.4c4.4,3,8.4,6.6,11.6,10.9
				l-0.7-0.2l0.3-0.1l0.5-0.2l0.2,0.5l0.4,1l-0.1-0.1c1.6,2.3,3,4.7,4.1,7.3c1.1,2.6,1.9,5.3,2.3,8.1l0-0.1l6.5,16
				c2.1,5.3,4.4,10.6,6.6,15.9l13.2,31.8l0.5,1.3l-1.4,0.4l-13.5,4.1l-13.5,4l-27,8l-54.1,15.9l-27.1,7.8l-27.1,7.7
				c-18.1,5.1-36.2,10.2-54.4,15l-1.3,0.3l-0.3-1.3l-10.5-39.4c-1.7-6.6-3.6-13.1-5.4-19.7l-1.4-4.9l-0.7-2.5
				c-0.2-0.8-0.4-1.7-0.6-2.5L744.7,996z M745.1,995.9l2.2,9.9c0.2,0.8,0.3,1.7,0.6,2.5l0.7,2.4l1.4,4.9c2,6.5,3.9,13,5.9,19.5
				l12,39l-1.6-0.9c17.9-5.6,35.9-11,54-16.3l27.1-7.9l27.1-7.8l54.2-15.4l27.1-7.6l13.6-3.8l13.6-3.7l-0.8,1.7l-12.5-32.2
				c-2.1-5.4-4.1-10.7-6.3-16.1l-6.4-16l0-0.1l0-0.1c-0.4-2.7-1.1-5.3-2.2-7.8c-1-2.5-2.4-4.9-4-7.1l0-0.1l0-0.1l-0.4-1l0.8,0.4
				l-0.3,0.1l-0.4,0.1l-0.3-0.3c-3.1-4.1-7.1-7.7-11.4-10.5c-4.3-2.9-9.1-5.2-14-6.9c-9.8-3.6-20.2-5.3-30.6-5.9
				c-10.4-0.6-20.9,0-31.2,1.3c-10.3,1.4-20.6,3.6-30.5,6.6c-5,1.5-9.9,3.2-14.8,5c-4.9,1.9-9.7,3.9-14.4,6.2
				c-9.4,4.5-18.5,9.8-26.8,16.1c-8.3,6.3-15.9,13.7-21.9,22.3c-2.9,4.3-5.4,9-7.1,14C745.8,985.5,744.9,990.7,745.1,995.9z"/>
		</g>
		<g>
			
				<ellipse transform="matrix(0.9613 -0.2755 0.2755 0.9613 -253.5965 281.4621)" class="st21" cx="874.9" cy="1043.3" rx="113.6" ry="64.4"/>
			<path class="st12" d="M765.9,1074.5c1.7,5.7,4.7,11,8.7,15.3c4,4.4,8.8,8,14,10.8c10.4,5.6,22.1,8.7,33.8,10.1
				c5.9,0.7,11.8,1,17.7,1.1c5.9,0,11.8-0.2,17.7-0.9c5.9-0.6,11.7-1.4,17.5-2.5c5.8-1.1,11.6-2.5,17.2-4.1
				c5.7-1.6,11.3-3.4,16.9-5.5c5.5-2.1,11-4.4,16.3-7c10.6-5.2,20.8-11.5,29.9-19c9.1-7.5,17.3-16.4,23-26.7c0.8-1.3,1.3-2.6,2-3.9
				c0.6-1.3,1.2-2.7,1.7-4.1c0.4-1.4,1-2.8,1.3-4.2l0.6-2.1l0.4-2.2c1.1-5.8,0.7-11.8-0.9-17.4c-1.7-5.6-4.6-10.8-8.6-15.1
				c-3.9-4.3-8.7-7.9-13.8-10.7c-5.1-2.8-10.6-5-16.3-6.7c-5.6-1.7-11.4-2.8-17.3-3.6c-11.7-1.5-23.6-1.6-35.3-0.4
				c-5.9,0.6-11.7,1.4-17.5,2.5c-5.8,1.1-11.5,2.5-17.2,4.1c-5.7,1.6-11.3,3.5-16.8,5.6c-5.5,2.1-10.9,4.5-16.2,7.1
				c-5.3,2.6-10.5,5.5-15.5,8.6c-5,3.2-9.8,6.5-14.4,10.3c-9.1,7.4-17.4,16.2-23.3,26.5c-2.9,5.1-5.1,10.7-6.1,16.5
				C764,1062.8,764.3,1068.8,765.9,1074.5z M765.7,1074.6c-1.6-5.7-1.9-11.8-0.9-17.7l0.4-2.2l0.6-2.2c0.3-1.5,0.9-2.8,1.3-4.3
				c0.5-1.4,1.1-2.8,1.7-4.1c0.7-1.3,1.2-2.7,2-4c5.7-10.5,13.9-19.5,22.9-27.2c9.1-7.7,19.2-14.2,29.9-19.6
				c10.6-5.4,21.9-9.6,33.3-13c5.7-1.6,11.5-3,17.4-4.2c5.9-1.1,11.8-2,17.7-2.5c11.9-1.1,23.9-1,35.8,0.6
				c11.8,1.6,23.6,4.9,34.1,10.8c5.2,2.9,10.1,6.6,14.1,11.1c4.1,4.4,7,9.9,8.7,15.7c1.5,5.8,1.8,12,0.7,17.9
				c-1.1,5.9-3.3,11.5-6.2,16.7c-2.9,5.2-6.4,10.1-10.4,14.5c-3.9,4.5-8.2,8.6-12.8,12.4c-4.6,3.8-9.4,7.3-14.4,10.5
				c-5,3.3-10.2,6.2-15.5,8.9c-5.3,2.7-10.7,5.2-16.3,7.3c-5.5,2.2-11.2,4.1-16.9,5.8c-11.5,3.3-23.2,5.7-35.1,6.7
				c-11.9,1.1-23.9,1-35.7-0.7c-11.8-1.7-23.5-5-33.8-10.9c-1.3-0.7-2.5-1.6-3.8-2.3c-1.2-0.8-2.4-1.7-3.6-2.6
				c-1.1-1-2.3-1.8-3.4-2.9l-1.6-1.5l-1.5-1.6C770.3,1085.7,767.4,1080.3,765.7,1074.6z"/>
		</g>
		<g class="st22">
			<path class="st23" d="M954.7,960.9c-7.7-4.2-15.9-7-24.3-8.8c-8.4-1.9-17.1-2.7-25.7-2.9c-8.6-0.2-17.2,0.3-25.8,1.4
				c-8.6,1.1-17,2.7-25.4,4.9c-8.4,2.1-16.6,4.7-24.6,7.9c-8,3.1-15.8,6.8-23.4,11c-15,8.4-29.1,19-40,32.6
				c4.7-7.4,10.6-14,17.1-19.9c6.5-5.9,13.7-11.1,21.2-15.6c15.1-9.1,31.6-15.8,48.6-20.1c8.5-2.1,17.2-3.8,26-4.8
				c8.8-0.9,17.6-1.2,26.4-0.7c8.8,0.5,17.5,1.8,26,4.2C939.3,952.5,947.5,955.9,954.7,960.9z"/>
		</g>
		
			<ellipse transform="matrix(0.9613 -0.2755 0.2755 0.9613 -254.3038 281.4693)" class="st24" cx="874.6" cy="1045.8" rx="100.1" ry="56.8"/>
		
			<ellipse transform="matrix(0.9613 -0.2755 0.2755 0.9613 -254.6174 281.6308)" class="st23" cx="875" cy="1047" rx="87.6" ry="49.7"/>
		<g class="st25">
			<path class="st16" d="M885.8,1089c46.5-13.3,78-45.5,70.5-71.9c-0.2-0.6-0.4-1.2-0.6-1.8c1.5,2.4,2.7,4.9,3.5,7.6
				c7.6,26.4-24,58.5-70.5,71.9c-45.4,13-88.2,3.2-97.2-21.8C804.6,1093.6,844.1,1100.9,885.8,1089z"/>
		</g>
		<g>
			<path class="st16" d="M866.8,1020.6c18-5.2,35-1.1,37.9,9.1l2.4,6.6c0.2,0.4,0.4,0.9,0.5,1.3c2.9,10.2-9.3,22.7-27.3,27.8
				c-18,5.2-35,1.1-37.9-9.1l-2.9-7.9C836.6,1038.2,848.8,1025.8,866.8,1020.6z"/>
			<path class="st16" d="M842.4,1056.3c2.9,10.2,19.9,14.3,37.9,9.1c18-5.2,30.2-17.6,27.3-27.8c-2.9-10.2-19.9-14.3-37.9-9.1
				C851.7,1033.7,839.5,1046.1,842.4,1056.3z"/>
			
				<ellipse transform="matrix(0.9613 -0.2755 0.2755 0.9613 -254.8226 281.6296)" class="st16" cx="874.9" cy="1047.7" rx="29" ry="16.5"/>
		</g>
		<g class="st26">
			<path class="st27" d="M796.8,647.1c0.5,2.6,1.2,5.2,2.2,7.6c0.9,2.5,2.1,4.8,3.3,7.2c2.5,4.6,5.3,9.1,8,13.7
				c1.4,2.3,2.6,4.7,3.8,7.1c0.6,1.2,1.2,2.4,1.7,3.7l1.5,3.8c1.1,2.5,1.8,5.1,2.7,7.6c0.5,1.3,0.7,2.6,1.1,3.9
				c0.3,1.3,0.7,2.6,1,3.9c2.5,10.5,3.6,21.3,4.2,31.9c0.6,10.7,0.4,21.4,0.4,32c-0.4,21.2,0.2,42.2,2.2,63.2
				c1.1,10.5,2.1,20.9,5.5,30.8c1.6,5,3.4,10.1,4.3,15.5c0.4,2.7,0.6,5.4,0.2,8.1c-0.4,2.7-1.3,5.3-2.7,7.5c1.2-2.4,1.7-5,1.8-7.6
				c0.1-2.6-0.3-5.2-1-7.7c-1.3-5-3.4-9.9-5.4-14.8c-1-2.5-1.9-5-2.7-7.6c-0.8-2.6-1.4-5.2-2-7.8c-1.1-5.3-1.9-10.6-2.6-15.8
				c-0.8-5.3-1.4-10.6-1.9-15.9c-0.5-5.3-0.9-10.6-1.2-16c-0.6-10.7-0.6-21.4-0.5-32c0.1-10.6,0.3-21.2-0.1-31.7
				c-0.3-10.5-1.2-20.9-3.1-31.2c-2-10.2-5.2-20.2-9.9-29.6c-2.3-4.7-4.9-9.4-6.9-14.4c-1-2.5-2-5-2.7-7.6
				C797.4,652.4,796.9,649.8,796.8,647.1z"/>
		</g>
		<g>
			<path class="st17" d="M884.6,696.8c18.3,0,35.3,22.2,38.7,51.2c3.5,30.5-9.2,57-28.5,59.2c-0.9,0.1-1.8,0.2-2.6,0.2
				c-18.3,0-35.3-22.2-38.7-51.2c-3.5-30.5,9.2-57,28.5-59.2C882.9,696.9,883.7,696.8,884.6,696.8 M884.6,694.7
				c-1,0-1.9,0.1-2.9,0.2c-10.1,1.2-18.8,8.3-24.5,20.2c-5.6,11.5-7.6,26.2-5.9,41.3c1.7,14.4,6.7,27.7,14.2,37.5
				c7.6,10,17.1,15.5,26.6,15.5c1,0,1.9-0.1,2.9-0.2c10.1-1.2,18.8-8.3,24.5-20.2c5.6-11.5,7.6-26.2,5.9-41.3
				c-1.7-14.4-6.7-27.7-14.2-37.5C903.6,700.2,894.2,694.7,884.6,694.7L884.6,694.7z"/>
		</g>
		<g>
			<path class="st12" d="M884.6,698.9c17.3,0,33.4,21.7,36.6,49.4c1.7,14.3-0.3,28.2-5.5,39c-5.1,10.5-12.6,16.8-21.2,17.8
				c-0.8,0.1-1.6,0.1-2.4,0.1c-17.3,0-33.4-21.7-36.6-49.4c-1.7-14.3,0.3-28.2,5.5-39c5.1-10.5,12.6-16.8,21.2-17.8
				C883,699,883.8,698.9,884.6,698.9 M884.6,696.8c-0.9,0-1.7,0.1-2.6,0.2c-19.3,2.2-32.1,28.8-28.5,59.2
				c3.4,29.1,20.4,51.2,38.7,51.2c0.9,0,1.7-0.1,2.6-0.2c19.3-2.2,32.1-28.8,28.5-59.2C919.9,719,902.9,696.8,884.6,696.8
				L884.6,696.8z"/>
		</g>
		<g>
			<g>
				<path class="st17" d="M882,697c4.5-0.5,9,0.3,13.2,2.3l26.6,77c-3,12.2-8.9,21.9-16.7,27l-35-101.5
					C873.7,699.2,877.7,697.5,882,697z"/>
			</g>
			<g>
				<path class="st17" d="M863.9,708.2l34,98.5c-1,0.3-2,0.5-3.1,0.6c-3.4,0.4-6.7,0-9.9-1l-28.6-82.9
					C858.1,717.5,860.7,712.3,863.9,708.2z"/>
			</g>
		</g>
		<g>
			<g>
				<path class="st17" d="M736.9,691.8c0.6,0.1,1.3,0.2,1.9,0.3l34.7,100c-6.4,6.9-14.3,12.3-23.1,15.6l-39.4-113.7
					C719.1,691.5,727.9,690.6,736.9,691.8z"/>
			</g>
			<g>
				<path class="st17" d="M702.9,697.3L742,810.3c-4.4,1-9,1.4-13.7,1.4l-37-106.9C694.9,701.8,698.7,699.3,702.9,697.3z"/>
			</g>
		</g>
		<g>
			<path class="st12" d="M729,691.3v2.1h0c2.5,0,5.1,0.2,7.6,0.5c31.7,4.1,54.2,33.3,50.1,65.1c-3.8,28.8-28.5,50.6-57.5,50.6
				c-2.5,0-5.1-0.2-7.6-0.5c-31.7-4.1-54.2-33.3-50.1-65.1c3.8-28.8,28.5-50.6,57.5-50.6L729,691.3 M729,691.3
				c-29.8,0-55.6,22.1-59.6,52.4c-4.3,33,18.9,63.1,51.9,67.4c2.6,0.3,5.3,0.5,7.8,0.5c29.8,0,55.6-22.1,59.6-52.4
				c4.3-33-18.9-63.1-51.9-67.4C734.2,691.5,731.6,691.3,729,691.3L729,691.3z"/>
		</g>
		<polygon class="st12" points="616.5,883.2 652.7,889.4 661,906.1 644.9,909.7 615.2,899.5 		"/>
		<polygon class="st13" points="616.5,883.2 652.7,889.4 661,906.1 644.9,909.7 615.2,899.5 		"/>
		<g>
			<path class="st15" d="M612.5,877.5c5.1,3.5,11.1,5.3,17.1,6.4c1.5,0.3,3,0.5,4.3,1.2c2.3,1.2,3.7,3.6,4.3,6.1
				c0.6,2.5,0.4,5.1,0,7.6c-0.3,2.4-0.9,5-2.8,6.5c-1.4,1.1-3.3,1.3-5.2,1.4c-6.9,0.2-13.9-1.6-19.8-5.3"/>
			<line class="st15" x1="612.5" y1="877.5" x2="610.4" y2="901.4"/>
		</g>
		<path class="st12" d="M616.5,883.2c-29.7-7.4-90.7-23.8-99.8-42c0.5,0.1-0.8,18.7-0.6,20.7c8.4,18.9,51,28.5,99.2,37.7
			L616.5,883.2z"/>
		<g class="st26">
			<path class="st23" d="M744.2,818.9c-8.6,2.2-17.8,2.8-26.8,1.7c-4.5-0.5-9-1.5-13.3-2.9c-4.3-1.4-8.5-3.3-12.5-5.6
				c-3.9-2.4-7.6-5.2-10.9-8.4c-3.2-3.2-6.2-6.8-8.6-10.7c-4.8-7.7-7.7-16.8-7.4-25.8c1.5,8.8,5,16.9,10.1,23.9
				c2.6,3.5,5.4,6.7,8.6,9.6c3.2,2.9,6.6,5.5,10.3,7.6c3.7,2.2,7.6,4,11.7,5.5c4,1.5,8.2,2.6,12.5,3.4
				C726.5,819,735.3,819.4,744.2,818.9z"/>
		</g>
		<g class="st26">
			<path class="st23" d="M928.3,780.5c-0.8,6.3-2.5,12.5-5.4,18.3c-1.4,2.9-3.2,5.7-5.4,8.2c-2.2,2.5-4.8,4.7-7.7,6.4
				c-5.9,3.4-12.9,4.5-19.4,3.6c-6.5-0.8-12.7-3.3-17.8-7c6,2.2,12,3.6,18.1,3.7c6,0.1,12-1,17-4c5.1-2.9,9.1-7.5,12.4-12.6
				C923.3,792.1,925.8,786.3,928.3,780.5z"/>
		</g>
		<g class="st26">
			<path class="st28" d="M870.5,648.9c-1.9-0.8-3.8-1.5-5.8-2.1c-2-0.6-4-1.1-5.9-1.6c-4-1-8-1.9-12-2.7c-8.1-1.6-16.2-3-24.3-4.2
				c-8.1-1.1-16.3-2.1-24.5-2.8c-8.2-0.7-16.4-1.3-24.5-1.5c-8.2-0.3-16.4-0.2-24.6,0.2c-8.2,0.3-16.3,1.2-24.4,2.4
				c-8.1,1.3-16.1,3-23.8,5.6c-7.8,2.5-15.3,6-22.1,10.6c6.3-5.3,13.8-9.3,21.5-12.4c7.7-3.1,15.8-5.3,24-6.8
				c4.1-0.8,8.2-1.4,12.3-1.9l6.2-0.7l6.2-0.5c8.3-0.5,16.6-0.6,24.9-0.4c16.6,0.6,33.1,2.3,49.4,5.2c8.1,1.4,16.2,3.2,24.2,5.3
				c4,1.1,8,2.2,11.9,3.5C863,645.5,866.9,646.9,870.5,648.9z"/>
		</g>
		<g class="st26">
			<path class="st23" d="M763.1,616.1c-1,3.5-3.4,6.5-6.3,8.5c-3,2.1-6.4,3.5-10,4.1c-7.2,1.4-14.4,0.6-21.5,1.3
				c-7.1,0.6-14.1,1.7-20.9,3.8c-3.4,1-6.7,2.3-9.9,3.7l-2.4,1.2l-1.2,0.6l-1.2,0.6l-2.3,1.3l-2.2,1.4c-6,3.7-11.1,8.7-15.4,14.3
				c-4.2,5.7-7.7,12-12.3,17.6c-2.3,2.8-4.8,5.5-7.8,7.6c-3,2.1-6.4,3.6-9.9,4.6c-3.5,1-7.1,1.5-10.7,1.6c-3.6,0.2-7.2,0-10.8-0.5
				c7.1,0.3,14.4,0.1,21.1-2.1c3.4-1.1,6.6-2.6,9.4-4.7c2.8-2.1,5.2-4.7,7.3-7.5c4.3-5.6,7.8-11.9,12-17.8c4.3-5.8,9.6-11,15.8-14.9
				l2.3-1.5l2.4-1.3l1.2-0.7l1.2-0.6l2.5-1.2c3.3-1.4,6.7-2.7,10.2-3.7c6.9-2,14.1-3.2,21.3-3.6c7.2-0.5,14.4,0.4,21.4-0.7
				c3.5-0.5,6.9-1.7,9.9-3.6C759.4,622.3,761.9,619.5,763.1,616.1z"/>
		</g>
		<g class="st26">
			<path class="st23" d="M622,734.1c1.7,0.1,3.4,0.6,5,1.5c1.5,0.9,2.9,2,4,3.4c1.1,1.3,2.1,2.8,2.8,4.4c0.7,1.6,1.3,3.3,1.6,5
				c0.8,3.4,0.9,6.9,1.2,10.4c0.2,3.4,0.5,6.9,1,10.3c0.9,6.8,2.1,13.6,3.8,20.3c1.7,6.7,3.9,13.2,6.2,19.7c2.3,6.5,4.7,13,6.4,19.8
				c0.9,3.4,1.7,6.8,2.1,10.3c0.5,3.5,0.7,7,0.6,10.5c-0.1,3.5-0.7,7-1.9,10.4c-1.2,3.3-3,6.5-5.7,8.9c-1.4,1.1-2.9,2.1-4.6,2.7
				c-1.6,0.7-3.4,1-5.1,1.3c-1.7,0.3-3.5,0.4-5.2,0.4l-1.3,0c-0.4,0-0.9,0-1.3-0.1c-0.4-0.1-0.9-0.4-0.8-0.9
				c0.1-0.2,0.4-0.3,0.6-0.3c0.1,0,0.2,0,0.3,0.1c0.1,0.1,0.1,0.2,0,0.3c0.1-0.1,0.1-0.2,0-0.3c-0.1-0.1-0.2-0.1-0.3-0.1
				c-0.2,0-0.4,0.1-0.5,0.3c-0.1,0.4,0.4,0.7,0.8,0.7c0.4,0.1,0.8,0,1.3,0l1.3-0.1c1.7-0.2,3.4-0.3,5.1-0.7c1.7-0.3,3.3-0.8,4.9-1.5
				c1.5-0.7,2.9-1.6,4.2-2.8c2.5-2.3,4.1-5.3,5.1-8.5c1-3.2,1.5-6.6,1.5-10c0-6.8-1.1-13.6-2.9-20.2c-1.8-6.6-4.2-13.1-6.6-19.6
				c-2.3-6.5-4.5-13.2-6.1-19.9c-1.6-6.8-2.9-13.6-3.5-20.5c-0.3-3.5-0.6-6.9-0.7-10.4c-0.1-3.5-0.2-6.9-0.9-10.2
				c-0.6-3.3-1.8-6.6-3.9-9.3C628.5,736.6,625.5,734.5,622,734.1z"/>
		</g>
	</g>
	<polygon class="st29" points="836.1,550.1 801,600.3 816,607 799.3,625.4 822.7,627.1 834.5,600.3 822.7,588.6 	"/>
</g>
</svg>
