<?xml version="1.0" encoding="utf-8"?>
<!-- Generator: Adobe Illustrator 24.0.2, SVG Export Plug-In . SVG Version: 6.00 Build 0)  -->
<svg version="1.1" id="Layer_1" xmlns="http://www.w3.org/2000/svg" xmlns:xlink="http://www.w3.org/1999/xlink" x="0px" y="0px"
	 viewBox="0 0 784.9 533.9" style="enable-background:new 0 0 784.9 533.9;" xml:space="preserve">
<style type="text/css">
	.st0{fill:#E2E2E2;}
	.st1{fill:#BFBFBF;}
	.st2{fill:#FBB22F;}
	.st3{fill:#FFFFFF;}
	.st4{fill:#5B5B5B;}
	.st5{fill:#35A749;}
	.st6{opacity:0.2;}
	.st7{fill:#375A64;}
</style>
<g>
	<path class="st0" d="M346.9,52h-13.3c-4.2,0-7.5-3.4-7.5-7.5l0,0c0-4.2,3.4-7.5,7.5-7.5h13.3c4.2,0,7.5,3.4,7.5,7.5l0,0
		C354.4,48.7,351.1,52,346.9,52z"/>
	<path class="st0" d="M340.1,41.3h-4c-2.4,0-4.3-1.9-4.3-4.3l0,0c0-2.4,1.9-4.3,4.3-4.3h4c2.4,0,4.3,1.9,4.3,4.3l0,0
		C344.3,39.4,342.4,41.3,340.1,41.3z"/>
	<path class="st0" d="M355.6,64.6H325c-5.1,0-9.2-4.1-9.2-9.2l0,0c0-5.1,4.1-9.2,9.2-9.2h30.6c5.1,0,9.2,4.1,9.2,9.2l0,0
		C364.8,60.4,360.7,64.6,355.6,64.6z"/>
</g>
<g>
	<path class="st0" d="M667.3,125.1H654c-4.2,0-7.5-3.4-7.5-7.5l0,0c0-4.2,3.4-7.5,7.5-7.5h13.3c4.2,0,7.5,3.4,7.5,7.5l0,0
		C674.8,121.7,671.5,125.1,667.3,125.1z"/>
	<path class="st0" d="M660.5,114.3h-4c-2.4,0-4.3-1.9-4.3-4.3l0,0c0-2.4,1.9-4.3,4.3-4.3h4c2.4,0,4.3,1.9,4.3,4.3l0,0
		C664.7,112.4,662.8,114.3,660.5,114.3z"/>
	<path class="st0" d="M676,137.6h-30.6c-5.1,0-9.2-4.1-9.2-9.2l0,0c0-5.1,4.1-9.2,9.2-9.2H676c5.1,0,9.2,4.1,9.2,9.2l0,0
		C685.2,133.5,681.1,137.6,676,137.6z"/>
</g>
<g>
	<path class="st0" d="M81.1,86.8H70.3c-3.4,0-6.1-2.7-6.1-6.1l0,0c0-3.4,2.7-6.1,6.1-6.1h10.8c3.4,0,6.1,2.7,6.1,6.1l0,0
		C87.2,84.1,84.4,86.8,81.1,86.8z"/>
	<path class="st0" d="M75.5,78.1h-3.2c-1.9,0-3.5-1.6-3.5-3.5l0,0c0-1.9,1.6-3.5,3.5-3.5h3.2c1.9,0,3.5,1.6,3.5,3.5l0,0
		C79,76.6,77.4,78.1,75.5,78.1z"/>
	<path class="st0" d="M88.1,97H63.2c-4.1,0-7.5-3.4-7.5-7.5l0,0c0-4.1,3.4-7.5,7.5-7.5h24.9c4.1,0,7.5,3.4,7.5,7.5l0,0
		C95.6,93.7,92.3,97,88.1,97z"/>
</g>
<g>
	<path class="st0" d="M703.5,34.4h-10.8c-3.4,0-6.1-2.7-6.1-6.1l0,0c0-3.4,2.7-6.1,6.1-6.1h10.8c3.4,0,6.1,2.7,6.1,6.1l0,0
		C709.6,31.6,706.9,34.4,703.5,34.4z"/>
	<path class="st0" d="M698,25.6h-3.2c-1.9,0-3.5-1.6-3.5-3.5l0,0c0-1.9,1.6-3.5,3.5-3.5h3.2c1.9,0,3.5,1.6,3.5,3.5l0,0
		C701.4,24.1,699.9,25.6,698,25.6z"/>
	<path class="st0" d="M710.6,44.5h-24.9c-4.1,0-7.5-3.4-7.5-7.5l0,0c0-4.1,3.4-7.5,7.5-7.5h24.9c4.1,0,7.5,3.4,7.5,7.5l0,0
		C718,41.2,714.7,44.5,710.6,44.5z"/>
</g>
<g>
	<path class="st0" d="M555.4,82h-23.6c-7.4,0-13.3-6-13.3-13.3l0,0c0-7.4,6-13.3,13.3-13.3h23.6c7.4,0,13.3,6,13.3,13.3l0,0
		C568.8,76,562.8,82,555.4,82z"/>
	<path class="st0" d="M543.3,62.9h-7c-4.2,0-7.6-3.4-7.6-7.6l0,0c0-4.2,3.4-7.6,7.6-7.6h7c4.2,0,7.6,3.4,7.6,7.6l0,0
		C550.8,59.5,547.4,62.9,543.3,62.9z"/>
	<path class="st0" d="M570.8,104.2h-54.3c-9,0-16.3-7.3-16.3-16.3l0,0c0-9,7.3-16.3,16.3-16.3h54.3c9,0,16.3,7.3,16.3,16.3l0,0
		C587.2,96.9,579.8,104.2,570.8,104.2z"/>
</g>
<g>
	<path class="st0" d="M199.9,35h-18.7c-5.8,0-10.6-4.7-10.6-10.6l0,0c0-5.8,4.7-10.6,10.6-10.6h18.7c5.8,0,10.6,4.7,10.6,10.6l0,0
		C210.4,30.3,205.7,35,199.9,35z"/>
	<path class="st0" d="M190.2,19.9h-5.6c-3.3,0-6-2.7-6-6l0,0c0-3.3,2.7-6,6-6h5.6c3.3,0,6,2.7,6,6l0,0
		C196.2,17.2,193.5,19.9,190.2,19.9z"/>
	<path class="st0" d="M212.1,52.7H169c-7.2,0-13-5.8-13-13l0,0c0-7.2,5.8-13,13-13h43.1c7.2,0,13,5.8,13,13l0,0
		C225,46.9,219.2,52.7,212.1,52.7z"/>
</g>
<path class="st1" d="M390.6,514.9c-3.8-0.6-7.4-1.1-11-1.8c-13.8-2.4-46.7-5.7-60.7-6.3c-1.1,0-2.3-0.1-3.5-0.1
	C343.7,508.3,367.6,511.6,390.6,514.9z"/>
<g>
	<path class="st0" d="M338,318.2v-2.1l-3.7,7.5C336.5,322.8,338,320.7,338,318.2z"/>
	<path class="st0" d="M495.5,323.4c-2.1,0.8-4.5,1.2-7.2,1.2c-3,0-5.6-0.3-7.7-1s-3.8-1.7-4.9-3s-2-3-2.5-4.9
		c-0.5-1.9-0.7-4.8-0.7-8.6v-11.6c0-4.2,0.5-7.5,1.4-9.8c0.9-2.4,2.5-4.3,4.9-5.7c2.4-1.4,5.4-2.1,9.1-2.1c3.1,0,5.7,0.5,8,1.4
		c0.3,0.1,0.5,0.3,0.8,0.4l-16.2-165.4l-38-6.4l-64.7,129.5v81.2c0,3.1,2.5,5.6,5.6,5.6s5.6,2.5,5.6,5.6v15.7c0,3.1-2.5,5.6-5.6,5.6
		s-5.6,2.5-5.6,5.6v16.6c0,3.1-2.5,5.6-5.6,5.6h-28.2c-3.1,0-5.6-2.5-5.6-5.6v-16.6c0-3.1-2.5-5.6-5.6-5.6h-11.8l-77.5,155.1
		c0,0,55.6-0.2,75.8,0.7c14,0.6,46.9,3.9,60.7,6.3c34.5,6,81.1,9.4,99.9,10.2c16.3,0.7,40.4-5,40.4-5L500.4,320
		C499.1,321.6,497.5,322.7,495.5,323.4z M420.3,305.9h-18.1v-9.5h18.1V305.9z M468,323.8h-13.8v-31.3c0-3.1-0.1-5-0.3-5.7
		c-0.2-0.7-0.8-1-1.7-1c-1,0-1.6,0.4-1.8,1.2s-0.4,2.9-0.4,6.3v30.6h-13.8v-45.2h14l-0.2,4.2c1-1.7,2.2-2.9,3.7-3.7s3.1-1.2,5-1.2
		c2.4,0,4.3,0.6,5.8,1.7c1.5,1.1,2.5,2.5,2.9,4.2c0.4,1.7,0.6,4.5,0.6,8.5V323.8z"/>
	<path class="st0" d="M488.2,285.8c-0.8,0-1.4,0.3-1.6,0.9c-0.3,0.6-0.4,2.1-0.4,4.4v20.4c0,2.1,0.1,3.5,0.4,4.2
		c0.3,0.6,0.8,1,1.6,1c0.8,0,1.4-0.3,1.6-0.9c0.3-0.6,0.4-1.9,0.4-3.8v-20.8c0-2.3-0.1-3.8-0.4-4.4
		C489.5,286.1,489,285.8,488.2,285.8z"/>
</g>
<g>
	<path class="st1" d="M661.8,195.2h-85.2c-29,0-61.4-10.8-90.9-24.9l10.7,109.3c1.8,0.9,3.3,1.9,4.3,3.2c1.2,1.5,2,3,2.5,4.6
		c0.4,1.6,0.7,4,0.7,7.2v11.1c0,4.1-0.2,7-0.6,8.9s-1.3,3.7-2.6,5.3c-0.1,0.1-0.2,0.2-0.2,0.3l19.5,198.3c0,0-24.1,5.7-40.4,5
		c-15.1-0.6-48-3-78.2-6.9c27,3.8,53.5,7,85.5,7c36.6,0,78.7-23.1,104.4-32.4c31.4-11.4,93.8-13.6,104-17.5
		c33.9-13.2,29.4-46,33.8-84.5c3-26.2,16.2-44.8,24-102.6C759.7,236.4,712.2,195.2,661.8,195.2z M527.2,323.8h-5.6
		c-3.1,0-5.4-0.1-6.7-0.4s-2.5-0.9-3.5-1.8c-1-0.9-1.7-2-1.9-3.2c-0.2-1.2-0.4-4.1-0.4-8.6v-23h-3v-7.2h3v-7.1h13.8v7.1h3.7v7.2
		h-3.7V311c0,3,0.2,4.6,0.5,5c0.3,0.3,1.6,0.5,3.8,0.5V323.8z M559.5,275.6c-2.8,0-4.5,0.1-5,0.4c-0.5,0.3-0.8,1-0.8,2.2v1.4h5.8
		v7.2h-3.3v37h-13.8v-37h-2.8v-7.2h2.8c0-3,0.1-5,0.3-6c0.2-1,0.7-1.9,1.5-2.7c0.8-0.8,1.9-1.4,3.4-1.8c1.5-0.4,3.7-0.6,6.8-0.6h5
		V275.6z M593.3,305.5c0,4.1-0.2,7-0.6,8.9s-1.3,3.7-2.6,5.3c-1.3,1.6-3.1,2.9-5.2,3.6s-4.5,1.2-7.2,1.2c-3,0-5.6-0.3-7.7-1
		s-3.8-1.7-4.9-3s-2-3-2.5-4.9c-0.5-1.9-0.7-4.8-0.7-8.6v-11.6c0-4.2,0.5-7.5,1.4-9.8c0.9-2.4,2.5-4.3,4.9-5.7
		c2.4-1.4,5.4-2.1,9.1-2.1c3.1,0,5.7,0.5,8,1.4c2.2,0.9,3.9,2.1,5.1,3.6c1.2,1.5,2,3,2.5,4.6c0.4,1.6,0.7,4,0.7,7.2V305.5z
		 M629.3,323.8h-14l0.2-3.8c-1,1.5-2.1,2.7-3.5,3.4c-1.4,0.8-3,1.1-4.8,1.1c-2.1,0-3.8-0.4-5.1-1.1s-2.4-1.7-3-2.9
		c-0.6-1.2-1.1-2.5-1.2-3.8c-0.2-1.3-0.2-3.9-0.2-7.8v-30.5h13.8v30.8c0,3.5,0.1,5.6,0.3,6.3c0.2,0.7,0.8,1,1.8,1c1,0,1.6-0.3,1.8-1
		c0.2-0.7,0.3-2.9,0.3-6.6v-30.4h13.8V323.8z M666,323.8h-13.8v-31.3c0-3.1-0.1-5-0.3-5.7c-0.2-0.7-0.8-1-1.7-1
		c-1,0-1.6,0.4-1.8,1.2s-0.4,2.9-0.4,6.3v30.6h-13.8v-45.2h14l-0.2,4.2c1-1.7,2.2-2.9,3.7-3.7s3.1-1.2,5-1.2c2.4,0,4.3,0.6,5.8,1.7
		c1.5,1.1,2.5,2.5,2.9,4.2c0.4,1.7,0.6,4.5,0.6,8.5V323.8z M702.1,323.8h-13.8v-3.3c-1.3,1.4-2.7,2.4-4.2,3.1c-1.5,0.7-3,1-4.6,1
		c-2.1,0-4-0.6-5.6-1.7c-1.6-1.1-2.6-2.4-3-3.9c-0.4-1.5-0.7-3.9-0.7-7.2v-21.2c0-3.5,0.2-5.9,0.7-7.4c0.4-1.5,1.5-2.7,3-3.8
		c1.6-1.1,3.5-1.7,5.7-1.7c1.7,0,3.3,0.3,4.7,0.9c1.4,0.6,2.7,1.5,3.9,2.8v-12.8h13.8V323.8z"/>
	<path class="st1" d="M686.2,285.8c-0.8,0-1.4,0.3-1.7,0.8c-0.3,0.5-0.4,1.7-0.4,3.4v22.1c0,1.8,0.1,3,0.4,3.6
		c0.3,0.6,0.8,0.9,1.6,0.9c0.9,0,1.5-0.3,1.8-1c0.3-0.6,0.4-2.2,0.4-4.8V290c0-1.7-0.1-2.8-0.4-3.3
		C687.6,286.1,687,285.8,686.2,285.8z"/>
	<path class="st1" d="M577.6,285.8c-0.8,0-1.4,0.3-1.6,0.9c-0.3,0.6-0.4,2.1-0.4,4.4v20.4c0,2.1,0.1,3.5,0.4,4.2
		c0.3,0.6,0.8,1,1.6,1c0.8,0,1.4-0.3,1.6-0.9c0.3-0.6,0.4-1.9,0.4-3.8v-20.8c0-2.3-0.1-3.8-0.4-4.4
		C578.9,286.1,578.4,285.8,577.6,285.8z"/>
</g>
<g>
	<path class="st1" d="M235.3,242c-2.9,0-4.9,1.1-5.8,3.4c-0.9,2.2-1.4,7.4-1.4,15.6v77.1c0,9.2,0.4,14.7,1.3,16.6
		c0.9,1.9,2.8,2.8,5.7,2.8s4.8-1.1,5.8-3.3c0.9-2.2,1.4-7.2,1.4-14.9v-78.3c0-8.4-0.4-13.7-1.2-15.8C240.2,243,238.3,242,235.3,242z
		"/>
	<path class="st1" d="M127.5,265.4l-13.3,51.3c-1,3.7,1.8,7.3,5.6,7.3h4.1c3.2,0,5.8-2.6,5.8-5.8v-52.5
		C129.7,264.4,127.8,264.1,127.5,265.4z"/>
	<path class="st1" d="M338,265.7c0-1.3-1.9-1.6-2.3-0.3l-13.3,51.3c-1,3.7,1.8,7.3,5.6,7.3h4.1c0.7,0,1.4-0.1,2.1-0.4l3.7-7.5V265.7
		z"/>
	<path class="st1" d="M348.6,117.6c-25.2,0.9-24.2-25.2-55.5-26.3c-28.4-1-81.3,103.9-151.7,103.9h-30.2
		c-50.4,0-93.6,39.5-91.2,91.2c2.4,51.7,13.1,63.5,13.1,96.7s33.5,87.1,72.3,88.9c69,3.1,85.3,36.3,142.6,34.1c0.1,0,0.2,0,0.4,0
		c-3.3,0-5.3,0-5.3,0L320.6,351h-23.9c-3.1,0-5.6-2.5-5.6-5.6v-20.4c0-0.6,0.1-1.2,0.3-1.8l32.5-98.6c0.8-2.3,2.9-3.9,5.3-3.9h42.6
		c3.1,0,5.6,2.5,5.6,5.6v10.9l50.2-100.4c-14.8-10-26.2-18.9-32.2-24.4C384.6,102.5,361.7,117.1,348.6,117.6z M180.4,345.3
		c0,3.1-2.5,5.6-5.6,5.6s-5.6,2.5-5.6,5.6v16.6c0,3.1-2.5,5.6-5.6,5.6h-28.2c-3.1,0-5.6-2.5-5.6-5.6v-16.6c0-3.1-2.5-5.6-5.6-5.6
		H88.5c-3.1,0-5.6-2.5-5.6-5.6v-20.4c0-0.6,0.1-1.2,0.3-1.8l32.5-98.6c0.8-2.3,2.9-3.9,5.3-3.9h42.6c3.1,0,5.6,2.5,5.6,5.6v92.1
		c0,3.1,2.5,5.6,5.6,5.6s5.6,2.5,5.6,5.6V345.3z M281.7,326.9c0,12-0.7,20.7-2,26.2c-1.3,5.5-4,10.6-8.1,15.3
		c-4.1,4.8-9,8.2-14.8,10.3c-5.8,2.1-12.3,3.1-19.4,3.1c-9.4,0-17.3-1.1-23.5-3.3s-11.2-5.6-14.9-10.2c-3.7-4.6-6.3-9.5-7.9-14.6
		c-1.6-5.1-2.3-13.2-2.3-24.4v-55.2c0-14.5,1.3-25.4,3.8-32.6c2.5-7.2,7.5-13,14.9-17.4c7.5-4.4,16.5-6.5,27.1-6.5
		c8.7,0,16.4,1.5,23.2,4.5s11.9,6.7,15.3,11.1c3.4,4.4,5.7,9.3,6.9,14.7c1.2,5.5,1.8,14.2,1.8,26.2V326.9z"/>
</g>
<g>
	<path class="st2" d="M471.5,148.9c0.1,0-0.1-5.5-0.5-12.2c-0.3-6.7-0.6-12.2-0.7-12.2s0.1,5.5,0.5,12.2
		C471.1,143.5,471.4,148.9,471.5,148.9z"/>
</g>
<g>
	<path class="st2" d="M459,143.6c0.1,0,0.8-4.1,1.7-9.1c0.9-5.1,1.5-9.2,1.4-9.2s-0.8,4.1-1.7,9.1C459.6,139.5,459,143.6,459,143.6z
		"/>
</g>
<g>
	<path class="st2" d="M447.3,135.6c0.1,0,1.3-3,2.8-6.7c1.5-3.7,2.6-6.8,2.5-6.8s-1.3,3-2.8,6.7
		C448.3,132.6,447.2,135.6,447.3,135.6z"/>
</g>
<g>
	<g>
		<g>
			<path class="st2" d="M483.6,116.4l0.1,4.6c0,0-26.7,0.9-47.4-9.5l1.8-4.5L483.6,116.4z"/>
			<path class="st3" d="M478.7,118.6c0,0.4,0.3,0.8,0.8,0.8c0.4,0,0.8-0.3,0.8-0.8c0-0.4-0.3-0.8-0.8-0.8
				C479,117.9,478.7,118.2,478.7,118.6z"/>
			<circle class="st3" cx="468.5" cy="117.9" r="0.8"/>
			<path class="st3" d="M473.5,118.4c0,0.4,0.3,0.8,0.7,0.8c0.4,0,0.8-0.3,0.8-0.7s-0.3-0.8-0.7-0.8
				C473.9,117.7,473.5,118,473.5,118.4z"/>
			<path class="st3" d="M461.9,117.2c0,0.4,0.3,0.8,0.8,0.8c0.4,0,0.8-0.3,0.8-0.8c0-0.4-0.3-0.8-0.8-0.8
				C462.2,116.4,461.9,116.8,461.9,117.2z"/>
			<path class="st3" d="M448.5,114.3c0,0.4,0.3,0.8,0.8,0.8c0.4,0,0.8-0.3,0.8-0.8c0-0.4-0.3-0.8-0.8-0.8S448.5,113.9,448.5,114.3z"
				/>
			<path class="st3" d="M442.2,112.4c0,0.4,0.3,0.8,0.8,0.8c0.4,0,0.8-0.3,0.8-0.8c0-0.4-0.3-0.8-0.8-0.8S442.2,112,442.2,112.4z"/>
			<path class="st3" d="M455.3,116c0,0.4,0.3,0.8,0.8,0.8c0.4,0,0.8-0.3,0.8-0.8c0-0.4-0.3-0.8-0.8-0.8
				C455.7,115.3,455.3,115.6,455.3,116z"/>
		</g>
		<g>
			<g>
				<path class="st2" d="M526.7,106.8c0.2,1.6-21.9,15.9-69.2,6.9c-40.7-7.7-58.6-28.9-58.6-28.9L526.7,106.8z"/>
				<path class="st4" d="M526.7,106.8c0.2,1.6-21.9,15.9-69.2,6.9c-40.7-7.7-58.6-28.9-58.6-28.9L526.7,106.8z"/>
				
					<ellipse transform="matrix(0.1633 -0.9866 0.9866 0.1633 293.5233 536.8339)" class="st2" cx="463.3" cy="95.4" rx="8.7" ry="65"/>
				<path class="st0" d="M493,96.7c0,0,5.3-29-23.2-36C441.3,53.6,435.1,84,435.1,84S452.2,100.3,493,96.7z"/>
				<g>
					<path class="st3" d="M481.1,69c-0.1,0.1,0.8,1,2.1,2.6c0.3,0.4,0.7,0.8,1,1.3c0.4,0.5,0.7,1,1.1,1.5c0.7,1.1,1.5,2.4,2.2,3.8
						s1.2,2.8,1.6,4c0.2,0.6,0.4,1.2,0.5,1.8c0.2,0.6,0.3,1.1,0.4,1.6c0.4,2,0.5,3.3,0.7,3.3c0.1,0,0.3-1.3,0.1-3.4
						c-0.1-0.5-0.1-1.1-0.3-1.7c-0.1-0.6-0.3-1.2-0.4-1.9c-0.4-1.3-0.9-2.8-1.6-4.2c-0.7-1.4-1.5-2.7-2.3-3.9
						c-0.4-0.6-0.8-1.1-1.2-1.5c-0.4-0.5-0.8-0.9-1.2-1.3C482.3,69.5,481.2,68.9,481.1,69z"/>
				</g>
				<g>
					<path class="st3" d="M404,84.9c0,0,0,0.1,0.2,0.2c0.1,0.1,0.3,0.4,0.5,0.6c0.5,0.5,1.3,1.1,2.5,1.7c2.2,1.2,5.4,2.7,9,4
						s7,2.1,9.4,2.6c1.2,0.2,2.2,0.4,2.9,0.5c0.3,0,0.6,0.1,0.8,0.1c0.2,0,0.3,0,0.3,0s-0.1,0-0.3-0.1c-0.2,0-0.5-0.1-0.8-0.1
						c-0.7-0.1-1.7-0.3-2.9-0.6c-2.4-0.5-5.8-1.4-9.4-2.7c-3.6-1.3-6.7-2.7-9-3.9c-1.1-0.6-2-1.1-2.5-1.6
						C404.2,85.2,404,84.9,404,84.9z"/>
				</g>
				<g>
					<path class="st4" d="M468.6,115.6c0,0,0.2-0.1,0.4-0.2c0.3-0.1,0.6-0.4,1.1-0.7c0.4-0.3,0.9-0.7,1.5-1.2c0.5-0.5,1-1.1,1.5-1.7
						c0.5-0.7,0.9-1.3,1.2-2c0.3-0.6,0.5-1.2,0.7-1.8c0.2-0.5,0.3-0.9,0.3-1.2c0.1-0.3,0.1-0.5,0.1-0.5s-0.2,0.6-0.5,1.7
						c-0.2,0.5-0.4,1.1-0.7,1.7c-0.3,0.6-0.7,1.3-1.2,1.9c-0.5,0.7-1,1.2-1.5,1.7s-1,0.9-1.4,1.2
						C469.1,115.2,468.6,115.6,468.6,115.6z"/>
				</g>
				<g>
					<path class="st4" d="M471.3,109.2c0,0,0.1,0.1,0.1,0.3c0,0.1,0,0.2-0.1,0.2c-0.1,0.1-0.2,0.1-0.3,0c-0.1,0-0.2-0.1-0.2-0.2
						s0.1-0.2,0.1-0.2C471.2,109.2,471.3,109.2,471.3,109.2s-0.1-0.1-0.3,0c-0.1,0.1-0.2,0.2-0.2,0.3c0,0.2,0.1,0.4,0.3,0.4
						c0.2,0.1,0.4,0,0.5-0.1s0.1-0.3,0.1-0.4C471.5,109.1,471.3,109.1,471.3,109.2z"/>
				</g>
				<g>
					<path class="st4" d="M469.1,112.3c0,0,0.1,0.1,0.1,0.3c0,0.1,0,0.2-0.1,0.2c-0.1,0.1-0.2,0.1-0.3,0c-0.1,0-0.2-0.1-0.2-0.2
						s0.1-0.2,0.1-0.2C468.9,112.3,469.1,112.3,469.1,112.3s-0.1-0.1-0.3,0c-0.1,0.1-0.2,0.2-0.2,0.3c0,0.2,0.1,0.4,0.3,0.4
						c0.2,0.1,0.4,0,0.5-0.1s0.1-0.3,0.1-0.4C469.2,112.3,469.1,112.3,469.1,112.3z"/>
				</g>
				<g>
					<path class="st4" d="M527.2,105.7c0,0-0.1-0.1-0.3-0.2s-0.6-0.2-1-0.4c-0.8-0.3-2-0.8-3.6-1.4c-3-1.1-7.2-2.5-12-3.8
						c-4.7-1.2-9.1-2.1-12.3-2.6c-1.6-0.3-2.9-0.5-3.8-0.6c-0.4-0.1-0.8-0.1-1-0.1s-0.4,0-0.4,0s0.1,0,0.4,0.1c0.3,0,0.6,0.1,1,0.2
						c0.9,0.1,2.2,0.4,3.8,0.6c3.2,0.6,7.5,1.4,12.3,2.7c4.7,1.3,9,2.6,12,3.7c1.5,0.5,2.7,1,3.6,1.3c0.4,0.2,0.7,0.3,1,0.4
						C527.1,105.7,527.2,105.7,527.2,105.7z"/>
				</g>
				<g>
					<path class="st4" d="M433,98c0,0,0.2-0.1,0.6-0.3c0.4-0.2,0.9-0.5,1.5-0.8c1.3-0.7,3.1-1.5,5.1-2.5c2-0.9,3.9-1.7,5.3-2.2
						c0.6-0.3,1.2-0.5,1.6-0.6c0.4-0.2,0.6-0.2,0.6-0.3c0,0-0.2,0-0.6,0.2c-0.4,0.1-0.9,0.3-1.6,0.6c-1.4,0.5-3.3,1.2-5.3,2.2
						c-2,0.9-3.8,1.8-5.1,2.5c-0.6,0.3-1.2,0.6-1.5,0.8C433.2,97.9,433,98,433,98z"/>
				</g>
				<g>
					<path class="st4" d="M445.4,93.9c0,0,0.1,0.1,0.1,0.4c0,0.1-0.1,0.2-0.2,0.3c-0.1,0.1-0.3,0.1-0.4,0s-0.2-0.2-0.2-0.3
						c0-0.1,0.1-0.2,0.2-0.3c0.2-0.1,0.3-0.1,0.3-0.1s-0.2-0.1-0.4,0c-0.1,0.1-0.3,0.2-0.3,0.4c0,0.2,0.1,0.4,0.3,0.5
						c0.2,0.1,0.5,0.1,0.6,0c0.2-0.1,0.2-0.3,0.2-0.4C445.6,94,445.4,93.9,445.4,93.9z"/>
				</g>
				<g>
					<path class="st4" d="M499.9,98.6c0,0,0.1,0.1,0.1,0.4c0,0.1-0.1,0.2-0.2,0.3c-0.1,0.1-0.3,0.1-0.4,0s-0.2-0.2-0.2-0.3
						c0-0.1,0.1-0.2,0.2-0.3c0.2-0.1,0.3-0.1,0.3-0.1s-0.2-0.1-0.4,0c-0.1,0.1-0.3,0.2-0.3,0.4c0,0.2,0.1,0.4,0.3,0.5
						c0.2,0.1,0.5,0.1,0.6,0c0.2-0.1,0.2-0.3,0.2-0.4C500.1,98.7,499.9,98.6,499.9,98.6z"/>
				</g>
				<g>
					<path class="st4" d="M509.8,101.1c0,0,0.1,0.1,0.1,0.4c0,0.1-0.1,0.2-0.2,0.3c-0.1,0.1-0.3,0.1-0.4,0s-0.2-0.2-0.2-0.3
						c0-0.1,0.1-0.2,0.2-0.3c0.2-0.1,0.3-0.1,0.3-0.1s-0.2-0.1-0.4,0c-0.1,0.1-0.3,0.2-0.3,0.4c0,0.2,0.1,0.4,0.3,0.5s0.5,0.1,0.6,0
						c0.2-0.1,0.2-0.3,0.2-0.4C510,101.1,509.8,101,509.8,101.1z"/>
				</g>
				<g>
					<path class="st4" d="M521,104.2c0,0,0.1,0.1,0.1,0.4c0,0.1-0.1,0.2-0.2,0.3c-0.1,0.1-0.3,0.1-0.4,0c-0.1-0.1-0.2-0.2-0.2-0.3
						c0-0.1,0.1-0.2,0.2-0.3c0.2-0.1,0.3-0.1,0.3-0.1s-0.2-0.1-0.4,0c-0.1,0.1-0.3,0.2-0.3,0.4c0,0.2,0.1,0.4,0.3,0.5s0.5,0.1,0.6,0
						c0.2-0.1,0.2-0.3,0.2-0.4C521.2,104.2,521,104.1,521,104.2z"/>
				</g>
				<g>
					<path class="st4" d="M440.5,96.5c0,0,0.1,0.1,0.1,0.4c0,0.1-0.1,0.2-0.2,0.3c-0.1,0.1-0.3,0.1-0.4,0s-0.2-0.2-0.2-0.3
						c0-0.1,0.1-0.2,0.2-0.3c0.2-0.1,0.3-0.1,0.3-0.1s-0.2-0.1-0.4,0c-0.1,0.1-0.3,0.2-0.3,0.4c0,0.2,0.1,0.4,0.3,0.5
						c0.2,0.1,0.5,0.1,0.6,0c0.2-0.1,0.2-0.3,0.2-0.4C440.7,96.5,440.5,96.4,440.5,96.5z"/>
				</g>
			</g>
		</g>
	</g>
	<g>
		<g>
			<path class="st5" d="M456.2,94.2c0,0-0.6-2.9-1.4-3.3c-0.7-0.4-2.1-0.6-2.5-0.1c-0.3,0.4-0.6,2.2-0.1,1.8
				c0.4-0.3,0.8-1.1,0.8-1.1l1,0.4l0.6,1.8L456.2,94.2z"/>
			<polygon class="st4" points="453.6,92.7 453.4,93.4 453,93.2 453.2,92.5 			"/>
			<circle class="st2" cx="453.6" cy="92" r="0.8"/>
		</g>
		<g>
			<path class="st5" d="M464.6,68.8c4.4-0.9,8.6,2.2,9,6.8c0,0.1,0,0.1,0,0.2c0,0.7,0,1.4-0.2,2.1c-0.3,0.9-0.8,2.3-1.8,3.6
				c-2.4,3-3.5,3-3.9,4.9c-0.4,1.8-0.7,2.2,0.1,3.1c0,0,1.3,0.2,2,0.8c0.7,0.5,1.2,0.9,1,3.1s-0.2,3.5-0.2,3.5
				c-4-0.3-7.8-0.8-11.4-1.8l1.1-5.5c0,0,0.3-0.8,1.2-0.9c0.9-0.1,2.2,0.1,2.4-0.3s0-0.6,0-0.6s-1.7,0.4-2.6-0.1
				c-1-0.6-2.1-1.4-2.2-2.2c-0.1-0.8-0.4-3.6-0.3-3.7s-1.4-1.6-1.1-4.8c0.3-3.1,2.8-7,5.7-7.8C463.7,69,464.2,68.9,464.6,68.8z"/>
			<path class="st3" d="M468.8,76.4c0,0-5.7-2.5-5.6,4.4C463.2,80.8,469.4,82.4,468.8,76.4z"/>
			<path class="st3" d="M460.7,80.4c0,0,3.2-5.6-1.2-5.6C459.4,74.8,456.6,78.8,460.7,80.4z"/>
			<g class="st6">
				<path class="st3" d="M470.2,71.2c0.4,0.1,0.8,0.4,0.8,0.8s-0.3,0.9-0.7,1c-0.4,0.1-0.9-0.1-1.1-0.5s0-0.9,0.4-1.2
					c0.2-0.1,0.5-0.2,0.8-0.1"/>
			</g>
			<g class="st6">
				<path class="st3" d="M471.3,73.6c0.2,0.1,0.3,0.4,0.1,0.6c-0.2,0.2-0.5,0.1-0.6-0.1s0-0.5,0.2-0.6"/>
			</g>
			<g>
				<path class="st4" d="M464.9,81.7c0,0,0.1,0,0.3,0.1c0.2,0,0.4,0,0.8,0c0.6-0.1,1.5-0.4,2.3-1.1c0.7-0.7,1.1-1.6,1.2-2.2
					c0.1-0.3,0.1-0.6,0.1-0.8c0-0.2,0-0.3,0-0.3s0,0.4-0.2,1s-0.5,1.4-1.2,2.1s-1.6,1-2.2,1.1C465.3,81.7,464.9,81.7,464.9,81.7z"/>
			</g>
			<g>
				<path class="st4" d="M463.6,77.1c0,0,0.6-0.8,1.8-1.2c1.1-0.5,2.1-0.3,2.1-0.4c0,0-0.2-0.1-0.6-0.1s-1,0.1-1.5,0.3
					c-0.6,0.2-1,0.6-1.3,0.9C463.7,76.9,463.6,77.1,463.6,77.1z"/>
			</g>
			<g>
				<path class="st4" d="M461.8,77.6c0,0,0.1-0.2,0.2-0.5s0.1-0.8,0-1.3s-0.4-0.9-0.7-1.1c-0.3-0.2-0.5-0.2-0.5-0.2s0.2,0.1,0.5,0.3
					c0.3,0.2,0.5,0.6,0.6,1.1s0,0.9,0,1.3C461.8,77.4,461.7,77.6,461.8,77.6z"/>
			</g>
			<g>
				<path class="st4" d="M458.7,79.5c0,0,0.1,0.6,0.7,0.9c0.6,0.4,1.1,0.3,1.1,0.3c0-0.1-0.5-0.1-1-0.4
					C459,79.9,458.7,79.5,458.7,79.5z"/>
			</g>
			<g>
				<path class="st4" d="M462.2,87.7c0,0,0.2,0.1,0.6,0.1s1-0.1,1.5-0.3c0.6-0.2,1-0.6,1.2-0.9c0.3-0.3,0.4-0.5,0.4-0.5
					s-0.2,0.2-0.4,0.4c-0.3,0.3-0.7,0.6-1.2,0.8c-0.5,0.2-1.1,0.3-1.4,0.4C462.5,87.7,462.2,87.7,462.2,87.7z"/>
			</g>
			<g>
				<path class="st4" d="M468,96.6c0.1,0,0.2-0.7,0.3-1.7c0.1-0.9,0.2-1.7,0.1-1.7s-0.2,0.7-0.3,1.7C468,95.8,467.9,96.6,468,96.6z"
					/>
			</g>
			<g>
				<path class="st4" d="M464.5,94.8c0,0,0.7,0.3,1.5,0.4c0.4,0,0.9,0,1.1-0.2c0.3-0.2,0.3-0.4,0.3-0.4s-0.1,0.2-0.3,0.3
					c-0.2,0.1-0.6,0.2-1,0.1C465.2,95,464.5,94.8,464.5,94.8z"/>
			</g>
			<g>
				<path class="st4" d="M461,95.5c0,0,0.2-0.6,0.4-1.4c0.2-0.8,0.3-1.4,0.2-1.4c0,0-0.2,0.6-0.4,1.4C461,94.8,460.9,95.4,461,95.5z
					"/>
			</g>
			<g>
				<path class="st4" d="M461.4,93.2c0,0,0.1,0.5,0.5,0.8c0.5,0.4,1,0.3,0.9,0.3c0-0.1-0.4-0.1-0.8-0.4S461.5,93.2,461.4,93.2z"/>
			</g>
			<g>
				<path class="st7" d="M460.8,68c0,0.1,0.6,0.2,1,0.8c0.5,0.5,0.6,1.1,0.7,1.1c0,0,0-0.2-0.1-0.4c-0.1-0.2-0.2-0.6-0.5-0.8
					c-0.3-0.3-0.6-0.5-0.8-0.6C461,68,460.8,67.9,460.8,68z"/>
			</g>
			<path class="st7" d="M460.4,67.5c0.2-0.1,0.5,0,0.6,0.3s-0.2,0.7-0.6,0.5c-0.3-0.1-0.4-0.5-0.1-0.7c0.1-0.1,0.2-0.1,0.3-0.1"/>
			<g>
				<path class="st7" d="M462.5,67.5c0,0.1,0.6,0.2,1,0.8c0.5,0.5,0.6,1.1,0.7,1.1c0,0,0-0.2-0.1-0.4c-0.1-0.2-0.2-0.6-0.5-0.8
					c-0.3-0.3-0.6-0.5-0.8-0.6C462.7,67.5,462.5,67.5,462.5,67.5z"/>
			</g>
			<path class="st7" d="M462.1,67.1c0.2-0.1,0.5,0,0.6,0.3s-0.2,0.7-0.6,0.5c-0.3-0.1-0.4-0.5-0.1-0.7c0.1-0.1,0.2-0.1,0.3-0.1"/>
		</g>
		<g>
			<path class="st4" d="M461.9,83.5c0,0.1,0.3,0,0.6-0.1c0.3-0.1,0.6-0.2,0.6-0.3c0-0.1-0.3,0-0.6,0.1
				C462.1,83.3,461.8,83.5,461.9,83.5z"/>
		</g>
	</g>
</g>
</svg>
